<svg width="167" height="172" viewBox="0 0 167 172" fill="none" xmlns="http://www.w3.org/2000/svg">
<path d="M157.366 113.452C145.37 127.074 125.348 125.73 125.392 132.151C125.44 139.241 149.851 140.436 150.306 147.109C150.923 156.151 107.446 173.542 62.0566 166.422C46.419 163.968 31.6141 161.598 18.8418 150.052C-16.1596 118.408 9.47435 51.4241 13.6521 40.337C21.909 18.4248 32.1344 11.3602 35.2986 9.15766C51.7613 -2.30085 70.704 -0.418032 87.6195 1.26264C100.428 2.53548 119.609 4.70095 137.119 19.1488C140.105 21.6128 146.692 27.4675 152.627 36.7559C167.048 59.3221 173.421 95.2214 157.366 113.452V113.452Z" fill="#F4F6F8"/>
<path d="M71.7057 127.202C99.3956 136.262 108.687 133.764 111.934 129.601C113.821 127.181 114.592 123.01 119.648 118.346C123.909 114.415 125.943 114.996 127.989 111.802C131.54 106.262 126.921 102.174 129.847 96.7341C133.051 90.7777 140.061 92.9402 144.274 85.8838C146.579 82.0235 144.684 81.0369 146.8 77.1631C151.113 69.2675 160.097 71.3301 164.225 64.2437C166.627 60.1178 166.555 54.3131 164.154 50.5463C159.336 42.9915 145.065 43.5174 136.294 48.5753C135.164 49.227 126.635 54.306 124.548 63.3781C123.289 68.852 125.294 71.7856 122.834 74.8689C119.363 79.2187 113.455 75.7833 110.077 79.6042C105.5 84.7819 113.083 94.7825 107.866 100.6C105.847 102.851 104.199 101.924 102.126 104.546C98.7173 108.858 101.22 113.839 100.019 117.669C98.7291 121.781 92.6732 126.145 71.7051 127.201L71.7057 127.202Z" fill="url(#paint0_linear_301_3979)"/>
<g style="mix-blend-mode:soft-light" opacity="0.28">
<path d="M135.004 61.7583C130.068 69.7274 135.286 75.9905 129.983 82.0692C125.677 87.006 120.313 85.0785 118.056 89.9324C115.892 94.5843 120.229 97.6236 118.132 102.992C116.403 107.417 112.846 106.918 108.425 112.319C103.975 117.757 104.895 121.544 102.524 124.917C99.9794 128.537 93.8501 131.381 78.7728 129.382C76.5606 128.745 74.2092 128.021 71.7051 127.202C92.6733 126.146 98.7285 121.783 100.019 117.67C101.22 113.84 98.7173 108.859 102.126 104.547C104.199 101.925 105.847 102.852 107.866 100.601C113.082 94.7829 105.5 84.7829 110.077 79.6052C113.455 75.7837 119.363 79.2197 122.834 74.8699C125.294 71.7865 123.289 68.853 124.548 63.3791C126.635 54.307 135.164 49.228 136.294 48.5763C145.065 43.5184 159.336 42.9925 164.154 50.5472C164.176 50.5837 164.198 50.6213 164.221 50.6577C160.32 50.2246 155.447 50.3157 150.176 51.9417C146.082 53.204 138.938 55.4071 135.004 61.7583V61.7583Z" fill="white"/>
</g>
<path d="M77.918 131.349C90.0508 130.092 93.9026 126.972 94.8611 124.02C96.4296 119.186 90.1389 115.14 91.8707 109.623C93.8662 103.269 103.874 103.361 104.2 99.0387C104.553 94.3664 92.956 92.9983 91.5507 85.9901C90.2769 79.637 99.1228 77.3505 100.347 68.5746C101.808 58.0968 90.2405 53.8858 89.8952 41.6627C89.6591 33.3164 94.8188 27.0098 98.8679 22.0612C107.978 10.9259 124.754 1.26384 141.587 4.96953C143.882 5.47491 157.283 8.42548 159.47 16.8635C161.687 25.4179 151.696 36.9757 142.4 42.5125C135.662 46.5255 130.489 46.6595 129.656 50.4774C128.534 55.624 137.18 58.8379 136.914 66.539C136.774 70.6108 134.218 73.7306 131.704 76.7993C126.006 83.7552 121.584 82.8138 120.308 86.9456C118.562 92.5987 126.289 96.1493 126.809 105.068C127.18 111.422 123.653 116.394 121.666 119.195C113.919 130.115 96.7309 134.493 77.9186 131.35L77.918 131.349Z" fill="url(#paint1_linear_301_3979)"/>
<g style="mix-blend-mode:soft-light" opacity="0.7">
<path d="M164.372 13.487C156.575 15.9774 148.769 18.4326 140.955 20.8643C139.004 21.4796 137.046 22.0702 135.101 22.7077L129.266 24.6035C127.323 25.2417 125.385 25.8904 123.458 26.5692C121.532 27.2491 119.615 27.9548 117.745 28.757C116.811 29.1595 115.889 29.5873 115.005 30.0727C114.56 30.3113 114.133 30.5769 113.715 30.8513C113.305 31.1352 112.909 31.4366 112.546 31.7698C111.821 32.4374 111.263 33.2513 110.926 34.1745C110.594 35.1 110.418 36.0796 110.457 37.0634C110.49 38.0471 110.715 39.0237 111.054 39.9628C111.393 40.9036 111.854 41.8051 112.351 42.686C113.351 44.4477 114.537 46.116 115.667 47.8273C116.8 49.5367 117.898 51.2914 118.751 53.1854C119.167 54.1351 119.535 55.1117 119.79 56.1248C120.035 57.1391 120.194 58.1775 120.219 59.2252C120.24 61.3179 119.801 63.4169 118.872 65.2992C118.404 66.2382 117.808 67.1073 117.142 67.9077C116.475 68.7075 115.732 69.4321 114.986 70.1367C113.494 71.5376 111.952 72.8874 110.906 74.6004C109.833 76.2893 109.346 78.2985 109.284 80.2988C109.257 81.2996 109.35 82.3027 109.58 83.277C109.812 84.2507 110.16 85.1974 110.593 86.1101C111.024 87.0244 111.524 87.9112 112.019 88.8091C112.512 89.7076 113.006 90.6208 113.376 91.6004C113.753 92.5736 113.986 93.6219 114 94.6791C114.005 95.7363 113.816 96.7864 113.461 97.7731C113.106 98.7615 112.585 99.6888 111.94 100.512C111.289 101.33 110.536 102.057 109.739 102.712C108.151 104.033 106.407 105.123 104.947 106.52C104.217 107.215 103.573 107.996 103.083 108.867C102.602 109.742 102.282 110.703 102.131 111.694C101.986 112.686 102.002 113.699 102.221 114.677C102.44 115.656 102.849 116.584 103.271 117.516C103.476 117.986 103.692 118.456 103.85 118.958C104.004 119.457 104.132 119.978 104.126 120.513C104.136 121.044 104.056 121.58 103.877 122.079C103.703 122.581 103.444 123.047 103.139 123.475C102.512 124.321 101.713 125.011 100.854 125.585C99.9944 126.162 99.08 126.645 98.1445 127.073C96.2659 127.914 94.3121 128.559 92.3348 129.098C90.3574 129.639 88.3561 130.082 86.3453 130.469C84.3339 130.853 82.3137 131.187 80.2865 131.471C76.2338 132.049 72.1612 132.471 68.0844 132.82L68.082 132.793C72.1553 132.41 76.2232 131.954 80.2671 131.342C82.2902 131.041 84.3051 130.691 86.3095 130.29C88.3132 129.887 90.3064 129.428 92.2713 128.872C94.2363 128.319 96.1743 127.661 98.0247 126.813C98.9461 126.383 99.8429 125.898 100.677 125.327C101.512 124.759 102.278 124.084 102.87 123.28C103.446 122.475 103.819 121.508 103.779 120.52C103.77 119.53 103.356 118.589 102.941 117.664C102.516 116.737 102.087 115.781 101.853 114.758C101.619 113.736 101.598 112.67 101.744 111.636C101.897 110.603 102.227 109.591 102.728 108.67C103.237 107.752 103.907 106.934 104.655 106.216C106.153 104.772 107.901 103.671 109.451 102.366C110.231 101.719 110.954 101.011 111.574 100.225C112.187 99.4338 112.676 98.5523 113.009 97.6121C113.343 96.6706 113.515 95.6746 113.506 94.685C113.487 93.6936 113.267 92.7123 112.901 91.7803C112.173 89.908 110.988 88.215 110.11 86.3357C109.664 85.4002 109.299 84.4159 109.055 83.3987C108.813 82.3803 108.713 81.3284 108.74 80.2835C108.77 79.2393 108.912 78.1992 109.186 77.1872C109.319 76.6801 109.502 76.1865 109.703 75.7017C109.919 75.2233 110.155 74.752 110.435 74.3089C110.705 73.8582 111.02 73.4398 111.341 73.0285C111.673 72.6265 112.014 72.2328 112.377 71.8632C113.094 71.1145 113.858 70.427 114.599 69.7265C115.339 69.026 116.063 68.3161 116.706 67.5428C117.347 66.7695 117.915 65.9385 118.359 65.0429C119.241 63.25 119.66 61.2315 119.636 59.2358C119.611 58.2351 119.457 57.2414 119.22 56.2665C118.973 55.2927 118.616 54.3484 118.21 53.4252C117.378 51.5829 116.295 49.8552 115.165 48.1569C114.038 46.4551 112.844 44.7838 111.819 42.9851C111.31 42.0854 110.832 41.1581 110.475 40.1714C110.118 39.1877 109.873 38.147 109.836 37.0833C109.793 36.0197 109.981 34.9519 110.342 33.9524C110.53 33.4546 110.774 32.971 111.078 32.5273C111.381 32.0831 111.738 31.6799 112.129 31.3191C112.522 30.9612 112.943 30.6433 113.375 30.3477C113.813 30.0627 114.257 29.7883 114.715 29.545C115.627 29.049 116.565 28.6183 117.511 28.2146C119.406 27.4101 121.334 26.709 123.269 26.0338C125.204 25.3604 127.148 24.7175 129.096 24.0858C132.989 22.817 136.901 21.6165 140.824 20.4506C148.663 18.093 156.508 15.7588 164.362 13.46L164.37 13.4858L164.372 13.487Z" fill="white"/>
</g>
<path d="M82.3379 121.282C84.0703 123.283 86.9632 126.358 91.0405 129.492C99.4384 135.947 114.98 144.28 123.471 139.175C124.514 138.547 127.273 136.89 128.193 133.857C129.15 130.703 127.269 128.869 128.36 127.092C129.851 124.664 134.26 126.638 139.906 125.408C144.701 124.363 151.386 120.789 153.448 114.287C155.708 107.158 151.061 100.756 150.55 100.075C147.076 95.4435 140.41 91.6267 134.584 93.4331C129.429 95.0315 126.871 100.433 125.182 103.996C121.362 112.06 123.35 117.155 119.711 119.067C116.397 120.809 113.316 117.336 109.163 119.767C107.389 120.805 107.4 121.762 104.392 123.978C102.116 125.656 99.9657 126.687 99.1183 127.019C92.558 129.591 83.1671 121.969 82.3391 121.282L82.3379 121.282Z" fill="url(#paint2_linear_301_3979)"/>
<g style="mix-blend-mode:soft-light" opacity="0.5">
<path d="M112.788 132.64C110.207 132.64 106.441 132.184 100.893 130.803C94.0171 129.093 87.2042 126.657 80.6445 123.564L80.7332 123.376C87.2806 126.463 94.0805 128.895 100.943 130.602C114.81 134.051 117.426 131.724 118.286 130.959C119.609 129.782 119.968 128.478 120.347 127.096C120.769 125.561 121.246 123.822 123.142 121.998C124.87 120.336 126.442 119.874 127.962 119.427C129.466 118.985 130.887 118.568 132.443 117.061C134.451 115.119 134.888 113.055 135.351 110.869C135.611 109.646 135.879 108.382 136.428 107.055C138.595 101.822 144.337 97.8724 153.494 95.3149L153.55 95.5153C144.457 98.0545 138.761 101.964 136.62 107.135C136.078 108.444 135.812 109.699 135.555 110.913C135.084 113.13 134.64 115.224 132.588 117.211C130.995 118.753 129.483 119.197 128.021 119.627C126.525 120.067 124.977 120.521 123.286 122.148C121.432 123.932 120.982 125.568 120.547 127.151C120.16 128.563 119.793 129.897 118.424 131.115C117.893 131.587 116.708 132.641 112.788 132.641V132.64Z" fill="white"/>
</g>
<path d="M165.076 146.086L1.63281 144.692V148.817C1.63281 149.936 2.34575 150.888 3.31121 151.058L49.5281 159.18C50.0766 159.277 50.6327 159.303 51.1865 159.257L163.3 149.995C164.301 149.913 165.076 148.958 165.076 147.808V146.086Z" fill="#C1C7CA"/>
<path d="M105.763 139.475L3.32331 147.021C1.49047 147.157 0 145.721 0 143.816V67.4823C0 65.5771 1.49047 64.0322 3.32331 64.0322H105.763C107.274 64.0322 108.495 65.4285 108.495 67.1509V136.155C108.495 137.878 107.274 139.364 105.763 139.475V139.475Z" fill="#C1C7CA"/>
<path d="M107.396 139.475L4.95613 147.021C3.1227 147.157 1.63281 145.721 1.63281 143.816V67.4823C1.63281 65.5771 3.12328 64.0322 4.95613 64.0322H107.396C108.907 64.0322 110.128 65.4285 110.128 67.1509V136.155C110.128 137.878 108.907 139.364 107.396 139.475V139.475Z" fill="#C1C7CA"/>
<path d="M104.206 134.61L8.7936 141.165C7.30195 141.267 6.08984 140.089 6.08984 138.534V71.7036C6.08984 70.1481 7.30195 68.8817 8.7936 68.8752L104.206 68.4639C105.452 68.4586 106.459 69.6027 106.459 71.0196V131.89C106.459 133.307 105.452 134.525 104.206 134.611V134.61Z" fill="url(#paint3_linear_301_3979)"/>
<path d="M59.7952 66.1198C59.7952 66.8291 59.2678 67.4056 58.6165 67.408C57.9647 67.4103 57.4355 66.8356 57.4355 66.1245C57.4355 65.4135 57.9647 64.837 58.6165 64.8364C59.2678 64.8364 59.7952 65.4106 59.7952 66.1198Z" fill="white"/>
<g style="mix-blend-mode:soft-light" opacity="0.48">
<path d="M4.95613 147.021L106.878 139.514L107.396 139.475C108.089 139.424 108.719 139.082 109.2 138.562C101.866 138.16 97.3106 135.555 94.372 132.864C88.4706 127.46 89.4942 122.13 83.13 118.577C75.1926 114.145 68.9512 119.761 62.9276 114.22C59.2761 110.86 61.069 108.355 56.5752 103.335C51.5982 97.7749 48.3583 99.6442 43.3566 94.6398C37.0324 88.312 40.1953 83.3893 34.7479 78.8462C28.1394 73.3347 21.0124 78.436 14.7217 73.1507C12.0085 70.8712 10.5198 67.5569 9.74231 64.0322H4.95613C3.12328 64.0322 1.63281 65.5766 1.63281 67.4823V143.816C1.63281 145.721 3.12269 147.156 4.95613 147.021V147.021Z" fill="white"/>
</g>
<path d="M111.479 139.057L1.63281 146.999L49.5281 155.417C50.0766 155.513 50.6327 155.539 51.1865 155.493L165.076 146.086L113.227 139.111C112.647 139.033 112.062 139.015 111.479 139.057Z" fill="#D8DDE0"/>
<path d="M17.6621 147.068L109.112 140.357L137.415 144.134L46.7527 151.308L17.6621 147.068Z" fill="#C1C7CA"/>
<path d="M120.7 118.96C120.7 127.405 113.815 134.689 105.204 135.236L9.27734 141.331C19.4205 140.686 27.52 132.748 27.52 123.59V18.2432L120.7 21.8102V118.961V118.96Z" fill="url(#paint4_linear_301_3979)"/>
<path d="M114.087 79.4874L41.998 80.4876V77.5928L114.087 76.7695V79.4874Z" fill="#D8DDE0"/>
<path d="M36.1172 80.5684L39.3818 80.5232V77.6226L36.1172 77.6596V80.5684Z" fill="#D8DDE0"/>
<path d="M114.087 83.9763L41.998 85.2673V82.3726L114.087 81.2578V83.9763Z" fill="#D8DDE0"/>
<path d="M36.1172 85.3725L39.3818 85.3143V82.4131L36.1172 82.4636V85.3725Z" fill="url(#paint5_linear_301_3979)"/>
<path d="M114.087 88.4645L41.998 90.0465V87.1523L114.087 85.7461V88.4645Z" fill="#D8DDE0"/>
<path d="M36.1172 90.176L39.3818 90.1043V87.2031L36.1172 87.2672V90.176Z" fill="url(#paint6_linear_301_3979)"/>
<path d="M114.087 92.9522L41.998 94.8262V91.9315L114.087 90.2344V92.9522Z" fill="#D8DDE0"/>
<path d="M36.1172 94.979L39.3818 94.8944V91.9932L36.1172 92.0701V94.979Z" fill="#D8DDE0"/>
<path d="M114.087 101.929L36.1172 104.586V101.677L114.087 99.2109V101.929Z" fill="#D8DDE0"/>
<path d="M114.087 106.417L36.1172 109.389V106.48L114.087 103.699V106.417Z" fill="#D8DDE0"/>
<path d="M114.087 110.905L36.1172 114.193V111.283L114.087 108.187V110.905Z" fill="#D8DDE0"/>
<path d="M114.087 115.393L36.1172 118.996V116.087L114.087 112.675V115.393Z" fill="#D8DDE0"/>
<path d="M36.1172 51.04L114.033 51.3462V54.3602H36.1172V51.04Z" fill="#D8DDE0"/>
<path d="M36.1172 45.9404L114.033 46.7161V49.7302L36.1172 49.26V45.9404Z" fill="#D8DDE0"/>
<path d="M36.1172 37.7646L114.033 39.2937V45.1002L36.1172 44.1606V37.7646Z" fill="#C1C7CA"/>
<path d="M36.1172 60.2367L114.033 60.0527V61.4889L36.1172 61.7299V60.2367Z" fill="#D8DDE0"/>
<path d="M36.1172 63.0861L114.033 62.7935V64.2291L36.1172 64.5793V63.0861Z" fill="#D8DDE0"/>
<path d="M36.1172 65.9356L114.033 65.5337V66.9699L36.1172 67.4288V65.9356Z" fill="#D8DDE0"/>
<path d="M36.1172 68.7857L114.033 68.2744V69.71L36.1172 70.2783V68.7857Z" fill="#D8DDE0"/>
<path d="M86.6348 128.621L114.088 127.02V128.554L86.6348 130.156V128.621Z" fill="#D8DDE0"/>
<path d="M73.3361 131.132L45.8828 132.789V131.254L73.3361 129.597V131.132Z" fill="#D8DDE0"/>
<path d="M133.645 160.979C133.645 160.979 134.038 162.647 134.05 163.251C134.063 163.855 127.703 164.697 127.604 164.252C127.505 163.807 128.57 162.997 129.338 162.678C130.107 162.359 132.361 161.491 132.361 161.491L133.644 160.98L133.645 160.979Z" fill="url(#paint7_linear_301_3979)"/>
<path d="M131.965 159.424L132.33 161.508C132.33 161.508 133.111 161.958 133.734 161.508L133.885 159.194L131.965 159.424H131.965Z" fill="url(#paint8_linear_301_3979)"/>
<path d="M145.244 162.764C145.244 162.764 145.637 164.431 145.65 165.036C145.662 165.64 139.302 166.482 139.204 166.037C139.104 165.592 140.169 164.782 140.938 164.463C141.707 164.143 143.961 163.276 143.961 163.276L145.244 162.764V162.764Z" fill="url(#paint9_linear_301_3979)"/>
<path d="M143.567 161.209L143.932 163.293C143.932 163.293 144.712 163.743 145.335 163.293L145.487 160.979L143.566 161.209H143.567Z" fill="url(#paint10_linear_301_3979)"/>
<path d="M128.92 104.478C128.303 106.104 127.684 107.73 127.066 109.355C127.157 118.329 127.606 128.058 128.591 138.42C129.324 146.129 130.279 153.41 131.372 160.228C132.369 160.097 133.366 159.965 134.363 159.833C135.579 156.71 136.938 152.02 136.665 146.394C136.38 140.525 134.623 139.89 134.301 134.275C133.883 126.998 136.649 124.815 137.533 115.945C137.87 112.553 137.935 108.154 137.054 102.896C134.343 103.424 131.632 103.951 128.92 104.478V104.478Z" fill="url(#paint11_linear_301_3979)"/>
<path style="mix-blend-mode:multiply" opacity="0.3" d="M137.053 102.897C135.589 103.182 134.125 103.467 132.661 103.752C130.373 108.81 130.017 113.905 130.654 116.091C131.555 119.186 133.378 120.049 133.525 123.218C133.67 126.355 131.968 127.314 131.132 131.096C130.554 133.714 130.938 136.044 131.73 140.598C133.327 149.772 135.68 152.421 134.122 155.603C133.68 156.507 132.843 157.61 131.107 158.543C131.195 159.107 131.282 159.672 131.371 160.229C132.368 160.098 133.365 159.966 134.361 159.834C135.578 156.711 136.937 152.021 136.664 146.395C136.379 140.526 134.622 139.891 134.3 134.276C133.882 126.999 136.648 124.816 137.531 115.946C137.869 112.554 137.934 108.155 137.053 102.897H137.053Z" fill="url(#paint12_linear_301_3979)"/>
<path d="M133.106 106.962C135.096 114.741 136.968 123.089 138.609 131.971C140.591 142.695 141.988 152.845 142.956 162.295C144.057 162.236 145.157 162.176 146.258 162.117C149.899 152.806 149.698 146.717 148.771 142.819C148.414 141.317 147.532 138.388 147.041 133.94C146.699 130.84 146.708 128.457 146.726 125.593C146.768 119.313 147.294 117.899 147.019 113.121C146.762 108.637 146.605 106.37 145.281 105.15C141.793 101.936 133.717 106.6 133.105 106.962H133.106Z" fill="url(#paint13_linear_301_3979)"/>
<path d="M101.152 88.8882C101.152 88.8882 98.7343 88.6714 98.3843 88.2618C98.0343 87.8522 97.5034 87.1958 97.4506 86.8203C97.3983 86.4448 96.9308 87.006 97.3542 87.8205C97.7777 88.6349 96.5761 88.4628 96.3888 88.4428C95.9577 88.3975 94.3128 88.347 94.3604 88.4534C94.408 88.5597 94.1648 89.0304 95.3329 89.5834C96.3553 90.0676 97.5727 89.7526 98.2375 89.7856L98.9023 89.819L100.665 89.9595L101.152 88.8882V88.8882Z" fill="url(#paint14_linear_301_3979)"/>
<path d="M99.7335 87.7072C99.6272 88.5499 99.5204 89.3926 99.4141 90.2347C101.016 91.6309 104.556 94.3076 109.482 94.709C118.166 95.4171 126.778 88.6985 128.381 81.1426C129.175 77.4005 128.527 72.1499 126.302 71.3054C125.684 71.0709 124.757 71.1044 122.843 72.4478C117.739 76.0324 117.304 80.7401 114.484 83.9239C112.455 86.2157 108.464 88.5375 99.7335 87.7066V87.7072Z" fill="url(#paint15_linear_301_3979)"/>
<path d="M126.349 111.027C125.157 109.291 126.344 107.42 126.38 103.937C126.42 99.99 124.926 99.4587 123 93.0845C121.719 88.8452 120.489 84.7752 121.206 79.8308C121.549 77.4608 122.131 73.4419 125.109 71.2746C126.645 70.1563 128.854 70.07 133.207 69.9442C138.591 69.7879 141.283 69.7103 143.367 70.6429C143.671 70.7798 150.019 73.7286 150.87 79.3307C151.736 85.0326 145.818 86.3043 145.607 94.0224C145.512 97.4872 146.555 102.716 147.231 106.108C147.881 109.365 148.219 110.184 147.674 111.232C146.361 113.758 141.726 113.458 132.455 112.858C128.819 112.622 127.239 112.324 126.349 111.028V111.027Z" fill="url(#paint16_linear_301_3979)"/>
<path style="mix-blend-mode:multiply" opacity="0.3" d="M139.027 93.3338C139.529 94.7924 141.009 95.7896 142.257 99.3354C142.526 100.101 144.446 105.553 142.615 107.088C141.558 107.974 140.44 106.556 137.711 106.587C132.984 106.641 131.06 110.959 127.903 110.088C127.355 109.937 126.62 109.579 125.844 108.678C125.77 109.554 125.851 110.303 126.348 111.026C127.237 112.322 128.817 112.62 132.454 112.856C141.724 113.457 146.36 113.757 147.673 111.231C148.218 110.183 147.88 109.363 147.23 106.106C146.554 102.714 145.511 97.4855 145.606 94.0208C145.817 86.3026 151.734 85.031 150.869 79.329C150.637 77.8047 149.993 76.4842 149.18 75.356C141.843 79.1986 137.449 88.749 139.027 93.3332L139.027 93.3338Z" fill="url(#paint17_linear_301_3979)"/>
<path d="M143.393 83.3941C142.085 80.7385 141.002 76.595 142.257 70.2026C154.039 73.9506 160.719 84.6152 159.122 93.6468C157.806 101.092 151.257 105.213 149.793 106.088C149.374 105.275 148.955 104.462 148.536 103.65C150.143 101.449 151.897 98.2475 151.351 94.8074C150.593 90.038 146.042 88.7699 143.393 83.3935V83.3941Z" fill="url(#paint18_linear_301_3979)"/>
<path d="M133.054 64.2677C133.054 64.2677 133.304 66.3485 134.044 67.8605C134.713 69.2274 137.729 69.8691 138.351 70.1341C138.973 70.3998 137.326 71.4657 135.616 71.7913C133.905 72.1169 128.949 72.1204 128.01 71.511C127.069 70.9022 128.674 70.8193 129.869 70.244C131.063 69.6687 131.582 67.0931 131.278 65.9689C130.973 64.8447 133.054 64.2671 133.054 64.2671L133.054 64.2677Z" fill="url(#paint19_linear_301_3979)"/>
<path d="M130.269 63.7389C129.303 62.8951 129.171 62.7981 129.049 62.4884C128.56 61.2461 129.372 59.4209 130.58 58.8873C130.642 58.8597 131.453 58.5112 131.8 58.8621C132.094 59.16 131.731 59.636 131.967 60.2377C132.188 60.8013 132.671 60.8042 133.618 61.4882C134.398 62.0512 134.883 62.4015 135.03 62.9386C135.332 64.0463 134.154 65.7869 132.996 65.8392C132.58 65.858 132.45 65.6458 130.269 63.7383V63.7389Z" fill="#262648"/>
<path d="M132.896 66.023C132.896 66.023 132.031 67.2282 130.554 66.9773C129.232 66.7528 129.324 63.613 130.235 63.0359C130.539 62.8438 131.115 62.8091 131.565 62.9907C131.831 63.0982 131.912 63.2258 132.349 63.3927C132.752 63.546 132.874 63.5102 132.988 63.6324C133.132 63.7852 133.215 64.1337 132.87 65.0198C133.149 64.7766 133.463 64.7043 133.669 64.8324C133.702 64.853 133.788 64.927 133.83 65.031C133.984 65.4065 133.63 65.8302 132.897 66.023H132.896Z" fill="url(#paint20_linear_301_3979)"/>
<path d="M151.347 106.964C151.347 106.964 152.761 107.377 152.911 109.513C152.68 109.497 152.141 109.513 152.141 109.513C152.141 109.513 152.24 107.96 151.234 107.658C151.315 107.477 151.347 106.964 151.347 106.964Z" fill="url(#paint21_linear_301_3979)"/>
<path d="M146.16 106.836C146.195 107.225 146.231 107.614 146.266 108.003C146.965 107.828 147.729 107.626 148.55 107.589C149.619 107.54 150.598 107.648 151.47 107.835C151.508 107.786 151.591 107.668 151.628 107.476C151.689 107.166 151.587 106.909 151.568 106.863C151.124 106.72 150.642 106.6 150.127 106.519C148.647 106.285 147.309 106.517 146.16 106.836V106.836Z" fill="url(#paint22_linear_301_3979)"/>
<path d="M146.093 107.174C146.095 107.033 146.106 106.858 146.158 106.837C146.208 106.818 146.274 106.944 146.302 107.016C146.313 107.045 146.339 107.116 146.356 107.343C146.377 107.636 146.352 107.779 146.33 107.868C146.316 107.921 146.295 108.002 146.264 108.003C146.239 108.005 146.217 107.954 146.184 107.855C146.14 107.723 146.087 107.501 146.092 107.174H146.093Z" fill="url(#paint23_linear_301_3979)"/>
<path d="M144.805 109.63C145.098 109.681 145.81 109.831 145.81 109.831C145.81 109.831 145.346 108.465 146.221 107.835C146.244 107.731 146.267 107.568 146.239 107.371C146.218 107.219 146.173 107.097 146.135 107.013C145.763 107.205 144.954 107.853 144.805 109.631V109.63Z" fill="url(#paint24_linear_301_3979)"/>
<path d="M138.746 109.99C138.746 109.99 138.782 109.273 140.004 109.273C140.197 109.403 140.206 109.99 140.206 109.99H138.746Z" fill="url(#paint25_linear_301_3979)"/>
<path d="M137.66 124.09L141.004 125.981L143.03 119.038L139.692 109.73L138.746 109.99L137.309 123.357C137.277 123.659 137.417 123.952 137.66 124.09V124.09Z" fill="url(#paint26_linear_301_3979)"/>
<path style="mix-blend-mode:multiply" opacity="0.3" d="M143.031 119.038L139.693 109.73L138.746 109.99C138.979 110.811 139.091 112.149 139.144 112.893C139.367 116.062 140.111 116.944 139.751 119.155C139.451 120.993 138.798 121.242 138.855 122.479C138.917 123.826 139.759 124.953 140.759 125.841L141.005 125.98L143.031 119.038L143.031 119.038Z" fill="url(#paint27_linear_301_3979)"/>
<path d="M139.691 109.731H158.052L160.942 124.484L141.004 125.981L139.691 109.731Z" fill="url(#paint28_linear_301_3979)"/>
<g style="mix-blend-mode:multiply" opacity="0.2">
<path style="mix-blend-mode:multiply" d="M158.052 109.731H151.867C151.753 110.033 151.579 110.451 151.325 110.924C148.559 116.074 142.227 116.723 142.341 117.57C142.512 118.835 156.613 117.039 156.973 118.777C157.146 119.616 154.169 121.524 151.057 122.246C147.332 123.111 144.594 122.021 142.773 123.964C142.157 124.621 141.885 125.392 141.752 125.914L160.942 124.484L158.052 109.731Z" fill="url(#paint29_linear_301_3979)"/>
</g>
<path d="M140.005 109.273C139.798 109.273 139.508 109.249 139.194 109.421C139.127 109.458 139.068 109.498 139.016 109.539L139.161 109.491C139.394 109.427 139.715 109.512 139.835 109.73C139.982 109.998 140.035 110.62 140.067 110.927C140.159 111.801 140.723 117.242 140.723 117.242C140.765 117.701 141.138 118.049 141.579 118.04L158.657 117.21C158.787 117.208 158.915 117.169 159.022 117.093C159.245 116.933 159.346 116.656 159.294 116.393L158.429 109.912C158.356 109.539 158.042 109.272 157.679 109.272H140.005L140.005 109.273Z" fill="url(#paint30_linear_301_3979)"/>
<path d="M140.184 109.273C139.978 109.273 139.732 109.246 139.459 109.315C139.385 109.333 139.267 109.367 139.215 109.408C139.215 109.408 139.794 109.279 140.014 109.731C140.148 110.007 140.214 110.62 140.247 110.927C140.338 111.802 140.902 117.243 140.902 117.243C140.944 117.702 141.317 118.049 141.758 118.04L159.029 117.694C159.159 117.691 159.287 117.653 159.394 117.577C159.617 117.417 159.718 117.139 159.666 116.876L158.609 109.913C158.535 109.541 158.222 109.273 157.858 109.273H140.184V109.273Z" fill="url(#paint31_linear_301_3979)"/>
<path style="mix-blend-mode:multiply" opacity="0.1" d="M159.666 116.876L158.609 109.913C158.535 109.54 158.222 109.273 157.858 109.273H140.184C139.978 109.273 139.732 109.246 139.459 109.315C139.385 109.333 139.267 109.367 139.215 109.408C139.215 109.408 139.794 109.279 140.014 109.731C140.035 109.774 140.055 109.827 140.072 109.885C141.751 109.947 143.429 109.903 145.107 110.004C148.425 110.199 151.78 110.199 154.912 111.446C155.914 111.845 156.6 113.278 156.328 113.94C156.132 114.417 155.464 114.379 155.23 115.006C154.985 115.664 155.573 116.112 155.326 116.575C155.068 117.059 154.282 116.829 153.01 117.174C152.31 117.364 151.772 117.646 151.436 117.846L159.028 117.694C159.158 117.692 159.286 117.654 159.393 117.577C159.616 117.417 159.717 117.14 159.665 116.877L159.666 116.876Z" fill="url(#paint32_linear_301_3979)"/>
<path d="M151.402 118.99L149.239 119.474L149.01 119.492C148.78 119.509 148.582 119.324 148.572 119.08L148.477 116.776C148.467 116.532 148.649 116.33 148.88 116.327L149.109 116.324L151.283 116.582C151.491 116.579 151.666 116.476 151.676 116.704L151.765 118.866C151.774 119.094 151.609 118.975 151.402 118.991L151.402 118.99Z" fill="url(#paint33_linear_301_3979)"/>
<path d="M151.566 119.309L149.17 119.491C148.94 119.509 148.742 119.323 148.732 119.08L148.637 116.775C148.627 116.532 148.809 116.329 149.04 116.327L151.442 116.293C151.65 116.29 151.826 116.475 151.835 116.703L151.925 118.865C151.934 119.093 151.774 119.293 151.566 119.309Z" fill="url(#paint34_linear_301_3979)"/>
<path d="M148.187 105.176C148.187 105.176 147.259 106.007 147.169 106.598C147.169 106.598 148.477 106.58 148.548 107.589C148.548 107.589 147.355 107.475 147.169 107.785C146.983 108.095 148.352 108.749 149.448 108.422C150.544 108.095 150.42 105.83 150.121 105.176C149.823 104.522 148.186 105.176 148.186 105.176H148.187Z" fill="url(#paint35_linear_301_3979)"/>
<path d="M47.0468 166.206C46.9599 165.727 45.413 165.293 44.6472 165.935C44.2667 166.254 44.0048 166.9 44.225 167.192C44.3049 167.299 43.9772 167.485 44.2913 167.489C45.3331 167.501 47.1331 166.683 47.0468 166.207V166.206Z" fill="url(#paint36_linear_301_3979)"/>
<path d="M45.3558 166.209L43.7514 166.288C44.3076 165.277 43.6387 162.526 43.6387 162.526L45.3711 162.577C45.3711 162.577 45.3282 163.376 45.2231 164.563C45.1867 164.969 45.2536 165.58 45.3558 166.209V166.209Z" fill="url(#paint37_linear_301_3979)"/>
<path d="M45.565 166.185C45.565 166.185 43.65 165.743 43.4426 166.123C43.2353 166.503 43.0744 167.521 44.2895 167.488C45.5045 167.455 45.6725 166.507 45.565 166.184V166.185Z" fill="url(#paint38_linear_301_3979)"/>
<path d="M67.3585 169.683C67.2052 169.22 65.6131 169.007 64.9443 169.75C64.6125 170.119 64.4433 170.796 64.7023 171.053C64.7963 171.148 64.4979 171.378 64.8098 171.338C65.8433 171.204 67.5112 170.142 67.3585 169.683V169.683Z" fill="url(#paint39_linear_301_3979)"/>
<path d="M65.4769 170.128L63.9007 170.438C64.3059 169.357 63.25 166.731 63.25 166.731L64.9718 166.532C64.9718 166.532 65.0441 167.328 65.1099 168.518C65.1322 168.925 65.286 169.521 65.4775 170.128H65.4769Z" fill="url(#paint40_linear_301_3979)"/>
<path d="M65.8895 169.868C65.8895 169.868 63.9315 169.699 63.7794 170.105C63.6273 170.511 63.6103 171.541 64.8089 171.338C66.0075 171.135 66.041 170.173 65.8895 169.868Z" fill="url(#paint41_linear_301_3979)"/>
<path d="M51.4065 114.601C50.9772 121.947 50.3759 129.586 49.5661 137.493C48.6276 146.652 47.4883 155.403 46.2099 163.72C44.6342 164.261 43.1784 163.72 43.1784 163.72C43.1784 163.72 41.3362 160.701 39.9303 152.677C39.0282 147.529 38.966 147.594 38.956 146.696C38.9049 142.164 40.4935 140.853 40.7965 136.803C41.0766 133.056 39.8845 131.933 39.1727 127.715C38.6248 124.471 38.4198 119.744 40.147 113.566C43.9002 113.911 47.6533 114.256 51.4065 114.601V114.601Z" fill="url(#paint42_linear_301_3979)"/>
<path style="mix-blend-mode:multiply" opacity="0.3" d="M51.4055 114.601C50.9763 121.947 50.3749 129.587 49.5651 137.493C48.6266 146.652 47.4873 155.403 46.2089 163.721C44.6332 164.261 43.1774 163.721 43.1774 163.721C43.1974 162.951 43.2508 161.791 43.4117 160.389C43.8381 156.672 44.517 155.615 44.5868 153.334C44.6761 150.417 43.6208 150.327 43.4117 147.455C43.0882 143.002 45.5312 141.946 45.762 138.048C46.0057 133.928 43.4282 132.573 41.4532 127.465C40.2875 124.45 39.2528 119.922 40.146 113.567C43.8992 113.912 47.6524 114.257 51.4055 114.602V114.601Z" fill="url(#paint43_linear_301_3979)"/>
<path d="M59.3103 114.371C61.4673 121.643 63.558 130.674 64.7237 141.174C65.8547 151.363 65.8342 160.413 65.3732 167.862C64.6873 168.053 64.0019 168.245 63.316 168.437C59.3291 164.263 57.9056 160.426 57.3618 157.624C56.5572 153.478 57.7693 152.073 56.7123 147.386C56.4691 146.307 56.1268 145.149 52.1651 137.378C48.3843 129.961 47.6091 128.884 46.9684 126.22C46.054 122.418 46.2954 119.046 46.6437 116.787C50.8661 115.982 55.0879 115.177 59.3103 114.371Z" fill="url(#paint44_linear_301_3979)"/>
<path d="M91.6859 91.7803L93.2228 90.6997L95.4738 90.1537C95.7803 90.0797 96.0645 89.9316 96.3012 89.7236C96.3012 89.7236 97.1422 87.5346 97.05 87.1832C96.9578 86.8318 94.0878 87.9924 94.0655 88.3361C94.0432 88.6799 92.3078 89.7195 92.316 90.0362L91.3477 90.7796L91.6859 91.7803Z" fill="url(#paint45_linear_301_3979)"/>
<path d="M69.5936 81.6348C68.5835 79.1626 66.4148 77.7411 65.2902 77.0036C62.6293 75.2589 60.9262 75.5774 54.8158 74.6472C46.6728 73.4072 45.698 72.2325 42.9613 73.1845C39.3661 74.435 37.4886 77.7006 36.6277 79.1973C32.2896 86.7415 37.3618 90.5759 36.0592 105.604C35.5272 111.741 34.1641 117.075 37.4399 120.229C38.1293 120.893 38.901 121.24 40.4443 121.935C46.5636 124.691 52.0504 124.215 55.3848 123.885C59.0535 123.521 60.908 123.313 61.8805 122.016C63.4344 119.944 61.8347 117.311 61.5558 112.754C61.3555 109.482 62.099 106.889 63.586 101.704C67.0426 89.6486 71.5304 86.3713 69.5942 81.6348H69.5936Z" fill="url(#paint46_linear_301_3979)"/>
<path d="M55.9625 70.2002C56.3331 68.8786 55.6853 67.6546 55.542 67.3907C54.9442 66.2865 54.7909 66.1355 54.5055 65.9445L54.1091 65.6995C54.1091 65.6995 54.0862 65.6901 54.0621 65.6818C53.8079 65.5913 52.9399 65.5649 52.7643 65.6025C52.2029 65.7224 51.605 68.0113 51.7753 71.2474C51.7518 71.3708 51.7295 71.4954 51.7078 71.6206C51.6191 72.1318 51.5492 72.6325 51.4946 73.1226C51.443 73.591 50.7788 73.5804 50.3089 73.5504C48.4009 73.4288 47.4672 73.591 47.3861 73.8754C47.234 74.4084 49.4974 76.1502 52.2921 76.5421C56.043 76.5703 59.0938 76.1701 58.7661 75.5796C58.6205 75.3169 55.7147 74.557 54.8972 73.8043C54.1491 73.1144 54.2101 72.4027 54.1485 71.8933C54.3751 71.7757 55.6906 71.174 55.9637 70.2008L55.9625 70.2002Z" fill="url(#paint47_linear_301_3979)"/>
<path d="M55.2732 64.7804C55.2696 65.7829 54.7975 66.8536 54.5573 67.0257C54.5262 67.0481 54.3512 67.1862 54.1944 67.4224C54.1732 67.4547 54.1538 67.4923 54.1374 67.5411C53.9178 68.1728 54.922 68.9162 54.7282 69.1994C54.5878 69.4045 53.9054 69.1301 53.8244 69.3076C53.748 69.4745 54.3148 69.8194 54.2284 70.0192C54.1626 70.1702 53.8138 70.0321 53.5942 70.2631C53.4844 70.3783 53.5167 70.4694 53.4004 70.8214C53.3346 71.0206 53.243 71.238 53.1714 71.359C52.8249 71.9479 51.8441 72.1629 51.6556 71.9273C51.6034 71.8615 51.648 71.8062 51.5946 71.5859C51.5946 71.5859 51.5446 71.382 51.4031 71.1457C51.2005 70.8084 50.7107 70.5675 50.2163 70.2114C49.3013 69.552 49.0523 68.9897 48.9777 68.7998C48.9513 68.7323 48.9348 68.6811 48.9225 68.6441C48.6847 67.9049 48.6835 66.8195 49.0153 66.1519C49.5714 65.0336 50.8264 65.5649 51.853 64.4566C53.038 63.1784 52.3322 61.4308 52.9752 61.238C53.684 61.0253 55.2796 62.9269 55.2732 64.7804V64.7804Z" fill="url(#paint48_linear_301_3979)"/>
<path d="M54.367 68.964C54.1215 68.6261 53.6899 68.9434 53.6875 69.3806C53.6852 69.8173 54.108 70.2715 54.5185 70.1851C54.929 70.0987 54.6976 69.4182 54.367 68.964V68.964Z" fill="url(#paint49_linear_301_3979)"/>
<path d="M54.168 68.2325L54.7376 68.9741C54.7376 68.9741 55.3519 69.8826 55.7101 69.3849C56.0032 68.9782 56.0789 68.9871 56.0971 69.0041C56.1006 69.007 56.1012 69.0123 56.1024 69.0117C56.1077 69.0106 56.0595 68.8096 56.0161 68.6327C56.1676 68.8507 56.3767 69.2039 56.5035 69.6793C56.6262 70.1412 56.7584 70.6354 56.4976 71.1108C56.4824 71.1384 56.1958 71.6438 55.6602 71.766C55.6602 71.766 55.4494 71.8142 54.5597 71.6579C54.5597 71.6579 55.5322 70.9516 55.5474 70.7835C55.588 70.3275 54.9555 70.0807 54.4857 69.1451C54.3048 68.7843 54.2155 68.457 54.168 68.2319V68.2325Z" fill="url(#paint50_linear_301_3979)"/>
<path style="mix-blend-mode:multiply" opacity="0.1" d="M52.2188 119.578C53.2981 117.428 50.6531 114.569 52.3814 111.291C53.849 108.507 56.5146 109.13 57.7402 106.579C59.2207 103.496 56.0007 101.193 56.1164 96.5033C56.2544 90.8978 61.0747 85.2863 63.9111 85.7782C65.7463 86.0967 65.9824 88.8363 67.2738 91.8362C66.131 94.3437 64.7961 97.4847 63.5864 101.703C62.0994 106.889 61.356 109.481 61.5562 112.753C61.8352 117.311 63.4349 119.944 61.881 122.016C60.9085 123.313 59.0539 123.522 55.3853 123.885C52.0514 124.215 46.5646 124.69 40.4447 121.935C39.6701 121.586 39.0905 121.325 38.6172 121.067C48.1778 122.504 51.3619 121.284 52.2182 119.578H52.2188Z" fill="url(#paint51_linear_301_3979)"/>
<path d="M92.6038 91.7865C92.2115 91.2788 91.8192 90.7711 91.4275 90.2628C81.5633 93.2139 77.1876 91.793 75.0458 89.7586C74.0287 88.7925 73.085 87.2787 71.9474 85.4535C69.4099 81.384 68.7375 78.7002 65.9386 77.4909C65.2298 77.1847 64.7406 76.9814 64.1521 77.1253C61.4454 77.7876 60.5511 84.8447 61.3104 90.1253C61.7291 93.0382 62.6834 98.9252 67.3598 101.704C73.866 105.569 82.4835 100.34 84.9459 98.8447C88.7067 96.5623 91.155 93.7569 92.6038 91.7865Z" fill="url(#paint52_linear_301_3979)"/>
<path d="M96.5211 120.377C97.0989 120.035 97.6333 119.702 98.183 119.397C98.8143 119.048 99.4973 118.842 100.218 118.8C101.582 118.72 102.484 119.404 102.765 120.794C102.895 121.439 102.904 122.109 102.968 122.769C102.972 122.807 102.976 122.845 102.982 122.904C103.183 122.803 103.36 122.699 103.548 122.623C104.175 122.367 104.535 122.565 104.672 123.223C104.852 124.084 104.658 124.903 104.396 125.714C104.252 126.162 104.1 126.606 103.996 127.078C104.043 127.018 104.094 126.961 104.135 126.896C104.51 126.299 104.881 125.7 105.257 125.103C105.341 124.97 105.424 124.833 105.531 124.721C105.679 124.567 105.78 124.595 105.866 124.791C106.029 125.161 105.972 125.536 105.893 125.914C105.74 126.643 105.588 127.373 105.447 128.105C105.413 128.282 105.415 128.469 105.424 128.651C105.435 128.856 105.534 128.914 105.699 128.8C105.903 128.659 106.092 128.494 106.268 128.319C107.451 127.145 108.452 125.818 109.428 124.475C110.326 123.239 111.192 121.98 112.074 120.733C112.16 120.611 112.255 120.493 112.362 120.39C112.414 120.34 112.503 120.329 112.576 120.3C112.596 120.383 112.644 120.47 112.629 120.545C112.6 120.69 112.542 120.83 112.486 120.969C112.063 122.015 111.487 122.972 110.79 123.857C109.558 125.424 108.337 126.999 107.091 128.554C106.804 128.912 106.463 129.244 106.093 129.516C105.657 129.838 105.316 129.702 105.237 129.163C105.156 128.61 105.167 128.04 105.173 127.479C105.176 127.135 105.247 126.792 105.297 126.371C105.21 126.485 105.164 126.538 105.127 126.595C104.713 127.228 104.302 127.861 103.889 128.493C103.844 128.563 103.804 128.649 103.739 128.69C103.616 128.77 103.435 128.906 103.352 128.866C103.234 128.809 103.136 128.622 103.111 128.476C103.042 128.076 103.148 127.692 103.277 127.309C103.614 126.312 103.935 125.31 104.254 124.308C104.319 124.104 104.343 123.886 104.396 123.678C104.45 123.465 104.342 123.367 104.157 123.38C103.64 123.414 103.232 123.691 102.888 124.045C102.787 124.149 102.807 124.375 102.78 124.546C102.396 127.02 101.46 129.264 99.9677 131.272C99.7575 131.555 99.5049 131.82 99.2278 132.037C98.8519 132.332 98.5207 132.201 98.4209 131.731C98.2823 131.08 98.331 130.423 98.4878 129.781C99.1062 127.248 100.348 125.092 102.368 123.41C102.444 123.347 102.528 123.24 102.531 123.152C102.55 122.506 102.609 121.854 102.542 121.216C102.442 120.266 101.704 119.664 100.738 119.62C99.9419 119.583 99.2043 119.797 98.5225 120.176C97.9146 120.514 97.3362 120.906 96.7554 121.29C96.6743 121.343 96.6056 121.494 96.6133 121.593C96.7295 123.115 96.8799 124.635 96.9791 126.158C97.0707 127.558 97.1383 128.963 96.9874 130.363C96.867 131.477 96.5675 132.538 95.7523 133.366C94.8421 134.292 93.7521 134.727 92.4555 134.399C91.6509 134.195 91.1788 133.606 90.8857 132.854C90.5357 131.955 90.4734 131.017 90.622 130.084C91.2246 126.301 93.1009 123.249 96.0231 120.815C96.1728 120.69 96.231 120.57 96.2227 120.376C96.1769 119.24 96.144 118.103 96.1059 116.967C96.1059 116.953 96.0924 116.938 96.0677 116.892C95.9943 116.943 95.9215 116.988 95.8557 117.041C94.1673 118.401 92.4813 119.762 90.79 121.117C90.6731 121.211 90.5228 121.286 90.3771 121.314C90.1875 121.35 90.0389 121.238 89.9655 121.06C89.8903 120.878 89.9749 120.753 90.1211 120.636C92.0784 119.068 94.0317 117.496 95.989 115.928C96.107 115.833 96.1646 115.739 96.181 115.58C96.3455 113.965 96.679 112.395 97.6005 111.021C97.9223 110.541 98.3052 110.098 98.6998 109.674C98.9682 109.386 99.3264 109.14 99.7387 109.345C99.9683 109.459 100.199 109.676 100.311 109.905C100.988 111.291 101.027 112.566 99.9131 113.664C99.1767 114.389 98.3463 115.02 97.5529 115.687C97.2352 115.954 96.9004 116.2 96.581 116.465C96.5187 116.517 96.4524 116.61 96.4529 116.684C96.4541 117.729 96.4641 118.775 96.477 119.82C96.4794 120 96.5029 120.179 96.5187 120.38L96.5211 120.377ZM96.3173 121.634C96.2069 121.715 96.1458 121.755 96.0906 121.802C93.9354 123.611 92.3938 125.846 91.4871 128.509C91.1423 129.52 90.8452 130.548 90.9151 131.643C90.9944 132.885 92.0132 133.79 93.2453 133.666C94.6342 133.525 95.5867 132.754 96.1681 131.519C96.7583 130.266 96.7912 128.916 96.7337 127.567C96.6726 126.15 96.5675 124.735 96.4723 123.32C96.4359 122.776 96.3737 122.233 96.3179 121.634L96.3173 121.634ZM96.5575 115.347C96.5857 115.359 96.6144 115.372 96.6426 115.384C96.682 115.358 96.7243 115.334 96.7607 115.304C97.5259 114.681 98.2958 114.063 99.0533 113.43C99.5126 113.046 99.9436 112.632 100.231 112.093C100.507 111.577 100.512 111.065 100.2 110.56C99.8732 110.03 99.529 109.981 99.0745 110.398C98.0744 111.315 97.3609 112.418 96.9662 113.717C96.8035 114.252 96.6926 114.802 96.5581 115.346L96.5575 115.347ZM98.7579 131.322C99.9718 130.795 102.442 126.036 102.273 124.578C100.754 125.473 98.5125 129.758 98.7579 131.322Z" fill="url(#paint53_linear_301_3979)"/>
<defs>
<linearGradient id="paint0_linear_301_3979" x1="111.289" y1="74.4049" x2="133.235" y2="121.938" gradientUnits="userSpaceOnUse">
<stop stop-color="#CACDD2"/>
<stop offset="1" stop-color="#96999D"/>
</linearGradient>
<linearGradient id="paint1_linear_301_3979" x1="110.795" y1="8.12167" x2="119.631" y2="81.4362" gradientUnits="userSpaceOnUse">
<stop stop-color="#ACAFB4"/>
<stop offset="1" stop-color="#AAADB2"/>
</linearGradient>
<linearGradient id="paint2_linear_301_3979" x1="118.933" y1="109.434" x2="113.171" y2="162.178" gradientUnits="userSpaceOnUse">
<stop stop-color="#90ACD7"/>
<stop offset="1" stop-color="#6B86B7"/>
</linearGradient>
<linearGradient id="paint3_linear_301_3979" x1="6.08984" y1="104.817" x2="106.46" y2="104.817" gradientUnits="userSpaceOnUse">
<stop stop-color="#90ACD7"/>
<stop offset="1" stop-color="#6B86B7"/>
</linearGradient>
<linearGradient id="paint4_linear_301_3979" x1="90.1961" y1="37.106" x2="29.0902" y2="163.392" gradientUnits="userSpaceOnUse">
<stop stop-color="white"/>
<stop offset="1" stop-color="#EBEEEE"/>
</linearGradient>
<linearGradient id="paint5_linear_301_3979" x1="35.2433" y1="77.099" x2="41.0898" y2="92.9271" gradientUnits="userSpaceOnUse">
<stop stop-color="#ACAFB4"/>
<stop offset="1" stop-color="#AAADB2"/>
</linearGradient>
<linearGradient id="paint6_linear_301_3979" x1="36.8149" y1="86.1565" x2="42.6425" y2="101.933" gradientUnits="userSpaceOnUse">
<stop stop-color="#ACAFB4"/>
<stop offset="1" stop-color="#AAADB2"/>
</linearGradient>
<linearGradient id="paint7_linear_301_3979" x1="125.263" y1="143.257" x2="133.913" y2="174.451" gradientUnits="userSpaceOnUse">
<stop stop-color="#142344"/>
<stop offset="1" stop-color="#3C5D84"/>
</linearGradient>
<linearGradient id="paint8_linear_301_3979" x1="132.854" y1="165.341" x2="132.979" y2="154.84" gradientUnits="userSpaceOnUse">
<stop stop-color="#51637F"/>
<stop offset="1" stop-color="#464848"/>
</linearGradient>
<linearGradient id="paint9_linear_301_3979" x1="135.537" y1="140.254" x2="144.187" y2="171.449" gradientUnits="userSpaceOnUse">
<stop stop-color="#142344"/>
<stop offset="1" stop-color="#3C5D84"/>
</linearGradient>
<linearGradient id="paint10_linear_301_3979" x1="144.475" y1="165.486" x2="144.6" y2="154.984" gradientUnits="userSpaceOnUse">
<stop stop-color="#51637F"/>
<stop offset="1" stop-color="#464848"/>
</linearGradient>
<linearGradient id="paint11_linear_301_3979" x1="127.066" y1="131.562" x2="137.764" y2="131.562" gradientUnits="userSpaceOnUse">
<stop stop-color="#355178"/>
<stop offset="1" stop-color="#262648"/>
</linearGradient>
<linearGradient id="paint12_linear_301_3979" x1="127.066" y1="-6.42056" x2="137.763" y2="-6.42056" gradientUnits="userSpaceOnUse">
<stop stop-color="#355178"/>
<stop offset="1" stop-color="#262648"/>
</linearGradient>
<linearGradient id="paint13_linear_301_3979" x1="135.947" y1="171.638" x2="140.418" y2="134.959" gradientUnits="userSpaceOnUse">
<stop stop-color="#355178"/>
<stop offset="1" stop-color="#262648"/>
</linearGradient>
<linearGradient id="paint14_linear_301_3979" x1="95.1908" y1="86.2579" x2="105.33" y2="96.5721" gradientUnits="userSpaceOnUse">
<stop stop-color="#51637F"/>
<stop offset="1" stop-color="#464848"/>
</linearGradient>
<linearGradient id="paint15_linear_301_3979" x1="143.965" y1="55.4795" x2="95.0003" y2="105.508" gradientUnits="userSpaceOnUse">
<stop stop-color="#56729A"/>
<stop offset="1" stop-color="#8195C2"/>
</linearGradient>
<linearGradient id="paint16_linear_301_3979" x1="166.658" y1="134.691" x2="129.214" y2="80.9691" gradientUnits="userSpaceOnUse">
<stop stop-color="#56729A"/>
<stop offset="1" stop-color="#8195C2"/>
</linearGradient>
<linearGradient id="paint17_linear_301_3979" x1="166.865" y1="134.996" x2="128.956" y2="80.6087" gradientUnits="userSpaceOnUse">
<stop stop-color="#8195C2"/>
<stop offset="1" stop-color="#56729A"/>
</linearGradient>
<linearGradient id="paint18_linear_301_3979" x1="176.837" y1="127.618" x2="139.199" y2="73.6188" gradientUnits="userSpaceOnUse">
<stop stop-color="#56729A"/>
<stop offset="1" stop-color="#8195C2"/>
</linearGradient>
<linearGradient id="paint19_linear_301_3979" x1="130.429" y1="74.4514" x2="136.433" y2="65.6259" gradientUnits="userSpaceOnUse">
<stop stop-color="#51637F"/>
<stop offset="1" stop-color="#464848"/>
</linearGradient>
<linearGradient id="paint20_linear_301_3979" x1="126.089" y1="67.6282" x2="135.458" y2="62.5281" gradientUnits="userSpaceOnUse">
<stop stop-color="#51637F"/>
<stop offset="1" stop-color="#464848"/>
</linearGradient>
<linearGradient id="paint21_linear_301_3979" x1="151.695" y1="114.205" x2="152.226" y2="106.314" gradientUnits="userSpaceOnUse">
<stop stop-color="#CACDD2"/>
<stop offset="1" stop-color="#96999D"/>
</linearGradient>
<linearGradient id="paint22_linear_301_3979" x1="148.606" y1="111.517" x2="148.983" y2="105.907" gradientUnits="userSpaceOnUse">
<stop offset="0.1" stop-color="#142344"/>
<stop offset="0.3" stop-color="#172849"/>
<stop offset="0.56" stop-color="#213659"/>
<stop offset="0.85" stop-color="#314D73"/>
<stop offset="1" stop-color="#3C5D84"/>
</linearGradient>
<linearGradient id="paint23_linear_301_3979" x1="146.345" y1="107.487" x2="150.562" y2="109.746" gradientUnits="userSpaceOnUse">
<stop offset="0.1" stop-color="#142344"/>
<stop offset="0.3" stop-color="#172849"/>
<stop offset="0.56" stop-color="#213659"/>
<stop offset="0.85" stop-color="#314D73"/>
<stop offset="1" stop-color="#3C5D84"/>
</linearGradient>
<linearGradient id="paint24_linear_301_3979" x1="145.089" y1="115.156" x2="145.693" y2="106.175" gradientUnits="userSpaceOnUse">
<stop stop-color="#CACDD2"/>
<stop offset="1" stop-color="#96999D"/>
</linearGradient>
<linearGradient id="paint25_linear_301_3979" x1="139.967" y1="114.445" x2="137.62" y2="93.0032" gradientUnits="userSpaceOnUse">
<stop offset="0.1" stop-color="#142344"/>
<stop offset="0.58" stop-color="#2A4468"/>
<stop offset="1" stop-color="#3C5D84"/>
</linearGradient>
<linearGradient id="paint26_linear_301_3979" x1="150.371" y1="123.44" x2="134.589" y2="114.658" gradientUnits="userSpaceOnUse">
<stop stop-color="#142344"/>
<stop offset="1" stop-color="#3C5D84"/>
</linearGradient>
<linearGradient id="paint27_linear_301_3979" x1="136.15" y1="111.288" x2="140.871" y2="119.199" gradientUnits="userSpaceOnUse">
<stop stop-color="#142344"/>
<stop offset="1" stop-color="#3C5D84"/>
</linearGradient>
<linearGradient id="paint28_linear_301_3979" x1="149.18" y1="101.836" x2="150.894" y2="124.83" gradientUnits="userSpaceOnUse">
<stop offset="0.1" stop-color="#142344"/>
<stop offset="0.58" stop-color="#2A4468"/>
<stop offset="1" stop-color="#3C5D84"/>
</linearGradient>
<linearGradient id="paint29_linear_301_3979" x1="145.663" y1="114.554" x2="159.532" y2="125.233" gradientUnits="userSpaceOnUse">
<stop stop-color="#142344"/>
<stop offset="1" stop-color="#3C5D84"/>
</linearGradient>
<linearGradient id="paint30_linear_301_3979" x1="142.077" y1="113.602" x2="147.968" y2="113.374" gradientUnits="userSpaceOnUse">
<stop offset="0.1" stop-color="#142344"/>
<stop offset="0.58" stop-color="#2A4468"/>
<stop offset="1" stop-color="#3C5D84"/>
</linearGradient>
<linearGradient id="paint31_linear_301_3979" x1="151.107" y1="131.865" x2="149.22" y2="110.666" gradientUnits="userSpaceOnUse">
<stop offset="0.1" stop-color="#142344"/>
<stop offset="0.3" stop-color="#172849"/>
<stop offset="0.56" stop-color="#213659"/>
<stop offset="0.85" stop-color="#314D73"/>
<stop offset="1" stop-color="#3C5D84"/>
</linearGradient>
<linearGradient id="paint32_linear_301_3979" x1="152.034" y1="136.851" x2="148.823" y2="107.519" gradientUnits="userSpaceOnUse">
<stop stop-color="#142344"/>
<stop offset="1" stop-color="#3C5D84"/>
</linearGradient>
<linearGradient id="paint33_linear_301_3979" x1="156.825" y1="121.47" x2="146.597" y2="116.127" gradientUnits="userSpaceOnUse">
<stop stop-color="#CACDD2"/>
<stop offset="1" stop-color="#96999D"/>
</linearGradient>
<linearGradient id="paint34_linear_301_3979" x1="147.639" y1="116.944" x2="158.144" y2="120.701" gradientUnits="userSpaceOnUse">
<stop stop-color="#CACDD2"/>
<stop offset="1" stop-color="#96999D"/>
</linearGradient>
<linearGradient id="paint35_linear_301_3979" x1="147.729" y1="105.711" x2="151.703" y2="109.304" gradientUnits="userSpaceOnUse">
<stop stop-color="#51637F"/>
<stop offset="1" stop-color="#464848"/>
</linearGradient>
<linearGradient id="paint36_linear_301_3979" x1="47.937" y1="164.783" x2="44.5297" y2="167.045" gradientUnits="userSpaceOnUse">
<stop stop-color="#355178"/>
<stop offset="1" stop-color="#262648"/>
</linearGradient>
<linearGradient id="paint37_linear_301_3979" x1="44.7038" y1="167.018" x2="44.4388" y2="161.699" gradientUnits="userSpaceOnUse">
<stop stop-color="#CACDD2"/>
<stop offset="1" stop-color="#96999D"/>
</linearGradient>
<linearGradient id="paint38_linear_301_3979" x1="47.6799" y1="164.398" x2="44.2726" y2="166.66" gradientUnits="userSpaceOnUse">
<stop stop-color="#355178"/>
<stop offset="1" stop-color="#262648"/>
</linearGradient>
<linearGradient id="paint39_linear_301_3979" x1="68.0156" y1="168.192" x2="64.9583" y2="170.91" gradientUnits="userSpaceOnUse">
<stop stop-color="#355178"/>
<stop offset="1" stop-color="#262648"/>
</linearGradient>
<linearGradient id="paint40_linear_301_3979" x1="64.9404" y1="171.033" x2="63.9143" y2="165.807" gradientUnits="userSpaceOnUse">
<stop stop-color="#CACDD2"/>
<stop offset="1" stop-color="#96999D"/>
</linearGradient>
<linearGradient id="paint41_linear_301_3979" x1="67.7082" y1="167.847" x2="64.6509" y2="170.565" gradientUnits="userSpaceOnUse">
<stop stop-color="#355178"/>
<stop offset="1" stop-color="#262648"/>
</linearGradient>
<linearGradient id="paint42_linear_301_3979" x1="67.9796" y1="109.472" x2="32.451" y2="151.206" gradientUnits="userSpaceOnUse">
<stop stop-color="#355178"/>
<stop offset="1" stop-color="#262648"/>
</linearGradient>
<linearGradient id="paint43_linear_301_3979" x1="51.4055" y1="138.763" x2="39.8089" y2="138.763" gradientUnits="userSpaceOnUse">
<stop stop-color="#142344"/>
<stop offset="1" stop-color="#374B76"/>
</linearGradient>
<linearGradient id="paint44_linear_301_3979" x1="77.2382" y1="117.353" x2="41.7095" y2="159.087" gradientUnits="userSpaceOnUse">
<stop stop-color="#355178"/>
<stop offset="1" stop-color="#262648"/>
</linearGradient>
<linearGradient id="paint45_linear_301_3979" x1="95.9498" y1="87.3986" x2="90.3572" y2="94.995" gradientUnits="userSpaceOnUse">
<stop stop-color="#CACDD2"/>
<stop offset="1" stop-color="#96999D"/>
</linearGradient>
<linearGradient id="paint46_linear_301_3979" x1="25.9337" y1="146.207" x2="58.9785" y2="81.7188" gradientUnits="userSpaceOnUse">
<stop stop-color="#CACDD2"/>
<stop offset="1" stop-color="#96999D"/>
</linearGradient>
<linearGradient id="paint47_linear_301_3979" x1="56.0404" y1="68.1213" x2="47.38" y2="87.9798" gradientUnits="userSpaceOnUse">
<stop stop-color="#CACDD2"/>
<stop offset="1" stop-color="#96999D"/>
</linearGradient>
<linearGradient id="paint48_linear_301_3979" x1="65.1362" y1="65.0254" x2="21.3961" y2="70.5586" gradientUnits="userSpaceOnUse">
<stop stop-color="#142344"/>
<stop offset="1" stop-color="#3C5D84"/>
</linearGradient>
<linearGradient id="paint49_linear_301_3979" x1="56.6866" y1="64.0433" x2="47.0172" y2="86.2161" gradientUnits="userSpaceOnUse">
<stop stop-color="#CACDD2"/>
<stop offset="1" stop-color="#96999D"/>
</linearGradient>
<linearGradient id="paint50_linear_301_3979" x1="65.5937" y1="68.6468" x2="21.8537" y2="74.18" gradientUnits="userSpaceOnUse">
<stop stop-color="#142344"/>
<stop offset="1" stop-color="#3C5D84"/>
</linearGradient>
<linearGradient id="paint51_linear_301_3979" x1="70.815" y1="95.4497" x2="49.2032" y2="116.073" gradientUnits="userSpaceOnUse">
<stop stop-color="#142344"/>
<stop offset="1" stop-color="#3C5D84"/>
</linearGradient>
<linearGradient id="paint52_linear_301_3979" x1="41.764" y1="155.132" x2="75.2109" y2="89.8592" gradientUnits="userSpaceOnUse">
<stop stop-color="#CACDD2"/>
<stop offset="1" stop-color="#96999D"/>
</linearGradient>
<linearGradient id="paint53_linear_301_3979" x1="89.9408" y1="121.886" x2="112.633" y2="121.886" gradientUnits="userSpaceOnUse">
<stop stop-color="#ACAFB4"/>
<stop offset="1" stop-color="#AAADB2"/>
</linearGradient>
</defs>
</svg>
