<svg width="157" height="151" viewBox="0 0 157 151" fill="none" xmlns="http://www.w3.org/2000/svg">
<path d="M79.7616 7.11908C79.7616 7.11908 9.78013 -18.3427 16.0006 27.0393C22.2211 72.4217 -25.9884 138.704 32.7184 145.994C91.4251 153.283 144.689 142.211 150.132 118.793C155.575 95.375 169.074 36.9544 79.7616 7.11908V7.11908Z" fill="#F4F6F8"/>
<path d="M78.8933 110.854C78.1475 106.14 77.7499 98.7839 81.625 92.2342C88.3847 80.8072 100.538 84.6956 112.278 72.4838C121.748 62.6346 118.837 54.9096 129.3 48.3921C131.052 47.3015 140.307 41.2956 147.135 44.9971C150.982 47.0828 152.352 51.3208 152.609 52.1165C156.497 64.1403 144.158 82.8399 128.183 91.3227C119.004 96.1964 116.065 94.563 99.933 100.21C90.4535 103.528 83.3242 107.836 78.8928 110.854H78.8933Z" fill="url(#paint0_linear_301_3880)"/>
<path d="M78.8933 110.854C78.1475 106.14 77.7499 98.7839 81.625 92.2342C88.3847 80.8072 100.538 84.6956 112.278 72.4838C121.748 62.6346 118.837 54.9096 129.3 48.3921C131.052 47.3015 140.307 41.2956 147.135 44.9971C150.982 47.0828 152.352 51.3208 152.609 52.1165C156.497 64.1403 144.158 82.8399 128.183 91.3227C119.004 96.1964 116.065 94.563 99.933 100.21C90.4535 103.528 83.3242 107.836 78.8928 110.854H78.8933Z" fill="url(#paint1_linear_301_3880)"/>
<g style="mix-blend-mode:soft-light">
<g style="mix-blend-mode:soft-light">
<path d="M77.4902 116.51L77.3008 116.469C79.7194 105.228 84.2131 97.6944 90.6584 94.0781C93.814 92.3076 96.3178 92.0411 98.9695 91.7591C101.818 91.4558 104.764 91.1426 108.665 88.8185C112.456 86.5598 113.824 84.3686 115.557 81.5952C117.117 79.0986 119.058 75.9918 123.395 71.8649C127.197 68.248 129.959 66.5617 132.396 65.0742C135.034 63.4637 137.117 62.1918 139.541 59.0579C143.5 53.9391 145.596 47.3546 145.77 39.4878L145.964 39.492C145.789 47.4013 143.679 54.0242 139.694 59.1763C137.249 62.3382 135.152 63.6185 132.496 65.2394C130.068 66.7216 127.315 68.4023 123.529 72.0051C119.209 76.1149 117.275 79.2103 115.721 81.6975C113.975 84.4937 112.595 86.7021 108.764 88.9847C104.827 91.3307 101.859 91.6464 98.9897 91.9518C96.3588 92.2317 93.8737 92.4961 90.7528 94.2469C84.3585 97.8346 79.8959 105.325 77.4902 116.509V116.51Z" fill="white"/>
</g>
<g style="mix-blend-mode:soft-light">
<path d="M132.581 65.9275C132.186 65.9275 131.787 65.9202 131.382 65.9052L131.253 65.9005L131.294 65.7774C131.347 65.6206 136.499 50.0402 130.797 43.5487L130.942 43.4209C136.446 49.686 131.995 64.2235 131.518 65.7161C140.06 66.0013 146.439 62.8067 150.291 60.0691C154.485 57.088 156.668 53.9951 156.689 53.964L156.848 54.0751C156.826 54.1063 154.624 57.2266 150.403 60.227C146.689 62.8664 140.644 65.928 132.581 65.928L132.581 65.9275Z" fill="white"/>
</g>
<g style="mix-blend-mode:soft-light">
<path d="M133.16 79.2409C131.743 79.2409 130.428 79.1615 129.244 79.0394C123.265 78.4224 119.217 76.6051 119.177 76.587L119.102 76.5527L119.124 76.4727C121.427 68.3452 119.522 56.7452 119.503 56.6289L119.694 56.5967C119.713 56.713 121.612 68.2792 119.333 76.4441C119.914 76.6945 123.769 78.2811 129.271 78.8478C134.76 79.4134 143.058 79.0503 151.42 74.1107L151.519 74.2774C144.913 78.1793 138.348 79.2409 133.161 79.2409H133.16Z" fill="white"/>
</g>
<g style="mix-blend-mode:soft-light">
<path d="M126.058 98.1956C110.483 98.1956 101.572 91.6796 101.482 91.6127L101.4 91.5519L101.466 91.4735C107.693 83.9713 105.372 71.4858 105.348 71.3606L105.538 71.3237C105.562 71.4494 107.884 83.9354 101.681 91.5166C102.632 92.184 111.672 98.2174 126.885 97.9956L126.888 98.1894C126.61 98.1935 126.332 98.1956 126.058 98.1956V98.1956Z" fill="white"/>
</g>
</g>
<path d="M95.0039 101.358C97.6333 99.4938 101.935 96.7988 107.71 94.7946C117.982 91.2291 122.663 93.4058 127.03 89.1003C131.551 84.6436 128.672 80.2046 134.083 75.2302C134.537 74.8121 140.346 69.6101 145.554 71.5972C149.198 72.9875 150.592 77.1497 151.246 79.1025C153.785 86.6821 152.201 98.1938 144.1 103.822C136.42 109.159 126.761 106.525 123.694 105.667C118.314 104.162 117.051 102.051 111.58 100.684C104.928 99.0222 98.9303 100.179 95.0039 101.358V101.358Z" fill="url(#paint2_linear_301_3880)"/>
<path d="M18.1589 100.462C15.7922 100.543 13.4057 99.8853 11.4641 98.4389C7.16239 95.2349 6.69994 89.4118 10.4369 85.4735L65.0506 27.5105C66.8376 25.6283 69.4203 24.5916 72.1244 24.6659C74.8166 24.7397 77.3655 25.9062 79.1162 27.8595L97.4019 48.2637L118.18 25.4029C121.288 21.9829 126.671 21.7751 130.199 24.9038C133.705 28.0132 134.08 33.2718 131.04 36.6835L104.102 66.9218C102.424 68.8056 99.982 69.905 97.4019 69.9326C94.8104 69.9601 92.3357 68.9032 90.624 67.0314L72.1249 46.8017L25.7964 97.0636C23.807 99.2044 20.997 100.365 18.1595 100.463L18.1589 100.462Z" fill="url(#paint3_linear_301_3880)"/>
<path d="M136.853 41.0746L113.969 20.9825L143.335 11.1162H145.386L138.703 40.8939L136.853 41.0746Z" fill="url(#paint4_linear_301_3880)"/>
<path d="M20.2097 100.462C17.843 100.543 15.4565 99.8853 13.5148 98.4389C9.21317 95.2349 8.75073 89.4118 12.4877 85.4735L67.1014 27.5105C68.8884 25.6283 71.4711 24.5916 74.1752 24.6659C76.8674 24.7397 79.4163 25.9062 81.167 27.8595L99.4527 48.2637L120.231 25.4029C123.339 21.9829 128.722 21.7751 132.25 24.9038C135.756 28.0132 136.131 33.2718 133.091 36.6835L106.153 66.9218C104.475 68.8056 102.033 69.905 99.4527 69.9326C96.8612 69.9601 94.3865 68.9032 92.6747 67.0314L74.1757 46.8017L27.8472 97.0636C25.8577 99.2044 23.0477 100.365 20.2102 100.463L20.2097 100.462Z" fill="url(#paint5_linear_301_3880)"/>
<path d="M138.703 40.8939L116.02 20.9825L145.386 11.1162L138.703 40.8939Z" fill="url(#paint6_linear_301_3880)"/>
<path d="M30.1727 67.3877L19.2509 137.499C19.0433 138.851 20.0071 140.072 21.2367 140.014L75.9002 137.433L30.1732 67.3882L30.1727 67.3877Z" fill="url(#paint7_linear_301_3880)"/>
<path d="M42.082 132.276C43.8083 127.012 45.5652 118.977 43.5083 110.056C41.1467 99.8117 35.915 97.7623 31.2183 86.8125C24.5136 71.1818 32.1017 59.8591 25.1608 55.082C21.7757 52.7522 16.4531 52.7506 13.1713 55.0893C3.80868 61.7626 6.37525 90.8288 21.2302 102.172C27.9485 107.301 33.8113 106.693 38.8531 113.331C43.3079 119.197 42.9586 126.935 42.0825 132.276L42.082 132.276Z" fill="url(#paint8_linear_301_3880)"/>
<g style="mix-blend-mode:soft-light">
<g style="mix-blend-mode:soft-light">
<path d="M43.1253 119.035C42.5627 116.823 41.8065 114.648 40.8764 112.571C38.7406 107.801 36.3832 105.176 33.3983 101.854C31.4494 99.6846 29.2409 97.2259 26.6884 93.701C21.9128 87.1056 20.4305 84.7882 19.1018 81.0519C16.4735 73.6598 16.8773 67.0317 17.3517 63.7385C18.0248 59.0673 19.5912 54.6221 22.0068 50.5264L22.1734 50.625C19.7703 54.6989 18.2122 59.1208 17.5432 63.7665C17.0714 67.0421 16.6697 73.6344 19.284 80.987C20.6044 84.7005 22.082 87.0096 26.8446 93.5873C29.3914 97.1044 31.5963 99.5589 33.5416 101.725C36.5379 105.06 38.9041 107.694 41.0523 112.492C41.9866 114.579 42.747 116.764 43.3122 118.987L43.1248 119.035H43.1253Z" fill="white"/>
</g>
<g style="mix-blend-mode:soft-light">
<path d="M17.8441 75.8489L17.7039 75.7731C17.6764 75.758 14.9012 74.2316 12.4358 71.1258C10.1594 68.2579 7.68574 63.4179 8.82966 56.6465L9.02066 56.6787C7.88919 63.38 10.3359 68.1686 12.5879 71.0053C14.7149 73.6847 17.0692 75.1737 17.6577 75.5228C17.8207 70.1235 21.2816 66.624 24.173 64.6327C27.3303 62.4587 30.5077 61.5664 30.5394 61.5576L30.5908 61.7441C30.5596 61.7529 27.4086 62.6379 24.2784 64.7948C21.3973 66.7798 17.9432 70.2813 17.8477 75.689L17.8451 75.8484L17.8441 75.8489Z" fill="white"/>
</g>
<g style="mix-blend-mode:soft-light">
<path d="M18.6236 93.2263C15.8167 93.2263 12.5188 92.5366 9.47266 90.1642L9.59151 90.0115C16.3897 95.3059 24.4683 92.1107 25.3267 91.7467C23.9508 86.4107 25.171 82.4729 26.4416 80.1057C27.8264 77.5255 29.5713 76.199 29.589 76.186L29.7052 76.3408C29.6367 76.3922 22.8712 81.6139 25.5354 91.7778L25.5562 91.8568L25.4825 91.8905C25.4321 91.9134 22.495 93.2269 18.6241 93.2269L18.6236 93.2263Z" fill="white"/>
</g>
<g style="mix-blend-mode:soft-light">
<path d="M24.8781 103.408C22.7734 103.408 20.2541 103.025 17.3242 101.954L17.3907 101.772C26.9334 105.261 32.0562 101.384 32.6204 100.919C30.2899 95.4463 33.5774 86.6088 33.6112 86.52L33.7923 86.5886C33.7591 86.6774 30.4726 95.5133 32.8264 100.908L32.8544 100.971L32.8031 101.018C32.7662 101.052 30.1005 103.407 24.8781 103.407V103.408Z" fill="white"/>
</g>
</g>
<path d="M59.12 136.636C59.7044 133.101 60.0397 127.579 57.1638 122.641C52.1464 114.025 43.0002 116.884 34.2463 107.653C27.1855 100.209 29.4106 94.4231 21.5873 89.4762C20.2778 88.6483 13.3582 84.0909 8.21262 86.8357C5.31283 88.3824 4.26233 91.5578 4.0651 92.1535C1.08435 101.162 10.2545 115.267 22.2076 121.718C29.0748 125.424 31.2905 124.213 43.3754 128.536C50.4767 131.076 55.8081 134.347 59.1205 136.636L59.12 136.636Z" fill="url(#paint9_linear_301_3880)"/>
<g style="mix-blend-mode:soft-light">
<g style="mix-blend-mode:soft-light">
<path d="M60.1195 140.895C58.3709 132.491 55.0621 126.849 50.2855 124.126C47.9551 122.798 46.0929 122.587 44.1216 122.364C41.9656 122.12 39.7364 121.867 36.7873 120.083C33.9171 118.346 32.891 116.678 31.5919 114.567C30.4386 112.693 29.003 110.36 25.7824 107.254C22.9595 104.531 20.9021 103.256 19.087 102.131C17.0992 100.899 15.5296 99.9256 13.7063 97.5355C10.737 93.6418 9.1851 88.6533 9.09375 82.7082L9.28735 82.7051C9.37766 88.6082 10.9166 93.5582 13.8605 97.4181C15.6615 99.7802 17.218 100.745 19.1888 101.966C21.0121 103.096 23.0783 104.377 25.9163 107.115C29.1545 110.238 30.5969 112.582 31.7564 114.466C33.042 116.555 34.0572 118.205 36.8875 119.917C39.8002 121.68 42.0081 121.929 44.1429 122.171C46.1349 122.397 48.0164 122.61 50.381 123.958C55.2085 126.71 58.5484 132.395 60.3089 140.856L60.1195 140.895V140.895Z" fill="white"/>
</g>
<g style="mix-blend-mode:soft-light">
<path d="M19.1928 102.651C7.20701 102.651 0.914883 93.7081 0.851562 93.6157L1.0109 93.5056C1.07474 93.5986 7.53399 102.761 19.8006 102.45C19.4035 101.17 16.2224 90.3645 20.3606 85.7183L20.5054 85.8471C16.1991 90.6818 19.9848 102.395 20.0233 102.513L20.0637 102.636L19.9345 102.64C19.6859 102.648 19.4373 102.652 19.1928 102.652V102.651Z" fill="white"/>
</g>
<g style="mix-blend-mode:soft-light">
<path d="M18.7242 112.645C14.7957 112.645 9.78507 111.836 4.75781 108.82L4.85747 108.654C11.1081 112.404 17.3338 112.717 21.4558 112.32C25.5297 111.927 28.403 110.784 28.8986 110.576C27.2362 104.429 28.7185 95.7674 28.7341 95.6807L28.9246 95.7139C28.9095 95.8012 27.4215 104.497 29.1078 110.606L29.1296 110.687L29.0538 110.72C29.0237 110.734 25.9719 112.08 21.4745 112.513C20.6384 112.593 19.7156 112.645 18.7247 112.645L18.7242 112.645Z" fill="white"/>
</g>
<g style="mix-blend-mode:soft-light">
<path d="M24.0503 126.915C23.7509 126.915 23.4488 126.911 23.1426 126.905L23.1467 126.711C29.4254 126.847 34.259 125.541 37.2081 124.422C40.0124 123.357 41.6899 122.256 42.0708 121.994C37.465 116.258 39.2702 106.905 39.2889 106.811L39.4788 106.849C39.4602 106.943 37.656 116.296 42.2862 121.952L42.3511 122.03L42.2691 122.091C42.2016 122.14 35.5773 126.914 24.0509 126.914L24.0503 126.915Z" fill="white"/>
</g>
</g>
<path d="M46.8988 149.562L18.8477 140.127L59.1965 137.432L46.8988 149.562Z" fill="#D8DDE0"/>
<path d="M130.157 68.8491L32.2718 65.8197C30.844 65.7755 29.9082 66.8693 30.1854 68.2627L46.0633 148.059C46.3405 149.453 47.7029 150.5 49.1017 150.4L145.004 143.464C146.089 143.386 146.769 142.332 146.526 141.109L132.601 71.1239C132.357 69.9018 131.265 68.8828 130.158 68.8486L130.157 68.8491Z" fill="url(#paint10_linear_301_3880)"/>
<path d="M130.686 68.8491L32.8011 65.8197C31.3733 65.7755 30.4375 66.8693 30.7146 68.2627L46.5926 148.059C46.8698 149.453 48.2322 150.5 49.631 150.4L145.534 143.464C146.618 143.386 147.299 142.332 147.055 141.109L133.129 71.1239C132.886 69.9018 131.794 68.8828 130.686 68.8486V68.8491Z" fill="url(#paint11_linear_301_3880)"/>
<g style="mix-blend-mode:multiply" opacity="0.3">
<path style="mix-blend-mode:multiply" d="M105.141 111.131C85.8749 100.656 67.6172 108.799 54.4714 95.3631C46.3767 87.0896 44.8907 75.3754 45.1336 66.2014L32.8011 65.8197C31.3733 65.7755 30.4375 66.8693 30.7146 68.2632L46.5926 148.06C46.8698 149.453 48.2322 150.501 49.631 150.4L132.841 144.383C123.746 124.629 113.493 115.673 105.141 111.132V111.131Z" fill="url(#paint12_linear_301_3880)"/>
</g>
<path d="M142.258 140.807L51.4116 147.012C49.9023 147.115 48.4314 145.977 48.1314 144.47L33.9865 73.3817C33.6865 71.8745 34.6939 70.6837 36.2318 70.7226L128.776 73.0504C129.985 73.0805 131.176 74.1836 131.44 75.5142L143.924 138.252C144.189 139.583 143.444 140.727 142.258 140.808V140.807Z" fill="#D8DDE0"/>
<path d="M142.664 140.779L51.9266 146.976C50.4193 147.079 48.95 145.941 48.65 144.435L34.5138 73.3919C34.2139 71.8852 35.2202 70.6954 36.756 70.7343L129.189 73.0595C130.396 73.0896 131.586 74.1922 131.851 75.5218L144.328 138.225C144.592 139.554 143.849 140.697 142.664 140.778V140.779Z" fill="url(#paint13_linear_301_3880)"/>
<path d="M82.8016 96.3701L72.8971 96.4314C72.6002 96.4335 72.3101 96.1878 72.2494 95.8835L70.6108 87.6495C70.5501 87.3451 70.7426 87.0995 71.0406 87.1016L80.9684 87.1571C81.2586 87.1587 81.542 87.4033 81.6016 87.7035L83.2174 95.8232C83.277 96.1234 83.0912 96.3681 82.8016 96.3701V96.3701ZM73.2153 95.3272L82.0605 95.2846L80.6591 88.2421L71.7983 88.2047L73.2153 95.3267V95.3272Z" fill="#D8DDE0"/>
<path d="M95.3197 96.2928L85.7317 96.3521C85.4442 96.3536 85.1629 96.1126 85.1032 95.813L83.4916 87.7124C83.4319 87.4128 83.6177 87.1718 83.9058 87.1733L93.516 87.2268C93.7968 87.2284 94.0724 87.4694 94.1311 87.7644L95.7209 95.7543C95.7795 96.0498 95.6004 96.2903 95.3202 96.2923L95.3197 96.2928ZM86.0364 95.2661L94.5987 95.225L93.2197 88.2957L84.6423 88.2599L86.0364 95.2666V95.2661Z" fill="#D8DDE0"/>
<path d="M107.439 96.2177L98.1529 96.2754C97.8747 96.2769 97.6012 96.0396 97.5426 95.7451L95.9564 87.7745C95.8978 87.48 96.0768 87.2421 96.3556 87.2437L105.663 87.2956C105.935 87.2972 106.202 87.534 106.261 87.8248L107.825 95.6885C107.883 95.9794 107.71 96.2162 107.439 96.2177V96.2177ZM98.4446 95.2065L106.737 95.1665L105.38 88.3468L97.0723 88.312L98.4441 95.2065H98.4446Z" fill="#D8DDE0"/>
<path d="M119.185 96.1454L110.187 96.201C109.917 96.2025 109.652 95.9688 109.594 95.679L108.033 87.8335C107.975 87.5437 108.147 87.3095 108.418 87.311L117.437 87.3614C117.7 87.363 117.96 87.5962 118.018 87.8823L119.558 95.624C119.615 95.9101 119.448 96.1433 119.185 96.1449V96.1454ZM110.466 95.1493L118.502 95.1108L117.166 88.397L109.116 88.3633L110.467 95.1498L110.466 95.1493Z" fill="#D8DDE0"/>
<path d="M130.57 96.0748L121.847 96.1288C121.586 96.1303 121.328 95.9003 121.271 95.6146L119.734 87.8907C119.677 87.605 119.843 87.3749 120.105 87.3765L128.849 87.4253C129.105 87.4269 129.357 87.6564 129.413 87.9384L130.931 95.5622C130.987 95.8442 130.825 96.0737 130.57 96.0753V96.0748ZM122.114 95.0932L129.904 95.0558L128.589 88.4443L120.785 88.4116L122.114 95.0932H122.114Z" fill="#D8DDE0"/>
<path d="M58.7362 107.756L48.1777 107.969C47.8611 107.975 47.5533 107.725 47.4905 107.411L45.7964 98.8957C45.7336 98.5809 45.9407 98.3233 46.2583 98.3207L56.8417 98.2329C57.1511 98.2303 57.4516 98.4796 57.5133 98.7902L59.1836 107.184C59.2453 107.494 59.0455 107.75 58.7372 107.756L58.7362 107.756ZM48.5244 106.819L57.9529 106.642L56.5044 99.3625L47.0586 99.454L48.5244 106.819V106.819Z" fill="#D8DDE0"/>
<path d="M72.0685 107.487L61.8593 107.693C61.5531 107.699 61.2547 107.453 61.1929 107.144L59.5269 98.7714C59.4651 98.4618 59.6644 98.2089 59.9717 98.2063L70.2047 98.1211C70.5037 98.1185 70.7954 98.3642 70.8561 98.6691L72.4983 106.923C72.559 107.229 72.3665 107.481 72.068 107.487L72.0685 107.487ZM62.1905 106.563L71.3076 106.392L69.8829 99.2331L60.7497 99.3219L62.1905 106.563V106.563Z" fill="#D8DDE0"/>
<path d="M84.9625 107.228L75.085 107.427C74.7887 107.432 74.4996 107.191 74.4388 106.886L72.8003 98.6524C72.7395 98.3481 72.9316 98.0993 73.2285 98.0967L83.1288 98.0147C83.4185 98.0121 83.7008 98.2536 83.7605 98.5538L85.3762 106.673C85.4359 106.974 85.2506 107.222 84.962 107.228H84.9625ZM75.4021 106.315L84.2229 106.15L82.8216 99.1074L73.9852 99.1931L75.4021 106.315V106.315Z" fill="#D8DDE0"/>
<path d="M97.444 106.976L87.8826 107.169C87.5961 107.175 87.3148 106.937 87.2556 106.637L85.644 98.5365C85.5843 98.2368 85.7691 97.9922 86.0566 97.9901L95.6404 97.9107C95.9207 97.9086 96.1952 98.1459 96.2539 98.4415L97.8437 106.431C97.9023 106.727 97.7238 106.971 97.444 106.976V106.976ZM88.1857 106.076L96.7241 105.916L95.3451 98.9863L86.7911 99.0694L88.1852 106.076L88.1857 106.076Z" fill="#D8DDE0"/>
<path d="M109.532 106.732L100.273 106.919C99.9949 106.924 99.7224 106.69 99.6637 106.395L98.0776 98.4245C98.0189 98.13 98.197 97.889 98.4757 97.8869L107.758 97.8101C108.029 97.808 108.296 98.0417 108.354 98.3326L109.919 106.196C109.976 106.487 109.804 106.727 109.533 106.733L109.532 106.732ZM100.563 105.843L108.832 105.688L107.475 98.868L99.1909 98.9485L100.563 105.843Z" fill="#D8DDE0"/>
<path d="M121.244 106.496L112.271 106.677C112.003 106.682 111.737 106.452 111.68 106.162L110.119 98.3165C110.061 98.0267 110.233 97.7893 110.503 97.7872L119.497 97.7124C119.76 97.7103 120.019 97.9404 120.076 98.2266L121.616 105.968C121.674 106.254 121.507 106.491 121.245 106.496L121.244 106.496ZM112.549 105.619L120.562 105.469L119.226 98.7548L111.199 98.8327L112.549 105.619V105.619Z" fill="#D8DDE0"/>
<path d="M132.599 106.267L123.9 106.443C123.64 106.448 123.382 106.221 123.325 105.935L121.788 98.2113C121.732 97.9256 121.897 97.6924 122.159 97.6904L130.879 97.6182C131.133 97.6161 131.386 97.8425 131.442 98.1246L132.959 105.748C133.015 106.03 132.855 106.263 132.6 106.268L132.599 106.267ZM124.166 105.4L131.934 105.255L130.619 98.6434L122.836 98.7187L124.166 105.4V105.4Z" fill="#D8DDE0"/>
<path d="M60.9692 118.979L50.4403 119.339C50.1243 119.35 49.8175 119.103 49.7547 118.788L48.0601 110.273C47.9973 109.958 48.2033 109.698 48.5205 109.69L59.0743 109.455C59.3826 109.448 59.6826 109.694 59.7444 110.005L61.4146 118.398C61.4763 118.708 61.277 118.968 60.9698 118.979H60.9692ZM50.785 118.181L60.1876 117.873L58.739 110.593L49.3192 110.816L50.7844 118.181H50.785Z" fill="#D8DDE0"/>
<path d="M74.2616 118.525L64.0805 118.873C63.7748 118.883 63.4774 118.64 63.4156 118.331L61.7495 109.959C61.6878 109.649 61.8866 109.393 62.1928 109.386L72.3978 109.158C72.6963 109.152 72.9869 109.394 73.0476 109.699L74.6898 117.953C74.7505 118.259 74.559 118.514 74.2611 118.524L74.2616 118.525ZM64.4106 117.735L73.5023 117.436L72.0776 110.278L62.9692 110.493L64.41 117.735H64.4106Z" fill="#D8DDE0"/>
<path d="M87.123 118.085L77.2729 118.422C76.9776 118.432 76.6885 118.193 76.6283 117.889L74.9898 109.655C74.929 109.351 75.1206 109.098 75.4164 109.092L85.2893 108.872C85.5778 108.866 85.8602 109.104 85.9199 109.404L87.5356 117.524C87.5953 117.824 87.4105 118.075 87.1224 118.085H87.123ZM77.5885 117.303L86.3844 117.015L84.983 109.972L76.1711 110.181L77.588 117.303H77.5885Z" fill="#D8DDE0"/>
<path d="M99.5689 117.659L90.0339 117.986C89.7479 117.995 89.4676 117.761 89.408 117.461L87.7964 109.36C87.7367 109.061 87.921 108.813 88.2075 108.807L97.7648 108.594C98.044 108.588 98.318 108.822 98.3767 109.117L99.9664 117.107C100.025 117.403 99.8471 117.65 99.5684 117.659H99.5689ZM90.336 116.884L98.8505 116.606L97.4715 109.676L88.9414 109.878L90.3354 116.885L90.336 116.884Z" fill="#D8DDE0"/>
<path d="M111.623 117.247L102.389 117.563C102.112 117.573 101.84 117.341 101.781 117.047L100.195 109.076C100.136 108.782 100.314 108.538 100.591 108.531L109.848 108.325C110.118 108.319 110.384 108.55 110.442 108.841L112.007 116.704C112.065 116.995 111.893 117.238 111.623 117.247ZM102.677 116.48L110.924 116.21L109.567 109.39L101.306 109.586L102.677 116.48V116.48Z" fill="#D8DDE0"/>
<path d="M123.306 116.848L114.358 117.154C114.089 117.163 113.825 116.935 113.768 116.646L112.206 108.8C112.149 108.51 112.32 108.27 112.589 108.264L121.558 108.064C121.82 108.058 122.079 108.285 122.136 108.571L123.676 116.313C123.733 116.599 123.567 116.839 123.306 116.848V116.848ZM114.634 116.088L122.625 115.826L121.289 109.113L113.283 109.302L114.634 116.089V116.088Z" fill="#D8DDE0"/>
<path d="M134.628 116.461L125.953 116.757C125.693 116.766 125.437 116.542 125.38 116.256L123.843 108.532C123.787 108.246 123.952 108.01 124.212 108.004L132.907 107.811C133.162 107.805 133.413 108.029 133.469 108.311L134.987 115.935C135.043 116.217 134.883 116.452 134.629 116.461H134.628ZM126.218 115.709L133.965 115.455L132.649 108.843L124.888 109.027L126.218 115.709V115.709Z" fill="#D8DDE0"/>
<path d="M63.2038 130.202L52.7039 130.709C52.3889 130.724 52.0826 130.482 52.0198 130.167L50.3257 121.652C50.2629 121.337 50.4685 121.073 50.7846 121.061L61.3093 120.679C61.6166 120.668 61.9161 120.91 61.9778 121.221L63.648 129.614C63.7098 129.924 63.5115 130.188 63.2048 130.203L63.2038 130.202ZM53.0475 129.543L62.4242 129.103L60.9756 121.823L51.5823 122.178L53.0475 129.543Z" fill="#D8DDE0"/>
<path d="M76.4581 129.562L66.3055 130.052C66.0008 130.067 65.704 129.828 65.6422 129.518L63.9761 121.146C63.9144 120.837 64.1121 120.577 64.4178 120.565L74.5943 120.196C74.8917 120.185 75.1819 120.424 75.2426 120.729L76.8848 128.983C76.9455 129.288 76.7545 129.547 76.4576 129.561L76.4581 129.562ZM66.6335 128.906L75.6998 128.481L74.2751 121.322L65.1922 121.665L66.633 128.906H66.6335Z" fill="#D8DDE0"/>
<path d="M89.2834 128.942L79.4609 129.417C79.1661 129.431 78.878 129.196 78.8178 128.891L77.1793 120.657C77.1185 120.353 77.309 120.098 77.6043 120.087L87.4502 119.729C87.7377 119.718 88.0196 119.953 88.0793 120.253L89.695 128.373C89.7547 128.673 89.5704 128.928 89.2834 128.942V128.942ZM79.7749 128.29L88.5464 127.879L87.145 120.836L78.3574 121.167L79.7744 128.29L79.7749 128.29Z" fill="#D8DDE0"/>
<path d="M101.697 128.343L92.1886 128.802C91.9037 128.816 91.6239 128.584 91.5642 128.285L89.9527 120.184C89.893 119.884 90.0767 119.634 90.3627 119.623L99.8935 119.277C100.172 119.266 100.445 119.498 100.504 119.793L102.094 127.783C102.153 128.078 101.975 128.329 101.698 128.342L101.697 128.343ZM92.4886 127.694L100.98 127.296L99.6008 120.366L91.0945 120.687L92.4886 127.694V127.694Z" fill="#D8DDE0"/>
<path d="M113.717 127.762L104.508 128.207C104.232 128.221 103.961 127.993 103.902 127.698L102.316 119.727C102.257 119.433 102.434 119.186 102.711 119.176L111.941 118.84C112.211 118.83 112.477 119.058 112.534 119.349L114.099 127.212C114.157 127.503 113.986 127.749 113.717 127.762V127.762ZM104.795 127.117L113.019 126.732L111.661 119.912L103.423 120.223L104.795 127.118L104.795 127.117Z" fill="#D8DDE0"/>
<path d="M125.366 127.199L116.443 127.63C116.175 127.643 115.911 127.418 115.854 127.129L114.292 119.283C114.235 118.993 114.406 118.75 114.673 118.74L123.618 118.415C123.879 118.406 124.137 118.63 124.194 118.917L125.735 126.658C125.792 126.944 125.626 127.186 125.366 127.199ZM116.718 126.558L124.686 126.184L123.35 119.471L115.367 119.772L116.718 126.558V126.558Z" fill="#D8DDE0"/>
<path d="M136.656 126.654L128.005 127.072C127.746 127.085 127.49 126.863 127.433 126.578L125.896 118.854C125.839 118.568 126.004 118.329 126.264 118.32L134.935 118.005C135.189 117.996 135.44 118.217 135.496 118.499L137.013 126.122C137.069 126.404 136.91 126.643 136.656 126.655L136.656 126.654ZM128.268 126.017L135.994 125.655L134.678 119.043L126.939 119.335L128.268 126.017H128.268Z" fill="#D8DDE0"/>
<path d="M65.4363 141.425L54.966 142.08C54.652 142.099 54.3463 141.86 54.2835 141.545L52.5894 133.03C52.5266 132.715 52.7317 132.447 53.0467 132.431L63.5419 131.902C63.8486 131.886 64.1471 132.125 64.2088 132.436L65.879 140.829C65.9408 141.139 65.7431 141.406 65.4373 141.425H65.4363ZM55.3076 140.906L64.6578 140.335L63.2092 133.055L53.8418 133.541L55.307 140.906H55.3076Z" fill="#D8DDE0"/>
<path d="M78.6566 140.599L68.5325 141.232C68.2289 141.251 67.9325 141.015 67.8707 140.706L66.2047 132.334C66.1429 132.024 66.3401 131.761 66.6448 131.745L76.7933 131.233C77.0896 131.218 77.3792 131.453 77.44 131.759L79.0822 140.013C79.1429 140.318 78.9524 140.581 78.6566 140.599V140.599ZM68.859 140.078L77.9003 139.526L76.4756 132.367L67.4182 132.837L68.859 140.079V140.078Z" fill="#D8DDE0"/>
<path d="M91.4424 139.8L81.6474 140.412C81.3536 140.43 81.0661 140.198 81.0053 139.894L79.3668 131.66C79.3061 131.356 79.496 131.097 79.7903 131.082L89.6087 130.587C89.8957 130.572 90.1765 130.804 90.2362 131.104L91.8519 139.224C91.9116 139.524 91.7284 139.781 91.4419 139.8H91.4424ZM81.9598 139.278L90.7069 138.743L89.3056 131.701L80.5424 132.155L81.9593 139.277L81.9598 139.278Z" fill="#D8DDE0"/>
<path d="M103.821 139.026L94.3394 139.619C94.055 139.636 93.7763 139.408 93.7166 139.109L92.105 131.008C92.0453 130.708 92.2286 130.454 92.5135 130.44L102.018 129.961C102.296 129.947 102.569 130.175 102.627 130.47L104.217 138.46C104.276 138.755 104.099 139.009 103.821 139.026H103.821ZM94.6379 138.504L103.105 137.986L101.726 131.057L93.2432 131.497L94.6373 138.504H94.6379Z" fill="#D8DDE0"/>
<path d="M53.9012 85.63L43.1424 85.5516L42.6836 83.2456L53.4481 83.3541L53.9012 85.63Z" fill="url(#paint14_linear_301_3880)"/>
<path d="M67.4786 85.7296L57.0799 85.6537L56.6289 83.3867L67.0332 83.4916L67.4786 85.7296Z" fill="url(#paint15_linear_301_3880)"/>
<path d="M80.6073 85.8248L70.5512 85.7516L70.1074 83.5225L80.1692 83.6237L80.6073 85.8248Z" fill="url(#paint16_linear_301_3880)"/>
<path d="M93.3112 85.9177L83.5805 85.8471L83.1445 83.6543L92.8804 83.7525L93.3112 85.9177Z" fill="url(#paint17_linear_301_3880)"/>
<path d="M105.61 86.0072L96.189 85.9387L95.7598 83.7812L105.186 83.8768L105.61 86.0072Z" fill="url(#paint18_linear_301_3880)"/>
<path d="M117.522 86.0939L108.397 86.0274L107.975 83.9048L117.105 83.9967L117.522 86.0939Z" fill="url(#paint19_linear_301_3880)"/>
<path d="M129.064 86.1782L120.221 86.1138L119.805 84.0244L128.653 84.1137L129.064 86.1782Z" fill="url(#paint20_linear_301_3880)"/>
<path d="M128.096 81.3075L42.0606 80.1114L41.1934 75.7524L127.32 77.405L128.096 81.3075Z" fill="#D8DDE0"/>
<g style="mix-blend-mode:multiply" opacity="0.3">
<g style="mix-blend-mode:multiply">
<path d="M105.139 111.131C85.8733 100.656 67.6156 108.799 54.4698 95.363C47.7282 88.4726 45.567 79.1719 45.1766 70.9472L36.7026 70.7343C35.1958 70.6964 34.2092 71.8634 34.5029 73.341L48.6598 144.488C48.9541 145.966 50.3949 147.082 51.8736 146.98L131.488 141.543C122.743 123.76 113.08 115.449 105.139 111.132L105.139 111.131Z" fill="#D8DDE0"/>
</g>
</g>
<path d="M95.2967 81.8736C95.074 81.3662 94.3163 81.0338 93.8491 81.4675C92.5111 82.7098 92.2433 84.7727 91.5566 86.4263C91.0324 87.6889 90.4495 88.9245 89.8843 90.1683C88.6771 88.4493 87.6447 86.6003 86.3986 84.9072C85.9662 84.3198 84.936 84.8574 85.2619 85.5465C86.5517 88.2691 87.4086 91.0985 89.1245 93.6164C89.726 94.4988 91.0241 94.2267 91.4549 93.3515C92.4504 91.3317 93.4651 89.3187 94.3292 87.2371C95.0035 85.6135 96.0529 83.6 95.2957 81.8731L95.2967 81.8736Z" fill="url(#paint21_linear_301_3880)"/>
<path d="M58.8482 20.9944C59.4248 21.2873 60.1494 21.0183 60.4665 20.3935C60.7836 19.7687 60.5729 19.0244 59.9963 18.7315C59.9662 18.7165 59.9361 18.7035 59.9054 18.6915C60.0123 18.3456 60.0933 17.9971 60.1473 17.6486C60.1805 17.6486 60.2137 17.6481 60.2475 17.645C60.9056 17.5863 61.4277 16.9813 61.4137 16.2936C61.3997 15.606 60.8552 15.096 60.1976 15.1547C60.1634 15.1578 60.1296 15.163 60.0959 15.1692C60.0274 14.8285 59.9329 14.4956 59.8141 14.1736C59.8442 14.1559 59.8743 14.1377 59.9039 14.117C60.4665 13.7223 60.6466 12.9437 60.3056 12.3776C59.9646 11.8115 59.2323 11.6723 58.6691 12.0671C58.64 12.0873 58.6131 12.1091 58.5866 12.1314C58.3644 11.8853 58.1205 11.6578 57.8568 11.4495C57.8755 11.4189 57.8937 11.3882 57.9098 11.356C58.2269 10.7312 58.6411 10.0488 58.0598 9.76471C56.7155 9.10823 56.1384 9.67019 55.8212 10.295C55.8046 10.3272 55.7906 10.3604 55.7771 10.3931C55.4538 10.3028 55.1257 10.2404 54.7962 10.2056C54.7982 10.1708 54.7998 10.136 54.7993 10.1007C54.7853 9.4131 54.9892 9.04124 54.329 9.02825C52.8887 9.00021 52.4029 9.62552 52.417 10.3132C52.4175 10.349 52.4206 10.3843 52.4242 10.4191C52.0941 10.5131 51.7703 10.6336 51.4547 10.779C51.4396 10.7484 51.4241 10.7177 51.4064 10.6881C51.0654 10.122 50.3331 9.98284 49.7699 10.3776C49.2073 10.7723 49.0272 11.5508 49.3682 12.1169C49.3859 12.146 49.4051 12.173 49.4243 12.2C49.1751 12.4493 48.9416 12.7204 48.7257 13.0107C48.6976 12.9931 48.6696 12.9759 48.6395 12.9609C48.0629 12.668 47.3383 12.937 47.0212 13.5618C46.7041 14.1866 46.9148 14.9308 47.4914 15.2237C47.5215 15.2388 47.5516 15.2518 47.5823 15.2637C47.4753 15.6096 47.3944 15.9581 47.3404 16.3066C47.3072 16.3066 47.274 16.3071 47.2407 16.3102C46.5826 16.3689 46.0605 16.974 46.0745 17.6616C46.0885 18.3493 46.633 18.8588 47.2906 18.8001C47.3248 18.797 47.3586 18.7918 47.3923 18.7855C47.4608 19.1262 47.5553 19.4591 47.6741 19.7812C47.644 19.7988 47.6139 19.817 47.5843 19.8378C47.0217 20.2325 46.8416 21.011 47.1826 21.5771C47.5236 22.1432 48.652 22.406 49.2151 22.0118C49.2442 21.9916 48.8751 21.8456 48.9021 21.8238C49.1243 22.0695 49.3682 22.2975 49.6319 22.5057C49.6132 22.5364 49.595 22.567 49.5789 22.5992C49.2618 23.224 49.4725 23.9682 50.0492 24.2612C50.6258 24.5541 51.3504 24.2851 51.6675 23.6603C51.6841 23.6281 51.6981 23.5948 51.7116 23.5621C52.035 23.6525 52.363 23.7148 52.6926 23.7496C52.6905 23.7844 52.6889 23.8192 52.6894 23.8545C52.7035 24.5422 53.2479 25.0517 53.9055 24.993C54.5636 24.9343 55.0858 24.3292 55.0718 23.6416C55.0712 23.6057 55.0681 23.5704 55.0645 23.5356C55.3946 23.4416 55.7185 23.3211 56.034 23.1757C56.0491 23.2063 56.0647 23.237 56.0823 23.2666C56.4233 23.8327 57.1556 23.9719 57.7188 23.5772C58.2814 23.1825 58.4615 22.4039 58.1205 21.8378C58.1029 21.8088 58.0837 21.7817 58.0645 21.7547C58.3136 21.5054 58.5471 21.2343 58.7631 20.944C58.7911 20.9617 58.8191 20.9788 58.8492 20.9939L58.8482 20.9944ZM51.6597 21.0858C49.566 20.0221 48.802 17.3209 49.9526 15.0524C51.1038 12.7838 53.7337 11.8074 55.8275 12.871C57.9212 13.9347 58.6852 16.6359 57.5345 18.9045C56.3833 21.1731 53.7534 22.1495 51.6597 21.0858Z" fill="url(#paint22_linear_301_3880)"/>
<path d="M60.2465 17.6457C60.9046 17.5871 61.4267 16.982 61.4127 16.2944C61.3987 15.6067 60.8542 15.0967 60.1966 15.1554C60.1624 15.1585 60.1286 15.1637 60.0949 15.1699C60.0264 14.8292 59.9319 14.4963 59.8131 14.1743C59.8432 14.1567 59.8733 14.1385 59.9029 14.1177C60.4655 13.723 61.162 12.7695 60.765 12.2418C60.0113 11.2394 59.2312 11.6731 58.6686 12.0678C58.6396 12.088 58.6126 12.1099 58.5861 12.1322C58.364 11.8865 58.12 11.6585 57.8564 11.4503C57.875 11.4196 57.8932 11.389 57.9093 11.3568C58.0816 11.0166 58.0972 10.6416 57.983 10.3232C57.4396 11.2809 56.9029 12.2423 56.3761 13.2088C58.0463 14.4335 58.5783 16.847 57.534 18.9047C56.6491 20.6482 54.8907 21.6272 53.1737 21.5046C53.0969 21.7035 53.0222 21.9035 52.9396 22.1003C52.717 22.6347 52.4642 23.1577 52.2109 23.6802C52.3703 23.7103 52.5301 23.7337 52.6905 23.7509C52.6884 23.7857 52.6869 23.8205 52.6874 23.8558C52.7014 24.5434 53.1182 25.1277 54.3109 25.0643C54.9706 25.0295 55.0837 24.331 55.0702 23.6433C55.0697 23.6075 55.0666 23.5722 55.063 23.5374C55.3931 23.4434 55.7169 23.3229 56.0325 23.1775C56.0476 23.2081 56.0631 23.2388 56.0808 23.2684C56.4218 23.8345 57.6041 24.0749 58.1673 23.6802C58.7299 23.2855 58.46 22.4052 58.1195 21.8391C58.1019 21.81 58.0826 21.783 58.0634 21.756C58.3126 21.5067 58.5461 21.2356 58.762 20.9453C58.7901 20.9629 58.8181 20.9801 58.8482 20.9951C59.4248 21.288 60.1494 21.019 60.4665 20.3942C60.7836 19.7694 60.5729 19.0252 59.9963 18.7322C59.9662 18.7172 59.9361 18.7042 59.9055 18.6923C60.0124 18.3464 60.0933 17.9979 60.1473 17.6494C60.1805 17.6494 60.2138 17.6489 60.2475 17.6457H60.2465Z" fill="url(#paint23_linear_301_3880)"/>
<path d="M59.4684 21.065C60.045 21.3579 60.7696 21.0889 61.0867 20.4641C61.4038 19.8393 61.1931 19.0956 60.6164 18.8021C60.5863 18.7871 60.5562 18.7741 60.5256 18.7621C60.6325 18.4162 60.7135 18.0678 60.7675 17.7193C60.8007 17.7193 60.8339 17.7187 60.8676 17.7156C61.5258 17.6569 62.0479 17.0519 62.0339 16.3642C62.0199 15.6766 61.4754 15.1666 60.8178 15.2253C60.7836 15.2284 60.7498 15.2336 60.7161 15.2398C60.6476 14.8991 60.5531 14.5662 60.4343 14.2442C60.4644 14.2266 60.4945 14.2084 60.5241 14.1876C61.0867 13.7929 61.2668 13.0144 60.9258 12.4483C60.5848 11.8821 59.8524 11.743 59.2893 12.1377C59.2602 12.1579 59.2332 12.1797 59.2063 12.2021C58.9841 11.9559 58.7402 11.7284 58.4765 11.5201C58.4952 11.4895 58.5134 11.4589 58.5294 11.4267C58.8466 10.8019 58.6358 10.0576 58.0592 9.7647C57.4826 9.47178 56.758 9.74081 56.4409 10.3656C56.4243 10.3978 56.4103 10.4311 56.3968 10.4638C56.0734 10.3734 55.7454 10.3111 55.4158 10.2763C55.4179 10.2415 55.4195 10.2067 55.4189 10.1714C55.4049 9.48373 54.8605 8.97423 54.2029 9.03292C53.5447 9.09161 53.0226 9.69667 53.0366 10.3843C53.0371 10.4201 53.0403 10.4554 53.0439 10.4902C52.7138 10.5843 52.3899 10.7048 52.0743 10.8502C52.0593 10.8195 52.0437 10.7889 52.0261 10.7593C51.6851 10.1932 50.9527 10.054 50.3896 10.4487C49.827 10.8434 49.6469 11.6219 49.9879 12.188C50.0055 12.2171 50.0242 12.2441 50.0439 12.2711C49.7948 12.5204 49.5612 12.7915 49.3453 13.0819C49.3173 13.0642 49.2893 13.0471 49.2592 13.032C48.6825 12.7391 47.958 13.0081 47.6409 13.6329C47.3237 14.2577 47.5345 15.002 48.1111 15.2949C48.1412 15.3099 48.1713 15.3229 48.2019 15.3349C48.095 15.6808 48.014 16.0293 47.9601 16.3778C47.9268 16.3778 47.8936 16.3783 47.8599 16.3814C47.2018 16.4401 46.6796 17.0451 46.6936 17.7328C46.7076 18.4204 47.2521 18.9299 47.9097 18.8712C47.944 18.8681 47.9777 18.8629 48.0114 18.8567C48.0799 19.1974 48.1744 19.5303 48.2933 19.8523C48.2632 19.87 48.2331 19.8881 48.2035 19.9089C47.6409 20.3036 47.4608 21.0822 47.8017 21.6483C48.1427 22.2144 48.8751 22.3536 49.4382 21.9588C49.4673 21.9386 49.4943 21.9168 49.5213 21.8944C49.7434 22.1406 49.9874 22.3681 50.251 22.5763C50.2323 22.607 50.2142 22.6376 50.1981 22.6698C49.881 23.2946 50.0917 24.0389 50.6683 24.3318C51.2449 24.6247 51.9695 24.3557 52.2866 23.7309C52.3032 23.6987 52.3173 23.6655 52.3307 23.6327C52.6541 23.7231 52.9821 23.7854 53.3117 23.8202C53.3096 23.855 53.3081 23.8898 53.3086 23.9251C53.3226 24.6128 53.8671 25.1223 54.5247 25.0636C55.1828 25.0049 55.7049 24.3998 55.6909 23.7122C55.6904 23.6764 55.6873 23.641 55.6836 23.6062C56.0137 23.5122 56.3376 23.3918 56.6532 23.2463C56.6682 23.277 56.6838 23.3076 56.7014 23.3372C57.0424 23.9033 57.7748 24.0425 58.3379 23.6478C58.9005 23.2531 59.0806 22.4746 58.7397 21.9085C58.722 21.8794 58.7028 21.8524 58.6836 21.8253C58.9327 21.5761 59.1663 21.305 59.3822 21.0146C59.4102 21.0323 59.4383 21.0494 59.4684 21.0645V21.065ZM52.2799 21.1564C50.1861 20.0928 49.4221 17.3916 50.5728 15.123C51.724 12.8544 54.3539 11.878 56.4476 12.9417C58.5414 14.0053 59.3054 16.7065 58.1547 18.9751C57.0035 21.2437 54.3736 22.2201 52.2799 21.1564Z" fill="url(#paint24_linear_301_3880)"/>
<path d="M39.6844 38.2459C40.8137 38.8198 42.2333 38.2926 42.854 37.069C43.4748 35.8448 43.0627 34.3875 41.9333 33.8136C41.8746 33.784 41.8149 33.7591 41.7553 33.7352C41.9649 33.0579 42.1232 32.3755 42.2296 31.6925C42.2945 31.6925 42.3594 31.6915 42.4253 31.6853C43.7141 31.5705 44.737 30.3853 44.7101 29.0386C44.6831 27.6919 43.6165 26.6931 42.3277 26.8079C42.2603 26.8142 42.1944 26.8245 42.1284 26.8365C41.994 26.1691 41.8092 25.5168 41.5767 24.8857C41.6359 24.851 41.6951 24.8151 41.7527 24.7746C42.8551 24.0018 43.208 22.4759 42.54 21.3671C41.872 20.2582 40.4369 19.9856 39.3345 20.7589C39.278 20.7984 39.225 20.8415 39.1726 20.8846C38.7371 20.4026 38.2596 19.9565 37.7427 19.5488C37.779 19.4891 37.8143 19.4288 37.8465 19.3654C38.4672 18.1413 39.279 16.8045 38.1408 16.2487C35.5073 14.9623 34.3773 16.0633 33.7561 17.2875C33.7239 17.3508 33.6964 17.4152 33.6694 17.4796C33.0357 17.3025 32.3936 17.18 31.748 17.1124C31.7521 17.0444 31.7552 16.9764 31.7537 16.9073C31.7267 15.5606 32.1258 14.8314 30.8324 14.8065C28.0115 14.7514 27.0596 15.9766 27.0866 17.3238C27.0882 17.3945 27.0939 17.463 27.1006 17.5316C26.4539 17.716 25.8192 17.9517 25.2015 18.2369C25.1719 18.1766 25.1418 18.1169 25.1065 18.0592C24.4386 16.9504 23.0035 16.6777 21.9011 17.4511C20.7986 18.2239 20.4457 19.7498 21.1137 20.8586C21.148 20.9152 21.1853 20.9687 21.2232 21.0212C20.7348 21.5099 20.2775 22.0402 19.8551 22.6094C19.8006 22.5751 19.745 22.5413 19.6864 22.5117C18.557 21.9378 17.1375 22.465 16.5167 23.6886C15.896 24.9128 16.3081 26.3701 17.4375 26.944C17.4961 26.9736 17.5558 26.9985 17.6155 27.0224C17.4058 27.6997 17.2475 28.3821 17.1411 29.0651C17.0762 29.0651 17.0113 29.0661 16.9454 29.0724C15.6567 29.1871 14.6337 30.3723 14.6607 31.7195C14.6877 33.0662 15.7543 34.065 17.043 33.9502C17.1105 33.944 17.1764 33.9336 17.2423 33.9216C17.3767 34.589 17.5615 35.2413 17.794 35.8724C17.7349 35.9072 17.6757 35.943 17.6181 35.9835C16.5157 36.7563 16.1627 38.2822 16.8307 39.391C17.4987 40.4999 19.7092 41.0151 20.8116 40.2423C20.8682 40.2028 20.1457 39.9172 20.1981 39.8735C20.6336 40.3555 21.1111 40.8017 21.628 41.2094C21.5917 41.2691 21.5559 41.3293 21.5237 41.3927C20.903 42.6168 21.3151 44.0742 22.4445 44.6481C23.5739 45.2219 24.9934 44.6948 25.6141 43.4712C25.6463 43.4078 25.6738 43.3434 25.7008 43.279C26.3346 43.4561 26.9766 43.5787 27.6223 43.6462C27.6181 43.7142 27.615 43.7823 27.6165 43.8514C27.6435 45.1981 28.7101 46.1968 29.9989 46.082C31.2876 45.9672 32.3106 44.782 32.2836 43.4353C32.282 43.3647 32.2763 43.2961 32.2696 43.2276C32.9163 43.0432 33.5511 42.8074 34.1687 42.5223C34.1983 42.5825 34.2284 42.6423 34.2637 42.6999C34.9317 43.8087 36.3668 44.0814 37.4692 43.3081C38.5716 42.5353 38.9245 41.0094 38.2565 39.9005C38.2223 39.8439 38.1849 39.7904 38.147 39.7385C38.6354 39.2498 39.0927 38.7195 39.5152 38.1503C39.5697 38.1846 39.6252 38.2183 39.6838 38.2479L39.6844 38.2459ZM25.6032 38.4245C21.5019 36.3408 20.0051 31.0496 22.2597 26.6059C24.5143 22.1622 29.6667 20.2489 33.768 22.3326C37.8693 24.4163 39.3662 29.7075 37.1116 34.1512C34.8569 38.5949 29.7046 40.5082 25.6032 38.4245V38.4245Z" fill="url(#paint25_linear_301_3880)"/>
<path d="M42.424 31.6852C43.7128 31.5704 44.7357 30.3852 44.7088 29.0385C44.6818 27.6917 43.6152 26.693 42.3264 26.8078C42.259 26.814 42.1931 26.8244 42.1271 26.8364C41.9927 26.169 41.8079 25.5167 41.5754 24.8856C41.6346 24.8508 41.6938 24.815 41.7514 24.7745C42.8538 24.0017 44.2178 22.134 43.4403 21.0995C41.9636 19.1358 40.4362 19.986 39.3332 20.7588C39.2767 20.7982 39.2237 20.8413 39.1713 20.8845C38.7358 20.4025 38.2583 19.9564 37.7414 19.5487C37.7777 19.4889 37.813 19.4287 37.8452 19.3653C38.1831 18.699 38.2132 17.9646 37.99 17.3403C36.925 19.2158 35.8745 21.0995 34.8426 22.9931C38.1146 25.392 39.1562 30.1203 37.1108 34.1506C35.3778 37.5664 31.9325 39.4839 28.5692 39.2439C28.4192 39.6335 28.2718 40.0251 28.1109 40.4105C27.6749 41.457 27.1798 42.4822 26.6836 43.5058C26.9955 43.5645 27.309 43.6108 27.623 43.644C27.6189 43.712 27.6158 43.7801 27.6173 43.8492C27.6443 45.1959 28.4618 46.3405 30.7974 46.2164C32.0892 46.1478 32.3114 44.7798 32.2844 43.4331C32.2828 43.363 32.2771 43.2939 32.2704 43.2254C32.9171 43.041 33.5518 42.8052 34.1695 42.5201C34.1991 42.5803 34.2292 42.6401 34.2644 42.6977C34.9324 43.8066 37.2488 44.2781 38.3512 43.5048C39.4536 42.732 38.9248 41.0072 38.2573 39.8983C38.223 39.8417 38.1857 39.7882 38.1478 39.7358C38.6362 39.2471 39.0934 38.7168 39.5159 38.1476C39.5704 38.1819 39.626 38.2156 39.6846 38.2452C40.814 38.8191 42.2335 38.292 42.8543 37.0684C43.475 35.8447 43.0629 34.3869 41.9335 33.813C41.8749 33.7834 41.8152 33.7585 41.7555 33.7346C41.9652 33.0573 42.1235 32.3749 42.2299 31.6919C42.2948 31.6919 42.3597 31.6903 42.4256 31.6846L42.424 31.6852Z" fill="url(#paint26_linear_301_3880)"/>
<path d="M40.9001 38.3839C42.0295 38.9578 43.449 38.4306 44.0698 37.207C44.6905 35.9829 44.2784 34.5255 43.149 33.9517C43.0904 33.922 43.0307 33.8971 42.971 33.8732C43.1807 33.196 43.339 32.5135 43.4454 31.8306C43.5103 31.8306 43.5752 31.8295 43.6411 31.8233C44.9298 31.7085 45.9528 30.5233 45.9258 29.1766C45.8988 27.8299 44.8322 26.8312 43.5435 26.946C43.476 26.9522 43.4101 26.9626 43.3442 26.9745C43.2098 26.3072 43.025 25.6548 42.7925 25.0238C42.8516 24.989 42.9108 24.9532 42.9684 24.9127C44.0708 24.1398 44.4238 22.614 43.7558 21.5051C43.0878 20.3963 41.6527 20.1236 40.5503 20.8969C40.4937 20.9364 40.4408 20.9795 40.3884 21.0226C39.9529 20.5407 39.4754 20.0945 38.9584 19.6868C38.9948 19.6271 39.0306 19.5669 39.0628 19.5035C39.6835 18.2794 39.2714 16.822 38.142 16.2481C37.0126 15.6742 35.5931 16.2014 34.9723 17.425C34.9402 17.4884 34.9127 17.5528 34.8857 17.6172C34.2519 17.4401 33.6099 17.3175 32.9642 17.25C32.9684 17.1819 32.9715 17.1139 32.97 17.0448C32.943 15.6981 31.8764 14.6994 30.5876 14.8142C29.2989 14.9289 28.2759 16.1141 28.3029 17.4608C28.3045 17.5315 28.3102 17.6 28.3169 17.6686C27.6702 17.8529 27.0354 18.0887 26.4178 18.3739C26.3882 18.3136 26.3581 18.2539 26.3233 18.1963C25.6554 17.0874 24.2203 16.8148 23.1179 17.5881C22.0154 18.3609 21.6625 19.8868 22.3305 20.9956C22.3647 21.0522 22.4021 21.1057 22.44 21.1582C21.9516 21.6469 21.4943 22.1772 21.0719 22.7464C21.0174 22.7121 20.9618 22.6784 20.9032 22.6488C19.7738 22.0749 18.3543 22.602 17.7335 23.8256C17.1122 25.0498 17.5249 26.5071 18.6543 27.081C18.7129 27.1106 18.7726 27.1355 18.8323 27.1594C18.6226 27.8367 18.4643 28.5191 18.3579 29.2021C18.293 29.2021 18.2281 29.2031 18.1622 29.2093C16.8735 29.3241 15.8505 30.5093 15.8775 31.8565C15.9045 33.2033 16.9711 34.202 18.2598 34.0872C18.3273 34.081 18.3932 34.0706 18.4591 34.0586C18.5935 34.726 18.7783 35.3783 19.0108 36.0094C18.9517 36.0442 18.8925 36.08 18.8349 36.1205C17.7325 36.8933 17.3795 38.4192 18.0475 39.5281C18.7155 40.6369 20.1506 40.9096 21.253 40.1362C21.3096 40.0968 21.3625 40.0537 21.4149 40.0106C21.8504 40.4925 22.3279 40.9387 22.8448 41.3464C22.8085 41.4061 22.7727 41.4663 22.7405 41.5297C22.1198 42.7538 22.5319 44.2112 23.6613 44.7851C24.7907 45.359 26.2102 44.8318 26.8309 43.6082C26.8631 43.5448 26.8906 43.4804 26.9176 43.416C27.5514 43.5931 28.1934 43.7157 28.839 43.7832C28.8349 43.8513 28.8318 43.9193 28.8333 43.9883C28.8603 45.3351 29.9269 46.3338 31.2157 46.219C32.5044 46.1042 33.5274 44.9191 33.5004 43.5723C33.4988 43.5017 33.4931 43.4332 33.4864 43.3646C34.1331 43.1802 34.7679 42.9444 35.3855 42.6593C35.4151 42.7196 35.4452 42.7793 35.4805 42.8369C36.1485 43.9458 37.5836 44.2184 38.686 43.4451C39.7884 42.6723 40.1413 41.1464 39.4733 40.0376C39.4391 39.9809 39.4017 39.9275 39.3638 39.875C39.8522 39.3863 40.3095 38.856 40.732 38.2868C40.7864 38.3211 40.842 38.3548 40.9006 38.3844L40.9001 38.3839ZM26.819 38.5626C22.7177 36.4789 21.2208 31.1876 23.4755 26.7439C25.7301 22.3003 30.8824 20.3869 34.9838 22.4706C39.0851 24.5543 40.582 29.8456 38.3273 34.2892C36.0727 38.7329 30.9203 40.6463 26.819 38.5626V38.5626Z" fill="url(#paint27_linear_301_3880)"/>
<defs>
<linearGradient id="paint0_linear_301_3880" x1="136.004" y1="51.9823" x2="92.9039" y2="114.142" gradientUnits="userSpaceOnUse">
<stop stop-color="#8195C2"/>
<stop offset="1" stop-color="#56729A"/>
</linearGradient>
<linearGradient id="paint1_linear_301_3880" x1="153.331" y1="77.3295" x2="78.406" y2="77.3295" gradientUnits="userSpaceOnUse">
<stop stop-color="#ACAFB4"/>
<stop offset="1" stop-color="#AAADB2"/>
</linearGradient>
<linearGradient id="paint2_linear_301_3880" x1="153.303" y1="83.9177" x2="69.6023" y2="114.413" gradientUnits="userSpaceOnUse">
<stop stop-color="#90ACD7"/>
<stop offset="1" stop-color="#6B86B7"/>
</linearGradient>
<linearGradient id="paint3_linear_301_3880" x1="52.715" y1="82.8637" x2="-6.78327" y2="154.734" gradientUnits="userSpaceOnUse">
<stop stop-color="#96999D"/>
<stop offset="1" stop-color="#CACDD2"/>
</linearGradient>
<linearGradient id="paint4_linear_301_3880" x1="70.935" y1="97.9469" x2="11.4367" y2="169.818" gradientUnits="userSpaceOnUse">
<stop stop-color="#96999D"/>
<stop offset="1" stop-color="#CACDD2"/>
</linearGradient>
<linearGradient id="paint5_linear_301_3880" x1="34.0391" y1="99.8458" x2="140.32" y2="-6.36505" gradientUnits="userSpaceOnUse">
<stop stop-color="#CACDD2"/>
<stop offset="1" stop-color="#96999D"/>
</linearGradient>
<linearGradient id="paint6_linear_301_3880" x1="46.269" y1="112.083" x2="152.549" y2="5.8726" gradientUnits="userSpaceOnUse">
<stop stop-color="#CACDD2"/>
<stop offset="1" stop-color="#96999D"/>
</linearGradient>
<linearGradient id="paint7_linear_301_3880" x1="2.52383" y1="128.271" x2="22.8029" y2="117.902" gradientUnits="userSpaceOnUse">
<stop stop-color="#8195C2"/>
<stop offset="1" stop-color="#56729A"/>
</linearGradient>
<linearGradient id="paint8_linear_301_3880" x1="13.2793" y1="53.9794" x2="35.6925" y2="125.246" gradientUnits="userSpaceOnUse">
<stop stop-color="#ACAFB4"/>
<stop offset="1" stop-color="#AAADB2"/>
</linearGradient>
<linearGradient id="paint9_linear_301_3880" x1="-7.0555" y1="66.4845" x2="81.5238" y2="176.174" gradientUnits="userSpaceOnUse">
<stop stop-color="#90ACD7"/>
<stop offset="1" stop-color="#6B86B7"/>
</linearGradient>
<linearGradient id="paint10_linear_301_3880" x1="30.1366" y1="108.112" x2="146.575" y2="108.112" gradientUnits="userSpaceOnUse">
<stop stop-color="#EBEEEE"/>
<stop offset="1" stop-color="white"/>
</linearGradient>
<linearGradient id="paint11_linear_301_3880" x1="3.25935" y1="77.1677" x2="70.5268" y2="201.024" gradientUnits="userSpaceOnUse">
<stop stop-color="#8195C2"/>
<stop offset="1" stop-color="#56729A"/>
</linearGradient>
<linearGradient id="paint12_linear_301_3880" x1="-17.199" y1="88.7028" x2="51.0909" y2="214.443" gradientUnits="userSpaceOnUse">
<stop stop-color="#ACAFB4"/>
<stop offset="1" stop-color="#AAADB2"/>
</linearGradient>
<linearGradient id="paint13_linear_301_3880" x1="14.4847" y1="154.474" x2="28.1136" y2="56.4138" gradientUnits="userSpaceOnUse">
<stop stop-color="#EBEEEE"/>
<stop offset="1" stop-color="white"/>
</linearGradient>
<linearGradient id="paint14_linear_301_3880" x1="-15.7891" y1="75.6089" x2="-12.069" y2="127.243" gradientUnits="userSpaceOnUse">
<stop stop-color="#90ACD7"/>
<stop offset="1" stop-color="#6B86B7"/>
</linearGradient>
<linearGradient id="paint15_linear_301_3880" x1="-2.11102" y1="74.9341" x2="1.52893" y2="125.461" gradientUnits="userSpaceOnUse">
<stop stop-color="#90ACD7"/>
<stop offset="1" stop-color="#6B86B7"/>
</linearGradient>
<linearGradient id="paint16_linear_301_3880" x1="11.1121" y1="74.2882" x2="14.6757" y2="123.753" gradientUnits="userSpaceOnUse">
<stop stop-color="#90ACD7"/>
<stop offset="1" stop-color="#6B86B7"/>
</linearGradient>
<linearGradient id="paint17_linear_301_3880" x1="23.9053" y1="73.6711" x2="27.3956" y2="122.115" gradientUnits="userSpaceOnUse">
<stop stop-color="#90ACD7"/>
<stop offset="1" stop-color="#6B86B7"/>
</linearGradient>
<linearGradient id="paint18_linear_301_3880" x1="36.2875" y1="73.0798" x2="39.7071" y2="120.542" gradientUnits="userSpaceOnUse">
<stop stop-color="#90ACD7"/>
<stop offset="1" stop-color="#6B86B7"/>
</linearGradient>
<linearGradient id="paint19_linear_301_3880" x1="48.2797" y1="72.5136" x2="51.6312" y2="119.033" gradientUnits="userSpaceOnUse">
<stop stop-color="#90ACD7"/>
<stop offset="1" stop-color="#6B86B7"/>
</linearGradient>
<linearGradient id="paint20_linear_301_3880" x1="59.8969" y1="71.9706" x2="63.1829" y2="117.581" gradientUnits="userSpaceOnUse">
<stop stop-color="#90ACD7"/>
<stop offset="1" stop-color="#6B86B7"/>
</linearGradient>
<linearGradient id="paint21_linear_301_3880" x1="85.0163" y1="86.6444" x2="94.9111" y2="88.0887" gradientUnits="userSpaceOnUse">
<stop stop-color="#51637F"/>
<stop offset="1" stop-color="#464848"/>
</linearGradient>
<linearGradient id="paint22_linear_301_3880" x1="72.7658" y1="22.2928" x2="54.7581" y2="17.2004" gradientUnits="userSpaceOnUse">
<stop stop-color="#142344"/>
<stop offset="1" stop-color="#515F85"/>
</linearGradient>
<linearGradient id="paint23_linear_301_3880" x1="72.7181" y1="22.4597" x2="54.7104" y2="17.3673" gradientUnits="userSpaceOnUse">
<stop stop-color="#142344"/>
<stop offset="1" stop-color="#515F85"/>
</linearGradient>
<linearGradient id="paint24_linear_301_3880" x1="54.288" y1="10.9063" x2="54.5697" y2="33.659" gradientUnits="userSpaceOnUse">
<stop stop-color="#ACAFB4"/>
<stop offset="1" stop-color="#AAADB2"/>
</linearGradient>
<linearGradient id="paint25_linear_301_3880" x1="66.9476" y1="40.7887" x2="31.6729" y2="30.8134" gradientUnits="userSpaceOnUse">
<stop stop-color="#142344"/>
<stop offset="1" stop-color="#515F85"/>
</linearGradient>
<linearGradient id="paint26_linear_301_3880" x1="66.8539" y1="41.1157" x2="31.5787" y2="31.14" gradientUnits="userSpaceOnUse">
<stop stop-color="#142344"/>
<stop offset="1" stop-color="#515F85"/>
</linearGradient>
<linearGradient id="paint27_linear_301_3880" x1="30.7527" y1="18.4845" x2="31.3046" y2="63.0537" gradientUnits="userSpaceOnUse">
<stop stop-color="#ACAFB4"/>
<stop offset="1" stop-color="#AAADB2"/>
</linearGradient>
</defs>
</svg>
