<svg width="156" height="156" viewBox="0 0 156 156" fill="none" xmlns="http://www.w3.org/2000/svg">
<path d="M37.2878 9.32455C32.0783 16.8148 38.1863 28.9579 30.4565 34.5908C22.9317 40.0744 13.6881 31.086 6.59638 35.8064C-3.9233 42.8085 -2.00217 74.8482 13.3782 94.7555C18.0034 100.742 21.8686 103.071 23.5799 109.842C27.2554 124.38 14.3379 133.029 16.796 140.219C22.3309 156.41 107.456 169.995 141.612 121.338C157.564 98.613 159.951 65.7979 145.698 40.875C119.943 -4.161 48.9766 -7.48192 37.2873 9.32455H37.2878Z" fill="#F4F6F8"/>
<path d="M82.0165 130.542L49.7773 131.461V129.884L81.2719 129.011V116.419L82.7606 116.387V129.746C82.7606 130.174 82.4277 130.531 82.0165 130.542V130.542Z" fill="url(#paint0_linear_301_4268)"/>
<path d="M79.2667 60.0169L77.7727 60.0057V52.1839L64.6134 52.032C64.1947 52.0272 63.8555 51.6728 63.8555 51.2406V36.0037L65.3708 36.0335V50.4769L78.52 50.6389C78.9322 50.6442 79.2667 50.996 79.2667 51.425V60.0179V60.0169Z" fill="url(#paint1_linear_301_4268)"/>
<path d="M97.4608 24.0881L87.9062 23.8387V22.292L97.4608 22.5489V24.0881Z" fill="url(#paint2_linear_301_4268)"/>
<path d="M93.4311 59.8708L91.959 59.8596V51.5757C91.959 51.1493 92.2887 50.8082 92.6956 50.813L107.848 50.9996V52.5302L93.4317 52.3639V59.8702L93.4311 59.8708Z" fill="url(#paint3_linear_301_4268)"/>
<path d="M113.078 87.1249L98.6104 60.6702C98.3537 60.2006 97.8791 59.9091 97.3651 59.9048L67.7299 59.6778C67.1999 59.6735 66.7099 59.9629 66.4442 60.4362L51.2646 87.5214C50.9951 88.0021 50.9951 88.5926 51.2646 89.0696L66.4442 115.949C66.7094 116.418 67.1994 116.701 67.7299 116.689L97.3651 116.059C97.8791 116.048 98.3537 115.75 98.6104 115.277L113.078 88.6252C113.331 88.1593 113.331 87.5875 113.078 87.1249V87.1249Z" fill="url(#paint4_linear_301_4268)"/>
<path d="M148.834 12.1727L98.1501 10.4827C97.3554 10.4561 96.7109 11.1121 96.7109 11.9473V35.4377C96.7109 36.2733 97.3554 36.963 98.1501 36.979L148.834 37.9767C149.587 37.9916 150.197 37.3451 150.197 36.5324V13.6896C150.197 12.8773 149.587 12.1983 148.834 12.1727V12.1727Z" fill="url(#paint5_linear_301_4268)"/>
<path d="M85.7021 10.0682L41.5361 8.59558C40.6945 8.56734 40.0117 9.24205 40.0117 10.1017V34.278C40.0117 35.1377 40.6945 35.8487 41.5361 35.8652L85.7021 36.7345C86.5063 36.7504 87.1577 36.0826 87.1577 35.2427V11.6372C87.1577 10.7978 86.5063 10.0953 85.7021 10.0682V10.0682Z" fill="url(#paint6_linear_301_4268)"/>
<path d="M47.5172 116.387L1.58613 117.364C0.71051 117.383 0 118.109 0 118.986V143.646C0 144.524 0.71051 145.209 1.58613 145.179L47.5172 143.575C48.3529 143.546 49.0299 142.828 49.0299 141.972V117.905C49.0299 117.049 48.3529 116.37 47.5172 116.387V116.387Z" fill="url(#paint7_linear_301_4268)"/>
<path d="M113.824 87.1265L99.3565 60.6719C99.0998 60.2023 98.6252 59.9108 98.1112 59.9065L68.476 59.6795C67.946 59.6752 67.456 59.9646 67.1902 60.4379L52.0107 87.5231C51.7412 88.0038 51.7412 88.5943 52.0107 89.0713L67.1902 115.95C67.4555 116.42 67.9455 116.702 68.476 116.691L98.1112 116.061C98.6252 116.049 99.0998 115.751 99.3565 115.278L113.824 88.6269C114.077 88.161 114.077 87.5892 113.824 87.1265V87.1265Z" fill="url(#paint8_linear_301_4268)"/>
<g style="mix-blend-mode:soft-light" opacity="0.31">
<path d="M68.7087 114.733L53.7891 88.2847L68.7087 61.6333L97.8859 61.8283L112.152 87.8881L97.8859 114.142L68.7087 114.733Z" fill="white"/>
</g>
<path d="M149.584 11.7987L98.9001 10.1087C98.1054 10.082 97.4609 10.7381 97.4609 11.5733V35.0637C97.4609 35.8993 98.1054 36.589 98.9001 36.605L149.584 37.6027C150.337 37.6176 150.947 36.9711 150.947 36.1584V13.3155C150.947 12.5033 150.337 11.8243 149.584 11.7987V11.7987Z" fill="url(#paint9_linear_301_4268)"/>
<g style="mix-blend-mode:soft-light" opacity="0.3">
<path d="M99.2891 34.6904V12.0437L149.212 13.6586V35.7228L99.2891 34.6904Z" fill="white"/>
</g>
<path d="M86.4501 9.69389L42.2841 8.22131C41.4426 8.19307 40.7598 8.86779 40.7598 9.72746V33.9038C40.7598 34.7634 41.4426 35.4744 42.2841 35.4909L86.4501 36.3602C87.2544 36.3762 87.9058 35.7084 87.9058 34.8684V11.2629C87.9058 10.4235 87.2544 9.72107 86.4501 9.69389Z" fill="url(#paint10_linear_301_4268)"/>
<g style="mix-blend-mode:soft-light" opacity="0.3">
<path d="M42.6973 33.5205V10.2129L86.0537 11.6156V34.4169L42.6973 33.5205Z" fill="white"/>
</g>
<path d="M48.2653 117.121L2.33418 118.098C1.45856 118.116 0.748047 118.842 0.748047 119.719V144.38C0.748047 145.257 1.45856 145.943 2.33418 145.912L48.2653 144.308C49.101 144.279 49.7779 143.562 49.7779 142.706V118.639C49.7779 117.783 49.101 117.103 48.2653 117.121V117.121Z" fill="url(#paint11_linear_301_4268)"/>
<g style="mix-blend-mode:soft-light" opacity="0.3">
<path d="M2.76562 143.88V120.106L47.8547 119.102V142.35L2.76562 143.88Z" fill="white"/>
</g>
<path d="M37.7789 104.062L37.5898 107.092C37.5898 107.092 38.0196 107.547 38.8468 107.23L39.7501 104.256L37.7795 104.063L37.7789 104.062Z" fill="url(#paint12_linear_301_4268)"/>
<path d="M38.1576 106.29C38.1576 106.29 36.6748 106.894 36.9629 107.551C37.1174 107.903 37.6521 108.699 38.1144 109.361C38.5421 109.973 39.315 110.244 40.0297 110.03C40.2699 109.958 40.5149 109.888 40.7322 109.832C41.1818 109.715 41.2079 109.087 40.7701 108.933C40.5575 108.858 40.3477 108.797 40.1645 108.769C39.6217 108.685 38.875 107.402 38.7871 106.888C38.6998 106.374 38.157 106.29 38.157 106.29L38.1576 106.29Z" fill="url(#paint13_linear_301_4268)"/>
<path d="M34.5955 74.9863C36.7792 75.7405 44.8552 78.7955 46.6544 85.8018C46.7503 86.1759 46.9969 87.2158 47.0081 88.9148C47.0544 95.9873 42.9447 101.972 39.9557 105.454C39.0135 105.439 38.0708 105.423 37.1286 105.407C36.6583 103.602 36.2263 100.902 36.9022 97.8644C37.936 93.2217 40.6177 92.0172 40.1006 89.7388C39.1616 85.6009 29.5591 86.2266 28.6541 82.5214C28.3271 81.1831 29.0456 78.9116 34.5955 74.9863V74.9863Z" fill="url(#paint14_linear_301_4268)"/>
<path d="M7.58252 117.327L11.6831 117.231C11.9356 117.225 12.0442 116.91 11.8509 116.747C11.6602 116.587 11.3966 116.456 11.0594 116.491C10.2797 116.572 8.53003 115.48 7.73644 115.714C7.47705 115.791 7.26614 116.401 7.15856 116.57C6.94658 116.902 7.18945 117.336 7.58305 117.327H7.58252Z" fill="url(#paint15_linear_301_4268)"/>
<path d="M9.42473 114.174L7.73633 115.714C7.73633 115.714 8.32594 116.155 9.18612 115.966L10.9123 114.778L9.42526 114.175L9.42473 114.174Z" fill="url(#paint16_linear_301_4268)"/>
<g style="mix-blend-mode:color-burn" opacity="0.3">
<path style="mix-blend-mode:color-burn" d="M41.84 93.233C42.9729 90.1732 44.331 86.3999 42.7795 84.2579C41.2099 82.0898 37.7703 83.92 34.3206 82.1729C33.0407 81.5249 31.7257 80.3657 30.6317 78.2668C28.6946 80.2676 28.4314 81.6107 28.6541 82.5215C29.559 86.2272 39.1615 85.601 40.1005 89.7389C40.6177 92.0178 37.936 93.2218 36.9022 97.8645C36.3205 100.476 36.5591 102.836 36.9357 104.594C37.2718 102.962 37.7937 101.247 38.5921 99.5161C39.8299 96.8331 40.6464 96.4563 41.8395 93.233H41.84Z" fill="url(#paint17_linear_301_4268)"/>
</g>
<path d="M35.8462 74.1029C34.5168 80.2096 31.6844 89.5343 25.195 99.2678C20.3908 106.474 15.1131 111.608 10.9736 115.038C10.6791 115.126 10.1774 115.234 9.56168 115.158C9.10416 115.102 8.74145 114.964 8.49805 114.847C8.783 113.126 9.38486 110.583 10.8107 107.836C13.4205 102.809 15.7443 102.971 18.3658 98.5344C20.2854 95.286 20.9091 91.8356 22.1575 84.9343C23.1215 79.6052 23.1221 78.3314 24.4413 76.8034C27.1097 73.7138 32.1195 73.6792 35.8462 74.1034V74.1029Z" fill="url(#paint18_linear_301_4268)"/>
<g style="mix-blend-mode:multiply" opacity="0.3">
<path style="mix-blend-mode:multiply" d="M11.8109 108.972C12.7425 107.501 14.3946 105.969 17.6548 102.948C21.0236 99.8252 20.8941 100.39 21.5572 99.467C24.526 95.3355 22.9186 90.921 23.6525 85.593C24.0621 82.6206 25.3734 78.7364 29.1923 74.3853C27.4027 74.7157 25.6893 75.4256 24.4413 76.8027C22.9095 78.4938 23.0225 80.1498 22.1575 84.9337C20.9096 91.835 20.2854 95.2859 18.3658 98.5338C15.7448 102.97 13.4205 102.809 10.8107 107.835C9.38433 110.582 8.783 113.125 8.49805 114.847C8.74198 114.963 9.10469 115.102 9.56168 115.157C9.92439 115.202 10.2461 115.182 10.5108 115.141C10.2956 111.648 11.3385 109.718 11.8114 108.972H11.8109Z" fill="url(#paint19_linear_301_4268)"/>
</g>
<path d="M39.4342 34.4194C39.4342 34.4194 40.5261 42.5557 31.959 48.292L41.0758 50.4681C41.0758 50.4681 43.9934 45.0084 41.8811 35.9651L39.4348 34.4194H39.4342Z" fill="url(#paint20_linear_301_4268)"/>
<path d="M41.0396 35.9649C41.0396 35.9649 41.5306 34.7513 41.4518 34.205C41.3725 33.6587 40.0729 32.9296 39.1871 32.1765C38.3014 31.4235 39.2202 32.9339 39.4263 33.2771C39.6324 33.6209 40.3552 34.1357 40.2513 35.304L41.0401 35.9643L41.0396 35.9649Z" fill="url(#paint21_linear_301_4268)"/>
<path d="M30.8383 42.1589C31.2863 41.2763 31.4705 41.2816 31.5808 40.8158C31.8317 39.7547 31.1845 38.4063 30.636 38.3877C30.2823 38.3754 30.253 38.9259 29.5041 39.7835C28.587 40.8339 28.0304 40.6959 27.4903 41.6078C27.3641 41.821 26.7958 42.7814 27.1452 43.4977C27.591 44.4123 29.3497 44.5572 30.0847 43.8516C30.4336 43.5169 30.2871 43.2456 30.8383 42.1584V42.1589Z" fill="url(#paint22_linear_301_4268)"/>
<path d="M29.521 43.1114C29.521 43.1114 29.8352 44.7886 29.6115 46.1519C29.4096 47.3841 27.1279 48.6643 26.6906 49.0315C26.2534 49.3987 27.8501 49.7969 29.3154 49.605C30.78 49.4131 34.7917 48.1287 35.401 47.4129C36.0109 46.6971 34.691 47.0499 33.5816 46.914C32.4722 46.7787 31.4128 44.9176 31.3803 43.9684C31.3478 43.0186 29.5204 43.1114 29.5204 43.1114H29.521Z" fill="url(#paint23_linear_301_4268)"/>
<path d="M29.9989 44.3629C29.9989 44.3629 31.1206 44.8559 32.1139 44.0607C33.0034 43.3492 31.6809 41.163 30.776 41.1348C30.474 41.1257 30.0335 41.3421 29.7736 41.6587C29.6202 41.8458 29.6106 41.9704 29.3539 42.271C29.1169 42.5482 29.0125 42.5732 28.9768 42.7081C28.9315 42.8765 29.0093 43.1579 29.6181 43.6419C29.3145 43.5859 29.053 43.6658 28.9518 43.8428C28.9358 43.871 28.9023 43.9595 28.9118 44.0506C28.9481 44.3805 29.3789 44.5335 29.9989 44.3635V44.3629Z" fill="url(#paint24_linear_301_4268)"/>
<path d="M54.6445 38.5295C54.6445 38.5295 55.3236 38.4346 55.1122 37.1368C54.946 36.1194 55.0717 35.7773 55.3119 35.9574C55.5521 36.1375 55.5857 36.7259 55.5857 36.7259C55.5857 36.7259 56.4613 35.9787 56.8219 34.9997C57.1825 34.0206 57.4141 34.8451 57.4914 35.3349C57.5686 35.8247 56.9763 37.3447 56.6418 37.6283C56.3074 37.9118 55.8179 39.1611 55.8179 39.1611L54.6451 38.5306L54.6445 38.5295Z" fill="url(#paint25_linear_301_4268)"/>
<path d="M56.4541 38.8776C55.6813 38.3361 54.909 37.7947 54.1361 37.2532C53.1961 43.0358 51.0593 45.3052 49.2441 46.2981C44.8655 48.6932 40.9577 44.4253 32.577 46.167C30.2676 46.6467 26.242 47.541 24.0099 50.8331C23.4229 51.6986 23.2141 52.3536 22.24 58.5616C20.9947 66.4974 20.9505 67.8821 21.1258 69.5907C21.4469 72.7176 21.6418 74.6129 23.0826 76.2901C26.9089 80.7441 35.0408 78.4475 36.0603 78.1453C37.9436 77.5873 40.8714 76.7191 42.0341 74.2286C42.5816 73.0566 42.523 71.9853 41.682 67.7003C40.016 59.2112 39.803 58.6623 40.2679 57.7323C41.8375 54.5953 46.81 56.3903 51.0108 53.4729C53.4672 51.7674 56.2357 48.05 56.4536 38.8766L56.4541 38.8776Z" fill="url(#paint26_linear_301_4268)"/>
<path style="mix-blend-mode:multiply" opacity="0.3" d="M32.2506 77.0121C33.0709 75.329 31.9689 73.7786 33.1774 71.756C34.7182 69.1781 37.4905 70.0532 38.5334 68.1489C40.3171 64.8914 33.2956 60.3485 34.7225 55.1627C35.4037 52.6866 37.7824 50.8947 39.7696 50.2157C44.1812 48.7085 47.0664 52.5506 51.2027 51.3493C52.1827 51.0647 53.3081 50.4748 54.4458 49.25C53.4402 51.3733 52.1907 52.6562 51.0131 53.4743C46.8123 56.3917 41.8393 54.5967 40.2702 57.7337C39.8052 58.6632 40.0183 59.2127 41.6843 67.7017C42.5253 71.9873 42.5834 73.0586 42.0364 74.23C40.8731 76.7206 37.9459 77.5882 36.0626 78.1468C35.5044 78.3125 32.8147 79.073 29.8672 78.999C31.1822 78.4644 31.8901 77.755 32.2517 77.0126L32.2506 77.0121Z" fill="url(#paint27_linear_301_4268)"/>
<path d="M148.583 46.1529L104.618 45.4755C103.764 45.4622 103.07 46.1838 103.07 47.0872V72.4846C103.07 73.3879 103.763 74.1213 104.618 74.1229L148.583 74.1996C149.401 74.2012 150.065 73.4865 150.065 72.6034V47.7748C150.065 46.8916 149.402 46.1657 148.583 46.1529Z" fill="url(#paint28_linear_301_4268)"/>
<path d="M149.396 45.7462L105.431 45.0688C104.576 45.0555 103.883 45.7771 103.883 46.6805V72.0778C103.883 72.9812 104.576 73.7146 105.431 73.7162L149.396 73.7929C150.214 73.7945 150.877 73.0798 150.877 72.1966V47.368C150.877 46.4849 150.214 45.759 149.396 45.7462Z" fill="url(#paint29_linear_301_4268)"/>
<g style="mix-blend-mode:soft-light" opacity="0.3">
<path d="M105.852 71.6385V47.1531L148.994 47.775V71.7568L105.852 71.6385Z" fill="white"/>
</g>
<path d="M149.288 77.0428L149.463 74.4638C149.463 74.4638 149.13 73.8882 149.028 72.5116C148.926 71.1354 149.242 71.6999 149.378 72.2786C149.416 72.4401 149.507 72.5808 149.618 72.7002C149.9 73.0003 150.405 72.8511 150.491 72.4487L150.85 70.7576C150.85 70.7576 151.771 71.8373 150.883 74.322C150.605 75.0996 150.7 77.0279 150.7 77.0279L149.288 77.0434L149.288 77.0428Z" fill="url(#paint30_linear_301_4268)"/>
<path d="M104.01 76.0297L103.531 73.4742C103.531 73.4742 104.221 72.5532 103.988 71.5491C103.755 70.545 103.911 70.9074 103.627 71.5246C103.343 72.1418 102.938 71.0369 102.632 70.0344C102.325 69.0319 102.032 70.521 102.063 71.4185C102.093 72.316 102.091 72.8485 102.579 73.5349C103.067 74.2214 102.803 76.5264 102.803 76.5264L104.011 76.0297H104.01Z" fill="url(#paint31_linear_301_4268)"/>
<path d="M136.172 147.666C136.23 147.114 137.555 147.316 138.423 147.459C139.291 147.602 139.651 147.978 139.766 148.315C139.88 148.652 139.723 149.454 138.939 149.06C138.296 148.737 136.121 148.153 136.173 147.666L136.172 147.666Z" fill="#262648"/>
<path d="M137.922 145.632L138.397 147.817C138.397 147.817 138.99 148.287 139.209 148.088L139.145 145.602L137.922 145.632Z" fill="url(#paint32_linear_301_4268)"/>
<path d="M133.619 144.065L135.615 145.102L135.199 146.12L133.176 145.445L133.619 144.065Z" fill="url(#paint33_linear_301_4268)"/>
<path d="M133.229 148.099C133.229 148.099 134.575 148.546 135.236 147.777C135.662 147.283 136.046 146.42 136.267 145.867C136.386 145.566 136.253 145.226 135.962 145.086C135.539 144.883 134.96 144.656 134.699 144.781C134.261 144.99 134.549 146.594 134.337 146.993C134.124 147.391 133.21 147.594 133.229 148.099L133.229 148.099Z" fill="#262648"/>
<path d="M132.482 111.756C132.455 116.749 132.748 122.556 133.683 128.963C134.656 135.64 136.112 141.503 137.639 146.424C137.813 146.522 138.122 146.667 138.536 146.707C139.02 146.754 139.401 146.633 139.592 146.556C140.102 144.016 140.422 141.864 140.627 140.264C141.17 136.038 141.433 133.872 141.026 131.308C140.645 128.902 140.197 129.058 139.809 126.4C139.464 124.037 139.575 122.245 139.752 119.622C139.873 117.821 140.121 115.394 140.664 112.531C137.937 112.272 135.21 112.014 132.482 111.755V111.756Z" fill="url(#paint34_linear_301_4268)"/>
<path style="mix-blend-mode:multiply" opacity="0.3" d="M138.027 144.691C137.602 142.899 138.73 142.17 138.756 139.935C138.788 137.203 137.119 137.008 136.797 133.913C136.539 131.425 137.588 131.283 137.518 128.276C137.442 125.079 136.236 124.35 136.626 122.462C136.844 121.411 137.56 120.007 139.833 118.579C139.974 116.923 140.219 114.877 140.664 112.531C137.937 112.273 135.21 112.014 132.482 111.756C132.455 116.749 132.748 122.556 133.683 128.963C134.656 135.64 136.112 141.503 137.639 146.424C137.813 146.522 138.122 146.667 138.536 146.707C138.755 146.728 138.95 146.713 139.119 146.685C138.636 146.149 138.218 145.49 138.028 144.69L138.027 144.691Z" fill="url(#paint35_linear_301_4268)"/>
<path d="M125.875 110.427C125.695 111.619 125.376 113.42 124.809 115.57C123.531 120.419 122.339 121.919 121.835 125.112C121.248 128.835 122.07 131.853 122.382 133.001C124.517 140.837 131.563 144.896 133.433 145.899C133.699 145.207 133.964 144.516 134.23 143.823C133.789 143.141 133.142 142.047 132.558 140.616C131.561 138.174 131.578 136.776 130.947 134.395C129.808 130.098 128.686 130.62 128.571 128.463C128.389 125.046 131.214 123.864 134.118 117.552C134.951 115.744 135.47 114.209 135.762 113.264C132.467 112.318 129.171 111.373 125.876 110.427L125.875 110.427Z" fill="url(#paint36_linear_301_4268)"/>
<path d="M148.912 75.9813C149.616 75.9163 150.319 75.8512 151.022 75.7862C151.813 77.0749 154.066 81.1324 153.218 86.292C153.017 87.5146 152.233 91.5635 148.563 94.578C145.935 96.7365 143.139 97.2806 141.864 97.4474C141.452 103.495 141.307 107.317 141.36 109.613C141.366 109.89 141.424 112.214 140.909 115.172C140.753 116.073 140.671 116.529 140.53 116.771C138.572 120.131 128.888 116.704 126.3 115.37C125.627 115.024 124.951 114.559 124.7 113.8C124.377 112.825 124.806 111.99 125.008 111.249C125.504 109.427 124.501 107.959 122.544 104.227C121.717 102.649 120.52 100.284 119.143 97.2247C117.281 97.634 112.913 98.2965 108.837 95.9994C102.847 92.6241 99.8704 84.2001 102.272 75.4536C102.913 75.3167 103.554 75.1797 104.194 75.0427C104.493 76.7919 105.138 79.1641 106.622 81.6131C107.523 83.099 108.273 84.336 109.668 85.0944C111.858 86.2845 113.938 85.3684 116.923 84.8423C121.626 84.0136 125.465 84.7027 130.128 85.54C135.223 86.4545 136.558 87.6052 140.359 87.1506C142.049 86.9486 144.167 86.6683 145.991 85.1243C149.578 82.0869 149.001 76.7189 148.911 75.9813H148.912Z" fill="url(#paint37_linear_301_4268)"/>
<path d="M129.276 81.4373C129.276 81.4373 128.885 82.6492 129.281 83.2312C129.677 83.8132 130.981 86.0293 131.446 86.1647C131.71 86.2419 132.376 86.3896 132.9 86.502C133.176 86.5612 133.209 86.9492 132.943 87.0435C132.402 87.2365 131.457 87.4033 129.865 87.278C127.562 87.0968 125.768 86.0933 124.991 85.5843C124.881 85.5118 124.947 85.3412 125.078 85.3604L126.109 85.5086C126.993 85.636 127.774 84.9276 127.735 84.0355L127.71 83.4546L129.276 81.4373V81.4373Z" fill="url(#paint38_linear_301_4268)"/>
<path d="M128.156 83.8541C128.019 83.7662 126.87 83.5466 126.753 82.9124C126.593 82.0517 127.423 81.0737 127.529 80.9143C127.972 80.2476 128.078 80.1607 128.271 80.0557L128.536 79.923C128.536 79.923 128.551 79.9182 128.567 79.9145C128.734 79.8713 129.287 79.9049 129.396 79.9385C129.746 80.0472 129.994 81.5352 129.7 83.5813C129.707 83.6607 129.715 83.7411 129.721 83.8221C129.738 84.0321 128.14 83.9271 128.156 83.8547L128.156 83.8541Z" fill="url(#paint39_linear_301_4268)"/>
<path d="M127.341 79.7104C127.274 79.9582 127.904 80.5039 128.174 80.7395C128.207 80.7683 128.301 80.8637 128.382 81.0124C128.394 81.0342 128.404 81.0593 128.411 81.0907C128.514 81.5048 127.834 81.919 127.941 82.1098C128.018 82.2483 128.467 82.1135 128.508 82.2303C128.547 82.3406 128.168 82.5271 128.211 82.6593C128.244 82.7589 128.474 82.6912 128.6 82.8506C128.663 82.93 128.637 82.986 128.691 83.2162C128.721 83.3463 128.767 83.4896 128.806 83.5706C128.991 83.9645 129.602 84.1574 129.736 84.0189C129.773 83.9799 129.747 83.9426 129.794 83.8057C129.794 83.8057 129.837 83.6788 129.941 83.5371C130.089 83.3345 130.414 83.2093 130.749 83.0115C131.367 82.6454 131.558 82.3027 131.616 82.1865C131.623 82.1737 131.628 82.1615 131.634 82.1503C131.644 82.1306 131.652 82.1109 131.66 82.0906C131.813 81.6909 131.343 80.9469 131.343 80.9469C130.965 80.359 130.466 79.9481 130.063 79.6811C129.306 79.478 128.679 79.4546 128.244 79.4732C127.888 79.4881 127.394 79.5132 127.341 79.7099V79.7104Z" fill="#262648"/>
<path d="M126.959 81.8108C126.959 81.8108 127.41 82.4333 128.106 81.7698L128.42 81.886C128.42 81.886 127.521 83.5547 127.354 83.5435C127.186 83.5323 126.705 83.3874 126.705 83.3874C126.527 83.2983 126.437 83.0948 126.493 82.9034C126.593 82.5549 126.829 82.0522 126.96 81.8103L126.959 81.8108Z" fill="#262648"/>
<path d="M128.248 81.9855C128.423 81.7852 128.68 82.0117 128.656 82.2893C128.633 82.567 128.338 82.8309 128.082 82.7525C127.826 82.6742 128.012 82.2552 128.248 81.9855V81.9855Z" fill="url(#paint40_linear_301_4268)"/>
<path style="mix-blend-mode:multiply" opacity="0.3" d="M137.974 115.581C134.549 116.533 130.769 114.544 129.955 112.126C129.354 110.338 131.003 108.784 130.038 106.919C129.108 105.124 127.165 105.768 125.979 103.936C124.686 101.94 126.473 100.37 125.385 97.7362C124.565 95.7547 122.411 93.8755 120.177 93.7273C117.523 93.5514 116.366 95.9289 114.119 95.2787C112.945 94.9392 113.022 94.2213 111.438 92.9305C108.688 90.6905 106.693 91.4153 104.411 89.8132C103.74 89.3426 103.004 88.6407 102.35 87.5481C103.526 91.2565 105.791 94.2816 108.838 95.9988C112.914 98.2959 117.282 97.6328 119.144 97.224C120.521 100.283 121.718 102.649 122.545 104.227C124.502 107.958 125.505 109.426 125.009 111.248C124.807 111.99 124.378 112.824 124.701 113.799C124.952 114.558 125.628 115.023 126.301 115.37C128.889 116.704 138.573 120.13 140.531 116.77C140.672 116.528 140.753 116.072 140.91 115.171C141.008 114.61 141.085 114.072 141.146 113.565C140.398 114.401 139.368 115.193 137.974 115.58L137.974 115.581Z" fill="url(#paint41_linear_301_4268)"/>
<defs>
<linearGradient id="paint0_linear_301_4268" x1="49.7779" y1="123.924" x2="82.7606" y2="123.924" gradientUnits="userSpaceOnUse">
<stop stop-color="#355178"/>
<stop offset="1" stop-color="#3F416C"/>
</linearGradient>
<linearGradient id="paint1_linear_301_4268" x1="63.8555" y1="48.0103" x2="79.2667" y2="48.0103" gradientUnits="userSpaceOnUse">
<stop stop-color="#355178"/>
<stop offset="1" stop-color="#3F416C"/>
</linearGradient>
<linearGradient id="paint2_linear_301_4268" x1="87.9062" y1="23.19" x2="97.4608" y2="23.19" gradientUnits="userSpaceOnUse">
<stop stop-color="#355178"/>
<stop offset="1" stop-color="#3F416C"/>
</linearGradient>
<linearGradient id="paint3_linear_301_4268" x1="91.959" y1="55.3416" x2="107.848" y2="55.3416" gradientUnits="userSpaceOnUse">
<stop stop-color="#355178"/>
<stop offset="1" stop-color="#3F416C"/>
</linearGradient>
<linearGradient id="paint4_linear_301_4268" x1="73.5317" y1="63.8477" x2="100.997" y2="140.853" gradientUnits="userSpaceOnUse">
<stop stop-color="#355178"/>
<stop offset="1" stop-color="#3F416C"/>
</linearGradient>
<linearGradient id="paint5_linear_301_4268" x1="84.3255" y1="-3.06522" x2="135.069" y2="32.7202" gradientUnits="userSpaceOnUse">
<stop stop-color="#355178"/>
<stop offset="1" stop-color="#3F416C"/>
</linearGradient>
<linearGradient id="paint6_linear_301_4268" x1="63.6966" y1="23.0362" x2="117.135" y2="60.7216" gradientUnits="userSpaceOnUse">
<stop stop-color="#355178"/>
<stop offset="1" stop-color="#3F416C"/>
</linearGradient>
<linearGradient id="paint7_linear_301_4268" x1="27.4238" y1="113.773" x2="16.4311" y2="176.836" gradientUnits="userSpaceOnUse">
<stop stop-color="#355178"/>
<stop offset="1" stop-color="#3F416C"/>
</linearGradient>
<linearGradient id="paint8_linear_301_4268" x1="76.3198" y1="69.9023" x2="89.4213" y2="106" gradientUnits="userSpaceOnUse">
<stop stop-color="#CACDD2"/>
<stop offset="1" stop-color="#96999D"/>
</linearGradient>
<linearGradient id="paint9_linear_301_4268" x1="85.0755" y1="-3.43923" x2="135.819" y2="32.3462" gradientUnits="userSpaceOnUse">
<stop stop-color="#ACAFB4"/>
<stop offset="1" stop-color="#AAADB2"/>
</linearGradient>
<linearGradient id="paint10_linear_301_4268" x1="64.4446" y1="22.662" x2="117.883" y2="60.3474" gradientUnits="userSpaceOnUse">
<stop stop-color="#ACAFB4"/>
<stop offset="1" stop-color="#AAADB2"/>
</linearGradient>
<linearGradient id="paint11_linear_301_4268" x1="28.1719" y1="114.506" x2="17.1791" y2="177.569" gradientUnits="userSpaceOnUse">
<stop stop-color="#90ACD7"/>
<stop offset="1" stop-color="#6B86B7"/>
</linearGradient>
<linearGradient id="paint12_linear_301_4268" x1="37.3788" y1="105.835" x2="39.947" y2="105.398" gradientUnits="userSpaceOnUse">
<stop stop-color="#96999D"/>
<stop offset="1" stop-color="#CACDD2"/>
</linearGradient>
<linearGradient id="paint13_linear_301_4268" x1="40.5409" y1="94.3997" x2="37.8249" y2="119.191" gradientUnits="userSpaceOnUse">
<stop stop-color="#355178"/>
<stop offset="1" stop-color="#262648"/>
</linearGradient>
<linearGradient id="paint14_linear_301_4268" x1="45.5822" y1="83.3235" x2="23.4793" y2="101.467" gradientUnits="userSpaceOnUse">
<stop stop-color="#51637F"/>
<stop offset="1" stop-color="#464848"/>
</linearGradient>
<linearGradient id="paint15_linear_301_4268" x1="19.3411" y1="91.5724" x2="11.3242" y2="112.133" gradientUnits="userSpaceOnUse">
<stop stop-color="#355178"/>
<stop offset="1" stop-color="#262648"/>
</linearGradient>
<linearGradient id="paint16_linear_301_4268" x1="7.77366" y1="114.988" x2="10.8339" y2="115.276" gradientUnits="userSpaceOnUse">
<stop stop-color="#96999D"/>
<stop offset="1" stop-color="#CACDD2"/>
</linearGradient>
<linearGradient id="paint17_linear_301_4268" x1="55.7292" y1="98.8535" x2="28.4335" y2="89.6436" gradientUnits="userSpaceOnUse">
<stop stop-color="#51637F"/>
<stop offset="1" stop-color="#464848"/>
</linearGradient>
<linearGradient id="paint18_linear_301_4268" x1="27.4203" y1="83.2562" x2="11.6488" y2="114.856" gradientUnits="userSpaceOnUse">
<stop stop-color="#51637F"/>
<stop offset="1" stop-color="#464848"/>
</linearGradient>
<linearGradient id="paint19_linear_301_4268" x1="25.4488" y1="83.1241" x2="10.005" y2="114.067" gradientUnits="userSpaceOnUse">
<stop stop-color="#51637F"/>
<stop offset="1" stop-color="#464848"/>
</linearGradient>
<linearGradient id="paint20_linear_301_4268" x1="37.1893" y1="50.4014" x2="37.7818" y2="24.9407" gradientUnits="userSpaceOnUse">
<stop stop-color="#96999D"/>
<stop offset="1" stop-color="#CACDD2"/>
</linearGradient>
<linearGradient id="paint21_linear_301_4268" x1="40.115" y1="33.4887" x2="39.7363" y2="38.9852" gradientUnits="userSpaceOnUse">
<stop stop-color="#96999D"/>
<stop offset="1" stop-color="#CACDD2"/>
</linearGradient>
<linearGradient id="paint22_linear_301_4268" x1="29.3097" y1="43.1196" x2="29.5008" y2="36.6304" gradientUnits="userSpaceOnUse">
<stop stop-color="#355178"/>
<stop offset="1" stop-color="#262648"/>
</linearGradient>
<linearGradient id="paint23_linear_301_4268" x1="30.3518" y1="37.1198" x2="32.1294" y2="63.7646" gradientUnits="userSpaceOnUse">
<stop stop-color="#96999D"/>
<stop offset="1" stop-color="#CACDD2"/>
</linearGradient>
<linearGradient id="paint24_linear_301_4268" x1="25.7738" y1="40.0703" x2="32.0694" y2="43.9296" gradientUnits="userSpaceOnUse">
<stop stop-color="#96999D"/>
<stop offset="1" stop-color="#CACDD2"/>
</linearGradient>
<linearGradient id="paint25_linear_301_4268" x1="55.4291" y1="38.6153" x2="54.3636" y2="42.0158" gradientUnits="userSpaceOnUse">
<stop stop-color="#96999D"/>
<stop offset="1" stop-color="#CACDD2"/>
</linearGradient>
<linearGradient id="paint26_linear_301_4268" x1="17.0518" y1="85.9309" x2="49.6252" y2="38.3848" gradientUnits="userSpaceOnUse">
<stop stop-color="#96999D"/>
<stop offset="1" stop-color="#CACDD2"/>
</linearGradient>
<linearGradient id="paint27_linear_301_4268" x1="44.9599" y1="49.5106" x2="38.3594" y2="83.8644" gradientUnits="userSpaceOnUse">
<stop stop-color="#96999D"/>
<stop offset="1" stop-color="#CACDD2"/>
</linearGradient>
<linearGradient id="paint28_linear_301_4268" x1="110.42" y1="37.4816" x2="157.969" y2="104.084" gradientUnits="userSpaceOnUse">
<stop stop-color="#355178"/>
<stop offset="1" stop-color="#3F416C"/>
</linearGradient>
<linearGradient id="paint29_linear_301_4268" x1="111.233" y1="37.0749" x2="158.782" y2="103.678" gradientUnits="userSpaceOnUse">
<stop stop-color="#8195C2"/>
<stop offset="1" stop-color="#56729A"/>
</linearGradient>
<linearGradient id="paint30_linear_301_4268" x1="150.389" y1="75.8656" x2="151.366" y2="89.4025" gradientUnits="userSpaceOnUse">
<stop stop-color="#CACDD2"/>
<stop offset="1" stop-color="#96999D"/>
</linearGradient>
<linearGradient id="paint31_linear_301_4268" x1="103.605" y1="79.2446" x2="104.583" y2="92.7809" gradientUnits="userSpaceOnUse">
<stop stop-color="#CACDD2"/>
<stop offset="1" stop-color="#96999D"/>
</linearGradient>
<linearGradient id="paint32_linear_301_4268" x1="137.466" y1="141.644" x2="139.743" y2="150.321" gradientUnits="userSpaceOnUse">
<stop stop-color="#CACDD2"/>
<stop offset="1" stop-color="#96999D"/>
</linearGradient>
<linearGradient id="paint33_linear_301_4268" x1="133.732" y1="142.654" x2="135.992" y2="151.267" gradientUnits="userSpaceOnUse">
<stop stop-color="#CACDD2"/>
<stop offset="1" stop-color="#96999D"/>
</linearGradient>
<linearGradient id="paint34_linear_301_4268" x1="145.623" y1="137.826" x2="133.259" y2="121.834" gradientUnits="userSpaceOnUse">
<stop stop-color="#355178"/>
<stop offset="1" stop-color="#3F416C"/>
</linearGradient>
<linearGradient id="paint35_linear_301_4268" x1="145.623" y1="137.826" x2="133.259" y2="121.834" gradientUnits="userSpaceOnUse">
<stop stop-color="#355178"/>
<stop offset="1" stop-color="#3F416C"/>
</linearGradient>
<linearGradient id="paint36_linear_301_4268" x1="129.385" y1="128.081" x2="109.881" y2="123.064" gradientUnits="userSpaceOnUse">
<stop stop-color="#355178"/>
<stop offset="1" stop-color="#3F416C"/>
</linearGradient>
<linearGradient id="paint37_linear_301_4268" x1="124.075" y1="66.2845" x2="133.323" y2="112.306" gradientUnits="userSpaceOnUse">
<stop stop-color="#51637F"/>
<stop offset="1" stop-color="#464848"/>
</linearGradient>
<linearGradient id="paint38_linear_301_4268" x1="128.515" y1="84.0998" x2="130.295" y2="90.808" gradientUnits="userSpaceOnUse">
<stop stop-color="#CACDD2"/>
<stop offset="1" stop-color="#96999D"/>
</linearGradient>
<linearGradient id="paint39_linear_301_4268" x1="150.985" y1="167.528" x2="152.765" y2="174.236" gradientUnits="userSpaceOnUse">
<stop stop-color="#CACDD2"/>
<stop offset="1" stop-color="#96999D"/>
</linearGradient>
<linearGradient id="paint40_linear_301_4268" x1="196.211" y1="210.485" x2="201.314" y2="220.102" gradientUnits="userSpaceOnUse">
<stop stop-color="#CACDD2"/>
<stop offset="1" stop-color="#96999D"/>
</linearGradient>
<linearGradient id="paint41_linear_301_4268" x1="115.246" y1="68.0586" x2="124.494" y2="114.081" gradientUnits="userSpaceOnUse">
<stop stop-color="#51637F"/>
<stop offset="1" stop-color="#464848"/>
</linearGradient>
</defs>
</svg>
