<svg width="165" height="156" viewBox="0 0 165 156" fill="none" xmlns="http://www.w3.org/2000/svg">
<path d="M75.4483 1.0497C75.4483 1.0497 21.8629 4.3047 23.1834 34.6196C23.5619 43.3103 21.399 52.0089 15.0278 58.494C11.028 62.5654 5.68958 65.5326 2.87971 70.5918C-2.6745 80.5925 0.982349 92.8226 4.04536 102.85C7.08972 112.818 9.07974 123.297 15.0182 132.169C18.2648 137.019 22.6483 141.759 27.4538 145.259C34.1206 150.113 42.6813 152.184 50.9894 152.311C98.6991 153.041 151.4 149.673 156.737 89.6581C162.074 29.6429 126.58 -6.76408 75.4483 1.0497Z" fill="#F4F6F8"/>
<path d="M34.9101 51.1297C36.1442 51.7567 37.694 51.1812 38.3726 49.844C39.0507 48.5069 38.6003 46.9152 37.3669 46.2882C37.303 46.256 37.2375 46.2283 37.1725 46.2023C37.4019 45.4627 37.5748 44.717 37.6906 43.9712C37.7613 43.9712 37.8325 43.9701 37.9042 43.9633C39.3117 43.8378 40.4293 42.5436 40.3999 41.0724C40.3706 39.6013 39.2055 38.5106 37.798 38.6361C37.7245 38.6429 37.6522 38.6542 37.5805 38.6672C37.4335 37.9379 37.2318 37.226 36.9776 36.5368C37.0425 36.4989 37.107 36.46 37.1697 36.4159C38.3738 35.5717 38.7591 33.9049 38.0297 32.6938C37.3002 31.4828 35.7328 31.1848 34.5282 32.0295C34.4666 32.073 34.4084 32.1194 34.3513 32.1669C33.8756 31.6405 33.3541 31.1531 32.7896 30.7082C32.8291 30.6431 32.8681 30.577 32.9032 30.508C33.5818 29.1709 34.4677 27.711 33.2247 27.1032C30.3481 25.6982 29.1135 26.9008 28.4355 28.2379C28.4005 28.3075 28.37 28.3776 28.3411 28.4482C27.649 28.2549 26.9478 28.1209 26.2426 28.0474C26.2472 27.9733 26.2505 27.8987 26.2489 27.8235C26.2195 26.3523 26.6557 25.5563 25.2425 25.5286C22.1615 25.4686 21.1218 26.8069 21.1512 28.2781C21.1529 28.355 21.1591 28.4301 21.167 28.5048C20.4607 28.7061 19.7674 28.9639 19.0922 29.2755C19.06 29.2099 19.0267 29.1448 18.9888 29.0815C18.2594 27.8704 16.692 27.5724 15.4874 28.4172C14.2833 29.2619 13.8979 30.9281 14.6274 32.1392C14.6647 32.2014 14.7059 32.2591 14.7472 32.3167C14.2138 32.8505 13.7143 33.43 13.2527 34.0519C13.1928 34.0146 13.1323 33.9778 13.0685 33.9456C11.8345 33.3186 10.2846 33.8942 9.60601 35.2313C8.92797 36.5679 9.3783 38.1601 10.6118 38.7871C10.6756 38.8193 10.7411 38.8471 10.8061 38.8731C10.5767 39.6126 10.4038 40.3584 10.288 41.1041C10.2174 41.1041 10.1462 41.1052 10.0744 41.112C8.66693 41.2375 7.54931 42.5317 7.57869 44.0034C7.60807 45.4746 8.77316 46.5653 10.1812 46.4398C10.2547 46.433 10.327 46.4216 10.3987 46.4086C10.5456 47.138 10.7474 47.8499 11.0016 48.5391C10.9366 48.577 10.8722 48.6159 10.8095 48.6601C9.60487 49.5042 9.22009 51.171 9.94954 52.3821C10.679 53.5931 13.0933 54.1562 14.298 53.3115C14.3596 53.268 13.5708 52.9565 13.6279 52.909C14.1036 53.4354 14.6251 53.9228 15.1896 54.3677C15.15 54.4328 15.1111 54.4989 15.076 54.5679C14.3974 55.9045 14.8483 57.4966 16.0818 58.1236C17.3158 58.7507 18.8657 58.1751 19.5443 56.8379C19.5793 56.7689 19.6098 56.6983 19.6386 56.6282C20.3308 56.8215 21.032 56.955 21.7371 57.029C21.7326 57.1031 21.7292 57.1778 21.7309 57.253C21.7603 58.7241 22.9254 59.8148 24.3329 59.6893C25.7403 59.5637 26.858 58.2689 26.8286 56.7978C26.8269 56.7209 26.8207 56.6457 26.8127 56.5711C27.519 56.3698 28.2123 56.112 28.8875 55.8004C28.9197 55.866 28.9531 55.931 28.9909 55.9944C29.7204 57.2054 31.2878 57.5034 32.4924 56.6587C33.6965 55.8146 34.0818 54.1478 33.3524 52.9367C33.3151 52.8745 33.2738 52.8168 33.2326 52.7592C33.766 52.2254 34.2654 51.6459 34.7271 51.0239C34.787 51.0613 34.8474 51.0981 34.9113 51.1303L34.9101 51.1297ZM19.529 51.3248C15.0495 49.049 13.4143 43.269 15.8767 38.4151C18.3396 33.5611 23.9673 31.4715 28.4474 33.7472C32.9269 36.0229 34.5621 41.8029 32.0997 46.6569C29.6367 51.5108 24.0091 53.6005 19.529 51.3248Z" fill="url(#paint0_linear_301_4176)"/>
<path d="M37.903 43.9633C39.3105 43.8378 40.4281 42.5431 40.3987 41.0719C40.3693 39.6007 39.2042 38.5095 37.7968 38.6356C37.7233 38.6424 37.651 38.6537 37.5792 38.6667C37.4323 37.9373 37.2306 37.2255 36.9763 36.5363C37.0413 36.4984 37.1057 36.4594 37.1685 36.4153C38.3725 35.5711 39.8631 33.5312 39.0133 32.401C37.4007 30.2564 35.7316 31.1848 34.5275 32.0289C34.4659 32.0725 34.4077 32.1189 34.3507 32.1664C33.8749 31.64 33.3534 31.1526 32.7889 30.7076C32.8285 30.6426 32.8675 30.5765 32.9025 30.5075C33.2715 29.7798 33.3042 28.9775 33.0607 28.2957C31.8973 30.3441 30.7498 32.4016 29.6225 34.4703C33.1963 37.091 34.3343 42.2553 32.1002 46.658C30.2073 50.3891 26.4443 52.4839 22.7699 52.2215C22.606 52.6467 22.445 53.0747 22.2698 53.4959C21.7935 54.6392 21.2522 55.7586 20.7109 56.877C21.0516 56.9414 21.3941 56.9918 21.737 57.0279C21.7325 57.102 21.7291 57.1766 21.7308 57.2518C21.7602 58.723 22.6529 59.9731 25.204 59.8374C26.6155 59.7628 26.8579 58.2679 26.8285 56.7967C26.8268 56.7198 26.8206 56.6446 26.8132 56.57C27.5195 56.3687 28.2128 56.1108 28.888 55.7993C28.9202 55.8649 28.9535 55.93 28.9914 55.9933C29.7208 57.2044 32.251 57.7194 33.4551 56.8747C34.6597 56.0306 34.0817 54.1467 33.3523 52.9356C33.315 52.8734 33.2737 52.8158 33.2325 52.7581C33.7659 52.2244 34.2654 51.6448 34.727 51.0229C34.7869 51.0602 34.8473 51.0969 34.9112 51.1292C36.1452 51.7562 37.6951 51.1806 38.3737 49.8434C39.0517 48.5068 38.6014 46.9147 37.3679 46.2877C37.3041 46.2555 37.2385 46.2277 37.1735 46.2017C37.4029 45.4622 37.5758 44.7164 37.6917 43.9707C37.7623 43.9707 37.8335 43.969 37.9053 43.9628L37.903 43.9633Z" fill="url(#paint1_linear_301_4176)"/>
<path d="M36.2366 51.2807C37.4706 51.9077 39.0205 51.3322 39.6991 49.995C40.3771 48.6579 39.9268 47.0662 38.6934 46.4392C38.6295 46.407 38.564 46.3793 38.499 46.3533C38.7284 45.6138 38.9013 44.868 39.0171 44.1222C39.0877 44.1222 39.1589 44.1211 39.2307 44.1143C40.6382 43.9888 41.7558 42.6946 41.7264 41.2234C41.697 39.7523 40.5319 38.6611 39.1239 38.7872C39.0504 38.7939 38.9781 38.8052 38.9064 38.8182C38.7595 38.0889 38.5577 37.3771 38.3035 36.6878C38.3685 36.65 38.4329 36.611 38.4956 36.5669C39.6997 35.7227 40.085 34.0559 39.3556 32.8449C38.6261 31.6338 37.0587 31.3358 35.8541 32.1805C35.7925 32.2241 35.7343 32.2704 35.6767 32.3179C35.2009 31.7915 34.6794 31.3041 34.1149 30.8592C34.1545 30.7942 34.1935 30.728 34.2285 30.659C34.9065 29.3219 34.4562 27.7303 33.2228 27.1033C31.9888 26.4762 30.4389 27.0518 29.7603 28.3889C29.7253 28.4585 29.6947 28.5286 29.6659 28.5993C28.9738 28.4059 28.2726 28.2719 27.5674 28.1984C27.5719 28.1243 27.5753 28.0497 27.5736 27.9739C27.5443 26.5028 26.3792 25.4121 24.9711 25.5377C23.5636 25.6632 22.446 26.9574 22.4754 28.4285C22.4771 28.5054 22.4833 28.5806 22.4912 28.6552C21.7849 28.8565 21.0917 29.1143 20.4165 29.4253C20.3842 29.3597 20.3509 29.2947 20.313 29.2314C19.5836 28.0203 18.0162 27.7224 16.8116 28.5671C15.6069 29.4112 15.2222 31.078 15.9516 32.2891C15.9889 32.3513 16.0296 32.4089 16.0714 32.4666C15.538 33.0003 15.0385 33.5799 14.5769 34.2018C14.517 34.1645 14.4566 34.1278 14.3927 34.0955C13.1587 33.4685 11.6088 34.044 10.9302 35.3812C10.2522 36.7178 10.7025 38.31 11.936 38.937C11.9998 38.9692 12.0654 38.9969 12.1303 39.0229C11.9009 39.7625 11.728 40.5082 11.6122 41.254C11.5416 41.254 11.4704 41.2551 11.3986 41.2619C9.99115 41.3874 8.87353 42.6822 8.90291 44.1533C8.93229 45.6245 10.0974 46.7151 11.5054 46.5896C11.5789 46.5828 11.6512 46.5715 11.723 46.5585C11.8699 47.2873 12.0716 47.9997 12.3258 48.6889C12.2609 48.7268 12.1964 48.7659 12.1337 48.81C10.9297 49.6541 10.5443 51.3209 11.2738 52.532C12.0032 53.743 13.5706 54.041 14.7752 53.1963C14.8368 53.1528 14.895 53.1064 14.9526 53.0589C15.4284 53.5853 15.9499 54.0726 16.5144 54.5176C16.4748 54.5826 16.4358 54.6488 16.4008 54.7177C15.7228 56.0543 16.1731 57.6465 17.4066 58.2736C18.6406 58.9006 20.1904 58.325 20.869 56.9878C20.9041 56.9189 20.9346 56.8482 20.9634 56.7781C21.6556 56.9714 22.3568 57.1049 23.0619 57.1789C23.0574 57.253 23.054 57.3276 23.0557 57.4034C23.0851 58.8745 24.2502 59.9652 25.6582 59.8397C27.0657 59.7142 28.1833 58.42 28.1539 56.9488C28.1522 56.8719 28.146 56.7967 28.1381 56.7221C28.8444 56.5208 29.5377 56.263 30.2129 55.9515C30.2451 56.017 30.2784 56.082 30.3163 56.1454C31.0457 57.3564 32.6131 57.6544 33.8177 56.8097C35.0224 55.9656 35.4072 54.2988 34.6777 53.0877C34.6404 53.0255 34.5992 52.9679 34.5579 52.9102C35.0913 52.3764 35.5908 51.7969 36.0524 51.175C36.1123 51.2123 36.1728 51.2491 36.2366 51.2813V51.2807ZM20.8555 51.4758C16.3759 49.2 14.7408 43.42 17.2031 38.5661C19.6661 33.7121 25.2938 31.6225 29.7739 33.8982C34.2539 36.1739 35.8886 41.954 33.4262 46.8079C30.9632 51.6618 25.3356 53.7515 20.8555 51.4758Z" fill="url(#paint2_linear_301_4176)"/>
<path d="M57.5363 25.1362C58.52 25.636 59.7563 25.1768 60.2976 24.1111C60.8383 23.0447 60.4796 21.7754 59.4953 21.2756C59.4444 21.2496 59.3924 21.2281 59.3399 21.2072C59.523 20.6175 59.6603 20.0227 59.7529 19.4279C59.8094 19.4279 59.8659 19.4268 59.9236 19.4217C61.0463 19.3216 61.9373 18.2892 61.9136 17.116C61.8899 15.9428 60.9609 15.0726 59.8382 15.1727C59.7795 15.1778 59.7219 15.1874 59.6648 15.1976C59.5473 14.6164 59.3868 14.0482 59.1839 13.4986C59.2354 13.4686 59.2868 13.437 59.3371 13.4019C60.2976 12.7285 60.6044 11.3999 60.023 10.4336C59.4416 9.4679 58.1912 9.23043 57.2306 9.90382C57.1815 9.9383 57.1352 9.97559 57.0894 10.0135C56.7103 9.59395 56.2938 9.20495 55.8441 8.84988C55.8757 8.79787 55.9068 8.74528 55.9345 8.68987C56.4752 7.62353 57.1821 6.45941 56.1904 5.97486C53.8964 4.85425 52.9122 5.81373 52.3709 6.8795C52.3426 6.93491 52.3189 6.99088 52.2957 7.04685C51.7437 6.8925 51.1843 6.78618 50.6221 6.72738C50.6255 6.66802 50.6283 6.6087 50.6272 6.54876C50.6035 5.37557 50.9515 4.74062 49.8248 4.71857C47.3675 4.67108 46.5387 5.73794 46.5618 6.91114C46.563 6.97276 46.568 7.03271 46.5743 7.09207C46.0109 7.25265 45.4583 7.45789 44.9199 7.70667C44.8944 7.65408 44.8679 7.60262 44.8374 7.55173C44.2559 6.58547 43.0055 6.34856 42.045 7.02195C41.0845 7.69534 40.7776 9.02402 41.3591 9.99028C41.389 10.04 41.4212 10.0858 41.4545 10.1316C41.0291 10.5574 40.6307 11.0193 40.2629 11.5152C40.2154 11.4852 40.1669 11.4558 40.116 11.4304C39.1323 10.9306 37.896 11.3897 37.3547 12.4554C36.814 13.5218 37.1728 14.7911 38.1571 15.2909C38.2079 15.3169 38.2599 15.3384 38.3124 15.3593C38.1294 15.949 37.9921 16.5438 37.8994 17.1386C37.8429 17.1386 37.7864 17.1397 37.7288 17.1448C36.6061 17.2449 35.715 18.2773 35.7387 19.4505C35.7625 20.6237 36.6914 21.4939 37.8141 21.3938C37.8728 21.3887 37.9305 21.3791 37.9875 21.3689C38.1051 21.9501 38.2655 22.5184 38.4684 23.0679C38.417 23.0979 38.3656 23.1296 38.3153 23.1646C37.3547 23.838 37.0479 25.1667 37.6293 26.133C38.2107 27.0986 40.1369 27.5475 41.0969 26.8742C41.146 26.8397 40.5166 26.5909 40.5624 26.553C40.9415 26.9725 41.3579 27.3615 41.8077 27.7166C41.776 27.7686 41.745 27.8212 41.7173 27.8766C41.1766 28.943 41.5353 30.2122 42.5196 30.7121C43.5033 31.2119 44.7396 30.7528 45.2809 29.687C45.3092 29.6316 45.3329 29.5756 45.3561 29.5196C45.9081 29.674 46.4675 29.7803 47.0297 29.8391C47.0263 29.8985 47.0234 29.9579 47.0246 30.0178C47.0483 31.191 47.9772 32.0611 49.0999 31.9611C50.2226 31.861 51.1137 30.8286 51.0899 29.6554C51.0888 29.5943 51.0837 29.5344 51.0775 29.4744C51.6408 29.3138 52.1934 29.1086 52.7319 28.8598C52.7573 28.9124 52.7839 28.9644 52.8144 29.0148C53.3958 29.981 54.6462 30.2179 55.6068 29.5445C56.5673 28.8712 56.8741 27.5425 56.2927 26.5762C56.2628 26.527 56.23 26.4807 56.1972 26.4349C56.6227 26.0091 57.021 25.5472 57.3889 25.0514C57.4363 25.0813 57.4849 25.1102 57.5358 25.1362H57.5363ZM45.2702 25.2916C41.6975 23.4767 40.394 18.8676 42.3575 14.9963C44.3215 11.1256 48.8095 9.45882 52.3822 11.2737C55.9548 13.0887 57.2589 17.6978 55.2943 21.569C53.3303 25.4397 48.8423 27.1066 45.2696 25.2916H45.2702Z" fill="url(#paint3_linear_301_4176)"/>
<path d="M59.923 19.4218C61.0457 19.3218 61.9367 18.2893 61.913 17.1161C61.8893 15.9429 60.9604 15.0728 59.8377 15.1729C59.7789 15.1779 59.7213 15.1876 59.6642 15.1978C59.5473 14.6165 59.3862 14.0483 59.1834 13.4988C59.2348 13.4688 59.2862 13.4371 59.3365 13.4021C60.297 12.7287 61.4853 11.102 60.8073 10.2008C59.5213 8.49047 58.1901 9.23058 57.2301 9.90396C57.1809 9.93845 57.1346 9.97574 57.0888 10.0136C56.7097 9.59409 56.2933 9.2051 55.8435 8.85003C55.8751 8.79801 55.9062 8.74543 55.9339 8.69002C56.2283 8.10992 56.2543 7.46994 56.0599 6.92603C55.1321 8.56002 54.2168 10.2002 53.3184 11.8501C56.1684 13.9398 57.0758 18.0581 55.2943 21.5692C53.7846 24.5443 50.7837 26.2151 47.8535 26.0059C47.7229 26.3451 47.5947 26.686 47.4546 27.0219C47.0749 27.9333 46.6432 28.8261 46.2109 29.7183C46.4827 29.7697 46.7556 29.8099 47.0291 29.8387C47.0257 29.8981 47.0229 29.9574 47.024 30.0173C47.0477 31.1905 47.7591 32.1874 49.7938 32.0794C50.9193 32.0194 51.1125 30.8282 51.0894 29.655C51.0882 29.5939 51.0832 29.5339 51.0769 29.474C51.6403 29.3134 52.1929 29.1082 52.7313 28.8594C52.7568 28.912 52.7833 28.964 52.8138 29.0144C53.3952 29.9806 55.4135 30.3911 56.3735 29.7177C57.334 29.0443 56.8735 27.5421 56.2916 26.5764C56.2616 26.5266 56.2289 26.4808 56.1961 26.435C56.6215 26.0093 57.0199 25.5474 57.3877 25.0515C57.4352 25.0815 57.4838 25.1109 57.5346 25.1363C58.5183 25.6361 59.7546 25.177 60.2959 24.1112C60.8366 23.0449 60.4779 21.7756 59.4936 21.2758C59.4427 21.2498 59.3907 21.2283 59.3382 21.2074C59.5213 20.6177 59.6586 20.0229 59.7512 19.4281C59.8077 19.4281 59.8642 19.4269 59.9219 19.4218H59.923Z" fill="url(#paint4_linear_301_4176)"/>
<path d="M58.5949 25.2565C59.5786 25.7563 60.8149 25.2972 61.3562 24.2315C61.8969 23.1651 61.5381 21.8958 60.5539 21.396C60.503 21.37 60.451 21.3485 60.3985 21.3276C60.5816 20.7379 60.7194 20.1431 60.8115 19.5483C60.868 19.5483 60.9245 19.5471 60.9822 19.5421C62.1049 19.442 62.9959 18.4095 62.9722 17.2364C62.9485 16.0632 62.0195 15.193 60.8968 15.2931C60.8381 15.2982 60.7804 15.3078 60.7234 15.318C60.6059 14.7368 60.4454 14.1685 60.2425 13.619C60.294 13.589 60.3454 13.5573 60.3957 13.5223C61.3562 12.8489 61.663 11.5202 61.0816 10.554C60.5002 9.5877 59.2498 9.35079 58.2892 10.0242C58.2401 10.0587 58.1938 10.096 58.148 10.1338C57.7689 9.71431 57.3524 9.32531 56.9027 8.97025C56.9343 8.91823 56.9654 8.8657 56.9931 8.81029C57.5338 7.74395 57.175 6.47462 56.1907 5.9748C55.207 5.47499 53.9708 5.93409 53.4295 6.99986C53.4012 7.05527 53.3775 7.11124 53.3543 7.16722C52.8023 7.01286 52.2429 6.9066 51.6807 6.8478C51.6841 6.78843 51.6869 6.72906 51.6858 6.66913C51.6621 5.49593 50.7331 4.62578 49.6104 4.72585C48.4877 4.82593 47.5967 5.85836 47.6204 7.03155C47.6215 7.09318 47.6266 7.15307 47.6328 7.21244C47.0695 7.37301 46.5169 7.57826 45.9784 7.82703C45.953 7.77445 45.9265 7.72298 45.896 7.6721C45.3145 6.70584 44.0641 6.46898 43.1036 7.14237C42.1431 7.81576 41.8362 9.14444 42.4177 10.1107C42.4476 10.1605 42.4798 10.2063 42.5131 10.252C42.0877 10.6778 41.6893 11.1397 41.3215 11.6356C41.274 11.6056 41.2255 11.5768 41.1746 11.5507C40.1909 11.0509 38.9546 11.51 38.4133 12.5758C37.8726 13.6421 38.2314 14.9115 39.2157 15.4113C39.2665 15.4373 39.3185 15.4588 39.371 15.4797C39.188 16.0694 39.0501 16.6642 38.958 17.259C38.9015 17.259 38.845 17.2601 38.7874 17.2652C37.6647 17.3653 36.7736 18.3977 36.7973 19.5709C36.8211 20.7441 37.75 21.6142 38.8727 21.5141C38.9314 21.5091 38.9891 21.4995 39.0461 21.4893C39.1637 22.0705 39.3241 22.6387 39.527 23.1883C39.4756 23.2183 39.4241 23.2499 39.3739 23.285C38.4133 23.9584 38.1065 25.2871 38.6879 26.2533C39.2693 27.2196 40.5197 27.4565 41.4803 26.7831C41.5294 26.7486 41.5758 26.7113 41.6215 26.6734C42.0007 27.0929 42.4171 27.4819 42.8668 27.837C42.8352 27.889 42.8041 27.9416 42.7764 27.997C42.2357 29.0633 42.5945 30.3327 43.5788 30.8325C44.5625 31.3323 45.7988 30.8731 46.3401 29.8074C46.3683 29.752 46.3921 29.696 46.4152 29.64C46.9672 29.7944 47.5266 29.9007 48.0888 29.9595C48.0854 30.0188 48.0826 30.0782 48.0837 30.1382C48.1075 31.3113 49.0364 32.1815 50.1591 32.0808C51.2818 31.9807 52.1728 30.9484 52.1491 29.7752C52.148 29.7141 52.1429 29.6542 52.1367 29.5942C52.7 29.4337 53.2526 29.2284 53.7911 28.9796C53.8165 29.0322 53.8431 29.0843 53.8736 29.1346C54.455 30.1008 55.7054 30.3377 56.6659 29.6644C57.6265 28.991 57.9333 27.6623 57.3519 26.696C57.3219 26.6468 57.2897 26.6005 57.2564 26.5547C57.6818 26.1289 58.0802 25.667 58.448 25.1711C58.4955 25.2011 58.5441 25.2299 58.5949 25.2559V25.2565ZM46.3288 25.412C42.7561 23.5971 41.4526 18.988 43.4161 15.1167C45.3801 11.246 49.8681 9.57918 53.4408 11.3941C57.0134 13.209 58.3175 17.8187 56.3535 21.6895C54.3894 25.5602 49.9014 27.2269 46.3288 25.412Z" fill="url(#paint5_linear_301_4176)"/>
<path d="M100.045 135.317C102.336 129.2 104.757 119.907 102.764 109.444C100.15 95.7208 92.2419 92.0407 82.7099 71.3302C76.6827 58.2351 72.6089 49.0361 76.7404 40.9973C79.978 34.6982 87.8669 29.8658 94.6076 30.8914C100.213 31.7441 105.68 36.7466 108.597 40.8045C110.975 44.1115 111.784 46.9656 114.796 47.838C117.874 48.7297 119.622 46.5003 122.315 46.9571C127.775 47.8833 130.208 58.6857 130.602 60.4311C134.975 79.8514 124.772 99.4474 120.219 107.942C116.454 114.965 110.19 124.94 100.045 135.317V135.317Z" fill="url(#paint6_linear_301_4176)"/>
<g style="mix-blend-mode:soft-light" opacity="0.5">
<g style="mix-blend-mode:soft-light">
<path d="M96.752 140.936L96.4554 140.66C102.477 134.179 107.196 127.668 110.482 121.307C115.326 111.928 116.888 103.144 115.125 95.1973C113.744 88.9728 110.423 83.458 105.827 75.824C102.158 69.7302 99.0082 65.7424 96.2294 62.224C92.5974 57.6256 89.7287 53.9935 87.4251 47.8052C85.0876 41.5254 84.1248 34.61 84.5644 27.252L84.9689 27.2762C84.5327 34.5772 85.4871 41.4372 87.8048 47.6639C90.0864 53.7922 92.9375 57.4023 96.5475 61.9724C99.3342 65.5004 102.492 69.4989 106.174 75.6148C110.617 82.9927 114.125 88.8202 115.521 95.1091C117.305 103.151 115.731 112.028 110.842 121.493C107.539 127.887 102.799 134.428 96.7526 140.936H96.752Z" fill="white"/>
</g>
<g style="mix-blend-mode:soft-light">
<path d="M102.762 71.4635C101.411 71.4635 96.9324 71.3046 91.5997 69.4105C85.7178 67.3208 77.5571 62.6331 72.082 52.1682L72.4408 51.9799C77.8515 62.3216 85.911 66.9562 91.7195 69.0227C97.2647 70.9954 101.87 71.0637 102.93 71.0575C100.725 57.8397 103.337 47.5789 105.926 41.2849C108.75 34.4198 112.164 30.6538 112.198 30.6165L112.497 30.8907C112.463 30.9274 109.089 34.6528 106.293 41.4574C103.713 47.7355 101.112 57.9958 103.369 71.221L103.407 71.4465L103.178 71.4573C103.17 71.4573 103.025 71.4635 102.762 71.4635V71.4635Z" fill="white"/>
</g>
<g style="mix-blend-mode:soft-light">
<path d="M112.851 88.1926L112.723 88.1202C112.651 88.0801 105.465 84.0522 97.4713 81.4259C89.5197 78.8138 76.0755 83.1837 75.941 83.2278L75.8145 82.8428C75.9506 82.7981 89.522 78.3875 97.5979 81.0409C105.038 83.4856 111.781 87.1376 112.791 87.695C117.391 83.3534 120.578 73.6065 122.01 59.4891C123.103 48.7161 122.79 39.1116 122.787 39.0161L123.191 39.002C123.195 39.0981 123.508 48.7296 122.413 59.5298C120.939 74.0611 117.758 83.6711 112.959 88.0925L112.851 88.192V88.1926Z" fill="white"/>
</g>
<g style="mix-blend-mode:soft-light">
<path d="M112.12 118.922L112.146 118.519C112.409 114.39 111.43 110.694 109.237 107.532C107.479 104.998 104.939 102.797 101.689 100.989C96.1355 97.9015 90.3604 97.028 90.3027 97.0195L90.3615 96.6186C90.4197 96.6271 96.2587 97.5091 101.876 100.63C107.008 103.48 112.986 108.822 112.573 118.136C113.915 117.215 119.116 113.512 124.985 107.535C131.248 101.155 139.576 90.8069 143.677 77.7315L151.644 52.3379L152.03 52.4595L144.064 77.8531C139.937 91.0093 131.564 101.414 125.267 107.826C118.445 114.772 112.518 118.663 112.459 118.701L112.12 118.922V118.922Z" fill="white"/>
</g>
</g>
<path d="M101.016 133.601C111.323 133.569 124.45 132.056 136.977 126.235C140.174 124.75 159.925 115.573 157.492 106.555C156.635 103.378 153.75 102.904 152.53 98.6761C151.084 93.6667 154.211 91.1269 156.333 84.8448C157.599 81.0962 161.306 70.127 154.7 64.1394C150.754 60.5616 143.303 58.9242 137.658 60.3021C129.378 62.3234 126.605 70.4351 122.15 84.2415C118.201 96.4806 119.276 99.4648 116.279 108.228C114.054 114.732 109.833 123.698 101.016 133.601H101.016Z" fill="url(#paint7_linear_301_4176)"/>
<g style="mix-blend-mode:soft-light" opacity="0.5">
<g style="mix-blend-mode:soft-light">
<path d="M74.5375 139.451C68.7765 139.451 62.8793 138.684 56.8906 137.152L56.9912 136.76C68.307 139.654 79.2905 139.8 89.6378 137.193C103.423 133.72 115.326 125.319 125.018 112.222C135.111 98.5823 140.277 83.2668 142.834 72.8211C144.604 65.5886 144.17 57.6041 141.542 49.0903L141.929 48.9705C144.579 57.5554 145.016 65.6123 143.228 72.9173C140.662 83.3991 135.477 98.7688 125.343 112.463C115.594 125.637 103.614 134.09 89.7362 137.586C84.8024 138.829 79.725 139.451 74.537 139.451H74.5375Z" fill="white"/>
</g>
<g style="mix-blend-mode:soft-light">
<path d="M136.041 93.6379L135.925 93.4971C135.896 93.4615 132.968 89.8848 130.578 84.4033C128.369 79.339 126.175 71.5626 128.272 63.275L128.664 63.3745C126.597 71.5467 128.763 79.2265 130.944 84.2303C133.046 89.0526 135.564 92.3839 136.123 93.0968C157.85 78.6498 157.473 62.3771 156.837 57.7256C156.817 57.5831 156.81 57.5317 156.81 57.4949H157.013L157.216 57.4927C157.217 57.5192 157.226 57.5792 157.238 57.6708C157.884 62.393 158.275 78.9342 136.193 93.5378L136.041 93.6384L136.041 93.6379Z" fill="white"/>
</g>
<g style="mix-blend-mode:soft-light">
<path d="M133.189 112.872C130.765 112.872 128.146 112.702 125.321 112.315L125.213 112.3L125.166 112.203C125.105 112.078 119.092 99.4846 120.213 82.2706L121.344 64.9106L121.749 64.9372L120.618 82.2971C119.556 98.6015 124.929 110.725 125.485 111.928C132.884 112.928 143.539 113.003 152.499 107.75C157.869 104.601 160.099 100.987 160.121 100.951L160.468 101.162C160.445 101.198 158.161 104.9 152.704 108.1C148.729 110.431 142.37 112.872 133.189 112.872V112.872Z" fill="white"/>
</g>
</g>
<path d="M107.077 138.242C107.05 137.194 106.989 131.016 111.535 127.23C115.34 124.061 120.306 124.291 121.456 124.345C126.088 124.56 127.236 126.707 130.085 125.729C133.469 124.569 133.705 120.905 136.407 120.818C138.272 120.758 140.133 122.438 140.703 124.174C141.704 127.221 138.966 131.167 135.779 132.725C131.387 134.872 128.507 131.331 123.315 133.503C120.298 134.766 120.357 136.344 117.198 137.752C113.531 139.388 109.739 138.915 107.076 138.242H107.077Z" fill="url(#paint8_linear_301_4176)"/>
<g style="mix-blend-mode:soft-light" opacity="0.5">
<g style="mix-blend-mode:soft-light">
<path d="M105.628 140.561L105.467 140.437C107.023 138.403 108.725 136.438 110.524 134.598C114.128 130.913 115.936 129.063 118.138 128.29C121.002 127.283 123.236 128.096 125.397 128.881C127.312 129.578 129.122 130.235 131.287 129.648C134.725 128.715 137.489 124.946 139.503 118.444L139.696 118.504C137.66 125.076 134.849 128.891 131.339 129.844C129.112 130.449 127.274 129.78 125.327 129.072C123.2 128.298 121.001 127.499 118.205 128.481C116.047 129.239 114.25 131.077 110.67 134.739C108.876 136.574 107.179 138.533 105.628 140.561V140.561Z" fill="white"/>
</g>
<g style="mix-blend-mode:soft-light">
<path d="M135.55 130.314C135.177 130.314 134.841 130.295 134.543 130.264C132.927 130.098 132.066 129.594 132.03 129.573L132 129.556L131.987 129.524C130.555 125.962 132.88 120.825 132.904 120.773L133.088 120.858C133.065 120.909 130.791 125.935 132.162 129.415C132.508 129.599 135.89 131.252 141.499 128.669L141.584 128.854C139.082 130.006 137.03 130.315 135.55 130.315V130.314Z" fill="white"/>
</g>
<g style="mix-blend-mode:soft-light">
<path d="M129.303 135.804C127.811 131.561 118.238 128.513 118.141 128.482L118.055 128.455L118.072 128.366C118.376 126.816 120.094 125.743 123.178 125.176C125.452 124.758 127.666 124.786 127.69 124.786L127.686 124.989C127.601 124.989 119.103 124.903 118.29 128.317C118.75 128.467 120.942 129.206 123.257 130.359C126.754 132.102 128.852 133.91 129.494 135.736L129.303 135.803L129.303 135.804Z" fill="white"/>
</g>
<g style="mix-blend-mode:soft-light">
<path d="M123.057 137.43C120.464 131.368 111.108 134.341 111.014 134.372L110.9 134.41L110.882 134.291C110.039 128.538 115.208 123.322 115.261 123.27L115.404 123.413C115.353 123.464 110.324 128.539 111.066 134.145C112.165 133.818 120.737 131.492 123.244 137.35L123.057 137.43Z" fill="white"/>
</g>
</g>
<path d="M164.009 142.452L4.51367 141.092V145.117C4.51367 146.209 5.20922 147.138 6.15168 147.304L51.2521 155.23C51.7872 155.324 52.3302 155.35 52.8703 155.305L162.276 146.268C163.253 146.187 164.01 145.255 164.01 144.133V142.452H164.009Z" fill="#262648"/>
<path d="M106.129 136.002L6.16317 143.365C4.3743 143.497 2.91992 142.097 2.91992 140.238V65.7472C2.91992 63.8882 4.3743 62.3809 6.16317 62.3809H106.129C107.603 62.3809 108.795 63.7435 108.795 65.4244V132.763C108.795 134.443 107.603 135.894 106.129 136.002V136.002Z" fill="#262648"/>
<path d="M107.723 136.002L7.75692 143.365C5.96805 143.497 4.51367 142.097 4.51367 140.238V65.7472C4.51367 63.8882 5.96805 62.3809 7.75692 62.3809H107.723C109.197 62.3809 110.388 63.7435 110.388 65.4244V132.763C110.388 134.443 109.197 135.894 107.723 136.002V136.002Z" fill="url(#paint9_linear_301_4176)"/>
<path d="M104.61 131.255L11.502 137.651C10.0464 137.751 8.86328 136.602 8.86328 135.084V69.8675C8.86328 68.3494 10.0464 67.114 11.502 67.1078L104.61 66.7063C105.826 66.7012 106.809 67.8173 106.809 69.2003V128.601C106.809 129.983 105.826 131.172 104.61 131.255V131.255Z" fill="url(#paint10_linear_301_4176)"/>
<path d="M61.2712 64.4186C61.2712 65.1106 60.7565 65.6732 60.1214 65.6755C59.4852 65.6777 58.9688 65.1168 58.9688 64.4231C58.9688 63.7294 59.4852 63.1668 60.1214 63.1663C60.7565 63.1663 61.2712 63.7265 61.2712 64.4186Z" fill="white"/>
<g style="mix-blend-mode:soft-light" opacity="0.48">
<path d="M7.75579 143.365L107.216 136.039L107.723 136.002C108.399 135.952 109.014 135.617 109.483 135.11C102.326 134.718 97.8803 132.177 95.0128 129.551C89.2541 124.277 90.253 119.075 84.0423 115.608C76.2963 111.283 70.2059 116.764 64.3279 111.357C60.7643 108.078 62.5142 105.634 58.129 100.735C53.2726 95.309 50.1107 97.133 45.23 92.2496C39.0588 86.0749 42.145 81.2708 36.8292 76.8375C30.38 71.4595 23.4257 76.4372 17.2867 71.2791C14.6389 69.0542 13.1863 65.8202 12.4274 62.3809H7.75692C5.96805 62.3809 4.51367 63.8882 4.51367 65.7472V140.238C4.51367 142.097 5.96805 143.497 7.75636 143.365H7.75579Z" fill="white"/>
</g>
<path d="M111.707 135.593L4.51367 143.344L51.2521 151.559C51.7872 151.652 52.3302 151.678 52.8703 151.633L164.009 142.453L113.412 135.647C112.847 135.57 112.276 135.553 111.707 135.594V135.593Z" fill="url(#paint11_linear_301_4176)"/>
<path d="M20.1562 143.411L109.398 136.862L137.018 140.548L48.5449 147.548L20.1562 143.411Z" fill="#262648"/>
<path d="M120.134 115.983C120.134 124.224 113.416 131.332 105.012 131.866L11.4023 137.813C21.3005 137.185 29.2046 129.438 29.2046 120.501V17.6978L120.134 21.1789V115.983V115.983Z" fill="url(#paint12_linear_301_4176)"/>
<path d="M41.1804 77.6388L35.6172 77.6247L35.62 36.219L41.1963 36.3801L41.1804 77.6388Z" fill="url(#paint13_linear_301_4176)"/>
<path d="M52.1888 77.667L46.4922 77.6523L46.512 49.4548L52.2182 49.573L52.1888 77.667Z" fill="url(#paint14_linear_301_4176)"/>
<path d="M62.8379 77.6941L57.2188 77.6799L57.2657 42.2607L62.8961 42.4037L62.8379 77.6941Z" fill="url(#paint15_linear_301_4176)"/>
<path d="M73.3419 77.7213L68.2109 77.7077L68.2663 49.7048L73.4052 49.8117L73.3419 77.7213Z" fill="url(#paint16_linear_301_4176)"/>
<path d="M84.1058 77.7484L78.4375 77.7343L78.4889 57.6208L84.1635 57.7096L84.1058 77.7484Z" fill="url(#paint17_linear_301_4176)"/>
<path d="M94.1248 77.7744L89.1328 77.7614L89.2599 37.7698L94.2638 37.9145L94.1248 77.7744Z" fill="url(#paint18_linear_301_4176)"/>
<path d="M104.6 77.8012L99.2812 77.7876L99.3259 65.929L104.648 65.9844L104.6 77.8012Z" fill="url(#paint19_linear_301_4176)"/>
<path d="M114.545 77.8265L109.297 77.8134L109.435 46.1055L114.692 46.2304L114.545 77.8265Z" fill="url(#paint20_linear_301_4176)"/>
<path d="M114.489 89.7417L35.6172 90.1692V86.1243L114.507 85.8999L114.489 89.7417Z" fill="url(#paint21_linear_301_4176)"/>
<path d="M114.352 119.264L35.6152 121.249L35.6158 117.219L114.37 115.436L114.352 119.264Z" fill="url(#paint22_linear_301_4176)"/>
<path d="M73.4519 29.1679L35.6211 27.8725L35.6217 23.5947L73.4615 24.993L73.4519 29.1679Z" fill="url(#paint23_linear_301_4176)"/>
<path opacity="0.5" d="M65.2911 95.3623L65.264 110.218L34.543 110.787V95.6359L65.2911 95.3623Z" fill="url(#paint24_linear_301_4176)"/>
<path d="M34.543 104.483V110.787L65.264 110.217L65.2849 98.6556C63.426 98.0303 61.3642 97.6956 59.7392 98.7286C56.3405 100.891 56.7615 102.114 53.2284 101.546C50.4682 101.101 47.3984 100.696 45.0383 102.496C43.5777 103.61 42.824 104.794 40.7238 104.647C38.7496 104.508 36.3669 103.205 34.5435 104.483H34.543Z" fill="url(#paint25_linear_301_4176)"/>
<path d="M114.454 97.6114L72.6836 98.058L72.6898 95.2966L114.466 94.9246L114.454 97.6114Z" fill="url(#paint26_linear_301_4176)"/>
<path d="M114.424 103.365L72.668 103.973L72.6736 101.41L114.436 100.873L114.424 103.365Z" fill="url(#paint27_linear_301_4176)"/>
<path d="M114.398 109.307L72.6562 110.081L72.6625 107.323L114.411 106.625L114.398 109.307Z" fill="url(#paint28_linear_301_4176)"/>
<path d="M123.691 138.624C123.691 138.624 118.563 140.97 118.48 141.343C118.397 141.716 121.781 141.21 123.163 141.261C124.545 141.311 125.681 140.9 125.554 140.314C125.428 139.729 124.941 138.257 124.941 138.257L123.691 138.623V138.624Z" fill="url(#paint29_linear_301_4176)"/>
<path d="M123.499 136.729L123.816 139.041C123.816 139.041 124.629 139.329 125.174 138.985L125.401 136.448L123.498 136.729H123.499Z" fill="url(#paint30_linear_301_4176)"/>
<path d="M147.673 136.727L148.272 137.685C148.44 137.953 148.49 138.275 148.411 138.581C148.204 139.38 147.791 140.935 147.61 141.34C147.364 141.893 144.042 142.229 144.042 142.229C144.042 142.229 143.745 141.813 144.434 141.307C145.122 140.802 145.566 140.721 145.807 139.977C146.048 139.233 146.206 137.13 146.206 137.13L147.673 136.727V136.727Z" fill="url(#paint31_linear_301_4176)"/>
<path d="M145.182 134.295C145.4 134.469 146.475 137.707 146.475 137.707C146.475 137.707 146.821 138.148 147.476 137.494C148.13 136.841 147.772 137.201 147.772 137.201L147.641 134.014L145.182 134.296V134.295Z" fill="url(#paint32_linear_301_4176)"/>
<path d="M120.562 90.2725C120.308 97.172 120.315 104.667 120.73 112.673C121.199 121.688 122.116 130.02 123.266 137.571C123.686 137.584 124.128 137.585 124.59 137.571C124.901 137.562 125.203 137.546 125.495 137.525C126.078 135.957 126.767 133.896 127.382 131.433C128.029 128.844 128.418 126.523 128.693 124.303C129.663 116.487 128.503 115.808 129.291 110.016C129.99 104.885 130.999 104.683 132.168 97.3982C133.436 89.4945 132.475 88.3117 132.008 87.8843C130.02 86.0659 125.364 87.3183 120.562 90.272L120.562 90.2725Z" fill="url(#paint33_linear_301_4176)"/>
<path style="mix-blend-mode:multiply" opacity="0.3" d="M132.009 87.8848C130.113 86.1508 125.79 87.2137 121.227 89.8784C126.497 95.5488 127.079 99.2341 126.454 101.627C125.748 104.333 123.585 105.116 123.6 108.072C123.619 111.705 126.898 112.659 126.837 116.503C126.797 119.046 125.357 119.022 125.025 122.163C124.632 125.879 126.516 127.154 125.913 129.905C125.654 131.087 124.91 132.634 122.783 134.231C122.94 135.359 123.1 136.476 123.266 137.572C123.687 137.584 124.129 137.585 124.59 137.571C124.902 137.562 125.204 137.546 125.495 137.525C126.078 135.957 126.768 133.896 127.383 131.433C128.03 128.844 128.419 126.523 128.694 124.303C129.664 116.487 128.504 115.808 129.292 110.016C129.99 104.885 131 104.683 132.168 97.3982C133.436 89.4945 132.476 88.3117 132.008 87.8848H132.009Z" fill="url(#paint34_linear_301_4176)"/>
<path d="M123.818 90.1494C128.36 96.7651 133.262 105.001 137.651 114.862C140.969 122.314 143.378 129.313 145.15 135.551C145.388 135.661 145.949 135.879 146.665 135.783C147.642 135.651 148.226 135.025 148.379 134.851C149.084 130.374 148.996 126.584 148.747 123.85C148.587 122.099 148.305 119.183 147.181 115.585C145.922 111.555 145.062 111.331 143.422 107.068C141.72 102.643 142.126 101.538 140.493 95.9996C139.822 93.7244 138.699 90.3388 136.851 86.2905C132.507 87.5768 128.163 88.8637 123.819 90.15L123.818 90.1494Z" fill="url(#paint35_linear_301_4176)"/>
<path d="M105.367 80.8141C105.41 82.4238 108.054 83.8418 110.183 84.2766C115.161 85.2932 120.933 81.6741 123.672 77.6699C124.21 76.884 124.807 75.9308 124.952 76.0043C125.277 76.1711 122.285 81.0912 120.987 86.6875C120.323 89.5501 120.497 90.8912 119.256 92.7971C118.975 93.2291 118.628 93.6786 118.75 94.1891C119.056 95.4681 121.979 95.8005 124.007 96.0306C126.148 96.2738 128.145 96.2506 130.118 96.2217C133.278 96.1754 133.527 96.0114 134.248 96.3653C136.446 97.4447 136.297 100.031 137.951 100.376C139.339 100.665 140.749 99.1132 141.195 98.6213C143.517 96.0634 143.393 92.9798 143.805 89.8695C144.762 82.6381 148.688 74.7157 152.529 69.7007C153.693 68.1798 154.504 67.3797 154.554 65.9662C154.703 61.8168 148.133 57.236 142.663 56.7096C141.164 56.5654 138.479 56.6107 135.963 56.8481C134.957 56.9431 133.886 57.0828 132.735 57.284C129.944 57.7725 128 58.1129 126.019 59.0192C118.033 62.6756 119.776 70.8145 111.133 76.4425C108.161 78.3773 105.323 79.1281 105.368 80.8141H105.367Z" fill="url(#paint36_linear_301_4176)"/>
<path d="M138.089 52.4047C138.089 52.4047 138.432 54.3202 139.221 55.6834C139.935 56.9153 142.885 57.3575 143.5 57.5718C144.114 57.7861 142.572 58.8575 140.933 59.246C139.293 59.6344 134.496 59.8882 133.557 59.3715C132.618 58.8547 134.168 58.6969 135.296 58.1032C136.424 57.5096 136.802 55.0971 136.453 54.0709C136.103 53.0447 138.089 52.4041 138.089 52.4041L138.089 52.4047Z" fill="url(#paint37_linear_301_4176)"/>
<path d="M134.972 51.8504C133.782 50.9995 133.452 48.6984 134.113 48.1816C134.302 48.034 134.482 48.1019 137.167 49.1795C138.501 49.715 139.157 49.9999 139.373 50.589C139.504 50.9486 139.483 51.4348 139.338 51.8176C139.263 52.0149 139.116 52.2598 138.791 52.7279C138.503 53.1435 138.522 53.1294 138.434 53.2504C138.221 53.5404 137.812 54.0289 137.061 54.5949C137.019 54.3828 136.953 54.1205 136.842 53.8338C136.8 53.7236 136.628 53.2922 136.357 52.9292C135.889 52.3044 135.358 52.1263 134.971 51.8499L134.972 51.8504Z" fill="url(#paint38_linear_301_4176)"/>
<path d="M138.021 54.0391C138.021 54.0391 137.243 55.1999 135.801 55.0421C134.51 54.9013 134.447 51.9873 135.301 51.4066C135.586 51.2127 136.142 51.1516 136.586 51.2975C136.848 51.3835 136.933 51.4977 137.364 51.63C137.762 51.7521 137.877 51.7125 137.994 51.8199C138.14 51.9545 138.238 52.2728 137.947 53.1113C138.205 52.8716 138.506 52.7885 138.712 52.897C138.744 52.9146 138.831 52.979 138.877 53.0728C139.043 53.4126 138.722 53.8231 138.021 54.0391Z" fill="url(#paint39_linear_301_4176)"/>
<path style="mix-blend-mode:multiply" opacity="0.3" d="M112.35 80.5669C115.96 79.7533 117.398 79.7798 119.183 78.3409C122.154 75.9448 122.601 72.2985 124.327 72.3432C125.143 72.3641 125.807 73.1981 126.278 74.0151C125.844 74.6964 125.409 75.3776 124.974 76.0589C124.973 76.0329 124.967 76.0132 124.952 76.0058C124.808 75.9323 124.21 76.885 123.672 77.6715C120.933 81.6751 115.162 85.2947 110.184 84.2781C108.757 83.9864 107.101 83.2519 106.15 82.3151C108.607 81.4845 110.706 80.9389 112.351 80.568L112.35 80.5669Z" fill="url(#paint40_linear_301_4176)"/>
<path d="M106.473 84.5927C106.473 84.5927 104.436 84.3902 103.223 83.8706C102.009 83.351 101.225 84.0974 101.337 84.6136C101.448 85.1298 103.445 85.849 104.243 85.875C105.04 85.901 106.473 84.5932 106.473 84.5932V84.5927Z" fill="url(#paint41_linear_301_4176)"/>
<path d="M150.334 94.4515C152.52 94.6466 157.442 94.7359 160.923 91.5131C166.719 86.1481 163.844 75.9364 161.826 71.5445C159.514 66.509 155.832 63.6905 153.595 61.9774C150.82 59.8521 149.126 58.5551 147.088 58.8457C141.816 59.5965 138.166 70.4069 141.06 73.5019C142.007 74.515 142.945 73.9412 145.687 74.8147C146.58 75.0991 153.243 77.2227 154.403 82.1338C155.215 85.5708 153.147 89.5953 149.468 92.2985C149.757 93.016 150.045 93.7334 150.334 94.4509V94.4515Z" fill="url(#paint42_linear_301_4176)"/>
<path style="mix-blend-mode:multiply" opacity="0.3" d="M125.825 92.6709C128.3 91.1054 128.666 89.5189 131.438 88.4469C135.039 87.0543 136.77 88.8234 138.555 87.3946C140.68 85.6951 138.799 82.7335 140.389 77.5941C140.66 76.7217 142.709 70.0964 147.412 69.2522C149.606 68.8587 152.502 69.6994 153.618 71.559C154.492 73.0144 153.678 74.0994 154.741 75.7062C155.802 77.312 157.071 76.919 158.425 78.2584C160.573 80.3849 160.902 84.8696 158.962 87.4054C158.058 88.5882 156.882 89.0558 154.67 89.9361C153.319 90.4738 152.063 90.8079 150.981 91.0205C153.69 88.4191 155.095 85.0641 154.403 82.1336C153.679 79.0726 150.818 77.0948 148.549 75.9697C146.278 80.2458 144.423 85.2009 143.804 89.8688C143.393 92.979 143.517 96.0627 141.195 98.6206C140.748 99.1125 139.339 100.664 137.95 100.375C136.296 100.03 136.446 97.444 134.248 96.3647C133.527 96.0102 133.277 96.1747 130.118 96.2211C128.144 96.2499 126.147 96.2737 124.007 96.03C122.203 95.8253 119.696 95.538 118.947 94.5774C122.203 94.4887 124.376 93.5857 125.825 92.6698V92.6709Z" fill="url(#paint43_linear_301_4176)"/>
<path d="M148.899 96.1713L149.154 95.4216C149.56 94.2263 148.892 92.9514 147.663 92.5766L99.4783 77.8887L98.0098 82.8687L145.952 97.6447C147.174 98.0213 148.494 97.3632 148.899 96.1713H148.899Z" fill="url(#paint44_linear_301_4176)"/>
<path d="M51.5954 64.3971C55.2794 49.8331 69.7164 41.0559 83.9935 45.1691C98.5327 49.3582 106.857 65.122 102.439 79.9817C98.1254 94.4926 83.3318 102.321 69.5277 97.8437C55.962 93.4438 47.9945 78.6298 51.5949 64.3971H51.5954ZM98.2457 78.6966C101.897 66.2607 94.9307 53.0892 82.7894 49.5549C70.8318 46.0738 58.6826 53.3804 55.5478 65.6088C52.4729 77.6025 59.1871 90.1046 70.6419 93.787C82.2662 97.5243 94.6663 90.8871 98.2457 78.696V78.6966Z" fill="url(#paint45_linear_301_4176)"/>
<g style="mix-blend-mode:multiply" opacity="0.3">
<path d="M99.4783 77.8887L105.622 79.7613C106.043 81.7221 106.863 82.8455 107.688 83.5297C110.791 86.1039 114.935 83.2961 120.716 86.3148C123.617 87.8295 123.066 88.7934 125.785 89.8502C130.281 91.5972 132.339 89.1774 136.317 90.7673C140.342 92.3758 140.738 95.8524 143.021 95.7275C143.997 95.6743 145.254 94.9636 146.656 92.269L147.664 92.576C148.893 92.9509 149.561 94.2252 149.154 95.421L148.899 96.1707C148.494 97.3626 147.174 98.0207 145.952 97.6442L98.0098 82.8681L99.4783 77.8887Z" fill="#D8DDE0"/>
</g>
<path opacity="0.56" d="M69.5052 95.7801C81.5289 99.652 94.3663 92.7954 98.0785 80.1797C101.868 67.3017 94.6545 53.6581 82.0764 50.0033C69.695 46.4057 57.1271 53.9798 53.8907 66.635C50.718 79.0398 57.6628 91.9659 69.5052 95.7795V95.7801Z" fill="white"/>
<path d="M50.6618 65.6462C54.3458 51.0821 68.7828 42.3049 83.0599 46.4182C97.5991 50.6072 105.923 66.371 101.506 81.2308C97.1918 95.7417 82.3982 103.57 68.5941 99.0928C55.0284 94.6928 47.0609 79.8789 50.6613 65.6462H50.6618ZM97.3121 79.945C100.963 67.5092 93.9971 54.3377 81.8558 50.8034C69.8982 47.3223 57.749 54.6288 54.6142 66.8572C51.5393 78.851 58.2535 91.3531 69.7083 95.0355C81.3326 98.7728 93.7327 92.1356 97.3121 79.9445V79.945Z" fill="url(#paint46_linear_301_4176)"/>
<path d="M52.0574 66.0743C55.5493 52.3363 69.1777 44.082 82.6333 47.9731C96.3216 51.9314 104.164 66.7754 100.02 80.7757C95.9684 94.4662 82.0225 101.876 68.9879 97.6613C56.1663 93.5158 48.6407 79.5171 52.0574 66.0743ZM97.3121 79.9457C100.963 67.5098 93.9971 54.3384 81.8558 50.8041C69.8981 47.3229 57.7489 54.6296 54.6142 66.8579C51.5393 78.8517 58.2535 91.3537 69.7083 95.0362C81.3326 98.7734 93.7326 92.1362 97.3121 79.9452V79.9457Z" fill="url(#paint47_linear_301_4176)"/>
<path d="M150.149 93.9901L149.662 92.779C149.662 92.779 148.867 92.8277 148.215 92.3595C147.859 92.1045 147.228 92.0287 147.045 92.0796C146.862 92.1305 146.169 92.1 146.959 92.4771C147.748 92.8537 147.742 93.1335 147.413 93.4428C147.084 93.752 145.832 94.417 145.382 94.4492C144.931 94.4814 145.745 95.1785 146.2 95.2679C146.654 95.3566 147.399 95.4697 148.321 94.9264C148.657 94.7285 150.149 93.9907 150.149 93.9907V93.9901Z" fill="url(#paint48_linear_301_4176)"/>
<defs>
<linearGradient id="paint0_linear_301_4176" x1="29.2915" y1="30.119" x2="5.08553" y2="86.7235" gradientUnits="userSpaceOnUse">
<stop stop-color="#51637F"/>
<stop offset="1" stop-color="#464848"/>
</linearGradient>
<linearGradient id="paint1_linear_301_4176" x1="37.6199" y1="33.6811" x2="13.414" y2="90.285" gradientUnits="userSpaceOnUse">
<stop stop-color="#51637F"/>
<stop offset="1" stop-color="#464848"/>
</linearGradient>
<linearGradient id="paint2_linear_301_4176" x1="38.2391" y1="59.0685" x2="-8.98663" y2="-0.711305" gradientUnits="userSpaceOnUse">
<stop stop-color="#ACAFB4"/>
<stop offset="1" stop-color="#AAADB2"/>
</linearGradient>
<linearGradient id="paint3_linear_301_4176" x1="53.0557" y1="8.38064" x2="33.7522" y2="53.5212" gradientUnits="userSpaceOnUse">
<stop stop-color="#51637F"/>
<stop offset="1" stop-color="#464848"/>
</linearGradient>
<linearGradient id="paint4_linear_301_4176" x1="59.697" y1="11.2213" x2="40.3936" y2="56.3619" gradientUnits="userSpaceOnUse">
<stop stop-color="#51637F"/>
<stop offset="1" stop-color="#464848"/>
</linearGradient>
<linearGradient id="paint5_linear_301_4176" x1="60.1917" y1="31.4674" x2="22.5307" y2="-16.2055" gradientUnits="userSpaceOnUse">
<stop stop-color="#ACAFB4"/>
<stop offset="1" stop-color="#AAADB2"/>
</linearGradient>
<linearGradient id="paint6_linear_301_4176" x1="75.0622" y1="83.0351" x2="131.668" y2="83.0351" gradientUnits="userSpaceOnUse">
<stop stop-color="#8195C2"/>
<stop offset="1" stop-color="#56729A"/>
</linearGradient>
<linearGradient id="paint7_linear_301_4176" x1="151.988" y1="60.6707" x2="127.227" y2="127.092" gradientUnits="userSpaceOnUse">
<stop stop-color="#90ACD7"/>
<stop offset="1" stop-color="#6B86B7"/>
</linearGradient>
<linearGradient id="paint8_linear_301_4176" x1="107.072" y1="129.839" x2="140.914" y2="129.839" gradientUnits="userSpaceOnUse">
<stop stop-color="#ACAFB4"/>
<stop offset="1" stop-color="#AAADB2"/>
</linearGradient>
<linearGradient id="paint9_linear_301_4176" x1="4.51367" y1="102.877" x2="110.388" y2="102.877" gradientUnits="userSpaceOnUse">
<stop stop-color="#355178"/>
<stop offset="1" stop-color="#262648"/>
</linearGradient>
<linearGradient id="paint10_linear_301_4176" x1="8.86328" y1="102.182" x2="106.809" y2="102.182" gradientUnits="userSpaceOnUse">
<stop stop-color="#90ACD7"/>
<stop offset="1" stop-color="#6B86B7"/>
</linearGradient>
<linearGradient id="paint11_linear_301_4176" x1="4.51367" y1="143.613" x2="164.009" y2="143.613" gradientUnits="userSpaceOnUse">
<stop stop-color="#355178"/>
<stop offset="1" stop-color="#262648"/>
</linearGradient>
<linearGradient id="paint12_linear_301_4176" x1="90.3665" y1="36.1054" x2="30.7365" y2="159.341" gradientUnits="userSpaceOnUse">
<stop stop-color="white"/>
<stop offset="1" stop-color="#EBEEEE"/>
</linearGradient>
<linearGradient id="paint13_linear_301_4176" x1="42.3585" y1="-25.9169" x2="27.7499" y2="279.44" gradientUnits="userSpaceOnUse">
<stop stop-color="#8195C2"/>
<stop offset="1" stop-color="#56729A"/>
</linearGradient>
<linearGradient id="paint14_linear_301_4176" x1="53.5996" y1="-25.3794" x2="38.991" y2="279.977" gradientUnits="userSpaceOnUse">
<stop stop-color="#8195C2"/>
<stop offset="1" stop-color="#56729A"/>
</linearGradient>
<linearGradient id="paint15_linear_301_4176" x1="64.1058" y1="-24.8766" x2="49.4973" y2="280.48" gradientUnits="userSpaceOnUse">
<stop stop-color="#8195C2"/>
<stop offset="1" stop-color="#56729A"/>
</linearGradient>
<linearGradient id="paint16_linear_301_4176" x1="75.0116" y1="-24.3547" x2="60.403" y2="281.003" gradientUnits="userSpaceOnUse">
<stop stop-color="#8195C2"/>
<stop offset="1" stop-color="#56729A"/>
</linearGradient>
<linearGradient id="paint17_linear_301_4176" x1="85.6704" y1="-23.8455" x2="71.0618" y2="281.513" gradientUnits="userSpaceOnUse">
<stop stop-color="#8195C2"/>
<stop offset="1" stop-color="#56729A"/>
</linearGradient>
<linearGradient id="paint18_linear_301_4176" x1="95.5696" y1="-23.3717" x2="80.9609" y2="281.986" gradientUnits="userSpaceOnUse">
<stop stop-color="#8195C2"/>
<stop offset="1" stop-color="#56729A"/>
</linearGradient>
<linearGradient id="paint19_linear_301_4176" x1="106.488" y1="-22.8492" x2="91.8795" y2="282.508" gradientUnits="userSpaceOnUse">
<stop stop-color="#8195C2"/>
<stop offset="1" stop-color="#56729A"/>
</linearGradient>
<linearGradient id="paint20_linear_301_4176" x1="116.021" y1="-22.3929" x2="101.412" y2="282.964" gradientUnits="userSpaceOnUse">
<stop stop-color="#8195C2"/>
<stop offset="1" stop-color="#56729A"/>
</linearGradient>
<linearGradient id="paint21_linear_301_4176" x1="80.4057" y1="-24.097" x2="65.7972" y2="281.261" gradientUnits="userSpaceOnUse">
<stop stop-color="#8195C2"/>
<stop offset="1" stop-color="#56729A"/>
</linearGradient>
<linearGradient id="paint22_linear_301_4176" x1="81.7813" y1="-24.0327" x2="67.1725" y2="281.328" gradientUnits="userSpaceOnUse">
<stop stop-color="#8195C2"/>
<stop offset="1" stop-color="#56729A"/>
</linearGradient>
<linearGradient id="paint23_linear_301_4176" x1="57.0023" y1="-25.2172" x2="42.3936" y2="280.143" gradientUnits="userSpaceOnUse">
<stop stop-color="#8195C2"/>
<stop offset="1" stop-color="#56729A"/>
</linearGradient>
<linearGradient id="paint24_linear_301_4176" x1="56.0286" y1="-25.2635" x2="41.42" y2="280.094" gradientUnits="userSpaceOnUse">
<stop stop-color="#8195C2"/>
<stop offset="1" stop-color="#56729A"/>
</linearGradient>
<linearGradient id="paint25_linear_301_4176" x1="56.2394" y1="-25.2535" x2="41.6307" y2="280.105" gradientUnits="userSpaceOnUse">
<stop stop-color="#8195C2"/>
<stop offset="1" stop-color="#56729A"/>
</linearGradient>
<linearGradient id="paint26_linear_301_4176" x1="99.2884" y1="-23.196" x2="84.6793" y2="282.168" gradientUnits="userSpaceOnUse">
<stop stop-color="#8195C2"/>
<stop offset="1" stop-color="#56729A"/>
</linearGradient>
<linearGradient id="paint27_linear_301_4176" x1="99.5485" y1="-23.1818" x2="84.94" y2="282.176" gradientUnits="userSpaceOnUse">
<stop stop-color="#8195C2"/>
<stop offset="1" stop-color="#56729A"/>
</linearGradient>
<linearGradient id="paint28_linear_301_4176" x1="99.8125" y1="-23.1687" x2="85.204" y2="282.189" gradientUnits="userSpaceOnUse">
<stop stop-color="#8195C2"/>
<stop offset="1" stop-color="#56729A"/>
</linearGradient>
<linearGradient id="paint29_linear_301_4176" x1="121.217" y1="130.52" x2="122.533" y2="146.757" gradientUnits="userSpaceOnUse">
<stop stop-color="#142344"/>
<stop offset="1" stop-color="#515F85"/>
</linearGradient>
<linearGradient id="paint30_linear_301_4176" x1="124.532" y1="139.553" x2="124.258" y2="122.734" gradientUnits="userSpaceOnUse">
<stop stop-color="#CACDD2"/>
<stop offset="1" stop-color="#96999D"/>
</linearGradient>
<linearGradient id="paint31_linear_301_4176" x1="145.31" y1="128.567" x2="146.627" y2="144.803" gradientUnits="userSpaceOnUse">
<stop stop-color="#142344"/>
<stop offset="1" stop-color="#515F85"/>
</linearGradient>
<linearGradient id="paint32_linear_301_4176" x1="146.616" y1="139.195" x2="146.342" y2="122.375" gradientUnits="userSpaceOnUse">
<stop stop-color="#CACDD2"/>
<stop offset="1" stop-color="#96999D"/>
</linearGradient>
<linearGradient id="paint33_linear_301_4176" x1="120.453" y1="112.315" x2="132.881" y2="112.284" gradientUnits="userSpaceOnUse">
<stop stop-color="#355178"/>
<stop offset="1" stop-color="#3F416C"/>
</linearGradient>
<linearGradient id="paint34_linear_301_4176" x1="120.454" y1="112.315" x2="132.882" y2="112.285" gradientUnits="userSpaceOnUse">
<stop stop-color="#355178"/>
<stop offset="1" stop-color="#3F416C"/>
</linearGradient>
<linearGradient id="paint35_linear_301_4176" x1="123.901" y1="111.081" x2="148.921" y2="111.019" gradientUnits="userSpaceOnUse">
<stop stop-color="#355178"/>
<stop offset="1" stop-color="#3F416C"/>
</linearGradient>
<linearGradient id="paint36_linear_301_4176" x1="87.805" y1="127.087" x2="167.283" y2="42.2579" gradientUnits="userSpaceOnUse">
<stop stop-color="#CACDD2"/>
<stop offset="1" stop-color="#96999D"/>
</linearGradient>
<linearGradient id="paint37_linear_301_4176" x1="138.229" y1="60.3807" x2="135.57" y2="83.8172" gradientUnits="userSpaceOnUse">
<stop stop-color="#CACDD2"/>
<stop offset="1" stop-color="#96999D"/>
</linearGradient>
<linearGradient id="paint38_linear_301_4176" x1="139.712" y1="59.3167" x2="135.963" y2="48.2904" gradientUnits="userSpaceOnUse">
<stop stop-color="#355178"/>
<stop offset="1" stop-color="#3F416C"/>
</linearGradient>
<linearGradient id="paint39_linear_301_4176" x1="136.576" y1="51.1856" x2="138.665" y2="68.4546" gradientUnits="userSpaceOnUse">
<stop stop-color="#CACDD2"/>
<stop offset="1" stop-color="#96999D"/>
</linearGradient>
<linearGradient id="paint40_linear_301_4176" x1="106.15" y1="78.3963" x2="126.278" y2="78.3963" gradientUnits="userSpaceOnUse">
<stop stop-color="#CACDD2"/>
<stop offset="1" stop-color="#96999D"/>
</linearGradient>
<linearGradient id="paint41_linear_301_4176" x1="104.296" y1="83.6807" x2="96.9952" y2="98.4767" gradientUnits="userSpaceOnUse">
<stop stop-color="#CACDD2"/>
<stop offset="1" stop-color="#96999D"/>
</linearGradient>
<linearGradient id="paint42_linear_301_4176" x1="96.7974" y1="135.513" x2="176.275" y2="50.6835" gradientUnits="userSpaceOnUse">
<stop stop-color="#CACDD2"/>
<stop offset="1" stop-color="#96999D"/>
</linearGradient>
<linearGradient id="paint43_linear_301_4176" x1="118.948" y1="84.7848" x2="160.243" y2="84.7848" gradientUnits="userSpaceOnUse">
<stop stop-color="#CACDD2"/>
<stop offset="1" stop-color="#96999D"/>
</linearGradient>
<linearGradient id="paint44_linear_301_4176" x1="98.0098" y1="87.8199" x2="149.272" y2="87.8199" gradientUnits="userSpaceOnUse">
<stop stop-color="#355178"/>
<stop offset="1" stop-color="#262648"/>
</linearGradient>
<linearGradient id="paint45_linear_301_4176" x1="50.7309" y1="71.6274" x2="103.625" y2="71.6274" gradientUnits="userSpaceOnUse">
<stop stop-color="#355178"/>
<stop offset="1" stop-color="#262648"/>
</linearGradient>
<linearGradient id="paint46_linear_301_4176" x1="69.9813" y1="101.382" x2="78.5014" y2="62.2932" gradientUnits="userSpaceOnUse">
<stop stop-color="#355178"/>
<stop offset="1" stop-color="#262648"/>
</linearGradient>
<linearGradient id="paint47_linear_301_4176" x1="82.6363" y1="44.1764" x2="70.7462" y2="96.5983" gradientUnits="userSpaceOnUse">
<stop stop-color="#355178"/>
<stop offset="1" stop-color="#262648"/>
</linearGradient>
<linearGradient id="paint48_linear_301_4176" x1="146.468" y1="97.4501" x2="148.552" y2="92.077" gradientUnits="userSpaceOnUse">
<stop stop-color="#CACDD2"/>
<stop offset="1" stop-color="#96999D"/>
</linearGradient>
</defs>
</svg>
