<svg width="11" height="17" viewBox="0 0 11 17" fill="none" xmlns="http://www.w3.org/2000/svg">
<path d="M6.01144 0.5C6.64486 0.695135 7.31259 0.818238 7.906 1.09836C10.5761 2.35988 11.7416 5.75073 10.354 8.35265C9.43697 10.0723 8.38355 11.7191 7.38843 13.3968C6.92956 14.1705 6.4665 14.9419 6.00115 15.7121C5.7355 16.152 5.35819 16.1577 5.08798 15.7228C3.67287 13.4479 2.24137 11.1829 0.853322 8.89156C-0.80723 6.15129 0.0243805 2.85229 2.75169 1.22947C3.34015 0.879217 3.98082 0.668456 4.65731 0.563267C4.74573 0.549546 4.83148 0.521343 4.91876 0.5C5.28235 0.5 5.6467 0.5 6.01144 0.5ZM8.1987 5.97559C8.20404 4.48807 6.98063 3.25018 5.48739 3.23265C3.99301 3.21474 2.73531 4.4591 2.73035 5.95996C2.7254 7.46273 3.96938 8.70634 5.47215 8.701C6.96615 8.69528 8.19337 7.46921 8.1987 5.97559Z" fill="#313654"/>
</svg>
