<svg width="138" height="138" viewBox="0 0 138 138" fill="none" xmlns="http://www.w3.org/2000/svg">
<path d="M131.866 68.837C131.945 33.8553 103.673 5.43276 68.7173 5.35339C33.7619 5.27402 5.36061 33.5679 5.2813 68.5495C5.20199 103.531 33.4747 131.954 68.4301 132.033C103.386 132.112 131.787 103.819 131.866 68.837Z" fill="url(#paint0_radial_3_3158)"/>
<path d="M69 -3.01609e-06C107.108 -4.68182e-06 138 30.8923 138 69C138 107.108 107.108 138 69 138C30.8924 138 -1.35035e-06 107.108 -3.01609e-06 69C-4.68182e-06 30.8923 30.8923 -1.35035e-06 69 -3.01609e-06ZM69 131.1C103.297 131.1 131.1 103.297 131.1 69C131.1 34.7031 103.297 6.89999 69 6.89999C34.7031 6.89999 6.9 34.7031 6.9 69C6.9 103.297 34.7031 131.1 69 131.1Z" fill="#D9D9D9"/>
<path d="M69 -3.01609e-06C107.108 -4.68182e-06 138 30.8923 138 69C138 107.108 107.108 138 69 138C30.8924 138 -1.35035e-06 107.108 -3.01609e-06 69C-4.68182e-06 30.8923 30.8923 -1.35035e-06 69 -3.01609e-06ZM69 131.1C103.297 131.1 131.1 103.297 131.1 69C131.1 34.7031 103.297 6.89999 69 6.89999C34.7031 6.89999 6.9 34.7031 6.9 69C6.9 103.297 34.7031 131.1 69 131.1Z" fill="#5D7BAB"/>
<path d="M68.5 127C100.256 127 126 101.033 126 69C126 36.9675 100.256 11 68.5 11C36.7436 11 11 36.9675 11 69C11 101.033 36.7436 127 68.5 127Z" stroke="#D1D3D4" stroke-miterlimit="10"/>
<defs>
<radialGradient id="paint0_radial_3_3158" cx="0" cy="0" r="1" gradientUnits="userSpaceOnUse" gradientTransform="translate(125.301 32.3987) rotate(90) scale(222.25 222.083)">
<stop stop-color="white"/>
<stop offset="1" stop-color="#D1D3D4"/>
</radialGradient>
</defs>
</svg>
