<svg width="55" height="55" viewBox="0 0 55 55" fill="none" xmlns="http://www.w3.org/2000/svg">
<path d="M50.3021 19.9856L50.2448 19.6006L50.1852 19.6144C49.778 17.7101 48.8399 15.96 47.4795 14.5666C46.1191 13.1732 44.392 12.1935 42.498 11.7408C40.604 11.2881 38.6206 11.381 36.7771 12.0086C34.9337 12.6362 33.3056 13.7729 32.0813 15.2872C30.857 16.8015 30.0865 18.6316 29.8589 20.5656C29.6313 22.4996 29.9559 24.4585 30.7953 26.2157C31.6346 27.9728 32.9543 29.4564 34.6017 30.4948C36.2491 31.5332 38.1568 32.084 40.1042 32.0833C40.6152 32.0833 41.1056 32.0054 41.5938 31.9344C41.4356 32.466 41.2729 33.0069 41.0117 33.4927C40.7504 34.1985 40.3425 34.8104 39.9369 35.4269C39.5977 36.0937 38.9996 36.5452 38.5596 37.1158C38.099 37.6704 37.471 38.0394 36.9738 38.5C36.4856 38.9812 35.8463 39.2219 35.3375 39.561C34.8058 39.8658 34.3429 40.2027 33.8479 40.3631L32.6127 40.8719L31.5265 41.3233L32.6356 45.7669L34.0038 45.4369C34.4415 45.3269 34.9754 45.1985 35.5827 45.045C36.2038 44.9304 36.866 44.6164 37.604 44.33C38.3304 44.0023 39.176 43.7846 39.9598 43.2598C40.7481 42.7602 41.6579 42.3431 42.46 41.6739C43.2369 40.9841 44.1742 40.386 44.8663 39.5106C45.6225 38.6902 46.3696 37.8285 46.9494 36.8477C47.6208 35.9127 48.0769 34.886 48.5581 33.8708C48.9935 32.8556 49.3442 31.8175 49.6306 30.8091C50.1738 28.7879 50.4167 26.8675 50.5106 25.2244C50.5885 23.5789 50.5427 22.2108 50.4465 21.2208C50.4143 20.8074 50.3661 20.3953 50.3021 19.9856V19.9856ZM25.0938 19.9856L25.0365 19.6006L24.9769 19.6144C24.5697 17.7101 23.6316 15.96 22.2712 14.5666C20.9108 13.1732 19.1837 12.1935 17.2897 11.7408C15.3957 11.2881 13.4122 11.381 11.5688 12.0086C9.72537 12.6362 8.0973 13.7729 6.87298 15.2872C5.64866 16.8015 4.87813 18.6316 4.65054 20.5656C4.42295 22.4996 4.74761 24.4585 5.58694 26.2157C6.42628 27.9728 7.74599 29.4564 9.39338 30.4948C11.0408 31.5332 12.9485 32.084 14.8958 32.0833C15.4069 32.0833 15.8973 32.0054 16.3854 31.9344C16.2273 32.466 16.0646 33.0069 15.8033 33.4927C15.5421 34.1985 15.1342 34.8104 14.7285 35.4269C14.3894 36.0937 13.7913 36.5452 13.3513 37.1158C12.8906 37.6704 12.2627 38.0394 11.7654 38.5C11.2773 38.9812 10.6379 39.2219 10.1292 39.561C9.59751 39.8658 9.13459 40.2027 8.63959 40.3631L7.40438 40.8719C6.71459 41.1537 6.32042 41.3187 6.32042 41.3187L7.42959 45.7623L8.79771 45.4323C9.23542 45.3223 9.76938 45.1939 10.3767 45.0404C10.9977 44.9258 11.66 44.6119 12.3979 44.3254C13.1244 43.9977 13.97 43.78 14.7538 43.2552C15.5421 42.7556 16.4519 42.3385 17.254 41.6694C18.0308 40.9796 18.9681 40.3814 19.6602 39.506C20.4165 38.6856 21.1635 37.8239 21.7433 36.8431C22.4148 35.9081 22.8708 34.8814 23.3521 33.8662C23.7875 32.851 24.1381 31.8129 24.4246 30.8046C24.9677 28.7833 25.2106 26.8629 25.3046 25.2198C25.3825 23.5744 25.3367 22.2062 25.2404 21.2162C25.2062 20.8044 25.1573 20.3939 25.0938 19.9856V19.9856Z" fill="#313654"/>
</svg>
