<svg width="50" height="50" viewBox="0 0 50 50" fill="none" xmlns="http://www.w3.org/2000/svg">
<path d="M25 0C11.1942 0 0 11.1942 0 25C0 38.8058 11.1942 50 25 50C38.8058 50 50 38.8058 50 25C50 11.1942 38.8058 0 25 0ZM34.2299 34.4978L30.5469 34.481L25 27.8683L19.4587 34.4754L15.7701 34.4922C15.5246 34.4922 15.3237 34.2969 15.3237 34.0458C15.3237 33.9397 15.3627 33.8393 15.4297 33.7556L22.6897 25.106L15.4297 16.4621C15.3623 16.3803 15.3248 16.2779 15.3237 16.1719C15.3237 15.9263 15.5246 15.7254 15.7701 15.7254L19.4587 15.7422L25 22.3549L30.5413 15.7478L34.2243 15.731C34.4699 15.731 34.6708 15.9263 34.6708 16.1775C34.6708 16.2835 34.6317 16.3839 34.5647 16.4676L27.3158 25.1116L34.5703 33.7612C34.6373 33.8449 34.6763 33.9453 34.6763 34.0513C34.6763 34.2969 34.4754 34.4978 34.2299 34.4978Z" fill="white"/>
</svg>
