<svg width="224" height="234" viewBox="0 0 224 234" fill="none" xmlns="http://www.w3.org/2000/svg">
<path d="M91.1849 132.352C89.2456 135.9 88.2982 137.475 88.058 137.559C87.8688 137.629 84.9453 138.011 81.5506 138.427C78.1725 138.843 75.368 139.2 75.3311 139.248C75.261 139.293 77.1235 140.913 82.4667 145.44L84.8225 147.43L84.6526 148.422C84.5464 148.984 84.0992 151.548 83.6341 154.128C83.1691 156.708 82.8021 158.842 82.8331 158.878C82.8653 158.897 85.5091 157.725 88.6929 156.257L94.5061 153.582L99.1936 155.752C106.492 159.142 106.426 159.121 106.349 158.781C106.31 158.627 105.756 156.01 105.129 153.002L104.552 150.249L94.9594 143.066L106.3 145.474L108.627 143.451C111.193 141.236 113.281 139.39 113.249 139.371C113.186 139.316 101.803 137.833 100.986 137.776L100.22 137.723L97.2035 132.488C95.5461 129.61 94.1371 127.251 94.0871 127.247C94.0204 127.242 92.7207 129.546 91.1849 132.352Z" fill="white" fill-opacity="0.3"/>
<path d="M145.481 197.94C143.057 202.375 141.873 204.344 141.572 204.448C141.336 204.536 137.682 205.014 133.438 205.533C129.216 206.054 125.71 206.5 125.664 206.559C125.576 206.616 127.904 208.642 134.583 214.299L137.528 216.787L137.316 218.028C137.183 218.73 136.624 221.935 136.043 225.16C135.461 228.385 135.003 231.053 135.041 231.097C135.082 231.121 138.386 229.657 142.366 227.821L149.633 224.478L155.492 227.19C164.614 231.428 164.533 231.401 164.437 230.976C164.387 230.784 163.695 227.512 162.912 223.753L162.189 220.311L150.199 211.332L164.375 214.342L167.284 211.814C170.491 209.045 173.102 206.737 173.061 206.713C172.983 206.645 158.754 204.792 157.733 204.72L156.775 204.653L153.004 198.11C150.933 194.512 149.171 191.563 149.109 191.559C149.026 191.553 147.401 194.432 145.481 197.94Z" fill="white" fill-opacity="0.3"/>
<path d="M195.481 73.9401C193.057 78.3754 191.873 80.3438 191.572 80.4484C191.336 80.5365 187.682 81.0135 183.438 81.5331C179.216 82.0541 175.71 82.4997 175.664 82.5593C175.576 82.6159 177.904 84.6416 184.583 90.2995L187.528 92.7869L187.316 94.0279C187.183 94.7302 186.624 97.9354 186.043 101.16C185.461 104.385 185.003 107.053 185.041 107.097C185.082 107.121 188.386 105.657 192.366 103.821L199.633 100.478L205.492 103.19C214.614 107.428 214.533 107.401 214.437 106.976C214.387 106.784 213.695 103.512 212.912 99.7527L212.189 96.3114L200.199 87.332L214.375 90.342L217.284 87.8139C220.491 85.0451 223.102 82.7368 223.061 82.7131C222.983 82.6448 208.754 80.7916 207.733 80.7203L206.775 80.6533L203.004 74.1104C200.933 70.5119 199.171 67.5631 199.109 67.5587C199.026 67.5529 197.401 70.4324 195.481 73.9401Z" fill="white" fill-opacity="0.3"/>
<path d="M181.777 9.52803C178.868 14.8503 177.447 17.2124 177.087 17.3379C176.803 17.4437 172.418 18.0161 167.326 18.6396C162.259 19.2649 158.052 19.7996 157.997 19.871C157.891 19.939 160.685 22.3698 168.7 29.1593L172.234 32.1441L171.979 33.6333C171.82 34.4762 171.149 38.3224 170.451 42.1919C169.754 46.0613 169.203 49.2629 169.25 49.3164C169.298 49.3449 173.264 47.5877 178.039 45.3849L186.759 41.3731L193.79 44.6276C204.737 49.7132 204.639 49.6813 204.524 49.1709C204.465 48.9407 203.634 45.0146 202.694 40.5031L201.827 36.3736L187.439 25.5983L204.451 29.2103L207.94 26.1766C211.79 22.854 214.922 20.0841 214.874 20.0556C214.779 19.9736 197.704 17.7499 196.48 17.6642L195.33 17.5838L190.805 9.73233C188.319 5.41418 186.206 1.87559 186.131 1.87035C186.031 1.86336 184.081 5.31876 181.777 9.52803Z" fill="white" fill-opacity="0.3"/>
<path d="M73.1849 28.3522C71.2456 31.9004 70.2982 33.4751 70.058 33.5588C69.8688 33.6293 66.9453 34.0109 63.5506 34.4266C60.1725 34.8434 57.368 35.1999 57.3311 35.2475C57.261 35.2929 59.1235 36.9134 64.4667 41.4397L66.8225 43.4296L66.6526 44.4224C66.5464 44.9843 66.0992 47.5484 65.6341 50.1281C65.1691 52.7077 64.8021 54.8421 64.8331 54.8778C64.8653 54.8968 67.5091 53.7253 70.6929 52.2567L76.5061 49.5822L81.1936 51.7519C88.4916 55.1423 88.4261 55.121 88.3494 54.7807C88.3099 54.6273 87.7562 52.0099 87.1293 49.0022L86.5515 46.2492L76.9594 39.0657L88.3004 41.4737L90.627 39.4512C93.1931 37.2362 95.2814 35.3896 95.2492 35.3706C95.186 35.3159 83.8029 33.8334 82.9864 33.7763L82.2199 33.7227L79.2035 28.4884C77.5461 25.6096 76.1371 23.2506 76.0871 23.2471C76.0204 23.2424 74.7207 25.546 73.1849 28.3522Z" fill="white" fill-opacity="0.3"/>
<path d="M27.2514 87.2407C24.1761 92.8674 22.6738 95.3646 22.2928 95.4973C21.9929 95.6091 17.3568 96.2143 11.9735 96.8734C6.61666 97.5344 2.16928 98.0997 2.11089 98.1752C1.99965 98.2471 4.95325 100.817 13.4263 107.995L17.1621 111.15L16.8927 112.725C16.7242 113.616 16.015 117.682 15.2776 121.772C14.5401 125.863 13.9582 129.248 14.0074 129.304C14.0584 129.335 18.2509 127.477 23.2996 125.148L32.5181 120.907L39.9514 124.348C51.5244 129.724 51.4206 129.69 51.299 129.151C51.2363 128.907 50.3582 124.757 49.3641 119.987L48.4479 115.621L33.237 104.23L51.2212 108.049L54.9107 104.841C58.98 101.329 62.2915 98.4005 62.2405 98.3704C62.1403 98.2837 44.0892 95.9327 42.7944 95.8422L41.5789 95.7572L36.7955 87.4567C34.1673 82.8917 31.9329 79.1507 31.8536 79.1452C31.7479 79.1378 29.6869 82.7908 27.2514 87.2407Z" fill="white" fill-opacity="0.3"/>
<path d="M112.481 51.9401C110.057 56.3754 108.873 58.3438 108.572 58.4484C108.336 58.5365 104.682 59.0135 100.438 59.5331C96.2156 60.0541 92.71 60.4997 92.6639 60.5593C92.5762 60.6159 94.9044 62.6416 101.583 68.2995L104.528 70.7869L104.316 72.0279C104.183 72.7302 103.624 75.9354 103.043 79.16C102.461 82.3845 102.003 85.0525 102.041 85.0971C102.082 85.1208 105.386 83.6565 109.366 81.8208L116.633 78.4777L122.492 81.1898C131.614 85.4278 131.533 85.4011 131.437 84.9758C131.387 84.784 130.695 81.5122 129.912 77.7527L129.189 74.3114L117.199 65.332L131.375 68.342L134.284 65.8139C137.491 63.0451 140.102 60.7368 140.061 60.7131C139.983 60.6448 125.754 58.7916 124.733 58.7203L123.775 58.6533L120.004 52.1104C117.933 48.5119 116.171 45.5631 116.109 45.5587C116.026 45.5529 114.401 48.4324 112.481 51.9401Z" fill="white" fill-opacity="0.3"/>
<path d="M52.4811 175.94C50.057 180.375 48.8728 182.344 48.5724 182.448C48.336 182.536 44.6817 183.014 40.4382 183.533C36.2156 184.054 32.71 184.5 32.6639 184.559C32.5762 184.616 34.9044 186.642 41.5834 192.299L44.5282 194.787L44.3158 196.028C44.183 196.73 43.6239 199.935 43.0426 203.16C42.4613 206.385 42.0027 209.053 42.0414 209.097C42.0816 209.121 45.3864 207.657 49.3661 205.821L56.6326 202.478L62.492 205.19C71.6145 209.428 71.5326 209.401 71.4368 208.976C71.3874 208.784 70.6952 205.512 69.9116 201.753L69.1894 198.311L57.1993 189.332L71.3755 192.342L74.2837 189.814C77.4914 187.045 80.1017 184.737 80.0615 184.713C79.9825 184.645 65.7536 182.792 64.733 182.72L63.7748 182.653L60.0043 176.11C57.9326 172.512 56.1713 169.563 56.1088 169.559C56.0255 169.553 54.4009 172.432 52.4811 175.94Z" fill="white" fill-opacity="0.3"/>
</svg>
