<svg width="71" height="31" viewBox="0 0 71 31" fill="none" xmlns="http://www.w3.org/2000/svg">
<path d="M1.80469 29.5628H2.47017C2.4857 29.6973 2.55691 29.8059 2.68379 29.8887C2.81067 29.9715 2.96733 30.0129 3.15247 30.0129C3.33503 30.0129 3.48522 29.9741 3.60044 29.8952C3.71567 29.8163 3.77264 29.7167 3.77264 29.5951C3.77264 29.489 3.72991 29.4024 3.64446 29.3364C3.55901 29.2704 3.4166 29.2161 3.21592 29.1721L2.78607 29.079C2.18015 28.9496 1.87719 28.6418 1.87719 28.158C1.87719 27.8566 1.99501 27.6121 2.23064 27.4259C2.46628 27.2396 2.76924 27.1465 3.14082 27.1465C3.52276 27.1465 3.82702 27.237 4.05359 27.4168C4.28146 27.5979 4.39798 27.8385 4.40316 28.1386H3.75581C3.74545 28.0002 3.6833 27.8903 3.57196 27.8101C3.45932 27.7299 3.3169 27.6898 3.14341 27.6898C2.97251 27.6898 2.83527 27.7273 2.7304 27.8023C2.62553 27.8773 2.57374 27.9756 2.57374 28.0972C2.57374 28.1981 2.61647 28.2796 2.70062 28.3417C2.78478 28.4038 2.92331 28.4581 3.11364 28.5021L3.5137 28.5862C3.84514 28.656 4.08596 28.766 4.23744 28.9147C4.38892 29.0635 4.46401 29.2627 4.46401 29.5149C4.46401 29.8344 4.34361 30.0892 4.10279 30.2781C3.86198 30.4669 3.53571 30.5601 3.12529 30.5601C2.72652 30.5601 2.41061 30.4708 2.17497 30.2936C1.93804 30.1164 1.81505 29.8719 1.80469 29.5628Z" fill="white"/>
<path d="M6.63206 29.1693H5.12891V28.5859H6.63206V29.1693V29.1693Z" fill="white"/>
<path d="M9.0319 30.503H8.19941L7.08984 27.2046H7.86408L8.61889 29.7929H8.63443L9.38924 27.2046H10.1428L9.0319 30.503Z" fill="white"/>
<path d="M11.4062 30.503H10.7148V27.2046H11.4062V30.503Z" fill="white"/>
<path d="M13.6807 30.503H12.9893V27.7737H12.0234V27.2046H14.6478V27.7737H13.6794V30.503H13.6807Z" fill="white"/>
<path d="M16.9826 30.503L16.7314 29.7024H15.5713L15.3189 30.503H14.6094L15.7565 27.2046H16.5683L17.7167 30.503H16.9826ZM16.1423 27.8345L15.7189 29.1862H16.5812L16.1578 27.8345H16.1423Z" fill="white"/>
<path d="M20.9885 30.5599C20.5069 30.5599 20.1249 30.4085 19.8453 30.1033C19.5656 29.7993 19.4258 29.3815 19.4258 28.8512C19.4258 28.3221 19.5656 27.9056 19.8466 27.6016C20.1275 27.2977 20.5082 27.145 20.9885 27.145C21.2513 27.145 21.4895 27.1968 21.7032 27.3002C21.9181 27.4037 22.089 27.5499 22.2198 27.7387C22.3492 27.9276 22.423 28.1436 22.4399 28.3855H21.7666C21.7342 28.1824 21.6475 28.0207 21.5038 27.8991C21.3614 27.7775 21.1892 27.7168 20.9872 27.7168C20.7257 27.7168 20.5185 27.8189 20.3631 28.0233C20.2078 28.2277 20.1301 28.5032 20.1301 28.8486C20.1301 29.2004 20.2065 29.4785 20.3619 29.6816C20.5159 29.8847 20.7257 29.9869 20.9911 29.9869C21.1956 29.9869 21.3665 29.9299 21.5064 29.8174C21.6449 29.7049 21.7329 29.5509 21.7692 29.3556H22.4424C22.4049 29.723 22.2534 30.0153 21.9919 30.2326C21.7278 30.4512 21.3937 30.5599 20.9885 30.5599Z" fill="white"/>
<path d="M23.4285 27.6057C23.7147 27.2991 24.1031 27.1465 24.5925 27.1465C25.0819 27.1465 25.4703 27.2991 25.7564 27.6057C26.0426 27.9122 26.185 28.3275 26.185 28.8539C26.185 29.3778 26.0413 29.793 25.7551 30.0996C25.4677 30.4061 25.0806 30.5588 24.5925 30.5588C24.1031 30.5588 23.7147 30.4061 23.4285 30.0996C23.1424 29.793 23 29.3778 23 28.8539C23 28.3288 23.1424 27.9122 23.4285 27.6057ZM25.2385 28.0287C25.078 27.8243 24.8631 27.7221 24.5938 27.7221C24.3245 27.7221 24.1083 27.8243 23.9477 28.0287C23.7872 28.233 23.7056 28.5086 23.7056 28.8539C23.7056 29.198 23.7859 29.4722 23.9464 29.6753C24.107 29.8784 24.3232 29.9806 24.5938 29.9806C24.8631 29.9806 25.0793 29.8784 25.2385 29.6753C25.3991 29.4722 25.4794 29.198 25.4794 28.8539C25.4781 28.5086 25.3978 28.233 25.2385 28.0287Z" fill="white"/>
<path d="M27.521 30.503H26.8594V27.2046H27.4355L28.9775 29.3531H28.9956V27.2046H29.6572V30.503H29.085L27.5404 28.3429H27.5197V30.503H27.521Z" fill="white"/>
<path d="M30.3203 29.5628H30.9858C31.0013 29.6973 31.0725 29.8059 31.1994 29.8887C31.3263 29.9715 31.483 30.0129 31.6681 30.0129C31.8507 30.0129 32.0008 29.9741 32.1161 29.8952C32.2313 29.8163 32.2883 29.7167 32.2883 29.5951C32.2883 29.489 32.2455 29.4024 32.1601 29.3364C32.0746 29.2704 31.9322 29.2161 31.7315 29.1721L31.3017 29.079C30.6958 28.9496 30.3928 28.6418 30.3928 28.158C30.3928 27.8566 30.5106 27.6121 30.7463 27.4259C30.9819 27.2396 31.2849 27.1465 31.6564 27.1465C32.0384 27.1465 32.3426 27.237 32.5692 27.4168C32.7971 27.5979 32.9136 27.8385 32.9188 28.1386H32.2714C32.2611 28.0002 32.1989 27.8903 32.0876 27.8101C31.9749 27.7299 31.8325 27.6898 31.659 27.6898C31.4881 27.6898 31.3509 27.7273 31.246 27.8023C31.1412 27.8773 31.0894 27.9756 31.0894 28.0972C31.0894 28.1981 31.1321 28.2796 31.2162 28.3417C31.3004 28.4038 31.4389 28.4581 31.6293 28.5021L32.0293 28.5862C32.3608 28.656 32.6016 28.766 32.7531 28.9147C32.9045 29.0635 32.9796 29.2627 32.9796 29.5149C32.9796 29.8344 32.8592 30.0892 32.6184 30.2781C32.3776 30.4669 32.0513 30.5601 31.6409 30.5601C31.2421 30.5601 30.9262 30.4708 30.6906 30.2936C30.4537 30.1164 30.3307 29.8719 30.3203 29.5628Z" fill="white"/>
<path d="M34.3281 27.2031V29.2676C34.3281 29.4823 34.3889 29.653 34.5106 29.7785C34.6323 29.904 34.802 29.9674 35.0221 29.9674C35.2409 29.9674 35.4105 29.9053 35.5309 29.7785C35.6526 29.653 35.7134 29.4823 35.7134 29.2676V27.2031H36.4048V29.3361C36.4048 29.7022 36.2792 29.9971 36.028 30.2222C35.7769 30.4472 35.4415 30.5598 35.0221 30.5598C34.6013 30.5598 34.2647 30.4472 34.0135 30.2222C33.7623 29.9971 33.6367 29.7022 33.6367 29.3361V27.2031H34.3281Z" fill="white"/>
<path d="M39.3225 29.9313V30.503H37.1875V27.2046H37.8789V29.9326H39.3225V29.9313Z" fill="white"/>
<path d="M41.0361 30.503H40.3448V27.7737H39.3789V27.2046H42.0033V27.7737H41.0348V30.503H41.0361Z" fill="white"/>
<path d="M43.3086 30.503H42.6172V27.2046H43.3086V30.503Z" fill="white"/>
<path d="M44.7554 30.503H44.0938V27.2046H44.6699L46.2119 29.3531H46.23V27.2046H46.8916V30.503H46.3193L44.7748 28.3429H44.7541V30.503H44.7554Z" fill="white"/>
<path d="M50.6258 29.1178C50.6258 29.5679 50.4964 29.9198 50.2374 30.1759C49.9785 30.432 49.6198 30.5601 49.1602 30.5601C48.6656 30.5601 48.2772 30.4074 47.995 30.1034C47.7114 29.7982 47.5703 29.3791 47.5703 28.8436C47.5703 28.3158 47.7114 27.9019 47.9924 27.5992C48.2733 27.2965 48.6579 27.1465 49.1447 27.1465C49.5292 27.1465 49.8555 27.25 50.1222 27.4569C50.3889 27.6639 50.5468 27.9342 50.596 28.268H49.9021C49.8516 28.0959 49.7597 27.9614 49.6263 27.8631C49.493 27.7661 49.3337 27.7169 49.1473 27.7169C48.8741 27.7169 48.6605 27.8152 48.5064 28.0118C48.3523 28.2085 48.2746 28.4827 48.2746 28.8319C48.2746 29.1889 48.3549 29.4696 48.5167 29.6753C48.6773 29.881 48.8961 29.9844 49.1719 29.9844C49.3984 29.9844 49.5823 29.9211 49.7247 29.7943C49.8671 29.6675 49.9422 29.5033 49.95 29.2976L49.9526 29.2446H49.234V28.7414H50.6258V29.1178V29.1178Z" fill="white"/>
<path d="M55.5086 29.1175C55.5086 29.5677 55.3792 29.9195 55.1215 30.1756C54.8626 30.4318 54.5039 30.5598 54.0443 30.5598C53.5497 30.5598 53.1613 30.4072 52.8778 30.1032C52.5943 29.7992 52.4531 29.3788 52.4531 28.8433C52.4531 28.3156 52.5942 27.9016 52.8752 27.599C53.1562 27.2963 53.5407 27.1462 54.0275 27.1462C54.412 27.1462 54.7383 27.2497 55.005 27.4567C55.2717 27.6636 55.4297 27.934 55.4789 28.2677H54.7849C54.7344 28.0957 54.6425 27.9612 54.5091 27.8628C54.3758 27.7658 54.2165 27.7167 54.0301 27.7167C53.7569 27.7167 53.5433 27.815 53.3892 28.0116C53.2351 28.2082 53.1574 28.4824 53.1574 28.8317C53.1574 29.1887 53.2377 29.4694 53.3996 29.6751C53.5601 29.8807 53.7789 29.9842 54.056 29.9842C54.2813 29.9842 54.4651 29.9208 54.6088 29.7941C54.7512 29.6673 54.8263 29.503 54.8341 29.2973L54.8367 29.2443H54.1181V28.7411H55.5086V29.1175V29.1175Z" fill="white"/>
<path d="M56.8906 29.2947V30.5016H56.1992V27.2031H57.5625C57.9393 27.2031 58.2332 27.2963 58.4417 27.4825C58.6514 27.6688 58.7563 27.9262 58.7563 28.2547C58.7563 28.4695 58.7032 28.6609 58.597 28.8291C58.4909 28.9972 58.3445 29.1188 58.1568 29.1912L58.8521 30.5016H58.0688L57.4525 29.2947H56.8906V29.2947ZM56.8906 27.7425V28.7941H57.4965C57.67 28.7941 57.806 28.7476 57.9031 28.6544C58.0002 28.5613 58.0481 28.4333 58.0481 28.2677C58.0481 28.1073 57.9976 27.9805 57.8966 27.8848C57.7956 27.7891 57.6596 27.7412 57.4887 27.7412H56.8906V27.7425Z" fill="white"/>
<path d="M59.7723 27.6057C60.0584 27.2991 60.4468 27.1465 60.9362 27.1465C61.4256 27.1465 61.814 27.2991 62.1002 27.6057C62.3863 27.9122 62.5287 28.3275 62.5287 28.8539C62.5287 29.3778 62.385 29.793 62.0989 30.0996C61.8115 30.4061 61.4243 30.5588 60.9362 30.5588C60.4468 30.5588 60.0584 30.4061 59.7723 30.0996C59.4862 29.793 59.3438 29.3778 59.3438 28.8539C59.3438 28.3288 59.4862 27.9122 59.7723 27.6057ZM61.581 28.0287C61.4205 27.8243 61.2055 27.7221 60.9362 27.7221C60.6669 27.7221 60.4507 27.8243 60.2902 28.0287C60.1283 28.233 60.0481 28.5086 60.0481 28.8539C60.0481 29.198 60.1283 29.4722 60.2889 29.6753C60.4494 29.8784 60.6643 29.9806 60.9362 29.9806C61.2055 29.9806 61.4217 29.8784 61.581 29.6753C61.7415 29.4722 61.8218 29.198 61.8218 28.8539C61.8218 28.5086 61.7415 28.233 61.581 28.0287Z" fill="white"/>
<path d="M63.8984 27.2031V29.2676C63.8984 29.4823 63.9593 29.653 64.081 29.7785C64.2027 29.904 64.3723 29.9674 64.5924 29.9674C64.8112 29.9674 64.9795 29.9053 65.1012 29.7785C65.2229 29.653 65.2837 29.4823 65.2837 29.2676V27.2031H65.9751V29.3361C65.9751 29.7022 65.8495 29.9971 65.5984 30.2222C65.3472 30.4472 65.0119 30.5598 64.5924 30.5598C64.1716 30.5598 63.835 30.4472 63.5838 30.2222C63.3326 29.9971 63.207 29.7022 63.207 29.3361V27.2031H63.8984Z" fill="white"/>
<path d="M66.7578 27.2031H68.1354C68.4759 27.2031 68.7517 27.3066 68.9627 27.5136C69.1737 27.7205 69.2799 27.9935 69.2799 28.3324C69.2799 28.6687 69.1711 28.9416 68.9523 29.1499C68.7335 29.3581 68.45 29.4616 68.1017 29.4616H67.4492V30.5016H66.7578V27.2031ZM67.4492 27.7503V28.9235H67.9502C68.1483 28.9235 68.3024 28.873 68.4124 28.7709C68.5225 28.6687 68.5769 28.5238 68.5769 28.3362C68.5769 28.1487 68.5225 28.0051 68.4137 27.9029C68.305 27.802 68.1509 27.7503 67.9528 27.7503H67.4492V27.7503Z" fill="white"/>
<path d="M25.8984 5.82275V19.7383H45.398V16.956H28.6834V8.60639H45.398V5.82275H25.8984Z" fill="white"/>
<path d="M28.6846 0.256836H25.8984V3.04047H28.6846V0.256836Z" fill="white"/>
<path d="M37.044 0.256836H34.2578V3.04047H37.044V0.256836Z" fill="white"/>
<path d="M45.3995 0.256836H42.6133V3.04047H45.3995V0.256836Z" fill="white"/>
<path d="M0.828125 5.82275V14.1724H17.5428V16.956H0.828125V19.7383H20.3277V11.39H3.61433V8.60639H20.3277V5.82275H0.828125Z" fill="white"/>
<path d="M53.7589 8.60639H70.4722V5.82275H50.9727V19.7383H70.4722V11.39H56.5438V14.1724H67.6873V16.956H53.7589V8.60639Z" fill="white"/>
</svg>
