<svg width="15" height="16" viewBox="0 0 15 16" fill="none" xmlns="http://www.w3.org/2000/svg">
<path d="M7.5 1.5C6.21442 1.5 4.95772 1.88122 3.8888 2.59545C2.81988 3.30968 1.98676 4.32484 1.49479 5.51256C1.00282 6.70028 0.874095 8.00721 1.1249 9.26808C1.3757 10.529 1.99477 11.6872 2.90381 12.5962C3.81285 13.5052 4.97104 14.1243 6.23191 14.3751C7.49279 14.6259 8.79972 14.4972 9.98744 14.0052C11.1752 13.5132 12.1903 12.6801 12.9046 11.6112C13.6188 10.5423 14 9.28558 14 8C14 7.14641 13.8319 6.30117 13.5052 5.51256C13.1786 4.72394 12.6998 4.00739 12.0962 3.40381C11.4926 2.80022 10.7761 2.32144 9.98744 1.99478C9.19883 1.66813 8.35359 1.5 7.5 1.5ZM9.45 8.65H8.15V9.95C8.15 10.1224 8.08152 10.2877 7.95962 10.4096C7.83772 10.5315 7.67239 10.6 7.5 10.6C7.32761 10.6 7.16228 10.5315 7.04038 10.4096C6.91848 10.2877 6.85 10.1224 6.85 9.95V8.65H5.55C5.37761 8.65 5.21228 8.58152 5.09038 8.45962C4.96848 8.33772 4.9 8.17239 4.9 8C4.9 7.82761 4.96848 7.66228 5.09038 7.54038C5.21228 7.41848 5.37761 7.35 5.55 7.35H6.85V6.05C6.85 5.87761 6.91848 5.71228 7.04038 5.59038C7.16228 5.46848 7.32761 5.4 7.5 5.4C7.67239 5.4 7.83772 5.46848 7.95962 5.59038C8.08152 5.71228 8.15 5.87761 8.15 6.05V7.35H9.45C9.62239 7.35 9.78772 7.41848 9.90962 7.54038C10.0315 7.66228 10.1 7.82761 10.1 8C10.1 8.17239 10.0315 8.33772 9.90962 8.45962C9.78772 8.58152 9.62239 8.65 9.45 8.65Z" fill="#01966B"/>
</svg>
