<svg width="15" height="12" viewBox="0 0 15 12" fill="none" xmlns="http://www.w3.org/2000/svg">
<path d="M13.6667 0.983765H0.666687C0.390124 0.983765 0.166687 1.2072 0.166687 1.48376V11.4838C0.166687 11.7603 0.390124 11.9838 0.666687 11.9838H13.6667C13.9432 11.9838 14.1667 11.7603 14.1667 11.4838V1.48376C14.1667 1.2072 13.9432 0.983765 13.6667 0.983765ZM12.4042 2.68533L7.4745 6.52127C7.35262 6.61658 7.18231 6.61658 7.06044 6.52127L2.12919 2.68533C2.1106 2.67098 2.09696 2.65118 2.09019 2.62869C2.08343 2.60621 2.08386 2.58217 2.09144 2.55995C2.09902 2.53772 2.11337 2.51843 2.13246 2.50477C2.15156 2.4911 2.17446 2.48376 2.19794 2.48376H12.3354C12.3589 2.48376 12.3818 2.4911 12.4009 2.50477C12.42 2.51843 12.4344 2.53772 12.4419 2.55995C12.4495 2.58217 12.4499 2.60621 12.4432 2.62869C12.4364 2.65118 12.4228 2.67098 12.4042 2.68533Z" fill="#8195C2"/>
</svg>
