<svg width="16" height="19" viewBox="0 0 16 19" fill="none" xmlns="http://www.w3.org/2000/svg">
<path d="M11.8245 0.483765C12.2202 0.640762 12.3437 0.946155 12.3424 1.35306C12.3355 3.84223 12.342 6.3314 12.3308 8.82056C12.3299 8.97025 12.2495 9.15478 12.1441 9.26274C11.3471 10.0804 10.5389 10.8873 9.72203 11.6848C9.62224 11.7824 9.45019 11.8538 9.3104 11.856C8.24883 11.8702 7.18641 11.8698 6.12485 11.8564C5.98376 11.8547 5.8087 11.7906 5.70977 11.6938C4.88435 10.8886 4.06882 10.0727 3.26318 9.24768C3.16511 9.14703 3.09156 8.97369 3.09113 8.83347C3.08081 6.29871 3.08597 3.76351 3.08124 1.22875C3.08081 0.906153 3.18404 0.655387 3.46147 0.483765C6.24872 0.483765 9.03683 0.483765 11.8245 0.483765ZM4.11742 6.20193C4.12173 8.09794 5.57213 9.65932 7.46599 9.79696C8.11635 9.84428 8.73832 9.71137 9.32803 9.43995C9.6102 9.31005 9.70913 9.05283 9.60934 8.78873C9.51041 8.52678 9.26523 8.4128 8.96887 8.49711C8.85962 8.52807 8.75424 8.57281 8.6467 8.61023C7.22211 9.10918 5.72568 8.39732 5.27147 7.00541C4.8194 5.62039 5.60525 4.15708 7.02511 3.74115C8.60541 3.27747 10.2468 4.49173 10.2704 6.13956C10.2743 6.40882 10.1849 6.65141 9.91 6.67636C9.72805 6.69314 9.50525 6.58861 9.35255 6.47076C9.26093 6.39979 9.25577 6.2015 9.23555 6.05697C9.12974 5.3107 8.63509 4.78981 7.91978 4.6827C7.27244 4.58592 6.60573 4.95068 6.32056 5.55888C6.03925 6.15805 6.18937 6.90734 6.67885 7.34608C7.20878 7.82094 7.92193 7.88374 8.54433 7.48802C8.69445 7.39253 8.78478 7.39382 8.93446 7.48845C9.44761 7.8132 9.98742 7.84202 10.5199 7.53619C11.0619 7.22478 11.3187 6.74432 11.3023 6.11762C11.2877 5.53651 11.1372 4.99713 10.8563 4.48484C10.0803 3.06928 8.41916 2.32387 6.87327 2.71184C5.25899 3.1166 4.11355 4.56743 4.11742 6.20193Z" fill="#8195C2"/>
<path d="M0.874023 17.911C0.997471 17.7772 1.06285 17.7006 1.13425 17.6292C2.63498 16.1268 4.13872 14.6278 5.63385 13.1197C5.79988 12.952 5.96506 12.8836 6.20163 12.8862C7.22878 12.8987 8.25679 12.8857 9.28395 12.8982C9.42632 12.8999 9.60611 12.9546 9.70332 13.0509C11.2772 14.6093 12.8407 16.178 14.4059 17.7449C14.4369 17.7759 14.4623 17.8133 14.5401 17.9092C14.2666 17.9557 14.0395 18.0271 13.8128 18.0275C9.74849 18.0344 5.68418 18.0344 1.61987 18.0275C1.39018 18.028 1.16092 17.9579 0.874023 17.911Z" fill="#8195C2"/>
<path d="M4.8003 12.4118C3.29785 13.9172 1.72916 15.4885 0.116599 17.1041C0.0765971 16.8666 0.00562529 16.6413 0.00519516 16.4163C-0.00211706 13.4957 3.37488e-05 10.5747 0.00132414 7.65367C0.00132414 7.62184 0.0146583 7.58958 0.00777617 7.62012C1.60055 9.2129 3.21397 10.8259 4.8003 12.4118Z" fill="#8195C2"/>
<path d="M10.6186 12.3426C12.1748 10.7864 13.7856 9.17509 15.3832 7.57715C15.5255 8.17073 15.4305 16.7376 15.292 17.0233C13.7383 15.467 12.1718 13.8979 10.6186 12.3426Z" fill="#8195C2"/>
<path d="M2.03451 8.03938C1.55921 7.56022 1.14327 7.14213 0.728627 6.72318C0.665828 6.65952 0.60776 6.59113 0.5755 6.55543C1.07101 6.06035 1.55534 5.57645 2.03451 5.09772C2.03451 6.02508 2.03451 6.98384 2.03451 8.03938Z" fill="#8195C2"/>
<path d="M14.8781 6.45949C14.3598 6.97909 13.8802 7.45911 13.3925 7.94774C13.3925 6.99199 13.3925 6.02678 13.3925 5.02844C13.4583 5.07662 13.497 5.09898 13.5279 5.12909C13.9817 5.57514 14.4351 6.02248 14.8781 6.45949Z" fill="#8195C2"/>
<path d="M8.20251 6.17898C8.2038 6.48308 7.98572 6.72052 7.70829 6.71621C7.43903 6.71191 7.21536 6.48696 7.21106 6.21597C7.20675 5.9308 7.44462 5.69164 7.72549 5.69895C7.98013 5.70541 8.20122 5.92821 8.20251 6.17898Z" fill="#8195C2"/>
</svg>
