<svg width="19" height="19" viewBox="0 0 19 19" fill="none" xmlns="http://www.w3.org/2000/svg">
<g clip-path="url(#clip0_40_159)">
<path d="M9.83334 0.26947C7.41852 0.26947 5.10047 1.22956 3.3943 2.93687C1.68638 4.64485 0.726669 6.9612 0.726196 9.37661C0.726196 11.791 1.68672 14.1091 3.3943 15.8164C5.10047 17.5237 7.41852 18.4838 9.83334 18.4838C12.2482 18.4838 14.5662 17.5237 16.2724 15.8164C17.98 14.1091 18.9405 11.791 18.9405 9.37661C18.9405 6.96222 17.98 4.64417 16.2724 2.93687C14.5662 1.22956 12.2482 0.26947 9.83334 0.26947Z" fill="url(#paint0_linear_40_159)"/>
<path d="M4.8486 9.2804C7.50391 8.1238 9.27411 7.36122 10.1592 6.9928C12.6893 5.94079 13.2144 5.75808 13.5573 5.75188C13.6327 5.75068 13.8006 5.76932 13.9102 5.8579C14.0013 5.9326 14.0269 6.03364 14.0397 6.10457C14.0511 6.17544 14.0667 6.33695 14.0539 6.46302C13.9173 7.90309 13.3239 11.3977 13.0223 13.0106C12.8956 13.6931 12.6437 13.9219 12.4004 13.9443C11.8711 13.9929 11.4698 13.5948 10.9575 13.2591C10.1564 12.7336 9.70385 12.4066 8.92547 11.8939C8.02614 11.3013 8.60957 10.9756 9.12185 10.4434C9.25561 10.3041 11.5865 8.18456 11.6306 7.99231C11.6363 7.96826 11.642 7.87862 11.5879 7.83137C11.5352 7.78399 11.457 7.80021 11.4001 7.81302C11.3189 7.83123 10.0397 8.67763 7.55798 10.3521C7.19512 10.6017 6.86641 10.7233 6.57042 10.7169C6.24598 10.7099 5.61987 10.5331 5.15455 10.3819C4.58535 10.1965 4.13142 10.0985 4.17126 9.78357C4.19118 9.61965 4.41744 9.45188 4.8486 9.2804Z" fill="white"/>
</g>
<defs>
<linearGradient id="paint0_linear_40_159" x1="9.83334" y1="0.26947" x2="9.83334" y2="18.4838" gradientUnits="userSpaceOnUse">
<stop stop-color="#2AABEE"/>
<stop offset="1" stop-color="#229ED9"/>
</linearGradient>
<clipPath id="clip0_40_159">
<rect width="18.2143" height="18.2143" fill="white" transform="translate(0.726196 0.26947)"/>
</clipPath>
</defs>
</svg>
