<svg width="18" height="19" viewBox="0 0 18 19" fill="none" xmlns="http://www.w3.org/2000/svg">
<path d="M15.5672 4.29648L13.6951 2.42617C13.5631 2.29353 13.4061 2.18829 13.2332 2.1165C13.0604 2.0447 12.8751 2.00777 12.6879 2.00781C12.3064 2.00781 11.9479 2.15723 11.6789 2.42617L9.66445 4.44062C9.53182 4.57268 9.42658 4.72965 9.35478 4.9025C9.28299 5.07535 9.24605 5.26068 9.24609 5.44785C9.24609 5.8293 9.39551 6.18789 9.66445 6.45684L11.1375 7.92988C10.7927 8.68989 10.3133 9.38129 9.72246 9.9707C9.1331 10.563 8.44177 11.0441 7.68164 11.391L6.2086 9.91797C6.07654 9.78533 5.91957 9.68009 5.74672 9.6083C5.57387 9.5365 5.38854 9.49956 5.20137 9.49961C4.81992 9.49961 4.46133 9.64902 4.19238 9.91797L2.17617 11.9307C2.04337 12.063 1.93804 12.2202 1.86624 12.3934C1.79444 12.5665 1.75759 12.7522 1.75781 12.9396C1.75781 13.3211 1.90723 13.6797 2.17617 13.9486L4.04473 15.8172C4.47363 16.2479 5.06602 16.4922 5.67422 16.4922C5.80254 16.4922 5.92559 16.4816 6.04688 16.4605C8.41641 16.0703 10.7666 14.81 12.6633 12.915C14.5582 11.0219 15.8168 8.67344 16.2123 6.29688C16.3318 5.5709 16.091 4.82383 15.5672 4.29648V4.29648Z" fill="#8195C2"/>
</svg>
