<svg width="55" height="55" viewBox="0 0 55 55" fill="none" xmlns="http://www.w3.org/2000/svg">
<path d="M4.69794 35.0142L4.75524 35.3992L4.81482 35.3855C5.22203 37.2898 6.1601 39.0398 7.52049 40.4332C8.88089 41.8266 10.608 42.8063 12.502 43.259C14.396 43.7117 16.3794 43.6189 18.2229 42.9913C20.0663 42.3637 21.6944 41.2269 22.9187 39.7126C24.143 38.1983 24.9136 36.3682 25.1412 34.4342C25.3687 32.5002 25.0441 30.5413 24.2048 28.7842C23.3654 27.027 22.0457 25.5434 20.3983 24.505C18.7509 23.4666 16.8432 22.9159 14.8959 22.9165C14.3848 22.9165 13.8944 22.9944 13.4063 23.0655C13.5644 22.5338 13.7271 21.993 13.9884 21.5071C14.2496 20.8013 14.6575 20.1894 15.0632 19.573C15.4023 18.9061 16.0004 18.4546 16.4404 17.884C16.9011 17.3294 17.529 16.9605 18.0263 16.4998C18.5144 16.0186 19.1538 15.778 19.6625 15.4388C20.1942 15.134 20.6571 14.7971 21.1521 14.6367L22.3873 14.128L23.4736 13.6765L22.3644 9.23296L20.9963 9.56296C20.5586 9.67296 20.0246 9.8013 19.4173 9.95484C18.7963 10.0694 18.134 10.3834 17.3961 10.6698C16.6696 10.9975 15.824 11.2153 15.0402 11.74C14.2519 12.2396 13.3421 12.6567 12.54 13.3259C11.7632 14.0157 10.8259 14.6138 10.1338 15.4892C9.37753 16.3096 8.63044 17.1713 8.05065 18.1521C7.37919 19.0871 6.92315 20.1138 6.4419 21.129C6.00649 22.1442 5.65586 23.1823 5.3694 24.1907C4.82628 26.2119 4.58336 28.1323 4.4894 29.7755C4.41148 31.4209 4.45732 32.789 4.55357 33.779C4.58577 34.1924 4.63393 34.6045 4.69794 35.0142ZM29.9063 35.0142L29.9636 35.3992L30.0231 35.3855C30.4304 37.2898 31.3684 39.0398 32.7288 40.4332C34.0892 41.8266 35.8163 42.8063 37.7103 43.259C39.6043 43.7117 41.5878 43.6189 43.4312 42.9913C45.2747 42.3637 46.9027 41.2269 48.127 39.7126C49.3514 38.1983 50.1219 36.3682 50.3495 34.4342C50.5771 32.5002 50.2524 30.5413 49.4131 28.7842C48.5738 27.027 47.254 25.5434 45.6067 24.505C43.9593 23.4666 42.0515 22.9158 40.1042 22.9165C39.5931 22.9165 39.1027 22.9944 38.6146 23.0655C38.7727 22.5338 38.9354 21.993 39.1967 21.5071C39.4579 20.8013 39.8659 20.1894 40.2715 19.573C40.6106 18.9061 41.2088 18.4546 41.6488 17.884C42.1094 17.3294 42.7373 16.9605 43.2346 16.4998C43.7227 16.0186 44.3621 15.778 44.8709 15.4388C45.4025 15.134 45.8654 14.7971 46.3604 14.6367L47.5956 14.128C48.2854 13.8461 48.6796 13.6811 48.6796 13.6811L47.5704 9.23755L46.2023 9.56754C45.7646 9.67754 45.2306 9.80588 44.6234 9.95942C44.0023 10.074 43.34 10.388 42.6021 10.6744C41.8756 11.0021 41.03 11.2198 40.2463 11.7446C39.4579 12.2442 38.5481 12.6613 37.7461 13.3305C36.9692 14.0203 36.0319 14.6184 35.3398 15.4938C34.5836 16.3142 33.8365 17.1759 33.2567 18.1567C32.5852 19.0917 32.1292 20.1184 31.6479 21.1336C31.2125 22.1488 30.8619 23.1869 30.5754 24.1953C30.0323 26.2165 29.7894 28.1369 29.6954 29.78C29.6175 31.4255 29.6634 32.7936 29.7596 33.7836C29.7938 34.1954 29.8427 34.6059 29.9063 35.0142Z" fill="#FF7F5C"/>
</svg>
