<svg width="164" height="164" viewBox="0 0 164 164" fill="none" xmlns="http://www.w3.org/2000/svg">
<path d="M84.5517 0.0348864C42.5684 -1.14914 6.20237 27.9445 0.707763 66.1193C-5.29966 107.858 27.7637 145.413 68.4467 151.428C119.049 158.91 168.131 115.627 163.724 68.6727C160.404 33.2962 127.228 1.23806 84.5522 0.0343226L84.5517 0.0348864Z" fill="#F4F6F8"/>
<path d="M39.5234 97.8393C39.5792 97.8585 39.6343 97.8776 39.6901 97.8968C42.9859 99.0234 46.7867 99.6723 51.1594 99.5033L53.7095 99.2239C54.2707 97.1454 54.4322 95.068 51.7786 94.4771C47.6576 93.5595 47.0496 86.4666 47.9756 83.875C49.1211 80.6676 51.6351 73.1444 45.2865 71.6264C40.0013 70.3624 36.3328 70.6271 35.4924 63.995C34.6525 57.3629 30.7223 53.4701 24.7165 54.3003C18.3961 55.1734 12.5818 47.0898 7.58253 50.2932C-1.12857 55.8747 8.13812 69.9568 19.4673 73.4142C30.7971 76.8722 24.7587 81.3019 24.8527 86.7719C24.9811 94.24 34.9166 91.9277 37.7812 94.659C38.7517 95.584 39.2713 96.7049 39.5229 97.8388L39.5234 97.8393Z" fill="url(#paint0_linear_0_1274)"/>
<g style="mix-blend-mode:soft-light" opacity="0.5">
<g style="mix-blend-mode:soft-light">
<path d="M45.8625 99.2633L46.1518 99.1822C40.2057 78.0106 24.0203 59.8306 3.91182 51.7368L3.7998 52.0157C23.8238 60.0757 39.9412 78.1796 45.8625 99.2633Z" fill="#FBFCFD"/>
</g>
<g style="mix-blend-mode:soft-light">
<path d="M41.6328 87.9985L41.9329 87.976C41.2838 79.3577 48.1514 72.084 48.2206 72.0114L48.0039 71.803C47.9335 71.8762 40.9742 79.2439 41.6328 87.9979V87.9985Z" fill="#FBFCFD"/>
</g>
<g style="mix-blend-mode:soft-light">
<path d="M44.6625 95.3987L44.9159 95.2365C40.1907 87.8592 24.2439 87.9673 24.0835 87.969L24.0875 88.2698C24.2462 88.2681 40.0281 88.1616 44.6631 95.3987H44.6625Z" fill="#FBFCFD"/>
</g>
<g style="mix-blend-mode:soft-light">
<path d="M29.581 70.1326L29.8472 69.9923C26.6116 63.8413 30.0229 53.7438 30.0578 53.6425L29.7735 53.5444C29.738 53.647 26.2857 63.8677 29.581 70.132V70.1326Z" fill="#FBFCFD"/>
</g>
<g style="mix-blend-mode:soft-light">
<path d="M19.2569 60.7328L19.3948 60.4652C12.3589 56.8366 2.11669 59.9065 2.01367 59.938L2.10149 60.2258C2.20281 60.1943 12.3308 57.1605 19.2569 60.7328Z" fill="#FBFCFD"/>
</g>
</g>
<path d="M48.1858 107.938L33.2793 107.887C33.2793 107.887 30.499 100.226 34.1703 94.8385C41.661 83.846 31.5168 78.0481 27.6315 74.9839C21.7716 70.3627 19.2024 64.4088 26.2811 60.5762C34.2902 56.24 27.2831 44.6015 16.7442 38.5028C6.4316 32.5348 11.0819 10.747 34.588 21.6128C48.626 28.1018 46.3732 43.0108 47.024 50.81C47.6752 58.6092 59.2617 59.2942 55.2633 68.8058C51.8475 76.9306 45.3909 82.8411 50.2844 88.4514C55.1778 94.0617 55.6647 100.335 48.1852 107.938L48.1858 107.938Z" fill="url(#paint1_linear_0_1274)"/>
<g style="mix-blend-mode:soft-light" opacity="0.5">
<g style="mix-blend-mode:soft-light">
<path d="M41.7296 109.301L41.42 109.243C41.4561 109.052 44.9704 89.843 42.7164 69.7501C40.6404 51.239 33.1007 28.1674 8.97363 23.3756L9.035 23.0669C19.7754 25.2 28.178 31.0695 34.0093 40.5129C38.6679 48.0564 41.7026 57.8835 43.03 69.7214C45.2878 89.8605 41.7651 109.108 41.7296 109.301V109.301Z" fill="#B1BDD9"/>
</g>
<g style="mix-blend-mode:soft-light">
<path d="M36.276 44.5649L35.9636 44.5249C37.2926 34.129 33.3832 19.3416 33.3438 19.1935L33.6477 19.1118C33.6877 19.2605 37.6129 34.1081 36.276 44.5649Z" fill="#B1BDD9"/>
</g>
<g style="mix-blend-mode:soft-light">
<path d="M32.2179 38.3795C21.6469 31.739 11.7384 34.8742 11.6399 34.9069L11.542 34.6078C11.6422 34.5745 21.6846 31.3909 32.3856 38.1131L32.2184 38.3801L32.2179 38.3795Z" fill="#B1BDD9"/>
</g>
<g style="mix-blend-mode:soft-light">
<path d="M43.4745 82.9673C40.0064 68.109 19.8394 64.3992 19.6401 64.3795L19.6503 64.0652C19.8478 64.0657 40.2822 67.9056 43.7807 82.8957L43.4745 82.9673Z" fill="#B1BDD9"/>
</g>
<g style="mix-blend-mode:soft-light">
<path d="M43.5931 76.6767L43.2852 76.6113C45.2987 67.0856 55.6547 60.5617 55.7594 60.4963L55.9254 60.7639C55.8218 60.8281 45.579 67.2834 43.5936 76.6761L43.5931 76.6767Z" fill="#B1BDD9"/>
</g>
<g style="mix-blend-mode:soft-light">
<path d="M41.9067 106.208C41.4727 100.428 33.2435 95.8245 33.1602 95.7784L33.3122 95.5029C33.6572 95.6933 41.7739 100.234 42.2203 106.184L41.9067 106.208Z" fill="#B1BDD9"/>
</g>
<g style="mix-blend-mode:soft-light">
<path d="M42.8004 101.671L42.4902 101.617C43.2766 97.1017 50.1177 92.0925 52.366 90.4466C52.6835 90.2139 52.9582 90.0128 52.9998 89.9678L53.234 90.1779C53.176 90.2427 52.9942 90.3767 52.5518 90.7006C50.3288 92.3285 43.5648 97.2814 42.8004 101.671Z" fill="#B1BDD9"/>
</g>
</g>
<path d="M118.555 86.0603C120.196 89.6056 118.632 93.1526 117.132 95.5392C116.774 95.5415 116.566 95.6406 116.205 95.7291C112.941 96.5233 111.41 96.1194 108.092 96.3594C107.378 96.4112 105.257 95.8783 104.405 95.6006L102.824 95.0554C102.824 95.0554 100.019 86.4309 104.427 84.0488C108.834 81.6667 107.147 73.084 106.777 68.4025C105.774 55.7016 119.49 56.8563 119.505 40.4321C119.509 36.0638 118.058 27.7318 121.738 24.2529C125.931 20.2891 128.992 24.1774 131.688 20.8625C135.902 15.6814 142.74 13.8232 146.816 19.1552C150.84 24.4174 145.951 34.8922 133.8 43.3116C125.766 50.3397 125.64 52.4436 126.272 57.5677C126.715 61.157 130.136 70.5058 125.268 74.2393C120.4 77.9727 116.679 82.0069 118.555 86.0597L118.555 86.0603Z" fill="url(#paint2_linear_0_1274)"/>
<g style="mix-blend-mode:soft-light" opacity="0.5">
<g style="mix-blend-mode:soft-light">
<path d="M109.82 96.4932L109.578 96.4628C109.758 95.0185 109.958 93.5641 110.17 92.1407C111.749 81.5983 114.253 71.5848 117.615 62.378C120.463 54.577 123.966 47.2448 128.024 40.5856C131.287 35.2299 134.927 30.2787 138.842 25.8682C141.594 22.7679 144.452 19.965 147.337 17.5383C147.84 17.1153 148.378 16.7109 148.898 16.3194C149.591 15.7984 150.308 15.2593 150.947 14.6724L151.112 14.8526C150.464 15.448 149.743 15.9904 149.045 16.5154C148.527 16.9046 147.992 17.3074 147.494 17.7259C144.618 20.1452 141.768 22.9397 139.024 26.0315C135.119 30.4308 131.488 35.3708 128.232 40.7141C124.182 47.3597 120.687 54.6773 117.844 62.4636C114.488 71.6547 111.987 81.6524 110.412 92.1784C110.199 93.6002 110 95.0523 109.82 96.4949V96.4932Z" fill="#FBFCFD"/>
</g>
<g style="mix-blend-mode:soft-light">
<path d="M123.63 49.0182L123.409 48.9145C127.859 39.4232 123.951 21.8888 123.911 21.713L124.149 21.6589C124.189 21.8358 128.116 39.4514 123.63 49.0187V49.0182Z" fill="#FBFCFD"/>
</g>
<g style="mix-blend-mode:soft-light">
<path d="M113.507 76.6602L113.275 76.583C115.546 69.7785 128.275 64.5265 128.404 64.4741L128.496 64.7006C128.369 64.7524 115.742 69.9622 113.507 76.6602H113.507Z" fill="#FBFCFD"/>
</g>
<g style="mix-blend-mode:soft-light">
<path d="M112.553 80.6324L112.311 80.597C112.985 75.9634 111.429 69.2834 107.93 61.7895C107.813 61.5383 107.757 61.3973 107.76 61.3665L108.002 61.3986L107.881 61.3822L107.999 61.3518C108.008 61.3783 108.075 61.5208 108.152 61.6853C111.67 69.2226 113.233 75.951 112.553 80.6319V80.6324Z" fill="#FBFCFD"/>
</g>
<g style="mix-blend-mode:soft-light">
<path d="M110.186 93.8619L109.964 93.7588C112.135 89.0807 119.554 87.2348 119.628 87.2168L119.685 87.4539C119.612 87.472 112.306 89.2908 110.186 93.8619Z" fill="#FBFCFD"/>
</g>
<g style="mix-blend-mode:soft-light">
<path d="M109.451 96.5121C108.531 92.4564 106.417 88.5321 102.989 84.5153L103.175 84.3564C106.63 88.4042 108.76 92.3624 109.689 96.458L109.451 96.5121Z" fill="#FBFCFD"/>
</g>
<g style="mix-blend-mode:soft-light">
<path d="M136.762 28.6655L136.547 28.5495C139.315 23.4107 141.033 17.37 141.597 15.3844C141.734 14.904 141.783 14.735 141.81 14.6792L142.029 14.7862C142.009 14.829 141.931 15.1039 141.832 15.4515C141.266 17.4427 139.543 23.503 136.762 28.6655Z" fill="#FBFCFD"/>
</g>
<g style="mix-blend-mode:soft-light">
<path d="M131.026 36.355L130.854 36.181C134.753 32.3405 145.694 32.4633 146.158 32.4706L146.154 32.7151C146.041 32.7134 134.852 32.5867 131.026 36.3556V36.355Z" fill="#FBFCFD"/>
</g>
</g>
<path d="M99.1956 116.776L113.42 121.237C113.42 121.237 118.385 114.775 116.513 108.529C112.694 95.7848 124.115 93.3272 128.745 91.5822C135.726 88.95 139.974 84.0516 134.384 78.2572C128.06 71.7005 138.256 62.7269 150.144 60.102C161.777 57.5334 163.927 35.3581 138.238 38.6043C122.897 40.5425 120.54 55.4352 117.562 62.6728C114.585 69.9104 103.334 67.0574 104.271 77.3339C105.072 86.1116 109.441 93.6996 103.082 97.5665C96.7227 101.434 94.3629 107.266 99.195 116.776H99.1956Z" fill="url(#paint3_linear_0_1274)"/>
<g style="mix-blend-mode:soft-light" opacity="0.5">
<g style="mix-blend-mode:soft-light">
<path d="M104.938 120.027L105.25 120.065C105.274 119.872 107.728 100.499 115.947 82.0286C123.519 65.0118 137.676 45.3008 162.122 48.0327L162.157 47.7195C151.274 46.5034 141.492 49.5564 133.08 56.7935C126.36 62.5744 120.498 71.0237 115.656 81.9063C107.42 100.42 104.962 119.833 104.938 120.027Z" fill="#B1BDD9"/>
</g>
<g style="mix-blend-mode:soft-light">
<path d="M129.695 59.9699L130.005 60.0262C131.879 49.7142 140.073 36.802 140.156 36.6725L139.891 36.5029C139.808 36.633 131.581 49.5976 129.695 59.9699Z" fill="#B1BDD9"/>
</g>
<g style="mix-blend-mode:soft-light">
<path d="M135.432 55.302C147.515 52.1702 156.012 58.1567 156.096 58.2176L156.28 57.9624C156.195 57.9004 147.584 51.8277 135.354 54.9978L135.432 55.3026L135.432 55.302Z" fill="#B1BDD9"/>
</g>
<g style="mix-blend-mode:soft-light">
<path d="M111.231 94.397C119.026 81.2832 139.37 83.8479 139.566 83.8895L139.651 83.5865C139.462 83.5274 118.824 81.0055 110.96 94.2359L111.231 94.397Z" fill="#B1BDD9"/>
</g>
<g style="mix-blend-mode:soft-light">
<path d="M113.018 88.3659L113.332 88.3969C114.29 78.7078 106.39 69.3562 106.311 69.2627L106.071 69.4677C106.151 69.5601 113.964 78.812 113.018 88.3664V88.3659Z" fill="#B1BDD9"/>
</g>
<g style="mix-blend-mode:soft-light">
<path d="M105.703 117.026C107.864 111.647 117.098 109.749 117.192 109.73L117.13 109.421C116.744 109.499 107.636 111.371 105.412 116.908L105.704 117.025L105.703 117.026Z" fill="#B1BDD9"/>
</g>
<g style="mix-blend-mode:soft-light">
<path d="M106.223 112.43L106.535 112.473C107.15 107.931 102.142 101.086 100.496 98.8373C100.264 98.5196 100.063 98.2453 100.037 98.189L99.75 98.3185C99.786 98.3979 99.9189 98.581 100.243 99.0232C101.869 101.247 106.821 108.015 106.223 112.43Z" fill="#B1BDD9"/>
</g>
</g>
<path d="M112.659 120.381C112.606 120.406 112.553 120.431 112.499 120.455C109.336 121.913 105.621 122.947 101.254 123.226C100.399 123.22 99.544 123.214 98.6889 123.208C97.9183 121.198 97.5457 119.147 100.125 118.289C104.131 116.955 104.012 109.837 102.826 107.354C101.359 104.281 98.0911 97.0538 104.252 94.8947C109.38 93.0973 113.057 92.9858 113.216 86.303C113.375 79.6196 116.887 75.346 122.947 75.5578C129.323 75.7808 134.282 67.1451 139.582 69.8207C148.817 74.483 141.036 89.4382 130.119 94.0357C119.201 98.6332 125.66 102.423 126.125 107.874C126.759 115.316 116.64 114.031 114.069 117.041C113.198 118.06 112.795 119.229 112.66 120.382L112.659 120.381Z" fill="url(#paint4_linear_0_1274)"/>
<g style="mix-blend-mode:soft-light" opacity="0.5">
<g style="mix-blend-mode:soft-light">
<path d="M106.498 122.445L106.202 122.394C109.957 100.726 124.202 80.987 143.38 70.8806L143.521 71.147C124.424 81.2107 110.238 100.867 106.499 122.445H106.498Z" fill="#FBFCFD"/>
</g>
<g style="mix-blend-mode:soft-light">
<path d="M109.556 110.807L109.256 110.815C109.022 102.176 101.448 95.6417 101.372 95.5769L101.566 95.3477C101.644 95.4136 109.319 102.032 109.556 110.807Z" fill="#FBFCFD"/>
</g>
<g style="mix-blend-mode:soft-light">
<path d="M107.297 118.478L107.029 118.342C110.977 110.521 126.851 108.998 127.011 108.984L127.038 109.284C126.88 109.298 111.17 110.805 107.297 118.478Z" fill="#FBFCFD"/>
</g>
<g style="mix-blend-mode:soft-light">
<path d="M119.722 91.803L119.443 91.6909C122.033 85.2413 117.61 75.5455 117.565 75.448L117.837 75.3213C117.883 75.4199 122.36 85.234 119.721 91.803H119.722Z" fill="#FBFCFD"/>
</g>
<g style="mix-blend-mode:soft-light">
<path d="M129.033 81.3981L128.868 81.1463C135.496 76.818 145.999 78.825 146.105 78.8459L146.047 79.141C145.942 79.1202 135.558 77.1369 129.033 81.3981Z" fill="#FBFCFD"/>
</g>
</g>
<path d="M124.486 35.6935L38.0174 30.6882C36.0258 30.5908 34.2329 32.7656 34.2329 34.5918V146.009C34.2329 148.541 36.8178 149.051 38.8094 148.847L124.486 140.091C126.051 139.931 127.314 138.498 127.314 136.89V38.7437C127.314 37.135 126.051 35.7696 124.486 35.693L124.486 35.6935Z" fill="url(#paint5_linear_0_1274)"/>
<path d="M125.908 34.8086L39.2686 30.5434C37.277 30.4454 35.6553 31.8575 35.6553 33.6978V145.986C35.6553 147.826 37.277 149.151 39.2686 148.946L125.908 140.023C127.473 139.861 128.737 138.417 128.737 136.796V37.8835C128.737 36.2624 127.473 34.8863 125.908 34.8092V34.8086Z" fill="#D8DDE0"/>
<path style="mix-blend-mode:multiply" opacity="0.3" d="M39.2689 147.423C38.1948 147.531 37.3184 146.812 37.3184 145.821V33.7728C37.3184 32.7814 38.1942 32.0159 39.2689 32.0666L125.908 36.1617C126.754 36.2017 127.441 36.9475 127.441 37.8245V136.923C127.441 137.801 126.754 138.583 125.908 138.669L39.2689 147.423Z" fill="url(#paint6_linear_0_1274)"/>
<path d="M120.324 136.011L46.2212 143.156V39.7812L120.324 42.574V136.011Z" fill="white"/>
<g style="mix-blend-mode:multiply" opacity="0.3">
<path d="M90.6853 43.0798L61.0698 43.4505L61.7341 36.7671C61.7842 35.8986 62.4118 35.186 63.2376 35.0587L68.2532 34.2876C68.8437 34.1969 69.352 33.806 69.6104 33.2455L70.1541 32.0637L83.2729 32.8743L90.6853 43.0798Z" fill="#9AA5AA"/>
</g>
<path d="M106.5 38.7444C106.359 37.9885 105.754 37.4573 104.991 37.4235L100.259 37.2112C98.1109 37.1149 96.5364 35.3687 96.6152 33.1572L96.7976 28.0319C96.8314 27.0839 96.1548 26.3246 95.2254 26.2688L93.6706 26.1759C92.4851 26.1049 91.6959 25.0595 91.862 23.8501C92.1524 21.7367 90.7057 19.9128 88.6083 19.7697C86.4946 19.6255 84.5221 21.2415 84.2074 23.382C84.1607 23.7003 84.0532 24.0146 83.8787 24.2951C83.3901 25.0792 82.5345 25.5107 81.6963 25.4605L80.0925 25.3648C79.1209 25.3067 78.1972 25.9895 77.9512 26.9493L76.6177 32.1518C76.0407 34.4015 73.8656 36.0277 71.5554 35.9241L66.3642 35.6914C65.5142 35.6531 64.6794 36.1494 64.2882 36.9267L61.16 43.1381C60.9039 43.6467 61.2191 44.1965 61.7775 44.2151L106.795 45.7111C107.288 45.7275 107.706 45.2357 107.615 44.7473L106.5 38.745V38.7444ZM87.9705 24.2055C87.3502 24.1672 86.9201 23.6276 87.0102 23.0007C87.1003 22.3737 87.6767 21.8983 88.2965 21.9389C88.9151 21.9794 89.3429 22.5185 89.2534 23.1432C89.1634 23.7679 88.5897 24.2438 87.9705 24.2055Z" fill="url(#paint7_linear_0_1274)"/>
<path d="M106.767 38.8836C106.626 38.1277 106.021 37.5965 105.258 37.5627L100.526 37.3504C98.3776 37.254 96.8031 35.5079 96.8819 33.2964L97.0643 28.1711C97.098 27.2231 96.4214 26.4638 95.4921 26.408L93.9373 26.3151C92.7518 26.2441 91.9626 25.1986 92.1287 23.9893C92.4191 21.8758 90.9724 20.0519 88.875 19.9088C86.7612 19.7646 84.7888 21.3807 84.4736 23.5212C84.4268 23.8394 84.3193 24.1537 84.1448 24.4343C83.6562 25.2183 82.8006 25.6498 81.9624 25.5997L80.3586 25.5039C79.3871 25.4459 78.4633 26.1286 78.2173 27.0885L76.8838 32.2909C76.3068 34.5407 74.1317 36.1669 71.8215 36.0633L66.6303 35.8306C65.7803 35.7923 64.9455 36.2886 64.5543 37.0659L61.4262 43.2772C61.17 43.7859 61.4852 44.3356 62.0437 44.3542L107.061 45.8503C107.554 45.8666 107.972 45.3749 107.881 44.8865L106.766 38.8842L106.767 38.8836ZM88.2372 24.3447C87.6169 24.3064 87.1868 23.7668 87.2769 23.1398C87.367 22.5129 87.9434 22.0375 88.5631 22.0781C89.1818 22.1186 89.6096 22.6577 89.5201 23.2824C89.43 23.9076 88.8564 24.383 88.2372 24.3447Z" fill="#9AA5AA"/>
<g style="mix-blend-mode:soft-light" opacity="0.5">
<path d="M99.0626 41.738C95.0467 39.2573 91.9659 41.0164 89.4632 38.2185C86.7843 35.2236 88.5912 31.2806 85.8189 29.4201C84.044 28.2287 82.4611 29.2792 80.3969 28.957C79.6409 28.8387 78.8348 28.5385 77.9966 27.9521L76.8843 32.2911C76.3073 34.5409 74.1322 36.1665 71.822 36.0634L66.6308 35.8308C65.7808 35.7925 64.946 36.2887 64.5547 37.0661L61.4266 43.2774C61.1705 43.786 61.4858 44.3358 62.0442 44.3538L102.956 45.7136C101.925 44.0761 100.645 42.7164 99.0626 41.7385V41.738Z" fill="white"/>
</g>
<path d="M113.097 55.9241L55.7061 55.5743V52.1648L113.097 52.6396V55.9241Z" fill="#D8DDE0"/>
<path d="M113.097 61.6753L55.7061 61.5446V58.1345L113.097 58.3908V61.6753Z" fill="#D8DDE0"/>
<path d="M113.097 67.4267L55.7061 67.5151V64.105L113.097 64.1416V67.4267Z" fill="#D8DDE0"/>
<path d="M113.097 73.1774L55.7061 73.485V70.0749L113.097 69.8923V73.1774Z" fill="#D8DDE0"/>
<path d="M103.392 82.6499L54.8477 83.8198V80.2683L103.392 79.3203V82.6499Z" fill="#D8DDE0"/>
<path d="M103.392 88.4789L54.8477 90.0375V86.4866L103.392 85.1499V88.4789Z" fill="#D8DDE0"/>
<path d="M103.392 94.3075L54.8477 96.2548V92.7038L103.392 90.9785V94.3075Z" fill="#D8DDE0"/>
<path d="M103.392 100.136L54.8477 102.472V98.9206L103.392 96.8066V100.136Z" fill="#D8DDE0"/>
<path d="M113.097 82.4154L106.711 82.5697V79.2553L113.097 79.1309V82.4154Z" fill="#D8DDE0"/>
<path d="M113.097 88.1663L106.711 88.3714V85.0576L113.097 84.8818V88.1663Z" fill="#D8DDE0"/>
<path d="M113.097 93.9174L106.711 94.1737V90.8593L113.097 90.6323V93.9174Z" fill="#D8DDE0"/>
<path d="M113.097 99.6684L106.711 99.9754V96.6616L113.097 96.3833V99.6684Z" fill="#D8DDE0"/>
<path d="M103.392 109.594L54.8477 112.56V109.009L103.392 106.265V109.594Z" fill="#D8DDE0"/>
<path d="M103.392 115.423L54.8477 118.778V115.227L103.392 112.093V115.423Z" fill="#D8DDE0"/>
<path d="M103.392 121.251L54.8477 124.995V121.444L103.392 117.922V121.251Z" fill="#D8DDE0"/>
<path d="M103.392 127.08L54.8477 131.213V127.662L103.392 123.751V127.08Z" fill="#D8DDE0"/>
<path d="M113.097 109.001L106.711 109.392V106.077L113.097 105.717V109.001Z" fill="#D8DDE0"/>
<path d="M113.097 114.752L106.711 115.194V111.88L113.097 111.467V114.752Z" fill="#D8DDE0"/>
<path d="M113.097 120.504L106.711 120.996V117.682L113.097 117.219V120.504Z" fill="#D8DDE0"/>
<path d="M113.097 126.255L106.711 126.799V123.484L113.097 122.97V126.255Z" fill="#D8DDE0"/>
<path d="M143.995 82.6349L22.3979 79.5769C15.6553 79.4073 10.0684 84.4926 10.0684 90.9389V115.373C10.0684 121.819 15.6553 126.716 22.3979 126.319L143.995 119.162C148.025 118.925 151.238 114.807 151.238 109.961V91.5917C151.238 86.7452 148.025 82.7358 143.995 82.6344V82.6349Z" fill="url(#paint8_linear_0_1274)"/>
<path d="M145.324 82.6349L23.727 79.5769C16.9844 79.4073 11.3975 84.4926 11.3975 90.9389V115.373C11.3975 121.819 16.9844 126.716 23.727 126.319L145.324 119.162C149.354 118.925 152.567 114.807 152.567 109.961V91.5917C152.567 86.7452 149.354 82.7358 145.324 82.6344V82.6349Z" fill="#9AA5AA"/>
<path d="M23.727 124.797C17.9026 125.124 13.0728 120.87 13.0728 115.308V90.9464C13.0728 85.3851 17.902 80.9683 23.727 81.099L145.324 83.8242C148.816 83.9025 151.616 87.3841 151.616 91.5874V109.997C151.616 114.2 148.816 117.776 145.324 117.972L23.727 124.796V124.797Z" fill="url(#paint9_linear_0_1274)"/>
<path d="M39.9105 90.5884L43.3758 97.4531C43.5036 97.706 43.7496 97.8795 44.0345 97.9178L51.6057 98.9374C52.3014 99.0309 52.5784 99.8798 52.0757 100.375L46.6284 105.741C46.4246 105.942 46.3312 106.227 46.3796 106.503L47.6765 113.936C47.797 114.628 47.0579 115.189 46.4235 114.884L39.5278 111.582C39.2688 111.458 38.9592 111.468 38.6997 111.61L31.6019 115.476C30.9304 115.843 30.1428 115.326 30.2718 114.602L31.6481 106.861C31.6988 106.574 31.6008 106.286 31.3852 106.089L25.5005 100.717C24.9449 100.21 25.2517 99.3114 26.0184 99.1976L34.103 97.9989C34.3979 97.955 34.6529 97.7748 34.7847 97.5156L38.3158 90.5799C38.6429 89.9372 39.5858 89.944 39.9111 90.589L39.9105 90.5884Z" fill="#D8DDE0"/>
<path d="M67.6238 90.7409L70.7435 97.2547C70.8583 97.4946 71.0801 97.6597 71.3368 97.6957L78.161 98.6668C78.7886 98.7564 79.0386 99.5625 78.5849 100.032L73.6735 105.124C73.4894 105.314 73.4055 105.585 73.4494 105.847L74.6186 112.905C74.7272 113.562 74.0607 114.093 73.4894 113.803L67.2793 110.657C67.0463 110.539 66.7676 110.548 66.534 110.682L60.1511 114.336C59.5477 114.681 58.8401 114.19 58.956 113.504L60.1928 106.168C60.2384 105.897 60.15 105.623 59.9563 105.436L54.6717 100.34C54.173 99.8599 54.4482 99.0082 55.1367 98.9006L62.3994 97.7678C62.6645 97.7267 62.8936 97.5555 63.0119 97.3099L66.1878 90.7318C66.4822 90.1224 67.3305 90.128 67.6238 90.7397V90.7409Z" fill="url(#paint10_linear_0_1274)"/>
<path d="M92.6321 90.8788L95.4557 97.076C95.5598 97.3041 95.7608 97.4613 95.9927 97.4962L102.176 98.4234C102.745 98.5084 102.971 99.2762 102.56 99.7234L98.1093 104.566C97.9427 104.747 97.8667 105.004 97.9061 105.254L98.9649 111.973C99.0634 112.598 98.4594 113.103 97.9415 112.826L92.3197 109.822C92.1092 109.709 91.857 109.718 91.6459 109.845L85.8755 113.308C85.33 113.635 84.6911 113.167 84.7958 112.515L85.9132 105.544C85.9543 105.287 85.8749 105.027 85.6998 104.849L80.9274 100.002C80.4777 99.5449 80.7259 98.736 81.3468 98.634L87.907 97.561C88.1468 97.5216 88.354 97.3588 88.4609 97.1261L91.3329 90.8709C91.5992 90.2913 92.367 90.2963 92.6321 90.8782V90.8788Z" fill="url(#paint11_linear_0_1274)"/>
<path d="M115.314 91.0043L117.881 96.9142C117.976 97.1317 118.159 97.2821 118.37 97.3153L123.998 98.2025C124.516 98.2842 124.722 99.017 124.348 99.4434L120.296 104.061C120.144 104.233 120.075 104.479 120.111 104.717L121.075 111.129C121.164 111.726 120.615 112.206 120.144 111.941L115.031 109.067C114.839 108.959 114.61 108.967 114.418 109.087L109.176 112.379C108.681 112.69 108.101 112.243 108.196 111.622L109.21 104.982C109.248 104.736 109.175 104.488 109.016 104.319L104.685 99.6974C104.277 99.262 104.502 98.4914 105.066 98.3951L111.021 97.375C111.238 97.3378 111.426 97.1829 111.524 96.9604L114.134 90.9981C114.376 90.4449 115.073 90.45 115.314 91.0048L115.314 91.0043Z" fill="url(#paint12_linear_0_1274)"/>
<path d="M135.979 91.1183L138.324 96.7663C138.41 96.9742 138.577 97.1178 138.77 97.1499L143.915 98.0005C144.389 98.0788 144.577 98.7795 144.235 99.1879L140.53 103.6C140.391 103.765 140.328 103.999 140.361 104.227L141.242 110.358C141.324 110.929 140.821 111.387 140.391 111.133L135.72 108.378C135.545 108.275 135.336 108.282 135.161 108.396L130.378 111.532C129.926 111.829 129.397 111.4 129.484 110.807L130.409 104.468C130.443 104.233 130.377 103.997 130.232 103.834L126.284 99.4188C125.912 99.0031 126.118 98.2675 126.631 98.1757L132.061 97.204C132.26 97.1685 132.431 97.0204 132.52 96.808L134.901 91.1121C135.122 90.5837 135.759 90.5882 135.979 91.1183H135.979Z" fill="#D8DDE0"/>
<g style="mix-blend-mode:multiply" opacity="0.1">
<g style="mix-blend-mode:multiply">
<path d="M128.412 102.913C113.319 99.0551 103.033 119.595 84.9518 115.465C68.9786 111.815 68.5282 94.6553 49.1657 82.4664C47.8237 81.6221 46.4552 80.8391 45.062 80.1136L23.727 79.5774C16.9844 79.4078 11.3975 84.4932 11.3975 90.9394V115.373C11.3975 121.82 16.9844 126.717 23.727 126.32L144.55 119.208C139.099 108.09 133.293 104.16 128.411 102.913H128.412Z" fill="#9AA5AA"/>
</g>
</g>
<path d="M39.9105 90.5884L43.3758 97.4531C43.5036 97.706 43.7496 97.8795 44.0345 97.9178L51.6057 98.9374C52.3014 99.0309 52.5784 99.8798 52.0757 100.375L46.6284 105.741C46.4246 105.942 46.3312 106.227 46.3796 106.503L47.6765 113.936C47.797 114.628 47.0579 115.189 46.4235 114.884L39.5278 111.582C39.2688 111.458 38.9592 111.468 38.6997 111.61L31.6019 115.476C30.9304 115.843 30.1428 115.326 30.2718 114.602L31.6481 106.861C31.6988 106.574 31.6008 106.286 31.3852 106.089L25.5005 100.717C24.9449 100.21 25.2517 99.3114 26.0184 99.1976L34.103 97.9989C34.3979 97.955 34.6529 97.7748 34.7847 97.5156L38.3158 90.5799C38.6429 89.9372 39.5858 89.944 39.9111 90.589L39.9105 90.5884Z" fill="url(#paint13_linear_0_1274)"/>
<path d="M55.8132 81.6691C56.0164 81.3542 56.3873 80.6833 56.411 79.7826C56.4571 78.0325 55.1596 76.6671 54.9857 76.7454C54.8917 76.7876 55.011 77.3002 55.0774 77.5278C55.2165 78.001 55.3656 78.0466 55.3533 78.264C55.3274 78.7113 54.6823 78.7287 54.3417 79.3224C54.0963 79.7499 54.0771 80.3589 54.3417 80.841C54.7808 81.6403 55.7715 81.6691 55.8132 81.6691Z" fill="url(#paint14_linear_0_1274)"/>
<path d="M83.5251 119.684L83.0264 117.967L85.108 116.424L86.4056 115.938L85.6372 118.341L83.5251 119.684Z" fill="url(#paint15_linear_0_1274)"/>
<path d="M80.9478 154.265C80.9478 154.265 82.0865 157.132 81.7871 158.402C83.0097 158.378 83.8006 158.223 83.8006 158.223C83.8006 158.223 83.3092 156.915 83.2135 156.267C83.084 155.393 83.0936 153.977 83.0936 153.977L80.9483 154.264L80.9478 154.265Z" fill="url(#paint16_linear_0_1274)"/>
<path d="M68.3964 160.969C68.4701 161.058 68.6008 161.244 68.6115 161.496C68.6176 161.633 68.5861 161.746 68.5467 161.849C68.3525 162.36 68.0474 162.427 67.7187 162.97C67.5177 163.301 67.5554 163.401 67.3713 163.55C67.1287 163.747 66.8349 163.759 66.5804 163.761C66.1504 163.767 65.5312 163.751 64.751 163.658C65.1597 163.131 65.5942 162.596 66.0564 162.055C66.259 161.818 66.4617 161.586 66.6632 161.36L67.8645 160.954C68.0418 160.959 68.2185 160.964 68.3959 160.968L68.3964 160.969Z" fill="#262648"/>
<path d="M67.3973 155.132C67.3973 155.132 66.7105 158.718 67.5842 159.722C68.3283 160.726 67.2245 160.01 67.2245 160.01L65.9061 161.161L65.1152 162.528C65.1152 162.528 65.8431 159.019 65.6489 157.626C65.4547 156.234 65.3573 155.294 65.3573 155.294L67.3967 155.132L67.3973 155.132Z" fill="url(#paint17_linear_0_1274)"/>
<path d="M64.8081 115.91C64.8081 115.91 62.9629 117.562 62.9629 124.363C62.9629 131.165 63.8371 145.934 63.8371 145.934L65.2354 156.508C65.2354 156.508 66.6854 156.56 67.6565 156.268C68.5301 152.284 69.9543 145.545 69.2748 139.91C68.9838 133.788 71.7027 126.112 71.7027 126.112C71.7027 126.112 74.0332 133.885 75.6842 137.772C77.3347 141.659 80.478 153.835 80.769 154.709C82.7004 154.884 83.5256 154.373 83.5256 154.373C83.5256 154.373 82.2872 141.27 81.1219 136.314C79.9567 131.359 80.0535 119.407 78.1115 116.007C73.7421 114.258 64.8087 115.91 64.8087 115.91H64.8081Z" fill="url(#paint18_linear_0_1274)"/>
<path d="M64.8081 115.91C64.8081 115.91 62.9629 117.562 62.9629 124.363C62.9629 131.165 63.8371 145.934 63.8371 145.934L65.2354 156.508C65.2354 156.508 66.6854 156.56 67.6565 156.268C68.5307 152.284 69.9543 145.545 69.2748 139.91C68.9833 133.788 71.7021 126.112 71.7021 126.112C71.7021 126.112 74.0326 133.885 75.6836 137.772C77.3341 141.659 80.4774 153.835 80.7685 154.709C82.6998 154.884 83.525 154.373 83.525 154.373C83.525 154.373 82.2866 141.27 81.1214 136.314C79.9562 131.359 80.053 119.407 78.1115 116.007C73.7421 114.258 64.8087 115.91 64.8087 115.91H64.8081Z" fill="url(#paint19_linear_0_1274)"/>
<path style="mix-blend-mode:multiply" opacity="0.25" d="M74.3922 128.372C74.9675 132.114 76.118 134.129 78.9945 136.719C81.2957 138.446 79.5699 142.188 80.4328 145.067C80.7205 145.93 81.5834 146.794 81.871 147.657C82.9417 149.799 81.9414 152.42 82.4272 154.688C83.1826 154.584 83.5255 154.373 83.5255 154.373C83.5255 154.373 82.287 141.27 81.1218 136.314C79.9566 131.359 80.0534 119.407 78.1119 116.007C73.7426 114.258 64.8091 115.91 64.8091 115.91C64.8091 115.91 62.9639 117.562 62.9639 124.363C62.9639 124.915 62.9695 125.52 62.9802 126.165C64.8958 127.861 68.8131 128.237 71.2286 126.357C71.3744 126.247 71.5297 126.18 71.6902 126.148C71.6975 126.126 71.7025 126.112 71.7025 126.112C71.7025 126.112 71.7065 126.125 71.7127 126.145C72.8121 125.945 74.1428 127.373 74.3922 128.372Z" fill="url(#paint20_linear_0_1274)"/>
<path d="M81.4871 159.491C81.4871 159.491 81.2033 159.491 81.227 159.857C81.2506 160.224 81.0992 161.486 82.5419 161.545C83.9847 161.604 84.2071 161.443 84.2544 161.443C84.3016 161.443 83.8761 160.236 83.8761 160.236L83.415 159.644L82.1732 159.514L81.4876 159.491H81.4871Z" fill="#262648"/>
<path d="M84.6857 160.757C84.6547 160.452 84.4847 159.973 84.313 159.586C84.0586 159.013 84.2674 158.798 84.0243 158.276C83.9404 158.095 83.8582 157.924 83.6803 157.755C83.6392 157.716 83.2412 157.347 82.6614 157.366C82.5472 157.37 82.3715 157.377 82.1818 157.479C81.9584 157.598 81.8463 157.777 81.7506 157.934C81.6003 158.182 81.6347 158.257 81.4033 158.966C81.3847 159.023 81.3437 159.146 81.3127 159.317C81.2885 159.447 81.2789 159.557 81.2744 159.631C81.6527 159.631 83.1073 159.691 83.4146 159.915C83.722 160.14 83.8756 160.519 83.8756 160.897C83.8756 161.276 84.0648 161.453 84.2539 161.441C84.4228 161.431 84.7589 161.117 84.6857 160.755V160.757Z" fill="#355178"/>
<path d="M67.2129 159.218C67.5377 159.223 67.7764 159.482 67.956 160.106C68.1355 160.73 68.9985 161.282 67.992 161.149C66.9849 161.017 66.2543 162.444 65.8946 162.972C65.5349 163.5 64.57 163.968 64.5937 163.453C64.6179 162.937 65.0434 162.697 65.1633 162.169C65.2832 161.641 66.4716 159.207 67.2129 159.218Z" fill="#355178"/>
<path d="M84.2887 116.731C84.5273 116.066 86.0185 111.7 83.6086 107.718C81.6356 104.458 78.2221 103.395 77.7352 103.251C74.772 102.376 73.287 103.501 72.352 102.465C70.7657 100.709 72.5626 94.7242 76.0386 93.5255C79.957 92.1742 84.6574 97.3699 86.5623 100.782C89.0611 105.259 88.4463 109.709 88.3017 110.625C87.9256 113.007 87.0526 114.823 86.4052 115.938C85.6999 116.202 84.994 116.466 84.2887 116.73V116.731Z" fill="url(#paint21_linear_0_1274)"/>
<path d="M74.0563 92.6803C70.5589 92.5406 67.8614 92.5958 66.3376 94.1195C64.7283 95.7288 66.3545 97.5454 66.0049 101.755C65.4702 108.2 61.366 109.775 61.0569 116.313C60.9528 118.516 61.3255 120.317 61.6148 121.402C62.5155 122.524 63.9897 124.108 66.1654 125.432C69.3312 127.36 71.1675 127.024 75.7147 128.269C83.1519 130.306 83.8139 132.731 87.5016 132.114C91.2286 131.489 94.4986 128.35 94.104 126.627C93.8676 125.595 92.3651 125.887 90.6347 124.313C88.405 122.284 89.2652 120.347 87.5697 118.167C85.1351 115.035 81.7429 116.949 79.668 114.235C77.5695 111.489 78.4015 106.079 80.1707 103.129C81.3264 101.203 81.8212 98.9457 82.8046 96.9258C82.8862 96.7579 82.9813 96.483 82.9391 96.1389C82.7798 94.8236 80.5884 94.1099 78.9283 93.5867C76.3969 92.7885 74.3428 92.6916 74.0546 92.6803H74.0563Z" fill="url(#paint22_linear_0_1274)"/>
<path d="M71.1104 92.5361L71.8 92.3237C71.8 92.3237 71.9801 93.2582 74.1986 93.3748C75.4297 93.3748 76.2256 92.6848 76.2256 92.6848L76.6968 93.0284C76.6968 93.0284 75.6627 94.3211 74.0179 94.2879C71.8957 94.2457 71.1099 92.5355 71.1099 92.5355L71.1104 92.5361Z" fill="url(#paint23_linear_0_1274)"/>
<path d="M72.5146 89.6939C72.6475 88.6676 73.4586 88.0097 73.6354 87.8689C74.3762 87.2797 74.527 87.2205 74.7815 87.1721L75.1288 87.1191C75.1288 87.1191 75.1474 87.1191 75.1665 87.1208C75.3697 87.1332 75.9793 87.3715 76.0902 87.4492C76.4443 87.6982 76.1837 89.463 75.1102 91.6575C75.068 91.8434 75.0258 92.0293 74.9835 92.2151C75.9191 92.3796 76.151 92.5486 76.1584 92.6832C76.1741 92.9756 75.1502 93.3479 74.2005 93.3721C73.01 93.4026 71.7457 92.89 71.7699 92.5075C71.7794 92.3526 72.004 92.1617 72.8687 91.9741C73.0038 91.7843 73.1389 91.5939 73.274 91.404C73.1513 91.2553 72.4161 90.4493 72.5141 89.6933L72.5146 89.6939Z" fill="url(#paint24_linear_0_1274)"/>
<path d="M73.9868 89.3077C74.257 89.146 74.4624 89.4935 74.3352 89.7971C74.208 90.1008 73.7807 90.2911 73.5212 90.1098C73.2617 89.9284 73.6231 89.5251 73.9868 89.3071V89.3077Z" fill="url(#paint25_linear_0_1274)"/>
<path d="M108.987 89.3025C105.433 85.4429 97.1623 86.5013 92.5751 89.6011C90.4434 91.0414 89.3496 92.743 86.8306 92.8855C84.9161 92.9942 81.8696 92.2738 80.2659 90.1981C80.0638 89.9367 79.2554 88.8401 78.0418 87.4572C77.5065 86.8477 76.9745 86.2754 76.1498 86.1459C75.9404 86.1132 75.243 85.9994 74.7825 86.45C74.4088 86.815 74.3176 87.4499 74.4279 87.9072C74.4938 88.181 74.5793 88.2097 74.5675 88.3889C74.5332 88.8919 73.6173 89.111 73.6685 89.3645C73.7051 89.5453 74.1813 89.4794 74.2635 89.7064C74.3536 89.9553 73.8301 90.17 73.6049 90.7963C73.1833 91.0785 72.917 91.7809 72.8253 92.7211C72.6896 94.1028 72.8286 95.2254 73.0904 96.0709C74.3502 100.142 75.2514 103.054 77.4322 104.68C80.3193 106.833 82.9195 104.845 90.2638 104.531C100.321 104.101 102.828 107.512 106.443 105.178C110.956 102.264 112.68 93.3097 108.989 89.3025H108.987Z" fill="url(#paint26_linear_0_1274)"/>
<path d="M56.2378 81.4233C56.1483 82.2654 55.8449 85.9904 58.4123 89.1352C60.8115 92.0738 64.2092 92.6608 64.8408 92.7565C67.8957 93.2184 69.213 91.9009 70.2808 92.7988C72.0923 94.3219 71.1297 100.496 67.8501 102.159C64.1535 104.033 58.7872 99.53 56.4337 96.41C53.3461 92.3172 53.3478 87.825 53.3658 86.8973C53.4125 84.487 54.03 82.5679 54.5186 81.3743C54.7196 81.314 55.0253 81.247 55.4002 81.2599C55.757 81.2723 56.0452 81.3529 56.2378 81.4227V81.4233Z" fill="url(#paint27_linear_0_1274)"/>
<path style="mix-blend-mode:multiply" opacity="0.25" d="M87.614 129.651C86.7195 128.733 87.704 126.883 86.3829 125.508C85.1568 124.231 83.7687 125.263 81.7951 124.164C79.2637 122.755 79.9611 120.176 77.5428 118.789C75.804 117.792 74.9867 118.864 72.2836 118.342C69.5849 117.819 66.2981 115.958 64.6741 112.631C63.9839 111.217 63.73 109.812 63.6963 108.556C62.4826 110.725 61.2234 112.805 61.0579 116.314C60.9538 118.517 61.3264 120.318 61.6157 121.402C62.5164 122.525 63.9907 124.109 66.1664 125.433C69.3322 127.361 71.1684 127.025 75.7156 128.27C83.1529 130.307 83.8149 132.732 87.5025 132.114C89.8848 131.715 92.0745 130.289 93.2459 128.862C89.8088 130.393 88.2636 130.317 87.6145 129.651L87.614 129.651Z" fill="url(#paint28_linear_0_1274)"/>
<path d="M48.3743 49.9534H49.1922L65.0304 61.1897C62.5873 64.4743 61.1586 68.313 61.1586 72.8294L40.2739 72.5191C40.2739 63.9228 43.2861 56.2965 48.3743 49.9534Z" fill="url(#paint29_linear_0_1274)"/>
<path d="M76.4028 53.3631C72.66 54.4818 69.8673 56.7665 67.2954 59.437C67.2751 59.4584 67.2644 59.5147 67.2346 59.5159C66.5912 59.5333 66.8186 59.5502 66.4167 59.5142L66.3806 59.4888L49.8354 48.3009C55.2073 42.436 62.4312 38.0858 70.5761 36.2444H71.394L76.4022 53.3631H76.4028Z" fill="url(#paint30_linear_0_1274)"/>
<path d="M96.4541 37.7482L91.8388 53.6024C89.7943 52.9214 87.5314 52.3299 85.2482 52.2167C83.2076 52.1159 80.5332 52.5885 78.6277 52.9648L72.7881 35.7458C76.5568 35.0394 80.4916 34.8186 84.5057 35.1357C88.7219 35.4686 92.731 36.3727 96.4536 37.7477L96.4541 37.7482Z" fill="url(#paint31_linear_0_1274)"/>
<path d="M115.503 51.7923L102.237 60.3441L102.36 60.7987H101.542C99.3371 58.1388 96.4318 55.8739 93.0605 54.3958L98.4674 38.5518C99.0314 38.5236 98.7696 38.5501 99.2853 38.5501C99.3005 38.5501 99.3128 38.5614 99.3264 38.5676C105.964 41.5361 111.413 46.3341 115.503 51.7923Z" fill="url(#paint32_linear_0_1274)"/>
<path d="M122.93 73.7072L106.128 73.4718C106.128 69.2888 104.898 65.6641 102.767 62.4619L116.667 53.4583C117.485 53.4583 117.371 53.4307 117.485 53.4583C117.624 53.4921 117.015 53.9844 117.092 54.1044C120.8 59.8645 122.93 66.5102 122.93 73.7067V73.7072Z" fill="url(#paint33_linear_0_1274)"/>
<path d="M81.9556 67.0887L104.206 51.03L88.4043 72.6663L81.9556 67.0887Z" fill="url(#paint34_linear_0_1274)"/>
<path d="M90.3347 71.1146C90.3347 74.0887 87.7397 76.4776 84.5063 76.4506C81.2369 76.423 78.5591 73.9406 78.5591 70.9062C78.5591 67.8718 81.2363 65.484 84.5063 65.5724C87.7397 65.6598 90.3347 68.1405 90.3347 71.1146Z" fill="url(#paint35_linear_0_1274)"/>
<path d="M84.5065 74.3162C82.5273 74.2925 80.9072 72.7813 80.9072 70.9478C80.9072 69.1143 82.5273 67.6604 84.5065 67.7066C86.4722 67.7523 88.0619 69.263 88.0619 71.0745C88.0619 72.886 86.4722 74.3399 84.5065 74.3162ZM84.5065 68.3516C82.9146 68.3161 81.6131 69.4866 81.6131 70.9601C81.6131 72.4337 82.9146 73.6504 84.5065 73.6713C86.09 73.6921 87.3717 72.5216 87.3717 71.0621C87.3717 69.6026 86.09 68.3865 84.5065 68.3516Z" fill="url(#paint36_linear_0_1274)"/>
<path d="M49.1922 50.001L65.8482 61.2131C63.4052 64.4976 61.9765 68.324 61.9765 72.841L41.0918 72.5486C41.0918 63.9524 44.104 56.2545 49.1922 50.001Z" fill="url(#paint37_linear_0_1274)"/>
<path d="M77.2206 53.3497C73.3084 54.5191 69.8616 56.6635 67.2345 59.5115L50.6533 48.2869C56.0252 42.422 63.2491 38.1833 71.3939 36.218L77.2201 53.3492L77.2206 53.3497Z" fill="url(#paint38_linear_0_1274)"/>
<path d="M97.2719 37.748L91.8387 53.6022C89.7942 52.9211 87.6072 52.4987 85.3241 52.3855C83.2835 52.2846 81.293 52.4362 79.3876 52.8124L73.6064 35.7455C77.3752 35.0392 81.3099 34.8184 85.3241 35.1355C89.5403 35.4684 93.5494 36.3725 97.2719 37.7474V37.748Z" fill="url(#paint39_linear_0_1274)"/>
<path d="M116.322 51.7919L102.36 60.7841C100.155 58.0815 97.2502 55.8661 93.8789 54.388L99.2857 38.5474C106.225 41.5057 112.091 46.1455 116.322 51.7913V51.7919Z" fill="url(#paint40_linear_0_1274)"/>
<path d="M123.748 73.7069L106.946 73.4715C106.946 69.2885 105.716 65.6638 103.584 62.4615L117.485 53.458C121.454 59.3652 123.748 66.2395 123.748 73.7069Z" fill="url(#paint41_linear_0_1274)"/>
<path d="M82.7734 67.0884L105.024 51.0298L89.2222 72.6661L82.7734 67.0884Z" fill="url(#paint42_linear_0_1274)"/>
<path d="M91.1526 71.1144C91.1526 74.0885 88.5575 76.4774 85.3241 76.4503C82.0547 76.4227 79.377 73.9403 79.377 70.9059C79.377 67.8715 82.0542 65.4838 85.3241 65.5722C88.5575 65.6595 91.1526 68.1402 91.1526 71.1144Z" fill="url(#paint43_linear_0_1274)"/>
<path d="M85.3244 74.316C83.3452 74.2923 81.7251 72.781 81.7251 70.9475C81.7251 69.114 83.3452 67.6602 85.3244 67.7064C87.2901 67.752 88.8797 69.2627 88.8797 71.0743C88.8797 72.8858 87.2901 74.3396 85.3244 74.316ZM85.3244 68.3514C83.7324 68.3159 82.431 69.4864 82.431 70.9599C82.431 72.4335 83.7324 73.6502 85.3244 73.671C86.9079 73.6919 88.1896 72.5213 88.1896 71.0619C88.1896 69.6024 86.9079 68.3863 85.3244 68.3514Z" fill="#D8DDE0"/>
<defs>
<linearGradient id="paint0_linear_0_1274" x1="15.9585" y1="52.5901" x2="51.4024" y2="101.637" gradientUnits="userSpaceOnUse">
<stop stop-color="#ACAFB4"/>
<stop offset="1" stop-color="#AAADB2"/>
</linearGradient>
<linearGradient id="paint1_linear_0_1274" x1="22.1229" y1="21.0631" x2="51.5532" y2="105.546" gradientUnits="userSpaceOnUse">
<stop stop-color="#CACDD2"/>
<stop offset="1" stop-color="#96999D"/>
</linearGradient>
<linearGradient id="paint2_linear_0_1274" x1="140.176" y1="14.2334" x2="96.8951" y2="108.811" gradientUnits="userSpaceOnUse">
<stop stop-color="#8195C2"/>
<stop offset="1" stop-color="#56729A"/>
</linearGradient>
<linearGradient id="paint3_linear_0_1274" x1="150.351" y1="41.8083" x2="96.7657" y2="113.432" gradientUnits="userSpaceOnUse">
<stop stop-color="#90ACD7"/>
<stop offset="1" stop-color="#6B86B7"/>
</linearGradient>
<linearGradient id="paint4_linear_0_1274" x1="131.479" y1="72.9604" x2="101.227" y2="125.374" gradientUnits="userSpaceOnUse">
<stop stop-color="#CACDD2"/>
<stop offset="1" stop-color="#96999D"/>
</linearGradient>
<linearGradient id="paint5_linear_0_1274" x1="34.2335" y1="89.7862" x2="127.315" y2="89.7862" gradientUnits="userSpaceOnUse">
<stop stop-color="#355178"/>
<stop offset="1" stop-color="#262648"/>
</linearGradient>
<linearGradient id="paint6_linear_0_1274" x1="37.3189" y1="89.7485" x2="127.441" y2="89.7485" gradientUnits="userSpaceOnUse">
<stop stop-color="#90ACD7"/>
<stop offset="1" stop-color="#6B86B7"/>
</linearGradient>
<linearGradient id="paint7_linear_0_1274" x1="61.07" y1="32.7359" x2="107.628" y2="32.7359" gradientUnits="userSpaceOnUse">
<stop stop-color="#355178"/>
<stop offset="1" stop-color="#262648"/>
</linearGradient>
<linearGradient id="paint8_linear_0_1274" x1="10.0684" y1="102.958" x2="151.238" y2="102.958" gradientUnits="userSpaceOnUse">
<stop stop-color="#355178"/>
<stop offset="1" stop-color="#262648"/>
</linearGradient>
<linearGradient id="paint9_linear_0_1274" x1="44.4327" y1="158" x2="105.626" y2="65.2039" gradientUnits="userSpaceOnUse">
<stop stop-color="#EBEEEE"/>
<stop offset="1" stop-color="white"/>
</linearGradient>
<linearGradient id="paint10_linear_0_1274" x1="85.8414" y1="84.6292" x2="50.909" y2="120.245" gradientUnits="userSpaceOnUse">
<stop stop-color="#CACDD2"/>
<stop offset="1" stop-color="#96999D"/>
</linearGradient>
<linearGradient id="paint11_linear_0_1274" x1="98.4605" y1="96.965" x2="64.2812" y2="131.814" gradientUnits="userSpaceOnUse">
<stop stop-color="#CACDD2"/>
<stop offset="1" stop-color="#96999D"/>
</linearGradient>
<linearGradient id="paint12_linear_0_1274" x1="116.132" y1="99.6022" x2="80.7219" y2="158.717" gradientUnits="userSpaceOnUse">
<stop stop-color="#CACDD2"/>
<stop offset="1" stop-color="#96999D"/>
</linearGradient>
<linearGradient id="paint13_linear_0_1274" x1="42.7364" y1="88.4626" x2="20.5011" y2="154.281" gradientUnits="userSpaceOnUse">
<stop stop-color="#CACDD2"/>
<stop offset="1" stop-color="#96999D"/>
</linearGradient>
<linearGradient id="paint14_linear_0_1274" x1="55.9179" y1="78.362" x2="53.9142" y2="81.6014" gradientUnits="userSpaceOnUse">
<stop stop-color="#CACDD2"/>
<stop offset="1" stop-color="#96999D"/>
</linearGradient>
<linearGradient id="paint15_linear_0_1274" x1="84.4325" y1="116.715" x2="85.2417" y2="118.378" gradientUnits="userSpaceOnUse">
<stop stop-color="#CACDD2"/>
<stop offset="1" stop-color="#96999D"/>
</linearGradient>
<linearGradient id="paint16_linear_0_1274" x1="82.3736" y1="159.074" x2="82.3736" y2="153.856" gradientUnits="userSpaceOnUse">
<stop stop-color="#CACDD2"/>
<stop offset="1" stop-color="#96999D"/>
</linearGradient>
<linearGradient id="paint17_linear_0_1274" x1="66.4786" y1="160.561" x2="66.4786" y2="154.273" gradientUnits="userSpaceOnUse">
<stop stop-color="#CACDD2"/>
<stop offset="1" stop-color="#96999D"/>
</linearGradient>
<linearGradient id="paint18_linear_0_1274" x1="62.9629" y1="135.858" x2="83.5245" y2="135.858" gradientUnits="userSpaceOnUse">
<stop stop-color="#142344"/>
<stop offset="1" stop-color="#3C5D84"/>
</linearGradient>
<linearGradient id="paint19_linear_0_1274" x1="62.3093" y1="120.52" x2="77.1373" y2="145.409" gradientUnits="userSpaceOnUse">
<stop stop-color="#142344"/>
<stop offset="1" stop-color="#3C5D84"/>
</linearGradient>
<linearGradient id="paint20_linear_0_1274" x1="68.141" y1="117.046" x2="82.969" y2="141.935" gradientUnits="userSpaceOnUse">
<stop stop-color="#142344"/>
<stop offset="1" stop-color="#3C5D84"/>
</linearGradient>
<linearGradient id="paint21_linear_0_1274" x1="79.5628" y1="101.725" x2="68.4204" y2="67.6033" gradientUnits="userSpaceOnUse">
<stop stop-color="#ACAFB4"/>
<stop offset="1" stop-color="#AAADB2"/>
</linearGradient>
<linearGradient id="paint22_linear_0_1274" x1="65.0294" y1="93.7759" x2="80.9351" y2="126.462" gradientUnits="userSpaceOnUse">
<stop stop-color="#ACAFB4"/>
<stop offset="1" stop-color="#AAADB2"/>
</linearGradient>
<linearGradient id="paint23_linear_0_1274" x1="71.9492" y1="89.6853" x2="74.989" y2="94.5131" gradientUnits="userSpaceOnUse">
<stop stop-color="#90ACD7"/>
<stop offset="1" stop-color="#6B86B7"/>
</linearGradient>
<linearGradient id="paint24_linear_0_1274" x1="75.6151" y1="88.9447" x2="72.2745" y2="94.3447" gradientUnits="userSpaceOnUse">
<stop stop-color="#CACDD2"/>
<stop offset="1" stop-color="#96999D"/>
</linearGradient>
<linearGradient id="paint25_linear_0_1274" x1="74.4401" y1="88.2026" x2="72.5334" y2="94.0444" gradientUnits="userSpaceOnUse">
<stop stop-color="#CACDD2"/>
<stop offset="1" stop-color="#96999D"/>
</linearGradient>
<linearGradient id="paint26_linear_0_1274" x1="73.4417" y1="65.8727" x2="101.435" y2="110.337" gradientUnits="userSpaceOnUse">
<stop stop-color="#355178"/>
<stop offset="1" stop-color="#262648"/>
</linearGradient>
<linearGradient id="paint27_linear_0_1274" x1="63.2613" y1="94.5382" x2="78.9054" y2="126.686" gradientUnits="userSpaceOnUse">
<stop stop-color="#ACAFB4"/>
<stop offset="1" stop-color="#AAADB2"/>
</linearGradient>
<linearGradient id="paint28_linear_0_1274" x1="62.7348" y1="94.8927" x2="78.6411" y2="127.579" gradientUnits="userSpaceOnUse">
<stop stop-color="#ACAFB4"/>
<stop offset="1" stop-color="#AAADB2"/>
</linearGradient>
<linearGradient id="paint29_linear_0_1274" x1="52.2229" y1="66.2638" x2="22.4628" y2="181.675" gradientUnits="userSpaceOnUse">
<stop stop-color="#142344"/>
<stop offset="1" stop-color="#3C5D84"/>
</linearGradient>
<linearGradient id="paint30_linear_0_1274" x1="64.5236" y1="13.1993" x2="62.6393" y2="63.6334" gradientUnits="userSpaceOnUse">
<stop stop-color="#142344"/>
<stop offset="1" stop-color="#3C5D84"/>
</linearGradient>
<linearGradient id="paint31_linear_0_1274" x1="83.6034" y1="53.1766" x2="77.0881" y2="158.166" gradientUnits="userSpaceOnUse">
<stop stop-color="#142344"/>
<stop offset="1" stop-color="#3C5D84"/>
</linearGradient>
<linearGradient id="paint32_linear_0_1274" x1="99.3224" y1="51.0454" x2="187.131" y2="-16.1637" gradientUnits="userSpaceOnUse">
<stop stop-color="#142344"/>
<stop offset="1" stop-color="#3C5D84"/>
</linearGradient>
<linearGradient id="paint33_linear_0_1274" x1="133.882" y1="-11.2962" x2="106.457" y2="92.0681" gradientUnits="userSpaceOnUse">
<stop stop-color="#142344"/>
<stop offset="1" stop-color="#3C5D84"/>
</linearGradient>
<linearGradient id="paint34_linear_0_1274" x1="90.8257" y1="57.4043" x2="97.1187" y2="63.1529" gradientUnits="userSpaceOnUse">
<stop stop-color="#142344"/>
<stop offset="1" stop-color="#3C5D84"/>
</linearGradient>
<linearGradient id="paint35_linear_0_1274" x1="78.5591" y1="71.0104" x2="90.3347" y2="71.0104" gradientUnits="userSpaceOnUse">
<stop stop-color="#142344"/>
<stop offset="1" stop-color="#3C5D84"/>
</linearGradient>
<linearGradient id="paint36_linear_0_1274" x1="80.9072" y1="71.0109" x2="88.0619" y2="71.0109" gradientUnits="userSpaceOnUse">
<stop stop-color="#142344"/>
<stop offset="1" stop-color="#3C5D84"/>
</linearGradient>
<linearGradient id="paint37_linear_0_1274" x1="53.0171" y1="66.3728" x2="23.531" y2="180.722" gradientUnits="userSpaceOnUse">
<stop stop-color="#51637F"/>
<stop offset="1" stop-color="#464848"/>
</linearGradient>
<linearGradient id="paint38_linear_0_1274" x1="65.3403" y1="13.222" x2="63.4572" y2="63.6172" gradientUnits="userSpaceOnUse">
<stop stop-color="#CACDD2"/>
<stop offset="0.54" stop-color="#87A5CE"/>
<stop offset="1" stop-color="#96999D"/>
</linearGradient>
<linearGradient id="paint39_linear_0_1274" x1="84.429" y1="53.0456" x2="77.9612" y2="157.275" gradientUnits="userSpaceOnUse">
<stop stop-color="#CACDD2"/>
<stop offset="1" stop-color="#96999D"/>
</linearGradient>
<linearGradient id="paint40_linear_0_1274" x1="100.142" y1="51.0421" x2="187.929" y2="-16.1511" gradientUnits="userSpaceOnUse">
<stop stop-color="#90ACD7"/>
<stop offset="1" stop-color="#6B86B7"/>
</linearGradient>
<linearGradient id="paint41_linear_0_1274" x1="134.485" y1="-10.4848" x2="107.319" y2="91.9046" gradientUnits="userSpaceOnUse">
<stop stop-color="#90ACD7"/>
<stop offset="1" stop-color="#6B86B7"/>
</linearGradient>
<linearGradient id="paint42_linear_0_1274" x1="91.6441" y1="57.4039" x2="97.9371" y2="63.1525" gradientUnits="userSpaceOnUse">
<stop stop-color="#355178"/>
<stop offset="1" stop-color="#262648"/>
</linearGradient>
<linearGradient id="paint43_linear_0_1274" x1="79.377" y1="71.0101" x2="91.1526" y2="71.0101" gradientUnits="userSpaceOnUse">
<stop stop-color="#355178"/>
<stop offset="1" stop-color="#262648"/>
</linearGradient>
</defs>
</svg>
