<svg width="167" height="172" viewBox="0 0 167 172" fill="none" xmlns="http://www.w3.org/2000/svg">
<path d="M157.365 113.452C145.369 127.074 125.347 125.73 125.391 132.151C125.439 139.241 149.85 140.436 150.305 147.109C150.922 156.151 107.445 173.542 62.0556 166.422C46.418 163.968 31.6131 161.598 18.8408 150.052C-16.1606 118.408 9.47337 51.4241 13.6512 40.337C21.908 18.4248 32.1334 11.3602 35.2976 9.15766C51.7603 -2.30085 70.703 -0.418032 87.6185 1.26264C100.427 2.53548 119.608 4.70095 137.118 19.1488C140.104 21.6128 146.691 27.4675 152.626 36.7559C167.047 59.3221 173.42 95.2214 157.365 113.452Z" fill="#F4F6F8"/>
<path d="M71.7057 127.202C99.3956 136.262 108.687 133.764 111.934 129.601C113.821 127.181 114.592 123.01 119.648 118.346C123.909 114.415 125.943 114.996 127.989 111.802C131.54 106.262 126.921 102.174 129.847 96.7341C133.051 90.7777 140.061 92.9402 144.274 85.8838C146.579 82.0235 144.684 81.0369 146.8 77.1631C151.113 69.2675 160.097 71.3301 164.225 64.2437C166.627 60.1178 166.555 54.3131 164.154 50.5463C159.336 42.9915 145.065 43.5174 136.294 48.5753C135.164 49.227 126.635 54.306 124.548 63.3781C123.289 68.852 125.294 71.7856 122.834 74.8689C119.363 79.2187 113.455 75.7833 110.077 79.6042C105.5 84.7819 113.083 94.7825 107.866 100.6C105.847 102.851 104.199 101.924 102.126 104.546C98.7173 108.858 101.22 113.839 100.019 117.669C98.7291 121.781 92.6732 126.145 71.7051 127.201L71.7057 127.202Z" fill="url(#paint0_linear_0_922)"/>
<g style="mix-blend-mode:soft-light" opacity="0.28">
<path d="M135.004 61.7581C130.068 69.7272 135.286 75.9903 129.983 82.0689C125.677 87.0057 120.313 85.0783 118.056 89.9322C115.892 94.584 120.229 97.6233 118.132 102.992C116.403 107.417 112.846 106.918 108.425 112.319C103.975 117.757 104.895 121.544 102.524 124.917C99.9794 128.537 93.8501 131.381 78.7728 129.382C76.5606 128.744 74.2092 128.021 71.7051 127.202C92.6733 126.146 98.7285 121.783 100.019 117.67C101.22 113.84 98.7173 108.859 102.126 104.547C104.199 101.925 105.847 102.852 107.866 100.6C113.082 94.7826 105.5 84.7827 110.077 79.6049C113.455 75.7835 119.363 79.2194 122.834 74.8697C125.294 71.7863 123.289 68.8528 124.548 63.3788C126.635 54.3068 135.164 49.2277 136.294 48.576C145.065 43.5182 159.336 42.9922 164.154 50.547C164.176 50.5834 164.198 50.621 164.221 50.6575C160.32 50.2244 155.447 50.3155 150.176 51.9415C146.082 53.2037 138.938 55.4068 135.004 61.7581Z" fill="white"/>
</g>
<path d="M77.916 131.349C90.0488 130.092 93.9007 126.972 94.8591 124.02C96.4277 119.186 90.1369 115.14 91.8688 109.623C93.8643 103.269 103.872 103.361 104.198 99.0387C104.551 94.3664 92.954 92.9983 91.5487 85.9901C90.2749 79.637 99.1209 77.3505 100.345 68.5746C101.806 58.0968 90.2385 53.8858 89.8932 41.6627C89.6571 33.3164 94.8168 27.0098 98.866 22.0612C107.976 10.9259 124.752 1.26384 141.585 4.96953C143.88 5.47491 157.281 8.42548 159.468 16.8635C161.685 25.4179 151.694 36.9757 142.398 42.5125C135.66 46.5255 130.487 46.6595 129.654 50.4774C128.532 55.624 137.178 58.8379 136.912 66.539C136.772 70.6108 134.216 73.7306 131.702 76.7993C126.004 83.7552 121.582 82.8138 120.306 86.9456C118.56 92.5987 126.287 96.1493 126.807 105.068C127.178 111.422 123.651 116.394 121.664 119.195C113.917 130.115 96.7289 134.493 77.9166 131.35L77.916 131.349Z" fill="url(#paint1_linear_0_922)"/>
<g style="mix-blend-mode:soft-light" opacity="0.7">
<path d="M164.371 13.487C156.574 15.9774 148.768 18.4326 140.954 20.8643C139.003 21.4796 137.045 22.0702 135.101 22.7077L129.265 24.6035C127.322 25.2417 125.384 25.8904 123.457 26.5692C121.531 27.2491 119.614 27.9548 117.744 28.757C116.81 29.1595 115.888 29.5873 115.004 30.0727C114.559 30.3113 114.132 30.5769 113.714 30.8513C113.304 31.1352 112.908 31.4366 112.545 31.7698C111.82 32.4374 111.262 33.2513 110.925 34.1745C110.593 35.1 110.417 36.0796 110.456 37.0634C110.489 38.0471 110.714 39.0237 111.053 39.9628C111.392 40.9036 111.853 41.8051 112.35 42.686C113.35 44.4477 114.536 46.116 115.666 47.8273C116.799 49.5367 117.897 51.2914 118.75 53.1854C119.166 54.1351 119.534 55.1117 119.789 56.1248C120.034 57.1391 120.193 58.1775 120.218 59.2252C120.239 61.3179 119.8 63.4169 118.871 65.2992C118.403 66.2382 117.807 67.1073 117.141 67.9077C116.474 68.7075 115.731 69.4321 114.985 70.1367C113.493 71.5376 111.951 72.8874 110.905 74.6004C109.832 76.2893 109.345 78.2985 109.283 80.2988C109.256 81.2996 109.349 82.3027 109.579 83.277C109.811 84.2507 110.159 85.1974 110.592 86.1101C111.023 87.0244 111.523 87.9112 112.018 88.8091C112.511 89.7076 113.005 90.6208 113.375 91.6004C113.752 92.5736 113.985 93.6219 113.999 94.6791C114.004 95.7363 113.815 96.7864 113.46 97.7731C113.105 98.7615 112.584 99.6888 111.939 100.512C111.288 101.33 110.535 102.057 109.738 102.712C108.15 104.033 106.406 105.123 104.946 106.52C104.216 107.215 103.572 107.996 103.082 108.867C102.601 109.742 102.281 110.703 102.13 111.694C101.985 112.686 102.001 113.699 102.22 114.677C102.439 115.656 102.848 116.584 103.27 117.516C103.475 117.986 103.691 118.456 103.849 118.958C104.003 119.457 104.131 119.978 104.125 120.513C104.135 121.044 104.056 121.58 103.876 122.079C103.702 122.581 103.443 123.047 103.138 123.475C102.511 124.321 101.712 125.011 100.853 125.585C99.9934 126.162 99.0791 126.645 98.1436 127.073C96.2649 127.914 94.3111 128.559 92.3338 129.098C90.3565 129.639 88.3551 130.082 86.3443 130.469C84.3329 130.853 82.3128 131.187 80.2855 131.471C76.2328 132.049 72.1602 132.471 68.0834 132.82L68.0811 132.793C72.1543 132.41 76.2223 131.954 80.2661 131.342C82.2893 131.041 84.3042 130.691 86.3085 130.29C88.3122 129.887 90.3054 129.428 92.2704 128.872C94.2353 128.319 96.1733 127.661 98.0238 126.813C98.9452 126.383 99.8419 125.898 100.676 125.327C101.512 124.759 102.277 124.084 102.869 123.28C103.445 122.475 103.818 121.508 103.778 120.52C103.77 119.53 103.356 118.589 102.94 117.664C102.515 116.737 102.086 115.781 101.852 114.758C101.618 113.736 101.597 112.67 101.743 111.636C101.896 110.603 102.226 109.591 102.727 108.67C103.236 107.752 103.906 106.934 104.654 106.216C106.152 104.772 107.9 103.671 109.45 102.366C110.23 101.719 110.953 101.011 111.573 100.225C112.186 99.4338 112.675 98.5523 113.008 97.6121C113.342 96.6706 113.514 95.6746 113.505 94.685C113.486 93.6936 113.266 92.7123 112.9 91.7803C112.172 89.908 110.987 88.215 110.109 86.3357C109.663 85.4002 109.298 84.4159 109.054 83.3987C108.812 82.3803 108.712 81.3284 108.739 80.2835C108.769 79.2393 108.911 78.1992 109.185 77.1872C109.318 76.6801 109.501 76.1865 109.702 75.7017C109.918 75.2233 110.154 74.752 110.434 74.3089C110.704 73.8582 111.019 73.4398 111.34 73.0285C111.672 72.6265 112.013 72.2328 112.376 71.8632C113.093 71.1145 113.857 70.427 114.598 69.7265C115.338 69.026 116.062 68.3161 116.705 67.5428C117.346 66.7695 117.914 65.9385 118.358 65.0429C119.24 63.25 119.659 61.2315 119.635 59.2358C119.61 58.2351 119.456 57.2414 119.219 56.2665C118.972 55.2927 118.615 54.3484 118.209 53.4252C117.377 51.5829 116.294 49.8552 115.164 48.1569C114.037 46.4551 112.843 44.7838 111.818 42.9851C111.309 42.0854 110.831 41.1581 110.474 40.1714C110.117 39.1877 109.872 38.147 109.835 37.0833C109.792 36.0197 109.98 34.9519 110.341 33.9524C110.529 33.4546 110.773 32.971 111.077 32.5273C111.38 32.0831 111.737 31.6799 112.128 31.3191C112.521 30.9612 112.942 30.6433 113.374 30.3477C113.812 30.0627 114.256 29.7883 114.714 29.545C115.626 29.049 116.564 28.6183 117.51 28.2146C119.405 27.4101 121.333 26.709 123.268 26.0338C125.203 25.3604 127.147 24.7175 129.095 24.0858C132.988 22.817 136.9 21.6165 140.823 20.4506C148.662 18.093 156.507 15.7588 164.361 13.46L164.369 13.4858L164.371 13.487Z" fill="white"/>
</g>
<path d="M82.3379 121.282C84.0703 123.283 86.9632 126.358 91.0405 129.492C99.4384 135.947 114.98 144.28 123.471 139.175C124.514 138.547 127.273 136.89 128.193 133.857C129.15 130.703 127.269 128.869 128.36 127.092C129.851 124.664 134.26 126.638 139.906 125.408C144.701 124.363 151.386 120.789 153.448 114.287C155.708 107.158 151.061 100.756 150.55 100.075C147.076 95.4435 140.41 91.6267 134.584 93.4331C129.429 95.0315 126.871 100.433 125.182 103.996C121.362 112.06 123.35 117.155 119.711 119.067C116.397 120.809 113.316 117.336 109.163 119.767C107.389 120.805 107.4 121.762 104.392 123.978C102.116 125.656 99.9657 126.687 99.1183 127.019C92.558 129.591 83.1671 121.969 82.3391 121.282L82.3379 121.282Z" fill="url(#paint2_linear_0_922)"/>
<g style="mix-blend-mode:soft-light" opacity="0.5">
<path d="M112.788 132.64C110.207 132.64 106.441 132.183 100.893 130.803C94.0171 129.092 87.2042 126.657 80.6445 123.563L80.7332 123.375C87.2806 126.463 94.0805 128.894 100.943 130.601C114.81 134.051 117.426 131.723 118.286 130.959C119.609 129.782 119.968 128.477 120.347 127.096C120.769 125.561 121.246 123.821 123.142 121.998C124.87 120.335 126.442 119.873 127.962 119.427C129.466 118.985 130.887 118.567 132.443 117.061C134.451 115.118 134.888 113.054 135.351 110.869C135.611 109.646 135.879 108.381 136.428 107.054C138.595 101.821 144.337 97.8719 153.494 95.3145L153.55 95.5148C144.457 98.0541 138.761 101.963 136.62 107.134C136.078 108.443 135.812 109.698 135.555 110.912C135.084 113.13 134.64 115.224 132.588 117.211C130.995 118.753 129.483 119.197 128.021 119.627C126.525 120.066 124.977 120.52 123.286 122.148C121.432 123.931 120.982 125.568 120.547 127.151C120.16 128.563 119.793 129.897 118.424 131.114C117.893 131.586 116.708 132.641 112.788 132.641V132.64Z" fill="white"/>
</g>
<path d="M165.076 146.085L1.63281 144.691V148.816C1.63281 149.935 2.34575 150.887 3.31121 151.057L49.5281 159.18C50.0766 159.276 50.6327 159.302 51.1865 159.256L163.3 149.995C164.301 149.912 165.076 148.957 165.076 147.807V146.085Z" fill="#C1C7CA"/>
<path d="M105.763 139.475L3.32331 147.021C1.49047 147.156 0 145.721 0 143.816V67.482C0 65.5769 1.49047 64.032 3.32331 64.032H105.763C107.274 64.032 108.495 65.4282 108.495 67.1506V136.155C108.495 137.877 107.274 139.363 105.763 139.475V139.475Z" fill="#C1C7CA"/>
<path d="M107.397 139.475L4.9571 147.021C3.12367 147.156 1.63379 145.721 1.63379 143.816V67.482C1.63379 65.5769 3.12426 64.032 4.9571 64.032H107.397C108.908 64.032 110.129 65.4282 110.129 67.1506V136.155C110.129 137.877 108.908 139.363 107.397 139.475V139.475Z" fill="#C1C7CA"/>
<path d="M104.205 134.61L8.79262 141.164C7.30098 141.267 6.08887 140.089 6.08887 138.533V71.7033C6.08887 70.1478 7.30098 68.8815 8.79262 68.875L104.205 68.4636C105.451 68.4584 106.458 69.6025 106.458 71.0193V131.89C106.458 133.307 105.451 134.524 104.205 134.61V134.61Z" fill="url(#paint3_linear_0_922)"/>
<path d="M59.7952 66.1201C59.7952 66.8294 59.2678 67.4059 58.6165 67.4082C57.9647 67.4106 57.4355 66.8358 57.4355 66.1248C57.4355 65.4137 57.9647 64.8373 58.6165 64.8367C59.2678 64.8367 59.7952 65.4108 59.7952 66.1201Z" fill="white"/>
<g style="mix-blend-mode:soft-light" opacity="0.48">
<path d="M4.95613 147.021L106.878 139.513L107.396 139.475C108.089 139.424 108.719 139.081 109.2 138.561C101.866 138.16 97.3106 135.555 94.372 132.864C88.4706 127.46 89.4942 122.13 83.13 118.577C75.1926 114.145 68.9512 119.761 62.9276 114.219C59.2761 110.86 61.069 108.355 56.5752 103.335C51.5982 97.7746 48.3583 99.6439 43.3566 94.6395C37.0324 88.3118 40.1953 83.389 34.7479 78.8459C28.1394 73.3344 21.0124 78.4358 14.7217 73.1505C12.0085 70.871 10.5198 67.5567 9.74231 64.032H4.95613C3.12328 64.032 1.63281 65.5763 1.63281 67.482V143.816C1.63281 145.721 3.12269 147.156 4.95613 147.021Z" fill="white"/>
</g>
<path d="M111.479 139.057L1.63281 147L49.5281 155.417C50.0766 155.514 50.6327 155.539 51.1865 155.494L165.076 146.086L113.227 139.111C112.647 139.033 112.062 139.015 111.479 139.057Z" fill="#D8DDE0"/>
<path d="M17.6621 147.067L109.112 140.356L137.415 144.133L46.7527 151.307L17.6621 147.067Z" fill="#C1C7CA"/>
<path d="M120.701 118.96C120.701 127.405 113.816 134.689 105.205 135.236L9.27832 141.331C19.4215 140.686 27.521 132.748 27.521 123.59V18.2432L120.701 21.8102V118.961V118.96Z" fill="url(#paint4_linear_0_922)"/>
<path d="M114.087 79.4874L41.998 80.4876V77.5928L114.087 76.7695V79.4874Z" fill="#D8DDE0"/>
<path d="M36.1172 80.5689L39.3818 80.5237V77.623L36.1172 77.6601V80.5689Z" fill="#D8DDE0"/>
<path d="M114.087 83.9763L41.998 85.2673V82.3726L114.087 81.2578V83.9763Z" fill="#D8DDE0"/>
<path d="M36.1172 85.3725L39.3818 85.3143V82.4131L36.1172 82.4636V85.3725Z" fill="url(#paint5_linear_0_922)"/>
<path d="M114.087 88.4645L41.998 90.0465V87.1523L114.087 85.7461V88.4645Z" fill="#D8DDE0"/>
<path d="M36.1172 90.1758L39.3818 90.1041V87.2029L36.1172 87.2669V90.1758Z" fill="url(#paint6_linear_0_922)"/>
<path d="M114.087 92.9522L41.998 94.8262V91.9315L114.087 90.2344V92.9522Z" fill="#D8DDE0"/>
<path d="M36.1172 94.979L39.3818 94.8944V91.9932L36.1172 92.0701V94.979Z" fill="#D8DDE0"/>
<path d="M114.087 101.929L36.1172 104.586V101.677L114.087 99.2109V101.929Z" fill="#D8DDE0"/>
<path d="M114.087 106.418L36.1172 109.39V106.481L114.087 103.699V106.418Z" fill="#D8DDE0"/>
<path d="M114.087 110.905L36.1172 114.193V111.284L114.087 108.188V110.905Z" fill="#D8DDE0"/>
<path d="M114.087 115.393L36.1172 118.996V116.087L114.087 112.675V115.393Z" fill="#D8DDE0"/>
<path d="M36.1172 51.0403L114.033 51.3464V54.3605H36.1172V51.0403Z" fill="#D8DDE0"/>
<path d="M36.1172 45.9404L114.033 46.7161V49.7302L36.1172 49.26V45.9404Z" fill="#D8DDE0"/>
<path d="M36.1172 37.7646L114.033 39.2937V45.1002L36.1172 44.1606V37.7646Z" fill="#C1C7CA"/>
<path d="M36.1172 60.2367L114.033 60.0527V61.4889L36.1172 61.7299V60.2367Z" fill="#D8DDE0"/>
<path d="M36.1172 63.0866L114.033 62.7939V64.2296L36.1172 64.5798V63.0866Z" fill="#D8DDE0"/>
<path d="M36.1172 65.9352L114.033 65.5332V66.9694L36.1172 67.4284V65.9352Z" fill="#D8DDE0"/>
<path d="M36.1172 68.7857L114.033 68.2744V69.71L36.1172 70.2783V68.7857Z" fill="#D8DDE0"/>
<path d="M86.6338 128.621L114.087 127.02V128.554L86.6338 130.156V128.621Z" fill="#D8DDE0"/>
<path d="M73.3381 131.132L45.8848 132.789V131.254L73.3381 129.597V131.132Z" fill="#D8DDE0"/>
<path d="M133.646 160.979C133.646 160.979 134.039 162.646 134.051 163.25C134.064 163.854 127.704 164.697 127.605 164.252C127.506 163.807 128.57 162.997 129.339 162.678C130.108 162.359 132.362 161.491 132.362 161.491L133.645 160.979L133.646 160.979Z" fill="url(#paint7_linear_0_922)"/>
<path d="M131.966 159.424L132.331 161.508C132.331 161.508 133.112 161.958 133.735 161.508L133.886 159.193L131.966 159.424H131.966Z" fill="url(#paint8_linear_0_922)"/>
<path d="M145.244 162.764C145.244 162.764 145.637 164.431 145.65 165.036C145.662 165.64 139.302 166.482 139.204 166.037C139.104 165.592 140.169 164.782 140.938 164.463C141.707 164.143 143.961 163.276 143.961 163.276L145.244 162.764Z" fill="url(#paint9_linear_0_922)"/>
<path d="M143.566 161.209L143.931 163.293C143.931 163.293 144.711 163.743 145.334 163.293L145.486 160.979L143.565 161.209H143.566Z" fill="url(#paint10_linear_0_922)"/>
<path d="M128.92 104.478C128.303 106.104 127.684 107.73 127.066 109.355C127.157 118.329 127.606 128.058 128.591 138.42C129.324 146.129 130.279 153.41 131.372 160.228C132.369 160.097 133.366 159.965 134.363 159.833C135.579 156.71 136.938 152.02 136.665 146.394C136.38 140.525 134.623 139.89 134.301 134.275C133.883 126.998 136.649 124.815 137.533 115.945C137.87 112.553 137.935 108.154 137.054 102.896C134.343 103.424 131.632 103.951 128.92 104.478V104.478Z" fill="url(#paint11_linear_0_922)"/>
<path style="mix-blend-mode:multiply" opacity="0.3" d="M137.053 102.896C135.589 103.181 134.125 103.466 132.661 103.751C130.373 108.809 130.017 113.904 130.654 116.09C131.555 119.185 133.378 120.048 133.525 123.217C133.67 126.354 131.968 127.313 131.132 131.095C130.554 133.713 130.938 136.043 131.73 140.598C133.327 149.771 135.68 152.42 134.122 155.602C133.68 156.506 132.843 157.609 131.107 158.542C131.195 159.106 131.282 159.671 131.371 160.228C132.368 160.097 133.365 159.965 134.361 159.833C135.578 156.71 136.937 152.02 136.664 146.394C136.379 140.525 134.622 139.89 134.3 134.275C133.882 126.998 136.648 124.815 137.531 115.945C137.869 112.553 137.934 108.154 137.053 102.896H137.053Z" fill="url(#paint12_linear_0_922)"/>
<path d="M133.106 106.961C135.096 114.74 136.968 123.088 138.609 131.97C140.591 142.694 141.988 152.844 142.956 162.294C144.057 162.235 145.157 162.175 146.258 162.116C149.899 152.805 149.698 146.716 148.771 142.818C148.414 141.316 147.532 138.387 147.041 133.939C146.699 130.839 146.708 128.456 146.726 125.592C146.768 119.312 147.294 117.898 147.019 113.12C146.762 108.636 146.605 106.369 145.281 105.149C141.793 101.935 133.717 106.599 133.105 106.961H133.106Z" fill="url(#paint13_linear_0_922)"/>
<path d="M101.152 88.8882C101.152 88.8882 98.7343 88.6714 98.3843 88.2618C98.0343 87.8522 97.5034 87.1958 97.4506 86.8203C97.3983 86.4448 96.9308 87.006 97.3542 87.8205C97.7777 88.6349 96.5761 88.4628 96.3888 88.4428C95.9577 88.3975 94.3128 88.347 94.3604 88.4534C94.408 88.5597 94.1648 89.0304 95.3329 89.5834C96.3553 90.0676 97.5727 89.7526 98.2375 89.7856L98.9023 89.819L100.665 89.9595L101.152 88.8882Z" fill="url(#paint14_linear_0_922)"/>
<path d="M99.7345 87.7072C99.6282 88.5499 99.5213 89.3926 99.415 90.2347C101.017 91.6309 104.557 94.3076 109.483 94.709C118.167 95.4171 126.778 88.6985 128.382 81.1426C129.176 77.4005 128.528 72.1499 126.303 71.3054C125.685 71.0709 124.758 71.1044 122.844 72.4478C117.74 76.0324 117.305 80.7401 114.485 83.9239C112.456 86.2157 108.465 88.5375 99.7345 87.7066V87.7072Z" fill="url(#paint15_linear_0_922)"/>
<path d="M126.349 111.026C125.157 109.29 126.344 107.419 126.38 103.936C126.42 99.989 124.926 99.4577 123 93.0835C121.719 88.8443 120.489 84.7742 121.206 79.8298C121.549 77.4598 122.131 73.4409 125.109 71.2737C126.645 70.1554 128.854 70.069 133.207 69.9432C138.591 69.7869 141.283 69.7093 143.367 70.6419C143.671 70.7789 150.019 73.7277 150.87 79.3297C151.736 85.0316 145.818 86.3033 145.607 94.0214C145.512 97.4862 146.555 102.715 147.231 106.107C147.881 109.364 148.219 110.183 147.674 111.231C146.361 113.758 141.726 113.457 132.455 112.857C128.819 112.621 127.239 112.323 126.349 111.027V111.026Z" fill="url(#paint16_linear_0_922)"/>
<path style="mix-blend-mode:multiply" opacity="0.3" d="M139.027 93.3333C139.529 94.7919 141.009 95.7891 142.257 99.335C142.526 100.101 144.446 105.552 142.615 107.087C141.558 107.973 140.44 106.555 137.711 106.587C132.984 106.641 131.06 110.959 127.903 110.088C127.355 109.936 126.62 109.578 125.844 108.678C125.77 109.554 125.851 110.302 126.348 111.026C127.237 112.321 128.817 112.62 132.454 112.856C141.724 113.456 146.36 113.756 147.673 111.23C148.218 110.182 147.88 109.363 147.23 106.106C146.554 102.714 145.511 97.485 145.606 94.0203C145.817 86.3021 151.734 85.0305 150.869 79.3285C150.637 77.8042 149.993 76.4837 149.18 75.3555C141.843 79.1981 137.449 88.7485 139.027 93.3327L139.027 93.3333Z" fill="url(#paint17_linear_0_922)"/>
<path d="M143.393 83.3934C142.085 80.7378 141.002 76.5943 142.257 70.2019C154.039 73.9499 160.719 84.6145 159.122 93.646C157.806 101.092 151.257 105.213 149.793 106.087C149.374 105.274 148.955 104.462 148.536 103.649C150.143 101.448 151.897 98.2467 151.351 94.8066C150.593 90.0373 146.042 88.7692 143.393 83.3928V83.3934Z" fill="url(#paint18_linear_0_922)"/>
<path d="M133.054 64.2674C133.054 64.2674 133.304 66.3483 134.044 67.8603C134.713 69.2272 137.729 69.8689 138.351 70.1339C138.973 70.3995 137.326 71.4655 135.616 71.7911C133.905 72.1166 128.949 72.1201 128.01 71.5108C127.069 70.902 128.674 70.8191 129.869 70.2438C131.063 69.6685 131.582 67.0928 131.278 65.9687C130.973 64.8445 133.054 64.2668 133.054 64.2668L133.054 64.2674Z" fill="url(#paint19_linear_0_922)"/>
<path d="M130.269 63.7384C129.303 62.8946 129.171 62.7976 129.049 62.4879C128.56 61.2457 129.372 59.4204 130.58 58.8868C130.642 58.8592 131.453 58.5107 131.8 58.8616C132.094 59.1595 131.731 59.6355 131.967 60.2372C132.188 60.8008 132.671 60.8037 133.618 61.4878C134.398 62.0507 134.883 62.401 135.03 62.9381C135.332 64.0458 134.154 65.7864 132.996 65.8387C132.58 65.8575 132.45 65.6454 130.269 63.7379V63.7384Z" fill="#262648"/>
<path d="M132.896 66.0225C132.896 66.0225 132.031 67.2277 130.554 66.9768C129.232 66.7523 129.324 63.6125 130.235 63.0355C130.539 62.8433 131.115 62.8086 131.565 62.9902C131.831 63.0978 131.912 63.2253 132.349 63.3922C132.752 63.5455 132.874 63.5097 132.988 63.6319C133.132 63.7847 133.215 64.1332 132.87 65.0194C133.149 64.7761 133.463 64.7038 133.669 64.8319C133.702 64.8525 133.788 64.9265 133.83 65.0305C133.984 65.406 133.63 65.8297 132.897 66.0225H132.896Z" fill="url(#paint20_linear_0_922)"/>
<path d="M151.348 106.965C151.348 106.965 152.762 107.378 152.912 109.513C152.681 109.497 152.141 109.513 152.141 109.513C152.141 109.513 152.241 107.96 151.235 107.659C151.316 107.478 151.348 106.965 151.348 106.965Z" fill="url(#paint21_linear_0_922)"/>
<path d="M146.159 106.836C146.194 107.225 146.23 107.614 146.265 108.003C146.964 107.828 147.728 107.626 148.549 107.589C149.618 107.54 150.597 107.648 151.469 107.835C151.507 107.786 151.59 107.668 151.627 107.476C151.688 107.166 151.586 106.909 151.567 106.863C151.123 106.72 150.641 106.6 150.126 106.519C148.646 106.285 147.308 106.517 146.159 106.836Z" fill="url(#paint22_linear_0_922)"/>
<path d="M146.093 107.174C146.095 107.033 146.106 106.858 146.158 106.837C146.208 106.818 146.274 106.944 146.302 107.016C146.313 107.045 146.339 107.116 146.356 107.343C146.377 107.636 146.352 107.779 146.33 107.868C146.316 107.921 146.295 108.002 146.264 108.003C146.239 108.005 146.217 107.954 146.184 107.855C146.14 107.723 146.087 107.501 146.092 107.174H146.093Z" fill="url(#paint23_linear_0_922)"/>
<path d="M144.805 109.63C145.098 109.681 145.81 109.831 145.81 109.831C145.81 109.831 145.346 108.465 146.221 107.835C146.244 107.731 146.267 107.568 146.239 107.371C146.218 107.219 146.173 107.097 146.135 107.013C145.763 107.205 144.954 107.853 144.805 109.631V109.63Z" fill="url(#paint24_linear_0_922)"/>
<path d="M138.745 109.99C138.745 109.99 138.781 109.272 140.003 109.272C140.196 109.403 140.205 109.99 140.205 109.99H138.745Z" fill="url(#paint25_linear_0_922)"/>
<path d="M137.66 124.09L141.004 125.981L143.03 119.038L139.692 109.73L138.746 109.99L137.309 123.357C137.277 123.659 137.417 123.952 137.66 124.09Z" fill="url(#paint26_linear_0_922)"/>
<path style="mix-blend-mode:multiply" opacity="0.3" d="M143.031 119.038L139.693 109.73L138.746 109.99C138.979 110.811 139.091 112.149 139.144 112.893C139.367 116.062 140.111 116.944 139.751 119.155C139.451 120.993 138.798 121.242 138.855 122.479C138.917 123.826 139.759 124.953 140.759 125.841L141.005 125.98L143.031 119.038L143.031 119.038Z" fill="url(#paint27_linear_0_922)"/>
<path d="M139.691 109.731H158.052L160.942 124.484L141.004 125.981L139.691 109.731Z" fill="url(#paint28_linear_0_922)"/>
<g style="mix-blend-mode:multiply" opacity="0.2">
<path style="mix-blend-mode:multiply" d="M158.052 109.731H151.867C151.753 110.033 151.579 110.452 151.325 110.925C148.559 116.074 142.227 116.724 142.341 117.57C142.512 118.835 156.613 117.039 156.973 118.778C157.146 119.617 154.169 121.524 151.057 122.247C147.332 123.112 144.594 122.021 142.773 123.964C142.157 124.622 141.885 125.393 141.752 125.914L160.942 124.485L158.052 109.731Z" fill="url(#paint29_linear_0_922)"/>
</g>
<path d="M140.004 109.273C139.797 109.273 139.507 109.249 139.193 109.421C139.126 109.458 139.067 109.498 139.015 109.539L139.16 109.491C139.393 109.427 139.714 109.512 139.834 109.73C139.981 109.998 140.034 110.62 140.066 110.927C140.158 111.801 140.722 117.242 140.722 117.242C140.764 117.701 141.137 118.049 141.578 118.04L158.656 117.21C158.786 117.208 158.914 117.169 159.021 117.093C159.244 116.933 159.345 116.656 159.293 116.393L158.428 109.912C158.355 109.539 158.041 109.272 157.678 109.272H140.004L140.004 109.273Z" fill="url(#paint30_linear_0_922)"/>
<path d="M140.185 109.273C139.979 109.273 139.733 109.246 139.46 109.315C139.386 109.333 139.268 109.367 139.216 109.408C139.216 109.408 139.795 109.279 140.015 109.731C140.149 110.007 140.215 110.62 140.248 110.927C140.339 111.802 140.903 117.243 140.903 117.243C140.945 117.702 141.318 118.049 141.759 118.04L159.03 117.694C159.16 117.691 159.288 117.653 159.395 117.577C159.618 117.417 159.719 117.139 159.667 116.876L158.61 109.913C158.536 109.541 158.223 109.273 157.859 109.273H140.185V109.273Z" fill="url(#paint31_linear_0_922)"/>
<path style="mix-blend-mode:multiply" opacity="0.1" d="M159.667 116.876L158.61 109.913C158.536 109.54 158.223 109.273 157.859 109.273H140.185C139.979 109.273 139.733 109.246 139.46 109.315C139.386 109.333 139.268 109.367 139.216 109.408C139.216 109.408 139.795 109.279 140.015 109.731C140.036 109.774 140.056 109.827 140.073 109.885C141.752 109.947 143.43 109.903 145.108 110.004C148.426 110.199 151.781 110.199 154.913 111.446C155.915 111.845 156.601 113.278 156.329 113.94C156.133 114.417 155.465 114.379 155.231 115.006C154.986 115.664 155.574 116.112 155.327 116.575C155.069 117.059 154.283 116.829 153.011 117.174C152.311 117.364 151.773 117.646 151.437 117.846L159.029 117.694C159.159 117.692 159.287 117.654 159.394 117.577C159.617 117.417 159.718 117.14 159.666 116.877L159.667 116.876Z" fill="url(#paint32_linear_0_922)"/>
<path d="M151.402 118.99L149.24 119.474L149.011 119.492C148.781 119.509 148.583 119.324 148.573 119.08L148.478 116.776C148.468 116.532 148.65 116.33 148.881 116.327L149.11 116.324L151.284 116.582C151.492 116.579 151.667 116.476 151.677 116.704L151.766 118.866C151.775 119.094 151.61 118.975 151.403 118.991L151.402 118.99Z" fill="url(#paint33_linear_0_922)"/>
<path d="M151.567 119.309L149.171 119.491C148.941 119.508 148.743 119.323 148.733 119.079L148.638 116.775C148.628 116.531 148.81 116.329 149.041 116.326L151.443 116.293C151.651 116.29 151.827 116.474 151.836 116.703L151.926 118.864C151.935 119.093 151.775 119.293 151.567 119.309Z" fill="url(#paint34_linear_0_922)"/>
<path d="M148.188 105.175C148.188 105.175 147.26 106.006 147.17 106.597C147.17 106.597 148.478 106.579 148.549 107.588C148.549 107.588 147.356 107.474 147.17 107.784C146.984 108.094 148.353 108.748 149.449 108.421C150.545 108.094 150.421 105.83 150.122 105.175C149.824 104.521 148.187 105.175 148.187 105.175H148.188Z" fill="url(#paint35_linear_0_922)"/>
<path d="M47.0458 166.205C46.9589 165.726 45.412 165.292 44.6462 165.934C44.2657 166.253 44.0038 166.899 44.224 167.191C44.3039 167.298 43.9762 167.484 44.2904 167.488C45.3322 167.501 47.1321 166.683 47.0458 166.206V166.205Z" fill="url(#paint36_linear_0_922)"/>
<path d="M45.3539 166.209L43.7495 166.288C44.3056 165.277 43.6367 162.526 43.6367 162.526L45.3691 162.577C45.3691 162.577 45.3263 163.376 45.2212 164.563C45.1847 164.969 45.2517 165.58 45.3539 166.209Z" fill="url(#paint37_linear_0_922)"/>
<path d="M45.565 166.184C45.565 166.184 43.65 165.743 43.4426 166.123C43.2353 166.503 43.0744 167.521 44.2895 167.488C45.5045 167.455 45.6725 166.506 45.565 166.184V166.184Z" fill="url(#paint38_linear_0_922)"/>
<path d="M67.3575 169.682C67.2042 169.22 65.6122 169.007 64.9433 169.75C64.6115 170.119 64.4423 170.795 64.7013 171.053C64.7953 171.147 64.497 171.378 64.8088 171.338C65.8424 171.204 67.5102 170.142 67.3575 169.682Z" fill="url(#paint39_linear_0_922)"/>
<path d="M65.4749 170.128L63.8987 170.437C64.3039 169.357 63.248 166.731 63.248 166.731L64.9699 166.532C64.9699 166.532 65.0421 167.328 65.1079 168.518C65.1302 168.925 65.2841 169.521 65.4755 170.128H65.4749Z" fill="url(#paint40_linear_0_922)"/>
<path d="M65.8885 169.869C65.8885 169.869 63.9305 169.699 63.7784 170.106C63.6263 170.511 63.6093 171.541 64.8079 171.338C66.0065 171.136 66.04 170.173 65.8885 169.869Z" fill="url(#paint41_linear_0_922)"/>
<path d="M51.4046 114.601C50.9753 121.947 50.3739 129.587 49.5641 137.493C48.6257 146.652 47.4864 155.403 46.2079 163.721C44.6323 164.261 43.1765 163.721 43.1765 163.721C43.1765 163.721 41.3342 160.701 39.9283 152.678C39.0263 147.529 38.964 147.594 38.9541 146.696C38.903 142.165 40.4915 140.853 40.7945 136.803C41.0747 133.056 39.8825 131.934 39.1708 127.716C38.6228 124.472 38.4179 119.745 40.145 113.566C43.8982 113.911 47.6514 114.257 51.4046 114.602V114.601Z" fill="url(#paint42_linear_0_922)"/>
<path style="mix-blend-mode:multiply" opacity="0.3" d="M51.4046 114.6C50.9753 121.947 50.3739 129.586 49.5641 137.492C48.6256 146.651 47.4864 155.402 46.2079 163.72C44.6323 164.261 43.1764 163.72 43.1764 163.72C43.1964 162.95 43.2499 161.79 43.4108 160.389C43.8371 156.672 44.516 155.614 44.5859 153.333C44.6751 150.416 43.6198 150.326 43.4108 147.454C43.0872 143.001 45.5302 141.945 45.761 138.047C46.0047 133.928 43.4272 132.572 41.4522 127.464C40.2865 124.449 39.2518 119.922 40.145 113.566C43.8982 113.911 47.6514 114.257 51.4046 114.602V114.6Z" fill="url(#paint43_linear_0_922)"/>
<path d="M59.3083 114.371C61.4654 121.642 63.556 130.674 64.7217 141.173C65.8528 151.363 65.8322 160.413 65.3712 167.861C64.6853 168.053 64 168.244 63.3141 168.437C59.3271 164.263 57.9036 160.426 57.3598 157.623C56.5553 153.478 57.7674 152.072 56.7103 147.385C56.4672 146.307 56.1248 145.149 52.1631 137.378C48.3823 129.961 47.6072 128.883 46.9665 126.22C46.0521 122.417 46.2935 119.046 46.6417 116.787C50.8641 115.982 55.0859 115.177 59.3083 114.371Z" fill="url(#paint44_linear_0_922)"/>
<path d="M91.684 91.7796L93.2208 90.6989L95.4718 90.153C95.7784 90.079 96.0626 89.9309 96.2993 89.7228C96.2993 89.7228 97.1402 87.5339 97.048 87.1825C96.9558 86.831 94.0859 87.9916 94.0636 88.3354C94.0412 88.6792 92.3059 89.7187 92.3141 90.0355L91.3457 90.7789L91.684 91.7796Z" fill="url(#paint45_linear_0_922)"/>
<path d="M69.5927 81.6344C68.5826 79.1621 66.4138 77.7406 65.2892 77.0031C62.6283 75.2584 60.9253 75.5769 54.8148 74.6467C46.6718 73.4067 45.697 72.232 42.9604 73.184C39.3651 74.4345 37.4877 77.7001 36.6267 79.1968C32.2886 86.741 37.3608 90.5754 36.0583 105.603C35.5262 111.741 34.1632 117.074 37.4389 120.228C38.1284 120.892 38.9 121.239 40.4433 121.935C46.5626 124.69 52.0494 124.215 55.3839 123.884C59.0525 123.521 60.9071 123.313 61.8796 122.016C63.4335 119.944 61.8338 117.31 61.5548 112.753C61.3546 109.481 62.098 106.888 63.585 101.703C67.0416 89.6481 71.5294 86.3708 69.5932 81.6344H69.5927Z" fill="url(#paint46_linear_0_922)"/>
<path d="M55.9625 70.2C56.3331 68.8784 55.6853 67.6543 55.542 67.3905C54.9442 66.2863 54.7909 66.1352 54.5055 65.9443L54.1091 65.6992C54.1091 65.6992 54.0862 65.6898 54.0621 65.6816C53.8079 65.5911 52.9399 65.5646 52.7643 65.6023C52.2029 65.7221 51.605 68.011 51.7753 71.2472C51.7518 71.3706 51.7295 71.4952 51.7078 71.6203C51.6191 72.1316 51.5492 72.6323 51.4946 73.1224C51.443 73.5907 50.7788 73.5801 50.3089 73.5502C48.4009 73.4285 47.4672 73.5907 47.3861 73.8751C47.234 74.4081 49.4974 76.1499 52.2921 76.5419C56.043 76.5701 59.0938 76.1699 58.7661 75.5793C58.6205 75.3166 55.7147 74.5568 54.8972 73.804C54.1491 73.1141 54.2101 72.4025 54.1485 71.893C54.3751 71.7755 55.6906 71.1737 55.9637 70.2006L55.9625 70.2Z" fill="url(#paint47_linear_0_922)"/>
<path d="M55.2722 64.7801C55.2687 65.7826 54.7965 66.8533 54.5563 67.0255C54.5252 67.0478 54.3502 67.1859 54.1934 67.4222C54.1722 67.4545 54.1529 67.4921 54.1364 67.5409C53.9168 68.1726 54.921 68.916 54.7272 69.1992C54.5869 69.4043 53.9045 69.1299 53.8234 69.3073C53.7471 69.4742 54.3138 69.8192 54.2274 70.019C54.1617 70.17 53.8128 70.0319 53.5932 70.2628C53.4834 70.378 53.5157 70.4691 53.3994 70.8211C53.3336 71.0203 53.242 71.2377 53.1704 71.3588C52.8239 71.9476 51.8432 72.1627 51.6547 71.9271C51.6024 71.8612 51.647 71.806 51.5936 71.5856C51.5936 71.5856 51.5437 71.3817 51.4021 71.1455C51.1995 70.8082 50.7098 70.5672 50.2153 70.2111C49.3003 69.5518 49.0513 68.9894 48.9767 68.7996C48.9503 68.732 48.9339 68.6809 48.9215 68.6439C48.6837 67.9046 48.6825 66.8192 49.0143 66.1517C49.5705 65.0334 50.8254 65.5646 51.852 64.4563C53.0371 63.1782 52.3312 61.4305 52.9742 61.2378C53.6831 61.025 55.2786 62.9267 55.2722 64.7801Z" fill="url(#paint48_linear_0_922)"/>
<path d="M54.367 68.9635C54.1215 68.6256 53.6899 68.9429 53.6875 69.3801C53.6852 69.8168 54.108 70.271 54.5185 70.1846C54.929 70.0982 54.6976 69.4178 54.367 68.9635Z" fill="url(#paint49_linear_0_922)"/>
<path d="M54.168 68.2328L54.7376 68.9744C54.7376 68.9744 55.3519 69.8829 55.7101 69.3851C56.0032 68.9785 56.0789 68.9873 56.0971 69.0043C56.1006 69.0073 56.1012 69.0126 56.1024 69.012C56.1077 69.0108 56.0595 68.8098 56.0161 68.6329C56.1676 68.851 56.3767 69.2041 56.5035 69.6796C56.6262 70.1414 56.7584 70.6356 56.4976 71.1111C56.4824 71.1387 56.1958 71.6441 55.6602 71.7663C55.6602 71.7663 55.4494 71.8145 54.5597 71.6582C54.5597 71.6582 55.5322 70.9518 55.5474 70.7837C55.588 70.3277 54.9555 70.0809 54.4857 69.1454C54.3048 68.7846 54.2155 68.4572 54.168 68.2322V68.2328Z" fill="url(#paint50_linear_0_922)"/>
<path style="mix-blend-mode:multiply" opacity="0.1" d="M52.2168 119.578C53.2962 117.427 50.6512 114.569 52.3795 111.291C53.847 108.506 56.5126 109.13 57.7382 106.578C59.2187 103.496 55.9988 101.192 56.1145 96.5031C56.2525 90.8975 61.0727 85.2861 63.9092 85.7779C65.7444 86.0964 65.9804 88.8361 67.2718 91.836C66.129 94.3435 64.7942 97.4844 63.5844 101.703C62.0975 106.889 61.354 109.481 61.5543 112.753C61.8332 117.31 63.4329 119.944 61.879 122.016C60.9065 123.313 59.0519 123.521 55.3833 123.884C52.0494 124.215 46.5626 124.69 40.4428 121.935C39.6682 121.586 39.0886 121.325 38.6152 121.067C48.1759 122.503 51.36 121.284 52.2162 119.578H52.2168Z" fill="url(#paint51_linear_0_922)"/>
<path d="M92.6038 91.7863C92.2115 91.2786 91.8192 90.7708 91.4275 90.2625C81.5633 93.2137 77.1876 91.7928 75.0458 89.7583C74.0287 88.7922 73.085 87.2785 71.9474 85.4532C69.4099 81.3838 68.7375 78.7 65.9386 77.4906C65.2298 77.1845 64.7406 76.9811 64.1521 77.1251C61.4454 77.7874 60.5511 84.8444 61.3104 90.125C61.7291 93.038 62.6834 98.925 67.3598 101.703C73.866 105.569 82.4835 100.339 84.9459 98.8445C88.7067 96.5621 91.155 93.7567 92.6038 91.7863Z" fill="url(#paint52_linear_0_922)"/>
<path d="M96.522 120.377C97.0999 120.035 97.6343 119.702 98.184 119.397C98.8153 119.048 99.4983 118.842 100.219 118.8C101.582 118.72 102.485 119.404 102.766 120.794C102.896 121.439 102.905 122.109 102.969 122.769C102.973 122.807 102.977 122.845 102.983 122.904C103.184 122.803 103.361 122.699 103.549 122.623C104.176 122.367 104.536 122.565 104.673 123.223C104.853 124.084 104.659 124.903 104.397 125.714C104.253 126.162 104.101 126.606 103.997 127.078C104.044 127.018 104.095 126.961 104.136 126.896C104.511 126.299 104.882 125.7 105.258 125.103C105.342 124.97 105.425 124.833 105.532 124.721C105.68 124.567 105.781 124.595 105.867 124.791C106.03 125.161 105.973 125.536 105.894 125.914C105.741 126.643 105.589 127.373 105.448 128.105C105.414 128.282 105.416 128.469 105.425 128.651C105.436 128.856 105.535 128.914 105.7 128.8C105.904 128.659 106.093 128.494 106.269 128.319C107.452 127.145 108.453 125.818 109.429 124.475C110.327 123.239 111.193 121.98 112.075 120.733C112.161 120.611 112.256 120.493 112.363 120.39C112.415 120.34 112.504 120.329 112.577 120.3C112.597 120.383 112.645 120.47 112.63 120.545C112.601 120.69 112.543 120.83 112.487 120.969C112.064 122.015 111.488 122.972 110.791 123.857C109.559 125.424 108.338 126.999 107.092 128.554C106.805 128.912 106.464 129.244 106.094 129.516C105.657 129.838 105.317 129.702 105.238 129.163C105.157 128.61 105.168 128.04 105.174 127.479C105.177 127.135 105.248 126.792 105.297 126.371C105.211 126.485 105.165 126.538 105.128 126.595C104.714 127.228 104.303 127.861 103.89 128.493C103.845 128.563 103.805 128.649 103.74 128.69C103.617 128.77 103.436 128.906 103.353 128.866C103.235 128.809 103.137 128.622 103.112 128.476C103.043 128.076 103.149 127.692 103.278 127.309C103.615 126.312 103.936 125.31 104.255 124.308C104.32 124.104 104.344 123.886 104.397 123.678C104.451 123.465 104.343 123.367 104.158 123.38C103.641 123.414 103.233 123.691 102.889 124.045C102.788 124.149 102.808 124.375 102.781 124.546C102.397 127.02 101.461 129.264 99.9687 131.272C99.7584 131.555 99.5059 131.82 99.2287 132.037C98.8529 132.332 98.5217 132.201 98.4218 131.731C98.2832 131.08 98.332 130.423 98.4888 129.781C99.1072 127.248 100.349 125.092 102.369 123.41C102.445 123.347 102.529 123.24 102.532 123.152C102.551 122.506 102.61 121.854 102.543 121.216C102.443 120.266 101.705 119.664 100.739 119.62C99.9428 119.583 99.2052 119.797 98.5234 120.176C97.9156 120.514 97.3372 120.906 96.7564 121.29C96.6753 121.343 96.6066 121.494 96.6142 121.593C96.7305 123.115 96.8809 124.635 96.9801 126.158C97.0717 127.558 97.1393 128.963 96.9883 130.363C96.8679 131.477 96.5684 132.538 95.7533 133.366C94.8431 134.292 93.7531 134.727 92.4564 134.399C91.6519 134.195 91.1797 133.606 90.8867 132.854C90.5367 131.955 90.4744 131.017 90.623 130.084C91.2255 126.301 93.1018 123.249 96.0241 120.815C96.1738 120.69 96.2319 120.57 96.2237 120.376C96.1779 119.24 96.145 118.103 96.1068 116.967C96.1068 116.953 96.0933 116.938 96.0687 116.892C95.9953 116.943 95.9225 116.988 95.8567 117.041C94.1683 118.401 92.4823 119.762 90.791 121.117C90.6741 121.211 90.5238 121.286 90.3781 121.314C90.1884 121.35 90.0399 121.238 89.9664 121.06C89.8913 120.878 89.9758 120.753 90.1221 120.636C92.0794 119.068 94.0326 117.496 95.99 115.928C96.108 115.833 96.1656 115.739 96.182 115.58C96.3465 113.965 96.68 112.395 97.6014 111.021C97.9233 110.541 98.3061 110.098 98.7008 109.674C98.9692 109.386 99.3274 109.14 99.7397 109.345C99.9693 109.459 100.2 109.676 100.312 109.905C100.989 111.291 101.028 112.566 99.9141 113.664C99.1776 114.389 98.3473 115.02 97.5539 115.687C97.2362 115.954 96.9014 116.2 96.5819 116.465C96.5197 116.517 96.4533 116.61 96.4539 116.684C96.4551 117.729 96.4651 118.775 96.478 119.82C96.4804 120 96.5038 120.179 96.5197 120.38L96.522 120.377ZM96.3183 121.634C96.2079 121.715 96.1468 121.755 96.0916 121.802C93.9363 123.611 92.3948 125.846 91.488 128.509C91.1433 129.52 90.8462 130.548 90.9161 131.643C90.9953 132.885 92.0142 133.79 93.2463 133.666C94.6352 133.525 95.5877 132.754 96.1691 131.519C96.7593 130.266 96.7922 128.916 96.7346 127.567C96.6736 126.15 96.5684 124.735 96.4733 123.32C96.4369 122.776 96.3746 122.233 96.3189 121.634L96.3183 121.634ZM96.5585 115.347C96.5866 115.359 96.6154 115.372 96.6436 115.384C96.683 115.358 96.7252 115.334 96.7616 115.304C97.5268 114.681 98.2968 114.063 99.0543 113.43C99.5136 113.046 99.9446 112.632 100.232 112.093C100.508 111.577 100.513 111.065 100.201 110.56C99.8741 110.03 99.53 109.981 99.0755 110.398C98.0754 111.315 97.3618 112.418 96.9672 113.717C96.8045 114.252 96.6935 114.802 96.559 115.346L96.5585 115.347ZM98.7589 131.322C99.9728 130.795 102.443 126.036 102.274 124.578C100.755 125.473 98.5134 129.758 98.7589 131.322Z" fill="url(#paint53_linear_0_922)"/>
<defs>
<linearGradient id="paint0_linear_0_922" x1="111.289" y1="74.4049" x2="133.235" y2="121.938" gradientUnits="userSpaceOnUse">
<stop stop-color="#CACDD2"/>
<stop offset="1" stop-color="#96999D"/>
</linearGradient>
<linearGradient id="paint1_linear_0_922" x1="110.793" y1="8.12167" x2="119.629" y2="81.4362" gradientUnits="userSpaceOnUse">
<stop stop-color="#ACAFB4"/>
<stop offset="1" stop-color="#AAADB2"/>
</linearGradient>
<linearGradient id="paint2_linear_0_922" x1="118.933" y1="109.434" x2="113.171" y2="162.178" gradientUnits="userSpaceOnUse">
<stop stop-color="#90ACD7"/>
<stop offset="1" stop-color="#6B86B7"/>
</linearGradient>
<linearGradient id="paint3_linear_0_922" x1="6.08887" y1="104.817" x2="106.459" y2="104.817" gradientUnits="userSpaceOnUse">
<stop stop-color="#90ACD7"/>
<stop offset="1" stop-color="#6B86B7"/>
</linearGradient>
<linearGradient id="paint4_linear_0_922" x1="90.1971" y1="37.106" x2="29.0912" y2="163.392" gradientUnits="userSpaceOnUse">
<stop stop-color="white"/>
<stop offset="1" stop-color="#EBEEEE"/>
</linearGradient>
<linearGradient id="paint5_linear_0_922" x1="35.2433" y1="77.099" x2="41.0898" y2="92.9271" gradientUnits="userSpaceOnUse">
<stop stop-color="#ACAFB4"/>
<stop offset="1" stop-color="#AAADB2"/>
</linearGradient>
<linearGradient id="paint6_linear_0_922" x1="36.8149" y1="86.1563" x2="42.6425" y2="101.933" gradientUnits="userSpaceOnUse">
<stop stop-color="#ACAFB4"/>
<stop offset="1" stop-color="#AAADB2"/>
</linearGradient>
<linearGradient id="paint7_linear_0_922" x1="125.264" y1="143.256" x2="133.914" y2="174.451" gradientUnits="userSpaceOnUse">
<stop stop-color="#142344"/>
<stop offset="1" stop-color="#3C5D84"/>
</linearGradient>
<linearGradient id="paint8_linear_0_922" x1="132.855" y1="165.341" x2="132.98" y2="154.84" gradientUnits="userSpaceOnUse">
<stop stop-color="#51637F"/>
<stop offset="1" stop-color="#464848"/>
</linearGradient>
<linearGradient id="paint9_linear_0_922" x1="135.537" y1="140.254" x2="144.187" y2="171.449" gradientUnits="userSpaceOnUse">
<stop stop-color="#142344"/>
<stop offset="1" stop-color="#3C5D84"/>
</linearGradient>
<linearGradient id="paint10_linear_0_922" x1="144.474" y1="165.485" x2="144.599" y2="154.984" gradientUnits="userSpaceOnUse">
<stop stop-color="#51637F"/>
<stop offset="1" stop-color="#464848"/>
</linearGradient>
<linearGradient id="paint11_linear_0_922" x1="127.066" y1="131.562" x2="137.764" y2="131.562" gradientUnits="userSpaceOnUse">
<stop stop-color="#355178"/>
<stop offset="1" stop-color="#262648"/>
</linearGradient>
<linearGradient id="paint12_linear_0_922" x1="127.066" y1="-6.42153" x2="137.763" y2="-6.42153" gradientUnits="userSpaceOnUse">
<stop stop-color="#355178"/>
<stop offset="1" stop-color="#262648"/>
</linearGradient>
<linearGradient id="paint13_linear_0_922" x1="135.947" y1="171.637" x2="140.418" y2="134.958" gradientUnits="userSpaceOnUse">
<stop stop-color="#355178"/>
<stop offset="1" stop-color="#262648"/>
</linearGradient>
<linearGradient id="paint14_linear_0_922" x1="95.1908" y1="86.2579" x2="105.33" y2="96.5721" gradientUnits="userSpaceOnUse">
<stop stop-color="#51637F"/>
<stop offset="1" stop-color="#464848"/>
</linearGradient>
<linearGradient id="paint15_linear_0_922" x1="143.966" y1="55.4795" x2="95.0013" y2="105.508" gradientUnits="userSpaceOnUse">
<stop stop-color="#56729A"/>
<stop offset="1" stop-color="#8195C2"/>
</linearGradient>
<linearGradient id="paint16_linear_0_922" x1="166.658" y1="134.69" x2="129.214" y2="80.9681" gradientUnits="userSpaceOnUse">
<stop stop-color="#56729A"/>
<stop offset="1" stop-color="#8195C2"/>
</linearGradient>
<linearGradient id="paint17_linear_0_922" x1="166.865" y1="134.995" x2="128.956" y2="80.6082" gradientUnits="userSpaceOnUse">
<stop stop-color="#8195C2"/>
<stop offset="1" stop-color="#56729A"/>
</linearGradient>
<linearGradient id="paint18_linear_0_922" x1="176.837" y1="127.617" x2="139.199" y2="73.6181" gradientUnits="userSpaceOnUse">
<stop stop-color="#56729A"/>
<stop offset="1" stop-color="#8195C2"/>
</linearGradient>
<linearGradient id="paint19_linear_0_922" x1="130.429" y1="74.4512" x2="136.433" y2="65.6257" gradientUnits="userSpaceOnUse">
<stop stop-color="#51637F"/>
<stop offset="1" stop-color="#464848"/>
</linearGradient>
<linearGradient id="paint20_linear_0_922" x1="126.089" y1="67.6277" x2="135.458" y2="62.5276" gradientUnits="userSpaceOnUse">
<stop stop-color="#51637F"/>
<stop offset="1" stop-color="#464848"/>
</linearGradient>
<linearGradient id="paint21_linear_0_922" x1="151.696" y1="114.205" x2="152.227" y2="106.314" gradientUnits="userSpaceOnUse">
<stop stop-color="#CACDD2"/>
<stop offset="1" stop-color="#96999D"/>
</linearGradient>
<linearGradient id="paint22_linear_0_922" x1="148.605" y1="111.517" x2="148.982" y2="105.907" gradientUnits="userSpaceOnUse">
<stop offset="0.1" stop-color="#142344"/>
<stop offset="0.3" stop-color="#172849"/>
<stop offset="0.56" stop-color="#213659"/>
<stop offset="0.85" stop-color="#314D73"/>
<stop offset="1" stop-color="#3C5D84"/>
</linearGradient>
<linearGradient id="paint23_linear_0_922" x1="146.345" y1="107.487" x2="150.562" y2="109.746" gradientUnits="userSpaceOnUse">
<stop offset="0.1" stop-color="#142344"/>
<stop offset="0.3" stop-color="#172849"/>
<stop offset="0.56" stop-color="#213659"/>
<stop offset="0.85" stop-color="#314D73"/>
<stop offset="1" stop-color="#3C5D84"/>
</linearGradient>
<linearGradient id="paint24_linear_0_922" x1="145.089" y1="115.156" x2="145.693" y2="106.175" gradientUnits="userSpaceOnUse">
<stop stop-color="#CACDD2"/>
<stop offset="1" stop-color="#96999D"/>
</linearGradient>
<linearGradient id="paint25_linear_0_922" x1="139.966" y1="114.445" x2="137.619" y2="93.0027" gradientUnits="userSpaceOnUse">
<stop offset="0.1" stop-color="#142344"/>
<stop offset="0.58" stop-color="#2A4468"/>
<stop offset="1" stop-color="#3C5D84"/>
</linearGradient>
<linearGradient id="paint26_linear_0_922" x1="150.371" y1="123.44" x2="134.589" y2="114.658" gradientUnits="userSpaceOnUse">
<stop stop-color="#142344"/>
<stop offset="1" stop-color="#3C5D84"/>
</linearGradient>
<linearGradient id="paint27_linear_0_922" x1="136.15" y1="111.288" x2="140.871" y2="119.199" gradientUnits="userSpaceOnUse">
<stop stop-color="#142344"/>
<stop offset="1" stop-color="#3C5D84"/>
</linearGradient>
<linearGradient id="paint28_linear_0_922" x1="149.18" y1="101.836" x2="150.894" y2="124.83" gradientUnits="userSpaceOnUse">
<stop offset="0.1" stop-color="#142344"/>
<stop offset="0.58" stop-color="#2A4468"/>
<stop offset="1" stop-color="#3C5D84"/>
</linearGradient>
<linearGradient id="paint29_linear_0_922" x1="145.663" y1="114.555" x2="159.532" y2="125.234" gradientUnits="userSpaceOnUse">
<stop stop-color="#142344"/>
<stop offset="1" stop-color="#3C5D84"/>
</linearGradient>
<linearGradient id="paint30_linear_0_922" x1="142.076" y1="113.602" x2="147.967" y2="113.374" gradientUnits="userSpaceOnUse">
<stop offset="0.1" stop-color="#142344"/>
<stop offset="0.58" stop-color="#2A4468"/>
<stop offset="1" stop-color="#3C5D84"/>
</linearGradient>
<linearGradient id="paint31_linear_0_922" x1="151.108" y1="131.865" x2="149.221" y2="110.666" gradientUnits="userSpaceOnUse">
<stop offset="0.1" stop-color="#142344"/>
<stop offset="0.3" stop-color="#172849"/>
<stop offset="0.56" stop-color="#213659"/>
<stop offset="0.85" stop-color="#314D73"/>
<stop offset="1" stop-color="#3C5D84"/>
</linearGradient>
<linearGradient id="paint32_linear_0_922" x1="152.035" y1="136.851" x2="148.824" y2="107.519" gradientUnits="userSpaceOnUse">
<stop stop-color="#142344"/>
<stop offset="1" stop-color="#3C5D84"/>
</linearGradient>
<linearGradient id="paint33_linear_0_922" x1="156.826" y1="121.47" x2="146.598" y2="116.127" gradientUnits="userSpaceOnUse">
<stop stop-color="#CACDD2"/>
<stop offset="1" stop-color="#96999D"/>
</linearGradient>
<linearGradient id="paint34_linear_0_922" x1="147.64" y1="116.943" x2="158.145" y2="120.7" gradientUnits="userSpaceOnUse">
<stop stop-color="#CACDD2"/>
<stop offset="1" stop-color="#96999D"/>
</linearGradient>
<linearGradient id="paint35_linear_0_922" x1="147.73" y1="105.71" x2="151.704" y2="109.303" gradientUnits="userSpaceOnUse">
<stop stop-color="#51637F"/>
<stop offset="1" stop-color="#464848"/>
</linearGradient>
<linearGradient id="paint36_linear_0_922" x1="47.936" y1="164.782" x2="44.5287" y2="167.044" gradientUnits="userSpaceOnUse">
<stop stop-color="#355178"/>
<stop offset="1" stop-color="#262648"/>
</linearGradient>
<linearGradient id="paint37_linear_0_922" x1="44.7018" y1="167.018" x2="44.4368" y2="161.699" gradientUnits="userSpaceOnUse">
<stop stop-color="#CACDD2"/>
<stop offset="1" stop-color="#96999D"/>
</linearGradient>
<linearGradient id="paint38_linear_0_922" x1="47.6799" y1="164.398" x2="44.2726" y2="166.66" gradientUnits="userSpaceOnUse">
<stop stop-color="#355178"/>
<stop offset="1" stop-color="#262648"/>
</linearGradient>
<linearGradient id="paint39_linear_0_922" x1="68.0147" y1="168.192" x2="64.9574" y2="170.91" gradientUnits="userSpaceOnUse">
<stop stop-color="#355178"/>
<stop offset="1" stop-color="#262648"/>
</linearGradient>
<linearGradient id="paint40_linear_0_922" x1="64.9385" y1="171.033" x2="63.9124" y2="165.807" gradientUnits="userSpaceOnUse">
<stop stop-color="#CACDD2"/>
<stop offset="1" stop-color="#96999D"/>
</linearGradient>
<linearGradient id="paint41_linear_0_922" x1="67.7072" y1="167.847" x2="64.6499" y2="170.565" gradientUnits="userSpaceOnUse">
<stop stop-color="#355178"/>
<stop offset="1" stop-color="#262648"/>
</linearGradient>
<linearGradient id="paint42_linear_0_922" x1="67.9777" y1="109.472" x2="32.449" y2="151.207" gradientUnits="userSpaceOnUse">
<stop stop-color="#355178"/>
<stop offset="1" stop-color="#262648"/>
</linearGradient>
<linearGradient id="paint43_linear_0_922" x1="51.4046" y1="138.763" x2="39.8079" y2="138.763" gradientUnits="userSpaceOnUse">
<stop stop-color="#142344"/>
<stop offset="1" stop-color="#374B76"/>
</linearGradient>
<linearGradient id="paint44_linear_0_922" x1="77.2363" y1="117.353" x2="41.7076" y2="159.087" gradientUnits="userSpaceOnUse">
<stop stop-color="#355178"/>
<stop offset="1" stop-color="#262648"/>
</linearGradient>
<linearGradient id="paint45_linear_0_922" x1="95.9479" y1="87.3979" x2="90.3553" y2="94.9943" gradientUnits="userSpaceOnUse">
<stop stop-color="#CACDD2"/>
<stop offset="1" stop-color="#96999D"/>
</linearGradient>
<linearGradient id="paint46_linear_0_922" x1="25.9327" y1="146.207" x2="58.9775" y2="81.7183" gradientUnits="userSpaceOnUse">
<stop stop-color="#CACDD2"/>
<stop offset="1" stop-color="#96999D"/>
</linearGradient>
<linearGradient id="paint47_linear_0_922" x1="56.0404" y1="68.121" x2="47.38" y2="87.9795" gradientUnits="userSpaceOnUse">
<stop stop-color="#CACDD2"/>
<stop offset="1" stop-color="#96999D"/>
</linearGradient>
<linearGradient id="paint48_linear_0_922" x1="65.1352" y1="65.0252" x2="21.3951" y2="70.5583" gradientUnits="userSpaceOnUse">
<stop stop-color="#142344"/>
<stop offset="1" stop-color="#3C5D84"/>
</linearGradient>
<linearGradient id="paint49_linear_0_922" x1="56.6866" y1="64.0428" x2="47.0172" y2="86.2156" gradientUnits="userSpaceOnUse">
<stop stop-color="#CACDD2"/>
<stop offset="1" stop-color="#96999D"/>
</linearGradient>
<linearGradient id="paint50_linear_0_922" x1="65.5937" y1="68.6471" x2="21.8537" y2="74.1802" gradientUnits="userSpaceOnUse">
<stop stop-color="#142344"/>
<stop offset="1" stop-color="#3C5D84"/>
</linearGradient>
<linearGradient id="paint51_linear_0_922" x1="70.813" y1="95.4494" x2="49.2012" y2="116.073" gradientUnits="userSpaceOnUse">
<stop stop-color="#142344"/>
<stop offset="1" stop-color="#3C5D84"/>
</linearGradient>
<linearGradient id="paint52_linear_0_922" x1="41.764" y1="155.132" x2="75.2109" y2="89.8589" gradientUnits="userSpaceOnUse">
<stop stop-color="#CACDD2"/>
<stop offset="1" stop-color="#96999D"/>
</linearGradient>
<linearGradient id="paint53_linear_0_922" x1="89.9418" y1="121.886" x2="112.634" y2="121.886" gradientUnits="userSpaceOnUse">
<stop stop-color="#ACAFB4"/>
<stop offset="1" stop-color="#AAADB2"/>
</linearGradient>
</defs>
</svg>
