<svg width="175" height="176" viewBox="0 0 175 176" fill="none" xmlns="http://www.w3.org/2000/svg">
<path d="M45.3023 15.3386C39.5725 23.5468 46.2911 36.8541 37.7883 43.0275C29.5118 49.0369 19.3445 39.1866 11.5447 44.3594C-0.0262513 52.0328 2.08676 87.1446 19.0039 108.961C24.0914 115.522 28.3422 118.074 30.2254 125.494C34.2682 141.426 20.0598 150.904 22.7638 158.784C28.8519 176.526 122.482 191.414 160.05 138.092C177.596 113.188 180.222 77.2264 164.545 49.9137C136.217 0.560147 58.1596 -3.07903 45.3023 15.3386Z" fill="#F4F7F9"/>
<path d="M123.454 116.499C132.338 116.559 143.663 115.367 154.509 110.458C157.278 109.205 174.378 101.466 172.358 93.6721C171.647 90.9268 169.164 90.4934 168.149 86.8395C166.945 82.5098 169.662 80.3477 171.544 74.9514C172.668 71.732 175.956 62.3098 170.315 57.0928C166.944 53.9754 160.537 52.5007 155.66 53.6399C148.506 55.3109 146.047 62.2785 142.09 74.1395C138.582 84.6537 139.483 87.2345 136.825 94.7617C134.852 100.348 131.138 108.04 123.454 116.499Z" fill="url(#paint0_linear_0_1039)"/>
<g style="mix-blend-mode:soft-light" opacity="0.5">
<g style="mix-blend-mode:soft-light">
<path d="M101.139 121.351C95.9943 121.351 90.7294 120.639 85.3867 119.216L85.4946 118.81C95.2159 121.4 104.675 121.62 113.61 119.463C125.512 116.59 135.836 109.455 144.295 98.2569C153.107 86.5924 157.688 73.4425 159.981 64.4648C161.566 58.2531 161.26 51.3745 159.071 44.0201L159.473 43.9004C161.685 51.3285 161.992 58.2826 160.387 64.5686C158.086 73.5834 153.484 86.7899 144.63 98.5105C136.111 109.788 125.707 116.975 113.709 119.872C109.619 120.859 105.421 121.352 101.139 121.352L101.139 121.351Z" fill="white"/>
</g>
<g style="mix-blend-mode:soft-light">
<path d="M153.975 82.4029L153.856 82.2561C153.832 82.2254 151.335 79.114 149.32 74.3645C147.458 69.9759 145.632 63.2471 147.512 56.1126L147.918 56.2199C144.588 68.858 152.972 80.4064 154.067 81.8428C172.871 69.5921 172.685 55.5943 172.178 51.5872C172.163 51.4775 172.156 51.4086 172.157 51.3838L172.367 51.3856L172.576 51.3838C172.578 51.4068 172.584 51.4575 172.594 51.5341C173.111 55.6144 173.308 69.891 154.134 82.2997L153.976 82.4023L153.975 82.4029Z" fill="white"/>
</g>
<g style="mix-blend-mode:soft-light">
<path d="M151.8 98.9459C149.587 98.9459 147.183 98.779 144.578 98.3958L144.468 98.3792L144.42 98.2778C144.369 98.1693 139.29 87.2565 140.404 72.4215L141.527 57.4697L141.945 57.501L140.822 72.4527C139.774 86.4128 144.245 96.8639 144.753 97.9966C151.107 98.9176 160.26 99.0691 168.005 94.6422C172.662 91.98 174.624 88.8774 174.643 88.8461L175 89.0673C174.92 89.197 172.976 92.2772 168.237 94.9924C164.851 96.9323 159.486 98.9453 151.8 98.9453L151.8 98.9459Z" fill="white"/>
</g>
</g>
<path d="M113.888 116.427C107.071 112.218 97.7414 105.027 91.813 93.3791C84.0374 78.1037 88.9423 68.5853 82.6262 41.3286C78.6329 24.0944 75.672 12.1073 65.626 7.41914C57.7531 3.74576 46.4715 4.994 40.7046 11.0601C35.9094 16.1038 34.3655 25.0685 34.5847 31.1988C34.7633 36.1947 36.1232 39.5715 33.857 42.6842C31.5413 45.8652 28.1708 45.0179 25.9029 47.4861C21.3032 52.492 27.0595 64.7987 27.9899 66.7881C38.3388 88.9133 62.9579 100.243 73.7557 105.055C82.6839 109.034 96.253 113.996 113.888 116.427Z" fill="url(#paint1_linear_0_1039)"/>
<g style="mix-blend-mode:soft-light" opacity="0.5">
<g style="mix-blend-mode:soft-light">
<path d="M121.31 119.361C110.56 117.599 101.051 114.822 93.0473 111.108C81.2024 105.61 73.0125 98.1912 68.7052 89.0579C65.3365 81.914 64.3613 73.6256 63.1262 63.132C62.1027 54.4332 62.161 48.1802 62.2129 42.6637C62.2801 35.5121 62.3325 29.8629 59.939 22.1971C57.5072 14.4093 53.2759 7.03425 47.364 0.276535L47.6799 0C53.6312 6.80135 57.8908 14.2277 60.3397 22.0715C62.7533 29.8004 62.6996 35.4785 62.6324 42.6672C62.5806 48.1714 62.5223 54.4096 63.5428 63.0825C64.8215 73.9469 65.7448 81.7966 69.0846 88.8786C73.349 97.9212 81.4705 105.271 93.2241 110.727C101.193 114.425 110.665 117.191 121.378 118.947L121.31 119.361L121.31 119.361Z" fill="white"/>
</g>
<g style="mix-blend-mode:soft-light">
<path d="M62.6539 56.9547L62.5426 56.7454C54.7846 42.2034 44.5383 34.2034 37.3083 30.0524C29.4814 25.5588 23.4205 24.4892 23.3604 24.4786L23.4311 24.0647C23.4924 24.0753 29.6264 25.1579 37.5175 29.688C44.7593 33.8455 55.0074 41.8384 62.7983 56.3332C63.7676 55.6033 68.2405 52.0526 72.1855 45.8909C76.2707 39.5106 80.6105 28.9427 78.0856 14.8282L78.4986 14.7539C81.0494 29.0099 76.6602 39.6863 72.5296 46.1321C68.0537 53.1162 62.9002 56.7808 62.8484 56.8173L62.6545 56.9535L62.6539 56.9547Z" fill="white"/>
</g>
<g style="mix-blend-mode:soft-light">
<path d="M66.0378 80.3165L65.8857 80.3035C55.9623 79.461 43.7662 68.6484 35.2817 59.7261C26.1066 50.0775 19.1754 40.5025 19.1064 40.407L19.4464 40.1611C19.5154 40.2567 26.4325 49.8116 35.5887 59.4396C43.9789 68.2622 56.0059 78.9427 65.7702 79.8708C66.29 78.665 70.0988 69.9886 75.514 61.9667C81.3463 53.3275 97.8097 47.4 97.9753 47.341L98.1161 47.7367C97.9517 47.795 81.6167 53.6772 75.8622 62.2014C70.0794 70.7675 66.1362 80.0813 66.0973 80.1744L66.0384 80.3153L66.0378 80.3165Z" fill="white"/>
</g>
<g style="mix-blend-mode:soft-light">
<path d="M84.2736 109.763C80.5837 109.763 75.1386 109.562 68.7795 108.7C57.8585 107.22 41.9266 103.428 28.0458 93.7786L1.24121 75.1434L1.48045 74.7985L28.285 93.4337C42.0939 103.034 57.9528 106.808 68.8249 108.283C79.1466 109.683 87.0489 109.334 88.9115 109.222C85.6595 105.412 83.8864 101.104 83.6413 96.4113C83.4398 92.5581 84.263 88.4419 86.0885 84.1771C89.189 76.9312 94.184 71.6882 94.2341 71.6357L94.5364 71.927C94.4869 71.9789 89.5385 77.1747 86.4697 84.3528C84.6725 88.5569 83.8617 92.6088 84.0609 96.396C84.3089 101.121 86.1409 105.45 89.5043 109.264L89.7806 109.578L89.364 109.612C89.3246 109.615 87.4484 109.763 84.2742 109.763L84.2736 109.763Z" fill="white"/>
</g>
</g>
<path d="M111.658 115.493C101.638 123.215 87.7706 131.623 71.2471 135.402C67.0305 136.367 40.9807 142.326 36.5638 131.749C35.0082 128.023 37.4506 125.392 35.4572 120.375C33.0955 114.429 28.1547 114.317 21.3767 109.821C17.3321 107.139 5.49602 99.2884 7.4028 88.5124C8.5424 82.073 14.5379 74.8802 21.0479 71.9692C30.5965 67.7003 39.3809 73.481 54.0749 83.52C67.1006 92.4186 68.2997 96.1221 77.7906 102.366C84.835 107.001 95.6653 112.521 111.657 115.492L111.658 115.493Z" fill="url(#paint2_linear_0_1039)"/>
<g style="mix-blend-mode:soft-light" opacity="0.5">
<g style="mix-blend-mode:soft-light">
<path d="M96.624 116.807C88.7688 116.807 80.6131 115.625 72.1929 113.257C52.0821 107.601 35.5102 96.5985 25.1496 88.365C17.9326 82.6297 12.3071 74.4928 8.42871 64.1802L8.82114 64.0322C12.6724 74.2729 18.2537 82.349 25.4106 88.036C35.7412 96.2453 52.2636 107.215 72.3066 112.852C91.5548 118.266 109.421 117.458 125.407 110.452C137.408 105.193 147.956 96.7843 156.759 85.4587L157.09 85.7164C148.244 97.0974 137.641 105.548 125.576 110.836C116.496 114.815 106.814 116.807 96.6246 116.807L96.624 116.807Z" fill="white"/>
</g>
<g style="mix-blend-mode:soft-light">
<path d="M41.0218 103.312C13.4494 103.312 2.8313 88.8415 0.114309 84.1298C0.0559745 84.0284 0.0188557 83.9623 0 83.937L0.33234 83.6811C0.358856 83.7153 0.390084 83.7689 0.477291 83.9205C3.35927 88.917 15.2372 105.01 47.2136 102.659C47.2224 101.623 47.1782 96.45 45.5749 90.1198C43.9291 83.6197 40.2552 74.533 32.1013 68.155L32.36 67.8242C40.6111 74.2777 44.3233 83.4611 45.9844 90.029C47.7828 97.1387 47.6313 102.804 47.6296 102.861L47.6237 103.05L47.4357 103.064C45.2037 103.233 43.0635 103.312 41.0212 103.312L41.0218 103.312Z" fill="white"/>
</g>
<g style="mix-blend-mode:soft-light">
<path d="M37.8772 129.902C32.7903 129.902 29.6791 128.736 29.6396 128.721L29.7899 128.329C29.8388 128.348 34.7466 130.182 42.3366 129.187C49.3286 128.272 60.0887 124.7 71.685 112.894C71.3497 111.427 67.4748 95.545 54.1291 80.4571L39.9897 64.4717L40.3037 64.1934L54.4432 80.1787C68.4571 96.0226 72.0845 112.749 72.1198 112.916L72.1428 113.026L72.0639 113.106C60.3427 125.074 49.4429 128.685 42.3625 129.607C40.7404 129.818 39.2372 129.902 37.8767 129.902H37.8772Z" fill="white"/>
</g>
</g>
<path d="M109.265 124.555C108.503 123.519 103.92 117.481 96.6681 117.229C90.5966 117.019 85.9534 120.978 84.878 121.895C80.5471 125.588 81.0473 128.533 77.549 129.729C73.3948 131.149 70.4133 127.773 67.7269 129.722C65.8738 131.066 65.3311 134.097 66.0824 136.209C67.4011 139.917 73.0212 141.684 77.2838 140.798C83.1562 139.577 83.2882 133.976 89.9561 132.177C93.8309 131.131 94.9593 132.706 99.0805 131.696C103.866 130.522 107.188 127.211 109.265 124.555Z" fill="url(#paint3_linear_0_1039)"/>
<g style="mix-blend-mode:soft-light" opacity="0.5">
<g style="mix-blend-mode:soft-light">
<path d="M75.9092 135.313C72.3066 135.313 67.9202 133.514 62.8115 129.935L62.9317 129.763C69.7752 134.558 75.2946 136.135 79.3362 134.45C81.8835 133.389 83.1451 131.387 84.4815 129.269C85.9846 126.884 87.539 124.418 91.0668 123.241C93.7797 122.336 96.9215 122.77 103.181 123.633C106.309 124.064 109.435 124.689 112.472 125.491L112.418 125.694C109.389 124.894 106.272 124.271 103.153 123.84C96.9251 122.981 93.7997 122.55 91.1334 123.44C87.6769 124.593 86.1425 127.027 84.6588 129.38C83.3048 131.528 82.0255 133.557 79.4169 134.644C78.3463 135.089 77.1761 135.312 75.9086 135.312L75.9092 135.313Z" fill="white"/>
</g>
<g style="mix-blend-mode:soft-light">
<path d="M68.7411 141.39L68.6934 141.185C76.1278 139.459 78.146 135.274 78.3251 134.867C77.6575 132.569 75.7106 130.626 74.1898 129.398C72.5275 128.055 71.002 127.254 70.9861 127.246L71.0833 127.06C71.1446 127.091 77.2515 130.321 78.5366 134.845L78.5466 134.879L78.5337 134.912C78.5154 134.958 76.6257 139.558 68.7405 141.389L68.7411 141.39Z" fill="white"/>
</g>
<g style="mix-blend-mode:soft-light">
<path d="M85.6605 138.983C84.9128 136.734 85.5886 133.407 87.6681 129.091C89.0604 126.201 90.6496 123.817 90.9602 123.36C87.6021 120.623 79.391 127.123 79.3079 127.19L79.1765 127.026C79.1977 127.009 81.3243 125.317 83.8415 124.013C87.2509 122.247 89.7163 121.994 91.1688 123.263L91.2395 123.324L91.1858 123.402C91.1151 123.504 84.1155 133.671 85.8591 138.917L85.66 138.983H85.6605Z" fill="white"/>
</g>
<g style="mix-blend-mode:soft-light">
<path d="M92.9355 135.846C90.958 128.251 101.132 124.06 102.347 123.591C98.8568 117.568 90.1401 116.428 90.0518 116.417L90.0777 116.209C90.1672 116.22 99.0901 117.388 102.59 123.594L102.651 123.703L102.534 123.744C102.419 123.786 91.0947 127.946 93.1382 135.793L92.9355 135.847V135.846Z" fill="white"/>
</g>
</g>
<path d="M66.1252 42.0952C67.2849 42.6842 68.7415 42.1435 69.379 40.887C70.0166 39.6305 69.5935 38.1346 68.4339 37.5456C68.3738 37.5149 68.3125 37.4896 68.2512 37.4648C68.4669 36.7697 68.6289 36.0692 68.7379 35.3681C68.8045 35.3681 68.8711 35.3669 68.9389 35.361C70.2617 35.2431 71.3117 34.0267 71.284 32.644C71.2564 31.2614 70.1615 30.2366 68.8387 30.3545C68.7698 30.361 68.7014 30.3716 68.6342 30.3834C68.4957 29.6983 68.3066 29.029 68.068 28.381C68.1287 28.3457 68.1894 28.3085 68.2483 28.2672C69.3802 27.4736 69.742 25.9075 69.0567 24.7696C68.3714 23.631 66.8983 23.3515 65.7664 24.1451C65.7086 24.1858 65.6538 24.2295 65.5996 24.2743C65.1524 23.7796 64.6621 23.3214 64.1318 22.9034C64.1689 22.8421 64.2055 22.7802 64.2385 22.7153C64.876 21.4588 65.7086 20.0867 64.5402 19.516C61.8367 18.1952 60.6771 19.3261 60.0395 20.582C60.0066 20.6469 59.9783 20.7129 59.9506 20.7796C59.3 20.598 58.6413 20.4724 57.9784 20.4028C57.9825 20.3332 57.986 20.263 57.9843 20.1923C57.9566 18.8096 58.3667 18.0614 57.0385 18.036C54.143 17.9794 53.166 19.2371 53.1937 20.6198C53.1949 20.6923 53.2014 20.7625 53.2085 20.8326C52.545 21.0219 51.8933 21.2636 51.2587 21.5567C51.2286 21.4948 51.1974 21.4335 51.1615 21.3739C50.4762 20.2353 49.003 19.9558 47.8711 20.7495C46.7392 21.5431 46.3774 23.1092 47.0627 24.2472C47.098 24.3055 47.1363 24.3598 47.1752 24.414C46.6738 24.9158 46.2048 25.46 45.7711 26.0443C45.7151 26.009 45.6579 25.9748 45.5978 25.9441C44.4382 25.3551 42.9816 25.8958 42.344 27.1522C41.7065 28.4087 42.1296 29.9046 43.2892 30.4937C43.3493 30.5243 43.4106 30.5497 43.4719 30.5744C43.2562 31.2696 43.0941 31.9701 42.9851 32.6712C42.9185 32.6712 42.8519 32.6723 42.7842 32.6782C41.4613 32.7962 40.4113 34.0126 40.439 35.3952C40.4667 36.7779 41.5615 37.8027 42.8844 37.6848C42.9533 37.6789 43.0217 37.6677 43.0888 37.6559C43.2267 38.341 43.4165 39.0102 43.6551 39.6582C43.5944 39.6936 43.5337 39.7308 43.4748 39.772C42.3429 40.5657 41.981 42.1317 42.6663 43.2697C43.3516 44.4083 45.6208 44.9366 46.7527 44.1435C46.8111 44.1029 46.0692 43.8098 46.1234 43.765C46.5707 44.2597 47.0609 44.7178 47.5912 45.1359C47.5541 45.1972 47.5176 45.2591 47.4846 45.324C46.847 46.5805 47.2701 48.0764 48.4297 48.6654C49.5893 49.2544 51.046 48.7137 51.6835 47.4572C51.7165 47.3924 51.7448 47.3263 51.7725 47.2597C52.423 47.4413 53.0818 47.5669 53.7447 47.6365C53.7406 47.7061 53.7376 47.7762 53.7388 47.847C53.7665 49.2297 54.8613 50.2544 56.1841 50.1365C57.507 50.0186 58.557 48.8022 58.5293 47.4195C58.5282 47.347 58.5217 47.2768 58.5146 47.2067C59.1781 47.0174 59.8298 46.7756 60.4644 46.4826C60.4944 46.5445 60.5257 46.6058 60.5616 46.6648C61.2469 47.8034 62.72 48.0828 63.8519 47.2892C64.9839 46.4956 65.3457 44.9295 64.6604 43.7915C64.625 43.7332 64.5867 43.6789 64.5478 43.6247C65.0493 43.1229 65.5183 42.5787 65.952 41.9943C66.008 42.0297 66.0651 42.0639 66.1252 42.0946V42.0952ZM51.6711 42.2785C47.461 40.14 45.9248 34.7083 48.2394 30.147C50.5539 25.5856 55.843 23.6216 60.0525 25.7607C64.2626 27.8993 65.7988 33.331 63.4843 37.8923C61.1697 42.4537 55.8807 44.4177 51.6711 42.2785Z" fill="#D8DEE3"/>
<path d="M68.9379 35.3609C70.2607 35.243 71.3107 34.0266 71.283 32.6439C71.2553 31.2612 70.1605 30.2364 68.8377 30.3544C68.7687 30.3603 68.7004 30.3715 68.6332 30.3833C68.4953 29.6981 68.3056 29.0289 68.0669 28.3809C68.1276 28.3455 68.1883 28.3084 68.2473 28.2671C69.3792 27.4734 70.7792 25.5566 69.9808 24.4947C68.4653 22.4793 66.8967 23.3514 65.7654 24.145C65.7076 24.1857 65.6528 24.2293 65.5986 24.2741C65.1514 23.7794 64.6611 23.3213 64.1308 22.9032C64.1679 22.8419 64.2045 22.78 64.2375 22.7152C64.5845 22.0312 64.6152 21.2776 64.386 20.6367C63.2929 22.5619 62.2146 24.4952 61.1552 26.4392C64.5138 28.9021 65.5827 33.7547 63.4838 37.8922C61.7049 41.3981 58.1689 43.3669 54.7159 43.1204C54.5621 43.5202 54.4107 43.9217 54.2457 44.3179C53.7979 45.3922 53.29 46.4441 52.7803 47.4948C53.1002 47.555 53.4219 47.6027 53.7448 47.6363C53.7407 47.7065 53.7378 47.7761 53.739 47.8468C53.7667 49.2295 54.6057 50.4041 57.0028 50.2767C58.3291 50.2065 58.5572 48.802 58.5295 47.4194C58.5283 47.3474 58.5218 47.2767 58.5148 47.2065C59.1782 47.0172 59.8299 46.7755 60.4646 46.4824C60.4946 46.5444 60.5259 46.6057 60.5618 46.6646C61.2471 47.8032 63.6253 48.2867 64.7566 47.4931C65.8885 46.6994 65.3452 44.9294 64.66 43.7914C64.6246 43.733 64.5863 43.6788 64.5474 43.6245C65.0489 43.1227 65.5179 42.5785 65.9516 41.9942C66.0076 42.0296 66.0647 42.0638 66.1248 42.0944C67.2844 42.6835 68.7411 42.1428 69.3786 40.8863C70.0162 39.6298 69.5931 38.1339 68.4335 37.5449C68.3734 37.5142 68.3121 37.4889 68.2508 37.4641C68.4665 36.7689 68.6285 36.0684 68.7375 35.3674C68.8041 35.3674 68.8707 35.3662 68.9384 35.3603L68.9379 35.3609Z" fill="#D8DEE3"/>
<path d="M67.3717 42.2368C68.5313 42.8258 69.9879 42.2852 70.6255 41.0287C71.2631 39.7722 70.84 38.2763 69.6804 37.6872C69.6203 37.6566 69.559 37.6312 69.4977 37.6065C69.7134 36.9113 69.8754 36.2108 69.9844 35.5097C70.051 35.5097 70.1176 35.5086 70.1853 35.5027C71.5082 35.3847 72.5582 34.1683 72.5305 32.7857C72.5028 31.403 71.408 30.3782 70.0852 30.4961C70.0162 30.5026 69.9479 30.5132 69.8807 30.525C69.7422 29.8399 69.5531 29.1707 69.3144 28.5227C69.3751 28.4873 69.4358 28.4501 69.4947 28.4089C70.6267 27.6152 70.9885 26.0492 70.3032 24.9112C69.6179 23.7726 68.1448 23.4931 67.0129 24.2868C66.9551 24.3275 66.9003 24.3711 66.8467 24.4159C66.3995 23.9212 65.9092 23.4631 65.3789 23.045C65.416 22.9837 65.4525 22.9218 65.4855 22.8569C66.1231 21.6004 65.7 20.1046 64.5404 19.5155C63.3808 18.9265 61.9242 19.4672 61.2866 20.7237C61.2536 20.7885 61.2253 20.8546 61.1976 20.9212C60.5471 20.7396 59.8883 20.614 59.2255 20.5444C59.2296 20.4748 59.2325 20.4047 59.2314 20.3339C59.2037 18.9512 58.1088 17.9265 56.786 18.0444C55.4632 18.1623 54.4131 19.3787 54.4408 20.7614C54.442 20.8339 54.4485 20.9041 54.4555 20.9743C53.792 21.1635 53.1404 21.4053 52.5057 21.6983C52.4757 21.6364 52.4445 21.5757 52.4085 21.5161C51.7232 20.3775 50.2501 20.0981 49.1182 20.8917C47.9862 21.6853 47.6245 23.2514 48.3098 24.3894C48.3451 24.4477 48.3834 24.502 48.4223 24.5562C47.9209 25.058 47.4518 25.6022 47.0181 26.1866C46.9622 26.1512 46.905 26.117 46.8449 26.0863C45.6853 25.4973 44.2287 26.038 43.5911 27.2945C42.9535 28.551 43.3766 30.0468 44.5363 30.6359C44.5964 30.6665 44.6576 30.6919 44.7189 30.7167C44.5033 31.4118 44.3412 32.1123 44.2322 32.8134C44.1656 32.8134 44.099 32.8146 44.0313 32.8205C42.7084 32.9384 41.6584 34.1548 41.6861 35.5375C41.7138 36.9201 42.8086 37.9449 44.1314 37.827C44.2004 37.8211 44.2687 37.8099 44.3359 37.7981C44.4738 38.4832 44.6635 39.1525 44.9022 39.8005C44.8415 39.8358 44.7808 39.873 44.7219 39.9143C43.5899 40.7079 43.2281 42.274 43.9134 43.4119C44.5987 44.5505 46.0718 44.83 47.2037 44.0363C47.2615 43.9957 47.3163 43.952 47.3705 43.9072C47.8177 44.4019 48.308 44.8601 48.8383 45.2781C48.8012 45.3394 48.7647 45.4013 48.7317 45.4662C48.0941 46.7227 48.5172 48.2186 49.6768 48.8076C50.8364 49.3966 52.293 48.856 52.9306 47.5995C52.9636 47.5346 52.9919 47.4686 53.0196 47.4019C53.6701 47.5835 54.3289 47.7091 54.9917 47.7787C54.9876 47.8489 54.9847 47.9184 54.9858 47.9892C55.0135 49.3719 56.1084 50.3967 57.4312 50.2787C58.754 50.1608 59.8041 48.9444 59.7764 47.5617C59.7752 47.4892 59.7687 47.419 59.7617 47.3489C60.4252 47.1596 61.0768 46.9179 61.7115 46.6248C61.7415 46.6867 61.7727 46.7474 61.8087 46.807C62.494 47.9456 63.9671 48.2251 65.099 47.4314C66.231 46.6378 66.5927 45.0717 65.9074 43.9338C65.8721 43.8754 65.8338 43.8211 65.7949 43.7669C66.2963 43.2651 66.7654 42.7209 67.1991 42.1366C67.255 42.1719 67.3122 42.2061 67.3723 42.2368H67.3717ZM52.9176 42.4202C48.7075 40.2816 47.1713 34.85 49.4859 30.2886C51.8004 25.7272 57.0894 23.7632 61.299 25.9024C65.5091 28.0409 67.0453 33.4726 64.7307 38.0339C62.4162 42.5953 57.1271 44.5593 52.9176 42.4202Z" fill="white"/>
<path d="M143.011 25.9012C141.875 22.2184 140.099 20.4377 138.746 19.4961C135.847 17.479 131.919 17.2485 132.029 16.476C132.076 16.1411 132.853 15.9124 133.086 15.844C134.223 15.5096 134.859 16.0839 135.492 15.706C135.964 15.4241 136.092 14.8162 136.186 14.3404C136.659 11.9318 135.27 8.96714 134.532 6.79377C134.48 6.64224 134.364 6.29259 134.478 6.21004C134.601 6.12042 134.928 6.38693 135.038 6.47714C136.213 7.4347 137.681 11.7107 137.679 11.7113C137.679 11.7113 137.681 11.2213 137.239 9.82622C136.469 7.39578 135.632 6.26782 135.705 4.33974C135.72 3.96297 135.736 3.62452 135.866 3.58561C136.525 3.39044 138.894 11.2449 139.333 11.0998C139.443 11.0633 139.382 10.5397 139.351 10.2785C139.066 7.84213 137.726 7.11453 137.84 5.14576C137.857 4.83621 137.884 4.38396 138.053 4.33621C138.622 4.17583 140.13 8.76666 140.88 10.8669C141.998 14.0026 143.42 18.5038 144.607 24.2161C144.076 24.778 143.544 25.3399 143.012 25.9012H143.011Z" fill="url(#paint4_linear_0_1039)"/>
<path d="M94.5634 19.9542C92.4669 19.2991 91.9048 16.871 91.6826 15.9117C91.157 13.6428 91.3609 9.72589 93.7356 8.64039C95.6429 7.76774 97.7748 9.26126 98.0388 9.45171C100.726 11.3922 100.222 15.1098 100.162 15.4983C100.03 16.3698 99.7564 18.1676 98.1767 19.2855C98.0653 19.3645 96.3765 20.5214 94.5634 19.9547V19.9542Z" fill="url(#paint5_linear_0_1039)"/>
<g style="mix-blend-mode:multiply" opacity="0.3">
<path style="mix-blend-mode:multiply" d="M97.3409 14.37C95.9514 12.992 93.9869 13.5952 93.159 12.3411C92.7453 11.7149 92.6393 10.6583 93.4736 8.77734C91.3477 10.0238 91.1768 13.729 91.6824 15.9107C91.9045 16.87 92.4672 19.2981 94.5632 19.9531C96.3763 20.5198 98.065 19.3629 98.1764 19.2839C98.2459 19.235 98.3119 19.1843 98.3761 19.1324C98.6077 17.3287 98.4757 15.495 97.3409 14.3694V14.37Z" fill="url(#paint6_linear_0_1039)"/>
</g>
<path d="M92.907 68.2341C92.907 68.2341 84.4702 41.9779 84.4991 32.0999C84.5274 22.2219 93.138 18.3828 96.961 17.4701C100.782 16.5573 108.888 17.5615 111.383 28.6819C113.877 39.7987 112.076 64.7234 112.076 64.7234L92.907 68.2346V68.2341Z" fill="url(#paint7_linear_0_1039)"/>
<g style="mix-blend-mode:soft-light" opacity="0.3">
<path d="M99.9109 41.7986C105.989 41.0551 107.336 35.3127 112.924 34.6488C113.465 34.5845 114.073 34.5657 114.746 34.6311C114.663 33.5421 114.558 32.4943 114.43 31.5037C113.67 31.41 112.988 31.4259 112.388 31.4967C106.8 32.1594 105.453 37.9018 99.3747 38.6441C94.4168 39.2497 92.2054 35.811 88.01 37.3074C86.9293 37.6931 86.016 38.2998 85.2471 39.002C85.4215 40.0003 85.623 41.0386 85.8457 42.1029C86.6023 41.4242 87.4956 40.8393 88.5474 40.4637C92.7422 38.9667 94.9536 42.4048 99.9115 41.798L99.9109 41.7986Z" fill="white"/>
</g>
<path style="mix-blend-mode:multiply" opacity="0.8" d="M100.429 51.8649C95.8826 52.3856 93.8038 48.9203 89.9707 50.3413C89.2495 50.6084 88.6125 50.9952 88.0498 51.4516C90.3455 60.263 92.9063 68.2342 92.9063 68.2342L112.076 64.7229C112.076 64.7229 112.781 54.9557 112.697 44.9238C112.556 44.9315 112.42 44.9427 112.288 44.9568C107.162 45.5241 106.004 51.2264 100.43 51.8643L100.429 51.8649Z" fill="url(#paint8_linear_0_1039)"/>
<path style="mix-blend-mode:multiply" opacity="0.3" d="M110.62 35.1465C105.495 35.7108 104.336 41.413 98.7601 42.0475C94.213 42.5652 92.1329 39.0982 88.2993 40.5174C87.3383 40.8729 86.5251 41.4408 85.8398 42.1041C86.4603 45.1147 87.2381 48.3353 88.0501 51.4515C88.6128 50.9951 89.2504 50.6083 89.971 50.3412C93.804 48.9196 95.8834 52.3854 100.429 51.8648C106.004 51.2268 107.162 45.5245 112.287 44.9573C112.419 44.9426 111.117 35.0922 110.62 35.1471V35.1465Z" fill="url(#paint9_linear_0_1039)"/>
<path d="M67.1734 86.8413C63.4747 82.0193 68.5639 71.103 74.1505 64.9525C80.6499 57.7974 88.9706 55.8275 94.2496 54.6518C111.724 50.7602 117.33 58.6701 126.15 54.1329C139.832 47.0945 136.829 22.6332 143.012 21.9575C148.088 21.4027 156.086 37.2501 153.878 52.9654C152.164 65.1601 140.574 77.1555 128.872 82.4963C120.383 86.3708 121.672 85.3425 102.343 86.4598C79.9369 87.7552 70.8196 91.5943 67.1734 86.8413Z" fill="url(#paint10_linear_0_1039)"/>
<path d="M88.1806 56.1679C91.7673 54.8748 97.6308 54.5824 97.5689 41.7586C97.5689 41.7586 104.997 41.2886 105.279 41.3812C105.545 41.4691 103.311 54.1903 113.692 54.1036C114.398 54.0977 114.584 55.0906 114.017 55.5399C112.14 57.0282 107.906 59.333 101.636 59.4055C97.6679 59.4515 93.1414 60.3419 88.1593 57.718C87.477 57.3584 87.4281 56.4391 88.1806 56.1679Z" fill="url(#paint11_linear_0_1039)"/>
<path d="M113.598 80.4164C111.496 80.443 112.225 62.668 105.937 36.5741C104.632 31.1613 103.353 26.7485 102.448 23.7839C104.683 23.4973 106.918 23.2114 109.152 22.9248C113.035 30.3924 118.818 44.2876 117.717 62.2925C117.199 70.7583 115.145 80.3964 113.598 80.4158L113.598 80.4164Z" fill="url(#paint12_linear_0_1039)"/>
<path d="M113.598 80.4164C111.496 80.443 112.225 62.668 105.937 36.5741C104.632 31.1613 103.353 26.7485 102.448 23.7839C104.683 23.4973 106.918 23.2114 109.152 22.9248C113.035 30.3924 118.818 44.2876 117.717 62.2925C117.199 70.7583 115.145 80.3964 113.598 80.4158L113.598 80.4164Z" fill="url(#paint13_linear_0_1039)"/>
<path d="M90.2551 34.2229C90.5397 35.8945 91.8538 48.295 101.303 46.2454C109.932 44.374 107.66 35.6068 106.647 31.1787C106.647 31.1787 105.568 27.2359 102.466 26.7188C102.466 26.7188 105.548 28.4399 106.352 33.4252C106.352 33.4252 105.231 30.9157 98.8846 32.194C92.5337 33.4735 91.6917 36.5944 91.6917 36.5944C91.6917 36.5944 89.7566 32.0419 92.5573 28.8561C92.5573 28.8561 90.3907 30.0525 90.2551 34.2235V34.2229Z" fill="url(#paint14_linear_0_1039)"/>
<g style="mix-blend-mode:multiply" opacity="0.3">
<path style="mix-blend-mode:multiply" d="M151.797 33.0123C152.98 39.885 151.711 44.3237 149.86 47.3119C145.692 54.0408 138.322 53.8344 129.248 64.4548C124.169 70.4 123.84 73.5539 120.683 78.1153C119.233 80.2096 117.34 82.3806 114.81 84.4762C121.63 84.666 122.949 85.1996 128.872 82.4962C140.574 77.1553 152.164 65.16 153.877 52.9653C154.881 45.8243 153.777 38.6562 151.797 33.0117V33.0123Z" fill="url(#paint15_linear_0_1039)"/>
</g>
<path d="M153.992 85.7677L34.9418 81.658C32.4281 81.5713 30.3428 83.5866 30.3428 86.1038V162.882C30.3428 165.47 32.5418 167.512 35.121 167.318L154.171 158.381C156.491 158.207 158.284 156.272 158.284 153.944V90.2135C158.284 87.816 156.386 85.8502 153.991 85.7677H153.992Z" fill="url(#paint16_linear_0_1039)"/>
<path d="M156.038 85.7667L36.9887 81.657C34.475 81.5703 32.3896 83.5857 32.3896 86.1028V162.881C32.3896 165.469 34.5887 167.511 37.1678 167.317L156.218 158.38C158.537 158.206 160.33 156.271 160.33 153.944V90.2125C160.33 87.8151 158.433 85.8492 156.038 85.7667H156.038Z" fill="url(#paint17_linear_0_1039)"/>
<path d="M109.299 128.462L159.183 87.236C158.402 86.371 157.29 85.8103 156.038 85.7667L36.9887 81.657C35.8562 81.6181 34.8108 82.0066 34.0042 82.6747L100.692 128.829C103.32 130.648 106.835 130.498 109.299 128.462V128.462Z" fill="url(#paint18_linear_0_1039)"/>
<path d="M109.299 128.462C106.835 130.498 103.32 130.648 100.692 128.829L34.0042 82.6748C33.0201 83.4897 32.3896 84.7202 32.3896 86.1029V162.881C32.3896 165.469 34.5887 167.511 37.1678 167.318L156.218 158.38C158.537 158.206 160.33 156.271 160.33 153.944V90.2126C160.33 89.0687 159.894 88.0257 159.183 87.2356L109.299 128.462Z" fill="url(#paint19_linear_0_1039)"/>
<path style="mix-blend-mode:multiply" opacity="0.37" d="M159.183 87.2366L109.299 128.463C106.835 130.499 103.32 130.649 100.692 128.83L34.0042 82.6758C33.0201 83.4906 32.3896 84.7212 32.3896 86.1039V97.4271C34.7991 96.4141 36.8379 96.2195 38.4948 96.3581C43.0762 96.7413 44.1704 99.6028 52.943 103.734C61.1458 107.597 62.0061 105.951 65.6223 108.75C72.5889 114.144 69.5419 120.368 75.6477 126.158C82.0056 132.188 87.4914 127.508 96.5828 133.24C106.19 139.297 103.115 146.446 111.031 150.648C122.122 156.535 133.448 145.31 142.876 151.238C145.727 153.031 147.549 155.856 148.724 158.943L156.218 158.38C158.537 158.206 160.33 156.272 160.33 153.944V90.213C160.33 89.0691 159.894 88.0261 159.183 87.236V87.2366Z" fill="url(#paint20_linear_0_1039)"/>
<path d="M69.8066 62.579C70.3545 62.8573 71.0422 62.602 71.3433 62.0083C71.6444 61.4151 71.4446 60.7081 70.8966 60.4298C70.8684 60.4157 70.8395 60.4033 70.81 60.3915C70.912 60.0631 70.9886 59.7323 71.0398 59.4009C71.0711 59.4009 71.1029 59.4003 71.1347 59.3974C71.7593 59.3414 72.2555 58.7671 72.2425 58.1138C72.2295 57.4605 71.7122 56.9764 71.0876 57.0324C71.0552 57.0353 71.0228 57.0406 70.9909 57.046C70.9255 56.7222 70.8366 56.4062 70.7234 56.1002C70.7523 56.0831 70.7806 56.066 70.8089 56.0465C71.3433 55.6715 71.5142 54.9321 71.1907 54.3944C70.8666 53.8567 70.1713 53.7246 69.6363 54.0996C69.6086 54.119 69.5832 54.1397 69.5579 54.1603C69.347 53.9268 69.1154 53.7104 68.8644 53.5129C68.882 53.484 68.8991 53.4545 68.915 53.4239C69.2161 52.8307 69.6097 52.1821 69.0576 51.9127C67.7807 51.2888 67.2327 51.823 66.9316 52.4162C66.9163 52.4469 66.9028 52.4781 66.8898 52.5094C66.5828 52.4233 66.2711 52.3643 65.9582 52.3313C65.96 52.2983 65.9618 52.2653 65.9612 52.2316C65.9482 51.5783 66.1415 51.2252 65.5145 51.2128C64.1469 51.1862 63.6855 51.78 63.6985 52.4333C63.6991 52.4675 63.702 52.5005 63.7055 52.5341C63.3921 52.6237 63.0845 52.7375 62.7846 52.8761C62.7704 52.8472 62.7557 52.8183 62.7386 52.79C62.4151 52.2523 61.7192 52.1202 61.1842 52.4952C60.6497 52.8702 60.4789 53.6096 60.8024 54.1473C60.8188 54.1751 60.8371 54.2004 60.8554 54.2264C60.6185 54.4634 60.397 54.7205 60.1919 54.9964C60.1654 54.9799 60.1383 54.9634 60.11 54.9492C59.562 54.6709 58.8744 54.9262 58.5733 55.52C58.2722 56.1132 58.4719 56.8201 59.0199 57.0984C59.0482 57.1126 59.0771 57.125 59.1065 57.1368C59.0046 57.4652 58.928 57.796 58.8767 58.1273C58.8455 58.1273 58.8137 58.1273 58.7818 58.1309C58.1567 58.1869 57.6611 58.7612 57.6741 59.4145C57.687 60.0678 58.2044 60.5519 58.829 60.4959C58.8614 60.4929 58.8938 60.4876 58.9256 60.4823C58.991 60.806 59.0806 61.122 59.1931 61.4281C59.1643 61.4452 59.136 61.4623 59.1077 61.4817C58.5733 61.8567 58.4024 62.5961 58.7259 63.1339C59.0494 63.6716 60.1218 63.9216 60.6562 63.5466C60.6833 63.5271 60.3333 63.3892 60.3587 63.3679C60.5696 63.6014 60.8012 63.8178 61.0522 64.0153C61.0345 64.0442 61.0174 64.0737 61.0015 64.1044C60.7004 64.6975 60.9002 65.4045 61.4482 65.6828C61.9962 65.9611 62.6838 65.7058 62.9849 65.1121C63.0002 65.0814 63.0138 65.0501 63.0267 65.0189C63.3337 65.105 63.6454 65.1639 63.9583 65.197C63.9566 65.23 63.9548 65.263 63.9554 65.2966C63.9684 65.9499 64.4857 66.434 65.1103 66.378C65.7349 66.322 66.231 65.7477 66.2181 65.0944C66.2175 65.0602 66.2145 65.0271 66.211 64.9935C66.5245 64.9039 66.8321 64.7895 67.132 64.6516C67.1461 64.6804 67.1609 64.7099 67.178 64.7376C67.5014 65.2754 68.1973 65.4075 68.7324 65.0325C69.2668 64.6574 69.4377 63.9181 69.1142 63.3803C69.0977 63.3526 69.0794 63.3273 69.0612 63.3019C69.298 63.0649 69.5196 62.8078 69.7247 62.5318C69.7512 62.5484 69.7783 62.5649 69.8066 62.579ZM62.979 62.6657C60.9903 61.6551 60.2644 59.0896 61.358 56.9351C62.4511 54.7806 64.9495 53.8525 66.9381 54.8632C68.9268 55.8732 69.6528 58.4392 68.5591 60.5937C67.4661 62.7482 64.9677 63.6763 62.979 62.6657Z" fill="#D8DEE3"/>
<path d="M71.1354 59.3976C71.76 59.3416 72.2562 58.7673 72.2432 58.114C72.2302 57.4607 71.7129 56.9766 71.0883 57.0326C71.0559 57.0356 71.0235 57.0409 70.9917 57.0462C70.9263 56.7225 70.8367 56.4064 70.7241 56.1004C70.753 56.0839 70.7813 56.0662 70.8096 56.0468C71.344 55.6718 72.0057 54.7661 71.6286 54.2649C70.9127 53.3127 70.172 53.7248 69.6376 54.0998C69.6099 54.1193 69.5845 54.1399 69.5592 54.1606C69.3483 53.9271 69.1167 53.7107 68.8657 53.5131C68.8833 53.4843 68.9004 53.4548 68.9163 53.4241C69.0801 53.101 69.0949 52.7449 68.9865 52.4424C68.4703 53.3516 67.9606 54.2649 67.4603 55.1836C69.0466 56.3469 69.5521 58.6394 68.5604 60.594C67.7202 62.2502 66.0497 63.1801 64.4187 63.0633C64.3462 63.252 64.2743 63.4419 64.1965 63.6288C63.985 64.1365 63.7452 64.6329 63.5042 65.1294C63.6556 65.1577 63.8076 65.1801 63.9596 65.1966C63.9579 65.2296 63.9561 65.2626 63.9567 65.2963C63.9697 65.9496 64.3662 66.5044 65.4987 66.4443C66.1251 66.4112 66.2329 65.7479 66.22 65.0946C66.2194 65.0604 66.2164 65.0274 66.2129 64.9938C66.5264 64.9042 66.834 64.7898 67.1339 64.6518C67.148 64.6807 67.1627 64.7102 67.1798 64.7379C67.5033 65.2756 68.627 65.5038 69.1615 65.1294C69.6959 64.7544 69.4396 63.9183 69.1161 63.3806C69.0996 63.3528 69.0813 63.3275 69.063 63.3015C69.2999 63.0645 69.5215 62.8074 69.7265 62.5315C69.7531 62.548 69.7802 62.5645 69.8085 62.5787C70.3565 62.857 71.0441 62.6017 71.3452 62.0079C71.6463 61.4147 71.4465 60.7078 70.8986 60.4295C70.8703 60.4153 70.8414 60.4029 70.8119 60.3911C70.9139 60.0627 70.9905 59.7319 71.0417 59.4006C71.073 59.4006 71.1048 59.4 71.1366 59.397L71.1354 59.3976Z" fill="#D8DEE3"/>
<path d="M70.3952 62.646C70.9426 62.9243 71.6308 62.669 71.9319 62.0753C72.233 61.4821 72.0333 60.7752 71.4853 60.4969C71.457 60.4827 71.4281 60.4703 71.3986 60.4585C71.5006 60.1301 71.5772 59.7993 71.6284 59.468C71.6597 59.468 71.6915 59.4674 71.7233 59.4644C72.3479 59.409 72.8441 58.8341 72.8311 58.1808C72.8181 57.5275 72.3008 57.0434 71.6762 57.0994C71.6438 57.1024 71.6114 57.1077 71.5796 57.113C71.5142 56.7893 71.4246 56.4732 71.312 56.1672C71.3409 56.1501 71.3692 56.133 71.3975 56.1136C71.9319 55.7386 72.1028 54.9992 71.7793 54.4614C71.4558 53.9237 70.7599 53.7916 70.2249 54.1666C70.1972 54.1861 70.1718 54.2067 70.1465 54.2273C69.9356 53.9939 69.704 53.7775 69.453 53.5799C69.4706 53.551 69.4878 53.5216 69.5037 53.4909C69.8048 52.8977 69.605 52.1908 69.057 51.9125C68.5096 51.6342 67.8214 51.8895 67.5203 52.4832C67.5049 52.5139 67.4914 52.5451 67.4784 52.5764C67.1714 52.4903 66.8597 52.4313 66.5468 52.3983C66.5486 52.3653 66.5504 52.3323 66.5498 52.2987C66.5368 51.6454 66.0194 51.1613 65.3949 51.2173C64.7697 51.2733 64.2741 51.8476 64.2871 52.5009C64.2877 52.5351 64.2906 52.5681 64.2942 52.6017C63.9807 52.6914 63.6731 52.8058 63.3732 52.9437C63.359 52.9148 63.3443 52.8859 63.3272 52.8576C63.0031 52.3199 62.3078 52.1878 61.7728 52.5628C61.2384 52.9378 61.0675 53.6772 61.391 54.215C61.4075 54.2427 61.4257 54.268 61.444 54.2934C61.2071 54.5304 60.9856 54.7875 60.7805 55.0634C60.754 55.0469 60.7269 55.0304 60.6986 55.0163C60.1506 54.738 59.463 54.9933 59.1619 55.587C58.8608 56.1802 59.0605 56.8872 59.6085 57.1655C59.6368 57.1796 59.6657 57.192 59.6951 57.2038C59.5932 57.5322 59.5166 57.863 59.4653 58.1944C59.4341 58.1944 59.4023 58.195 59.3705 58.1979C58.7453 58.2539 58.2497 58.8282 58.2627 59.4815C58.2757 60.1348 58.793 60.6189 59.4176 60.5629C59.45 60.5599 59.4824 60.5546 59.5142 60.5493C59.5796 60.873 59.6692 61.1891 59.7818 61.4951C59.7529 61.5122 59.7246 61.5293 59.6963 61.5487C59.1619 61.9238 58.991 62.6631 59.3145 63.2009C59.638 63.7386 60.3339 63.8707 60.8689 63.4957C60.896 63.4762 60.9219 63.4556 60.9473 63.435C61.1582 63.6685 61.3898 63.8849 61.6408 64.0824C61.6231 64.1113 61.606 64.1407 61.5901 64.1714C61.289 64.7646 61.4888 65.4715 62.0368 65.7498C62.5848 66.0281 63.2724 65.7728 63.5735 65.1791C63.5888 65.1484 63.6024 65.1172 63.6154 65.0859C63.9224 65.172 64.2341 65.231 64.547 65.264C64.5452 65.297 64.5434 65.33 64.544 65.3636C64.557 66.0169 65.0743 66.501 65.6989 66.445C66.3235 66.389 66.8197 65.8147 66.8067 65.1614C66.8061 65.1272 66.8032 65.0936 66.7996 65.0606C67.1131 64.971 67.4207 64.8566 67.7206 64.7186C67.7347 64.7475 67.7495 64.7764 67.7666 64.8047C68.0906 65.3424 68.786 65.4745 69.321 65.0995C69.8554 64.7245 70.0263 63.9851 69.7028 63.4473C69.6863 63.4196 69.6681 63.3943 69.6498 63.3689C69.8867 63.1319 70.1082 62.8748 70.3133 62.5989C70.3398 62.6154 70.3669 62.6319 70.3952 62.646ZM63.5676 62.7327C61.5789 61.7227 60.853 59.1566 61.9466 57.0021C63.0397 54.8476 65.538 53.9196 67.5267 54.9302C69.5154 55.9402 70.2414 58.5063 69.1478 60.6608C68.0547 62.8153 65.5563 63.7433 63.5676 62.7327Z" fill="white"/>
<path style="mix-blend-mode:multiply" opacity="0.3" d="M44.5537 97.3838V166.763L52.7807 174.255L68.2129 161.89L44.5537 97.3838Z" fill="url(#paint21_linear_0_1039)"/>
<path d="M84.7647 98.7868L91.8709 170.301C91.977 171.366 91.2439 172.297 90.2399 172.37L55.6172 175.273C53.5066 175.347 52.3676 174.209 52.2533 173.082L44.5542 97.3841C44.4387 96.2467 45.4929 95.2408 47.6254 95.2838L82.72 96.7644C83.74 96.8027 84.6592 97.7131 84.7658 98.7868H84.7647Z" fill="url(#paint22_linear_0_1039)"/>
<path d="M86.3395 98.6954L93.4752 170.578C93.5812 171.648 92.8458 172.584 91.8377 172.658L55.9423 175.291C54.8215 175.373 53.808 174.514 53.6925 173.382L45.9587 97.282C45.8426 96.1387 46.6817 95.239 47.8207 95.282L84.2848 96.6623C85.3089 96.7012 86.2316 97.6163 86.3389 98.6959L86.3395 98.6954Z" fill="#26264A"/>
<path d="M85.5826 102.662L92.201 169.287C92.3006 170.287 91.6118 171.16 90.6684 171.227L56.9066 173.629C55.8642 173.703 54.922 172.9 54.8148 171.846L47.6767 101.556C47.5689 100.492 48.3479 99.6492 49.4056 99.6829L83.6623 100.774C84.6192 100.804 85.4825 101.654 85.5826 102.662V102.662Z" fill="url(#paint23_linear_0_1039)"/>
<path d="M67.4249 98.2544C67.4632 98.6389 67.1922 98.9407 66.8186 98.9278C66.4444 98.9154 66.1097 98.5929 66.0708 98.2072C66.0319 97.8222 66.3042 97.5203 66.6783 97.5339C67.0519 97.5474 67.386 97.87 67.4243 98.2544H67.4249Z" fill="white"/>
<g opacity="0.66">
<path d="M64.2281 117.608C60.1924 119.709 58.4647 124.381 60.3692 128.043C62.2736 131.705 67.0889 132.97 71.124 130.869L64.2281 117.608Z" fill="#F4F7F9"/>
<path d="M71.1239 130.869L64.228 117.608C66.1071 116.63 68.4234 117.361 69.401 119.241L72.7561 125.694C73.7337 127.574 73.003 129.892 71.1239 130.87V130.869Z" fill="#F4F7F9"/>
<path d="M74.0103 136.845C69.9746 138.946 68.247 143.619 70.1514 147.28C72.0558 150.942 76.8711 152.208 80.9062 150.106L74.0103 136.845Z" fill="#F4F7F9"/>
<path d="M80.9066 150.106L74.0107 136.844C75.8898 135.866 78.2061 136.597 79.1837 138.478L82.5388 144.93C83.5164 146.81 82.7857 149.128 80.9066 150.106V150.106Z" fill="#F4F7F9"/>
<path d="M75.0686 146.054L70.8715 148.239C65.5082 143.014 61.8838 136.044 59.9988 127.331L64.1959 125.146L75.0686 146.054Z" fill="#F4F7F9"/>
</g>
<g style="mix-blend-mode:soft-light" opacity="0.3">
<g style="mix-blend-mode:soft-light">
<path d="M64.1015 133.343C60.5342 122.795 66.7436 117.481 63.227 107.713C61.3138 102.397 57.4843 98.4371 53.2706 95.4884L47.8207 95.282C46.6817 95.239 45.8426 96.1387 45.9587 97.282L53.6925 173.382C53.8074 174.514 54.8215 175.374 55.9417 175.291L86.9322 173.018C86.835 165.073 84.8174 159.418 82.5742 155.397C76.409 144.351 67.7954 144.265 64.1015 133.343Z" fill="#F4F7F9"/>
</g>
</g>
<defs>
<linearGradient id="paint0_linear_0_1039" x1="167.488" y1="53.871" x2="146.198" y2="110.98" gradientUnits="userSpaceOnUse">
<stop stop-color="#93AFDA"/>
<stop offset="1" stop-color="#6F8AB4"/>
</linearGradient>
<linearGradient id="paint1_linear_0_1039" x1="24.1416" y1="60.8919" x2="113.888" y2="60.8919" gradientUnits="userSpaceOnUse">
<stop stop-color="#AFB3B7"/>
<stop offset="1" stop-color="#95A6C4"/>
</linearGradient>
<linearGradient id="paint2_linear_0_1039" x1="66.5055" y1="82.9121" x2="49.6114" y2="128.23" gradientUnits="userSpaceOnUse">
<stop stop-color="#93AFDA"/>
<stop offset="1" stop-color="#6F8AB4"/>
</linearGradient>
<linearGradient id="paint3_linear_0_1039" x1="65.7553" y1="129.122" x2="109.265" y2="129.122" gradientUnits="userSpaceOnUse">
<stop stop-color="#AFB3B7"/>
<stop offset="1" stop-color="#95A6C4"/>
</linearGradient>
<linearGradient id="paint4_linear_0_1039" x1="137.994" y1="28.2497" x2="141.241" y2="-51.0225" gradientUnits="userSpaceOnUse">
<stop stop-color="#CCCFD4"/>
<stop offset="1" stop-color="#999CA0"/>
</linearGradient>
<linearGradient id="paint5_linear_0_1039" x1="100.247" y1="6.0346" x2="96.9301" y2="12.0081" gradientUnits="userSpaceOnUse">
<stop stop-color="#355278"/>
<stop offset="1" stop-color="#3E4170"/>
</linearGradient>
<linearGradient id="paint6_linear_0_1039" x1="99.9963" y1="6.15936" x2="96.7306" y2="12.0412" gradientUnits="userSpaceOnUse">
<stop stop-color="#355278"/>
<stop offset="1" stop-color="#3E4170"/>
</linearGradient>
<linearGradient id="paint7_linear_0_1039" x1="104.794" y1="14.483" x2="98.352" y2="47.2459" gradientUnits="userSpaceOnUse">
<stop stop-color="#355278"/>
<stop offset="1" stop-color="#3E4170"/>
</linearGradient>
<linearGradient id="paint8_linear_0_1039" x1="108.789" y1="13.6055" x2="102.156" y2="47.3398" gradientUnits="userSpaceOnUse">
<stop stop-color="#355278"/>
<stop offset="1" stop-color="#3E4170"/>
</linearGradient>
<linearGradient id="paint9_linear_0_1039" x1="104.969" y1="13.4269" x2="98.2914" y2="47.3874" gradientUnits="userSpaceOnUse">
<stop stop-color="#355278"/>
<stop offset="1" stop-color="#3E4170"/>
</linearGradient>
<linearGradient id="paint10_linear_0_1039" x1="107.252" y1="132.121" x2="109.502" y2="79.1338" gradientUnits="userSpaceOnUse">
<stop stop-color="#232525"/>
<stop offset="1" stop-color="#3F5B82"/>
</linearGradient>
<linearGradient id="paint11_linear_0_1039" x1="102.199" y1="81.9617" x2="100.085" y2="36.3353" gradientUnits="userSpaceOnUse">
<stop stop-color="#CCCFD4"/>
<stop offset="1" stop-color="#999CA0"/>
</linearGradient>
<linearGradient id="paint12_linear_0_1039" x1="115.696" y1="16.3093" x2="109.335" y2="48.6587" gradientUnits="userSpaceOnUse">
<stop stop-color="#355278"/>
<stop offset="1" stop-color="#3E4170"/>
</linearGradient>
<linearGradient id="paint13_linear_0_1039" x1="115.696" y1="16.3093" x2="109.335" y2="48.6587" gradientUnits="userSpaceOnUse">
<stop stop-color="#355278"/>
<stop offset="1" stop-color="#3E4170"/>
</linearGradient>
<linearGradient id="paint14_linear_0_1039" x1="100.605" y1="48.6484" x2="91.8996" y2="-20.258" gradientUnits="userSpaceOnUse">
<stop stop-color="#CCCFD4"/>
<stop offset="1" stop-color="#999CA0"/>
</linearGradient>
<linearGradient id="paint15_linear_0_1039" x1="131.737" y1="98.8955" x2="140.723" y2="-3.96928" gradientUnits="userSpaceOnUse">
<stop stop-color="#93AFDA"/>
<stop offset="0.71" stop-color="#7994BF"/>
<stop offset="1" stop-color="#6F8AB4"/>
</linearGradient>
<linearGradient id="paint16_linear_0_1039" x1="56.6336" y1="124.026" x2="3.85265" y2="129.625" gradientUnits="userSpaceOnUse">
<stop stop-color="#CCCFD4"/>
<stop offset="1" stop-color="#999CA0"/>
</linearGradient>
<linearGradient id="paint17_linear_0_1039" x1="84.8198" y1="100.971" x2="128.802" y2="198.318" gradientUnits="userSpaceOnUse">
<stop stop-color="#CCCFD4"/>
<stop offset="1" stop-color="#999CA0"/>
</linearGradient>
<linearGradient id="paint18_linear_0_1039" x1="95.2705" y1="113.872" x2="99.6012" y2="19.3189" gradientUnits="userSpaceOnUse">
<stop stop-color="#CCCFD4"/>
<stop offset="1" stop-color="#999CA0"/>
</linearGradient>
<linearGradient id="paint19_linear_0_1039" x1="84.8186" y1="100.972" x2="128.801" y2="198.319" gradientUnits="userSpaceOnUse">
<stop stop-color="#CCCFD4"/>
<stop offset="1" stop-color="#999CA0"/>
</linearGradient>
<linearGradient id="paint20_linear_0_1039" x1="97.2651" y1="95.3486" x2="141.247" y2="192.696" gradientUnits="userSpaceOnUse">
<stop stop-color="#CCCFD4"/>
<stop offset="1" stop-color="#999CA0"/>
</linearGradient>
<linearGradient id="paint21_linear_0_1039" x1="44.5537" y1="135.819" x2="68.2129" y2="135.819" gradientUnits="userSpaceOnUse">
<stop stop-color="#7E99C3"/>
<stop offset="1" stop-color="#546CB8"/>
</linearGradient>
<linearGradient id="paint22_linear_0_1039" x1="43.7917" y1="135.125" x2="92.5671" y2="136.095" gradientUnits="userSpaceOnUse">
<stop stop-color="#355278"/>
<stop offset="1" stop-color="#26264A"/>
</linearGradient>
<linearGradient id="paint23_linear_0_1039" x1="69.7792" y1="136.261" x2="43.8192" y2="273.111" gradientUnits="userSpaceOnUse">
<stop stop-color="#93AFDA"/>
<stop offset="1" stop-color="#6F8AB4"/>
</linearGradient>
</defs>
</svg>
