<svg width="72" height="72" viewBox="0 0 72 72" fill="none" xmlns="http://www.w3.org/2000/svg">
<path fill-rule="evenodd" clip-rule="evenodd" d="M36 0C16.1182 0 0 16.1182 0 36C0 55.8818 16.1182 72 36 72C55.8818 72 72 55.8818 72 36C72 16.1182 55.8818 0 36 0ZM28.7771 25.2229C28.1809 24.6057 27.8511 23.779 27.8585 22.9209C27.866 22.0628 28.2102 21.2419 28.817 20.6351C29.4237 20.0283 30.2446 19.6842 31.1027 19.6767C31.9608 19.6692 32.7875 19.9991 33.4047 20.5953L46.4956 33.6862C47.1092 34.2999 47.4538 35.1322 47.4538 36C47.4538 36.8678 47.1092 37.7001 46.4956 38.3138L33.4047 51.4047C32.7875 52.0009 31.9608 52.3308 31.1027 52.3233C30.2446 52.3158 29.4237 51.9716 28.817 51.3649C28.2102 50.7581 27.866 49.9372 27.8585 49.0791C27.8511 48.221 28.1809 47.3943 28.7771 46.7771L39.5542 36L28.7771 25.2229Z" fill="#90ACD7"/>
</svg>
