<svg width="117" height="52" viewBox="0 0 117 52" fill="none" xmlns="http://www.w3.org/2000/svg">
<path d="M1.64744 50.0854H2.76471C2.7908 50.3108 2.91035 50.4928 3.12337 50.6315C3.33639 50.7702 3.5994 50.8395 3.91024 50.8395C4.21673 50.8395 4.46888 50.7745 4.66234 50.6423C4.85579 50.5101 4.95144 50.3433 4.95144 50.1396C4.95144 49.9619 4.8797 49.8167 4.73624 49.7062C4.59278 49.5956 4.35367 49.5046 4.01675 49.431L3.29509 49.2749C2.27781 49.0582 1.76917 48.5425 1.76917 47.732C1.76917 47.2271 1.96697 46.8175 2.36258 46.5054C2.75819 46.1934 3.26683 46.0374 3.89068 46.0374C4.53191 46.0374 5.04273 46.189 5.42312 46.4903C5.80569 46.7937 6.00132 47.1967 6.01002 47.6995H4.92318C4.90579 47.4676 4.80145 47.2834 4.61451 47.149C4.4254 47.0147 4.1863 46.9475 3.89503 46.9475C3.6081 46.9475 3.37769 47.0104 3.20162 47.136C3.02555 47.2617 2.93861 47.4264 2.93861 47.6301C2.93861 47.7992 3.01034 47.9357 3.15163 48.0397C3.29292 48.1437 3.5255 48.2347 3.84503 48.3084L4.5167 48.4493C5.07316 48.5663 5.47747 48.7505 5.73179 48.9997C5.98611 49.2489 6.11218 49.5826 6.11218 50.0052C6.11218 50.5405 5.91003 50.9674 5.50572 51.2838C5.10142 51.6002 4.55365 51.7562 3.8646 51.7562C3.1951 51.7562 2.66472 51.6067 2.26911 51.3098C1.87133 51.0129 1.66483 50.6033 1.64744 50.0854Z" fill="#313654"/>
<path d="M9.75527 49.4266H7.23162V48.4492H9.75527V49.4266V49.4266Z" fill="#313654"/>
<path d="M13.7831 51.6607H12.3854L10.5226 46.1348H11.8224L13.0897 50.471H13.1158L14.383 46.1348H15.6481L13.7831 51.6607Z" fill="#313654"/>
<path d="M17.7653 51.6607H16.6045V46.1348H17.7653V51.6607Z" fill="#313654"/>
<path d="M21.587 51.6607H20.4262V47.0883H18.8047V46.1348H23.2107V47.0883H21.5848V51.6607H21.587Z" fill="#313654"/>
<path d="M27.1269 51.6607L26.7052 50.3193H24.7576L24.3337 51.6607H23.1426L25.0684 46.1348H26.4313L28.3594 51.6607H27.1269ZM25.7162 47.1901L25.0054 49.4547H26.4531L25.7423 47.1901H25.7162Z" fill="#313654"/>
<path d="M33.8549 51.7562C33.0463 51.7562 32.405 51.5026 31.9355 50.9912C31.466 50.4819 31.2312 49.782 31.2312 48.8935C31.2312 48.0072 31.466 47.3094 31.9377 46.8001C32.4094 46.2909 33.0484 46.0352 33.8549 46.0352C34.2961 46.0352 34.6961 46.1218 35.0547 46.2952C35.4156 46.4686 35.7025 46.7134 35.922 47.0298C36.1394 47.3462 36.2633 47.7081 36.2916 48.1134H35.1613C35.1069 47.7731 34.9613 47.5023 34.72 47.2985C34.4809 47.0948 34.1918 46.993 33.8527 46.993C33.4136 46.993 33.0658 47.1642 32.805 47.5066C32.5441 47.849 32.4137 48.3106 32.4137 48.8892C32.4137 49.4786 32.542 49.9445 32.8028 50.2847C33.0615 50.625 33.4136 50.7962 33.8592 50.7962C34.2027 50.7962 34.4896 50.7008 34.7243 50.5123C34.9569 50.3237 35.1047 50.0659 35.1656 49.7386H36.2959C36.2329 50.3541 35.9786 50.8438 35.5395 51.2079C35.096 51.5741 34.5352 51.7562 33.8549 51.7562Z" fill="#313654"/>
<path d="M37.9479 46.8067C38.4283 46.2931 39.0804 46.0374 39.902 46.0374C40.7237 46.0374 41.3758 46.2931 41.8562 46.8067C42.3366 47.3202 42.5757 48.0159 42.5757 48.8979C42.5757 49.7755 42.3344 50.4711 41.854 50.9847C41.3715 51.4983 40.7215 51.754 39.902 51.754C39.0804 51.754 38.4283 51.4983 37.9479 50.9847C37.4675 50.4711 37.2284 49.7755 37.2284 48.8979C37.2284 48.018 37.4675 47.3202 37.9479 46.8067ZM40.9867 47.5153C40.7172 47.1729 40.3563 47.0017 39.9042 47.0017C39.4521 47.0017 39.0891 47.1729 38.8196 47.5153C38.55 47.8577 38.4131 48.3193 38.4131 48.8979C38.4131 49.4743 38.5478 49.9337 38.8174 50.2739C39.0869 50.6142 39.4499 50.7854 39.9042 50.7854C40.3563 50.7854 40.7194 50.6142 40.9867 50.2739C41.2562 49.9337 41.391 49.4743 41.391 48.8979C41.3888 48.3193 41.2541 47.8577 40.9867 47.5153Z" fill="#313654"/>
<path d="M44.8254 51.6607H43.7147V46.1348H44.682L47.2708 49.7342H47.3013V46.1348H48.412V51.6607H47.4512L44.858 48.0418H44.8233V51.6607H44.8254Z" fill="#313654"/>
<path d="M49.5224 50.0854H50.6397C50.6658 50.3108 50.7854 50.4928 50.9984 50.6315C51.2114 50.7702 51.4744 50.8395 51.7852 50.8395C52.0917 50.8395 52.3439 50.7745 52.5373 50.6423C52.7308 50.5101 52.8264 50.3433 52.8264 50.1396C52.8264 49.9619 52.7547 49.8167 52.6112 49.7062C52.4678 49.5956 52.2287 49.5046 51.8918 49.431L51.1701 49.2749C50.1528 49.0582 49.6442 48.5425 49.6442 47.732C49.6442 47.2271 49.842 46.8175 50.2376 46.5054C50.6332 46.1934 51.1418 46.0374 51.7657 46.0374C52.4069 46.0374 52.9177 46.189 53.2981 46.4903C53.6807 46.7937 53.8763 47.1967 53.885 47.6995H52.7982C52.7808 47.4676 52.6765 47.2834 52.4895 47.149C52.3004 47.0147 52.0613 46.9475 51.77 46.9475C51.4831 46.9475 51.2527 47.0104 51.0766 47.136C50.9006 47.2617 50.8136 47.4264 50.8136 47.6301C50.8136 47.7992 50.8853 47.9357 51.0266 48.0397C51.1679 48.1437 51.4005 48.2347 51.72 48.3084L52.3917 48.4493C52.9482 48.5663 53.3525 48.7505 53.6068 48.9997C53.8611 49.2489 53.9872 49.5826 53.9872 50.0052C53.9872 50.5405 53.785 50.9674 53.3807 51.2838C52.9764 51.6002 52.4286 51.7562 51.7396 51.7562C51.0701 51.7562 50.5397 51.6067 50.1441 51.3098C49.7463 51.0129 49.5398 50.6033 49.5224 50.0854Z" fill="#313654"/>
<path d="M56.2506 46.1326V49.5912C56.2506 49.9509 56.3527 50.237 56.5571 50.4472C56.7614 50.6574 57.0461 50.7635 57.4157 50.7635C57.783 50.7635 58.0678 50.6595 58.2699 50.4472C58.4742 50.237 58.5764 49.9509 58.5764 49.5912V46.1326H59.7372V49.706C59.7372 50.3193 59.5263 50.8134 59.1046 51.1905C58.6829 51.5675 58.1199 51.7561 57.4157 51.7561C56.7092 51.7561 56.1441 51.5675 55.7224 51.1905C55.3007 50.8134 55.0898 50.3193 55.0898 49.706V46.1326H56.2506Z" fill="#313654"/>
<path d="M64.6364 50.7029V51.6607H61.052V46.1348H62.2127V50.7051H64.6364V50.7029Z" fill="#313654"/>
<path d="M67.51 51.6607H66.3492V47.0883H64.7276V46.1348H69.1337V47.0883H67.5078V51.6607H67.51Z" fill="#313654"/>
<path d="M71.3316 51.6607H70.1709V46.1348H71.3316V51.6607Z" fill="#313654"/>
<path d="M73.7571 51.6607H72.6464V46.1348H73.6137L76.2025 49.7342H76.2329V46.1348H77.3437V51.6607H76.3829L73.7897 48.0418H73.755V51.6607H73.7571Z" fill="#313654"/>
<path d="M83.6172 49.3399C83.6172 50.0941 83.3998 50.6835 82.9651 51.1126C82.5303 51.5417 81.9282 51.7562 81.1566 51.7562C80.3262 51.7562 79.6741 51.5005 79.2003 50.9912C78.7242 50.4798 78.4873 49.7777 78.4873 48.8805C78.4873 47.9964 78.7242 47.3029 79.1959 46.7958C79.6676 46.2887 80.3132 46.0374 81.1305 46.0374C81.7761 46.0374 82.3238 46.2107 82.7716 46.5574C83.2194 46.9042 83.4846 47.3571 83.5672 47.9162H82.4021C82.3173 47.628 82.163 47.4026 81.9391 47.2379C81.7152 47.0754 81.4478 46.993 81.1348 46.993C80.6762 46.993 80.3175 47.1577 80.0589 47.4871C79.8002 47.8165 79.6698 48.2759 79.6698 48.861C79.6698 49.4591 79.8045 49.9294 80.0762 50.2739C80.3458 50.6185 80.7131 50.7919 81.1761 50.7919C81.5565 50.7919 81.8652 50.6857 82.1043 50.4733C82.3434 50.2609 82.4695 49.9857 82.4825 49.6412L82.4869 49.5523H81.2805V48.7093H83.6172V49.3399V49.3399Z" fill="#313654"/>
<path d="M91.8135 49.3399C91.8135 50.0941 91.5961 50.6835 91.1635 51.1126C90.7288 51.5417 90.1267 51.7562 89.355 51.7562C88.5247 51.7562 87.8726 51.5005 87.3965 50.9912C86.9205 50.482 86.6836 49.7777 86.6836 48.8805C86.6836 47.9964 86.9205 47.3029 87.3922 46.7958C87.8639 46.2887 88.5095 46.0374 89.3268 46.0374C89.9723 46.0374 90.5201 46.2107 90.9679 46.5574C91.4157 46.9042 91.6809 47.3571 91.7635 47.9162H90.5984C90.5136 47.628 90.3593 47.4026 90.1354 47.2379C89.9115 47.0754 89.6441 46.993 89.3311 46.993C88.8725 46.993 88.5138 47.1577 88.2551 47.4871C87.9965 47.8165 87.8661 48.2759 87.8661 48.861C87.8661 49.4591 88.0008 49.9294 88.2725 50.2739C88.5421 50.6185 88.9094 50.7919 89.3746 50.7919C89.7528 50.7919 90.0615 50.6857 90.3028 50.4733C90.5419 50.2609 90.6679 49.9857 90.681 49.6412L90.6853 49.5523H89.4789V48.7093H91.8135V49.3399V49.3399Z" fill="#313654"/>
<path d="M94.1332 49.6367V51.6585H92.9725V46.1326H95.2614C95.8939 46.1326 96.3873 46.2886 96.7373 46.6007C97.0894 46.9127 97.2655 47.3439 97.2655 47.8944C97.2655 48.2541 97.1764 48.5748 96.9981 48.8565C96.8199 49.1383 96.5742 49.342 96.2591 49.4633L97.4263 51.6585H96.1113L95.0766 49.6367H94.1332V49.6367ZM94.1332 47.0362V48.798H95.1505C95.4418 48.798 95.67 48.72 95.833 48.564C95.9961 48.408 96.0765 48.1934 96.0765 47.9161C96.0765 47.6473 95.9917 47.435 95.8222 47.2746C95.6526 47.1142 95.4244 47.0341 95.1375 47.0341H94.1332V47.0362Z" fill="#313654"/>
<path d="M98.9696 46.8067C99.45 46.2931 100.102 46.0374 100.924 46.0374C101.745 46.0374 102.398 46.2931 102.878 46.8067C103.358 47.3202 103.597 48.0159 103.597 48.8979C103.597 49.7755 103.356 50.4711 102.876 50.9847C102.393 51.4983 101.743 51.754 100.924 51.754C100.102 51.754 99.45 51.4983 98.9696 50.9847C98.4893 50.4711 98.2501 49.7755 98.2501 48.8979C98.2501 48.018 98.4893 47.3202 98.9696 46.8067ZM102.006 47.5153C101.737 47.1729 101.376 47.0017 100.924 47.0017C100.472 47.0017 100.109 47.1729 99.8391 47.5153C99.5674 47.8577 99.4326 48.3193 99.4326 48.8979C99.4326 49.4743 99.5674 49.9337 99.8369 50.2739C100.106 50.6142 100.467 50.7854 100.924 50.7854C101.376 50.7854 101.739 50.6142 102.006 50.2739C102.276 49.9337 102.411 49.4743 102.411 48.8979C102.411 48.3193 102.276 47.8577 102.006 47.5153Z" fill="#313654"/>
<path d="M105.897 46.1326V49.5912C105.897 49.9509 105.999 50.237 106.204 50.4472C106.408 50.6574 106.693 50.7635 107.062 50.7635C107.43 50.7635 107.712 50.6595 107.917 50.4472C108.121 50.237 108.223 49.9509 108.223 49.5912V46.1326H109.384V49.706C109.384 50.3193 109.173 50.8134 108.751 51.1905C108.33 51.5675 107.767 51.7561 107.062 51.7561C106.356 51.7561 105.791 51.5675 105.369 51.1905C104.947 50.8134 104.736 50.3193 104.736 49.706V46.1326H105.897Z" fill="#313654"/>
<path d="M110.696 46.1326H113.009C113.581 46.1326 114.044 46.3059 114.398 46.6527C114.752 46.9994 114.931 47.4566 114.931 48.0244C114.931 48.5878 114.748 49.0451 114.381 49.394C114.013 49.7429 113.537 49.9162 112.953 49.9162H111.857V51.6585H110.696V46.1326ZM111.857 47.0492V49.0147H112.698C113.031 49.0147 113.289 48.9302 113.474 48.759C113.659 48.5878 113.75 48.3451 113.75 48.0309C113.75 47.7167 113.659 47.4761 113.476 47.3049C113.294 47.1359 113.035 47.0492 112.703 47.0492H111.857V47.0492Z" fill="#313654"/>
<path d="M42.1025 10.3135V33.6266H74.8403V28.9653H46.7781V14.977H74.8403V10.3135H42.1025Z" fill="#313654"/>
<path d="M46.7803 0.98877H42.1025V5.65225H46.7803V0.98877Z" fill="#313654"/>
<path d="M60.8088 0.98877H56.131V5.65225H60.8088V0.98877Z" fill="#313654"/>
<path d="M74.8399 0.98877H70.1621V5.65225H74.8399V0.98877Z" fill="#313654"/>
<path d="M0.00876617 10.3135V24.3018H28.071V28.9653H0.00876617V33.6266H32.7466V19.6404H4.68653V14.977H32.7466V10.3135H0.00876617Z" fill="#313654"/>
<path d="M88.871 14.977H116.931V10.3135H84.1932V33.6266H116.931V19.6404H93.5466V24.3018H112.255V28.9653H88.871V14.977Z" fill="#313654"/>
</svg>
