<svg width="18" height="18" viewBox="0 0 18 18" fill="none" xmlns="http://www.w3.org/2000/svg">
<path d="M1.77966 4.74996C4.21385 3.54987 6.6483 2.34871 9.08169 1.14862C9.24744 1.06707 9.42222 0.953918 9.6156 1.01209C9.73486 1.04848 9.852 1.13534 9.95878 1.1959C10.5193 1.51571 11.0805 1.83473 11.6413 2.15507C13.1277 3.00375 14.6144 3.85162 16.1022 4.70029C16.2939 4.81026 16.4865 4.9189 16.6788 5.02887C16.7354 5.04643 16.7872 5.07669 16.8302 5.11732C17.0417 5.25731 17.0422 5.49557 16.9322 5.66929C16.9012 5.73092 16.852 5.7875 16.784 5.83425L9.85386 10.5132C9.6921 10.6221 9.53006 10.7318 9.36883 10.8413C9.25328 10.9186 9.05061 10.9133 8.93878 10.8309C6.70461 9.16598 4.46911 7.50051 2.23441 5.83478C2.07689 5.71817 1.92017 5.60156 1.76399 5.48495C1.52306 5.30618 1.4718 4.90296 1.78019 4.74996" fill="#D07929"/>
<path d="M8.7827 10.4051C8.83609 10.228 9.01857 10.1315 9.16254 10.033C11.5181 8.42596 13.8737 6.82158 16.2292 5.2119C16.2547 5.17358 16.288 5.14112 16.327 5.11667C16.366 5.09221 16.4097 5.07632 16.4553 5.07005C16.6787 4.97682 16.8776 5.12796 16.9496 5.33222C16.9911 5.41861 17.003 5.51623 16.9836 5.61007C16.7443 6.90074 16.5034 8.19247 16.2635 9.48341L15.8356 11.7837C15.7766 12.0969 15.7745 12.3745 15.5102 12.5806L9.33174 17.4017C9.05124 17.6203 8.60366 17.4835 8.61296 17.0845L8.7062 13.0683C8.7232 12.3306 8.74099 11.5935 8.75693 10.8556C8.76038 10.7127 8.74179 10.5406 8.7827 10.4025" fill="#F6921E"/>
<path d="M16.7485 6.8322C16.6635 6.78571 16.5623 6.7711 16.4553 6.81573C16.3663 6.83034 16.2842 6.8755 16.2292 6.95784L9.16254 11.7789C9.01857 11.8775 8.83609 11.9736 8.7827 12.1508C8.74179 12.2897 8.76038 12.4608 8.75667 12.6037C8.74046 13.3416 8.72293 14.0795 8.70593 14.8174L8.65068 17.2213C8.62731 17.1685 8.61137 17.1103 8.6127 17.0407L8.70593 13.0244C8.72293 12.2868 8.74073 11.5486 8.75667 10.8107C8.76038 10.6686 8.74152 10.4965 8.7827 10.3578C8.83609 10.1812 9.01857 10.0842 9.16254 9.98596C11.5181 8.37893 13.8737 6.77456 16.2292 5.16487C16.2549 5.12668 16.2882 5.0943 16.3272 5.06982C16.3661 5.04534 16.4097 5.02931 16.4553 5.02276C16.6787 4.93006 16.8776 5.08146 16.9496 5.28546C16.9911 5.37176 17.003 5.46929 16.9836 5.56304C16.906 5.98618 16.8274 6.40906 16.7485 6.8322Z" fill="#9A5524"/>
<path d="M2.19135 4.78721C4.38169 6.40859 6.57177 8.03102 8.76264 9.65266C8.90927 9.76051 9.05589 9.86968 9.20145 9.97779C9.2166 9.98868 9.22802 9.99904 9.24024 10.0094C9.33666 10.0793 9.402 10.1927 9.39881 10.3507C9.34595 12.6003 9.29416 14.8512 9.24183 17.1011C9.23253 17.5 8.79053 17.6161 8.52836 17.385C6.60231 15.6916 4.67521 13.9983 2.74756 12.3063C2.53108 12.1155 2.54542 11.6005 2.50558 11.3391C2.38286 10.5436 2.26174 9.74829 2.13981 8.95274C1.95016 7.71891 1.76103 6.48721 1.57244 5.25418C1.52091 4.92002 1.86835 4.54921 2.19135 4.78854" fill="#D07929"/>
<path d="M9.24126 11.6507C9.22904 11.6414 9.21708 11.6311 9.20247 11.6207C9.05744 11.5169 8.91029 11.4114 8.76366 11.3086C6.57332 9.74673 4.38271 8.18539 2.19183 6.62537C2.05211 6.52496 1.90788 6.53984 1.7934 6.61076C1.72035 6.15229 1.64677 5.6925 1.57426 5.2335C1.52193 4.91236 1.86936 4.55536 2.19183 4.78486C4.38271 6.34567 6.57332 7.90728 8.76366 9.46809C8.91029 9.57248 9.05744 9.67687 9.20247 9.78073C9.21708 9.79109 9.22904 9.80145 9.24126 9.81128C9.33715 9.87848 9.40249 9.98792 9.3993 10.1396C9.38576 10.6902 9.37274 11.2414 9.35946 11.7928C9.3313 11.7344 9.29146 11.6858 9.24126 11.6507Z" fill="#9A5524"/>
<path d="M7.03737 2.15857L14.4565 6.37563L12.0659 8.00657L5.13842 3.09569L7.03737 2.15857Z" fill="#BE202E"/>
<path d="M11.84 2.2699L4.35206 6.32466L7.05612 8.25098L13.6187 3.28565L11.84 2.2699Z" fill="#BE202E"/>
<path d="M12.0646 8.00652L11.7392 15.5264L13.8929 13.845L14.4565 6.37559L12.0646 8.00652ZM7.05703 8.2509V16.0921L4.60212 13.9355L4.35297 6.32458" fill="#CC2F42"/>
<path d="M10.0781 2.1017C11.016 2.87945 11.5236 4.28832 11.6397 5.33595C11.764 6.4537 11.7869 7.62431 12.4873 8.57338C12.5877 8.70965 12.4988 8.79359 12.3577 8.70806C11.951 8.4589 11.6012 8.16034 11.2774 7.82113C11.0708 8.24082 11.139 8.73781 11.1858 9.19627C11.2076 9.40452 10.8973 9.14713 10.8516 9.09959C9.90068 8.0586 10.2128 6.77563 9.95778 5.48284C9.2823 2.06079 9.41485 1.55238 10.0781 2.1017Z" fill="#CC2F42"/>
<path d="M8.7395 5.45494C8.14052 6.62821 8.09271 7.94783 6.89235 8.68946C6.83736 8.72266 6.46735 8.88575 6.54491 8.69158C6.71358 8.26313 6.91652 7.80386 6.83152 7.34433C6.4283 7.58313 6.01021 7.77491 5.54961 7.90294C5.38997 7.9465 5.32994 7.84291 5.46382 7.73825C6.39536 7.01575 6.73749 5.89668 7.16143 4.85516C7.56039 3.87846 8.43191 2.6603 9.547 2.16969C10.3351 1.82199 10.3226 2.34686 8.7395 5.45468" fill="#CC2F42"/>
<path d="M13.2496 1.42569C12.2408 1.28491 9.94363 1.69769 9.82038 2.58222C9.69766 3.46622 11.795 4.48914 12.8031 4.62992C13.8114 4.76991 14.4183 4.12205 14.5413 3.23805C14.6656 2.35272 14.2574 1.56567 13.2496 1.42569ZM6.83475 0.533453C7.84413 0.674766 9.94124 1.69769 9.81772 2.58222C9.695 3.46622 7.39681 3.8782 6.39063 3.73875C5.38019 3.59797 4.97405 2.81012 5.0973 1.92559C5.21975 1.0392 5.82617 0.393734 6.83475 0.533453Z" fill="#CC2F42"/>
<path d="M7.98598 2.14028C7.96336 2.30305 7.97304 2.46869 8.01447 2.62772C8.0559 2.78675 8.12827 2.93605 8.22744 3.0671C8.32661 3.19814 8.45063 3.30835 8.59243 3.39143C8.73422 3.47451 8.89099 3.52883 9.05379 3.55128L10.2903 3.72367C10.6188 3.76964 10.9521 3.68325 11.217 3.48351C11.4818 3.28377 11.6565 2.98702 11.7026 2.65851C11.7479 2.32971 11.661 1.99635 11.4608 1.73161C11.2606 1.46687 10.9635 1.29238 10.6348 1.24645L9.39645 1.07406C9.0677 1.02887 8.73445 1.1159 8.46978 1.31608C8.20512 1.51626 8.03065 1.81324 7.98465 2.14187" fill="#EF556C"/>
</svg>
