<svg width="895" height="245" viewBox="0 0 895 245" fill="none" xmlns="http://www.w3.org/2000/svg">
<g clip-path="url(#clip0_24_1946)">
<path d="M-132 -18C-28.9506 -10.0425 20.7836 -0.0956714 154.071 69.1344C287.359 138.364 427.013 83.06 485.103 73.1131C543.192 63.1663 677.276 50.4343 744.914 58.3918C812.553 66.3493 861.093 75.1025 846.372 116.879C831.651 158.656 802.208 192.475 916 219.531" stroke="#E5E5E9" stroke-width="2"/>
<path d="M-132 13.0341C-32.7064 20.685 15.2152 30.2487 143.645 96.8116C272.075 163.374 406.639 110.201 462.611 100.637C518.584 91.0734 647.78 78.8319 712.954 86.4828C778.127 94.1338 824.899 102.55 810.714 142.717C796.529 182.884 768.16 215.401 877.804 241.414" stroke="#E5E5E9" stroke-width="2"/>
</g>
<defs>
<clipPath id="clip0_24_1946">
<rect width="895" height="245" fill="white"/>
</clipPath>
</defs>
</svg>
