<svg width="166" height="170" viewBox="0 0 166 170" fill="none" xmlns="http://www.w3.org/2000/svg">
<path d="M156.506 112.233C144.639 125.707 124.832 124.378 124.875 130.73C124.924 137.744 149.072 138.926 149.522 145.528C150.133 154.473 107.123 171.676 62.2214 164.632C46.752 162.205 32.1063 159.861 19.4712 148.438C-15.1538 117.135 10.2045 50.8712 14.3374 39.9033C22.5055 18.2267 32.621 11.238 35.7511 9.0592C52.0368 -2.27611 70.7759 -0.413538 87.5095 1.24906C100.18 2.50822 119.155 4.65041 136.477 18.9429C139.431 21.3805 145.946 27.1722 151.818 36.3607C166.084 58.6843 172.389 94.1976 156.506 112.233V112.233Z" fill="#F4F6F8"/>
<path d="M71.7676 125.834C99.1599 134.797 108.351 132.326 111.563 128.208C113.43 125.814 114.193 121.687 119.194 117.073C123.41 113.184 125.422 113.759 127.446 110.6C130.959 105.12 126.389 101.076 129.284 95.6939C132.453 89.8016 139.388 91.9409 143.556 84.9603C145.836 81.1415 143.961 80.1655 146.055 76.3334C150.321 68.5227 159.209 70.5631 163.292 63.5529C165.669 59.4714 165.598 53.729 163.222 50.0027C158.455 42.5292 144.338 43.0494 135.661 48.0529C134.544 48.6976 126.106 53.7221 124.042 62.6966C122.796 68.1117 124.78 71.0137 122.346 74.0639C118.912 78.3669 113.068 74.9684 109.726 78.7482C105.198 83.8703 112.7 93.7633 107.539 99.5179C105.542 101.746 103.911 100.828 101.861 103.422C98.4889 107.688 100.965 112.615 99.7763 116.404C98.5005 120.472 92.5098 124.789 71.767 125.833L71.7676 125.834Z" fill="url(#paint0_linear_2_50)"/>
<g style="mix-blend-mode:soft-light" opacity="0.28">
<path d="M134.386 61.0941C129.502 68.9775 134.664 75.1733 129.419 81.1866C125.158 86.0703 119.853 84.1636 117.619 88.9653C115.479 93.5671 119.77 96.5738 117.695 101.885C115.985 106.262 112.465 105.768 108.092 111.112C103.69 116.491 104.6 120.237 102.255 123.574C99.7373 127.155 93.674 129.969 78.7587 127.991C76.5703 127.36 74.2442 126.645 71.767 125.834C92.5098 124.79 98.4999 120.473 99.7763 116.405C100.964 112.616 98.4889 107.689 101.861 103.423C103.912 100.829 105.542 101.746 107.539 99.5188C112.699 93.7636 105.198 83.8712 109.726 78.7491C113.068 74.9687 118.912 78.3677 122.346 74.0647C124.78 71.0145 122.796 68.1125 124.042 62.6974C126.106 53.7229 134.544 48.6985 135.661 48.0538C144.338 43.0503 158.455 42.53 163.222 50.0036C163.244 50.0396 163.266 50.0768 163.288 50.1129C159.43 49.6844 154.608 49.7745 149.394 51.3831C145.345 52.6318 138.277 54.8111 134.386 61.0941V61.0941Z" fill="white"/>
</g>
<path d="M77.9117 129.936C89.9141 128.694 93.7245 125.607 94.6726 122.686C96.2244 117.905 90.0013 113.902 91.7145 108.445C93.6885 102.158 103.588 102.25 103.911 97.9739C104.26 93.3518 92.7881 91.9984 91.3978 85.0655C90.1378 78.7808 98.8886 76.5188 100.099 67.8373C101.545 57.4722 90.1018 53.3064 89.7602 41.2148C89.5266 32.9582 94.6308 26.7194 98.6365 21.824C107.649 10.8084 124.244 1.25022 140.896 4.91607C143.167 5.41602 156.423 8.33487 158.587 16.6822C160.78 25.1445 150.897 36.5781 141.7 42.0554C135.035 46.0253 129.918 46.1578 129.094 49.9347C127.984 55.026 136.537 58.2053 136.274 65.8236C136.135 69.8516 133.606 72.9379 131.12 75.9735C125.483 82.8547 121.108 81.9234 119.846 86.0108C118.119 91.6031 125.763 95.1155 126.277 103.938C126.645 110.224 123.155 115.142 121.189 117.913C113.526 128.716 96.5224 133.047 77.9123 129.938L77.9117 129.936Z" fill="url(#paint1_linear_2_50)"/>
<g style="mix-blend-mode:soft-light" opacity="0.7">
<path d="M163.437 13.3418C155.723 15.8055 148.001 18.2343 140.272 20.6398C138.342 21.2484 136.404 21.8327 134.481 22.4634L128.708 24.3388C126.786 24.9701 124.869 25.6119 122.962 26.2833C121.057 26.9559 119.161 27.6541 117.311 28.4476C116.387 28.8458 115.475 29.269 114.6 29.7492C114.16 29.9852 113.738 30.248 113.324 30.5195C112.918 30.8003 112.527 31.0985 112.168 31.4281C111.451 32.0885 110.899 32.8936 110.566 33.8069C110.237 34.7225 110.063 35.6915 110.101 36.6647C110.134 37.6378 110.357 38.604 110.692 39.533C111.027 40.4637 111.483 41.3554 111.975 42.2268C112.964 43.9697 114.137 45.62 115.256 47.3129C116.376 49.004 117.463 50.7398 118.306 52.6134C118.718 53.5529 119.082 54.519 119.334 55.5212C119.576 56.5246 119.734 57.5518 119.758 58.5883C119.779 60.6584 119.345 62.7349 118.426 64.5969C117.963 65.5259 117.374 66.3857 116.715 67.1774C116.054 67.9686 115.32 68.6854 114.582 69.3824C113.106 70.7683 111.58 72.1036 110.546 73.7982C109.484 75.4689 109.002 77.4565 108.941 79.4353C108.914 80.4253 109.006 81.4177 109.233 82.3815C109.464 83.3448 109.807 84.2813 110.236 85.1841C110.662 86.0886 111.156 86.9658 111.647 87.8541C112.134 88.743 112.623 89.6464 112.989 90.6154C113.362 91.5781 113.592 92.6152 113.606 93.661C113.611 94.7068 113.424 95.7456 113.073 96.7217C112.721 97.6995 112.206 98.6168 111.568 99.4307C110.924 100.24 110.18 100.96 109.391 101.608C107.821 102.914 106.095 103.992 104.65 105.375C103.928 106.062 103.291 106.834 102.807 107.697C102.331 108.562 102.015 109.513 101.865 110.493C101.722 111.475 101.737 112.477 101.954 113.444C102.17 114.412 102.575 115.33 102.992 116.252C103.196 116.718 103.409 117.183 103.565 117.679C103.717 118.172 103.844 118.688 103.838 119.217C103.849 119.743 103.77 120.273 103.592 120.767C103.42 121.262 103.164 121.724 102.862 122.147C102.242 122.984 101.452 123.667 100.601 124.234C99.7512 124.806 98.8467 125.284 97.9213 125.706C96.0628 126.539 94.13 127.176 92.1739 127.709C90.2179 128.245 88.238 128.683 86.2488 129.066C84.2591 129.446 82.2606 129.777 80.2552 130.057C76.2461 130.629 72.2172 131.046 68.1843 131.392L68.182 131.365C72.2114 130.986 76.2356 130.535 80.236 129.93C82.2374 129.632 84.2306 129.285 86.2134 128.889C88.1956 128.491 90.1673 128.037 92.1112 127.487C94.055 126.94 95.9722 126.288 97.8027 125.449C98.7142 125.024 99.6014 124.545 100.427 123.98C101.253 123.417 102.01 122.749 102.596 121.955C103.165 121.158 103.535 120.202 103.495 119.224C103.487 118.245 103.077 117.314 102.666 116.399C102.245 115.482 101.821 114.537 101.59 113.524C101.358 112.513 101.337 111.458 101.482 110.436C101.633 109.414 101.96 108.413 102.456 107.501C102.959 106.594 103.622 105.785 104.362 105.074C105.844 103.645 107.573 102.556 109.106 101.265C109.878 100.625 110.593 99.9248 111.206 99.147C111.813 98.3645 112.296 97.4925 112.626 96.5624C112.956 95.6311 113.126 94.6458 113.118 93.6668C113.099 92.6861 112.881 91.7153 112.519 90.7933C111.799 88.9412 110.627 87.2664 109.758 85.4073C109.317 84.4818 108.956 83.5081 108.714 82.5018C108.475 81.4944 108.376 80.4538 108.403 79.4202C108.432 78.3872 108.573 77.3582 108.844 76.3572C108.976 75.8555 109.156 75.3672 109.355 74.8876C109.569 74.4144 109.802 73.9482 110.08 73.5098C110.347 73.064 110.659 72.6501 110.976 72.2431C111.304 71.8455 111.641 71.456 112.001 71.0904C112.71 70.3497 113.466 69.6696 114.199 68.9767C114.931 68.2837 115.647 67.5815 116.283 66.8164C116.918 66.0514 117.479 65.2294 117.918 64.3435C118.791 62.5698 119.205 60.573 119.182 58.5988C119.157 57.6088 119.004 56.6258 118.77 55.6613C118.526 54.6981 118.173 53.7639 117.771 52.8506C116.948 51.0281 115.877 49.319 114.759 47.639C113.643 45.9555 112.463 44.3022 111.449 42.5227C110.946 41.6327 110.473 40.7154 110.119 39.7393C109.766 38.7662 109.524 37.7367 109.487 36.6845C109.444 35.6323 109.63 34.576 109.988 33.5871C110.173 33.0948 110.415 32.6163 110.715 32.1774C111.015 31.7379 111.369 31.3391 111.755 30.9822C112.144 30.6282 112.561 30.3137 112.988 30.0213C113.422 29.7393 113.861 29.4678 114.314 29.2272C115.215 28.7365 116.144 28.3104 117.08 27.9111C118.954 27.1152 120.861 26.4217 122.775 25.7537C124.69 25.0875 126.613 24.4516 128.54 23.8266C132.391 22.5716 136.261 21.3839 140.142 20.2305C147.896 17.8983 155.658 15.5892 163.427 13.3151L163.435 13.3406L163.437 13.3418Z" fill="white"/>
</g>
<path d="M82.2852 119.978C83.999 121.958 86.8608 125 90.8943 128.1C99.2018 134.485 114.576 142.728 122.976 137.678C124.008 137.058 126.737 135.418 127.647 132.417C128.594 129.298 126.734 127.483 127.812 125.726C129.287 123.323 133.649 125.276 139.234 124.059C143.978 123.026 150.591 119.49 152.63 113.058C154.866 106.006 150.269 99.673 149.764 98.9986C146.328 94.4172 139.733 90.6415 133.97 92.4285C128.87 94.0097 126.339 99.3527 124.669 102.878C120.89 110.855 122.857 115.895 119.257 117.787C115.978 119.51 112.93 116.075 108.822 118.479C107.067 119.506 107.078 120.453 104.102 122.645C101.85 124.304 99.7235 125.325 98.8852 125.654C92.3954 128.198 83.1055 120.657 82.2864 119.978L82.2852 119.978Z" fill="url(#paint2_linear_2_50)"/>
<g style="mix-blend-mode:soft-light" opacity="0.5">
<path d="M112.408 131.214C109.855 131.214 106.129 130.762 100.641 129.397C93.839 127.705 87.0994 125.295 80.6102 122.235L80.698 122.049C87.175 125.103 93.9017 127.509 100.691 129.197C114.408 132.61 116.997 130.307 117.847 129.551C119.156 128.386 119.511 127.096 119.886 125.729C120.303 124.211 120.775 122.49 122.651 120.686C124.36 119.042 125.915 118.585 127.419 118.143C128.907 117.706 130.313 117.292 131.852 115.802C133.838 113.881 134.271 111.839 134.729 109.677C134.986 108.467 135.251 107.216 135.794 105.904C137.938 100.727 143.618 96.8197 152.676 94.2898L152.731 94.488C143.737 96.9999 138.102 100.867 135.984 105.983C135.448 107.277 135.184 108.519 134.93 109.72C134.465 111.913 134.025 113.985 131.995 115.951C130.419 117.476 128.924 117.916 127.477 118.341C125.997 118.775 124.467 119.225 122.793 120.834C120.959 122.599 120.514 124.218 120.084 125.784C119.7 127.181 119.338 128.5 117.984 129.705C117.459 130.172 116.286 131.215 112.408 131.215V131.214Z" fill="white"/>
</g>
<path d="M164.135 144.515L2.44892 143.136V147.217C2.44892 148.324 3.15419 149.266 4.10927 149.434L49.8293 157.469C50.3719 157.564 50.922 157.59 51.4699 157.544L162.378 148.383C163.368 148.301 164.135 147.356 164.135 146.218V144.515Z" fill="#C1C7CA"/>
<path d="M105.46 137.976L4.12092 145.441C2.30778 145.574 0.833336 144.155 0.833336 142.27V66.7567C0.833336 64.8721 2.30778 63.3438 4.12092 63.3438H105.46C106.954 63.3438 108.162 64.725 108.162 66.4289V134.691C108.162 136.395 106.954 137.865 105.46 137.975V137.976Z" fill="#C1C7CA"/>
<path d="M107.076 137.976L5.73697 145.441C3.92325 145.574 2.44938 144.155 2.44938 142.27V66.7566C2.44938 64.8719 3.92383 63.3436 5.73697 63.3436H107.076C108.57 63.3436 109.778 64.7249 109.778 66.4287V134.691C109.778 136.395 108.57 137.865 107.076 137.975V137.976Z" fill="#C1C7CA"/>
<path d="M103.918 133.163L9.53185 139.647C8.05625 139.748 6.85717 138.583 6.85717 137.044V70.9329C6.85717 69.3941 8.05625 68.1414 9.53185 68.135L103.918 67.728C105.151 67.7228 106.148 68.8547 106.148 70.2562V130.473C106.148 131.874 105.151 133.079 103.918 133.163V133.163Z" fill="url(#paint3_linear_2_50)"/>
<path d="M59.9854 65.4092C59.9854 66.1108 59.4637 66.6811 58.8195 66.6834C58.1746 66.6857 57.6512 66.1172 57.6512 65.4138C57.6512 64.7104 58.1746 64.1401 58.8195 64.1395C59.4637 64.1395 59.9854 64.7075 59.9854 65.4092Z" fill="white"/>
<g style="mix-blend-mode:soft-light" opacity="0.48">
<path d="M5.73651 145.441L106.562 138.013L107.075 137.976C107.761 137.925 108.384 137.586 108.86 137.072C101.604 136.675 97.0981 134.098 94.191 131.436C88.3531 126.089 89.3657 120.817 83.0699 117.302C75.2178 112.918 69.0435 118.473 63.0848 112.991C59.4724 109.668 61.2461 107.19 56.8007 102.224C51.8771 96.7235 48.672 98.5727 43.7241 93.6221C37.4679 87.3624 40.5969 82.4926 35.208 77.9983C28.6706 72.546 21.6202 77.5926 15.3971 72.3641C12.7131 70.1091 11.2404 66.8304 10.4712 63.3436H5.73651C3.92337 63.3436 2.44892 64.8714 2.44892 66.7566V142.27C2.44892 144.155 3.92279 145.574 5.73651 145.441V145.441Z" fill="white"/>
</g>
<path d="M111.115 137.562L2.44892 145.419L49.8293 153.746C50.3719 153.841 50.922 153.867 51.4699 153.822L164.135 144.515L112.843 137.615C112.27 137.538 111.691 137.52 111.115 137.562Z" fill="#D8DDE0"/>
<path d="M18.3054 145.486L108.772 138.848L136.771 142.584L47.0832 149.681L18.3054 145.486Z" fill="#C1C7CA"/>
<path d="M120.237 117.682C120.237 126.036 113.426 133.241 104.907 133.783L10.0123 139.812C20.0464 139.174 28.0588 131.321 28.0588 122.261V18.0471L120.237 21.5758V117.682V117.682Z" fill="url(#paint4_linear_2_50)"/>
<path d="M113.694 78.6332L42.3797 79.6226V76.759L113.694 75.9446V78.6332Z" fill="#D8DDE0"/>
<path d="M36.5621 79.7026L39.7916 79.6579V76.7885L36.5621 76.8251V79.7026Z" fill="#D8DDE0"/>
<path d="M113.694 83.0733L42.3797 84.3504V81.4868L113.694 80.384V83.0733Z" fill="#D8DDE0"/>
<path d="M36.5621 84.4546L39.7916 84.397V81.527L36.5621 81.577V84.4546Z" fill="url(#paint5_linear_2_50)"/>
<path d="M113.694 87.5137L42.3797 89.0786V86.2156L113.694 84.8245V87.5137Z" fill="#D8DDE0"/>
<path d="M36.5621 89.2064L39.7916 89.1355V86.2655L36.5621 86.3289V89.2064Z" fill="url(#paint6_linear_2_50)"/>
<path d="M113.694 91.9532L42.3797 93.807V90.9434L113.694 89.2645V91.9532Z" fill="#D8DDE0"/>
<path d="M36.5621 93.9581L39.7916 93.8744V91.0044L36.5621 91.0806V93.9581Z" fill="#D8DDE0"/>
<path d="M113.694 100.833L36.5621 103.462V100.584L113.694 98.1443V100.833Z" fill="#D8DDE0"/>
<path d="M113.694 105.273L36.5621 108.214V105.335L113.694 102.584V105.273Z" fill="#D8DDE0"/>
<path d="M113.694 109.713L36.5621 112.965V110.087L113.694 107.024V109.713Z" fill="#D8DDE0"/>
<path d="M113.694 114.153L36.5621 117.716V114.839L113.694 111.464V114.153Z" fill="#D8DDE0"/>
<path d="M36.5621 50.4917L113.641 50.7946V53.7762H36.5621V50.4917Z" fill="#D8DDE0"/>
<path d="M36.5621 45.4469L113.641 46.2143V49.1959L36.5621 48.7308V45.4469Z" fill="#D8DDE0"/>
<path d="M36.5621 37.3589L113.64 38.8715V44.6156L36.5621 43.6861V37.3589Z" fill="#C1C7CA"/>
<path d="M36.5621 59.5893L113.64 59.4073V60.8281L36.5621 61.0665V59.5893Z" fill="#D8DDE0"/>
<path d="M36.5621 62.4083L113.641 62.1188V63.539L36.5621 63.8854V62.4083Z" fill="#D8DDE0"/>
<path d="M36.5621 65.227L113.641 64.8293V66.2501L36.5621 66.7041V65.227Z" fill="#D8DDE0"/>
<path d="M36.5621 68.0464L113.641 67.5406V68.9608L36.5621 69.523V68.0464Z" fill="#D8DDE0"/>
<path d="M86.5359 127.238L113.694 125.654V127.173L86.5359 128.757V127.238Z" fill="#D8DDE0"/>
<path d="M73.3831 129.722L46.225 131.361V129.843L73.3831 128.204V129.722Z" fill="#D8DDE0"/>
<path d="M133.042 159.248C133.042 159.248 133.431 160.898 133.443 161.496C133.455 162.093 127.164 162.926 127.066 162.486C126.969 162.046 128.021 161.245 128.782 160.93C129.542 160.614 131.772 159.755 131.772 159.755L133.041 159.249L133.042 159.248Z" fill="url(#paint7_linear_2_50)"/>
<path d="M131.381 157.71L131.742 159.772C131.742 159.772 132.514 160.217 133.13 159.772L133.28 157.482L131.38 157.71H131.381Z" fill="url(#paint8_linear_2_50)"/>
<path d="M144.516 161.014C144.516 161.014 144.905 162.664 144.918 163.261C144.93 163.859 138.639 164.692 138.541 164.252C138.443 163.812 139.496 163.01 140.257 162.694C141.017 162.379 143.247 161.52 143.247 161.52L144.516 161.014V161.014Z" fill="url(#paint9_linear_2_50)"/>
<path d="M142.856 159.476L143.217 161.538C143.217 161.538 143.989 161.983 144.605 161.538L144.755 159.248L142.855 159.476H142.856Z" fill="url(#paint10_linear_2_50)"/>
<path d="M128.368 103.355C127.756 104.963 127.145 106.572 126.533 108.18C126.623 117.057 127.067 126.681 128.042 136.932C128.767 144.558 129.712 151.761 130.793 158.506C131.779 158.376 132.765 158.245 133.751 158.115C134.955 155.026 136.299 150.386 136.029 144.82C135.747 139.015 134.008 138.386 133.69 132.832C133.277 125.633 136.013 123.473 136.887 114.698C137.221 111.343 137.286 106.991 136.414 101.791C133.731 102.312 131.05 102.834 128.368 103.355V103.355Z" fill="url(#paint11_linear_2_50)"/>
<path style="mix-blend-mode:multiply" opacity="0.3" d="M136.414 101.791C134.965 102.073 133.517 102.354 132.068 102.636C129.805 107.64 129.453 112.68 130.083 114.843C130.975 117.904 132.778 118.758 132.923 121.893C133.066 124.997 131.383 125.945 130.556 129.686C129.984 132.276 130.364 134.582 131.148 139.087C132.727 148.161 135.055 150.782 133.514 153.93C133.077 154.824 132.248 155.915 130.532 156.839C130.618 157.396 130.704 157.956 130.792 158.507C131.778 158.376 132.765 158.246 133.751 158.115C134.954 155.026 136.299 150.387 136.029 144.821C135.747 139.015 134.008 138.387 133.69 132.832C133.277 125.633 136.013 123.474 136.887 114.699C137.221 111.344 137.285 106.992 136.413 101.791H136.414Z" fill="url(#paint12_linear_2_50)"/>
<path d="M132.508 105.812C134.477 113.507 136.328 121.765 137.952 130.552C139.913 141.16 141.295 151.201 142.252 160.55C143.341 160.491 144.43 160.432 145.518 160.373C149.12 151.163 148.922 145.139 148.005 141.284C147.652 139.798 146.779 136.9 146.293 132.5C145.955 129.433 145.963 127.076 145.982 124.243C146.023 118.03 146.544 116.631 146.272 111.904C146.017 107.468 145.862 105.226 144.552 104.019C141.102 100.84 133.113 105.454 132.507 105.812H132.508Z" fill="url(#paint13_linear_2_50)"/>
<path d="M100.898 87.9328C100.898 87.9328 98.5063 87.7183 98.1601 87.3131C97.8139 86.9079 97.2887 86.2586 97.2364 85.8871C97.1847 85.5157 96.7223 86.0708 97.1411 86.8765C97.56 87.6823 96.3714 87.5119 96.186 87.4922C95.7596 87.4474 94.1324 87.3974 94.1794 87.5026C94.2265 87.6079 93.986 88.0735 95.1415 88.6205C96.1529 89.0995 97.3572 88.788 98.0149 88.8205L98.6725 88.8536L100.416 88.9926L100.898 87.9328V87.9328Z" fill="url(#paint14_linear_2_50)"/>
<path d="M99.4957 86.7643C99.3905 87.5979 99.2848 88.4315 99.1797 89.2646C100.764 90.6458 104.266 93.2938 109.139 93.6908C117.73 94.3913 126.249 87.745 127.835 80.2703C128.621 76.5684 127.98 71.3742 125.778 70.5388C125.167 70.3069 124.25 70.34 122.357 71.6689C117.308 75.215 116.878 79.8721 114.088 83.0217C112.08 85.2889 108.133 87.5857 99.4957 86.7637V86.7643Z" fill="url(#paint15_linear_2_50)"/>
<path d="M125.824 109.833C124.644 108.115 125.818 106.264 125.854 102.819C125.894 98.9147 124.416 98.3892 122.511 92.0835C121.243 87.8898 120.027 83.8635 120.736 78.9722C121.075 76.6277 121.651 72.652 124.597 70.5081C126.116 69.4018 128.301 69.3164 132.608 69.192C137.934 69.0373 140.597 68.9606 142.658 69.8832C142.96 70.0186 149.239 72.9357 150.081 78.4775C150.938 84.1181 145.083 85.3761 144.875 93.0113C144.781 96.4388 145.813 101.611 146.482 104.967C147.124 108.189 147.458 108.999 146.92 110.036C145.621 112.535 141.035 112.238 131.864 111.644C128.267 111.411 126.704 111.116 125.824 109.834V109.833Z" fill="url(#paint16_linear_2_50)"/>
<path style="mix-blend-mode:multiply" opacity="0.3" d="M138.366 92.3305C138.863 93.7733 140.326 94.7598 141.561 98.2676C141.828 99.025 143.727 104.418 141.916 105.936C140.87 106.813 139.763 105.41 137.064 105.441C132.388 105.495 130.485 109.766 127.361 108.905C126.819 108.755 126.092 108.401 125.325 107.51C125.252 108.376 125.332 109.117 125.823 109.833C126.703 111.114 128.266 111.41 131.864 111.643C141.035 112.237 145.62 112.534 146.919 110.035C147.458 108.998 147.123 108.187 146.481 104.966C145.812 101.61 144.78 96.4376 144.874 93.01C145.083 85.3749 150.937 84.1169 150.08 78.4763C149.852 76.9683 149.214 75.662 148.41 74.5459C141.152 78.3472 136.805 87.795 138.366 92.3299L138.366 92.3305Z" fill="url(#paint17_linear_2_50)"/>
<path d="M142.685 82.4973C141.391 79.8703 140.32 75.7713 141.561 69.4476C153.217 73.1553 159.825 83.7053 158.245 92.6397C156.943 100.005 150.465 104.082 149.016 104.947C148.601 104.143 148.187 103.339 147.773 102.535C149.362 100.358 151.097 97.1909 150.557 93.7878C149.808 89.0698 145.305 87.8153 142.685 82.4967V82.4973Z" fill="url(#paint18_linear_2_50)"/>
<path d="M132.457 63.5769C132.457 63.5769 132.704 65.6354 133.437 67.1311C134.099 68.4833 137.082 69.1181 137.697 69.3803C138.312 69.643 136.683 70.6976 134.991 71.0196C133.299 71.3417 128.397 71.3452 127.467 70.7423C126.537 70.1401 128.125 70.0581 129.306 69.489C130.488 68.9199 131.001 66.3719 130.7 65.2598C130.398 64.1477 132.457 63.5763 132.457 63.5763L132.457 63.5769Z" fill="url(#paint19_linear_2_50)"/>
<path d="M129.701 63.0536C128.746 62.2188 128.615 62.1229 128.494 61.8165C128.011 60.5876 128.814 58.782 130.009 58.2542C130.071 58.2268 130.873 57.8821 131.216 58.2292C131.507 58.5239 131.148 58.9948 131.382 59.59C131.6 60.1475 132.078 60.1504 133.015 60.8271C133.786 61.384 134.266 61.7305 134.411 62.2618C134.71 63.3576 133.544 65.0795 132.399 65.1313C131.987 65.1499 131.859 64.94 129.701 63.053V63.0536Z" fill="#262648"/>
<path d="M132.301 65.3133C132.301 65.3133 131.445 66.5056 129.984 66.2574C128.676 66.0353 128.767 62.9293 129.668 62.3584C129.969 62.1683 130.539 62.134 130.984 62.3136C131.247 62.42 131.328 62.5462 131.76 62.7113C132.158 62.863 132.279 62.8275 132.392 62.9485C132.534 63.0996 132.616 63.4443 132.275 64.321C132.551 64.0803 132.862 64.0088 133.066 64.1355C133.098 64.1559 133.183 64.2291 133.225 64.332C133.377 64.7035 133.027 65.1226 132.301 65.3133H132.301Z" fill="url(#paint20_linear_2_50)"/>
<path d="M150.554 105.814C150.554 105.814 151.953 106.223 152.102 108.336C151.873 108.319 151.339 108.336 151.339 108.336C151.339 108.336 151.438 106.799 150.443 106.501C150.523 106.322 150.554 105.814 150.554 105.814Z" fill="url(#paint21_linear_2_50)"/>
<path d="M145.421 105.688C145.456 106.073 145.491 106.457 145.526 106.842C146.217 106.669 146.973 106.468 147.786 106.432C148.843 106.384 149.811 106.491 150.674 106.676C150.712 106.627 150.793 106.511 150.831 106.32C150.891 106.014 150.79 105.759 150.771 105.714C150.332 105.573 149.855 105.454 149.345 105.374C147.881 105.142 146.558 105.372 145.421 105.688V105.688Z" fill="url(#paint22_linear_2_50)"/>
<path d="M145.356 106.021C145.359 105.882 145.37 105.709 145.421 105.688C145.47 105.669 145.535 105.795 145.563 105.865C145.575 105.894 145.6 105.964 145.616 106.189C145.637 106.478 145.613 106.62 145.591 106.708C145.578 106.761 145.557 106.84 145.526 106.842C145.501 106.844 145.479 106.793 145.447 106.696C145.403 106.564 145.351 106.345 145.356 106.021H145.356Z" fill="url(#paint23_linear_2_50)"/>
<path d="M144.082 108.451C144.372 108.501 145.077 108.65 145.077 108.65C145.077 108.65 144.617 107.299 145.483 106.675C145.506 106.573 145.529 106.412 145.501 106.217C145.481 106.066 145.436 105.946 145.398 105.862C145.03 106.053 144.23 106.693 144.082 108.452V108.451Z" fill="url(#paint24_linear_2_50)"/>
<path d="M138.087 108.808C138.087 108.808 138.123 108.098 139.332 108.098C139.522 108.227 139.532 108.808 139.532 108.808H138.087Z" fill="url(#paint25_linear_2_50)"/>
<path d="M137.014 122.756L140.322 124.626L142.326 117.759L139.024 108.551L138.088 108.807L136.667 122.031C136.635 122.33 136.774 122.62 137.014 122.756V122.756Z" fill="url(#paint26_linear_2_50)"/>
<path style="mix-blend-mode:multiply" opacity="0.3" d="M142.327 117.759L139.025 108.551L138.088 108.807C138.319 109.62 138.429 110.943 138.481 111.68C138.703 114.815 139.438 115.687 139.082 117.874C138.786 119.692 138.139 119.939 138.196 121.162C138.257 122.495 139.09 123.61 140.079 124.488L140.323 124.626L142.327 117.758L142.327 117.759Z" fill="url(#paint27_linear_2_50)"/>
<path d="M139.024 108.551H157.187L160.046 123.146L140.322 124.626L139.024 108.551Z" fill="url(#paint28_linear_2_50)"/>
<g style="mix-blend-mode:multiply" opacity="0.2">
<path style="mix-blend-mode:multiply" d="M157.187 108.551H151.068C150.955 108.85 150.783 109.264 150.532 109.732C147.796 114.826 141.532 115.468 141.645 116.306C141.814 117.557 155.763 115.781 156.119 117.5C156.291 118.33 153.345 120.217 150.267 120.932C146.581 121.788 143.873 120.709 142.072 122.631C141.462 123.282 141.193 124.044 141.062 124.56L160.046 123.146L157.187 108.551Z" fill="url(#paint29_linear_2_50)"/>
</g>
<path d="M139.332 108.098C139.127 108.098 138.841 108.074 138.53 108.244C138.464 108.281 138.405 108.321 138.354 108.362L138.497 108.314C138.728 108.251 139.045 108.335 139.164 108.551C139.31 108.816 139.362 109.43 139.394 109.734C139.485 110.599 140.042 115.982 140.042 115.982C140.084 116.436 140.453 116.779 140.889 116.771L157.784 115.95C157.912 115.948 158.039 115.91 158.145 115.834C158.365 115.676 158.465 115.402 158.414 115.141L157.559 108.73C157.486 108.362 157.176 108.097 156.816 108.097H139.332L139.332 108.098Z" fill="url(#paint30_linear_2_50)"/>
<path d="M139.512 108.098C139.308 108.098 139.065 108.072 138.794 108.14C138.721 108.158 138.605 108.192 138.553 108.232C138.553 108.232 139.127 108.104 139.344 108.552C139.476 108.824 139.542 109.431 139.574 109.735C139.665 110.6 140.222 115.983 140.222 115.983C140.264 116.437 140.633 116.78 141.069 116.771L158.154 116.429C158.283 116.426 158.409 116.388 158.515 116.313C158.736 116.155 158.836 115.88 158.785 115.62L157.738 108.732C157.666 108.363 157.356 108.099 156.996 108.099H139.512V108.098Z" fill="url(#paint31_linear_2_50)"/>
<path style="mix-blend-mode:multiply" opacity="0.1" d="M158.785 115.619L157.738 108.731C157.666 108.363 157.356 108.098 156.996 108.098H139.512C139.308 108.098 139.065 108.072 138.794 108.14C138.721 108.158 138.605 108.192 138.553 108.232C138.553 108.232 139.127 108.104 139.344 108.552C139.365 108.595 139.384 108.646 139.401 108.704C141.062 108.765 142.722 108.721 144.382 108.821C147.665 109.014 150.984 109.014 154.081 110.248C155.073 110.643 155.752 112.06 155.483 112.715C155.289 113.187 154.628 113.15 154.396 113.77C154.153 114.421 154.736 114.864 154.492 115.322C154.236 115.801 153.459 115.573 152.2 115.915C151.507 116.103 150.976 116.381 150.643 116.58L158.153 116.429C158.282 116.427 158.408 116.389 158.514 116.313C158.735 116.155 158.835 115.881 158.784 115.62L158.785 115.619Z" fill="url(#paint32_linear_2_50)"/>
<path d="M150.609 117.711L148.469 118.19L148.243 118.207C148.015 118.224 147.819 118.041 147.81 117.8L147.715 115.521C147.706 115.279 147.886 115.079 148.114 115.077L148.341 115.074L150.492 115.328C150.697 115.325 150.871 115.224 150.88 115.45L150.968 117.588C150.977 117.814 150.814 117.696 150.609 117.712L150.609 117.711Z" fill="url(#paint33_linear_2_50)"/>
<path d="M150.771 118.026L148.401 118.206C148.173 118.224 147.977 118.041 147.968 117.799L147.873 115.52C147.864 115.279 148.044 115.079 148.272 115.076L150.648 115.043C150.854 115.04 151.028 115.222 151.037 115.448L151.126 117.587C151.135 117.813 150.976 118.01 150.771 118.026Z" fill="url(#paint34_linear_2_50)"/>
<path d="M147.428 104.045C147.428 104.045 146.511 104.867 146.422 105.452C146.422 105.452 147.716 105.434 147.786 106.432C147.786 106.432 146.605 106.32 146.422 106.626C146.238 106.932 147.591 107.58 148.676 107.256C149.76 106.932 149.637 104.693 149.342 104.045C149.046 103.398 147.427 104.045 147.427 104.045H147.428Z" fill="url(#paint35_linear_2_50)"/>
<path d="M47.3731 164.419C47.2871 163.945 45.7569 163.516 44.9993 164.151C44.6229 164.466 44.3638 165.106 44.5816 165.395C44.6606 165.5 44.3365 165.684 44.6473 165.688C45.6779 165.7 47.4585 164.891 47.3731 164.42V164.419Z" fill="url(#paint36_linear_2_50)"/>
<path d="M45.6999 164.422L44.1128 164.501C44.663 163.5 44.0013 160.779 44.0013 160.779L45.7151 160.83C45.7151 160.83 45.6726 161.62 45.5687 162.793C45.5326 163.195 45.5989 163.8 45.6999 164.422V164.422Z" fill="url(#paint37_linear_2_50)"/>
<path d="M45.9085 164.398C45.9085 164.398 44.014 163.961 43.809 164.337C43.6039 164.713 43.4447 165.72 44.6467 165.687C45.8487 165.655 46.0148 164.716 45.9085 164.397V164.398Z" fill="url(#paint38_linear_2_50)"/>
<path d="M67.4662 167.858C67.3146 167.401 65.7397 167.19 65.078 167.925C64.7497 168.29 64.5824 168.959 64.8386 169.215C64.9316 169.308 64.6364 169.536 64.9449 169.496C65.9674 169.363 67.6173 168.313 67.4662 167.858V167.858Z" fill="url(#paint39_linear_2_50)"/>
<path d="M65.6049 168.299L64.0457 168.605C64.4465 167.536 63.402 164.938 63.402 164.938L65.1053 164.742C65.1053 164.742 65.1768 165.53 65.2418 166.706C65.2639 167.109 65.4161 167.698 65.6055 168.299H65.6049Z" fill="url(#paint40_linear_2_50)"/>
<path d="M66.0133 168.042C66.0133 168.042 64.0764 167.875 63.9259 168.276C63.7755 168.677 63.7586 169.697 64.9443 169.496C66.13 169.295 66.1632 168.343 66.0133 168.042Z" fill="url(#paint41_linear_2_50)"/>
<path d="M51.6855 113.369C51.2608 120.636 50.6659 128.193 49.8648 136.014C48.9364 145.075 47.8094 153.732 46.5447 161.96C44.986 162.495 43.5458 161.96 43.5458 161.96C43.5458 161.96 41.7234 158.973 40.3326 151.036C39.4403 145.943 39.3787 146.007 39.3688 145.119C39.3183 140.636 40.8897 139.338 41.1895 135.332C41.4666 131.625 40.2873 130.515 39.5832 126.342C39.0412 123.133 38.8384 118.457 40.547 112.345C44.2598 112.686 47.9726 113.028 51.6855 113.369V113.369Z" fill="url(#paint42_linear_2_50)"/>
<path style="mix-blend-mode:multiply" opacity="0.3" d="M51.6855 113.369C51.2608 120.636 50.666 128.193 49.8648 136.014C48.9365 145.075 47.8094 153.732 46.5447 161.96C44.986 162.495 43.5459 161.96 43.5459 161.96C43.5656 161.199 43.6185 160.051 43.7777 158.665C44.1994 154.988 44.871 153.941 44.9401 151.685C45.0284 148.8 43.9845 148.711 43.7777 145.869C43.4576 141.464 45.8743 140.42 46.1026 136.563C46.3437 132.488 43.7939 131.147 41.8402 126.094C40.687 123.111 39.6634 118.633 40.547 112.346C44.2598 112.687 47.9727 113.029 51.6855 113.37V113.369Z" fill="url(#paint43_linear_2_50)"/>
<path d="M59.5039 113.141C61.6377 120.335 63.7059 129.269 64.859 139.656C65.9779 149.736 65.9576 158.688 65.5016 166.057C64.823 166.246 64.1451 166.436 63.4665 166.626C59.5225 162.497 58.1142 158.701 57.5763 155.929C56.7804 151.828 57.9795 150.438 56.9337 145.801C56.6932 144.734 56.3545 143.588 52.4355 135.901C48.6953 128.563 47.9285 127.498 47.2947 124.863C46.3901 121.101 46.6289 117.766 46.9734 115.531C51.1504 114.735 55.3268 113.938 59.5039 113.141Z" fill="url(#paint44_linear_2_50)"/>
<path d="M91.5314 90.7933L93.0518 89.7243L95.2786 89.1842C95.5818 89.111 95.863 88.9645 96.0971 88.7587C96.0971 88.7587 96.929 86.5932 96.8378 86.2456C96.7466 85.898 93.9075 87.0461 93.8855 87.3862C93.8634 87.7262 92.1467 88.7546 92.1548 89.0679L91.1968 89.8033L91.5314 90.7933Z" fill="url(#paint45_linear_2_50)"/>
<path d="M69.6779 80.7568C68.6786 78.3112 66.5332 76.9049 65.4207 76.1754C62.7884 74.4494 61.1037 74.7645 55.0589 73.8442C47.0035 72.6176 46.0391 71.4556 43.3319 72.3973C39.7753 73.6344 37.918 76.8648 37.0664 78.3455C32.7749 85.8086 37.7926 89.6017 36.504 104.468C35.9777 110.539 34.6293 115.816 37.8698 118.936C38.5519 119.592 39.3152 119.936 40.842 120.624C46.8954 123.35 52.3232 122.879 55.6218 122.553C59.251 122.193 61.0857 121.987 62.0477 120.704C63.5849 118.654 62.0024 116.049 61.7264 111.541C61.5283 108.304 62.2638 105.739 63.7348 100.61C67.1542 88.6844 71.5938 85.4423 69.6785 80.7568H69.6779Z" fill="url(#paint46_linear_2_50)"/>
<path d="M56.1941 69.4453C56.5607 68.1379 55.9199 66.927 55.7782 66.666C55.1868 65.5737 55.0352 65.4243 54.7528 65.2353L54.3607 64.9929C54.3607 64.9929 54.338 64.9836 54.3142 64.9755C54.0627 64.886 53.204 64.8598 53.0303 64.897C52.4749 65.0156 51.8835 67.2799 52.052 70.4812C52.0288 70.6033 52.0067 70.7266 51.9852 70.8504C51.8975 71.3561 51.8283 71.8514 51.7743 72.3363C51.7232 72.7996 51.0661 72.7891 50.6014 72.7595C48.7139 72.6391 47.7902 72.7996 47.71 73.0809C47.5595 73.6082 49.7985 75.3313 52.5632 75.719C56.2737 75.7469 59.2918 75.351 58.9676 74.7668C58.8235 74.5069 55.949 73.7553 55.1403 73.0106C54.4002 72.3281 54.4606 71.6241 54.3996 71.1201C54.6238 71.0039 55.9252 70.4086 56.1953 69.4459L56.1941 69.4453Z" fill="url(#paint47_linear_2_50)"/>
<path d="M55.5115 64.0835C55.508 65.0753 55.0409 66.1344 54.8033 66.3048C54.7725 66.3269 54.5994 66.4635 54.4443 66.6972C54.4234 66.7291 54.4042 66.7663 54.3879 66.8146C54.1707 67.4395 55.1641 68.1749 54.9724 68.4551C54.8335 68.658 54.1585 68.3865 54.0783 68.5621C54.0028 68.7272 54.5634 69.0684 54.478 69.2661C54.4129 69.4155 54.0678 69.2789 53.8506 69.5073C53.7419 69.6213 53.7739 69.7114 53.6588 70.0596C53.5938 70.2566 53.5032 70.4717 53.4323 70.5915C53.0895 71.174 52.1193 71.3867 51.9329 71.1536C51.8812 71.0885 51.9253 71.0339 51.8724 70.8159C51.8724 70.8159 51.8231 70.6142 51.683 70.3805C51.4826 70.0468 50.9981 69.8084 50.509 69.4562C49.6038 68.8039 49.3575 68.2476 49.2837 68.0598C49.2576 67.993 49.2413 67.9424 49.2291 67.9058C48.9938 67.1744 48.9927 66.1007 49.3209 65.4403C49.8711 64.3341 51.1126 64.8596 52.1281 63.7632C53.3004 62.4988 52.6021 60.7699 53.2382 60.5793C53.9394 60.3688 55.5179 62.25 55.5115 64.0835V64.0835Z" fill="url(#paint48_linear_2_50)"/>
<path d="M54.6158 68.2221C54.3729 67.8878 53.9459 68.2018 53.9436 68.6343C53.9413 69.0662 54.3596 69.5156 54.7657 69.4301C55.1717 69.3447 54.9428 68.6715 54.6158 68.2221V68.2221Z" fill="url(#paint49_linear_2_50)"/>
<path d="M54.4188 67.499L54.9824 68.2326C54.9824 68.2326 55.59 69.1314 55.9444 68.639C56.2343 68.2367 56.3092 68.2454 56.3273 68.2623C56.3307 68.2652 56.3313 68.2704 56.3325 68.2698C56.3377 68.2687 56.2901 68.0699 56.2471 67.8949C56.397 68.1105 56.6038 68.4599 56.7293 68.9302C56.8507 69.3871 56.9814 69.876 56.7235 70.3463C56.7083 70.3737 56.4248 70.8736 55.895 70.9945C55.895 70.9945 55.6865 71.0422 54.8063 70.8876C54.8063 70.8876 55.7684 70.1888 55.7835 70.0225C55.8236 69.5714 55.1979 69.3273 54.7331 68.4018C54.5542 68.0449 54.4659 67.7211 54.4188 67.4984V67.499Z" fill="url(#paint50_linear_2_50)"/>
<path style="mix-blend-mode:multiply" opacity="0.1" d="M52.4889 118.293C53.5566 116.165 50.9401 113.337 52.6498 110.094C54.1016 107.34 56.7385 107.957 57.9509 105.432C59.4155 102.383 56.2302 100.105 56.3446 95.4656C56.4811 89.9203 61.2496 84.3692 64.0555 84.8557C65.871 85.1708 66.1045 87.881 67.382 90.8487C66.2515 93.3292 64.931 96.4364 63.7343 100.61C62.2633 105.739 61.5278 108.304 61.7259 111.541C62.0019 116.049 63.5844 118.654 62.0472 120.704C61.0851 121.987 59.2505 122.193 55.6213 122.553C52.3233 122.879 46.8955 123.349 40.8414 120.624C40.0752 120.278 39.5018 120.02 39.0335 119.765C48.4914 121.186 51.6413 119.98 52.4883 118.293H52.4889Z" fill="url(#paint51_linear_2_50)"/>
<path d="M92.4418 90.7993C92.0538 90.297 91.6657 89.7948 91.2782 89.2919C81.52 92.2113 77.1914 90.8057 75.0727 88.7931C74.0665 87.8374 73.1329 86.3399 72.0076 84.5343C69.4973 80.5086 68.8321 77.8537 66.0633 76.6573C65.3621 76.3545 64.8782 76.1533 64.2961 76.2957C61.6185 76.9509 60.7337 83.9321 61.4849 89.1559C61.8991 92.0375 62.8431 97.8613 67.4692 100.61C73.9055 104.434 82.4304 99.2605 84.8663 97.7816C88.5867 95.5237 91.0087 92.7485 92.4418 90.7993Z" fill="url(#paint52_linear_2_50)"/>
<path d="M96.3173 119.083C96.889 118.744 97.4176 118.414 97.9614 118.113C98.5859 117.768 99.2616 117.564 99.975 117.523C101.323 117.443 102.216 118.12 102.494 119.495C102.623 120.133 102.632 120.796 102.695 121.448C102.698 121.486 102.703 121.524 102.709 121.583C102.908 121.483 103.083 121.38 103.269 121.304C103.889 121.051 104.245 121.247 104.381 121.898C104.559 122.75 104.367 123.56 104.108 124.363C103.965 124.805 103.814 125.244 103.712 125.712C103.758 125.652 103.809 125.596 103.849 125.532C104.22 124.941 104.588 124.348 104.96 123.758C105.042 123.627 105.124 123.491 105.231 123.38C105.377 123.228 105.477 123.255 105.562 123.449C105.723 123.815 105.667 124.186 105.589 124.56C105.438 125.282 105.287 126.003 105.148 126.727C105.114 126.903 105.115 127.088 105.124 127.267C105.136 127.47 105.233 127.528 105.397 127.415C105.598 127.276 105.786 127.112 105.959 126.94C107.13 125.777 108.12 124.465 109.086 123.137C109.974 121.914 110.831 120.668 111.703 119.435C111.788 119.314 111.882 119.197 111.988 119.096C112.04 119.046 112.128 119.035 112.2 119.007C112.219 119.088 112.267 119.175 112.252 119.249C112.224 119.392 112.166 119.531 112.11 119.668C111.692 120.703 111.123 121.649 110.433 122.526C109.214 124.075 108.007 125.633 106.774 127.172C106.49 127.526 106.152 127.854 105.787 128.123C105.355 128.442 105.018 128.307 104.939 127.774C104.859 127.227 104.87 126.663 104.876 126.108C104.879 125.768 104.95 125.428 104.998 125.012C104.912 125.125 104.868 125.177 104.831 125.234C104.422 125.859 104.015 126.486 103.606 127.112C103.561 127.18 103.522 127.265 103.458 127.306C103.336 127.385 103.157 127.52 103.075 127.48C102.958 127.424 102.861 127.239 102.836 127.095C102.768 126.698 102.873 126.319 103.001 125.94C103.334 124.954 103.652 123.963 103.967 122.971C104.032 122.769 104.055 122.554 104.107 122.348C104.161 122.137 104.054 122.041 103.871 122.053C103.36 122.087 102.956 122.361 102.615 122.711C102.515 122.814 102.535 123.037 102.509 123.207C102.129 125.654 101.203 127.874 99.7269 129.86C99.5189 130.14 99.2691 130.403 98.9949 130.617C98.6231 130.909 98.2955 130.78 98.1967 130.314C98.0596 129.67 98.1078 129.02 98.2629 128.385C98.8747 125.879 100.103 123.746 102.102 122.083C102.177 122.021 102.26 121.915 102.263 121.827C102.282 121.189 102.34 120.544 102.274 119.912C102.175 118.973 101.444 118.377 100.489 118.334C99.7013 118.298 98.9717 118.509 98.2972 118.884C97.6959 119.218 97.1237 119.606 96.5491 119.986C96.469 120.039 96.401 120.187 96.4085 120.285C96.5236 121.791 96.6723 123.295 96.7705 124.801C96.8611 126.186 96.9279 127.576 96.7786 128.961C96.6595 130.063 96.3632 131.112 95.5569 131.932C94.6564 132.848 93.5782 133.278 92.2954 132.953C91.4995 132.752 91.0325 132.169 90.7426 131.426C90.3963 130.536 90.3347 129.608 90.4817 128.685C91.0778 124.943 92.9339 121.923 95.8247 119.515C95.9728 119.392 96.0303 119.273 96.0222 119.081C95.9769 117.957 95.9444 116.833 95.9066 115.709C95.9066 115.695 95.8932 115.681 95.8688 115.635C95.7962 115.686 95.7242 115.73 95.6591 115.783C93.9889 117.127 92.321 118.474 90.6479 119.815C90.5323 119.907 90.3835 119.982 90.2395 120.009C90.0518 120.045 89.9048 119.935 89.8322 119.758C89.7579 119.578 89.8415 119.455 89.9862 119.339C91.9225 117.788 93.8547 116.232 95.791 114.681C95.9078 114.588 95.9647 114.495 95.981 114.338C96.1436 112.739 96.4736 111.187 97.3851 109.828C97.7035 109.353 98.0822 108.914 98.4726 108.495C98.7381 108.21 99.0925 107.967 99.5003 108.169C99.7275 108.282 99.9558 108.496 100.067 108.723C100.737 110.094 100.775 111.356 99.6729 112.442C98.9444 113.159 98.1229 113.783 97.3381 114.443C97.0238 114.707 96.6926 114.951 96.3766 115.213C96.315 115.264 96.2494 115.356 96.2499 115.429C96.2511 116.463 96.261 117.498 96.2738 118.532C96.2761 118.709 96.2993 118.886 96.315 119.086L96.3173 119.083ZM96.1157 120.326C96.0065 120.407 95.9461 120.446 95.8915 120.492C93.7594 122.281 92.2344 124.493 91.3374 127.127C90.9964 128.127 90.7025 129.144 90.7716 130.227C90.85 131.456 91.858 132.352 93.0768 132.229C94.4507 132.09 95.393 131.326 95.9682 130.105C96.552 128.865 96.5846 127.53 96.5276 126.195C96.4672 124.794 96.3632 123.394 96.2691 121.994C96.2331 121.455 96.1715 120.918 96.1163 120.326L96.1157 120.326ZM96.3533 114.106C96.3812 114.118 96.4097 114.131 96.4376 114.143C96.4765 114.117 96.5183 114.094 96.5544 114.064C97.3113 113.448 98.073 112.836 98.8224 112.21C99.2767 111.83 99.7031 111.42 99.9872 110.888C100.26 110.377 100.265 109.871 99.957 109.371C99.6334 108.846 99.2929 108.799 98.8433 109.211C97.8539 110.118 97.1481 111.209 96.7577 112.494C96.5968 113.023 96.487 113.568 96.3539 114.106L96.3533 114.106ZM98.5302 129.91C99.731 129.389 102.174 124.681 102.007 123.238C100.505 124.124 98.2873 128.363 98.5302 129.91Z" fill="url(#paint53_linear_2_50)"/>
<defs>
<linearGradient id="paint0_linear_2_50" x1="110.925" y1="73.6049" x2="132.635" y2="120.627" gradientUnits="userSpaceOnUse">
<stop stop-color="#CACDD2"/>
<stop offset="1" stop-color="#96999D"/>
</linearGradient>
<linearGradient id="paint1_linear_2_50" x1="110.436" y1="8.03432" x2="119.176" y2="80.5606" gradientUnits="userSpaceOnUse">
<stop stop-color="#ACAFB4"/>
<stop offset="1" stop-color="#AAADB2"/>
</linearGradient>
<linearGradient id="paint2_linear_2_50" x1="118.487" y1="108.257" x2="112.787" y2="160.434" gradientUnits="userSpaceOnUse">
<stop stop-color="#90ACD7"/>
<stop offset="1" stop-color="#6B86B7"/>
</linearGradient>
<linearGradient id="paint3_linear_2_50" x1="6.85717" y1="103.691" x2="106.148" y2="103.691" gradientUnits="userSpaceOnUse">
<stop stop-color="#90ACD7"/>
<stop offset="1" stop-color="#6B86B7"/>
</linearGradient>
<linearGradient id="paint4_linear_2_50" x1="90.0611" y1="36.7072" x2="29.6121" y2="161.635" gradientUnits="userSpaceOnUse">
<stop stop-color="white"/>
<stop offset="1" stop-color="#EBEEEE"/>
</linearGradient>
<linearGradient id="paint5_linear_2_50" x1="35.6977" y1="76.27" x2="41.4813" y2="91.928" gradientUnits="userSpaceOnUse">
<stop stop-color="#ACAFB4"/>
<stop offset="1" stop-color="#AAADB2"/>
</linearGradient>
<linearGradient id="paint6_linear_2_50" x1="37.2523" y1="85.2302" x2="43.0173" y2="100.837" gradientUnits="userSpaceOnUse">
<stop stop-color="#ACAFB4"/>
<stop offset="1" stop-color="#AAADB2"/>
</linearGradient>
<linearGradient id="paint7_linear_2_50" x1="124.751" y1="141.717" x2="133.307" y2="172.576" gradientUnits="userSpaceOnUse">
<stop stop-color="#142344"/>
<stop offset="1" stop-color="#3C5D84"/>
</linearGradient>
<linearGradient id="paint8_linear_2_50" x1="132.26" y1="163.564" x2="132.384" y2="153.175" gradientUnits="userSpaceOnUse">
<stop stop-color="#51637F"/>
<stop offset="1" stop-color="#464848"/>
</linearGradient>
<linearGradient id="paint9_linear_2_50" x1="134.914" y1="138.746" x2="143.471" y2="169.605" gradientUnits="userSpaceOnUse">
<stop stop-color="#142344"/>
<stop offset="1" stop-color="#3C5D84"/>
</linearGradient>
<linearGradient id="paint10_linear_2_50" x1="143.754" y1="163.707" x2="143.878" y2="153.318" gradientUnits="userSpaceOnUse">
<stop stop-color="#51637F"/>
<stop offset="1" stop-color="#464848"/>
</linearGradient>
<linearGradient id="paint11_linear_2_50" x1="126.533" y1="130.148" x2="137.116" y2="130.148" gradientUnits="userSpaceOnUse">
<stop stop-color="#355178"/>
<stop offset="1" stop-color="#262648"/>
</linearGradient>
<linearGradient id="paint12_linear_2_50" x1="126.534" y1="-6.35157" x2="137.116" y2="-6.35157" gradientUnits="userSpaceOnUse">
<stop stop-color="#355178"/>
<stop offset="1" stop-color="#262648"/>
</linearGradient>
<linearGradient id="paint13_linear_2_50" x1="135.318" y1="169.793" x2="139.741" y2="133.507" gradientUnits="userSpaceOnUse">
<stop stop-color="#355178"/>
<stop offset="1" stop-color="#262648"/>
</linearGradient>
<linearGradient id="paint14_linear_2_50" x1="95.0009" y1="85.3308" x2="105.031" y2="95.5341" gradientUnits="userSpaceOnUse">
<stop stop-color="#51637F"/>
<stop offset="1" stop-color="#464848"/>
</linearGradient>
<linearGradient id="paint15_linear_2_50" x1="143.252" y1="54.8831" x2="94.8134" y2="104.374" gradientUnits="userSpaceOnUse">
<stop stop-color="#56729A"/>
<stop offset="1" stop-color="#8195C2"/>
</linearGradient>
<linearGradient id="paint16_linear_2_50" x1="165.699" y1="133.243" x2="128.658" y2="80.0983" gradientUnits="userSpaceOnUse">
<stop stop-color="#56729A"/>
<stop offset="1" stop-color="#8195C2"/>
</linearGradient>
<linearGradient id="paint17_linear_2_50" x1="165.904" y1="133.544" x2="128.404" y2="79.7422" gradientUnits="userSpaceOnUse">
<stop stop-color="#8195C2"/>
<stop offset="1" stop-color="#56729A"/>
</linearGradient>
<linearGradient id="paint18_linear_2_50" x1="175.769" y1="126.246" x2="138.536" y2="72.8271" gradientUnits="userSpaceOnUse">
<stop stop-color="#56729A"/>
<stop offset="1" stop-color="#8195C2"/>
</linearGradient>
<linearGradient id="paint19_linear_2_50" x1="129.86" y1="73.6512" x2="135.799" y2="64.9205" gradientUnits="userSpaceOnUse">
<stop stop-color="#51637F"/>
<stop offset="1" stop-color="#464848"/>
</linearGradient>
<linearGradient id="paint20_linear_2_50" x1="125.567" y1="66.9013" x2="134.835" y2="61.856" gradientUnits="userSpaceOnUse">
<stop stop-color="#51637F"/>
<stop offset="1" stop-color="#464848"/>
</linearGradient>
<linearGradient id="paint21_linear_2_50" x1="150.899" y1="112.977" x2="151.424" y2="105.171" gradientUnits="userSpaceOnUse">
<stop stop-color="#CACDD2"/>
<stop offset="1" stop-color="#96999D"/>
</linearGradient>
<linearGradient id="paint22_linear_2_50" x1="147.841" y1="110.318" x2="148.214" y2="104.768" gradientUnits="userSpaceOnUse">
<stop offset="0.1" stop-color="#142344"/>
<stop offset="0.3" stop-color="#172849"/>
<stop offset="0.56" stop-color="#213659"/>
<stop offset="0.85" stop-color="#314D73"/>
<stop offset="1" stop-color="#3C5D84"/>
</linearGradient>
<linearGradient id="paint23_linear_2_50" x1="145.605" y1="106.331" x2="149.777" y2="108.566" gradientUnits="userSpaceOnUse">
<stop offset="0.1" stop-color="#142344"/>
<stop offset="0.3" stop-color="#172849"/>
<stop offset="0.56" stop-color="#213659"/>
<stop offset="0.85" stop-color="#314D73"/>
<stop offset="1" stop-color="#3C5D84"/>
</linearGradient>
<linearGradient id="paint24_linear_2_50" x1="144.363" y1="113.918" x2="144.961" y2="105.033" gradientUnits="userSpaceOnUse">
<stop stop-color="#CACDD2"/>
<stop offset="1" stop-color="#96999D"/>
</linearGradient>
<linearGradient id="paint25_linear_2_50" x1="139.295" y1="113.215" x2="136.974" y2="92.0032" gradientUnits="userSpaceOnUse">
<stop offset="0.1" stop-color="#142344"/>
<stop offset="0.58" stop-color="#2A4468"/>
<stop offset="1" stop-color="#3C5D84"/>
</linearGradient>
<linearGradient id="paint26_linear_2_50" x1="149.588" y1="122.113" x2="133.976" y2="113.426" gradientUnits="userSpaceOnUse">
<stop stop-color="#142344"/>
<stop offset="1" stop-color="#3C5D84"/>
</linearGradient>
<linearGradient id="paint27_linear_2_50" x1="135.52" y1="110.092" x2="140.19" y2="117.917" gradientUnits="userSpaceOnUse">
<stop stop-color="#142344"/>
<stop offset="1" stop-color="#3C5D84"/>
</linearGradient>
<linearGradient id="paint28_linear_2_50" x1="148.41" y1="100.741" x2="150.106" y2="123.488" gradientUnits="userSpaceOnUse">
<stop offset="0.1" stop-color="#142344"/>
<stop offset="0.58" stop-color="#2A4468"/>
<stop offset="1" stop-color="#3C5D84"/>
</linearGradient>
<linearGradient id="paint29_linear_2_50" x1="144.931" y1="113.323" x2="158.651" y2="123.887" gradientUnits="userSpaceOnUse">
<stop stop-color="#142344"/>
<stop offset="1" stop-color="#3C5D84"/>
</linearGradient>
<linearGradient id="paint30_linear_2_50" x1="141.382" y1="112.381" x2="147.21" y2="112.155" gradientUnits="userSpaceOnUse">
<stop offset="0.1" stop-color="#142344"/>
<stop offset="0.58" stop-color="#2A4468"/>
<stop offset="1" stop-color="#3C5D84"/>
</linearGradient>
<linearGradient id="paint31_linear_2_50" x1="150.318" y1="130.448" x2="148.451" y2="109.476" gradientUnits="userSpaceOnUse">
<stop offset="0.1" stop-color="#142344"/>
<stop offset="0.3" stop-color="#172849"/>
<stop offset="0.56" stop-color="#213659"/>
<stop offset="0.85" stop-color="#314D73"/>
<stop offset="1" stop-color="#3C5D84"/>
</linearGradient>
<linearGradient id="paint32_linear_2_50" x1="151.235" y1="135.38" x2="148.058" y2="106.363" gradientUnits="userSpaceOnUse">
<stop stop-color="#142344"/>
<stop offset="1" stop-color="#3C5D84"/>
</linearGradient>
<linearGradient id="paint33_linear_2_50" x1="155.974" y1="120.164" x2="145.855" y2="114.878" gradientUnits="userSpaceOnUse">
<stop stop-color="#CACDD2"/>
<stop offset="1" stop-color="#96999D"/>
</linearGradient>
<linearGradient id="paint34_linear_2_50" x1="146.886" y1="115.686" x2="157.278" y2="119.403" gradientUnits="userSpaceOnUse">
<stop stop-color="#CACDD2"/>
<stop offset="1" stop-color="#96999D"/>
</linearGradient>
<linearGradient id="paint35_linear_2_50" x1="146.975" y1="104.574" x2="150.907" y2="108.129" gradientUnits="userSpaceOnUse">
<stop stop-color="#51637F"/>
<stop offset="1" stop-color="#464848"/>
</linearGradient>
<linearGradient id="paint36_linear_2_50" x1="48.2537" y1="163.011" x2="44.883" y2="165.249" gradientUnits="userSpaceOnUse">
<stop stop-color="#355178"/>
<stop offset="1" stop-color="#262648"/>
</linearGradient>
<linearGradient id="paint37_linear_2_50" x1="45.0549" y1="165.223" x2="44.7928" y2="159.96" gradientUnits="userSpaceOnUse">
<stop stop-color="#CACDD2"/>
<stop offset="1" stop-color="#96999D"/>
</linearGradient>
<linearGradient id="paint38_linear_2_50" x1="48.0007" y1="162.63" x2="44.63" y2="164.868" gradientUnits="userSpaceOnUse">
<stop stop-color="#355178"/>
<stop offset="1" stop-color="#262648"/>
</linearGradient>
<linearGradient id="paint39_linear_2_50" x1="68.1163" y1="166.384" x2="65.0919" y2="169.073" gradientUnits="userSpaceOnUse">
<stop stop-color="#355178"/>
<stop offset="1" stop-color="#262648"/>
</linearGradient>
<linearGradient id="paint40_linear_2_50" x1="65.0742" y1="169.195" x2="64.0592" y2="164.024" gradientUnits="userSpaceOnUse">
<stop stop-color="#CACDD2"/>
<stop offset="1" stop-color="#96999D"/>
</linearGradient>
<linearGradient id="paint41_linear_2_50" x1="67.8125" y1="166.042" x2="64.7881" y2="168.731" gradientUnits="userSpaceOnUse">
<stop stop-color="#355178"/>
<stop offset="1" stop-color="#262648"/>
</linearGradient>
<linearGradient id="paint42_linear_2_50" x1="68.0804" y1="108.295" x2="32.9337" y2="149.581" gradientUnits="userSpaceOnUse">
<stop stop-color="#355178"/>
<stop offset="1" stop-color="#262648"/>
</linearGradient>
<linearGradient id="paint43_linear_2_50" x1="51.6855" y1="137.271" x2="40.2135" y2="137.271" gradientUnits="userSpaceOnUse">
<stop stop-color="#142344"/>
<stop offset="1" stop-color="#374B76"/>
</linearGradient>
<linearGradient id="paint44_linear_2_50" x1="77.239" y1="116.092" x2="42.0923" y2="157.377" gradientUnits="userSpaceOnUse">
<stop stop-color="#355178"/>
<stop offset="1" stop-color="#262648"/>
</linearGradient>
<linearGradient id="paint45_linear_2_50" x1="95.7495" y1="86.4587" x2="90.217" y2="93.9734" gradientUnits="userSpaceOnUse">
<stop stop-color="#CACDD2"/>
<stop offset="1" stop-color="#96999D"/>
</linearGradient>
<linearGradient id="paint46_linear_2_50" x1="26.4873" y1="144.635" x2="59.1769" y2="80.8399" gradientUnits="userSpaceOnUse">
<stop stop-color="#CACDD2"/>
<stop offset="1" stop-color="#96999D"/>
</linearGradient>
<linearGradient id="paint47_linear_2_50" x1="56.2712" y1="67.3887" x2="47.7039" y2="87.0337" gradientUnits="userSpaceOnUse">
<stop stop-color="#CACDD2"/>
<stop offset="1" stop-color="#96999D"/>
</linearGradient>
<linearGradient id="paint48_linear_2_50" x1="65.2685" y1="64.3259" x2="21.9986" y2="69.7996" gradientUnits="userSpaceOnUse">
<stop stop-color="#142344"/>
<stop offset="1" stop-color="#3C5D84"/>
</linearGradient>
<linearGradient id="paint49_linear_2_50" x1="56.9105" y1="63.3543" x2="47.345" y2="85.2888" gradientUnits="userSpaceOnUse">
<stop stop-color="#CACDD2"/>
<stop offset="1" stop-color="#96999D"/>
</linearGradient>
<linearGradient id="paint50_linear_2_50" x1="65.7217" y1="67.9088" x2="22.4519" y2="73.3825" gradientUnits="userSpaceOnUse">
<stop stop-color="#142344"/>
<stop offset="1" stop-color="#3C5D84"/>
</linearGradient>
<linearGradient id="paint51_linear_2_50" x1="70.8851" y1="94.4232" x2="49.5057" y2="114.825" gradientUnits="userSpaceOnUse">
<stop stop-color="#142344"/>
<stop offset="1" stop-color="#3C5D84"/>
</linearGradient>
<linearGradient id="paint52_linear_2_50" x1="42.1486" y1="153.464" x2="75.236" y2="88.8927" gradientUnits="userSpaceOnUse">
<stop stop-color="#CACDD2"/>
<stop offset="1" stop-color="#96999D"/>
</linearGradient>
<linearGradient id="paint53_linear_2_50" x1="89.8078" y1="120.576" x2="112.256" y2="120.576" gradientUnits="userSpaceOnUse">
<stop stop-color="#ACAFB4"/>
<stop offset="1" stop-color="#AAADB2"/>
</linearGradient>
</defs>
</svg>
