<svg width="166" height="171" viewBox="0 0 166 171" fill="none" xmlns="http://www.w3.org/2000/svg">
<path d="M149.921 38.6677C147.526 35.3882 127.028 8.26804 93.8017 9.58905C92.1411 9.65496 59.7366 11.3673 47.7842 32.626C38.943 48.3516 48.3035 62.3042 37.5173 73.0187C28.1189 82.3545 16.5692 76.1751 10.7937 83.7244C1.99624 95.224 16.0061 126.282 37.5324 143.603C59.7593 161.488 102.282 174.608 135.332 150.747C172.438 123.957 172.061 68.9921 149.921 38.6671V38.6677Z" fill="#F4F6F8"/>
<path d="M108.864 5.31052L109.555 8.85771C108.012 9.46952 106.539 10.2038 105.154 11.0582L102.789 8.34155C102.144 7.60026 101.018 7.53088 100.275 8.18643L95.6213 12.2906C94.8764 12.9479 94.7942 14.0834 95.4382 14.8271L97.8232 17.5817C96.7974 18.8718 95.8812 20.2476 95.088 21.6963L91.6334 20.5211C90.7021 20.2044 89.6832 20.713 89.358 21.6578L87.3197 27.577C86.9934 28.5254 87.4847 29.553 88.4179 29.872L91.8841 31.0571C91.6264 32.6768 91.5122 34.3332 91.5367 36.0105L87.9102 36.7506C86.9369 36.9495 86.2963 37.9095 86.4805 38.8963L87.6327 45.0797C87.8175 46.0706 88.7588 46.7128 89.7351 46.5139L93.3721 45.7715C93.9596 47.3456 94.6707 48.848 95.5024 50.2623L92.7059 52.7498C91.9516 53.4205 91.8677 54.5829 92.5188 55.3463L96.5976 60.1288C97.2509 60.8952 98.3933 60.9704 99.1486 60.2968L101.945 57.8023C103.227 58.8567 104.598 59.7952 106.041 60.6094L104.838 64.1881C104.512 65.1568 105.015 66.209 105.962 66.5373L111.89 68.5932C112.839 68.9227 113.871 68.4013 114.195 67.4302L115.38 63.879C117.006 64.1379 118.669 64.2464 120.353 64.2096L121.07 67.8857C121.267 68.8918 122.224 69.5456 123.209 69.3444L129.368 68.0875C130.353 67.8863 130.99 66.9077 130.79 65.9022L130.068 62.2576C131.646 61.637 133.15 60.8875 134.563 60.0139L136.962 62.7848C137.628 63.5541 138.778 63.6299 139.529 62.9534L144.223 58.7296C144.972 58.0548 145.039 56.8866 144.372 56.1202L141.98 53.3727C143.024 52.0441 143.949 50.6245 144.747 49.1326L148.151 50.2967C149.103 50.6222 150.129 50.1042 150.442 49.1408L152.398 43.1271C152.711 42.1671 152.194 41.1272 151.244 40.8041L147.872 39.6569C148.113 37.9994 148.203 36.3051 148.15 34.5933L151.628 33.8835C152.605 33.684 153.231 32.7223 153.027 31.7355L151.752 25.5771C151.549 24.5944 150.595 23.9593 149.622 24.1582L146.154 24.8656C145.532 23.2816 144.787 21.7733 143.919 20.359L146.553 18.0092C147.294 17.3484 147.359 16.207 146.699 15.4599L142.58 10.7969C141.922 10.0527 140.79 9.98278 140.05 10.6407L137.399 12.9981C136.101 11.964 134.716 11.0448 133.26 10.2546L134.386 6.87883C134.699 5.93925 134.194 4.92384 133.258 4.60948L127.412 2.64809C126.478 2.33489 125.466 2.84053 125.151 3.77778L124.013 7.16168C122.404 6.92372 120.759 6.8304 119.096 6.88114L118.4 3.36428C118.208 2.3967 117.27 1.77207 116.305 1.9692L110.268 3.20099C109.302 3.39812 108.673 4.34236 108.862 5.31052H108.864ZM101.975 38.9407C100.075 28.9943 106.481 19.3552 116.274 17.3571C126.066 15.359 135.623 21.7401 137.63 31.6643C139.65 41.6486 133.27 51.4247 123.369 53.445C113.469 55.4653 103.885 48.9466 101.974 38.9407H101.975Z" fill="url(#paint0_linear_2_226)"/>
<path d="M154.311 30.6378L153.036 24.4795C152.833 23.4967 151.879 22.8616 150.906 23.0605L147.438 23.7679C146.816 22.1839 146.071 20.6756 145.203 19.2613L147.837 16.9115C148.578 16.2507 148.643 15.1093 147.983 14.3622L143.864 9.69929C143.206 8.95509 142.074 8.88509 141.334 9.54298L138.683 11.9004C137.385 10.8663 136 9.94715 134.544 9.15687L135.67 5.78115C135.983 4.84157 135.478 3.82618 134.542 3.51182L128.696 1.5504C127.762 1.23721 126.749 1.74288 126.434 2.68012L125.296 6.06402C123.687 5.82606 122.043 5.73274 120.379 5.78348L119.683 2.26662C119.491 1.29905 118.553 0.674414 117.588 0.871545L111.551 2.1033C110.586 2.30043 109.956 3.24468 110.145 4.21284L110.837 7.76006C109.294 8.37186 107.82 9.10615 106.435 9.96058L104.071 7.24389C103.426 6.50261 102.3 6.43319 101.557 7.08874L96.9036 11.1929C96.1587 11.8502 96.0765 12.9858 96.7205 13.7294L99.1055 16.484C98.0797 17.7741 97.1635 19.1499 96.3702 20.5987L92.9157 19.4235C91.9843 19.1068 90.9655 19.6153 90.6403 20.5602L88.602 26.4794C88.2756 27.4277 88.767 28.4554 89.7002 28.7744L93.1663 29.9595C92.9087 31.5791 92.7945 33.2355 92.819 34.9129L89.1925 35.653C88.2192 35.8519 87.5786 36.8119 87.7628 37.7987L88.915 43.9821C89.0998 44.973 90.0411 45.6151 91.0174 45.4163L94.6544 44.6738C95.2419 46.2479 95.9529 47.7503 96.7847 49.1646L93.9881 51.6521C93.2339 52.3229 93.15 53.4852 93.801 54.2486L97.8798 59.0311C98.5332 59.7975 99.6756 59.8727 100.431 59.1991L103.227 56.7046C104.509 57.7591 105.88 58.6975 107.324 59.5117L106.12 63.0904C105.794 64.0591 106.297 65.1113 107.244 65.4396L113.173 67.4955C114.121 67.825 115.154 67.3037 115.478 66.3326L116.662 62.7813C118.288 63.0402 119.952 63.1487 121.636 63.112L122.352 66.7881C122.549 67.7941 123.506 68.4479 124.491 68.2467L130.65 66.9899C131.635 66.7887 132.272 65.81 132.073 64.8045L131.35 61.1599C132.929 60.5394 134.433 59.7899 135.845 58.9162L138.244 61.6871C138.911 62.4564 140.06 62.5322 140.811 61.8557L145.505 57.6319C146.254 56.9571 146.321 55.789 145.654 55.0226L143.263 52.275C144.307 50.9464 145.231 49.5268 146.029 48.0349L149.433 49.199C150.385 49.5245 151.411 49.0066 151.724 48.0431L153.68 42.0294C153.993 41.0694 153.476 40.0295 152.526 39.7064L149.154 38.5592C149.395 36.9017 149.486 35.2074 149.432 33.4956L152.91 32.7858C153.886 32.5864 154.512 31.6246 154.308 30.6378H154.311ZM124.653 52.3479C114.753 54.3682 105.169 47.8495 103.258 37.8436C101.358 27.8978 107.764 18.2582 117.557 16.26C127.349 14.2619 136.906 20.643 138.913 30.5672C140.932 40.5515 134.553 50.3276 124.652 52.3479H124.653Z" fill="url(#paint1_linear_2_226)"/>
<path d="M101.987 137.32C66.8864 143.351 56.0926 138.676 52.9056 133.064C51.0527 129.801 50.8615 124.619 45.5751 118.078C41.1198 112.566 38.5571 112.906 36.6488 108.679C33.3388 101.347 39.6522 97.2256 37.0795 90.1248C34.2626 82.3503 25.4004 83.7192 21.5589 74.4341C19.4577 69.3554 21.9243 68.4992 20.0534 63.4374C16.2404 53.1201 5.00661 54.0165 1.27464 44.7111C-0.898216 39.294 0.220253 32.2854 3.79486 28.1573C10.9645 19.8772 28.1311 23.0529 37.8407 30.7305C39.0915 31.7197 48.5051 39.3804 49.4167 50.7242C49.9663 57.5684 47.02 60.7598 49.4481 64.9269C52.8729 70.8059 60.6295 67.7014 64.0357 72.9242C68.6512 80.0011 57.703 90.7471 62.9778 98.7111C65.0195 101.793 67.1778 100.966 69.2189 104.506C72.5755 110.328 68.664 115.906 69.4357 120.752C70.2651 125.956 76.8134 132.311 101.987 137.319V137.32Z" fill="url(#paint2_linear_2_226)"/>
<g style="mix-blend-mode:soft-light" opacity="0.28">
<path d="M37.058 46.9035C41.6129 57.4202 34.188 64.0667 39.5211 72.3625C43.8522 79.1 50.682 77.7224 52.5495 83.9951C54.3394 90.0064 48.554 92.9109 50.1365 99.7772C51.4409 105.437 55.8326 105.465 60.2197 112.786C64.6354 120.154 62.8501 124.571 65.118 129.072C67.5525 133.903 74.4599 138.434 93.0509 138.699C95.8399 138.322 98.8124 137.865 101.987 137.32C76.8134 132.311 70.2651 125.957 69.4357 120.752C68.6634 115.906 72.5755 110.328 69.2189 104.506C67.1778 100.966 65.0195 101.794 62.9778 98.7111C57.7024 90.7471 68.6512 80.0011 64.0357 72.9242C60.6289 67.7014 52.873 70.8059 49.4476 64.9269C47.0194 60.7598 49.9663 57.5684 49.4161 50.7242C48.5045 39.3804 39.0909 31.7197 37.8402 30.7305C28.1305 23.0529 10.9639 19.8772 3.7943 28.1573C3.75991 28.1969 3.72726 28.2389 3.69287 28.2792C8.48737 28.4495 14.366 29.427 20.4521 32.3314C25.179 34.5868 33.4274 38.5224 37.0574 46.904L37.058 46.9035Z" fill="white"/>
</g>
<path d="M86.5108 26.7576C79.3529 14.8096 64.6465 3.19284 48.0044 4.37038C45.7342 4.53077 32.4856 5.46859 29.2041 13.2419C25.8778 21.1219 33.8185 33.5984 41.9428 40.211C47.8313 45.0034 52.7663 45.8607 53.0262 49.6342C53.3771 54.7211 44.6443 56.5805 43.8149 63.9933C43.3766 67.9126 45.3852 71.2604 47.361 74.5538C51.8396 82.0186 56.2069 81.7398 56.848 85.8761C57.7246 91.5357 49.8247 93.8476 48.0715 102.316C46.8218 108.349 49.5006 113.607 51.0096 116.57C56.8923 128.119 72.737 134.733 91.1957 134.374C79.7527 131.462 76.5034 127.932 76.001 124.968C75.1786 120.118 81.7729 117.129 80.8904 111.602C79.8734 105.235 70.2768 103.914 70.5723 99.7283C70.8917 95.2042 82.1902 95.5273 84.5221 89.0138C86.6361 83.1092 78.4862 79.6728 78.5486 71.0959C78.6232 60.8555 90.2935 58.4526 92.3445 46.7951C93.7451 38.8351 89.6909 32.0685 86.5097 26.7582L86.5108 26.7576Z" fill="url(#paint3_linear_2_226)"/>
<g style="mix-blend-mode:soft-light" opacity="0.7">
<path d="M24.9947 9.29403C32.1952 12.5986 39.3812 15.937 46.5572 19.2976C50.151 20.9662 53.7297 22.6657 57.2792 24.4294C59.0552 25.3083 60.827 26.1984 62.5861 27.1158C64.3439 28.0349 66.0924 28.978 67.7938 30.0156C68.6436 30.5358 69.4817 31.0805 70.2854 31.6842C70.6899 31.9816 71.077 32.3071 71.457 32.6424C71.83 32.9871 72.1884 33.3511 72.5148 33.75C72.8383 34.1507 73.1251 34.5887 73.353 35.0576C73.582 35.5259 73.7481 36.0252 73.8583 36.5291C74.0634 37.5392 74.0932 38.5902 73.9014 39.6044C73.7161 40.6193 73.3344 41.5833 72.8535 42.4757C72.3721 43.3709 71.7839 44.1921 71.1696 44.9824C69.934 46.5612 68.5556 47.9942 67.2366 49.4645C65.9159 50.9319 64.6365 52.4331 63.5804 54.079C63.0616 54.9054 62.5872 55.7593 62.2142 56.6557C61.8505 57.5551 61.5637 58.4841 61.3988 59.4377C61.0951 61.3431 61.2123 63.3337 61.8044 65.1732C62.1034 66.0924 62.5289 66.9672 63.0342 67.7971C63.5407 68.6276 64.1341 69.4092 64.7437 70.1837C65.3546 70.9594 65.9893 71.7252 66.5716 72.5441C66.8671 72.9494 67.1387 73.3751 67.3998 73.8067C67.6492 74.2465 67.8928 74.6921 68.0881 75.1622C68.4967 76.093 68.7619 77.0886 68.8802 78.0975C69.0009 79.1065 68.9904 80.1237 68.872 81.1292C68.7502 82.134 68.5066 83.1291 68.1312 84.071C67.7536 85.0117 67.2657 85.9041 66.7062 86.7369C65.6005 88.4143 64.2267 89.8683 63.2674 91.5573C62.7859 92.3972 62.4374 93.3047 62.2801 94.2501C62.1326 95.1955 62.1571 96.1724 62.3436 97.1196C62.5301 98.0656 62.874 98.9777 63.349 99.8211C63.8316 100.661 64.4238 101.441 65.0795 102.17C66.3804 103.637 67.8987 104.938 69.1308 106.534C69.7463 107.328 70.2738 108.206 70.6323 109.157C70.9831 110.111 71.1574 111.128 71.1574 112.14C71.1521 113.151 70.982 114.171 70.613 115.117C70.2452 116.065 69.6997 116.92 69.1617 117.748C68.6331 118.575 68.105 119.417 67.9582 120.362C67.7804 121.3 68.0019 122.277 68.439 123.129C68.8919 123.981 69.5289 124.735 70.2487 125.396C70.9674 126.061 71.7578 126.651 72.579 127.193C74.2314 128.265 75.9945 129.169 77.7978 129.976C79.6011 130.786 81.4452 131.506 83.3074 132.175C85.1702 132.841 87.0511 133.461 88.9459 134.034C92.7327 135.191 96.5637 136.201 100.411 137.143L100.404 137.169C96.5485 136.261 92.7076 135.284 88.9074 134.16C87.0062 133.603 85.1178 132.999 83.2457 132.348C81.3741 131.695 79.5195 130.989 77.7016 130.192C75.8837 129.398 74.1025 128.505 72.421 127.435C71.5846 126.894 70.7768 126.302 70.0343 125.628C69.2911 124.958 68.6232 124.183 68.1406 123.284C67.672 122.385 67.4243 121.327 67.6113 120.304C67.6813 119.79 67.8771 119.307 68.0951 118.85C68.3172 118.392 68.5894 117.972 68.8528 117.549C69.3884 116.716 69.9101 115.886 70.2569 114.98C70.6037 114.075 70.7605 113.109 70.7611 112.139C70.7558 111.169 70.5851 110.205 70.2476 109.3C69.902 108.397 69.3954 107.56 68.7939 106.792C67.5921 105.249 66.0756 103.96 64.7397 102.471C64.0677 101.731 63.4498 100.928 62.9404 100.052C62.438 99.1725 62.069 98.2096 61.868 97.2117C61.6669 96.2161 61.6337 95.1821 61.787 94.169C61.9496 93.1571 62.3203 92.1849 62.8186 91.3048C63.3105 90.4177 63.9132 89.6128 64.5112 88.8214C65.1127 88.0311 65.7154 87.2525 66.2557 86.4383C66.7989 85.6259 67.2645 84.7691 67.6242 83.8703C67.9809 82.9704 68.2111 82.0238 68.3259 81.0627C68.5474 79.1398 68.3638 77.1498 67.5741 75.3826C66.8152 73.5968 65.5288 72.088 64.2967 70.5354C63.6806 69.755 63.0716 68.9566 62.5441 68.0957C62.0184 67.2349 61.5695 66.3175 61.2536 65.3517C60.6283 63.4159 60.5024 61.3426 60.8183 59.3392C60.989 58.3378 61.2881 57.3649 61.6657 56.4271C62.0533 55.4922 62.5423 54.608 63.0756 53.7565C64.1591 52.0617 65.4583 50.5353 66.7837 49.0574C68.1073 47.5778 69.477 46.1471 70.6818 44.6015C71.2809 43.8282 71.8487 43.0309 72.305 42.1782C72.7614 41.3279 73.1146 40.4251 73.2836 39.4896C73.4591 38.5546 73.4276 37.5935 73.2405 36.662C73.0476 35.7324 72.6297 34.8774 72.0305 34.1367C71.7303 33.7675 71.394 33.4234 71.0408 33.0939C70.6794 32.7725 70.3088 32.4581 69.9165 32.1671C69.1384 31.578 68.316 31.0386 67.4791 30.5218C65.8016 29.4907 64.0653 28.5447 62.3168 27.622C60.5671 26.7005 58.8016 25.8058 57.0315 24.9205L51.7101 22.2819C49.9382 21.3972 48.146 20.555 46.3642 19.6907C39.2243 16.2595 32.0956 12.8057 24.9802 9.31795L24.9912 9.29346L24.9947 9.29403Z" fill="white"/>
</g>
<path d="M84.6497 131.305C81.8847 132.746 77.3828 134.861 71.5572 136.526C59.5593 139.956 38.9207 142.345 31.8275 133.068C30.9555 131.928 28.6521 128.914 28.9575 125.192C29.2752 121.322 32.1305 120.127 31.7056 117.708C31.1245 114.4 25.4377 114.651 19.7841 110.853C14.9826 107.629 9.20541 100.813 9.76319 92.7944C10.3752 84.0028 18.2395 79.0034 19.0952 78.4785C24.9079 74.9108 33.8663 73.6201 39.4668 78.1268C44.4228 82.1143 44.8867 89.1422 45.1927 93.7794C45.8852 104.273 41.4992 108.992 44.6588 112.667C47.5358 116.013 52.4159 113.544 55.9136 118.009C57.408 119.916 56.9814 120.96 59.3175 124.693C61.0846 127.518 62.9941 129.581 63.7786 130.313C69.853 135.977 83.445 131.698 84.6497 131.304V131.305Z" fill="url(#paint4_linear_2_226)"/>
<g style="mix-blend-mode:soft-light" opacity="0.5">
<path d="M77.1305 134.79C71.4227 134.79 65.7545 134.416 60.1959 133.672C43.3884 131.421 41.4894 127.654 40.8652 126.417C39.8953 124.493 40.0714 122.876 40.2579 121.163C40.4677 119.237 40.6845 117.247 39.4227 114.483C38.2721 111.963 36.7724 110.793 35.3217 109.661C33.9071 108.557 32.4448 107.416 31.3689 105.039C29.9823 101.977 30.4025 99.4916 30.8472 96.8612C31.0908 95.4189 31.3432 93.927 31.3164 92.2566C31.2103 85.6568 26.6606 78.8978 17.7932 72.1679L17.9202 72.0005C26.8419 78.7712 31.4196 85.5856 31.5268 92.2531C31.5536 93.9433 31.3001 95.4446 31.0547 96.8962C30.6152 99.4945 30.2002 101.949 31.56 104.952C32.6144 107.282 33.9922 108.357 35.4505 109.495C36.921 110.642 38.4411 111.829 39.6132 114.397C40.899 117.212 40.6687 119.323 40.4659 121.186C40.2829 122.867 40.1098 124.455 41.0517 126.323C41.6631 127.536 43.5253 131.228 60.2227 133.464C68.4828 134.57 76.9883 134.856 85.5014 134.313L85.5148 134.523C82.7159 134.701 79.9177 134.79 77.1293 134.79L77.1305 134.79Z" fill="white"/>
</g>
<path d="M121.161 30.2657C121.161 28.1281 119.593 26.3365 117.755 26.2642L29.2741 22.7747C27.0721 22.6878 25.3807 24.5238 25.3807 26.8754V166.107C25.3807 168.459 26.9946 170.193 29.1966 169.971L117.807 161.027C119.645 160.842 121.16 158.959 121.16 156.821V30.2657H121.161Z" fill="url(#paint5_linear_2_226)"/>
<path d="M123.471 30.2657C123.471 28.1281 122.039 26.3365 120.201 26.2642L31.7575 22.7747C29.5555 22.6878 27.902 24.5238 27.902 26.8754V166.107C27.902 168.459 29.5456 170.193 31.7476 169.971L120.238 161.027C122.077 160.842 123.472 158.959 123.472 156.821V30.2657H123.471Z" fill="url(#paint6_linear_2_226)"/>
<path d="M119.481 39.0404V148.685C119.481 149.82 118.639 150.928 117.661 151.016L40.7755 157.96L34.74 158.504C34.3915 158.535 34.0564 158.463 33.7854 158.313C33.1483 157.962 32.7327 157.185 32.7327 156.318V36.7792C32.7327 36.1026 32.9402 35.5118 33.3838 35.1141C33.5102 35.0003 33.6536 34.9024 33.7929 34.8277C34.0558 34.6778 34.3548 34.6031 34.6981 34.6136L40.7655 34.784L117.67 36.9495C118.651 36.9781 119.481 37.9048 119.481 39.0404Z" fill="url(#paint7_linear_2_226)"/>
<g style="mix-blend-mode:soft-light">
<path d="M116.119 151.153L34.7692 158.499C33.6122 158.603 32.7327 157.556 32.7327 156.318V36.7804C32.7327 36.1044 32.9705 35.5049 33.4147 35.1083C33.6816 35.8175 33.9474 36.5168 34.2575 37.2021C43.3988 57.394 61.6041 44.1903 73.6416 64.1192C83.0639 79.7183 75.783 94.4973 86.4275 111.833C94.8421 125.534 102.336 120.867 110.001 134.051C112.953 139.128 114.875 145.083 116.119 151.153V151.153Z" fill="white"/>
</g>
<path d="M53.8423 68.1499L50.6139 77.9336H46.4629L57.0241 46.8289H61.867L72.4742 77.9336H68.185L64.8646 68.1499H53.8423ZM64.0346 65.0116L60.991 56.0585C60.2991 54.0282 59.8381 52.1817 59.3765 50.3819H59.2844C58.8233 52.2278 58.3163 54.1198 57.7165 56.0124L54.6729 65.0116H64.0351H64.0346Z" fill="#9AA5AA"/>
<path d="M109.838 59.5794L76.4988 59.3746V56.9502L109.838 57.2412V59.5794Z" fill="#9AA5AA"/>
<path d="M109.838 63.8131L76.4988 63.7653V61.3402L109.838 61.475V63.8131Z" fill="#9AA5AA"/>
<path d="M109.838 68.0461L76.4988 68.1552V65.7307L109.838 65.7085V68.0461Z" fill="#9AA5AA"/>
<path d="M109.838 72.2798L76.4988 72.5457V70.1213L109.838 69.9417V72.2798Z" fill="#9AA5AA"/>
<path d="M109.838 76.5134L76.4988 76.9363V74.5112L109.838 74.1753V76.5134Z" fill="#9AA5AA"/>
<path d="M109.838 83.5017L43.7125 84.8531V82.3434L109.838 81.1636V83.5017Z" fill="#9AA5AA"/>
<path d="M109.838 87.7354L43.7125 89.3976V86.8879L109.838 85.3972V87.7354Z" fill="#9AA5AA"/>
<path d="M109.838 91.9684L43.7125 93.9421V91.4324L109.838 89.6309V91.9684Z" fill="#9AA5AA"/>
<path d="M109.838 96.202L43.7125 98.4866V95.9769L109.838 93.8639V96.202Z" fill="#9AA5AA"/>
<path d="M109.838 100.436L43.7125 103.032V100.521L109.838 98.0975V100.436Z" fill="#9AA5AA"/>
<path d="M109.838 108.903L43.7125 112.121V109.61L109.838 106.565V108.903Z" fill="#9AA5AA"/>
<path d="M109.838 113.137L43.7125 116.665V114.156L109.838 110.798V113.137Z" fill="#9AA5AA"/>
<path d="M109.838 117.37L43.7125 121.21V118.7L109.838 115.032V117.37Z" fill="#9AA5AA"/>
<path d="M109.838 121.604L43.7125 125.754V123.245L109.838 119.266V121.604Z" fill="#9AA5AA"/>
<path d="M109.838 125.837L43.7125 130.299V127.789L109.838 123.5V125.837Z" fill="#9AA5AA"/>
<path d="M109.838 133.069L43.7125 137.933V135.424L109.838 130.731V133.069Z" fill="#9AA5AA"/>
<path d="M109.838 137.303L43.7125 142.478V139.968L109.838 134.965V137.303Z" fill="#9AA5AA"/>
<path d="M109.838 141.536L43.7125 147.022V144.513L109.838 139.198V141.536Z" fill="#9AA5AA"/>
<path d="M44.8704 34.6545L37.5825 34.6137L37.2147 34.6114C36.854 34.6096 36.6214 34.6213 36.3282 34.6458C36.1953 34.6569 36.0933 34.7683 36.0933 34.9012V68.154L40.6092 63.1686L45.1251 66.931V34.9106C45.1251 34.7694 45.0115 34.6545 44.8704 34.654V34.6545Z" fill="url(#paint8_linear_2_226)"/>
<path style="mix-blend-mode:multiply" opacity="0.3" d="M41.2037 57.45C35.8835 55.5586 38.5448 45.1189 39.0338 40.4256C39.313 37.7498 38.4101 35.7994 37.5825 34.6143L37.2147 34.612C36.854 34.6102 36.6214 34.6219 36.3282 34.6464C36.1953 34.6575 36.0933 34.7689 36.0933 34.9019V68.1546L40.6092 63.1692L45.1251 66.9316V61.9713C44.3773 59.941 43.1551 58.1441 41.2037 57.45Z" fill="url(#paint9_linear_2_226)"/>
<path d="M85.4535 159.247C85.4535 159.934 84.8969 160.531 84.2086 160.579L72.6566 161.399C71.9525 161.449 71.3807 160.925 71.3807 160.228C71.3807 159.532 71.9525 158.928 72.6566 158.88L84.2086 158.088C84.8963 158.041 85.4535 158.56 85.4535 159.247Z" fill="url(#paint10_linear_2_226)"/>
<path d="M98.8385 68.3051C98.652 68.3552 98.4941 68.4783 98.4014 68.6457C98.3087 68.813 98.2889 69.0102 98.3472 69.1921L102.408 81.9328C102.524 82.2973 102.915 82.5032 103.287 82.3959L112.72 79.685C113.096 79.5771 113.313 79.1905 113.206 78.8195L109.549 66.1401C109.442 65.7698 109.053 65.5534 108.676 65.6549L98.8391 68.3045L98.8385 68.3051Z" fill="#262648"/>
<path d="M99.5886 68.9245C99.4219 68.9694 99.2814 69.079 99.1987 69.2283C99.1159 69.3776 99.0984 69.5538 99.1503 69.7159L102.772 81.0778C102.876 81.4026 103.224 81.5864 103.556 81.4907L111.968 79.0732C112.303 78.977 112.496 78.6323 112.401 78.3016L109.14 66.9946C109.045 66.6645 108.697 66.4714 108.362 66.5618L99.5892 68.9245H99.5886Z" fill="white"/>
<path d="M106.787 68.9478L102.488 70.0669L102.213 69.1828L106.519 68.0846L106.787 68.9478Z" fill="#D8DDE0"/>
<path d="M109.393 70.5184C109.403 70.5523 109.39 70.5855 109.362 70.5925L105.747 71.5677C105.718 71.5753 105.687 71.5537 105.676 71.5193L105.444 70.7722C105.433 70.7378 105.447 70.7039 105.476 70.6963L109.097 69.7392C109.125 69.7322 109.155 69.7538 109.165 69.7871L109.393 70.5184Z" fill="#D8DDE0"/>
<path d="M109.655 71.3618C109.665 71.3956 109.652 71.4289 109.625 71.4365L106.015 72.4291C105.987 72.4367 105.955 72.4151 105.945 72.3807L105.88 72.1731C105.869 72.1387 105.883 72.1049 105.912 72.0967L109.524 71.111C109.551 71.1034 109.582 71.125 109.592 71.1589L109.655 71.3618Z" fill="#D8DDE0"/>
<path d="M109.895 72.1333C109.905 72.1672 109.892 72.2004 109.865 72.208L106.26 73.217C106.232 73.2252 106.2 73.2036 106.19 73.1691L106.125 72.9615C106.115 72.9271 106.129 72.8927 106.157 72.8851L109.763 71.8831C109.79 71.8756 109.821 71.8965 109.831 71.9304L109.894 72.1333H109.895Z" fill="#D8DDE0"/>
<path d="M110.135 72.9055C110.146 72.9393 110.132 72.9726 110.105 72.9802L106.506 74.0055C106.478 74.0137 106.446 73.9921 106.435 73.9577L106.37 73.7501C106.36 73.7157 106.374 73.6812 106.402 73.6731L110.004 72.6547C110.031 72.6472 110.062 72.6682 110.072 72.702L110.135 72.905L110.135 72.9055Z" fill="#D8DDE0"/>
<path d="M110.375 73.6777C110.386 73.7115 110.372 73.7448 110.346 73.7529L106.751 74.7946C106.723 74.8028 106.692 74.7812 106.681 74.7473L106.616 74.5397C106.605 74.5053 106.619 74.4709 106.647 74.4627L110.244 73.4281C110.271 73.4205 110.301 73.4415 110.312 73.4748L110.375 73.6777H110.375Z" fill="#D8DDE0"/>
<path d="M105.498 75.1921L102.61 76.0297C102.503 76.0606 102.384 75.9824 102.344 75.8547L101.163 72.0585C101.123 71.9307 101.179 71.8041 101.286 71.7756L104.195 71.0069C104.299 70.9795 104.415 71.0588 104.454 71.1842L105.613 74.911C105.652 75.0364 105.6 75.1624 105.497 75.1921H105.498Z" fill="#D8DDE0"/>
<path d="M101.312 71.8791L101.315 71.878L104.225 71.1098C104.282 71.0946 104.346 71.1396 104.368 71.2096L105.527 74.9358C105.548 75.0035 105.52 75.0717 105.465 75.0881L102.578 75.9261C102.518 75.9436 102.451 75.8993 102.429 75.8281L101.248 72.0313C101.227 71.9631 101.255 71.8966 101.312 71.8791ZM101.28 71.7765C101.176 71.808 101.124 71.9322 101.163 72.0575L102.344 75.8538C102.383 75.9816 102.502 76.0597 102.61 76.0288L105.498 75.1913H105.499C105.601 75.1604 105.653 75.0349 105.614 74.9101L104.455 71.1833C104.416 71.0579 104.3 70.9786 104.196 71.006L101.287 71.7747C101.287 71.7747 101.283 71.7759 101.281 71.7765H101.28Z" fill="#D8DDE0"/>
<path d="M104.908 77.4262L103.074 77.964C103.062 77.9675 103.048 77.9587 103.044 77.9441L102.954 77.6549C102.949 77.6403 102.956 77.6257 102.968 77.6222L104.803 77.0879C104.815 77.0844 104.828 77.0932 104.833 77.1078L104.922 77.3936C104.927 77.4081 104.921 77.4227 104.909 77.4262H104.908Z" fill="#D8DDE0"/>
<path d="M106.426 77.7317L103.292 78.6637C103.28 78.6672 103.266 78.6585 103.262 78.6439L103.172 78.3546C103.167 78.3401 103.174 78.3254 103.186 78.322L106.322 77.3958C106.333 77.3923 106.347 77.401 106.351 77.4156L106.439 77.6996C106.444 77.7136 106.438 77.7282 106.426 77.7317Z" fill="#D8DDE0"/>
<path d="M106.64 78.42L103.509 79.3642C103.497 79.3677 103.484 79.359 103.479 79.3444L103.389 79.0551C103.385 79.0405 103.391 79.026 103.403 79.0225L106.536 78.084C106.547 78.0805 106.561 78.0893 106.565 78.1033L106.653 78.3873C106.658 78.4013 106.652 78.4159 106.64 78.4194V78.42Z" fill="#D8DDE0"/>
<path d="M106.854 79.1076L103.727 80.064C103.715 80.0675 103.702 80.0588 103.697 80.0442L103.607 79.7549C103.603 79.7404 103.609 79.7258 103.621 79.7217L106.749 78.771C106.761 78.7675 106.775 78.7763 106.779 78.7903L106.867 79.0743C106.872 79.0883 106.866 79.1029 106.854 79.1064V79.1076Z" fill="#D8DDE0"/>
<path d="M110.085 75.9092L107.317 76.7205C107.306 76.724 107.293 76.7152 107.288 76.7007L107.2 76.4184C107.195 76.4044 107.201 76.3898 107.213 76.3863L109.982 75.5808C109.993 75.5774 110.006 75.5861 110.01 75.6001L110.096 75.8777C110.1 75.8917 110.095 75.9057 110.084 75.9092H110.085Z" fill="#D8DDE0"/>
<path d="M111.126 76.3343L107.53 77.404C107.518 77.4075 107.505 77.3988 107.5 77.3848L107.412 77.1024C107.408 77.0884 107.414 77.0739 107.425 77.0704L111.024 76.0077C111.035 76.0042 111.048 76.013 111.052 76.027L111.137 76.3034C111.141 76.3174 111.136 76.3314 111.125 76.3343H111.126Z" fill="#D8DDE0"/>
<path d="M111.335 77.0039L107.743 78.0875C107.731 78.091 107.718 78.0823 107.714 78.0683L107.626 77.786C107.621 77.772 107.627 77.7574 107.638 77.7539L111.233 76.6773C111.244 76.6738 111.257 76.6825 111.261 76.6965L111.347 76.9729C111.351 76.9869 111.345 77.0009 111.334 77.0044L111.335 77.0039Z" fill="#D8DDE0"/>
<path d="M111.543 77.6734L107.955 78.7711C107.943 78.7746 107.93 78.7658 107.926 78.7518L107.838 78.4696C107.833 78.4556 107.839 78.441 107.851 78.4375L111.44 77.3468C111.451 77.3433 111.464 77.3521 111.468 77.3661L111.554 77.6426C111.558 77.6566 111.553 77.6706 111.542 77.6741L111.543 77.6734Z" fill="#D8DDE0"/>
<path d="M152.523 74.7772C153.042 74.9738 160.965 78.1261 162.593 86.4004C162.725 87.0688 163.998 94.1777 159.18 99.1993C153.778 104.83 143.375 104.691 139.246 99.9832C138.283 98.8856 137.775 97.6684 137.49 96.6466L138.578 93.7543C139.905 92.1505 141.713 91.7708 142.678 91.5328C145.058 90.9461 146.855 92.0064 148.218 90.858C148.972 90.2229 149.122 89.3084 149.255 88.4913C149.711 85.7093 148.142 83.9963 148.028 82.2804C147.942 80.9979 147.494 78.1874 149.167 76.3549C150.226 75.1942 151.693 74.8781 152.523 74.7766V74.7772Z" fill="url(#paint11_linear_2_226)"/>
<path d="M155.61 166.99C155.703 166.481 157.346 166.019 158.161 166.702C158.565 167.041 158.843 167.727 158.609 168.037C158.524 168.15 158.873 168.349 158.539 168.352C157.432 168.365 155.519 167.496 155.611 166.99H155.61Z" fill="url(#paint12_linear_2_226)"/>
<path d="M157.333 167.175L159.024 166.936C158.241 165.992 158.386 162.987 158.386 162.987L156.588 163.389C156.588 163.389 156.792 164.214 157.141 165.431C157.26 165.847 157.313 166.499 157.333 167.176V167.175Z" fill="url(#paint13_linear_2_226)"/>
<path d="M157.183 166.967C157.183 166.967 159.218 166.497 159.439 166.901C159.659 167.305 159.83 168.387 158.538 168.352C157.247 168.317 157.068 167.309 157.183 166.967Z" fill="url(#paint14_linear_2_226)"/>
<path d="M132.412 168.9C132.575 168.408 134.267 168.182 134.978 168.972C135.33 169.364 135.51 170.083 135.235 170.357C135.135 170.457 135.453 170.702 135.122 170.659C134.024 170.517 132.251 169.388 132.413 168.899L132.412 168.9Z" fill="url(#paint15_linear_2_226)"/>
<path d="M134.093 169.325H135.8C135.156 168.281 135.72 165.325 135.72 165.325L133.883 165.471C133.883 165.471 133.971 166.317 134.146 167.57C134.206 167.999 134.167 168.652 134.092 169.325H134.093Z" fill="url(#paint16_linear_2_226)"/>
<path d="M129.668 104.713C128.877 107.327 127.747 111.545 127.02 116.838C124.946 131.934 129.354 132.416 128.531 149.144C128.268 154.484 133.154 166.797 133.584 167.069C133.793 167.09 134.019 167.103 134.26 167.095C134.685 167.083 135.284 167.017 135.98 166.808C136.755 166.675 139.545 159.112 138.898 154.615C138.441 151.433 138.573 148.017 138.839 141.186C138.882 140.079 141.712 119.651 141.712 119.651C142.572 127.212 143.563 133.637 144.421 138.619C147.178 154.622 156.145 164.308 156.612 164.464C156.705 164.501 157.546 164.807 158.234 164.353C158.54 164.151 158.644 163.891 158.644 163.891C158.884 163.703 158.573 147.913 155.839 136.03C151.869 118.781 153.598 114.746 152.34 107.041C151.252 100.375 129.667 104.713 129.667 104.713L129.668 104.713Z" fill="url(#paint17_linear_2_226)"/>
<path d="M154.478 88.4265C153.652 91.6378 153.635 91.3334 152.634 95.3775C152.037 97.7903 150.869 100.377 151.703 104.638C151.848 105.386 152.056 106.185 152.34 107.044C150.46 108.036 147.786 109.148 144.445 109.646C137.129 110.735 131.033 108.543 128.649 107.32C128.588 107.044 128.513 106.752 128.513 106.443V106.439C128.303 105.85 128.26 105.193 128.163 104.438C127.861 102.042 127.673 98.6727 128.093 93.4032V93.3968C128.093 93.2895 128.081 93.1804 128.09 93.0707C128.197 91.6436 128.511 88.3688 129.64 84.5206C130.281 82.3388 130.907 80.876 131.611 79.6215C132.583 77.8876 133.653 76.6057 133.966 76.2376C134.301 75.8445 134.569 75.5482 134.626 75.4957C137.963 72.4921 143.067 73.3541 145.703 73.4299C148.062 73.5017 152.605 73.6084 155.128 76.5975C156.062 77.7074 155.839 83.1238 154.478 88.4265H154.478Z" fill="url(#paint18_linear_2_226)"/>
<path d="M133.973 169.097C133.973 169.097 136.055 168.917 136.216 169.348C136.377 169.779 136.395 170.874 135.121 170.659C133.848 170.444 133.812 169.42 133.973 169.097Z" fill="url(#paint19_linear_2_226)"/>
<path d="M128.016 95.847C127.981 95.847 127.948 95.826 127.935 95.7915C127.918 95.7466 127.94 95.6965 127.985 95.679C128.026 95.6633 132.109 94.0634 135.916 90.3022C135.95 90.2689 136.005 90.2683 136.039 90.3028C136.073 90.3372 136.072 90.392 136.038 90.4258C132.204 94.2133 128.089 95.8253 128.047 95.8411C128.037 95.8452 128.026 95.847 128.016 95.847Z" fill="url(#paint20_linear_2_226)"/>
<path style="mix-blend-mode:multiply" opacity="0.3" d="M151.501 103.415C151.457 103.415 151.42 103.382 151.415 103.337C151.099 100.499 151.685 98.4445 152.202 96.6319C152.328 96.1903 152.447 95.7733 152.55 95.3563C153.12 93.0578 153.369 92.1701 153.633 91.23C153.804 90.6199 153.981 89.9889 154.256 88.935C154.268 88.8889 154.314 88.8615 154.362 88.8726C154.408 88.8848 154.436 88.9321 154.424 88.9787C154.149 90.0344 153.972 90.666 153.8 91.2772C153.537 92.2156 153.288 93.1015 152.719 95.3983C152.615 95.8182 152.496 96.2364 152.369 96.6797C151.857 98.4766 151.277 100.514 151.588 103.318C151.593 103.365 151.559 103.408 151.511 103.414C151.507 103.414 151.505 103.414 151.501 103.414V103.415Z" fill="url(#paint21_linear_2_226)"/>
<path style="mix-blend-mode:multiply" opacity="0.3" d="M152.339 107.044C150.459 108.036 147.785 109.148 144.444 109.646C137.128 110.735 131.033 108.543 128.649 107.32C128.588 107.044 128.512 106.752 128.512 106.443V106.439L128.163 104.438C127.86 102.042 127.672 98.6726 128.092 93.4031V93.3968C130.612 92.2367 135.592 90.7296 134.468 96.1414C132.945 103.479 134.665 103.172 138.184 103.326C141.702 103.479 140.753 107.42 145.269 106.474C147.443 106.018 149.745 105.047 151.705 104.637C151.85 105.385 152.056 106.183 152.339 107.043V107.044Z" fill="url(#paint22_linear_2_226)"/>
<path d="M103.146 82.6911L101.601 81.9503C101.361 81.7585 100.994 81.4173 100.716 80.8953C100.258 80.0356 100.265 79.1048 100.271 79.1042C100.275 79.1042 100.201 77.8526 100.731 77.6409C100.8 77.6129 100.881 77.6041 100.973 77.6193L101.523 79.0675C101.523 79.0675 101.611 79.6974 102.604 80.3518C103.589 81.2097 103.985 81.9941 103.985 81.9941L103.147 82.6911H103.146Z" fill="url(#paint23_linear_2_226)"/>
<path d="M138.727 74.3929C135.845 72.5161 128.307 78.3962 126.025 80.0182C117.177 86.3065 118.237 90.2288 114.219 88.2709C111.502 86.9469 111.133 82.9559 106.489 81.4547C106.276 81.3858 106.07 81.3275 105.875 81.2785C105.076 81.0767 104.233 81.1794 103.505 81.5661C103.213 81.7212 102.969 81.8507 102.967 81.8513C102.904 81.8717 102.842 81.8915 102.78 81.9119C101.98 82.1773 101.34 82.7868 101.033 83.573C100.75 84.3032 100.508 85.1284 100.365 86.0447C100.409 86.513 100.501 87.2887 100.711 88.226C100.885 89.0017 102.925 97.4882 110.017 100.102C111.32 100.582 112.402 100.72 112.948 100.786C115.278 101.069 117.39 100.723 121.001 99.4776C127.118 97.3687 131.787 95.3903 135.916 90.5554C136.112 90.325 136.271 90.0987 136.43 89.8555C139.501 85.1442 141.509 76.2039 138.727 74.3923L138.727 74.3929Z" fill="url(#paint24_linear_2_226)"/>
<path d="M138.284 70.4077C137.467 69.0266 137.832 67.449 137.913 67.1078C138.256 65.6806 138.384 65.4636 138.649 65.1621L139.023 64.7661C139.023 64.7661 139.046 64.7486 139.071 64.7317C139.331 64.5526 140.303 64.2616 140.513 64.2511C141.183 64.2173 142.547 66.6225 143.328 70.3295C143.392 70.4619 143.455 70.5954 143.517 70.7307C143.904 71.5718 144.236 72.3988 144.522 73.2048C149.051 73.588 149.68 74.1199 149.7 74.4273C149.743 75.0735 147.161 75.8206 145.22 76.1052C140.987 76.7252 136.636 75.6083 136.655 74.8186C136.664 74.4745 137.505 74.0266 141.094 73.5565C141.01 72.9622 140.926 72.3679 140.843 71.7736C140.551 71.7089 138.884 71.426 138.283 70.4088L138.284 70.4077Z" fill="url(#paint25_linear_2_226)"/>
<path d="M137.432 64.0778C137.738 65.2093 138.593 66.2766 138.917 66.3985C138.959 66.4143 139.198 66.5175 139.446 66.7373C139.48 66.7671 139.513 66.8038 139.546 66.854C139.984 67.5014 139.074 68.6439 139.378 68.9046C139.598 69.0942 140.287 68.5786 140.432 68.7542C140.568 68.9198 140.032 69.4803 140.19 69.6798C140.309 69.8302 140.662 69.5695 140.98 69.7638C141.139 69.8606 141.13 69.9731 141.367 70.3359C141.501 70.5406 141.67 70.7588 141.787 70.8742C142.355 71.4347 143.528 71.3822 143.67 71.0591C143.71 70.9693 143.642 70.9203 143.636 70.6555C143.636 70.6555 143.631 70.41 143.72 70.1003C143.848 69.6582 144.328 69.2383 144.779 68.6871C145.614 67.6665 145.726 66.9567 145.753 66.7199C145.763 66.6353 145.766 66.5729 145.768 66.528C145.815 65.6216 145.489 64.3951 144.913 63.7413C143.949 62.646 142.691 63.6235 141.198 62.6816C139.475 61.595 139.746 59.4085 138.962 59.384C138.097 59.3572 136.867 61.9858 137.432 64.0778H137.432Z" fill="#262648"/>
<path d="M139.714 68.5303C139.89 68.0748 140.473 68.3034 140.607 68.7957C140.741 69.2885 140.4 69.9289 139.911 69.9551C139.421 69.9814 139.477 69.1433 139.714 68.5303Z" fill="url(#paint26_linear_2_226)"/>
<path d="M139.719 67.6443L139.299 68.6533C139.299 68.6533 138.878 69.8647 138.323 69.4103C137.87 69.0394 137.787 69.072 137.772 69.0971C137.769 69.1018 137.77 69.1077 137.769 69.1077C137.762 69.1077 137.756 68.8662 137.752 68.6533C137.646 68.9449 137.516 69.4074 137.516 69.9825C137.516 70.5412 137.516 71.1396 137.953 71.5974C137.978 71.6237 138.455 72.1083 139.096 72.0856C139.096 72.0856 139.349 72.0763 140.307 71.6313C140.307 71.6313 138.995 71.1268 138.928 70.9413C138.745 70.438 139.385 69.9691 139.634 68.7711C139.73 68.3092 139.733 67.9126 139.718 67.6443H139.719Z" fill="#262648"/>
<path style="mix-blend-mode:soft-light" d="M79.0469 33.2792C80.2649 33.2792 81.2523 32.2911 81.2523 31.0723C81.2523 29.8534 80.2649 28.8654 79.0469 28.8654C77.8288 28.8654 76.8414 29.8534 76.8414 31.0723C76.8414 32.2911 77.8288 33.2792 79.0469 33.2792Z" fill="url(#paint27_linear_2_226)"/>
<defs>
<linearGradient id="paint0_linear_2_226" x1="162.291" y1="-1.32138" x2="122.752" y2="33.0454" gradientUnits="userSpaceOnUse">
<stop stop-color="#8195C2"/>
<stop offset="1" stop-color="#56729A"/>
</linearGradient>
<linearGradient id="paint1_linear_2_226" x1="157.649" y1="56.7554" x2="39.6842" y2="-14.666" gradientUnits="userSpaceOnUse">
<stop stop-color="#8195C2"/>
<stop offset="1" stop-color="#56729A"/>
</linearGradient>
<linearGradient id="paint2_linear_2_226" x1="63.4882" y1="66.3507" x2="28.498" y2="119.933" gradientUnits="userSpaceOnUse">
<stop stop-color="#90ACD7"/>
<stop offset="1" stop-color="#6B86B7"/>
</linearGradient>
<linearGradient id="paint3_linear_2_226" x1="57.453" y1="4.71332" x2="67.1291" y2="85.0026" gradientUnits="userSpaceOnUse">
<stop stop-color="#CACDD2"/>
<stop offset="1" stop-color="#96999D"/>
</linearGradient>
<linearGradient id="paint4_linear_2_226" x1="48.4905" y1="100.231" x2="41.3169" y2="165.897" gradientUnits="userSpaceOnUse">
<stop stop-color="#ACAFB4"/>
<stop offset="1" stop-color="#AAADB2"/>
</linearGradient>
<linearGradient id="paint5_linear_2_226" x1="81.0513" y1="-77.0712" x2="71.252" y2="135.403" gradientUnits="userSpaceOnUse">
<stop stop-color="#355178"/>
<stop offset="1" stop-color="#262648"/>
</linearGradient>
<linearGradient id="paint6_linear_2_226" x1="79.4193" y1="10.7998" x2="69.6205" y2="223.267" gradientUnits="userSpaceOnUse">
<stop stop-color="#355178"/>
<stop offset="1" stop-color="#262648"/>
</linearGradient>
<linearGradient id="paint7_linear_2_226" x1="79.2876" y1="23.6565" x2="70.9753" y2="203.885" gradientUnits="userSpaceOnUse">
<stop offset="0.49" stop-color="#EBEEEE"/>
<stop offset="1" stop-color="white"/>
</linearGradient>
<linearGradient id="paint8_linear_2_226" x1="36.0933" y1="51.3833" x2="45.1251" y2="51.3833" gradientUnits="userSpaceOnUse">
<stop stop-color="#ACAFB4"/>
<stop offset="1" stop-color="#AAADB2"/>
</linearGradient>
<linearGradient id="paint9_linear_2_226" x1="36.0933" y1="51.3833" x2="45.1251" y2="51.3833" gradientUnits="userSpaceOnUse">
<stop stop-color="#ACAFB4"/>
<stop offset="1" stop-color="#AAADB2"/>
</linearGradient>
<linearGradient id="paint10_linear_2_226" x1="80.0255" y1="118.773" x2="73.2525" y2="291.061" gradientUnits="userSpaceOnUse">
<stop stop-color="#355178"/>
<stop offset="1" stop-color="#262648"/>
</linearGradient>
<linearGradient id="paint11_linear_2_226" x1="172.985" y1="92.885" x2="87.6401" y2="79.0523" gradientUnits="userSpaceOnUse">
<stop stop-color="#ACAFB4"/>
<stop offset="1" stop-color="#AAADB2"/>
</linearGradient>
<linearGradient id="paint12_linear_2_226" x1="154.691" y1="165.464" x2="158.312" y2="167.868" gradientUnits="userSpaceOnUse">
<stop stop-color="#355178"/>
<stop offset="1" stop-color="#262648"/>
</linearGradient>
<linearGradient id="paint13_linear_2_226" x1="158.196" y1="167.895" x2="157.403" y2="162.291" gradientUnits="userSpaceOnUse">
<stop stop-color="#CACDD2"/>
<stop offset="1" stop-color="#96999D"/>
</linearGradient>
<linearGradient id="paint14_linear_2_226" x1="154.963" y1="165.055" x2="158.584" y2="167.459" gradientUnits="userSpaceOnUse">
<stop stop-color="#355178"/>
<stop offset="1" stop-color="#262648"/>
</linearGradient>
<linearGradient id="paint15_linear_2_226" x1="131.714" y1="167.316" x2="134.963" y2="170.204" gradientUnits="userSpaceOnUse">
<stop stop-color="#355178"/>
<stop offset="1" stop-color="#262648"/>
</linearGradient>
<linearGradient id="paint16_linear_2_226" x1="134.842" y1="170.212" x2="134.842" y2="164.551" gradientUnits="userSpaceOnUse">
<stop stop-color="#CACDD2"/>
<stop offset="1" stop-color="#96999D"/>
</linearGradient>
<linearGradient id="paint17_linear_2_226" x1="134.576" y1="172.808" x2="155.776" y2="87.2677" gradientUnits="userSpaceOnUse">
<stop stop-color="#51637F"/>
<stop offset="1" stop-color="#464848"/>
</linearGradient>
<linearGradient id="paint18_linear_2_226" x1="172.069" y1="74.0779" x2="101.564" y2="116.226" gradientUnits="userSpaceOnUse">
<stop stop-color="#ACAFB4"/>
<stop offset="1" stop-color="#AAADB2"/>
</linearGradient>
<linearGradient id="paint19_linear_2_226" x1="132.04" y1="166.949" x2="135.289" y2="169.837" gradientUnits="userSpaceOnUse">
<stop stop-color="#355178"/>
<stop offset="1" stop-color="#262648"/>
</linearGradient>
<linearGradient id="paint20_linear_2_226" x1="132.647" y1="74.0603" x2="131.806" y2="98.5817" gradientUnits="userSpaceOnUse">
<stop stop-color="#90ACD7"/>
<stop offset="1" stop-color="#6B86B7"/>
</linearGradient>
<linearGradient id="paint21_linear_2_226" x1="153.577" y1="74.7783" x2="152.736" y2="99.2995" gradientUnits="userSpaceOnUse">
<stop stop-color="#ACAFB4"/>
<stop offset="1" stop-color="#AAADB2"/>
</linearGradient>
<linearGradient id="paint22_linear_2_226" x1="154.195" y1="91.8529" x2="115.437" y2="115.022" gradientUnits="userSpaceOnUse">
<stop stop-color="#ACAFB4"/>
<stop offset="1" stop-color="#AAADB2"/>
</linearGradient>
<linearGradient id="paint23_linear_2_226" x1="100.128" y1="78.7618" x2="103.628" y2="81.8868" gradientUnits="userSpaceOnUse">
<stop stop-color="#CACDD2"/>
<stop offset="1" stop-color="#96999D"/>
</linearGradient>
<linearGradient id="paint24_linear_2_226" x1="163.673" y1="60.4036" x2="97.935" y2="99.7015" gradientUnits="userSpaceOnUse">
<stop stop-color="#ACAFB4"/>
<stop offset="1" stop-color="#AAADB2"/>
</linearGradient>
<linearGradient id="paint25_linear_2_226" x1="140.082" y1="69.6302" x2="160.616" y2="102.757" gradientUnits="userSpaceOnUse">
<stop stop-color="#CACDD2"/>
<stop offset="1" stop-color="#96999D"/>
</linearGradient>
<linearGradient id="paint26_linear_2_226" x1="140.267" y1="69.5154" x2="160.801" y2="102.642" gradientUnits="userSpaceOnUse">
<stop stop-color="#CACDD2"/>
<stop offset="1" stop-color="#96999D"/>
</linearGradient>
<linearGradient id="paint27_linear_2_226" x1="80.9265" y1="-16.8048" x2="73.0122" y2="184.528" gradientUnits="userSpaceOnUse">
<stop offset="0.49" stop-color="#EBEEEE"/>
<stop offset="1" stop-color="white"/>
</linearGradient>
</defs>
</svg>
