<svg width="166" height="168" viewBox="0 0 166 168" fill="none" xmlns="http://www.w3.org/2000/svg">
<path d="M147.133 33.2577C113.105 -7.30673 32.5461 -9.57356 8.8586 22.5996C-4.19325 40.3269 1.26111 66.8266 3.95202 79.9013C8.9043 103.963 21.1159 119.453 23.7823 122.738C30.2522 130.711 45.9681 150.077 69.614 154.504C110.016 162.068 160.43 123.557 163.223 80.1076C164.833 55.058 150.075 36.7648 147.133 33.2577Z" fill="#F4F6F8"/>
<path d="M121.613 46.7755C121.613 64.4822 107.777 78.4108 90.0923 77.8673C71.6878 77.302 56.2095 61.3963 56.2095 42.363C56.2095 23.3297 71.6883 9.51255 90.0923 11.4302C107.777 13.2729 121.613 29.0683 121.613 46.775V46.7755Z" fill="url(#paint0_linear_2_472)"/>
<path d="M126.392 45.2487C126.392 62.9554 112.556 76.884 94.8709 76.3404C76.4664 75.7752 60.9881 59.8695 60.9881 40.8362C60.9881 21.8029 76.467 7.9857 94.8709 9.90332C112.555 11.7461 126.392 27.5415 126.392 45.2482V45.2487Z" fill="url(#paint1_linear_2_472)"/>
<path d="M125.004 45.1552C125.004 62.0823 111.765 75.3753 94.8708 74.8277C77.3214 74.259 62.5862 59.0798 62.5862 40.9444C62.5862 22.809 77.3208 9.61772 94.8708 11.417C111.765 13.1489 125.004 28.2281 125.004 45.1552Z" fill="url(#paint2_linear_2_472)"/>
<path d="M124.009 45.0881C124.009 61.4562 111.199 74.2954 94.8709 73.7467C77.931 73.1774 63.7253 58.5172 63.7253 41.0214C63.7253 23.5256 77.931 10.7819 94.8709 12.4983C111.199 14.153 124.009 28.7201 124.009 45.0881Z" fill="url(#paint3_linear_2_472)"/>
<path d="M94.7035 18.0667C95.5723 18.1496 96.2755 18.9321 96.2755 19.8152V22.8291C98.013 23.0234 99.7529 23.3252 101.495 23.735C102.78 24.0374 104.056 24.3969 105.323 24.8136C106.083 25.0633 106.6 25.8309 106.523 26.622L106.153 30.4012C106.054 31.4038 105.064 31.9925 104.132 31.5764C103.297 31.2037 102.441 30.8848 101.564 30.619C100.033 30.1555 98.4186 29.8531 96.7193 29.7131L96.2749 29.6765V38.3072C100.808 39.5761 104.136 41.2834 106.288 43.4308C108.429 45.5679 109.495 48.2308 109.495 51.4282C109.495 54.8856 108.316 57.6543 105.948 59.7423C103.567 61.8417 100.23 63.0219 95.9139 63.2774V66.604C95.9139 67.4876 95.2102 68.1752 94.3402 68.1409L94.3122 68.1398C93.4406 68.1049 92.7335 67.3585 92.7335 66.472V63.1906L92.0332 63.1591C90.01 63.0676 88.0719 62.8613 86.2201 62.539C84.8487 62.3 83.5098 61.992 82.2029 61.6147C81.4129 61.3861 80.8703 60.6328 80.9428 59.824L81.3781 54.9662C81.4723 53.9162 82.5262 53.3052 83.524 53.699C84.687 54.158 85.8648 54.5449 87.0569 54.8593C88.9144 55.3497 90.7977 55.6641 92.7055 55.8036L92.7335 46.2029C88.3827 45.1255 85.1251 43.5302 82.9848 41.4166C80.8349 39.2932 79.7559 36.5753 79.7559 33.2711C79.7559 29.9668 80.9257 27.2124 83.2567 25.36C85.5758 23.5172 88.8722 22.5999 93.1253 22.6022V19.5214C93.1253 18.6354 93.8324 17.9844 94.7029 18.0673L94.7035 18.0667ZM93.1259 29.5873C91.7813 29.6851 90.7326 30.0549 89.982 30.6962C89.2303 31.3392 88.8539 32.2028 88.8539 33.2871C88.8539 34.3142 89.2017 35.1727 89.8975 35.862C90.592 36.5502 91.6687 37.0995 93.1259 37.5099V29.5873ZM95.9145 46.9722V55.7761C97.3761 55.779 98.4968 55.4298 99.2794 54.7296C100.061 54.0306 100.45 53.0429 100.45 51.766C100.45 50.6017 100.088 49.6363 99.3622 48.8681C98.6351 48.0988 97.487 47.4672 95.9145 46.9722Z" fill="url(#paint4_linear_2_472)"/>
<path style="mix-blend-mode:multiply" opacity="0.3" d="M89.5977 49.0965C90.5824 39.3667 99.5182 35.2479 98.3524 26.2977C97.6338 20.7814 93.4555 16.1329 88.7945 12.5028C74.6574 13.9866 63.7253 25.7004 63.7253 41.0214C63.7253 58.5172 77.931 73.1779 94.8709 73.7467C96.516 73.8021 98.1222 73.7164 99.6839 73.5118C92.9563 66.813 88.7517 57.4558 89.5977 49.0965Z" fill="url(#paint5_linear_2_472)"/>
<path d="M156.293 70.2637L152.076 41.7732L142.648 42.722C141.853 42.5739 140.341 43.4021 139.983 44.2372L127.603 73.1038C127.22 73.9995 127.808 75.0266 128.699 75.0209L132.234 74.8723V142.158C132.234 143.357 133.104 144.218 134.174 144.081L142.648 145.966C143.662 145.835 153.152 140.719 153.152 139.563V72.1145L155.295 72.103C156.107 72.099 156.641 71.1142 156.294 70.2637H156.293Z" fill="url(#paint6_linear_2_472)"/>
<path style="mix-blend-mode:multiply" opacity="0.3" d="M141.584 74.5692L132.234 74.8721V142.158C132.234 143.357 133.104 144.217 134.174 144.081L142.649 145.966C143.065 145.912 144.925 145.01 146.964 143.889L141.585 74.5698L141.584 74.5692Z" fill="url(#paint7_linear_2_472)"/>
<path d="M164.384 74.4223L162.22 74.4349V141.566C162.22 142.716 161.457 143.754 160.464 143.881L143.486 146.081C142.427 146.219 141.585 145.362 141.585 144.169V74.5681L139.286 74.5835C138.405 74.591 137.821 73.569 138.201 72.6768L151.095 42.3983C151.511 41.4244 152.751 41.4855 153.164 42.5001L165.396 72.5898C165.74 73.4363 165.189 74.4177 164.384 74.4229L164.384 74.4223Z" fill="url(#paint8_linear_2_472)"/>
<path d="M115.477 149.659L106.624 147.601C105.509 147.743 104.603 146.892 104.603 145.7V90.7372C104.603 89.5449 105.51 88.5516 106.624 88.519L125.608 87.96C126.65 87.9291 135.48 88.4292 135.48 88.4292L127.493 142.855C127.493 144.004 115.477 149.659 115.477 149.659Z" fill="url(#paint9_linear_2_472)"/>
<path d="M137.001 90.3931V144.871C137.001 145.189 136.878 145.501 136.761 145.786C136.463 146.52 135.796 147.086 135.049 147.18L116.29 149.612C115.184 149.755 114.329 148.912 114.329 147.723V91.1482C114.329 89.9627 115.171 88.9739 116.276 88.9408L120.36 88.8185L135.092 88.3824C136.126 88.3492 137.001 89.2517 137.001 90.3937L137.001 90.3931Z" fill="url(#paint10_linear_2_472)"/>
<path d="M85.8116 153.513L76.4748 151.452C75.2484 151.609 74.2505 150.722 74.2505 149.471L74.5327 110.958C74.5327 109.707 75.53 108.634 76.7564 108.56L97.6131 107.316C98.7566 107.248 108.352 108.57 108.352 108.57L99.4055 146.345C99.4055 147.548 86.9688 153.363 85.8116 153.513Z" fill="url(#paint11_linear_2_472)"/>
<path d="M108.978 110.174V148.37C108.978 149.568 108.109 150.657 106.976 150.802L86.392 153.476C85.1793 153.634 84.2677 152.752 84.2677 151.508V111.767C84.2677 110.521 85.2028 109.453 86.4154 109.379L92.7905 108.991L106.989 108.132C108.123 108.064 108.978 108.979 108.978 110.174Z" fill="url(#paint12_linear_2_472)"/>
<path d="M51.9509 157.442L43.2122 155.702C41.8556 155.875 40.752 154.95 40.752 153.633V133.622C40.752 132.306 41.8556 131.139 43.2122 131.018L66.2457 128.943C67.5063 128.829 76.2342 129.852 76.2342 129.852L68.5253 150.183C68.5253 151.445 53.2298 157.277 51.9509 157.442Z" fill="url(#paint13_linear_2_472)"/>
<path d="M78.4088 131.92V152.222C78.4088 152.614 78.35 152.997 78.1769 153.341C77.7948 154.098 77.0711 154.676 76.2126 154.786L75.3364 154.898L53.3699 157.738C52.0275 157.911 50.896 156.991 50.896 155.681V134.518C50.896 133.208 52.0372 132.047 53.3796 131.925L56.299 131.66L60.5355 131.275L76.1795 129.85C77.4275 129.738 78.4083 130.664 78.4083 131.92L78.4088 131.92Z" fill="url(#paint14_linear_2_472)"/>
<path d="M31.8906 140.903L6.32842 143.544C5.23743 143.656 4.29553 144.344 3.85685 145.241C3.68949 145.583 3.59296 145.955 3.59296 146.339V157.336C3.59296 158.724 4.76677 159.861 6.32899 160.415L15.3619 162.211C16.7808 162.028 34.4159 155.749 34.4159 154.421L38.6525 149.322L42.9404 142.057C42.9404 142.057 33.2884 140.759 31.8918 140.903H31.8906Z" fill="url(#paint15_linear_2_472)"/>
<path d="M44.7819 144.264V156.471C44.7819 157.795 43.6344 159.01 42.251 159.189L36.7298 159.9L16.9241 162.461C15.4315 162.655 14.212 161.694 14.212 160.312V147.557C14.212 146.177 15.4235 144.931 16.9161 144.773L20.8014 144.368L42.2515 142.132C43.635 141.987 44.7814 142.943 44.7814 144.263L44.7819 144.264Z" fill="url(#paint16_linear_2_472)"/>
<path style="mix-blend-mode:multiply" opacity="0.3" d="M162.221 130.091V141.567C162.221 142.716 161.458 143.754 160.464 143.882L143.487 146.082C142.428 146.219 141.586 145.362 141.586 144.17V74.6854C144.388 74.8357 150.177 79.5101 148.294 94.4046C145.719 114.798 145.791 115.818 149.016 119.216C151.034 121.342 158.909 123.733 162.221 130.091Z" fill="url(#paint17_linear_2_472)"/>
<path style="mix-blend-mode:multiply" opacity="0.3" d="M136.705 145.786C136.407 146.52 135.767 147.086 135.021 147.181L116.275 149.613C115.17 149.756 114.328 148.912 114.328 147.724V91.1484C114.328 89.963 115.17 88.9742 116.275 88.941L120.359 88.8187C123.499 91.1765 124.445 94.5665 123.053 98.8875C118.085 114.31 118.835 122.956 122.061 126.354C124.804 129.243 138.34 132.623 136.705 145.787V145.786Z" fill="url(#paint18_linear_2_472)"/>
<path style="mix-blend-mode:multiply" opacity="0.3" d="M108.978 145.107V148.37C108.978 149.568 108.109 150.657 106.976 150.802L86.392 153.476C85.1793 153.635 84.2677 152.752 84.2677 151.508V111.768C84.2677 110.521 85.2028 109.453 86.4154 109.379L92.7905 108.991C99.7226 114.118 86.6456 126.863 94.9674 137.57C100.702 144.948 106.431 137.409 108.978 145.108V145.107Z" fill="url(#paint19_linear_2_472)"/>
<path style="mix-blend-mode:multiply" opacity="0.3" d="M75.3364 154.899L53.3699 157.739C52.0275 157.912 50.896 156.992 50.896 155.681V134.518C50.896 133.208 52.0372 132.048 53.3796 131.926L56.299 131.661C56.8593 134.488 57.9394 136.014 59.3811 137.534C62.0766 140.371 74.4265 143.647 75.3358 154.899H75.3364Z" fill="url(#paint20_linear_2_472)"/>
<path style="mix-blend-mode:multiply" opacity="0.3" d="M36.7144 159.9L16.9168 162.462C15.4242 162.656 14.2127 161.695 14.2127 160.313V147.557C14.2127 146.178 15.4242 144.931 16.9168 144.774L20.802 144.368C21.2659 145.161 21.8176 145.827 22.4494 146.492C24.7165 148.878 34.3554 151.603 36.7144 159.9Z" fill="url(#paint21_linear_2_472)"/>
<path d="M36.8717 53.7769C38.0826 54.392 39.6043 53.8272 40.2698 52.5149C40.9358 51.2026 40.4937 49.6405 39.2827 49.0249C39.2199 48.9929 39.1559 48.966 39.0919 48.9403C39.317 48.2144 39.4866 47.4823 39.6003 46.7506C39.67 46.7506 39.7391 46.7495 39.8099 46.7432C41.1917 46.6198 42.2884 45.3497 42.2592 43.9053C42.2301 42.4616 41.0866 41.3904 39.7048 41.5139C39.6329 41.5202 39.5615 41.5316 39.4912 41.5442C39.3467 40.8286 39.1491 40.1295 38.8995 39.4528C38.9629 39.4157 39.0263 39.3774 39.0879 39.3339C40.2698 38.5051 40.6479 36.8693 39.9322 35.6804C39.2165 34.4916 37.6777 34.1995 36.4953 35.0283C36.4347 35.0706 36.3776 35.1169 36.3216 35.1632C35.855 34.6465 35.3426 34.1681 34.7885 33.7314C34.8274 33.6674 34.8657 33.6028 34.8999 33.5348C35.5659 32.2224 36.4359 30.7895 35.2152 30.1928C32.3918 28.8136 31.1803 29.9945 30.5143 31.3062C30.48 31.3742 30.4503 31.4434 30.4217 31.5125C29.7426 31.3228 29.0543 31.1913 28.362 31.1193C28.3666 31.0462 28.3694 30.973 28.3683 30.8993C28.3392 29.4555 28.7676 28.6735 27.3807 28.6467C24.3562 28.5878 23.336 29.9013 23.3646 31.3457C23.3663 31.4211 23.3726 31.4948 23.38 31.568C22.6872 31.7657 22.0063 32.0184 21.3437 32.3242C21.3123 32.2596 21.2797 32.1956 21.242 32.1333C20.5263 30.9444 18.9875 30.6523 17.8051 31.4811C16.6228 32.3099 16.2452 33.9457 16.9609 35.1346C16.9975 35.1958 17.038 35.2523 17.0786 35.3089C16.5554 35.833 16.0647 36.4018 15.6117 37.0116C15.5529 36.975 15.4935 36.939 15.4312 36.907C14.2203 36.292 12.6986 36.8567 12.0332 38.1691C11.3672 39.4814 11.8093 41.0435 13.0202 41.6591C13.0831 41.6911 13.147 41.7179 13.211 41.7431C12.986 42.469 12.8163 43.2012 12.7026 43.9328C12.633 43.9328 12.5638 43.9339 12.493 43.9402C11.1113 44.0637 10.0146 45.3343 10.0437 46.778C10.0729 48.2218 11.2164 49.2929 12.5981 49.1695C12.6701 49.1632 12.7415 49.1518 12.8117 49.1392C12.9563 49.8548 13.1539 50.5539 13.4035 51.2306C13.3401 51.2678 13.2767 51.3061 13.215 51.3495C12.0326 52.1783 11.6551 53.8141 12.3708 55.003C13.0865 56.1918 15.457 56.7445 16.6388 55.9158C16.6993 55.8735 15.9248 55.5671 15.9813 55.5202C16.448 56.0369 16.9603 56.5153 17.5144 56.952C17.4756 57.016 17.4373 57.0806 17.403 57.1487C16.737 58.461 17.1791 60.0231 18.3901 60.6386C19.601 61.2537 21.1227 60.6889 21.7881 59.3766C21.8224 59.3086 21.8521 59.2395 21.8806 59.1703C22.5598 59.3601 23.2481 59.4915 23.9404 59.5635C23.9358 59.6367 23.9329 59.7098 23.9341 59.7836C23.9632 61.2274 25.1068 62.2985 26.4885 62.175C27.8702 62.0516 28.9669 60.781 28.9378 59.3372C28.9361 59.2618 28.9298 59.188 28.9224 59.1148C29.6152 58.9171 30.2961 58.6645 30.9587 58.3587C30.9901 58.4233 31.0226 58.4873 31.0603 58.549C31.7761 59.7379 33.3149 60.03 34.4972 59.2012C35.6796 58.3724 36.0572 56.7366 35.3415 55.5477C35.3049 55.4871 35.2644 55.43 35.2238 55.3739C35.747 54.8498 36.2377 54.2811 36.6906 53.6712C36.7495 53.7078 36.8089 53.7438 36.8711 53.7758L36.8717 53.7769ZM21.775 53.9685C17.3779 51.7348 15.7728 46.0613 18.1901 41.2973C20.6074 36.5332 26.1315 34.4818 30.5286 36.7155C34.9256 38.9492 36.5307 44.6227 34.1134 49.3867C31.6961 54.1508 26.172 56.2022 21.775 53.9685Z" fill="url(#paint22_linear_2_472)"/>
<path d="M39.81 46.7432C41.1917 46.6197 42.2884 45.3497 42.2593 43.9053C42.2301 42.4615 41.0866 41.3904 39.7049 41.5139C39.6329 41.5201 39.5615 41.5316 39.4912 41.5442C39.3467 40.8286 39.1491 40.1295 38.8995 39.4528C38.9629 39.4156 39.0263 39.3773 39.088 39.3339C40.2698 38.5051 41.7326 36.5029 40.8987 35.3935C39.3159 33.2884 37.6777 34.1994 36.4953 35.0282C36.4348 35.0705 36.3776 35.1168 36.3217 35.1631C35.855 34.6464 35.3426 34.168 34.7886 33.7313C34.8274 33.6673 34.8657 33.6027 34.9 33.5347C35.2621 32.8208 35.2941 32.0332 35.0547 31.3639C33.9129 33.3747 32.7865 35.394 31.6801 37.4242C35.1878 39.9963 36.3045 45.065 34.1123 49.3867C32.2542 53.0487 28.5608 55.1047 24.9543 54.8475C24.7932 55.2647 24.6355 55.6848 24.463 56.0981C23.9958 57.2201 23.4646 58.3192 22.9328 59.4166C23.2675 59.4795 23.6034 59.5292 23.9398 59.5646C23.9353 59.6378 23.9324 59.711 23.9335 59.7847C23.9627 61.2285 24.8389 62.4556 27.3424 62.3225C28.7276 62.2487 28.9658 60.7821 28.9367 59.3383C28.9349 59.2628 28.9287 59.1891 28.9212 59.116C29.6141 58.9182 30.295 58.6655 30.9576 58.3597C30.989 58.4243 31.0215 58.4884 31.0592 58.5501C31.7749 59.739 34.2585 60.2443 35.4409 59.4155C36.6233 58.5867 36.0561 56.7382 35.3403 55.5488C35.3038 55.4876 35.2632 55.431 35.2227 55.3745C35.7459 54.8503 36.2366 54.2816 36.6895 53.6717C36.7483 53.7083 36.8078 53.7443 36.87 53.7763C38.0809 54.3919 39.6026 53.8266 40.2681 52.5143C40.9341 51.202 40.492 49.6399 39.281 49.0243C39.2182 48.9923 39.1542 48.9654 39.0903 48.9403C39.3153 48.2144 39.485 47.4822 39.5986 46.7506C39.6683 46.7506 39.7374 46.7495 39.8082 46.7432H39.81Z" fill="url(#paint23_linear_2_472)"/>
<path d="M38.1745 53.925C39.3855 54.54 40.9071 53.9753 41.5726 52.663C42.2386 51.3507 41.7965 49.7886 40.5856 49.173C40.5227 49.141 40.4588 49.1141 40.3948 49.089C40.6198 48.3631 40.7895 47.6309 40.9031 46.8993C40.9728 46.8993 41.0419 46.8981 41.1128 46.8918C42.4945 46.7684 43.5912 45.4983 43.5621 44.054C43.5329 42.6102 42.3894 41.5391 41.0077 41.6625C40.9357 41.6688 40.8643 41.6803 40.794 41.6928C40.6495 40.9772 40.4519 40.2782 40.2023 39.6015C40.2657 39.5643 40.3291 39.526 40.3908 39.4826C41.5726 38.6538 41.9507 37.018 41.235 35.8291C40.5193 34.6402 38.9805 34.3481 37.7981 35.1769C37.7376 35.2192 37.6805 35.2655 37.6245 35.3118C37.1578 34.7951 36.6454 34.3167 36.0914 33.88C36.1302 33.816 36.1685 33.7514 36.2028 33.6834C36.8688 32.3711 36.4267 30.809 35.2157 30.1934C34.0048 29.5784 32.4831 30.1431 31.8177 31.4554C31.7834 31.5235 31.7537 31.5926 31.7252 31.6618C31.046 31.472 30.3577 31.3405 29.6654 31.2685C29.67 31.1954 29.6728 31.1222 29.6717 31.0485C29.6426 29.6047 28.499 28.5336 27.1173 28.657C25.7356 28.7805 24.6389 30.0511 24.668 31.4949C24.6697 31.5703 24.676 31.6441 24.6834 31.7172C23.9906 31.915 23.3097 32.1676 22.6471 32.4734C22.6157 32.4088 22.5831 32.3448 22.5454 32.2825C21.8297 31.0936 20.2909 30.8016 19.1086 31.6303C17.9262 32.4591 17.5486 34.0949 18.2643 35.2838C18.3009 35.345 18.3414 35.4015 18.382 35.4581C17.8588 35.9823 17.3681 36.551 16.9152 37.1608C16.8563 37.1243 16.7969 37.0883 16.7347 37.0562C15.5237 36.4412 14.002 37.006 13.3366 38.3183C12.6706 39.6306 13.1127 41.1927 14.3236 41.8083C14.3865 41.8403 14.4504 41.8672 14.5144 41.8929C14.2894 42.6188 14.1197 43.3509 14.006 44.0826C13.9364 44.0826 13.8667 44.0837 13.7964 44.09C12.4147 44.2135 11.318 45.4835 11.3471 46.9278C11.3763 48.3716 12.5198 49.4428 13.9015 49.3193C13.9735 49.313 14.0449 49.3016 14.1151 49.289C14.2597 50.0046 14.4573 50.7037 14.7069 51.3804C14.6435 51.4176 14.5801 51.4559 14.5184 51.4993C13.336 52.3281 12.9585 53.9639 13.6742 55.1528C14.3899 56.3416 15.9287 56.6337 17.1111 55.805C17.1716 55.7627 17.2287 55.7163 17.2847 55.67C17.7514 56.1867 18.2638 56.6651 18.8178 57.1018C18.779 57.1658 18.7407 57.2304 18.7064 57.2985C18.0404 58.6108 18.4825 60.1729 19.6935 60.7885C20.9044 61.4035 22.4261 60.8387 23.0915 59.5264C23.1258 59.4584 23.1555 59.3893 23.184 59.3201C23.8632 59.5099 24.5515 59.6413 25.2438 59.7134C25.2392 59.7865 25.2364 59.8596 25.2375 59.9334C25.2666 61.3772 26.4102 62.4483 27.7919 62.3248C29.1736 62.2014 30.2703 60.9314 30.2412 59.487C30.2395 59.4116 30.2332 59.3378 30.2258 59.2646C30.9186 59.0669 31.5995 58.8143 32.2621 58.5085C32.2935 58.5731 32.3261 58.6371 32.3638 58.6988C33.0795 59.8877 34.6183 60.1798 35.8006 59.351C36.983 58.5222 37.3606 56.8864 36.6449 55.6975C36.6083 55.6369 36.5678 55.5798 36.5272 55.5237C37.0504 54.9996 37.5411 54.4309 37.994 53.821C38.0529 53.8576 38.1123 53.8936 38.1745 53.9256V53.925ZM23.0778 54.1165C18.6807 51.8828 17.0757 46.2094 19.493 41.4453C21.9103 36.6813 27.4343 34.6299 31.8314 36.8636C36.2285 39.0973 37.8335 44.7708 35.4162 49.5348C32.9989 54.2989 27.4749 56.3502 23.0778 54.1165Z" fill="url(#paint24_linear_2_472)"/>
<path d="M52.8036 24.0573C53.6804 24.5025 54.7811 24.0939 55.2632 23.1439C55.7453 22.194 55.4254 21.0634 54.5486 20.6181C54.5029 20.5953 54.4567 20.5758 54.4104 20.557C54.5732 20.0317 54.696 19.5018 54.7783 18.972C54.8285 18.972 54.8788 18.9708 54.9302 18.9663C55.9304 18.8771 56.7238 17.9575 56.7032 16.9126C56.6821 15.8672 55.8544 15.0927 54.8548 15.1819C54.8023 15.1865 54.7514 15.1951 54.7 15.2042C54.5955 14.6864 54.4527 14.1805 54.2716 13.6907C54.3179 13.6638 54.3636 13.6358 54.4081 13.6044C55.2638 13.0048 55.5374 11.8205 55.0193 10.9603C54.5012 10.0995 53.3874 9.88858 52.5317 10.4882C52.4878 10.519 52.4466 10.5522 52.4061 10.5859C52.0679 10.2121 51.6978 9.86572 51.2962 9.54964C51.3242 9.50334 51.3522 9.45649 51.3768 9.40734C51.8589 8.45738 52.4883 7.41996 51.6047 6.98843C49.5609 5.98989 48.6842 6.84497 48.2026 7.79435C48.1775 7.8435 48.1564 7.89382 48.1352 7.94355C47.6434 7.80637 47.1454 7.71089 46.6444 7.65888C46.6478 7.6063 46.6501 7.55317 46.649 7.49944C46.6278 6.45461 46.938 5.88875 45.9338 5.86932C43.745 5.82645 43.0065 6.77754 43.0276 7.82237C43.0287 7.87724 43.0333 7.93039 43.0384 7.98354C42.5369 8.12644 42.044 8.30933 41.5648 8.53053C41.5419 8.48366 41.5185 8.43738 41.4911 8.3928C40.973 7.53201 39.8592 7.32109 39.0035 7.92066C38.1479 8.52024 37.8743 9.70455 38.3923 10.5648C38.4186 10.6088 38.4477 10.6499 38.4774 10.6905C38.0987 11.0694 37.7435 11.4816 37.4156 11.9228C37.3733 11.8959 37.3299 11.8702 37.2848 11.8474C36.408 11.4021 35.3073 11.8108 34.8252 12.7607C34.3431 13.7107 34.663 14.8413 35.5398 15.2865C35.5855 15.3094 35.6317 15.3288 35.678 15.3477C35.5152 15.8729 35.3924 16.4028 35.3101 16.9326C35.2599 16.9326 35.2096 16.9338 35.1582 16.9383C34.158 17.0275 33.3647 17.9472 33.3852 18.992C33.4064 20.0374 34.234 20.8119 35.2336 20.7227C35.2856 20.7181 35.337 20.7096 35.3884 20.701C35.4929 21.2188 35.6357 21.7247 35.8168 22.2145C35.7705 22.2414 35.7248 22.2694 35.6803 22.3008C34.8246 22.9004 34.551 24.0847 35.0691 24.9449C35.5872 25.8057 37.3025 26.2052 38.1581 25.6057C38.2021 25.5748 37.6412 25.353 37.6823 25.3193C38.0205 25.6931 38.3906 26.0395 38.7922 26.3556C38.7642 26.4019 38.7362 26.4487 38.7116 26.4979C38.2295 27.4478 38.55 28.5784 39.4262 29.0236C40.303 29.4689 41.4037 29.0602 41.8858 28.1103C41.9109 28.0611 41.932 28.0108 41.9532 27.9611C42.445 28.0983 42.9431 28.1937 43.444 28.2457C43.4411 28.2983 43.4383 28.3515 43.4394 28.4052C43.4606 29.45 44.2882 30.2251 45.2878 30.1359C46.288 30.0467 47.0814 29.1271 47.0608 28.0823C47.0597 28.0274 47.0551 27.9742 47.05 27.9211C47.5515 27.7782 48.0444 27.5953 48.5237 27.3741C48.5465 27.421 48.5699 27.4673 48.5973 27.5118C49.1154 28.3726 50.2292 28.5835 51.0849 27.984C51.9406 27.3844 52.2142 26.2001 51.6961 25.3399C51.6698 25.2959 51.6407 25.2547 51.611 25.2141C51.9897 24.8352 52.345 24.4231 52.6728 23.9818C52.7151 24.0087 52.7585 24.0344 52.8036 24.0573ZM41.8772 24.1961C38.6945 22.5792 37.5333 18.4736 39.2828 15.0253C41.0324 11.577 45.0308 10.0926 48.2129 11.7096C51.3951 13.3266 52.5569 17.4322 50.8073 20.8805C49.0577 24.3288 45.0593 25.8131 41.8772 24.1961Z" fill="url(#paint25_linear_2_472)"/>
<path d="M54.9301 18.9667C55.9303 18.8775 56.7237 17.9578 56.7031 16.913C56.682 15.8682 55.8543 15.0931 54.8547 15.1823C54.8022 15.1869 54.7513 15.1954 54.6999 15.2046C54.5954 14.6867 54.4526 14.1809 54.2715 13.6911C54.3178 13.6642 54.3635 13.6362 54.408 13.6048C55.2637 13.0052 56.3221 11.5557 55.7184 10.7532C54.5725 9.22938 53.3873 9.88897 52.5317 10.4891C52.4877 10.52 52.4466 10.5532 52.406 10.5869C52.0678 10.2131 51.6977 9.86668 51.2962 9.5506C51.3241 9.50431 51.3521 9.45745 51.3767 9.4083C51.6389 8.8916 51.6623 8.32173 51.4887 7.83704C50.6621 9.29226 49.847 10.7538 49.0462 12.2233C51.5852 14.0849 52.3934 17.7538 50.8066 20.8814C49.462 23.5318 46.7888 25.0202 44.1785 24.8339C44.0619 25.1362 43.9477 25.4397 43.8232 25.7392C43.485 26.5514 43.1006 27.3465 42.7156 28.141C42.9578 28.1867 43.2006 28.2227 43.4445 28.2478C43.4416 28.3004 43.4388 28.3536 43.4399 28.4073C43.461 29.4521 44.0951 30.3404 45.9075 30.2444C46.9099 30.1912 47.0824 29.1298 47.0613 28.0844C47.0602 28.0295 47.0556 27.9763 47.0505 27.9232C47.552 27.7803 48.0449 27.5974 48.5241 27.3762C48.547 27.4231 48.5704 27.4694 48.5978 27.514C49.1159 28.3747 50.9135 28.74 51.7691 28.1404C52.6248 27.5408 52.2141 26.2028 51.696 25.342C51.6697 25.298 51.6406 25.2568 51.6109 25.2162C51.9896 24.8373 52.3443 24.4252 52.6722 23.9839C52.7144 24.0108 52.7579 24.0365 52.803 24.0594C53.6798 24.5046 54.7805 24.096 55.2626 23.146C55.7446 22.1966 55.4248 21.0655 54.548 20.6202C54.5023 20.5974 54.456 20.5779 54.4098 20.5591C54.5725 20.0338 54.6954 19.5039 54.7776 18.9741C54.8279 18.9741 54.8781 18.973 54.9295 18.9684L54.9301 18.9667Z" fill="url(#paint26_linear_2_472)"/>
<path d="M53.7467 24.1647C54.6229 24.61 55.7242 24.2013 56.2062 23.2514C56.6883 22.3014 56.3685 21.1708 55.4917 20.7256C55.446 20.7027 55.3997 20.6833 55.3534 20.6644C55.5162 20.1391 55.639 19.6093 55.7213 19.0794C55.7716 19.0794 55.8218 19.0783 55.8732 19.0737C56.8734 18.9846 57.6668 18.0649 57.6462 17.0201C57.6251 15.9747 56.7974 15.2002 55.7978 15.2893C55.7453 15.2939 55.6944 15.3025 55.643 15.3116C55.5385 14.7938 55.3957 14.288 55.2146 13.7981C55.2609 13.7713 55.3066 13.7433 55.3512 13.7118C56.2068 13.1123 56.4804 11.9279 55.9623 11.0677C55.4443 10.2075 54.3304 9.99605 53.4748 10.5956C53.4308 10.6265 53.3897 10.6596 53.3491 10.6934C53.011 10.3196 52.6408 9.97319 52.2398 9.65711C52.2678 9.61082 52.2958 9.56393 52.3204 9.51478C52.8025 8.56483 52.4826 7.43426 51.6058 6.98901C50.729 6.54376 49.6283 6.95243 49.1462 7.90238C49.1211 7.95153 49.1 8.00125 49.0788 8.05155C48.587 7.91437 48.089 7.81892 47.588 7.76691C47.5909 7.71433 47.5937 7.66117 47.5926 7.60744C47.5715 6.56261 46.7438 5.78757 45.7442 5.87673C44.744 5.9659 43.9506 6.88554 43.9712 7.93037C43.9723 7.98524 43.9769 8.03842 43.982 8.09157C43.4805 8.23447 42.9876 8.41737 42.5084 8.63914C42.4855 8.59227 42.4621 8.54597 42.4347 8.50138C41.9166 7.6406 40.8028 7.4297 39.9471 8.02928C39.0915 8.62886 38.8179 9.81314 39.3359 10.6734C39.3622 10.7174 39.3913 10.7585 39.421 10.7991C39.0423 11.1781 38.6871 11.5901 38.3592 12.0314C38.3169 12.0045 38.2741 11.9788 38.2284 11.956C37.3516 11.5107 36.2509 11.9194 35.7688 12.8693C35.2867 13.8193 35.6066 14.9498 36.4834 15.3951C36.5291 15.418 36.5753 15.4374 36.6216 15.4563C36.4588 15.9815 36.336 16.5114 36.2538 17.0412C36.2035 17.0412 36.1532 17.0424 36.1018 17.0469C35.1017 17.1361 34.3083 18.0558 34.3288 19.1006C34.35 20.146 35.1776 20.9205 36.1772 20.8313C36.2292 20.8268 36.2806 20.8182 36.332 20.8096C36.4365 21.3274 36.5793 21.8333 36.7604 22.3231C36.7141 22.35 36.6684 22.378 36.6239 22.4094C35.7682 23.009 35.4946 24.1933 36.0127 25.0535C36.5308 25.9143 37.6446 26.1252 38.5003 25.5256C38.5443 25.4948 38.5854 25.4616 38.6259 25.4279C38.9641 25.8017 39.3342 26.1481 39.7352 26.4642C39.7072 26.5104 39.6792 26.5573 39.6547 26.6065C39.1726 27.5564 39.4924 28.687 40.3692 29.1323C41.2454 29.5775 42.3467 29.1688 42.8288 28.2189C42.8539 28.1697 42.8751 28.12 42.8962 28.0697C43.388 28.2069 43.8861 28.3023 44.387 28.3543C44.3842 28.4069 44.3813 28.4601 44.3825 28.5138C44.4036 29.5586 45.2313 30.3337 46.2309 30.2445C47.231 30.1554 48.0244 29.2357 48.0038 28.1909C48.0027 28.136 47.9981 28.0828 47.993 28.0297C48.4945 27.8868 48.9875 27.7039 49.4667 27.4827C49.4895 27.5296 49.513 27.5759 49.5404 27.6204C50.0584 28.4812 51.1723 28.6921 52.0279 28.0925C52.8836 27.493 53.1572 26.3087 52.6391 25.4485C52.6123 25.4045 52.5837 25.3633 52.554 25.3227C52.9327 24.9438 53.288 24.5317 53.6159 24.0904C53.6581 24.1173 53.7015 24.143 53.7467 24.1659V24.1647ZM42.8202 24.3036C39.6381 22.6866 38.4763 18.581 40.2259 15.1328C41.9754 11.6845 45.9738 10.2001 49.156 11.8171C52.3381 13.434 53.4999 17.5396 51.7503 20.9879C50.0008 24.4362 46.0024 25.9206 42.8202 24.3036Z" fill="url(#paint27_linear_2_472)"/>
<path d="M80.0104 83.0357C80.0104 83.0357 80.0104 81.3393 79.5558 80.7186C79.1011 80.0979 78.2329 79.8143 78.1089 79.3148C77.985 78.8152 79.5558 79.9321 80.135 80.1807C80.7136 80.4288 83.8546 78.7449 84.1453 78.5672C84.8896 78.1122 83.8557 79.9327 82.7807 80.4705C81.7058 81.0084 81.1271 81.0495 81.1271 81.0495L81.4162 83.0351H80.0104V83.0357Z" fill="url(#paint28_linear_2_472)"/>
<path d="M52.8112 78.5086C54.2809 77.0591 57.0844 77.2809 58.7723 77.8307C61.9464 78.8653 62.1989 81.3957 66.9324 85.1789C69.2012 86.9919 70.3676 87.8984 71.9452 87.8904C75.8076 87.8698 78.434 82.4188 78.8544 81.5191C80.1179 81.7072 81.3808 81.8958 82.6443 82.0838C83.2435 88.7043 79.5747 94.915 73.7062 97.3802C64.6739 101.174 56.9364 93.3609 56.6046 93.0145C52.4291 88.6523 50.1529 81.1304 52.8112 78.5092V78.5086Z" fill="url(#paint29_linear_2_472)"/>
<path d="M40.2385 164.873C39.9529 165.136 39.9352 165.749 39.9232 166.15C39.9181 166.33 39.9152 166.419 39.9392 166.48C40.1123 166.931 41.0051 166.925 42.4096 166.982C44.6287 167.072 45.2953 167.206 45.4478 166.867C45.5906 166.549 45.1685 166.069 45.1211 166.016C44.8658 165.732 44.5682 165.641 43.9947 165.49C42.9334 165.212 42.2188 165.067 42.0024 165.023C40.6515 164.749 40.4259 164.699 40.2379 164.872L40.2385 164.873Z" fill="url(#paint30_linear_2_472)"/>
<path d="M41.7945 162.658L41.8813 165.186C41.8122 165.304 41.0456 165.629 40.4687 165.285L40.0329 162.782L41.7945 162.659V162.658Z" fill="url(#paint31_linear_2_472)"/>
<path d="M58.9304 164.52C58.5488 164.899 58.4277 165.628 58.7219 166.006C59.0109 166.377 59.4884 166.135 60.7993 166.245C62.2039 166.362 62.5535 166.714 63.5234 166.501C63.9152 166.414 64.6109 166.191 64.6126 165.915C64.6138 165.72 64.2722 165.602 63.1327 165.151C61.5156 164.512 61.5247 164.482 61.178 164.405C60.3075 164.213 59.4336 164.02 58.9298 164.52H58.9304Z" fill="url(#paint32_linear_2_472)"/>
<path d="M59.9539 162.272L60.5348 164.658C60.4749 164.781 59.7352 165.164 59.1337 164.865L58.2072 162.529L59.9545 162.272H59.9539Z" fill="url(#paint33_linear_2_472)"/>
<path d="M56.4205 110.501C56.1018 118.399 56.1681 127.303 56.9472 137.013C57.7166 146.61 59.0475 155.317 60.5966 162.992C59.6832 163.186 58.7704 163.38 57.8571 163.575C55.6865 161.322 52.9836 157.814 51.8458 152.999C51.1392 150.011 51.5077 148.515 51.1524 144.867C50.5875 139.058 48.983 135.945 47.4053 131.201C45.9882 126.939 44.3757 120.707 43.7725 112.461C47.9885 111.807 52.2045 111.154 56.4205 110.5V110.501Z" fill="url(#paint34_linear_2_472)"/>
<path style="mix-blend-mode:multiply" opacity="0.3" d="M55.1655 147.413C54.1591 143.429 52.2221 142.375 52.1525 138.614C52.1033 135.954 53.0584 135.737 52.995 133.19C52.8979 129.327 50.6365 127.302 49.4998 124.873C48.2997 122.307 47.8393 118.185 51.0712 111.329C48.6379 111.707 46.2052 112.084 43.7719 112.461C44.375 120.707 45.9875 126.938 47.4047 131.201C48.9817 135.945 50.5868 139.058 51.1517 144.866C51.5064 148.515 51.1386 150.011 51.8451 152.999C52.9835 157.814 55.6859 161.322 57.8564 163.574C58.0889 163.525 58.3208 163.475 58.5533 163.426C56.2068 160.624 55.3786 158.122 55.1678 156.091C54.8245 152.788 56.1805 151.43 55.1661 147.413L55.1655 147.413Z" fill="url(#paint35_linear_2_472)"/>
<path d="M47.2934 110.009C46.2087 120.018 45.2114 130.219 44.3146 140.607C43.6418 148.402 43.0426 156.103 42.5119 163.704C41.5866 163.769 40.6607 163.834 39.7354 163.898C38.9351 162.196 37.8892 159.602 37.2535 156.315C36.4812 152.323 36.8331 149.995 36.6195 145.889C36.3801 141.283 35.7313 140.248 34.7951 134.405C32.8953 122.546 31.9454 116.616 34.9539 113.119C35.9306 111.984 38.9528 109.167 47.2934 110.008V110.009Z" fill="url(#paint36_linear_2_472)"/>
<path d="M23.3157 78.8891C28.3154 77.1921 35.9443 75.3105 45.2748 75.6935C50.6801 75.9152 55.3273 76.8423 59.0093 77.874C59.5079 80.6598 60.006 83.4463 60.5041 86.2321C60.6189 89.0254 60.6566 92.8097 60.3436 97.2806C60.0306 101.751 59.7238 101.819 59.0064 108.13C57.8366 118.419 58.3273 121.107 56.2612 122.343C54.9172 123.148 54.4311 122.177 47.5716 121.498C42.9723 121.042 40.6253 120.831 38.2959 121.62C35.1247 122.695 34.0634 124.498 32.7553 123.912C31.5004 123.349 31.3405 121.182 31.188 117.403C30.9532 111.573 30.9669 107.611 30.9452 106.192C30.8453 99.6851 29.1974 94.7165 27.0874 88.3532C25.7673 84.3733 24.3776 81.1525 23.3157 78.8885V78.8891Z" fill="url(#paint37_linear_2_472)"/>
<path d="M44.6558 69.2471C44.5827 70.8835 44.3313 72.1707 44.1114 73.0497C43.8595 74.0569 43.7036 74.3123 43.5105 74.5158C43.2198 74.8222 42.7908 75.0697 40.4181 75.5264C39.1266 75.7744 38.9632 75.7573 38.9284 75.8824C38.7582 76.4923 42.1219 78.782 45.7388 78.4659C47.9527 78.2728 50.0187 77.1244 49.9308 76.4591C49.8422 75.7893 47.6288 76.0282 47.0382 74.7942C46.6275 73.9357 47.2004 72.7782 47.8556 71.8294C47.3295 70.7034 45.1813 70.3736 44.6552 69.2476L44.6558 69.2471Z" fill="url(#paint38_linear_2_472)"/>
<path d="M48.6999 70.1109C49.2551 69.449 49.3511 68.2476 48.7942 67.4548C48.315 66.7729 47.5107 66.6363 47.0292 66.5546C45.6338 66.3179 43.8316 66.8095 43.1468 68.0698C42.7412 68.8163 43.4461 70.4504 43.5546 70.7436C43.6774 71.0746 43.9253 71.1992 44.1475 71.4564C44.4548 71.8131 44.9358 72.3795 45.7194 73.3266C45.7983 73.0636 45.9142 72.7396 46.089 72.3903C46.1564 72.256 46.4266 71.7319 46.815 71.306C47.5941 70.4521 48.1739 70.7385 48.6999 70.1115V70.1109Z" fill="url(#paint39_linear_2_472)"/>
<path d="M44.573 72.5038C44.573 72.5038 45.4155 74.0682 47.2593 74.0465C48.9101 74.0271 49.3476 70.3479 48.3383 69.5088C48.0013 69.2288 47.305 69.083 46.7258 69.2128C46.3837 69.2894 46.262 69.4237 45.7005 69.5374C45.1824 69.6432 45.0414 69.5785 44.8803 69.7003C44.6786 69.8523 44.5164 70.2433 44.7809 71.3396C44.4839 71.0052 44.1137 70.8629 43.8401 70.9749C43.7967 70.9926 43.6796 71.0635 43.6099 71.1767C43.3575 71.5859 43.7139 72.1449 44.5735 72.5045L44.573 72.5038Z" fill="url(#paint40_linear_2_472)"/>
<path d="M44.8175 69.4751C44.8935 69.5386 44.6353 69.8215 44.5953 70.2399C44.5171 71.0515 45.2882 72.0723 46.1233 72.1998C46.6173 72.2752 46.7693 71.9832 47.5947 71.9397C48.1059 71.9129 48.5251 72.0003 48.7885 72.0729C48.9987 72.9788 48.7091 73.8562 48.091 74.2368C47.4256 74.6472 46.6202 74.334 46.2832 74.2026C46.0581 74.1151 45.3362 73.8356 44.9877 73.1411C44.625 72.417 45.0403 72.0146 44.6062 71.515C44.3874 71.263 44.0887 71.143 43.8173 70.6634C43.7437 70.5331 43.6957 70.4188 43.6671 70.3422C44.1155 69.9146 44.7073 69.3837 44.8175 69.4751Z" fill="url(#paint41_linear_2_472)"/>
<path d="M48.1732 72.3726C48.1732 72.3726 47.8082 72.5396 47.1959 72.4721C47.1661 72.4687 47.1324 72.4756 47.1279 72.491C47.1107 72.5487 47.4906 72.8311 47.859 72.7482C48.1206 72.6893 48.3342 72.4561 48.3028 72.3921C48.2897 72.3652 48.2309 72.3652 48.1732 72.3726Z" fill="url(#paint42_linear_2_472)"/>
<path style="mix-blend-mode:multiply" opacity="0.3" d="M53.5948 118.966C50.2207 117.526 50.2402 114.545 47.0889 113.302C42.5924 111.527 37.6258 115.652 36.8496 114.509C36.0425 113.319 41.9744 109.669 41.1844 106.07C40.5567 103.21 36.4155 103.718 34.1964 99.8033C32.0915 96.0898 34.1307 92.6558 32.2674 91.3657C31.5991 90.9028 30.4208 90.7205 28.1857 91.7053C29.745 96.5751 30.8629 100.869 30.9451 106.193C30.9668 107.611 30.9531 111.574 31.1879 117.403C31.3404 121.182 31.5003 123.35 32.7552 123.912C34.0639 124.499 35.1246 122.695 38.2959 121.621C40.6246 120.831 42.9722 121.043 47.5715 121.498C54.4305 122.177 54.9171 123.148 56.2611 122.344C57.1362 121.82 57.5526 121.033 57.8308 119.521C56.4559 119.669 54.9971 119.565 53.5942 118.966L53.5948 118.966Z" fill="url(#paint43_linear_2_472)"/>
<path d="M47.7625 91.68L33.9453 92.8404C33.7996 92.8524 33.6842 92.9575 33.6528 93.105L29.7327 111.741C29.6767 112.007 30.0371 112.683 30.2942 112.657L43.5928 110.886C43.7339 110.872 43.8435 110.775 43.8767 110.634L48.4554 92.4751C48.5188 92.2048 48.0407 91.6572 47.7619 91.6807L47.7625 91.68Z" fill="url(#paint44_linear_2_472)"/>
<path d="M48.0526 92.1396L34.2102 93.2827C34.0645 93.2947 33.9486 93.3994 33.9171 93.5474L29.9924 112.201C29.9365 112.468 30.1701 112.749 30.4277 112.722L43.8782 111.364C44.0199 111.35 44.1296 111.252 44.1621 111.112L48.5084 92.662C48.5718 92.3917 48.3313 92.1162 48.052 92.139L48.0526 92.1396Z" fill="url(#paint45_linear_2_472)"/>
<path d="M44.2314 93.0139L44.5707 91.4758C44.6015 91.3369 44.4827 91.1963 44.3405 91.2026L39.2562 91.4352C39.17 91.4392 39.1015 91.501 39.0866 91.5873L38.8016 93.258C38.7782 93.3951 38.8958 93.5289 39.0318 93.5186L44.0652 93.1574C44.148 93.1517 44.2137 93.0945 44.2319 93.0133L44.2314 93.0139Z" fill="url(#paint46_linear_2_472)"/>
<g style="mix-blend-mode:soft-light" opacity="0.3">
<path d="M37.6382 108.232C38.1351 105.168 36.4152 103.195 37.5999 100.814C39.2849 97.4271 44.119 98.7309 45.2139 95.9531C45.5098 95.2026 45.5487 94.0972 44.7793 92.4099L48.0528 92.1401C48.3321 92.1173 48.5726 92.3922 48.5092 92.6625L44.1629 111.113C44.1298 111.253 44.0201 111.35 43.8791 111.364L35.5801 112.203C36.8756 110.854 37.4371 109.478 37.6393 108.233L37.6382 108.232Z" fill="white"/>
</g>
<path d="M28.1863 106.401C28.1863 106.401 29.6537 106.309 29.7268 106.138C29.8005 105.967 31.4038 104.468 31.3513 104.941C31.2987 105.414 31.0177 106.237 31.1148 106.322C31.2114 106.408 34.0456 105.677 34.5192 105.296C34.9921 104.915 34.979 106.953 34.2433 107.69C33.507 108.427 32.0219 108.519 31.036 108.584C30.0501 108.65 28.1069 108.293 27.8561 108.405C28.2663 107.56 28.1863 106.401 28.1863 106.401Z" fill="url(#paint47_linear_2_472)"/>
<path d="M28.4347 105.619C28.5507 106.978 28.2554 107.901 27.7619 108.533C25.5748 111.339 18.1395 110.193 13.7196 106.437C10.4483 103.656 8.71532 99.3379 8.77872 95.4684C8.9021 87.918 15.8935 80.5179 26.295 77.9601C27.8356 82.5658 29.3761 86.3856 30.9166 90.9907C24.5038 91.0896 20.6082 96.7139 21.1868 100.167C21.6175 102.739 24.6169 105.053 28.4342 105.618L28.4347 105.619Z" fill="url(#paint48_linear_2_472)"/>
<defs>
<linearGradient id="paint0_linear_2_472" x1="77.7025" y1="48.1605" x2="39.555" y2="60.3953" gradientUnits="userSpaceOnUse">
<stop stop-color="#BDC0C5"/>
<stop offset="0.02" stop-color="#BFC2C7"/>
<stop offset="0.12" stop-color="#C7CACF"/>
<stop offset="0.32" stop-color="#CACDD2"/>
<stop offset="0.45" stop-color="#BFC5D1"/>
<stop offset="0.68" stop-color="#A2B2CF"/>
<stop offset="0.87" stop-color="#87A1CE"/>
<stop offset="1" stop-color="#87A1CE"/>
</linearGradient>
<linearGradient id="paint1_linear_2_472" x1="108.558" y1="10.168" x2="74.4691" y2="85.3248" gradientUnits="userSpaceOnUse">
<stop stop-color="#D9DDE2"/>
<stop offset="1" stop-color="#E8EBEC"/>
</linearGradient>
<linearGradient id="paint2_linear_2_472" x1="102.294" y1="89.5434" x2="95.7153" y2="53.6279" gradientUnits="userSpaceOnUse">
<stop stop-color="#BDC0C5"/>
<stop offset="0.02" stop-color="#BFC2C7"/>
<stop offset="0.12" stop-color="#C7CACF"/>
<stop offset="0.32" stop-color="#CACDD2"/>
<stop offset="0.45" stop-color="#BFC5D1"/>
<stop offset="0.68" stop-color="#A2B2CF"/>
<stop offset="0.87" stop-color="#87A1CE"/>
<stop offset="1" stop-color="#87A1CE"/>
</linearGradient>
<linearGradient id="paint3_linear_2_472" x1="88.3639" y1="31.4076" x2="115.47" y2="88.9111" gradientUnits="userSpaceOnUse">
<stop stop-color="#BDC0C5"/>
<stop offset="0.02" stop-color="#BFC2C7"/>
<stop offset="0.12" stop-color="#C7CACF"/>
<stop offset="0.32" stop-color="#CACDD2"/>
<stop offset="0.45" stop-color="#BFC5D1"/>
<stop offset="0.68" stop-color="#A2B2CF"/>
<stop offset="0.87" stop-color="#87A1CE"/>
<stop offset="1" stop-color="#87A1CE"/>
</linearGradient>
<linearGradient id="paint4_linear_2_472" x1="87.2848" y1="19.0304" x2="100.917" y2="70.0872" gradientUnits="userSpaceOnUse">
<stop stop-color="#D9DDE2"/>
<stop offset="1" stop-color="#E8EBEC"/>
</linearGradient>
<linearGradient id="paint5_linear_2_472" x1="80.3974" y1="35.1296" x2="107.449" y2="92.5171" gradientUnits="userSpaceOnUse">
<stop stop-color="#BDC0C5"/>
<stop offset="0.02" stop-color="#BFC2C7"/>
<stop offset="0.12" stop-color="#C7CACF"/>
<stop offset="0.32" stop-color="#CACDD2"/>
<stop offset="0.45" stop-color="#BFC5D1"/>
<stop offset="0.68" stop-color="#A2B2CF"/>
<stop offset="0.87" stop-color="#87A1CE"/>
<stop offset="1" stop-color="#87A1CE"/>
</linearGradient>
<linearGradient id="paint6_linear_2_472" x1="161.1" y1="156.277" x2="135.833" y2="70.8448" gradientUnits="userSpaceOnUse">
<stop stop-color="#142344"/>
<stop offset="1" stop-color="#3C5D84"/>
</linearGradient>
<linearGradient id="paint7_linear_2_472" x1="140.079" y1="133.679" x2="136.761" y2="107.297" gradientUnits="userSpaceOnUse">
<stop stop-color="#142344"/>
<stop offset="1" stop-color="#3C5D84"/>
</linearGradient>
<linearGradient id="paint8_linear_2_472" x1="151.332" y1="85.6726" x2="141.942" y2="258.491" gradientUnits="userSpaceOnUse">
<stop stop-color="#90ACD7"/>
<stop offset="1" stop-color="#6B86B7"/>
</linearGradient>
<linearGradient id="paint9_linear_2_472" x1="134.611" y1="166.553" x2="109.357" y2="81.161" gradientUnits="userSpaceOnUse">
<stop stop-color="#142344"/>
<stop offset="1" stop-color="#3C5D84"/>
</linearGradient>
<linearGradient id="paint10_linear_2_472" x1="127.491" y1="84.3236" x2="118.11" y2="256.973" gradientUnits="userSpaceOnUse">
<stop stop-color="#90ACD7"/>
<stop offset="1" stop-color="#6B86B7"/>
</linearGradient>
<linearGradient id="paint11_linear_2_472" x1="105.643" y1="177.739" x2="80.1964" y2="91.6997" gradientUnits="userSpaceOnUse">
<stop stop-color="#142344"/>
<stop offset="1" stop-color="#3C5D84"/>
</linearGradient>
<linearGradient id="paint12_linear_2_472" x1="99.1925" y1="82.7185" x2="89.8178" y2="255.254" gradientUnits="userSpaceOnUse">
<stop stop-color="#90ACD7"/>
<stop offset="1" stop-color="#6B86B7"/>
</linearGradient>
<linearGradient id="paint13_linear_2_472" x1="72.5968" y1="189.655" x2="47.3412" y2="104.26" gradientUnits="userSpaceOnUse">
<stop stop-color="#142344"/>
<stop offset="1" stop-color="#3C5D84"/>
</linearGradient>
<linearGradient id="paint14_linear_2_472" x1="68.037" y1="81.0124" x2="58.6755" y2="253.31" gradientUnits="userSpaceOnUse">
<stop stop-color="#90ACD7"/>
<stop offset="1" stop-color="#6B86B7"/>
</linearGradient>
<linearGradient id="paint15_linear_2_472" x1="43.0593" y1="216.886" x2="11.7692" y2="111.086" gradientUnits="userSpaceOnUse">
<stop stop-color="#142344"/>
<stop offset="1" stop-color="#3C5D84"/>
</linearGradient>
<linearGradient id="paint16_linear_2_472" x1="33.4517" y1="79.1384" x2="24.1055" y2="251.149" gradientUnits="userSpaceOnUse">
<stop stop-color="#90ACD7"/>
<stop offset="1" stop-color="#6B86B7"/>
</linearGradient>
<linearGradient id="paint17_linear_2_472" x1="167.541" y1="36.1873" x2="126.331" y2="225.883" gradientUnits="userSpaceOnUse">
<stop stop-color="#90ACD7"/>
<stop offset="1" stop-color="#6B86B7"/>
</linearGradient>
<linearGradient id="paint18_linear_2_472" x1="139.338" y1="54.6296" x2="103.535" y2="219.434" gradientUnits="userSpaceOnUse">
<stop stop-color="#90ACD7"/>
<stop offset="1" stop-color="#6B86B7"/>
</linearGradient>
<linearGradient id="paint19_linear_2_472" x1="106.727" y1="83.4982" x2="80.0738" y2="206.187" gradientUnits="userSpaceOnUse">
<stop stop-color="#90ACD7"/>
<stop offset="1" stop-color="#6B86B7"/>
</linearGradient>
<linearGradient id="paint20_linear_2_472" x1="68.9384" y1="117.753" x2="53.3738" y2="189.395" gradientUnits="userSpaceOnUse">
<stop stop-color="#90ACD7"/>
<stop offset="1" stop-color="#6B86B7"/>
</linearGradient>
<linearGradient id="paint21_linear_2_472" x1="29.6213" y1="134.436" x2="18.5491" y2="185.403" gradientUnits="userSpaceOnUse">
<stop stop-color="#90ACD7"/>
<stop offset="1" stop-color="#6B86B7"/>
</linearGradient>
<linearGradient id="paint22_linear_2_472" x1="66.101" y1="56.5033" x2="28.2824" y2="45.8085" gradientUnits="userSpaceOnUse">
<stop stop-color="#142344"/>
<stop offset="1" stop-color="#515F85"/>
</linearGradient>
<linearGradient id="paint23_linear_2_472" x1="66.0022" y1="56.8537" x2="28.183" y2="46.1588" gradientUnits="userSpaceOnUse">
<stop stop-color="#142344"/>
<stop offset="1" stop-color="#515F85"/>
</linearGradient>
<linearGradient id="paint24_linear_2_472" x1="27.2949" y1="32.5906" x2="27.8869" y2="80.3739" gradientUnits="userSpaceOnUse">
<stop stop-color="#ACAFB4"/>
<stop offset="1" stop-color="#AAADB2"/>
</linearGradient>
<linearGradient id="paint25_linear_2_472" x1="73.9591" y1="26.0309" x2="46.5869" y2="18.2903" gradientUnits="userSpaceOnUse">
<stop stop-color="#142344"/>
<stop offset="1" stop-color="#515F85"/>
</linearGradient>
<linearGradient id="paint26_linear_2_472" x1="73.887" y1="26.2845" x2="46.5149" y2="18.5434" gradientUnits="userSpaceOnUse">
<stop stop-color="#142344"/>
<stop offset="1" stop-color="#515F85"/>
</linearGradient>
<linearGradient id="paint27_linear_2_472" x1="45.8721" y1="8.72373" x2="46.3011" y2="43.3078" gradientUnits="userSpaceOnUse">
<stop stop-color="#ACAFB4"/>
<stop offset="1" stop-color="#AAADB2"/>
</linearGradient>
<linearGradient id="paint28_linear_2_472" x1="80.9655" y1="78.059" x2="83.2404" y2="84.9988" gradientUnits="userSpaceOnUse">
<stop stop-color="#CACDD2"/>
<stop offset="1" stop-color="#96999D"/>
</linearGradient>
<linearGradient id="paint29_linear_2_472" x1="66.9838" y1="19.1349" x2="67.4047" y2="149.606" gradientUnits="userSpaceOnUse">
<stop stop-color="#8195C2"/>
<stop offset="1" stop-color="#56729A"/>
</linearGradient>
<linearGradient id="paint30_linear_2_472" x1="45.4337" y1="165.675" x2="39.9513" y2="166.17" gradientUnits="userSpaceOnUse">
<stop stop-color="#355178"/>
<stop offset="1" stop-color="#262648"/>
</linearGradient>
<linearGradient id="paint31_linear_2_472" x1="42.2421" y1="165.889" x2="39.4824" y2="161.068" gradientUnits="userSpaceOnUse">
<stop stop-color="#CACDD2"/>
<stop offset="1" stop-color="#96999D"/>
</linearGradient>
<linearGradient id="paint32_linear_2_472" x1="64.4169" y1="164.728" x2="58.703" y2="165.976" gradientUnits="userSpaceOnUse">
<stop stop-color="#355178"/>
<stop offset="1" stop-color="#262648"/>
</linearGradient>
<linearGradient id="paint33_linear_2_472" x1="60.8859" y1="165.46" x2="57.6998" y2="160.768" gradientUnits="userSpaceOnUse">
<stop stop-color="#CACDD2"/>
<stop offset="1" stop-color="#96999D"/>
</linearGradient>
<linearGradient id="paint34_linear_2_472" x1="62.9882" y1="155.117" x2="49.26" y2="119.157" gradientUnits="userSpaceOnUse">
<stop stop-color="#414473"/>
<stop offset="1" stop-color="#3C3B62"/>
</linearGradient>
<linearGradient id="paint35_linear_2_472" x1="60.5156" y1="156.06" x2="46.7874" y2="120.1" gradientUnits="userSpaceOnUse">
<stop stop-color="#414473"/>
<stop offset="1" stop-color="#3C3B62"/>
</linearGradient>
<linearGradient id="paint36_linear_2_472" x1="54.1583" y1="157.067" x2="36.1314" y2="123.06" gradientUnits="userSpaceOnUse">
<stop stop-color="#414473"/>
<stop offset="1" stop-color="#3C3B62"/>
</linearGradient>
<linearGradient id="paint37_linear_2_472" x1="41.7414" y1="19.2166" x2="42.1624" y2="149.688" gradientUnits="userSpaceOnUse">
<stop stop-color="#8195C2"/>
<stop offset="1" stop-color="#56729A"/>
</linearGradient>
<linearGradient id="paint38_linear_2_472" x1="41.3229" y1="81.8923" x2="49.1905" y2="67.5313" gradientUnits="userSpaceOnUse">
<stop stop-color="#CACDD2"/>
<stop offset="1" stop-color="#96999D"/>
</linearGradient>
<linearGradient id="paint39_linear_2_472" x1="42.203" y1="77.4545" x2="46.8885" y2="67.095" gradientUnits="userSpaceOnUse">
<stop stop-color="#142344"/>
<stop offset="1" stop-color="#374B76"/>
</linearGradient>
<linearGradient id="paint40_linear_2_472" x1="46.2378" y1="70.0209" x2="46.2295" y2="85.4566" gradientUnits="userSpaceOnUse">
<stop stop-color="#CACDD2"/>
<stop offset="1" stop-color="#96999D"/>
</linearGradient>
<linearGradient id="paint41_linear_2_472" x1="43.4485" y1="78.0229" x2="48.138" y2="67.6528" gradientUnits="userSpaceOnUse">
<stop stop-color="#142344"/>
<stop offset="1" stop-color="#374B76"/>
</linearGradient>
<linearGradient id="paint42_linear_2_472" x1="47.8366" y1="71.8508" x2="47.5246" y2="73.7714" gradientUnits="userSpaceOnUse">
<stop stop-color="#CACDD2"/>
<stop offset="1" stop-color="#96999D"/>
</linearGradient>
<linearGradient id="paint43_linear_2_472" x1="28.1862" y1="107.509" x2="57.8308" y2="107.509" gradientUnits="userSpaceOnUse">
<stop stop-color="#8195C2"/>
<stop offset="1" stop-color="#56729A"/>
</linearGradient>
<linearGradient id="paint44_linear_2_472" x1="46.2568" y1="107.633" x2="36.6127" y2="100.324" gradientUnits="userSpaceOnUse">
<stop stop-color="#262648"/>
<stop offset="1" stop-color="#355178"/>
</linearGradient>
<linearGradient id="paint45_linear_2_472" x1="30.6828" y1="98.9352" x2="53.2631" y2="108.137" gradientUnits="userSpaceOnUse">
<stop stop-color="#262648"/>
<stop offset="1" stop-color="#355178"/>
</linearGradient>
<linearGradient id="paint46_linear_2_472" x1="41.7981" y1="101.753" x2="41.6619" y2="90.2744" gradientUnits="userSpaceOnUse">
<stop stop-color="#ACAFB4"/>
<stop offset="1" stop-color="#AAADB2"/>
</linearGradient>
<linearGradient id="paint47_linear_2_472" x1="30.6527" y1="104.875" x2="32.5301" y2="110.602" gradientUnits="userSpaceOnUse">
<stop stop-color="#CACDD2"/>
<stop offset="1" stop-color="#96999D"/>
</linearGradient>
<linearGradient id="paint48_linear_2_472" x1="19.608" y1="19.2878" x2="20.029" y2="149.759" gradientUnits="userSpaceOnUse">
<stop stop-color="#8195C2"/>
<stop offset="1" stop-color="#56729A"/>
</linearGradient>
</defs>
</svg>
