<svg width="689" height="448" viewBox="0 0 689 448" fill="none" xmlns="http://www.w3.org/2000/svg">
<rect width="689" height="448" rx="15" fill="#2C3254"/>
<g style="mix-blend-mode:multiply">
<path d="M596.995 291.819C601.804 233.839 588.956 206.302 585.616 200.272C606.135 167.992 614.027 119.682 615.128 112.476C625.553 99.7178 635.281 86.7027 644.311 73.5774C639.943 87.4748 634.767 107.843 633.335 129.351C629.298 134.388 602.721 169.757 617.404 208.434C625.223 229.06 632.418 239.942 637.19 247.148C641.631 253.913 643.87 257.296 643.063 262.847C642.953 263.583 643.21 264.281 643.687 264.759C643.87 264.943 644.091 265.09 644.311 265.2C645.192 265.641 646.256 265.421 646.954 264.686C647.284 264.318 679.44 228.655 667.767 184.941C657.672 147.035 642.145 132.55 637.85 129.13C640.236 94.7544 652.387 63.43 654.552 58.0622C664.023 43.1353 672.502 28.1349 679.77 13.2448C680.321 12.1051 679.844 10.7815 678.743 10.23C677.605 9.67855 676.283 10.1565 675.732 11.2595C669.345 24.3481 662.041 37.5102 653.928 50.6356C639.429 67.0698 621.295 78.7614 603.566 87.0704C597.105 84.7174 566.454 74.8274 539.658 87.1439C524.02 94.3132 512.751 107.733 506.107 126.998C505.814 127.807 506.034 128.726 506.658 129.314C506.695 129.351 506.731 129.388 506.805 129.425C507.502 130.013 508.53 130.123 509.337 129.719C509.484 129.645 524.901 121.667 549.165 124.461C574.126 127.366 593.141 116.079 605.768 90.9676C618.469 84.9748 631.39 77.2907 643.1 67.4375C633.556 81.5923 623.094 95.6368 611.898 109.387C611.531 109.608 611.274 109.975 611.091 110.38C598.463 125.785 584.882 140.859 570.566 155.308C555.222 167.734 537.933 169.168 520.57 166.337C513.926 159.536 485.845 133.616 439.079 127.954C386.111 121.52 346.099 158.947 345.696 159.315C344.961 160.014 344.778 161.153 345.292 162.072C345.402 162.256 345.512 162.403 345.659 162.55C346.209 163.102 347.054 163.359 347.825 163.139C363.389 158.984 385.23 166.668 406.336 174.058C420.946 179.169 436.033 184.463 449.614 186.191C483.165 190.419 519.836 172.22 521.378 171.448C521.524 171.374 521.598 171.264 521.745 171.154C533.821 172.955 545.861 172.661 557.424 168.176C552.359 172.992 547.256 177.735 542.044 182.367C541.677 182.477 541.346 182.661 541.053 182.919C540.979 183.029 540.429 183.58 539.621 184.5C524.865 197.515 509.558 209.868 493.884 221.229C487.203 222.111 431.187 230.604 399.656 270.127C381.669 292.664 376.567 316.194 372.455 335.129C368.931 351.342 366.178 364.174 357.112 371.821C356.304 372.519 356.084 373.696 356.598 374.615C356.708 374.799 356.818 374.983 357.001 375.13C357.589 375.718 358.433 375.939 359.241 375.718C360.342 375.387 470.061 341.526 496.784 224.758C506.401 217.773 515.908 210.419 525.232 202.772C523.323 205.493 521.341 208.434 519.359 211.596C509.631 227.038 498.178 250.237 498.142 273.73C492.599 277.002 470.611 292.628 466.243 334.945C461.398 382.115 481.55 407.153 482.394 408.182C482.431 408.219 482.504 408.293 482.541 408.329C483.238 409.028 484.303 409.212 485.147 408.734C486.102 408.256 486.579 407.19 486.322 406.16C486.322 406.013 482.871 391.638 498.252 372.078C510.953 355.901 513.596 336.085 513.596 322.334C513.596 305.532 509.594 288.179 502.657 274.576C502.253 235.53 535.547 195.97 542.925 187.661C553.46 178.36 563.665 168.69 573.576 158.727C574.457 157.991 575.374 157.219 576.255 156.411C576.586 156.116 576.732 155.749 576.879 155.381C588.259 143.726 599.197 131.704 609.512 119.424C606.392 135.969 597.986 173.139 581.541 198.507C577.21 201.338 544.724 224.243 534.666 275.495C529.16 303.547 536.464 327.114 542.925 347.886C548.761 366.71 553.827 382.998 547.256 397.373C546.853 398.255 547.036 399.248 547.697 399.91C547.807 400.02 547.917 400.094 548.027 400.167C548.945 400.792 550.156 400.645 550.927 399.873C551.331 399.432 591.783 356.673 597.179 291.708L596.995 291.819Z" fill="#F5EADA"/>
</g>
</svg>
