<svg width="30" height="36" viewBox="0 0 30 36" fill="none" xmlns="http://www.w3.org/2000/svg">
<path fill-rule="evenodd" clip-rule="evenodd" d="M20.2273 12.9368C18.3005 12.9368 16.7864 11.4096 16.7864 9.56773C16.7864 7.72637 18.3464 6.19909 20.2273 6.19909C22.1546 6.19909 23.6682 7.72637 23.6682 9.56773C23.6682 11.4096 22.1087 12.9368 20.2273 12.9368ZM27.9814 7.45682C27.7978 6.82773 27.5682 6.24409 27.2473 5.705L27.9814 3.59364L26.3296 1.97637L24.1732 2.695C23.6223 2.38091 23.026 2.15637 22.3837 1.97637L21.3746 0H19.0805L18.0709 1.97637C17.4287 2.15637 16.8323 2.38091 16.2814 2.695L14.125 1.97637L12.4732 3.59364L13.2073 5.705C12.8864 6.24409 12.6569 6.82773 12.4732 7.45682L10.4546 8.445V10.6909L12.4732 11.6791C12.6569 12.3082 12.8864 12.8918 13.2073 13.4309L12.4732 15.5423L14.0791 17.1145L16.2355 16.3959C16.7864 16.71 17.3828 16.935 18.0251 17.1145L19.0346 19.0909H21.3287L22.3378 17.1145C22.98 16.935 23.5769 16.71 24.1273 16.3959L26.2837 17.1145L27.9355 15.5423L27.2014 13.4309C27.5223 12.8918 27.7978 12.2632 27.9814 11.6791L30 10.6909V8.445L27.9814 7.45682Z" fill="url(#paint0_linear_292_320)"/>
<path fill-rule="evenodd" clip-rule="evenodd" d="M9.77273 29.6083C7.84591 29.6083 6.33181 28.0446 6.33181 26.1592C6.33181 24.2274 7.89182 22.7096 9.77273 22.7096C11.7 22.7096 13.2136 24.2733 13.2136 26.1592C13.2136 28.0446 11.7 29.6083 9.77273 29.6083ZM16.7927 22.2037L17.5268 20.0424L15.875 18.3869L13.7186 19.1228C13.1682 18.8006 12.5255 18.5706 11.9291 18.3869L10.9195 16.3633H8.6259L7.61635 18.3869C6.97408 18.5706 6.37771 18.8006 5.8268 19.1228L3.67046 18.3869L2.06454 19.9965L2.75274 22.1578C2.43183 22.7096 2.20226 23.3537 2.01863 23.9515L0 24.9633V27.2628L2.01863 28.2746C2.20226 28.9183 2.43183 29.516 2.75274 30.0683L2.06454 32.2296L3.67046 33.8392L5.8268 33.1496C6.37771 33.4715 6.97408 33.7015 7.61635 33.8851L8.6259 35.9087H10.9195L11.9291 33.8851C12.5714 33.7015 13.1682 33.4715 13.7186 33.1496L15.875 33.8851L17.4809 32.2296L16.7927 30.1142C17.1136 29.5624 17.3432 28.9642 17.5268 28.3206L19.5455 27.3087V25.0092L17.5268 23.9974C17.3432 23.3537 17.1136 22.756 16.7927 22.2037Z" fill="url(#paint1_linear_292_320)"/>
<defs>
<linearGradient id="paint0_linear_292_320" x1="42.7273" y1="0.68182" x2="2.50004" y2="37.2727" gradientUnits="userSpaceOnUse">
<stop stop-color="#F6F8FC"/>
<stop offset="0.15" stop-color="#ABC0E4"/>
<stop offset="0.49" stop-color="#384367"/>
<stop offset="1" stop-color="#374267"/>
</linearGradient>
<linearGradient id="paint1_linear_292_320" x1="30" y1="17.9542" x2="0" y2="17.9542" gradientUnits="userSpaceOnUse">
<stop stop-color="#F6F8FC"/>
<stop offset="0.15" stop-color="#ABC0E4"/>
<stop offset="0.49" stop-color="#384367"/>
<stop offset="1" stop-color="#374267"/>
</linearGradient>
</defs>
</svg>
