<svg width="20" height="26" viewBox="0 0 20 26" fill="none" xmlns="http://www.w3.org/2000/svg">
<path d="M19.6713 6.36357C19.8412 6.5335 19.9375 6.76289 19.9375 7.00361V24.4688C19.9375 24.97 19.5325 25.375 19.0312 25.375H0.90625C0.40498 25.375 0 24.97 0 24.4688V0.90625C0 0.40498 0.40498 0 0.90625 0H12.9339C13.1746 0 13.4068 0.0962891 13.5768 0.266211L19.6713 6.36357V6.36357ZM17.8475 7.41992L12.5176 2.09004V7.41992H17.8475ZM13.4017 16.2349C12.9718 16.2207 12.5147 16.2539 11.9956 16.3187C11.3075 15.8942 10.8441 15.3111 10.515 14.4544L10.5454 14.3304L10.5805 14.1837C10.7022 13.6702 10.7677 13.2955 10.7872 12.9177C10.8019 12.6326 10.7861 12.3695 10.7354 12.1256C10.6419 11.5992 10.2695 11.2913 9.80024 11.2723C9.36269 11.2545 8.96055 11.4989 8.85774 11.8775C8.69037 12.4898 8.78836 13.2955 9.14321 14.6696C8.69122 15.7472 8.09395 17.0106 7.69321 17.7152C7.15824 17.991 6.74165 18.242 6.39161 18.5201C5.92999 18.8874 5.64169 19.2649 5.56239 19.6614C5.52388 19.8452 5.58193 20.0853 5.71419 20.2822C5.86429 20.5053 6.09028 20.6503 6.36131 20.6713C7.04524 20.7242 7.88579 20.0191 8.81385 18.4266C8.90702 18.3955 9.00558 18.3626 9.12594 18.3218L9.46295 18.208C9.6762 18.136 9.83083 18.0845 9.98376 18.0349C10.6465 17.8191 11.1477 17.6829 11.6037 17.6053C12.3961 18.0296 13.312 18.3077 13.9288 18.3077C14.438 18.3077 14.7821 18.0437 14.9064 17.6283C15.0154 17.2635 14.9291 16.8404 14.6946 16.6065C14.4521 16.3683 14.0064 16.2544 13.4017 16.2349V16.2349ZM6.37858 19.8718V19.8616L6.38227 19.852C6.4237 19.7448 6.47689 19.6426 6.54086 19.5472C6.66207 19.3609 6.82888 19.1649 7.03562 18.9562C7.14663 18.8443 7.26218 18.7353 7.39783 18.613C7.42813 18.5858 7.62185 18.4133 7.6581 18.3793L7.97443 18.0848L7.74447 18.451C7.39557 19.0072 7.08008 19.4076 6.8099 19.6687C6.7105 19.765 6.62299 19.8358 6.55219 19.8814C6.52881 19.897 6.50407 19.9105 6.47827 19.9216C6.46666 19.9265 6.45646 19.9293 6.44627 19.9301C6.43551 19.9315 6.42457 19.93 6.41455 19.9259C6.40389 19.9214 6.39479 19.9139 6.38839 19.9043C6.38199 19.8947 6.37858 19.8834 6.37858 19.8718V19.8718ZM9.94524 13.69L9.88124 13.8033L9.84159 13.6793C9.7538 13.4009 9.68923 12.9815 9.67139 12.6031C9.651 12.1726 9.68526 11.9144 9.8212 11.9144C10.0121 11.9144 10.0996 12.2202 10.1064 12.6804C10.1126 13.0848 10.0489 13.5057 9.94496 13.69H9.94524ZM9.7807 15.3456L9.82403 15.2309L9.88322 15.3386C10.2143 15.9401 10.6439 16.4419 11.1163 16.7917L11.2182 16.867L11.0939 16.8925C10.6314 16.9882 10.2007 17.1321 9.61163 17.3697C9.67309 17.3448 8.99935 17.6206 8.82886 17.686L8.68018 17.743L8.75947 17.6048C9.10923 16.9959 9.43236 16.2646 9.78042 15.3456H9.7807ZM14.2446 17.5054C14.022 17.5931 13.5428 17.5147 12.6991 17.1545L12.485 17.0633L12.7172 17.0463C13.3771 16.9973 13.8444 17.0335 14.1168 17.1332C14.2329 17.1757 14.3103 17.2292 14.3445 17.2904C14.3626 17.3194 14.3686 17.3542 14.3614 17.3875C14.3542 17.4209 14.3344 17.4501 14.306 17.4691C14.288 17.485 14.2671 17.4973 14.2446 17.5054V17.5054Z" fill="#E23B30"/>
</svg>
