<svg width="40" height="40" viewBox="0 0 40 40" fill="none" xmlns="http://www.w3.org/2000/svg">
<path fill-rule="evenodd" clip-rule="evenodd" d="M20 40C31.0457 40 40 31.0457 40 20C40 8.9543 31.0457 0 20 0C8.9543 0 0 8.9543 0 20C0 31.0457 8.9543 40 20 40ZM28.4897 13.3248C28.6638 11.3539 26.5825 12.1655 26.5825 12.1655H26.5815C25.0405 12.8035 23.451 13.4519 21.8444 14.1073C16.8813 16.1318 11.7545 18.2232 7.38657 20.2815C5.01606 21.1509 6.40354 22.0204 6.40354 22.0204L10.1621 23.1802C11.8961 23.702 12.8213 23.1218 12.8213 23.1218L20.9158 17.6148C23.8065 15.6439 23.1128 17.2671 22.419 17.9624L16.3489 23.7598C15.4232 24.5714 15.8861 25.2668 16.2911 25.615C17.4374 26.6262 20.2563 28.4764 21.4892 29.2856C21.8109 29.4967 22.0245 29.6369 22.0724 29.673C22.3617 29.9049 23.9228 30.948 24.9631 30.7165C26.004 30.4846 26.1197 29.1512 26.1197 29.1512L27.5072 20.0495C27.7148 18.4744 27.9527 16.9601 28.143 15.7489C28.3239 14.5977 28.4617 13.7203 28.4897 13.3248Z" fill="#26A5E5"/>
</svg>
