<svg width="24" height="24" viewBox="0 0 24 24" fill="none" xmlns="http://www.w3.org/2000/svg">
<path d="M6.42894 10.3789C7.79294 13.0595 9.9905 15.2476 12.6711 16.6211L14.755 14.5372C15.0108 14.2814 15.3897 14.1962 15.7212 14.3098C16.7821 14.6603 17.9282 14.8497 19.1028 14.8497C19.6237 14.8497 20.05 15.276 20.05 15.797V19.1028C20.05 19.6237 19.6237 20.05 19.1028 20.05C10.2084 20.05 3 12.8416 3 3.94722C3 3.42625 3.42625 3 3.94722 3H7.2625C7.78347 3 8.20972 3.42625 8.20972 3.94722C8.20972 5.13125 8.39917 6.26792 8.74964 7.32881C8.85383 7.66033 8.77806 8.02975 8.51283 8.29497L6.42894 10.3789Z" fill="#313654"/>
</svg>
