<svg width="35" height="35" viewBox="0 0 35 35" fill="none" xmlns="http://www.w3.org/2000/svg">
<path d="M16.9404 9.17089L17.2663 5.8148C17.3952 4.46614 18.6546 3.55097 19.9268 3.87964C21.8407 4.37547 23.1851 6.15339 23.1851 8.19197V12.4916C23.1851 13.4478 23.1851 13.9266 23.3919 14.2766C23.5095 14.4763 23.671 14.6449 23.8637 14.7653C24.2037 14.9792 24.6669 14.9792 25.592 14.9792H26.153C28.5656 14.9792 29.7712 14.9792 30.5135 15.5317C31.0703 15.9468 31.4627 16.5546 31.6185 17.2431C31.8254 18.1639 31.3621 19.3156 30.4342 21.6163L29.9724 22.7638C29.7045 23.4284 29.5949 24.1462 29.6522 24.8605C29.9809 28.932 26.7523 32.3617 22.8054 32.1365L8.03811 31.2879C6.42453 31.1958 5.61844 31.149 4.89027 30.5045C4.16069 29.8599 4.02327 29.1955 3.74986 27.868C3.16794 25.0441 3.1945 22.1285 3.82777 19.3156C4.22869 17.5476 5.91736 16.5956 7.66127 16.8223C12.2853 17.4173 16.4772 13.9621 16.9404 9.1723V9.17089Z" stroke="#01966B" stroke-width="2" stroke-linecap="round" stroke-linejoin="round"/>
<path d="M10.4167 17.2695L10.2226 17.9169C8.96616 22.1053 9.03395 26.5795 10.4167 30.7279" stroke="#01966B" stroke-width="2" stroke-linecap="round" stroke-linejoin="round"/>
</svg>
