<svg width="320" height="69" viewBox="0 0 320 69" fill="none" xmlns="http://www.w3.org/2000/svg">
<g clip-path="url(#clip0_52_146)">
<path d="M-153 -39C-89.9708 -34.1329 -59.5513 -28.049 21.973 14.295C103.497 56.639 188.915 22.8125 224.445 16.7285C259.975 10.6446 341.986 2.85725 383.357 7.72437C424.727 12.5915 454.417 17.9453 445.413 43.4977C436.408 69.0501 418.4 89.7354 488 106.284" stroke="#E5E5E9" stroke-width="2"/>
<path d="M-153 -20.0186C-92.268 -15.3389 -62.9571 -9.48943 15.5959 31.2232C94.1489 71.9358 176.454 39.4125 210.689 33.563C244.924 27.7135 323.946 20.2261 363.809 24.9057C403.671 29.5853 432.279 34.7329 423.603 59.3009C414.927 83.8688 397.575 103.757 464.638 119.668" stroke="#E5E5E9" stroke-width="2"/>
</g>
<defs>
<clipPath id="clip0_52_146">
<rect width="320" height="69" fill="white"/>
</clipPath>
</defs>
</svg>
