<svg width="175" height="176" viewBox="0 0 175 176" fill="none" xmlns="http://www.w3.org/2000/svg">
<path d="M45.3023 15.3386C39.5725 23.5468 46.2911 36.8541 37.7883 43.0275C29.5118 49.0369 19.3445 39.1866 11.5447 44.3594C-0.0262512 52.0328 2.08676 87.1446 19.0039 108.961C24.0914 115.522 28.3422 118.074 30.2254 125.494C34.2682 141.426 20.0598 150.904 22.7638 158.784C28.8519 176.526 122.482 191.414 160.05 138.092C177.596 113.188 180.222 77.2264 164.545 49.9137C136.217 0.560147 58.1596 -3.07903 45.3023 15.3386Z" fill="#F4F7F9"/>
<path d="M123.455 116.499C132.338 116.559 143.664 115.367 154.51 110.458C157.279 109.205 174.379 101.466 172.359 93.6721C171.648 90.9268 169.165 90.4934 168.15 86.8395C166.946 82.5098 169.663 80.3477 171.545 74.9514C172.669 71.732 175.956 62.3098 170.316 57.0928C166.945 53.9754 160.538 52.5007 155.661 53.6399C148.507 55.3109 146.048 62.2785 142.091 74.1395C138.583 84.6537 139.484 87.2345 136.826 94.7617C134.853 100.348 131.139 108.04 123.455 116.499Z" fill="url(#paint0_linear_301_4096)"/>
<g style="mix-blend-mode:soft-light" opacity="0.5">
<g style="mix-blend-mode:soft-light">
<path d="M101.139 121.351C95.9943 121.351 90.7294 120.639 85.3867 119.216L85.4946 118.81C95.2159 121.4 104.675 121.62 113.61 119.463C125.512 116.59 135.836 109.455 144.295 98.2569C153.107 86.5924 157.688 73.4425 159.981 64.4648C161.566 58.2531 161.26 51.3745 159.071 44.0201L159.473 43.9004C161.685 51.3285 161.992 58.2826 160.387 64.5686C158.086 73.5834 153.484 86.7899 144.63 98.5105C136.111 109.788 125.707 116.975 113.709 119.872C109.619 120.859 105.421 121.352 101.139 121.352L101.139 121.351Z" fill="white"/>
</g>
<g style="mix-blend-mode:soft-light">
<path d="M153.976 82.4029L153.857 82.2561C153.832 82.2254 151.336 79.114 149.321 74.3645C147.459 69.9759 145.633 63.2471 147.513 56.1126L147.919 56.2199C144.589 68.858 152.973 80.4064 154.068 81.8428C172.872 69.5921 172.686 55.5943 172.179 51.5872C172.164 51.4775 172.157 51.4086 172.158 51.3838L172.368 51.3856L172.577 51.3838C172.579 51.4068 172.585 51.4575 172.595 51.5341C173.112 55.6144 173.309 69.891 154.135 82.2997L153.977 82.4023L153.976 82.4029Z" fill="white"/>
</g>
<g style="mix-blend-mode:soft-light">
<path d="M151.8 98.9454C149.587 98.9454 147.183 98.7785 144.578 98.3953L144.468 98.3788L144.42 98.2773C144.369 98.1688 139.29 87.256 140.404 72.421L141.527 57.4692L141.945 57.5005L140.822 72.4523C139.774 86.4123 144.245 96.8634 144.753 97.9961C151.107 98.9171 160.26 99.0686 168.005 94.6417C172.662 91.9795 174.624 88.8769 174.643 88.8457L175 89.0668C174.92 89.1965 172.976 92.2767 168.237 94.9919C164.851 96.9318 159.486 98.9448 151.8 98.9448L151.8 98.9454Z" fill="white"/>
</g>
</g>
<path d="M113.889 116.427C107.072 112.217 97.7424 105.026 91.814 93.3786C84.0384 78.1032 88.9432 68.5848 82.6272 41.3281C78.6339 24.0939 75.6729 12.1068 65.627 7.41865C57.7541 3.74527 46.4725 4.99351 40.7056 11.0596C35.9103 16.1033 34.3665 25.068 34.5857 31.1983C34.7642 36.1942 36.1242 39.571 33.858 42.6837C31.5423 45.8647 28.1718 45.0174 25.9038 47.4856C21.3042 52.4915 27.0605 64.7982 27.9909 66.7876C38.3398 88.9128 62.9589 100.243 73.7567 105.054C82.6849 109.034 96.254 113.996 113.889 116.427Z" fill="url(#paint1_linear_301_4096)"/>
<g style="mix-blend-mode:soft-light" opacity="0.5">
<g style="mix-blend-mode:soft-light">
<path d="M121.311 119.361C110.561 117.599 101.052 114.822 93.0485 111.108C81.2036 105.61 73.0138 98.1912 68.7064 89.0579C65.3377 81.914 64.3625 73.6256 63.1274 63.132C62.1039 54.4332 62.1623 48.1802 62.2141 42.6637C62.2813 35.5121 62.3337 29.8629 59.9402 22.1971C57.5084 14.4093 53.2771 7.03425 47.3652 0.276535L47.6811 0C53.6324 6.80135 57.8921 14.2277 60.3409 22.0715C62.7545 29.8004 62.7008 35.4785 62.6337 42.6672C62.5818 48.1714 62.5235 54.4096 63.5441 63.0825C64.8227 73.9469 65.746 81.7966 69.0859 88.8786C73.3502 97.9212 81.4717 105.271 93.2253 110.727C101.194 114.425 110.666 117.191 121.379 118.947L121.312 119.361L121.311 119.361Z" fill="white"/>
</g>
<g style="mix-blend-mode:soft-light">
<path d="M62.6549 56.9547L62.5435 56.7454C54.7856 42.2034 44.5393 34.2034 37.3093 30.0524C29.4824 25.5588 23.4214 24.4892 23.3613 24.4786L23.432 24.0647C23.4933 24.0753 29.6273 25.1579 37.5185 29.688C44.7602 33.8455 55.0083 41.8384 62.7993 56.3332C63.7686 55.6033 68.2415 52.0526 72.1865 45.8909C76.2717 39.5106 80.6115 28.9427 78.0866 14.8282L78.4996 14.7539C81.0504 29.0099 76.6612 39.6863 72.5306 46.1321C68.0547 53.1162 62.9012 56.7808 62.8493 56.8173L62.6555 56.9535L62.6549 56.9547Z" fill="white"/>
</g>
<g style="mix-blend-mode:soft-light">
<path d="M66.0387 80.316L65.8867 80.3031C55.9633 79.4605 43.7672 68.6479 35.2827 59.7257C26.1076 50.077 19.1764 40.502 19.1074 40.4065L19.4474 40.1606C19.5164 40.2562 26.4335 49.8111 35.5897 59.4391C43.9799 68.2617 56.0069 78.9422 65.7712 79.8703C66.2909 78.6645 70.0998 69.9881 75.5149 61.9662C81.3472 53.327 97.8106 47.3995 97.9762 47.3405L98.117 47.7362C97.9526 47.7945 81.6177 53.6767 75.8632 62.2009C70.0803 70.767 66.1372 80.0808 66.0983 80.1739L66.0393 80.3149L66.0387 80.316Z" fill="white"/>
</g>
<g style="mix-blend-mode:soft-light">
<path d="M84.2746 109.763C80.5847 109.763 75.1396 109.563 68.7805 108.701C57.8595 107.22 41.9276 103.429 28.0468 93.7791L1.24219 75.1439L1.48142 74.799L28.286 93.4342C42.0949 103.034 57.9537 106.808 68.8258 108.283C79.1476 109.684 87.0499 109.335 88.9125 109.222C85.6604 105.412 83.8874 101.105 83.6423 96.4118C83.4408 92.5586 84.264 88.4424 86.0894 84.1776C89.19 76.9317 94.185 71.6887 94.2351 71.6362L94.5374 71.9275C94.4879 71.9794 89.5394 77.1752 86.4707 84.3533C84.6735 88.5574 83.8627 92.6093 84.0618 96.3965C84.3099 101.122 86.1419 105.451 89.5052 109.264L89.7816 109.578L89.365 109.612C89.3255 109.616 87.4494 109.764 84.2752 109.764L84.2746 109.763Z" fill="white"/>
</g>
</g>
<path d="M111.659 115.493C101.639 123.215 87.7713 131.623 71.2478 135.402C67.0312 136.367 40.9815 142.326 36.5645 131.749C35.0089 128.023 37.4513 125.392 35.4579 120.375C33.0962 114.429 28.1554 114.317 21.3774 109.821C17.3328 107.139 5.49675 99.2884 7.40354 88.5124C8.54313 82.073 14.5386 74.8802 21.0486 71.9692C30.5972 67.7003 39.3817 73.481 54.0756 83.52C67.1014 92.4186 68.3005 96.1221 77.7914 102.366C84.8358 107.001 95.666 112.521 111.658 115.492L111.659 115.493Z" fill="url(#paint2_linear_301_4096)"/>
<g style="mix-blend-mode:soft-light" opacity="0.5">
<g style="mix-blend-mode:soft-light">
<path d="M96.625 116.807C88.7698 116.807 80.6141 115.625 72.1939 113.257C52.083 107.601 35.5112 96.5985 25.1506 88.365C17.9336 82.6297 12.3081 74.4928 8.42969 64.1802L8.82212 64.0322C12.6734 74.2729 18.2547 82.349 25.4116 88.036C35.7422 96.2453 52.2645 107.215 72.3076 112.852C91.5558 118.266 109.422 117.458 125.408 110.452C137.409 105.193 147.957 96.7843 156.76 85.4587L157.091 85.7164C148.245 97.0974 137.642 105.548 125.577 110.836C116.497 114.815 106.815 116.807 96.6256 116.807L96.625 116.807Z" fill="white"/>
</g>
<g style="mix-blend-mode:soft-light">
<path d="M41.0218 103.312C13.4494 103.312 2.8313 88.8415 0.114309 84.1298C0.0559745 84.0284 0.0188557 83.9623 0 83.937L0.33234 83.6811C0.358856 83.7153 0.390084 83.7689 0.477291 83.9205C3.35927 88.917 15.2372 105.01 47.2136 102.659C47.2224 101.623 47.1782 96.45 45.5749 90.1198C43.9291 83.6197 40.2552 74.533 32.1013 68.155L32.36 67.8242C40.6111 74.2777 44.3233 83.4611 45.9844 90.029C47.7828 97.1387 47.6313 102.804 47.6296 102.861L47.6237 103.05L47.4357 103.064C45.2037 103.233 43.0635 103.312 41.0212 103.312L41.0218 103.312Z" fill="white"/>
</g>
<g style="mix-blend-mode:soft-light">
<path d="M37.8782 129.902C32.7913 129.902 29.6801 128.736 29.6406 128.721L29.7909 128.329C29.8398 128.348 34.7476 130.181 42.3376 129.187C49.3295 128.272 60.0897 124.7 71.6859 112.894C71.3507 111.427 67.4758 95.545 54.1301 80.4571L39.9906 64.4717L40.3047 64.1934L54.4442 80.1787C68.4581 96.0226 72.0855 112.749 72.1208 112.916L72.1438 113.026L72.0648 113.106C60.3436 125.074 49.4438 128.685 42.3635 129.607C40.7413 129.818 39.2382 129.902 37.8776 129.902H37.8782Z" fill="white"/>
</g>
</g>
<path d="M109.265 124.554C108.503 123.518 103.921 117.48 96.6684 117.228C90.5968 117.018 85.9536 120.977 84.8782 121.894C80.5473 125.587 81.0475 128.533 77.5492 129.728C73.3951 131.148 70.4135 127.773 67.7272 129.721C65.874 131.066 65.3313 134.096 66.0826 136.208C67.4013 139.917 73.0215 141.684 77.2841 140.797C83.1564 139.576 83.2884 133.975 89.9563 132.176C93.8311 131.131 94.9595 132.705 99.0807 131.695C103.867 130.521 107.188 127.211 109.265 124.554V124.554Z" fill="url(#paint3_linear_301_4096)"/>
<g style="mix-blend-mode:soft-light" opacity="0.5">
<g style="mix-blend-mode:soft-light">
<path d="M75.9102 135.312C72.3076 135.312 67.9212 133.514 62.8125 129.935L62.9327 129.763C69.7762 134.558 75.2956 136.134 79.3372 134.45C81.8845 133.388 83.1461 131.387 84.4825 129.268C85.9856 126.884 87.54 124.418 91.0678 123.241C93.7807 122.336 96.9225 122.769 103.182 123.632C106.31 124.064 109.436 124.689 112.473 125.49L112.419 125.693C109.39 124.894 106.273 124.27 103.154 123.84C96.926 122.981 93.8007 122.55 91.1344 123.44C87.6779 124.593 86.1435 127.026 84.6598 129.379C83.3057 131.527 82.0265 133.556 79.4179 134.643C78.3473 135.089 77.177 135.312 75.9096 135.312L75.9102 135.312Z" fill="white"/>
</g>
<g style="mix-blend-mode:soft-light">
<path d="M68.7411 141.39L68.6934 141.185C76.1278 139.459 78.146 135.274 78.3251 134.867C77.6575 132.569 75.7106 130.626 74.1898 129.398C72.5275 128.055 71.002 127.254 70.9861 127.246L71.0833 127.06C71.1446 127.091 77.2515 130.321 78.5366 134.845L78.5466 134.879L78.5337 134.912C78.5154 134.958 76.6257 139.558 68.7405 141.389L68.7411 141.39Z" fill="white"/>
</g>
<g style="mix-blend-mode:soft-light">
<path d="M85.6618 138.983C84.914 136.734 85.5899 133.406 87.6693 129.091C89.0617 126.201 90.6509 123.817 90.9614 123.36C87.6033 120.622 79.3922 127.123 79.3091 127.19L79.1777 127.026C79.1989 127.009 81.3255 125.317 83.8428 124.013C87.2521 122.246 89.7175 121.994 91.17 123.262L91.2407 123.324L91.1871 123.401C91.1164 123.503 84.1168 133.671 85.8603 138.917L85.6612 138.983H85.6618Z" fill="white"/>
</g>
<g style="mix-blend-mode:soft-light">
<path d="M92.9365 135.845C90.959 128.25 101.133 124.06 102.348 123.59C98.8577 117.568 90.1411 116.427 90.0527 116.417L90.0787 116.208C90.1682 116.22 99.0911 117.387 102.591 123.594L102.652 123.702L102.535 123.744C102.42 123.785 91.0957 127.945 93.1392 135.793L92.9365 135.846V135.845Z" fill="white"/>
</g>
</g>
<path d="M66.1262 42.0952C67.2858 42.6842 68.7424 42.1435 69.38 40.887C70.0176 39.6305 69.5945 38.1346 68.4349 37.5456C68.3748 37.5149 68.3135 37.4896 68.2522 37.4648C68.4679 36.7697 68.6299 36.0692 68.7389 35.3681C68.8055 35.3681 68.8721 35.3669 68.9398 35.361C70.2627 35.2431 71.3127 34.0267 71.285 32.644C71.2573 31.2614 70.1625 30.2366 68.8397 30.3545C68.7707 30.361 68.7024 30.3716 68.6352 30.3834C68.4967 29.6983 68.3076 29.029 68.0689 28.381C68.1296 28.3457 68.1903 28.3085 68.2493 28.2672C69.3812 27.4736 69.743 25.9075 69.0577 24.7696C68.3724 23.631 66.8993 23.3515 65.7674 24.1451C65.7096 24.1858 65.6548 24.2295 65.6006 24.2743C65.1534 23.7796 64.6631 23.3214 64.1328 22.9034C64.1699 22.8421 64.2064 22.7802 64.2394 22.7153C64.877 21.4588 65.7096 20.0867 64.5411 19.516C61.8377 18.1952 60.6781 19.3261 60.0405 20.582C60.0075 20.6469 59.9792 20.7129 59.9515 20.7796C59.301 20.598 58.6423 20.4724 57.9794 20.4028C57.9835 20.3332 57.987 20.263 57.9853 20.1923C57.9576 18.8096 58.3677 18.0614 57.0395 18.036C54.144 17.9794 53.167 19.2371 53.1947 20.6198C53.1959 20.6923 53.2024 20.7625 53.2094 20.8326C52.546 21.0219 51.8943 21.2636 51.2596 21.5567C51.2296 21.4948 51.1984 21.4335 51.1624 21.3739C50.4771 20.2353 49.004 19.9558 47.8721 20.7495C46.7402 21.5431 46.3784 23.1092 47.0637 24.2472C47.099 24.3055 47.1373 24.3598 47.1762 24.414C46.6747 24.9158 46.2057 25.46 45.772 26.0443C45.7161 26.009 45.6589 25.9748 45.5988 25.9441C44.4392 25.3551 42.9826 25.8958 42.345 27.1522C41.7075 28.4087 42.1305 29.9046 43.2902 30.4937C43.3503 30.5243 43.4115 30.5497 43.4728 30.5744C43.2572 31.2696 43.0951 31.9701 42.9861 32.6712C42.9195 32.6712 42.8529 32.6723 42.7852 32.6782C41.4623 32.7962 40.4123 34.0126 40.44 35.3952C40.4677 36.7779 41.5625 37.8027 42.8853 37.6848C42.9543 37.6789 43.0226 37.6677 43.0898 37.6559C43.2277 38.341 43.4174 39.0102 43.6561 39.6582C43.5954 39.6936 43.5347 39.7308 43.4758 39.772C42.3438 40.5657 41.982 42.1317 42.6673 43.2697C43.3526 44.4083 45.6218 44.9366 46.7537 44.1435C46.812 44.1029 46.0702 43.8098 46.1244 43.765C46.5716 44.2597 47.0619 44.7178 47.5922 45.1359C47.5551 45.1972 47.5185 45.2591 47.4855 45.324C46.848 46.5805 47.2711 48.0764 48.4307 48.6654C49.5903 49.2544 51.0469 48.7137 51.6845 47.4572C51.7175 47.3924 51.7458 47.3263 51.7735 47.2597C52.424 47.4413 53.0828 47.5669 53.7457 47.6365C53.7415 47.7061 53.7386 47.7762 53.7398 47.847C53.7675 49.2297 54.8623 50.2544 56.1851 50.1365C57.508 50.0186 58.558 48.8022 58.5303 47.4195C58.5291 47.347 58.5226 47.2768 58.5156 47.2067C59.1791 47.0174 59.8308 46.7756 60.4654 46.4826C60.4954 46.5445 60.5266 46.6058 60.5626 46.6648C61.2479 47.8034 62.721 48.0828 63.8529 47.2892C64.9848 46.4956 65.3466 44.9295 64.6614 43.7915C64.626 43.7332 64.5877 43.6789 64.5488 43.6247C65.0502 43.1229 65.5193 42.5787 65.953 41.9943C66.0089 42.0297 66.0661 42.0639 66.1262 42.0946V42.0952ZM51.6721 42.2785C47.462 40.14 45.9258 34.7083 48.2404 30.147C50.5549 25.5856 55.8439 23.6216 60.0535 25.7607C64.2636 27.8993 65.7998 33.331 63.4852 37.8923C61.1707 42.4537 55.8817 44.4177 51.6721 42.2785Z" fill="#D8DEE3"/>
<path d="M68.9388 35.3609C70.2617 35.243 71.3117 34.0266 71.284 32.6439C71.2563 31.2612 70.1615 30.2364 68.8387 30.3544C68.7697 30.3603 68.7014 30.3715 68.6342 30.3833C68.4963 29.6981 68.3066 29.0289 68.0679 28.3809C68.1286 28.3455 68.1893 28.3084 68.2482 28.2671C69.3802 27.4734 70.7802 25.5566 69.9818 24.4947C68.4662 22.4793 66.8977 23.3514 65.7663 24.145C65.7086 24.1857 65.6538 24.2293 65.5996 24.2741C65.1524 23.7794 64.6621 23.3213 64.1318 22.9032C64.1689 22.8419 64.2055 22.78 64.2385 22.7152C64.5855 22.0312 64.6162 21.2776 64.3869 20.6367C63.2939 22.5619 62.2156 24.4952 61.1561 26.4392C64.5148 28.9021 65.5837 33.7547 63.4848 37.8922C61.7059 41.3981 58.1698 43.3669 54.7169 43.1204C54.5631 43.5202 54.4117 43.9217 54.2467 44.3179C53.7988 45.3922 53.2909 46.4441 52.7812 47.4948C53.1012 47.555 53.4229 47.6027 53.7458 47.6363C53.7417 47.7065 53.7388 47.7761 53.7399 47.8468C53.7676 49.2295 54.6067 50.4041 57.0037 50.2767C58.3301 50.2065 58.5582 48.802 58.5305 47.4194C58.5293 47.3474 58.5228 47.2767 58.5157 47.2065C59.1792 47.0172 59.8309 46.7755 60.4655 46.4824C60.4956 46.5444 60.5268 46.6057 60.5628 46.6646C61.2481 47.8032 63.6262 48.2867 64.7576 47.4931C65.8895 46.6994 65.3462 44.9294 64.6609 43.7914C64.6256 43.733 64.5873 43.6788 64.5484 43.6245C65.0498 43.1227 65.5189 42.5785 65.9526 41.9942C66.0085 42.0296 66.0657 42.0638 66.1258 42.0944C67.2854 42.6835 68.742 42.1428 69.3796 40.8863C70.0171 39.6298 69.5941 38.1339 68.4344 37.5449C68.3743 37.5142 68.3131 37.4889 68.2518 37.4641C68.4674 36.7689 68.6295 36.0684 68.7385 35.3674C68.8051 35.3674 68.8716 35.3662 68.9394 35.3603L68.9388 35.3609Z" fill="#D8DEE3"/>
<path d="M67.3737 42.2368C68.5333 42.8258 69.9899 42.2852 70.6274 41.0287C71.265 39.7722 70.842 38.2763 69.6823 37.6872C69.6222 37.6566 69.5609 37.6312 69.4997 37.6065C69.7153 36.9113 69.8773 36.2108 69.9864 35.5097C70.0529 35.5097 70.1195 35.5086 70.1873 35.5027C71.5101 35.3847 72.5602 34.1683 72.5325 32.7857C72.5048 31.403 71.41 30.3782 70.0871 30.4961C70.0182 30.5026 69.9498 30.5132 69.8827 30.525C69.7442 29.8399 69.555 29.1707 69.3164 28.5227C69.3771 28.4873 69.4378 28.4501 69.4967 28.4089C70.6286 27.6152 70.9904 26.0492 70.3051 24.9112C69.6199 23.7726 68.1468 23.4931 67.0148 24.2868C66.9571 24.3275 66.9023 24.3711 66.8486 24.4159C66.4014 23.9212 65.9112 23.4631 65.3809 23.045C65.418 22.9837 65.4545 22.9218 65.4875 22.8569C66.1251 21.6004 65.702 20.1046 64.5423 19.5155C63.3827 18.9265 61.9261 19.4672 61.2886 20.7237C61.2556 20.7885 61.2273 20.8546 61.1996 20.9212C60.5491 20.7396 59.8903 20.614 59.2274 20.5444C59.2315 20.4748 59.2345 20.4047 59.2333 20.3339C59.2056 18.9512 58.1108 17.9265 56.788 18.0444C55.4651 18.1623 54.4151 19.3787 54.4428 20.7614C54.4439 20.8339 54.4504 20.9041 54.4575 20.9743C53.794 21.1635 53.1423 21.4053 52.5077 21.6983C52.4776 21.6364 52.4464 21.5757 52.4105 21.5161C51.7252 20.3775 50.2521 20.0981 49.1201 20.8917C47.9882 21.6853 47.6264 23.2514 48.3117 24.3894C48.3471 24.4477 48.3854 24.502 48.4243 24.5562C47.9228 25.058 47.4538 25.6022 47.0201 26.1866C46.9641 26.1512 46.907 26.117 46.8469 26.0863C45.6872 25.4973 44.2306 26.038 43.5931 27.2945C42.9555 28.551 43.3786 30.0468 44.5382 30.6359C44.5983 30.6665 44.6596 30.6919 44.7209 30.7167C44.5052 31.4118 44.3432 32.1123 44.2341 32.8134C44.1676 32.8134 44.101 32.8146 44.0332 32.8205C42.7104 32.9384 41.6603 34.1548 41.688 35.5375C41.7157 36.9201 42.8105 37.9449 44.1334 37.827C44.2023 37.8211 44.2707 37.8099 44.3379 37.7981C44.4757 38.4832 44.6655 39.1525 44.9041 39.8005C44.8434 39.8358 44.7827 39.873 44.7238 39.9143C43.5919 40.7079 43.2301 42.274 43.9154 43.4119C44.6007 44.5505 46.0738 44.83 47.2057 44.0363C47.2634 43.9957 47.3183 43.952 47.3725 43.9072C47.8197 44.4019 48.3099 44.8601 48.8402 45.2781C48.8031 45.3394 48.7666 45.4013 48.7336 45.4662C48.0961 46.7227 48.5191 48.2186 49.6787 48.8076C50.8384 49.3966 52.295 48.856 52.9325 47.5995C52.9655 47.5346 52.9938 47.4686 53.0215 47.4019C53.672 47.5835 54.3308 47.7091 54.9937 47.7787C54.9896 47.8489 54.9866 47.9184 54.9878 47.9892C55.0155 49.3719 56.1103 50.3967 57.4332 50.2787C58.756 50.1608 59.806 48.9444 59.7784 47.5617C59.7772 47.4892 59.7707 47.419 59.7636 47.3489C60.4271 47.1596 61.0788 46.9179 61.7134 46.6248C61.7435 46.6867 61.7747 46.7475 61.8106 46.807C62.4959 47.9456 63.969 48.2251 65.101 47.4314C66.2329 46.6378 66.5947 45.0717 65.9094 43.9338C65.874 43.8754 65.8357 43.8211 65.7968 43.7669C66.2983 43.2651 66.7673 42.7209 67.201 42.1366C67.257 42.1719 67.3141 42.2061 67.3742 42.2368H67.3737ZM52.9196 42.4202C48.7094 40.2816 47.1733 34.85 49.4878 30.2886C51.8024 25.7272 57.0914 23.7632 61.3009 25.9024C65.5111 28.0409 67.0472 33.4726 64.7327 38.0339C62.4182 42.5953 57.1291 44.5593 52.9196 42.4202Z" fill="white"/>
<path d="M143.012 25.9017C141.876 22.2189 140.1 20.4382 138.747 19.4966C135.848 17.4795 131.92 17.2489 132.03 16.4765C132.077 16.1416 132.854 15.9128 133.087 15.8444C134.224 15.5101 134.86 16.0844 135.493 15.7065C135.965 15.4246 136.093 14.8167 136.187 14.3409C136.66 11.9323 135.271 8.96763 134.533 6.79426C134.481 6.64273 134.365 6.29308 134.479 6.21053C134.602 6.12091 134.929 6.38742 135.039 6.47763C136.214 7.43518 137.682 11.7112 137.68 11.7118C137.68 11.7118 137.682 11.2218 137.24 9.82671C136.47 7.39627 135.633 6.26831 135.706 4.34023C135.721 3.96346 135.737 3.62501 135.867 3.5861C136.526 3.39093 138.895 11.2454 139.334 11.1003C139.444 11.0638 139.383 10.5402 139.352 10.279C139.067 7.84262 137.727 7.11502 137.841 5.14625C137.858 4.8367 137.885 4.38445 138.054 4.33669C138.623 4.17631 140.131 8.76715 140.881 10.8674C141.999 14.003 143.421 18.5043 144.608 24.2166C144.077 24.7785 143.545 25.3404 143.013 25.9017H143.012Z" fill="url(#paint4_linear_301_4096)"/>
<path d="M94.5644 19.9549C92.4679 19.2998 91.9058 16.8717 91.6836 15.9124C91.158 13.6435 91.3619 9.72662 93.7366 8.64112C95.6439 7.76847 97.7758 9.262 98.0398 9.45245C100.727 11.3929 100.223 15.1105 100.163 15.4991C100.031 16.3705 99.7574 18.1683 98.1776 19.2862C98.0663 19.3653 96.3775 20.5221 94.5644 19.9555V19.9549Z" fill="url(#paint5_linear_301_4096)"/>
<g style="mix-blend-mode:multiply" opacity="0.3">
<path style="mix-blend-mode:multiply" d="M97.3418 14.3709C95.9524 12.993 93.9879 13.5962 93.16 12.342C92.7463 11.7158 92.6403 10.6592 93.4746 8.77832C91.3486 10.0248 91.1778 13.73 91.6833 15.9116C91.9055 16.871 92.4682 19.299 94.5641 19.9541C96.3772 20.5207 98.066 19.3639 98.1774 19.2849C98.2469 19.236 98.3129 19.1852 98.3771 19.1334C98.6087 17.3297 98.4767 15.4959 97.3418 14.3703V14.3709Z" fill="url(#paint6_linear_301_4096)"/>
</g>
<path d="M92.908 68.2345C92.908 68.2345 84.4712 41.9784 84.5001 32.1004C84.5284 22.2224 93.139 18.3833 96.962 17.4706C100.783 16.5578 108.889 17.562 111.384 28.6823C113.878 39.7992 112.077 64.7239 112.077 64.7239L92.908 68.2351V68.2345Z" fill="url(#paint7_linear_301_4096)"/>
<g style="mix-blend-mode:soft-light" opacity="0.3">
<path d="M99.9119 41.7986C105.99 41.0551 107.337 35.3127 112.925 34.6488C113.466 34.5845 114.074 34.5657 114.747 34.6311C114.664 33.5421 114.559 32.4943 114.431 31.5037C113.671 31.41 112.989 31.4259 112.389 31.4967C106.801 32.1594 105.454 37.9018 99.3757 38.6441C94.4178 39.2497 92.2064 35.811 88.011 37.3074C86.9303 37.6931 86.017 38.2998 85.248 39.002C85.4225 40.0003 85.624 41.0386 85.8467 42.1029C86.6033 41.4242 87.4966 40.8393 88.5484 40.4637C92.7432 38.9667 94.9546 42.4048 99.9125 41.798L99.9119 41.7986Z" fill="white"/>
</g>
<path style="mix-blend-mode:multiply" opacity="0.8" d="M100.43 51.8654C95.8836 52.3861 93.8047 48.9208 89.9717 50.3418C89.2505 50.6089 88.6135 50.9957 88.0508 51.4521C90.3465 60.2635 92.9073 68.2346 92.9073 68.2346L112.077 64.7234C112.077 64.7234 112.782 54.9562 112.698 44.9243C112.557 44.932 112.421 44.9432 112.289 44.9573C107.163 45.5246 106.005 51.2268 100.431 51.8648L100.43 51.8654Z" fill="url(#paint8_linear_301_4096)"/>
<path style="mix-blend-mode:multiply" opacity="0.3" d="M110.62 35.147C105.495 35.7112 104.336 41.4135 98.7601 42.048C94.213 42.5657 92.1329 39.0987 88.2993 40.5179C87.3383 40.8734 86.5251 41.4412 85.8398 42.1046C86.4603 45.1152 87.2381 48.3358 88.0501 51.4519C88.6128 50.9956 89.2504 50.6088 89.971 50.3417C93.804 48.9201 95.8834 52.3859 100.429 51.8653C106.004 51.2273 107.162 45.525 112.287 44.9578C112.419 44.943 111.117 35.0927 110.62 35.1476V35.147Z" fill="url(#paint9_linear_301_4096)"/>
<path d="M67.1734 86.8413C63.4747 82.0193 68.5639 71.103 74.1505 64.9525C80.6499 57.7974 88.9706 55.8275 94.2496 54.6518C111.724 50.7602 117.33 58.6701 126.15 54.1329C139.832 47.0945 136.829 22.6332 143.012 21.9575C148.088 21.4027 156.086 37.2501 153.878 52.9654C152.164 65.1601 140.574 77.1555 128.872 82.4963C120.383 86.3708 121.672 85.3425 102.343 86.4598C79.9369 87.7552 70.8196 91.5943 67.1734 86.8413V86.8413Z" fill="url(#paint10_linear_301_4096)"/>
<path d="M88.1815 56.1689C91.7682 54.8758 97.6318 54.5834 97.5699 41.7596C97.5699 41.7596 104.998 41.2896 105.28 41.3822C105.546 41.47 103.312 54.1913 113.693 54.1046C114.399 54.0987 114.585 55.0916 114.018 55.5409C112.141 57.0291 107.907 59.334 101.637 59.4065C97.6689 59.4525 93.1423 60.3428 88.1603 57.719C87.478 57.3593 87.4291 56.4401 88.1815 56.1689V56.1689Z" fill="url(#paint11_linear_301_4096)"/>
<path d="M113.599 80.4169C111.497 80.4434 112.226 62.6685 105.938 36.5746C104.633 31.1618 103.354 26.749 102.449 23.7844C104.684 23.4978 106.919 23.2119 109.153 22.9253C113.036 30.3929 118.819 44.2881 117.718 62.2929C117.2 70.7588 115.146 80.3969 113.599 80.4163L113.599 80.4169Z" fill="url(#paint12_linear_301_4096)"/>
<path d="M113.599 80.4169C111.497 80.4434 112.226 62.6685 105.938 36.5746C104.633 31.1618 103.354 26.749 102.449 23.7844C104.684 23.4978 106.919 23.2119 109.153 22.9253C113.036 30.3929 118.819 44.2881 117.718 62.2929C117.2 70.7588 115.146 80.3969 113.599 80.4163L113.599 80.4169Z" fill="url(#paint13_linear_301_4096)"/>
<path d="M90.2559 34.2239C90.5405 35.8955 91.8545 48.296 101.304 46.2464C109.932 44.3749 107.661 35.6078 106.647 31.1797C106.647 31.1797 105.568 27.2368 102.467 26.7197C102.467 26.7197 105.548 28.4408 106.353 33.4261C106.353 33.4261 105.231 30.9167 98.8853 32.195C92.5345 33.4745 91.6924 36.5954 91.6924 36.5954C91.6924 36.5954 89.7574 32.0429 92.558 28.8571C92.558 28.8571 90.3914 30.0535 90.2559 34.2245V34.2239Z" fill="url(#paint14_linear_301_4096)"/>
<g style="mix-blend-mode:multiply" opacity="0.3">
<path style="mix-blend-mode:multiply" d="M151.796 33.0123C152.979 39.885 151.71 44.3237 149.859 47.3119C145.691 54.0408 138.321 53.8344 129.247 64.4548C124.168 70.4 123.839 73.5539 120.682 78.1153C119.232 80.2096 117.339 82.3806 114.809 84.4762C121.629 84.666 122.948 85.1996 128.871 82.4962C140.573 77.1553 152.163 65.16 153.876 52.9653C154.88 45.8243 153.776 38.6562 151.796 33.0117V33.0123Z" fill="url(#paint15_linear_301_4096)"/>
</g>
<path d="M153.993 85.7672L34.9428 81.6575C32.4291 81.5708 30.3438 83.5861 30.3438 86.1033V162.882C30.3438 165.469 32.5428 167.511 35.1219 167.318L154.172 158.38C156.492 158.206 158.285 156.272 158.285 153.944V90.213C158.285 87.8155 156.387 85.8497 153.992 85.7672H153.993Z" fill="url(#paint16_linear_301_4096)"/>
<path d="M156.039 85.7672L36.9897 81.6575C34.476 81.5708 32.3906 83.5861 32.3906 86.1033V162.882C32.3906 165.469 34.5897 167.511 37.1688 167.318L156.219 158.38C158.538 158.206 160.331 156.272 160.331 153.944V90.213C160.331 87.8155 158.434 85.8497 156.039 85.7672H156.039Z" fill="url(#paint17_linear_301_4096)"/>
<path d="M109.3 128.462L159.184 87.236C158.404 86.371 157.292 85.8103 156.04 85.7667L36.9904 81.657C35.8579 81.6181 34.8125 82.0066 34.0059 82.6747L100.693 128.829C103.321 130.648 106.837 130.498 109.3 128.462V128.462Z" fill="url(#paint18_linear_301_4096)"/>
<path d="M109.3 128.462C106.836 130.498 103.321 130.649 100.693 128.83L34.0051 82.6753C33.0211 83.4902 32.3906 84.7207 32.3906 86.1034V162.882C32.3906 165.47 34.5897 167.511 37.1688 167.318L156.219 158.38C158.538 158.207 160.331 156.272 160.331 153.944V90.2131C160.331 89.0692 159.895 88.0262 159.184 87.2361L109.3 128.462V128.462Z" fill="url(#paint19_linear_301_4096)"/>
<path style="mix-blend-mode:multiply" opacity="0.37" d="M159.184 87.2366L109.3 128.463C106.836 130.499 103.321 130.649 100.693 128.83L34.0051 82.6758C33.0211 83.4906 32.3906 84.7212 32.3906 86.1039V97.4271C34.8 96.4141 36.8388 96.2195 38.4958 96.3581C43.0771 96.7413 44.1713 99.6028 52.944 103.734C61.1468 107.597 62.0071 105.951 65.6233 108.75C72.5899 114.144 69.5429 120.368 75.6486 126.158C82.0065 132.188 87.4924 127.508 96.5838 133.24C106.191 139.297 103.116 146.446 111.032 150.648C122.123 156.535 133.449 145.31 142.877 151.238C145.728 153.031 147.55 155.856 148.725 158.943L156.219 158.38C158.538 158.206 160.331 156.272 160.331 153.944V90.213C160.331 89.0691 159.895 88.0261 159.184 87.236V87.2366Z" fill="url(#paint20_linear_301_4096)"/>
<path d="M69.8066 62.579C70.3545 62.8573 71.0422 62.602 71.3433 62.0083C71.6444 61.4151 71.4446 60.7081 70.8966 60.4298C70.8684 60.4157 70.8395 60.4033 70.81 60.3915C70.912 60.0631 70.9886 59.7323 71.0398 59.4009C71.0711 59.4009 71.1029 59.4003 71.1347 59.3974C71.7593 59.3414 72.2555 58.7671 72.2425 58.1138C72.2295 57.4605 71.7122 56.9764 71.0876 57.0324C71.0552 57.0353 71.0228 57.0406 70.9909 57.046C70.9255 56.7222 70.8366 56.4062 70.7234 56.1002C70.7523 56.0831 70.7806 56.066 70.8089 56.0465C71.3433 55.6715 71.5142 54.9321 71.1907 54.3944C70.8666 53.8567 70.1713 53.7246 69.6363 54.0996C69.6086 54.119 69.5832 54.1397 69.5579 54.1603C69.347 53.9268 69.1154 53.7104 68.8644 53.5129C68.882 53.484 68.8991 53.4545 68.915 53.4239C69.2161 52.8307 69.6097 52.1821 69.0576 51.9127C67.7807 51.2888 67.2327 51.823 66.9316 52.4162C66.9163 52.4469 66.9028 52.4781 66.8898 52.5094C66.5828 52.4233 66.2711 52.3643 65.9582 52.3313C65.96 52.2983 65.9618 52.2653 65.9612 52.2316C65.9482 51.5783 66.1415 51.2252 65.5145 51.2128C64.1469 51.1862 63.6855 51.78 63.6985 52.4333C63.6991 52.4675 63.702 52.5005 63.7055 52.5341C63.3921 52.6237 63.0845 52.7375 62.7846 52.8761C62.7704 52.8472 62.7557 52.8183 62.7386 52.79C62.4151 52.2523 61.7192 52.1202 61.1842 52.4952C60.6497 52.8702 60.4789 53.6096 60.8024 54.1473C60.8188 54.1751 60.8371 54.2004 60.8554 54.2264C60.6185 54.4634 60.397 54.7205 60.1919 54.9964C60.1654 54.9799 60.1383 54.9634 60.11 54.9492C59.562 54.6709 58.8744 54.9262 58.5733 55.52C58.2722 56.1132 58.4719 56.8201 59.0199 57.0984C59.0482 57.1126 59.0771 57.125 59.1065 57.1368C59.0046 57.4652 58.928 57.796 58.8767 58.1273C58.8455 58.1273 58.8137 58.1273 58.7818 58.1309C58.1567 58.1869 57.6611 58.7612 57.6741 59.4145C57.687 60.0678 58.2044 60.5519 58.829 60.4959C58.8614 60.4929 58.8938 60.4876 58.9256 60.4823C58.991 60.806 59.0806 61.122 59.1931 61.4281C59.1643 61.4452 59.136 61.4623 59.1077 61.4817C58.5733 61.8567 58.4024 62.5961 58.7259 63.1339C59.0494 63.6716 60.1218 63.9216 60.6562 63.5466C60.6833 63.5271 60.3333 63.3892 60.3587 63.3679C60.5696 63.6014 60.8012 63.8178 61.0522 64.0153C61.0345 64.0442 61.0174 64.0737 61.0015 64.1044C60.7004 64.6975 60.9002 65.4045 61.4482 65.6828C61.9962 65.9611 62.6838 65.7058 62.9849 65.1121C63.0002 65.0814 63.0138 65.0501 63.0267 65.0189C63.3337 65.105 63.6454 65.1639 63.9583 65.197C63.9566 65.23 63.9548 65.263 63.9554 65.2966C63.9684 65.9499 64.4857 66.434 65.1103 66.378C65.7349 66.322 66.231 65.7477 66.2181 65.0944C66.2175 65.0602 66.2145 65.0271 66.211 64.9935C66.5245 64.9039 66.8321 64.7895 67.132 64.6516C67.1461 64.6804 67.1609 64.7099 67.178 64.7376C67.5014 65.2754 68.1973 65.4075 68.7324 65.0325C69.2668 64.6574 69.4377 63.9181 69.1142 63.3803C69.0977 63.3526 69.0794 63.3273 69.0612 63.3019C69.298 63.0649 69.5196 62.8078 69.7247 62.5318C69.7512 62.5484 69.7783 62.5649 69.8066 62.579V62.579ZM62.979 62.6657C60.9903 61.6551 60.2644 59.0896 61.358 56.9351C62.4511 54.7806 64.9495 53.8525 66.9381 54.8632C68.9268 55.8732 69.6528 58.4392 68.5591 60.5937C67.4661 62.7482 64.9677 63.6763 62.979 62.6657Z" fill="#D8DEE3"/>
<path d="M71.1352 59.3981C71.7598 59.3421 72.2559 58.7678 72.2429 58.1145C72.23 57.4612 71.7126 56.9771 71.088 57.0331C71.0556 57.0361 71.0232 57.0414 70.9914 57.0467C70.926 56.723 70.8364 56.4069 70.7239 56.1009C70.7528 56.0844 70.781 56.0667 70.8093 56.0473C71.3438 55.6723 72.0055 54.7666 71.6284 54.2654C70.9124 53.3132 70.1718 53.7253 69.6373 54.1003C69.6096 54.1198 69.5843 54.1404 69.559 54.161C69.348 53.9276 69.1164 53.7112 68.8654 53.5136C68.8831 53.4847 68.9002 53.4553 68.9161 53.4246C69.0799 53.1015 69.0946 52.7453 68.9862 52.4429C68.47 53.3521 67.9603 54.2654 67.4601 55.184C69.0463 56.3474 69.5519 58.6399 68.5602 60.5945C67.7199 62.2507 66.0494 63.1806 64.4184 63.0638C64.3459 63.2525 64.274 63.4424 64.1963 63.6293C63.9847 64.137 63.7449 64.6334 63.5039 65.1299C63.6553 65.1582 63.8074 65.1806 63.9594 65.1971C63.9576 65.2301 63.9559 65.2631 63.9565 65.2967C63.9694 65.95 64.366 66.5049 65.4985 66.4448C66.1249 66.4117 66.2327 65.7484 66.2197 65.0951C66.2191 65.0609 66.2162 65.0279 66.2127 64.9943C66.5261 64.9046 66.8337 64.7903 67.1336 64.6523C67.1478 64.6812 67.1625 64.7107 67.1796 64.7384C67.5031 65.2761 68.6268 65.5043 69.1612 65.1299C69.6957 64.7549 69.4393 63.9188 69.1159 63.381C69.0994 63.3533 69.0811 63.328 69.0628 63.302C69.2997 63.065 69.5212 62.8079 69.7263 62.532C69.7528 62.5485 69.7799 62.565 69.8082 62.5792C70.3562 62.8575 71.0439 62.6022 71.345 62.0084C71.6461 61.4152 71.4463 60.7083 70.8983 60.43C70.87 60.4158 70.8411 60.4034 70.8117 60.3916C70.9136 60.0632 70.9902 59.7324 71.0415 59.4011C71.0727 59.4011 71.1045 59.4005 71.1364 59.3975L71.1352 59.3981Z" fill="#D8DEE3"/>
<path d="M70.3944 62.6456C70.9419 62.9239 71.6301 62.6686 71.9312 62.0748C72.2323 61.4816 72.0325 60.7747 71.4845 60.4964C71.4563 60.4822 71.4274 60.4698 71.3979 60.458C71.4998 60.1296 71.5764 59.7988 71.6277 59.4675C71.6589 59.4675 71.6908 59.4669 71.7226 59.4639C72.3472 59.4085 72.8433 58.8336 72.8304 58.1803C72.8174 57.527 72.3 57.0429 71.6754 57.0989C71.643 57.1019 71.6106 57.1072 71.5788 57.1125C71.5134 56.7888 71.4239 56.4727 71.3113 56.1667C71.3402 56.1496 71.3684 56.1325 71.3967 56.1131C71.9312 55.7381 72.1021 54.9987 71.7786 54.4609C71.4551 53.9232 70.7592 53.7911 70.2241 54.1661C70.1965 54.1856 70.1711 54.2062 70.1458 54.2269C69.9348 53.9934 69.7033 53.777 69.4522 53.5794C69.4699 53.5506 69.487 53.5211 69.5029 53.4904C69.804 52.8973 69.6043 52.1903 69.0563 51.912C68.5089 51.6337 67.8206 51.889 67.5195 52.4827C67.5042 52.5134 67.4907 52.5447 67.4777 52.5759C67.1707 52.4898 66.859 52.4309 66.5461 52.3978C66.5479 52.3648 66.5496 52.3318 66.549 52.2982C66.5361 51.6449 66.0187 51.1608 65.3941 51.2168C64.7689 51.2728 64.2734 51.8471 64.2864 52.5004C64.2869 52.5346 64.2899 52.5676 64.2934 52.6013C63.98 52.6909 63.6724 52.8053 63.3725 52.9432C63.3583 52.9143 63.3436 52.8855 63.3265 52.8572C63.0024 52.3194 62.3071 52.1873 61.7721 52.5623C61.2376 52.9373 61.0667 53.6767 61.3902 54.2145C61.4067 54.2422 61.425 54.2675 61.4433 54.2929C61.2064 54.5299 60.9849 54.787 60.7798 55.063C60.7533 55.0464 60.7262 55.0299 60.6979 55.0158C60.1499 54.7375 59.4622 54.9928 59.1611 55.5865C58.86 56.1797 59.0598 56.8867 59.6078 57.165C59.6361 57.1791 59.6649 57.1915 59.6944 57.2033C59.5924 57.5317 59.5159 57.8625 59.4646 58.1939C59.4334 58.1939 59.4015 58.1945 59.3697 58.1974C58.7445 58.2534 58.249 58.8277 58.262 59.481C58.2749 60.1343 58.7923 60.6184 59.4169 60.5624C59.4493 60.5595 59.4817 60.5542 59.5135 60.5488C59.5789 60.8726 59.6685 61.1886 59.781 61.4946C59.7521 61.5117 59.7239 61.5288 59.6956 61.5483C59.1611 61.9233 58.9902 62.6627 59.3137 63.2004C59.6372 63.7381 60.3332 63.8702 60.8682 63.4952C60.8953 63.4758 60.9212 63.4551 60.9465 63.4345C61.1575 63.668 61.389 63.8844 61.6401 64.0819C61.6224 64.1108 61.6053 64.1403 61.5894 64.1709C61.2883 64.7641 61.4881 65.4711 62.036 65.7494C62.584 66.0277 63.2717 65.7723 63.5728 65.1786C63.5881 65.1479 63.6017 65.1167 63.6146 65.0854C63.9216 65.1715 64.2333 65.2305 64.5462 65.2635C64.5445 65.2965 64.5427 65.3295 64.5433 65.3631C64.5562 66.0165 65.0736 66.5005 65.6982 66.4445C66.3228 66.3885 66.8189 65.8142 66.806 65.1609C66.8054 65.1267 66.8024 65.0931 66.7989 65.0601C67.1124 64.9705 67.4199 64.8561 67.7199 64.7181C67.734 64.747 67.7487 64.7759 67.7658 64.8042C68.0899 65.3419 68.7852 65.474 69.3203 65.099C69.8547 64.724 70.0256 63.9846 69.7021 63.4469C69.6856 63.4191 69.6673 63.3938 69.6491 63.3684C69.8859 63.1314 70.1075 62.8743 70.3125 62.5984C70.339 62.6149 70.3662 62.6314 70.3944 62.6456V62.6456ZM63.5669 62.7322C61.5782 61.7222 60.8523 59.1561 61.9459 57.0016C63.0389 54.8471 65.5373 53.9191 67.526 54.9297C69.5147 55.9397 70.2407 58.5058 69.147 60.6603C68.054 62.8148 65.5556 63.7429 63.5669 62.7322Z" fill="white"/>
<path style="mix-blend-mode:multiply" opacity="0.3" d="M44.5547 97.3833V166.763L52.7817 174.254L68.2139 161.889L44.5547 97.3833Z" fill="url(#paint21_linear_301_4096)"/>
<path d="M84.7639 98.7865L91.8702 170.301C91.9762 171.366 91.2432 172.297 90.2391 172.37L55.6165 175.272C53.5058 175.347 52.3668 174.209 52.2525 173.082L44.5535 97.3838C44.438 96.2464 45.4922 95.2405 47.6246 95.2836L82.7192 96.7641C83.7392 96.8024 84.6584 97.7128 84.7651 98.7865H84.7639Z" fill="url(#paint22_linear_301_4096)"/>
<path d="M86.3387 98.6951L93.4744 170.578C93.5805 171.648 92.8451 172.584 91.8369 172.658L55.9415 175.291C54.8208 175.373 53.8073 174.514 53.6918 173.381L45.958 97.2818C45.8419 96.1385 46.681 95.2387 47.82 95.2818L84.284 96.6621C85.3081 96.701 86.2309 97.6161 86.3381 98.6957L86.3387 98.6951Z" fill="#26264A"/>
<path d="M85.5819 102.661L92.2003 169.286C92.2998 170.286 91.611 171.16 90.6677 171.227L56.9059 173.628C55.8635 173.703 54.9213 172.9 54.8141 171.845L47.676 101.556C47.5682 100.492 48.3472 99.649 49.4048 99.6826L83.6616 100.773C84.6185 100.804 85.4817 101.654 85.5819 102.662V102.661Z" fill="url(#paint23_linear_301_4096)"/>
<path d="M67.4242 98.2547C67.4625 98.6391 67.1914 98.941 66.8178 98.928C66.4437 98.9156 66.109 98.5931 66.0701 98.2075C66.0312 97.8225 66.3034 97.5206 66.6776 97.5341C67.0512 97.5477 67.3853 97.8702 67.4236 98.2547H67.4242Z" fill="white"/>
<g opacity="0.66">
<path d="M64.2274 117.608C60.1916 119.709 58.464 124.382 60.3684 128.043C62.2729 131.705 67.0881 132.971 71.1233 130.869L64.2274 117.608V117.608Z" fill="#F4F7F9"/>
<path d="M71.1225 130.869L64.2266 117.608C66.1057 116.63 68.422 117.361 69.3995 119.241L72.7547 125.693C73.7322 127.574 73.0016 129.892 71.1225 130.87V130.869Z" fill="#F4F7F9"/>
<path d="M74.0086 136.845C69.9729 138.946 68.2452 143.618 70.1497 147.28C72.0541 150.942 76.8694 152.207 80.9045 150.106L74.0086 136.845V136.845Z" fill="#F4F7F9"/>
<path d="M80.9056 150.106L74.0098 136.845C75.8889 135.866 78.2052 136.598 79.1827 138.478L82.5379 144.93C83.5154 146.811 82.7847 149.128 80.9056 150.107V150.106Z" fill="#F4F7F9"/>
<path d="M75.0679 146.054L70.8707 148.239C65.5075 143.014 61.883 136.044 59.998 127.331L64.1952 125.146L75.0679 146.054Z" fill="#F4F7F9"/>
</g>
<g style="mix-blend-mode:soft-light" opacity="0.3">
<g style="mix-blend-mode:soft-light">
<path d="M64.1007 133.343C60.5335 122.795 66.7429 117.481 63.2263 107.712C61.313 102.397 57.4836 98.4369 53.2699 95.4881L47.82 95.2818C46.681 95.2387 45.8419 96.1385 45.958 97.2818L53.6918 173.381C53.8067 174.514 54.8208 175.374 55.9409 175.291L86.9315 173.018C86.8343 165.072 84.8167 159.417 82.5735 155.397C76.4082 144.351 67.7947 144.265 64.1007 133.343Z" fill="#F4F7F9"/>
</g>
</g>
<defs>
<linearGradient id="paint0_linear_301_4096" x1="167.489" y1="53.871" x2="146.199" y2="110.98" gradientUnits="userSpaceOnUse">
<stop stop-color="#93AFDA"/>
<stop offset="1" stop-color="#6F8AB4"/>
</linearGradient>
<linearGradient id="paint1_linear_301_4096" x1="24.1426" y1="60.8914" x2="113.889" y2="60.8914" gradientUnits="userSpaceOnUse">
<stop stop-color="#AFB3B7"/>
<stop offset="1" stop-color="#95A6C4"/>
</linearGradient>
<linearGradient id="paint2_linear_301_4096" x1="66.5062" y1="82.9121" x2="49.6121" y2="128.23" gradientUnits="userSpaceOnUse">
<stop stop-color="#93AFDA"/>
<stop offset="1" stop-color="#6F8AB4"/>
</linearGradient>
<linearGradient id="paint3_linear_301_4096" x1="65.7556" y1="129.122" x2="109.265" y2="129.122" gradientUnits="userSpaceOnUse">
<stop stop-color="#AFB3B7"/>
<stop offset="1" stop-color="#95A6C4"/>
</linearGradient>
<linearGradient id="paint4_linear_301_4096" x1="137.995" y1="28.2502" x2="141.242" y2="-51.0221" gradientUnits="userSpaceOnUse">
<stop stop-color="#CCCFD4"/>
<stop offset="1" stop-color="#999CA0"/>
</linearGradient>
<linearGradient id="paint5_linear_301_4096" x1="100.248" y1="6.03533" x2="96.9311" y2="12.0088" gradientUnits="userSpaceOnUse">
<stop stop-color="#355278"/>
<stop offset="1" stop-color="#3E4170"/>
</linearGradient>
<linearGradient id="paint6_linear_301_4096" x1="99.9973" y1="6.16034" x2="96.7316" y2="12.0422" gradientUnits="userSpaceOnUse">
<stop stop-color="#355278"/>
<stop offset="1" stop-color="#3E4170"/>
</linearGradient>
<linearGradient id="paint7_linear_301_4096" x1="104.795" y1="14.4835" x2="98.3529" y2="47.2464" gradientUnits="userSpaceOnUse">
<stop stop-color="#355278"/>
<stop offset="1" stop-color="#3E4170"/>
</linearGradient>
<linearGradient id="paint8_linear_301_4096" x1="108.79" y1="13.606" x2="102.157" y2="47.3403" gradientUnits="userSpaceOnUse">
<stop stop-color="#355278"/>
<stop offset="1" stop-color="#3E4170"/>
</linearGradient>
<linearGradient id="paint9_linear_301_4096" x1="104.969" y1="13.4274" x2="98.2914" y2="47.3879" gradientUnits="userSpaceOnUse">
<stop stop-color="#355278"/>
<stop offset="1" stop-color="#3E4170"/>
</linearGradient>
<linearGradient id="paint10_linear_301_4096" x1="107.252" y1="132.121" x2="109.502" y2="79.1338" gradientUnits="userSpaceOnUse">
<stop stop-color="#232525"/>
<stop offset="1" stop-color="#3F5B82"/>
</linearGradient>
<linearGradient id="paint11_linear_301_4096" x1="102.2" y1="81.9627" x2="100.086" y2="36.3363" gradientUnits="userSpaceOnUse">
<stop stop-color="#CCCFD4"/>
<stop offset="1" stop-color="#999CA0"/>
</linearGradient>
<linearGradient id="paint12_linear_301_4096" x1="115.697" y1="16.3098" x2="109.336" y2="48.6592" gradientUnits="userSpaceOnUse">
<stop stop-color="#355278"/>
<stop offset="1" stop-color="#3E4170"/>
</linearGradient>
<linearGradient id="paint13_linear_301_4096" x1="115.697" y1="16.3098" x2="109.336" y2="48.6592" gradientUnits="userSpaceOnUse">
<stop stop-color="#355278"/>
<stop offset="1" stop-color="#3E4170"/>
</linearGradient>
<linearGradient id="paint14_linear_301_4096" x1="100.606" y1="48.6494" x2="91.9003" y2="-20.257" gradientUnits="userSpaceOnUse">
<stop stop-color="#CCCFD4"/>
<stop offset="1" stop-color="#999CA0"/>
</linearGradient>
<linearGradient id="paint15_linear_301_4096" x1="131.736" y1="98.8955" x2="140.722" y2="-3.96928" gradientUnits="userSpaceOnUse">
<stop stop-color="#93AFDA"/>
<stop offset="0.71" stop-color="#7994BF"/>
<stop offset="1" stop-color="#6F8AB4"/>
</linearGradient>
<linearGradient id="paint16_linear_301_4096" x1="56.6345" y1="124.026" x2="3.85363" y2="129.625" gradientUnits="userSpaceOnUse">
<stop stop-color="#CCCFD4"/>
<stop offset="1" stop-color="#999CA0"/>
</linearGradient>
<linearGradient id="paint17_linear_301_4096" x1="84.8208" y1="100.972" x2="128.803" y2="198.318" gradientUnits="userSpaceOnUse">
<stop stop-color="#CCCFD4"/>
<stop offset="1" stop-color="#999CA0"/>
</linearGradient>
<linearGradient id="paint18_linear_301_4096" x1="95.2723" y1="113.872" x2="99.6029" y2="19.3189" gradientUnits="userSpaceOnUse">
<stop stop-color="#CCCFD4"/>
<stop offset="1" stop-color="#999CA0"/>
</linearGradient>
<linearGradient id="paint19_linear_301_4096" x1="84.8196" y1="100.972" x2="128.802" y2="198.319" gradientUnits="userSpaceOnUse">
<stop stop-color="#CCCFD4"/>
<stop offset="1" stop-color="#999CA0"/>
</linearGradient>
<linearGradient id="paint20_linear_301_4096" x1="97.2661" y1="95.3486" x2="141.248" y2="192.696" gradientUnits="userSpaceOnUse">
<stop stop-color="#CCCFD4"/>
<stop offset="1" stop-color="#999CA0"/>
</linearGradient>
<linearGradient id="paint21_linear_301_4096" x1="44.5547" y1="135.819" x2="68.2139" y2="135.819" gradientUnits="userSpaceOnUse">
<stop stop-color="#7E99C3"/>
<stop offset="1" stop-color="#546CB8"/>
</linearGradient>
<linearGradient id="paint22_linear_301_4096" x1="43.7909" y1="135.124" x2="92.5664" y2="136.094" gradientUnits="userSpaceOnUse">
<stop stop-color="#355278"/>
<stop offset="1" stop-color="#26264A"/>
</linearGradient>
<linearGradient id="paint23_linear_301_4096" x1="69.7784" y1="136.261" x2="43.8184" y2="273.111" gradientUnits="userSpaceOnUse">
<stop stop-color="#93AFDA"/>
<stop offset="1" stop-color="#6F8AB4"/>
</linearGradient>
</defs>
</svg>
