<svg width="138" height="138" viewBox="0 0 138 138" fill="none" xmlns="http://www.w3.org/2000/svg">
<path d="M130.406 68.1391C130.485 33.5814 102.555 5.5034 68.0228 5.42499C33.4911 5.34658 5.43408 33.2975 5.35573 67.8551C5.27738 102.413 33.2074 130.491 67.7391 130.569C102.271 130.648 130.328 102.697 130.406 68.1391Z" fill="url(#paint0_radial_3_3183)"/>
<path d="M69 -3.01609e-06C107.108 -4.68182e-06 138 30.8923 138 69C138 107.108 107.108 138 69 138C30.8924 138 -1.35035e-06 107.108 -3.01609e-06 69C-4.68182e-06 30.8923 30.8923 -1.35035e-06 69 -3.01609e-06ZM69 131.1C103.297 131.1 131.1 103.297 131.1 69C131.1 34.7031 103.297 6.89999 69 6.89999C34.7031 6.89999 6.9 34.7031 6.9 69C6.9 103.297 34.7031 131.1 69 131.1Z" fill="#D9D9D9"/>
<path d="M69 3.44999C69 1.54461 70.5457 -0.00900577 72.4487 0.0862243C82.1479 0.571575 91.6494 3.09991 100.325 7.52055C110.027 12.464 118.422 19.6335 124.822 28.4428C131.223 37.2521 135.447 47.4512 137.15 58.206C138.674 67.8234 138.142 77.6411 135.607 87.0156C135.109 88.8549 133.154 89.8449 131.342 89.2561C129.53 88.6673 128.548 86.7228 129.035 84.8808C131.24 76.5445 131.688 67.8272 130.335 59.2854C128.802 49.606 125 40.4269 119.24 32.4985C113.48 24.5701 105.925 18.1176 97.1928 13.6685C89.4872 9.74228 81.0581 7.47461 72.4483 6.9958C70.5459 6.89001 69 5.35537 69 3.44999Z" fill="#5E7BAC"/>
<path d="M68.5 126C99.7041 126 125 100.256 125 68.5C125 36.7436 99.7041 11 68.5 11C37.2959 11 12 36.7436 12 68.5C12 100.256 37.2959 126 68.5 126Z" stroke="#D1D3D4" stroke-miterlimit="10"/>
<defs>
<radialGradient id="paint0_radial_3_3183" cx="0" cy="0" r="1" gradientUnits="userSpaceOnUse" gradientTransform="translate(123.92 32.1425) rotate(90) scale(219.556 219.391)">
<stop stop-color="white"/>
<stop offset="1" stop-color="#D1D3D4"/>
</radialGradient>
</defs>
</svg>
