<svg width="12" height="13" viewBox="0 0 12 13" fill="none" xmlns="http://www.w3.org/2000/svg">
<path d="M2.93362e-07 6.50144C-0.00102619 3.19493 2.69185 0.500821 5.99836 0.5C9.30528 0.498974 11.9994 3.19185 12 6.49815C12.0006 9.80486 9.30836 12.4988 6.00144 12.5C2.69657 12.5012 0.00102678 9.80712 2.93362e-07 6.50144ZM8.11866 7.54003C8.08828 7.51519 8.05256 7.49076 8.02258 7.46079C7.62451 7.06395 7.22829 6.66547 6.82878 6.27027C6.77171 6.21382 6.7479 6.15777 6.7481 6.07688C6.75118 5.26124 6.74995 4.4456 6.74995 3.62975C6.74995 3.58869 6.74995 3.54742 6.74995 3.51026C6.23999 3.51026 5.74707 3.51026 5.25046 3.51026C5.25046 4.5971 5.24964 5.6743 5.25334 6.75128C5.25354 6.79357 5.287 6.84449 5.31944 6.87692C5.87231 7.43348 6.42743 7.98758 6.98234 8.54209C7.00678 8.56652 7.03326 8.58869 7.05256 8.60634C7.40423 8.25446 7.75139 7.90731 8.11866 7.54003Z" fill="#313654"/>
</svg>
