<svg width="12" height="7" viewBox="0 0 12 7" fill="none" xmlns="http://www.w3.org/2000/svg">
<path d="M0.717412 0.347634C1.15341 -0.0983657 1.76041 -0.133366 2.29341 0.347634L6.20141 4.09463L10.1094 0.347634C10.6424 -0.133367 11.2504 -0.0983666 11.6834 0.347633C12.1194 0.792633 12.0914 1.54463 11.6834 1.96263C11.2774 2.38063 6.98841 6.46463 6.98841 6.46463C6.88628 6.57049 6.76387 6.65468 6.62848 6.71218C6.49309 6.76968 6.34751 6.79932 6.20041 6.79932C6.05332 6.79932 5.90774 6.76968 5.77235 6.71218C5.63696 6.65468 5.51455 6.57049 5.41241 6.46463C5.41241 6.46463 1.12541 2.38063 0.717413 1.96263C0.308412 1.54463 0.281412 0.792634 0.717412 0.347634V0.347634Z" fill="#01966B"/>
</svg>
