<svg width="560" height="511" viewBox="0 0 560 511" fill="none" xmlns="http://www.w3.org/2000/svg">
<path opacity="0.7" fill-rule="evenodd" clip-rule="evenodd" d="M392.814 46.6862C393.926 42.4908 395.603 38.511 397.744 34.8462L391.403 24.7806L405.331 10.8844L415.392 17.2355C419.061 15.1129 423.046 13.4381 427.246 12.3271L429.886 0.73584H449.575L452.198 12.3437C456.399 13.4547 460.383 15.1295 464.052 17.2687L474.129 10.9341L488.042 24.8469L481.683 34.896C483.808 38.5607 485.485 42.5406 486.597 46.736L498.202 49.3726V69.0395L486.581 71.6596C485.468 75.855 483.792 79.8348 481.65 83.4996L487.992 93.5652L474.063 107.461L464.002 101.11C460.333 103.233 456.349 104.908 452.149 106.019L449.509 117.61H429.819L427.196 106.002C422.996 104.891 419.011 103.216 415.342 101.077L405.265 107.412L391.353 93.4989L397.711 83.4498C395.586 79.7851 393.909 75.8052 392.797 71.6098L381.192 68.9732V49.3063L392.814 46.6862V46.6862ZM418.563 58.2774C418.563 69.935 428.01 79.3871 439.664 79.3871C451.335 79.3871 460.798 69.9516 460.798 58.3106C460.798 46.653 451.352 37.201 439.697 37.201C428.026 37.201 418.563 46.6365 418.563 58.2774V58.2774Z" fill="white"/>
<path opacity="0.7" fill-rule="evenodd" clip-rule="evenodd" d="M83.0899 135.287C83.7208 132.932 84.6505 130.694 85.8625 128.637L82.2931 122.983L90.1291 115.172L95.7903 118.737C97.849 117.544 100.09 116.615 102.464 115.985L103.942 109.468H115.015L116.493 115.985C118.85 116.615 121.092 117.544 123.15 118.754L128.811 115.189L136.631 123.016L133.061 128.67C134.257 130.727 135.186 132.965 135.817 135.337L142.342 136.812V147.873L135.817 149.349C135.186 151.704 134.257 153.942 133.045 155.999L136.614 161.653L128.778 169.464L123.117 165.898C121.058 167.092 118.817 168.021 116.443 168.651L114.965 175.168H103.892L102.414 168.651C100.057 168.021 97.8158 167.092 95.7571 165.882L90.0959 169.447L82.2765 161.62L85.8458 155.965C84.6505 153.909 83.7208 151.67 83.0899 149.299L76.5654 147.823V136.763L83.0899 135.287V135.287ZM97.5667 141.804C97.5667 148.354 102.879 153.66 109.437 153.677C115.995 153.677 121.307 148.371 121.324 141.82C121.324 135.27 116.011 129.964 109.454 129.947C102.896 129.947 97.5833 135.254 97.5667 141.804V141.804Z" fill="white"/>
<path opacity="0.7" fill-rule="evenodd" clip-rule="evenodd" d="M423.395 482.676C423.826 481.051 424.474 479.508 425.304 478.082L422.847 474.185L428.242 468.796L432.144 471.25C433.572 470.421 435.115 469.774 436.742 469.343L437.772 464.849H445.409L446.421 469.343C448.048 469.774 449.592 470.421 451.02 471.25L454.921 468.796L460.317 474.185L457.86 478.082C458.69 479.508 459.338 481.051 459.769 482.676L464.268 483.704V491.332L459.769 492.343C459.338 493.968 458.69 495.511 457.86 496.937L460.317 500.834L454.921 506.223L451.02 503.769C449.592 504.598 448.048 505.245 446.421 505.676L445.392 510.17H437.755L436.742 505.676C435.115 505.245 433.572 504.598 432.144 503.769L428.242 506.223L422.847 500.834L425.304 496.937C424.474 495.511 423.826 493.968 423.395 492.343L418.896 491.315V483.687L423.395 482.676ZM433.389 487.17C433.389 491.697 437.058 495.361 441.574 495.361C446.106 495.361 449.775 491.697 449.775 487.186C449.775 482.659 446.106 478.994 441.59 478.994C437.058 478.994 433.389 482.659 433.389 487.17Z" fill="white"/>
<path d="M397.129 325.788C404.036 305.209 422.613 290.848 441.506 280.119C460.399 269.407 480.919 260.784 496.724 245.876C509.623 233.721 518.804 217.653 522.722 200.373C526.076 185.598 524.332 167.523 511.732 159.083C504.045 153.926 493.835 153.66 485.036 156.546C476.237 159.431 468.65 165.119 461.743 171.271C420.289 208.167 399.321 262.243 379.814 314.18C378.253 318.342 376.659 322.703 377.224 327.114C377.788 331.525 381.274 335.903 385.724 335.837C390.173 335.77 393.444 329.353 390.024 326.501" fill="#6679A8"/>
<path d="M528.533 151.04C528.533 151.04 449.774 200.805 374.816 351.739" stroke="white" stroke-width="0.5" stroke-miterlimit="10"/>
<path d="M484.953 188.915C484.953 188.915 482.596 154.373 487.626 137.21" stroke="white" stroke-width="0.5" stroke-miterlimit="10"/>
<path d="M475.19 200.705C475.19 200.705 521.692 215.447 546.047 205.133" stroke="white" stroke-width="0.5" stroke-miterlimit="10"/>
<path d="M493.32 181.552C493.32 181.552 539.855 186.709 554.747 174.123" stroke="white" stroke-width="0.5" stroke-miterlimit="10"/>
<path d="M465.595 209.693C465.595 209.693 450.554 179.43 450.172 158.552" stroke="white" stroke-width="0.5" stroke-miterlimit="10"/>
<path d="M453.924 224.75C453.924 224.75 515.666 248.347 537.282 227.702" stroke="white" stroke-width="0.5" stroke-miterlimit="10"/>
<path d="M445.308 236.059C445.308 236.059 418.28 198.848 420.256 176.412" stroke="white" stroke-width="0.5" stroke-miterlimit="10"/>
<path d="M439.049 245.81C439.049 245.81 481.151 267.616 495.445 264.565" stroke="white" stroke-width="0.5" stroke-miterlimit="10"/>
<path d="M430.549 255.428C430.549 255.428 397.628 231.383 393.062 214.17" stroke="white" stroke-width="0.5" stroke-miterlimit="10"/>
<path d="M422.912 269.059C422.912 269.059 461.528 292.341 490.565 288.51" stroke="white" stroke-width="0.5" stroke-miterlimit="10"/>
<path d="M413.084 281.96C413.084 281.96 374.119 255.278 369.438 239.757" stroke="white" stroke-width="0.5" stroke-miterlimit="10"/>
<path d="M430.6 322.338C434.152 308.691 446.056 298.559 459.022 292.987C471.988 287.415 486.182 285.558 500.012 282.706C513.841 279.854 527.919 275.725 538.644 266.555C543.343 262.542 547.393 257.368 548.456 251.299C549.518 245.229 546.879 238.232 541.251 235.694C532.352 231.665 523.039 239.823 516.298 246.888C499.779 264.15 480.804 279.074 460.118 291.064" fill="#313654"/>
<path d="M241.023 420.939C227.526 395.153 199.901 380.063 172.624 369.864C145.347 359.666 116.36 352.585 92.2875 336.202C72.631 322.819 57.0917 303.501 48.2595 281.462C40.7057 262.608 39.1783 238.331 54.0702 224.501C63.1513 216.061 76.6154 213.557 88.8676 215.514C101.12 217.47 112.359 223.407 122.802 230.09C185.474 270.186 224.654 337.329 261.46 401.952C264.415 407.125 267.437 412.581 267.619 418.534C267.802 424.487 264.116 431.021 258.206 431.883C252.296 432.745 246.618 424.919 250.536 420.425" fill="#313654"/>
<path d="M30.1465 217.387C30.1465 217.387 144.915 266.638 276.019 450.605" stroke="white" stroke-width="0.5" stroke-miterlimit="10"/>
<path d="M95.841 258.33C95.841 258.33 91.6408 212.114 81.3643 190.457" stroke="white" stroke-width="0.5" stroke-miterlimit="10"/>
<path d="M111.263 271.878C111.263 271.878 52.8413 301.212 18.4258 292.689" stroke="white" stroke-width="0.5" stroke-miterlimit="10"/>
<path d="M83.2063 250.337C83.2063 250.337 22.7093 266.986 0.330078 253.455" stroke="white" stroke-width="0.5" stroke-miterlimit="10"/>
<path d="M125.873 281.745C125.873 281.745 139.37 238.514 135.469 210.788" stroke="white" stroke-width="0.5" stroke-miterlimit="10"/>
<path d="M144.5 299.206C144.5 299.206 67.7661 343.465 34.7949 320.713" stroke="white" stroke-width="0.5" stroke-miterlimit="10"/>
<path d="M158.279 312.356C158.279 312.356 186.17 257.401 178.816 228.133" stroke="white" stroke-width="0.5" stroke-miterlimit="10"/>
<path d="M168.622 323.947C168.622 323.947 117.505 361.689 97.9316 360.661" stroke="white" stroke-width="0.5" stroke-miterlimit="10"/>
<path d="M181.92 334.875C181.92 334.875 220.42 296.105 222.827 272.375" stroke="white" stroke-width="0.5" stroke-miterlimit="10"/>
<path d="M194.886 351.292C194.886 351.292 148.7 390.244 109.47 391.306" stroke="white" stroke-width="0.5" stroke-miterlimit="10"/>
<path d="M210.658 366.316C210.658 366.316 256.595 322.77 259.501 301.262" stroke="white" stroke-width="0.5" stroke-miterlimit="10"/>
<path d="M356.257 340.181C363.993 330.961 378.105 331.575 390.058 332.985C385.493 333.283 381.458 328.69 381.84 324.146C382.222 319.602 386.456 315.871 391.004 315.49C395.553 315.108 400.069 317.729 402.543 321.576C398.459 316.535 394.258 311.278 392.781 304.96C391.303 298.659 393.445 290.997 399.305 288.212C404.17 285.907 410.163 287.598 414.347 290.997C418.53 294.38 421.27 299.173 423.909 303.865C423.893 295.757 419.593 288.344 415.442 281.379C411.292 274.415 407.009 266.986 407.025 258.877C407.025 250.768 413.151 242.079 421.27 242.394C429.338 242.709 434.485 251.017 437.29 258.562C442.586 272.757 444.944 288.062 444.147 303.186C446.106 287.233 451.319 271.695 459.387 257.799C460.367 256.124 461.463 254.383 463.173 253.454C466.078 251.879 469.93 253.255 472.038 255.809C474.163 258.363 474.91 261.762 475.309 265.046C476.936 278.179 474.047 291.827 467.223 303.186C471.972 299.67 474.196 293.75 475.989 288.129C477.799 282.507 479.592 276.537 483.892 272.475C488.192 268.412 495.911 267.317 499.713 271.844C502.32 274.962 502.22 279.506 501.423 283.485C499.547 292.755 494.5 301.362 487.312 307.53C493.82 300.383 501.772 294.546 510.571 290.517C513.924 288.974 517.809 287.681 521.229 289.09C527.687 291.727 527.156 301.511 522.989 307.116C518.822 312.721 512.364 316.501 509.077 322.67C517.411 313.699 531.721 310.896 542.845 316.07C553.951 321.244 560.991 334.013 559.463 346.151C510.322 346.682 461.18 347.212 412.056 347.743C392.25 347.959 372.444 348.174 352.671 347.047" fill="#535253"/>
<path d="M173.752 417.456C169.386 400.625 154.677 388.122 138.689 381.256C122.702 374.375 105.187 372.086 88.1367 368.587C71.0867 365.072 53.7046 359.964 40.4729 348.655C34.6955 343.713 29.6817 337.329 28.3702 329.834C27.0587 322.338 30.3126 313.732 37.2522 310.581C48.226 305.607 59.7144 315.689 68.0319 324.395C88.419 345.703 111.828 364.11 137.328 378.885" fill="#6679A8"/>
<path d="M45.0557 426.61C53.9875 415.964 70.2905 416.677 84.0866 418.302C78.8238 418.65 74.1587 413.344 74.5904 408.104C75.0386 402.847 79.9195 398.552 85.1657 398.121C90.4285 397.69 95.6415 400.708 98.4804 405.152C93.7655 399.331 88.9011 393.262 87.2077 385.966C85.5143 378.686 87.988 369.831 94.745 366.631C100.356 363.961 107.296 365.934 112.11 369.848C116.942 373.761 120.096 379.3 123.151 384.706C123.117 375.336 118.17 366.78 113.372 358.737C108.574 350.695 103.644 342.121 103.644 332.752C103.644 323.383 110.733 313.351 120.096 313.715C129.41 314.08 135.353 323.665 138.607 332.387C144.716 348.788 147.439 366.448 146.526 383.926C148.784 365.503 154.81 347.561 164.124 331.509C165.253 329.568 166.515 327.562 168.49 326.484C171.86 324.66 176.293 326.252 178.734 329.204C181.174 332.139 182.054 336.069 182.519 339.866C184.395 355.039 181.058 370.809 173.189 383.91C178.684 379.847 181.24 373.015 183.316 366.514C185.391 360.014 187.483 353.132 192.447 348.439C197.411 343.747 206.326 342.47 210.709 347.71C213.714 351.308 213.614 356.565 212.668 361.158C210.493 371.871 204.666 381.804 196.381 388.934C203.885 380.676 213.083 373.943 223.243 369.284C227.111 367.509 231.61 366.017 235.545 367.626C243.016 370.677 242.401 381.969 237.587 388.437C232.772 394.904 225.318 399.282 221.533 406.396C231.162 396.031 247.697 392.798 260.531 398.784C273.364 404.771 281.499 419.496 279.722 433.525C222.977 434.138 166.216 434.752 109.471 435.365C86.6101 435.614 63.7162 435.863 40.8887 434.553" fill="#535253"/>
<path d="M409.365 74.3955L407.008 443.242C407.008 445.365 406.759 447.438 406.344 449.427C406.128 450.422 405.879 451.384 405.563 452.346C405.397 452.827 405.231 453.308 405.065 453.789C404.019 456.591 402.558 459.195 400.782 461.549C399.886 462.727 398.906 463.838 397.86 464.866C396.814 465.894 395.685 466.839 394.507 467.735C393.726 468.315 392.896 468.862 392.05 469.376C391.203 469.89 390.34 470.355 389.443 470.769C388.098 471.399 386.704 471.947 385.259 472.378C384.296 472.66 383.334 472.925 382.321 473.107C380.312 473.505 378.237 473.704 376.112 473.688L224.637 472.726C222.396 472.726 220.221 472.461 218.112 471.98C217.764 471.897 217.432 471.831 217.083 471.731C216.701 471.632 216.319 471.532 215.937 471.416C214.344 470.935 212.833 470.338 211.372 469.625C210.625 469.26 209.928 468.879 209.23 468.464C208.915 468.282 208.583 468.083 208.284 467.884C207.62 467.469 206.972 467.005 206.342 466.524C204.383 465.048 202.606 463.324 201.062 461.433C200.448 460.67 199.85 459.891 199.319 459.062C198.506 457.835 197.775 456.541 197.128 455.198C196.264 453.407 195.584 451.517 195.102 449.56C194.488 447.089 194.156 444.536 194.172 441.882L196.53 73.0357C196.646 56.1381 210.459 42.474 227.409 42.5901L378.884 43.5519C395.835 43.6514 409.481 57.4813 409.365 74.3955V74.3955Z" fill="#3C3D3F"/>
<path d="M402.608 74.3625L400.251 443.209C400.251 444.834 400.068 446.476 399.736 448.051C399.603 448.764 399.404 449.477 399.155 450.257L398.707 451.567C397.96 453.59 396.848 455.613 395.42 457.487C394.723 458.399 393.959 459.278 393.129 460.09C392.365 460.853 391.469 461.616 390.489 462.345C390.024 462.677 389.476 463.059 388.829 463.456L388.58 463.622C388.049 463.937 387.517 464.252 386.936 464.534L386.538 464.7C385.608 465.148 384.629 465.529 383.632 465.861L383.3 465.96C382.504 466.193 381.756 466.375 381.026 466.541C379.416 466.839 377.789 466.989 376.162 466.989L224.687 466.027C222.977 466.027 221.267 465.828 219.607 465.463C219.042 465.33 218.478 465.198 217.93 465.032C216.685 464.667 215.489 464.186 214.294 463.606C213.729 463.324 213.165 463.025 212.684 462.727C212.401 462.561 212.186 462.445 212.003 462.312L211.853 462.213C211.438 461.947 210.974 461.632 210.393 461.201C208.898 460.057 207.504 458.714 206.259 457.205C205.744 456.575 205.312 455.994 204.914 455.397C204.266 454.402 203.685 453.374 203.204 452.363C202.573 451.053 202.075 449.71 201.71 448.333L201.61 447.968C201.129 446.012 200.88 444.005 200.896 441.982L203.254 73.1354C203.337 59.9688 214.161 49.2896 227.36 49.3725L378.835 50.3343C388.912 50.4007 397.512 56.7186 400.981 65.5572C402.061 68.2767 402.642 71.2782 402.625 74.3957L402.608 74.3625Z" fill="white"/>
<g style="mix-blend-mode:multiply" opacity="0.2">
<path d="M407.008 340.994C407.174 339.618 407.407 337.993 407.706 336.152L407.523 365.238C405.996 360.628 404.95 357.245 404.767 356.001C404.319 352.967 405.63 346.566 407.025 340.994H407.008Z" fill="#020202"/>
</g>
<path d="M408.768 167.805L409.05 124.259C412.453 124.276 415.192 127.045 415.159 130.445L414.96 161.703C414.943 165.102 412.171 167.838 408.768 167.805V167.805Z" fill="#3C3D3F"/>
<path d="M199.149 144.674L196.908 144.66C194.75 144.646 193.002 142.877 193.016 140.721L193.106 126.776C193.12 124.62 194.891 122.873 197.049 122.887L199.29 122.902L199.149 144.674Z" fill="#3C3D3F"/>
<path d="M198.972 170.943L196.73 170.928C194.572 170.914 192.824 169.145 192.838 166.989L192.928 153.044C192.942 150.888 194.713 149.142 196.871 149.156L199.112 149.17L198.972 170.943Z" fill="#3C3D3F"/>
<path d="M325.592 59.1895L280.551 58.9076C272.981 58.8578 266.871 52.6891 266.921 45.1108L339.405 45.5752C339.355 53.1368 333.179 59.2392 325.592 59.1895Z" fill="#3C3D3F"/>
<g filter="url(#filter0_d_0_429)">
<path d="M368.657 96.1851H234.88V260.701H368.657V96.1851Z" fill="white"/>
</g>
<path d="M301.869 166.744C316.594 166.744 328.531 154.821 328.531 140.113C328.531 125.404 316.594 113.481 301.869 113.481C287.143 113.481 275.206 125.404 275.206 140.113C275.206 154.821 287.143 166.744 301.869 166.744Z" fill="#6679A8"/>
<path d="M353.931 210.373H249.805V212.977H353.931V210.373Z" fill="#313654"/>
<path d="M353.931 221.185H249.805V223.788H353.931V221.185Z" fill="#313654"/>
<path d="M353.931 231.997H249.805V234.6H353.931V231.997Z" fill="#313654"/>
<path d="M313.954 242.825H249.805V245.429H313.954V242.825Z" fill="#313654"/>
<path fill-rule="evenodd" clip-rule="evenodd" d="M311.73 157.839C311.132 157.325 305.969 156.579 305.371 156.314C304.525 155.849 304.375 156.032 304.375 155.136V154.672C307.48 153.661 309.854 150.51 311.232 146.746C312.444 146.895 313.656 145.983 314.021 144.374C314.37 142.832 313.788 141.34 312.709 140.842C312.809 140.428 312.859 140.146 312.859 140.146C312.859 140.146 313.473 137.509 312.859 135.055C312.46 133.463 312.012 132.501 311.448 131.921C310.435 130.229 308.974 129.234 306.932 128.687C306.932 128.604 306.932 128.538 306.932 128.455C306.932 126.565 304.973 125.006 302.582 125.006C300.192 125.006 298.233 126.548 298.233 128.455C298.233 128.571 298.233 128.671 298.249 128.787C291.393 130.893 291.359 138.189 292.007 140.809C290.878 141.273 290.28 142.782 290.629 144.374C290.994 145.983 292.189 146.895 293.418 146.746C294.73 150.294 296.921 153.312 299.76 154.49V155.136C299.76 156.032 299.611 155.849 298.764 156.314C297.253 156.994 293.401 157.093 292.538 157.839C290.546 158.884 289.948 164.721 289.732 167.49H314.502C314.287 164.721 313.689 158.868 311.697 157.823L311.73 157.839Z" fill="white"/>
<path d="M258.936 181.022L260.845 184.885L265.095 185.499L262.024 188.5L262.737 192.729L258.936 190.739L255.134 192.729L255.848 188.5L252.776 185.499L257.026 184.885L258.936 181.022Z" fill="#313654"/>
<path d="M279.19 181.022L281.099 184.885L285.349 185.499L282.277 188.5L282.991 192.729L279.19 190.739L275.388 192.729L276.102 188.5L273.03 185.499L277.28 184.885L279.19 181.022Z" fill="#313654"/>
<path d="M299.444 181.022L301.354 184.885L305.604 185.499L302.516 188.5L303.246 192.729L299.444 190.739L295.626 192.729L296.357 188.5L293.285 185.499L297.535 184.885L299.444 181.022Z" fill="#313654"/>
<path d="M319.698 184.769L320.113 185.615L320.495 186.394L321.359 186.527L322.288 186.66L321.608 187.307L320.977 187.92L321.126 188.782L321.292 189.711L320.462 189.28L319.682 188.882L318.901 189.28L318.071 189.711L318.237 188.782L318.387 187.92L317.756 187.307L317.092 186.66L318.022 186.527L318.885 186.394L319.267 185.615L319.682 184.769H319.698ZM319.682 181.022L317.773 184.869L313.506 185.482L316.594 188.484L315.863 192.712L319.665 190.706L323.467 192.712L322.736 188.484L325.824 185.482L321.558 184.869L319.649 181.022H319.682Z" fill="#313654"/>
<path d="M339.952 184.769L340.367 185.615L340.749 186.394L341.612 186.527L342.542 186.66L341.861 187.307L341.231 187.92L341.38 188.782L341.546 189.711L340.716 189.28L339.936 188.882L339.155 189.28L338.325 189.711L338.491 188.782L338.641 187.92L338.01 187.307L337.329 186.66L338.259 186.527L339.122 186.394L339.504 185.615L339.919 184.769H339.952ZM339.919 181.022L338.01 184.869L333.76 185.482L336.848 188.484L336.117 192.712L339.919 190.706L343.721 192.712L342.99 188.484L346.078 185.482L341.812 184.869L339.902 181.022H339.919Z" fill="#313654"/>
<g filter="url(#filter1_d_0_429)">
<path d="M368.657 261.049H234.88V425.565H368.657V261.049Z" fill="white"/>
</g>
<path d="M328.303 308.4C330.212 293.816 319.923 280.447 305.322 278.54C290.721 276.633 277.337 286.909 275.428 301.494C273.518 316.078 283.807 329.446 298.408 331.353C313.009 333.261 326.393 322.984 328.303 308.4Z" fill="#313654"/>
<path d="M353.931 375.237H249.805V377.84H353.931V375.237Z" fill="#313654"/>
<path d="M353.931 386.049H249.805V388.652H353.931V386.049Z" fill="#313654"/>
<path d="M353.931 396.861H249.805V399.464H353.931V396.861Z" fill="#313654"/>
<path d="M313.954 407.689H249.805V410.293H313.954V407.689Z" fill="#313654"/>
<path fill-rule="evenodd" clip-rule="evenodd" d="M311.73 322.703C311.132 322.189 305.969 321.443 305.371 321.178C304.525 320.713 304.375 320.896 304.375 320V319.536C307.48 318.525 309.854 315.374 311.232 311.61C312.444 311.759 313.656 310.847 314.021 309.238C314.37 307.68 313.788 306.204 312.709 305.706C312.809 305.292 312.859 305.01 312.859 305.01C312.859 305.01 313.473 302.373 312.859 299.919C312.46 298.327 312.012 297.365 311.448 296.785C310.435 295.093 308.974 294.098 306.932 293.551C306.932 293.468 306.932 293.402 306.932 293.319C306.932 291.429 304.973 289.87 302.582 289.87C300.192 289.87 298.233 291.412 298.233 293.319C298.233 293.435 298.233 293.535 298.249 293.651C291.393 295.757 291.359 303.053 292.007 305.673C290.878 306.137 290.28 307.646 290.629 309.238C290.994 310.847 292.189 311.759 293.418 311.61C294.73 315.158 296.921 318.176 299.76 319.354V320C299.76 320.896 299.611 320.713 298.764 321.178C297.253 321.858 293.401 321.957 292.538 322.703C290.546 323.748 289.948 329.585 289.732 332.371H314.502C314.287 329.602 313.689 323.748 311.697 322.703H311.73Z" fill="white"/>
<path d="M258.936 345.886L260.845 349.749L265.095 350.363L262.024 353.364L262.737 357.593L258.936 355.603L255.134 357.593L255.848 353.364L252.776 350.363L257.026 349.749L258.936 345.886Z" fill="#313654"/>
<path d="M279.19 345.886L281.099 349.749L285.349 350.363L282.277 353.364L282.991 357.593L279.19 355.603L275.388 357.593L276.102 353.364L273.03 350.363L277.28 349.749L279.19 345.886Z" fill="#313654"/>
<path d="M299.444 345.886L301.354 349.749L305.604 350.363L302.516 353.364L303.246 357.593L299.444 355.603L295.626 357.593L296.357 353.364L293.285 350.363L297.535 349.749L299.444 345.886Z" fill="#313654"/>
<path d="M319.698 349.633L320.113 350.479L320.495 351.258L321.359 351.391L322.288 351.524L321.608 352.171L320.977 352.784L321.126 353.646L321.292 354.575L320.462 354.144L319.682 353.746L318.901 354.144L318.071 354.575L318.237 353.646L318.387 352.784L317.756 352.171L317.075 351.524L318.005 351.391L318.868 351.258L319.25 350.479L319.665 349.633H319.698ZM319.665 345.886L317.756 349.733L313.489 350.346L316.577 353.348L315.847 357.576L319.649 355.57L323.45 357.576L322.72 353.348L325.808 350.346L321.541 349.733L319.632 345.886H319.665Z" fill="#313654"/>
<path d="M339.952 349.633L340.367 350.479L340.749 351.258L341.612 351.391L342.542 351.524L341.861 352.171L341.231 352.784L341.38 353.646L341.546 354.575L340.716 354.144L339.936 353.746L339.155 354.144L338.325 354.575L338.491 353.646L338.641 352.784L338.01 352.171L337.329 351.524L338.259 351.391L339.122 351.258L339.504 350.479L339.919 349.633H339.952ZM339.919 345.886L338.01 349.733L333.76 350.346L336.848 353.348L336.117 357.576L339.919 355.57L343.721 357.576L342.99 353.348L346.078 350.346L341.812 349.733L339.902 345.886H339.919Z" fill="#313654"/>
<g filter="url(#filter2_d_0_429)">
<path d="M381.192 163.03H222.329V358.406H381.192V163.03Z" fill="white"/>
</g>
<path d="M315.731 241.059C331.438 233.241 337.825 214.184 329.997 198.496C322.17 182.807 303.091 176.427 287.384 184.246C271.677 192.064 265.29 211.121 273.118 226.809C280.945 242.498 300.024 248.878 315.731 241.059Z" fill="#313654"/>
<path d="M363.627 296.354H239.512V299.455H363.627V296.354Z" fill="#313654"/>
<path d="M363.627 309.238H239.512V312.339H363.627V309.238Z" fill="#313654"/>
<path d="M363.627 322.14H239.512V325.241H363.627V322.14Z" fill="#313654"/>
<path d="M315.963 335.024H239.512V338.125H315.963V335.024Z" fill="#313654"/>
<path fill-rule="evenodd" clip-rule="evenodd" d="M313.639 234.285C313.307 234.036 312.062 233.489 310.668 232.892L308.758 232.063V232.096C307.762 231.682 306.866 231.317 306.384 231.101L306.351 231.068C305.355 230.521 305.172 230.737 305.172 229.675V229.46C306.202 229.294 307.148 229.128 307.38 229.078C307.945 228.946 311.382 226.84 312.311 225.712C312.876 225.016 313.839 221.649 314.386 219.245C315.681 218.93 316.727 217.968 316.993 216.542C317.308 214.933 316.528 213.391 315.2 212.628C315.2 212.081 315.233 211.55 315.233 211.02C315.233 210.655 315.233 210.257 315.233 209.826C315.416 208.599 315.681 206.94 316.013 205.249C316.711 201.734 315.134 199.528 312.212 199.926C311.863 191.784 296.058 198.599 294.049 198.964C289.035 199.876 286.977 196.659 286.977 196.659C285.217 201.684 286.396 206.244 290.198 207.786C290.131 209.08 290.198 210.622 290.297 212.628C288.936 213.375 288.156 214.933 288.471 216.558C288.753 218.018 289.849 218.996 291.194 219.295C291.692 221.533 292.555 224.883 293.219 225.745C294.215 227.039 297.585 228.979 298.15 229.111C298.332 229.161 298.98 229.261 299.744 229.393V229.708C299.744 230.77 299.561 230.554 298.565 231.101L298.532 231.134C297.054 231.798 291.991 233.788 291.277 234.335C288.703 235.181 288.122 240.968 287.857 244.384H317.076C316.81 240.968 316.229 235.197 313.656 234.335L313.639 234.285Z" fill="white"/>
<path d="M256.099 267.318L257.807 270.757L257.924 270.992L258.183 271.03L261.978 271.581L259.234 274.256L259.046 274.439L259.09 274.698L259.734 278.478L256.329 276.692L256.096 276.57L255.864 276.692L252.476 278.476L253.12 274.698L253.164 274.439L252.976 274.256L250.232 271.581L254.027 271.03L254.287 270.992L254.404 270.756L256.099 267.318Z" fill="url(#paint0_linear_0_429)" stroke="url(#paint1_linear_0_429)"/>
<path d="M278.926 267.318L280.634 270.757L280.751 270.992L281.01 271.03L284.806 271.581L282.061 274.256L281.873 274.439L281.917 274.698L282.561 278.478L279.156 276.692L278.923 276.57L278.691 276.692L275.304 278.476L275.947 274.698L275.991 274.439L275.803 274.256L273.059 271.581L276.854 271.03L277.114 270.992L277.231 270.756L278.926 267.318Z" fill="url(#paint2_linear_0_429)" stroke="url(#paint3_linear_0_429)"/>
<path d="M301.754 267.318L303.463 270.757L303.579 270.992L303.838 271.03L307.634 271.581L304.889 274.256L304.701 274.439L304.746 274.698L305.389 278.478L301.984 276.692L301.752 276.57L301.519 276.692L298.132 278.476L298.775 274.698L298.819 274.439L298.631 274.256L295.887 271.581L299.682 271.03L299.943 270.992L300.059 270.756L301.754 267.318Z" fill="url(#paint4_linear_0_429)" stroke="url(#paint5_linear_0_429)"/>
<path d="M324.594 267.318L326.289 270.756L326.405 270.992L326.666 271.03L330.461 271.581L327.717 274.256L327.529 274.439L327.573 274.698L328.216 278.476L324.829 276.692L324.596 276.57L324.364 276.692L320.959 278.478L321.602 274.698L321.646 274.439L321.458 274.256L318.714 271.581L322.509 271.03L322.769 270.992L322.885 270.757L324.594 267.318Z" fill="url(#paint6_linear_0_429)" stroke="url(#paint7_linear_0_429)"/>
<path d="M347.422 267.318L349.117 270.756L349.233 270.992L349.494 271.03L353.289 271.581L350.545 274.256L350.357 274.439L350.401 274.698L351.044 278.476L347.657 276.692L347.424 276.57L347.192 276.692L343.787 278.478L344.43 274.698L344.475 274.439L344.287 274.256L341.542 271.581L345.338 271.03L345.597 270.992L345.713 270.757L347.422 267.318Z" fill="url(#paint8_linear_0_429)" stroke="url(#paint9_linear_0_429)"/>
<g filter="url(#filter3_d_0_429)">
<path d="M402.721 331.803L394.832 339.059L420.225 366.604L428.115 359.347L402.721 331.803Z" fill="#313654"/>
<path d="M433.978 352.262L412.276 372.222L477.941 443.45L499.643 423.489L433.978 352.262Z" fill="#1C1D20"/>
<path d="M345.448 185.482C321.26 184.487 298.947 193.425 282.494 208.681C266.191 223.772 255.649 245.047 254.653 268.992C252.661 317.098 290.098 357.693 338.243 359.683C360.124 360.578 380.445 353.365 396.316 340.696C397.827 339.485 399.288 338.241 400.699 336.948C401.911 335.837 403.107 334.693 404.252 333.515C418.795 318.657 428.092 298.592 429.022 276.189C431.014 228.083 393.577 187.489 345.432 185.499L345.448 185.482ZM408.07 275.31C407.323 293.7 399.122 310.034 386.488 321.509C374.037 332.852 357.269 339.468 339.107 338.722C302.533 337.213 274.094 306.37 275.621 269.855C276.368 251.713 284.37 235.562 296.705 224.103C309.207 212.479 326.174 205.663 344.585 206.426C381.159 207.919 409.581 238.762 408.07 275.294V275.31Z" fill="#1C1D20"/>
</g>
<path d="M278.162 452.811H254.803C247.679 452.811 241.903 458.579 241.903 465.695V489.027C241.903 496.143 247.679 501.912 254.803 501.912H278.162C285.286 501.912 291.061 496.143 291.061 489.027V465.695C291.061 458.579 285.286 452.811 278.162 452.811Z" fill="#2B1B18"/>
<path d="M343.042 452.81H319.683C312.559 452.81 306.783 458.579 306.783 465.695V489.027C306.783 496.143 312.559 501.912 319.683 501.912H343.042C350.166 501.912 355.941 496.143 355.941 489.027V465.695C355.941 458.579 350.166 452.81 343.042 452.81Z" fill="#313654"/>
<path d="M260.265 471.615L272.699 484.052" stroke="white" stroke-linecap="round" stroke-linejoin="round"/>
<path d="M272.699 471.615L260.265 484.052" stroke="white" stroke-linecap="round" stroke-linejoin="round"/>
<path d="M325.643 477.369L331.486 484.052L339.322 470.67" stroke="white" stroke-linecap="round" stroke-linejoin="round"/>
<defs>
<filter id="filter0_d_0_429" x="225.88" y="87.1851" width="153.777" height="184.516" filterUnits="userSpaceOnUse" color-interpolation-filters="sRGB">
<feFlood flood-opacity="0" result="BackgroundImageFix"/>
<feColorMatrix in="SourceAlpha" type="matrix" values="0 0 0 0 0 0 0 0 0 0 0 0 0 0 0 0 0 0 127 0" result="hardAlpha"/>
<feOffset dx="1" dy="1"/>
<feGaussianBlur stdDeviation="5"/>
<feColorMatrix type="matrix" values="0 0 0 0 0 0 0 0 0 0 0 0 0 0 0 0 0 0 0.11 0"/>
<feBlend mode="normal" in2="BackgroundImageFix" result="effect1_dropShadow_0_429"/>
<feBlend mode="normal" in="SourceGraphic" in2="effect1_dropShadow_0_429" result="shape"/>
</filter>
<filter id="filter1_d_0_429" x="225.88" y="252.049" width="153.777" height="184.516" filterUnits="userSpaceOnUse" color-interpolation-filters="sRGB">
<feFlood flood-opacity="0" result="BackgroundImageFix"/>
<feColorMatrix in="SourceAlpha" type="matrix" values="0 0 0 0 0 0 0 0 0 0 0 0 0 0 0 0 0 0 127 0" result="hardAlpha"/>
<feOffset dx="1" dy="1"/>
<feGaussianBlur stdDeviation="5"/>
<feColorMatrix type="matrix" values="0 0 0 0 0 0 0 0 0 0 0 0 0 0 0 0 0 0 0.11 0"/>
<feBlend mode="normal" in2="BackgroundImageFix" result="effect1_dropShadow_0_429"/>
<feBlend mode="normal" in="SourceGraphic" in2="effect1_dropShadow_0_429" result="shape"/>
</filter>
<filter id="filter2_d_0_429" x="212.329" y="149.03" width="194.863" height="231.376" filterUnits="userSpaceOnUse" color-interpolation-filters="sRGB">
<feFlood flood-opacity="0" result="BackgroundImageFix"/>
<feColorMatrix in="SourceAlpha" type="matrix" values="0 0 0 0 0 0 0 0 0 0 0 0 0 0 0 0 0 0 127 0" result="hardAlpha"/>
<feOffset dx="8" dy="4"/>
<feGaussianBlur stdDeviation="9"/>
<feColorMatrix type="matrix" values="0 0 0 0 0 0 0 0 0 0 0 0 0 0 0 0 0 0 0.14 0"/>
<feBlend mode="normal" in2="BackgroundImageFix" result="effect1_dropShadow_0_429"/>
<feBlend mode="normal" in="SourceGraphic" in2="effect1_dropShadow_0_429" result="shape"/>
</filter>
<filter id="filter3_d_0_429" x="243.577" y="174.407" width="277.066" height="290.043" filterUnits="userSpaceOnUse" color-interpolation-filters="sRGB">
<feFlood flood-opacity="0" result="BackgroundImageFix"/>
<feColorMatrix in="SourceAlpha" type="matrix" values="0 0 0 0 0 0 0 0 0 0 0 0 0 0 0 0 0 0 127 0" result="hardAlpha"/>
<feOffset dx="5" dy="5"/>
<feGaussianBlur stdDeviation="8"/>
<feColorMatrix type="matrix" values="0 0 0 0 0 0 0 0 0 0 0 0 0 0 0 0 0 0 0.15 0"/>
<feBlend mode="normal" in2="BackgroundImageFix" result="effect1_dropShadow_0_429"/>
<feBlend mode="normal" in="SourceGraphic" in2="effect1_dropShadow_0_429" result="shape"/>
</filter>
<linearGradient id="paint0_linear_0_429" x1="256.005" y1="274.5" x2="258.212" y2="274.209" gradientUnits="userSpaceOnUse">
<stop stop-color="#FED001"/>
<stop offset="1" stop-color="#FFE636"/>
</linearGradient>
<linearGradient id="paint1_linear_0_429" x1="256.105" y1="266.19" x2="256.105" y2="279.39" gradientUnits="userSpaceOnUse">
<stop stop-color="#B99701" stop-opacity="0.5"/>
<stop offset="1" stop-color="#B99701" stop-opacity="0"/>
</linearGradient>
<linearGradient id="paint2_linear_0_429" x1="278.832" y1="274.5" x2="281.039" y2="274.209" gradientUnits="userSpaceOnUse">
<stop stop-color="#FED001"/>
<stop offset="1" stop-color="#FFE636"/>
</linearGradient>
<linearGradient id="paint3_linear_0_429" x1="278.932" y1="266.19" x2="278.932" y2="279.39" gradientUnits="userSpaceOnUse">
<stop stop-color="#B99701" stop-opacity="0.5"/>
<stop offset="1" stop-color="#B99701" stop-opacity="0"/>
</linearGradient>
<linearGradient id="paint4_linear_0_429" x1="301.66" y1="274.5" x2="303.867" y2="274.209" gradientUnits="userSpaceOnUse">
<stop stop-color="#FED001"/>
<stop offset="1" stop-color="#FFE636"/>
</linearGradient>
<linearGradient id="paint5_linear_0_429" x1="301.76" y1="266.19" x2="301.76" y2="279.39" gradientUnits="userSpaceOnUse">
<stop stop-color="#B99701" stop-opacity="0.5"/>
<stop offset="1" stop-color="#B99701" stop-opacity="0"/>
</linearGradient>
<linearGradient id="paint6_linear_0_429" x1="324.487" y1="274.5" x2="326.694" y2="274.209" gradientUnits="userSpaceOnUse">
<stop stop-color="#FED001"/>
<stop offset="1" stop-color="#FFE636"/>
</linearGradient>
<linearGradient id="paint7_linear_0_429" x1="324.588" y1="266.19" x2="324.588" y2="279.39" gradientUnits="userSpaceOnUse">
<stop stop-color="#B99701" stop-opacity="0.5"/>
<stop offset="1" stop-color="#B99701" stop-opacity="0"/>
</linearGradient>
<linearGradient id="paint8_linear_0_429" x1="347.315" y1="274.5" x2="349.522" y2="274.209" gradientUnits="userSpaceOnUse">
<stop stop-color="#FED001"/>
<stop offset="1" stop-color="#FFE636"/>
</linearGradient>
<linearGradient id="paint9_linear_0_429" x1="347.416" y1="266.19" x2="347.416" y2="279.39" gradientUnits="userSpaceOnUse">
<stop stop-color="#B99701" stop-opacity="0.5"/>
<stop offset="1" stop-color="#B99701" stop-opacity="0"/>
</linearGradient>
</defs>
</svg>
