<svg width="800" height="600" viewBox="0 0 800 600" fill="none" xmlns="http://www.w3.org/2000/svg">
<g clip-path="url(#clip0_515_48)">
<rect width="800" height="600" rx="15" fill="url(#paint0_linear_515_48)"/>
<rect x="135.137" y="36.6445" width="23.3239" height="68.5332" rx="11.6619" transform="rotate(38.2606 135.137 36.6445)" fill="#97AFFE" fill-opacity="0.26"/>
<rect x="18.3184" y="21.792" width="23.3239" height="38.7526" rx="11.6619" transform="rotate(38.2606 18.3184 21.792)" fill="#97AFFE" fill-opacity="0.26"/>
<rect x="72.207" y="66.3584" width="23.3239" height="30.8836" rx="11.6619" transform="rotate(38.2606 72.207 66.3584)" fill="#97AFFE" fill-opacity="0.26"/>
<rect x="35.9473" y="58.1035" width="23.3239" height="25.6321" rx="11.6619" transform="rotate(38.2606 35.9473 58.1035)" fill="#97AFFE" fill-opacity="0.26"/>
<rect x="192.02" y="3.63379" width="23.3239" height="67.0989" rx="11.6619" transform="rotate(38.2606 192.02 3.63379)" fill="#97AFFE" fill-opacity="0.26"/>
<rect x="225.164" y="-35.9824" width="23.3239" height="43.3237" rx="11.6619" transform="rotate(38.2606 225.164 -35.9824)" fill="#97AFFE" fill-opacity="0.26"/>
<rect x="183.535" y="-32.6816" width="23.3239" height="74.723" rx="11.6619" transform="rotate(38.2606 183.535 -32.6816)" fill="#97AFFE" fill-opacity="0.26"/>
<rect x="71.293" y="-40.9355" width="23.3239" height="74.723" rx="11.6619" transform="rotate(38.2606 71.293 -40.9355)" fill="#97AFFE" fill-opacity="0.26"/>
<rect x="102.121" y="-31.0293" width="23.3239" height="68.5332" rx="11.6619" transform="rotate(38.2606 102.121 -31.0293)" fill="#97AFFE" fill-opacity="0.26"/>
<rect x="60.6504" y="31.6953" width="23.3239" height="30.8836" rx="11.6619" transform="rotate(38.2606 60.6504 31.6953)" fill="#97AFFE" fill-opacity="0.26"/>
<rect x="143.045" y="-24.4258" width="23.3239" height="107.961" rx="11.6619" transform="rotate(38.2606 143.045 -24.4258)" fill="#97AFFE" fill-opacity="0.26"/>
<rect x="-16.6172" y="-26.2959" width="23.3239" height="68.5332" rx="11.6619" transform="rotate(38.2606 -16.6172 -26.2959)" fill="#97AFFE" fill-opacity="0.26"/>
<rect x="59.3184" y="-78.9014" width="23.3239" height="186.504" rx="11.6619" transform="rotate(38.2606 59.3184 -78.9014)" fill="#97AFFE" fill-opacity="0.26"/>
<rect x="490.336" y="79.1943" width="23.3239" height="67.0989" rx="11.6619" transform="rotate(38.2606 490.336 79.1943)" fill="#97AFFE" fill-opacity="0.26"/>
<rect x="527.924" y="34.0791" width="23.3239" height="43.3237" rx="11.6619" transform="rotate(38.2606 527.924 34.0791)" fill="#97AFFE" fill-opacity="0.26"/>
<rect x="535.381" y="71.5723" width="23.3239" height="74.723" rx="11.6619" transform="rotate(38.2606 535.381 71.5723)" fill="#97AFFE" fill-opacity="0.26"/>
<rect x="436.201" y="-0.485352" width="23.3239" height="74.723" rx="11.6619" transform="rotate(38.2606 436.201 -0.485352)" fill="#97AFFE" fill-opacity="0.26"/>
<rect x="431.072" y="54.0713" width="23.3239" height="68.5332" rx="11.6619" transform="rotate(38.2606 431.072 54.0713)" fill="#97AFFE" fill-opacity="0.26"/>
<rect x="485.988" y="-11.1689" width="23.3239" height="79.7937" rx="11.6619" transform="rotate(38.2606 485.988 -11.1689)" fill="#97AFFE" fill-opacity="0.26"/>
<rect x="427.703" y="108.044" width="23.3239" height="30.8836" rx="11.6619" transform="rotate(38.2606 427.703 108.044)" fill="#97AFFE" fill-opacity="0.26"/>
<rect x="499.277" y="20.7832" width="23.3239" height="107.961" rx="11.6619" transform="rotate(38.2606 499.277 20.7832)" fill="#97AFFE" fill-opacity="0.26"/>
<rect x="519.367" y="-4.4375" width="23.3239" height="25.6321" rx="11.6619" transform="rotate(38.2606 519.367 -4.4375)" fill="#97AFFE" fill-opacity="0.26"/>
<rect x="583.686" y="11.9404" width="23.3239" height="67.0989" rx="11.6619" transform="rotate(38.2606 583.686 11.9404)" fill="#97AFFE" fill-opacity="0.26"/>
<rect x="580.154" y="-34.2754" width="23.3239" height="74.723" rx="11.6619" transform="rotate(38.2606 580.154 -34.2754)" fill="#97AFFE" fill-opacity="0.26"/>
<rect x="385.426" y="217.096" width="23.3239" height="68.5332" rx="11.6619" transform="rotate(38.2606 385.426 217.096)" fill="#97AFFE" fill-opacity="0.26"/>
<rect x="277.934" y="191.863" width="23.3239" height="38.7526" rx="11.6619" transform="rotate(38.2606 277.934 191.863)" fill="#97AFFE" fill-opacity="0.26"/>
<rect x="331.82" y="236.427" width="23.3239" height="30.8836" rx="11.6619" transform="rotate(38.2606 331.82 236.427)" fill="#97AFFE" fill-opacity="0.26"/>
<rect x="509.951" y="-90.3965" width="23.3239" height="107.961" rx="11.6619" transform="rotate(38.2606 509.951 -90.3965)" fill="#97AFFE" fill-opacity="0.26"/>
<rect x="295.564" y="228.174" width="23.3239" height="25.6321" rx="11.6619" transform="rotate(38.2606 295.564 228.174)" fill="#97AFFE" fill-opacity="0.26"/>
<rect x="448.521" y="181.041" width="23.3239" height="94.7341" rx="11.6619" transform="rotate(38.2606 448.521 181.041)" fill="#97AFFE" fill-opacity="0.26"/>
<rect x="484.779" y="134.092" width="23.3239" height="43.3237" rx="11.6619" transform="rotate(38.2606 484.779 134.092)" fill="#97AFFE" fill-opacity="0.26"/>
<rect x="443.148" y="137.392" width="23.3239" height="74.723" rx="11.6619" transform="rotate(38.2606 443.148 137.392)" fill="#97AFFE" fill-opacity="0.26"/>
<rect x="330.906" y="129.139" width="23.3239" height="74.723" rx="11.6619" transform="rotate(38.2606 330.906 129.139)" fill="#97AFFE" fill-opacity="0.26"/>
<rect x="361.736" y="139.044" width="23.3239" height="68.5332" rx="11.6619" transform="rotate(38.2606 361.736 139.044)" fill="#97AFFE" fill-opacity="0.26"/>
<rect x="385.217" y="63.1113" width="23.3239" height="79.7937" rx="11.6619" transform="rotate(38.2606 385.217 63.1113)" fill="#97AFFE" fill-opacity="0.26"/>
<rect x="320.266" y="201.766" width="23.3239" height="30.8836" rx="11.6619" transform="rotate(38.2606 320.266 201.766)" fill="#97AFFE" fill-opacity="0.26"/>
<rect x="402.658" y="145.645" width="23.3239" height="107.961" rx="11.6619" transform="rotate(38.2606 402.658 145.645)" fill="#97AFFE" fill-opacity="0.26"/>
<rect x="391.293" y="117.585" width="23.3239" height="25.6321" rx="11.6619" transform="rotate(38.2606 391.293 117.585)" fill="#97AFFE" fill-opacity="0.26"/>
<rect x="357.625" y="-3.33496" width="23.3239" height="67.0989" rx="11.6619" transform="rotate(38.2606 357.625 -3.33496)" fill="#97AFFE" fill-opacity="0.26"/>
<rect x="395.217" y="-48.4502" width="23.3239" height="43.3237" rx="11.6619" transform="rotate(38.2606 395.217 -48.4502)" fill="#97AFFE" fill-opacity="0.26"/>
<rect x="402.674" y="-10.958" width="23.3239" height="74.723" rx="11.6619" transform="rotate(38.2606 402.674 -10.958)" fill="#97AFFE" fill-opacity="0.26"/>
<rect x="298.363" y="-28.459" width="23.3239" height="68.5332" rx="11.6619" transform="rotate(38.2606 298.363 -28.459)" fill="#97AFFE" fill-opacity="0.26"/>
<rect x="294.996" y="25.5146" width="23.3239" height="30.8836" rx="11.6619" transform="rotate(38.2606 294.996 25.5146)" fill="#97AFFE" fill-opacity="0.26"/>
<rect x="366.57" y="-61.7471" width="23.3239" height="107.961" rx="11.6619" transform="rotate(38.2606 366.57 -61.7471)" fill="#97AFFE" fill-opacity="0.26"/>
<rect x="262.045" y="124.185" width="23.3239" height="68.5332" rx="11.6619" transform="rotate(38.2606 262.045 124.185)" fill="#97AFFE" fill-opacity="0.26"/>
<rect x="145.227" y="109.331" width="23.3239" height="38.7526" rx="11.6619" transform="rotate(38.2606 145.227 109.331)" fill="#97AFFE" fill-opacity="0.26"/>
<rect x="199.115" y="153.897" width="23.3239" height="30.8836" rx="11.6619" transform="rotate(38.2606 199.115 153.897)" fill="#97AFFE" fill-opacity="0.26"/>
<rect x="162.855" y="145.643" width="23.3239" height="25.6321" rx="11.6619" transform="rotate(38.2606 162.855 145.643)" fill="#97AFFE" fill-opacity="0.26"/>
<rect x="318.928" y="91.1758" width="23.3239" height="67.0989" rx="11.6619" transform="rotate(38.2606 318.928 91.1758)" fill="#97AFFE" fill-opacity="0.26"/>
<rect x="352.072" y="51.5615" width="23.3239" height="43.3237" rx="11.6619" transform="rotate(38.2606 352.072 51.5615)" fill="#97AFFE" fill-opacity="0.26"/>
<rect x="310.443" y="54.8613" width="23.3239" height="74.723" rx="11.6619" transform="rotate(38.2606 310.443 54.8613)" fill="#97AFFE" fill-opacity="0.26"/>
<rect x="198.201" y="46.6084" width="23.3239" height="74.723" rx="11.6619" transform="rotate(38.2606 198.201 46.6084)" fill="#97AFFE" fill-opacity="0.26"/>
<rect x="229.029" y="56.5127" width="23.3239" height="68.5332" rx="11.6619" transform="rotate(38.2606 229.029 56.5127)" fill="#97AFFE" fill-opacity="0.26"/>
<rect x="252.51" y="-19.4189" width="23.3239" height="79.7937" rx="11.6619" transform="rotate(38.2606 252.51 -19.4189)" fill="#97AFFE" fill-opacity="0.26"/>
<rect x="187.559" y="119.233" width="23.3239" height="30.8836" rx="11.6619" transform="rotate(38.2606 187.559 119.233)" fill="#97AFFE" fill-opacity="0.26"/>
<rect x="269.951" y="63.1123" width="23.3239" height="107.961" rx="11.6619" transform="rotate(38.2606 269.951 63.1123)" fill="#97AFFE" fill-opacity="0.26"/>
<rect x="258.584" y="35.0537" width="23.3239" height="25.6321" rx="11.6619" transform="rotate(38.2606 258.584 35.0537)" fill="#97AFFE" fill-opacity="0.26"/>
<rect x="8.69531" y="189.128" width="23.3239" height="43.3237" rx="11.6619" transform="rotate(38.2606 8.69531 189.128)" fill="#97AFFE" fill-opacity="0.26"/>
<rect x="16.1562" y="226.621" width="23.3239" height="74.723" rx="11.6619" transform="rotate(38.2606 16.1562 226.621)" fill="#97AFFE" fill-opacity="0.26"/>
<rect x="0.142578" y="150.61" width="23.3239" height="25.6321" rx="11.6619" transform="rotate(38.2606 0.142578 150.61)" fill="#97AFFE" fill-opacity="0.26"/>
<rect x="133.592" y="79.3262" width="23.3239" height="178.745" rx="11.6619" transform="rotate(38.2606 133.592 79.3262)" fill="#97AFFE" fill-opacity="0.26"/>
<rect x="34.877" y="105.917" width="23.3239" height="43.3237" rx="11.6619" transform="rotate(38.2606 34.877 105.917)" fill="#97AFFE" fill-opacity="0.26"/>
<rect x="76.8203" y="100.617" width="23.3239" height="100.389" rx="11.6619" transform="rotate(38.2606 76.8203 100.617)" fill="#97AFFE" fill-opacity="0.26"/>
<rect x="18.0078" y="77.8564" width="23.3239" height="74.723" rx="11.6619" transform="rotate(38.2606 18.0078 77.8564)" fill="#97AFFE" fill-opacity="0.26"/>
<rect x="-9.27734" y="64.6514" width="23.3239" height="107.961" rx="11.6619" transform="rotate(38.2606 -9.27734 64.6514)" fill="#97AFFE" fill-opacity="0.26"/>
<rect x="230.719" y="404.317" width="23.3239" height="67.0989" rx="11.6619" transform="rotate(38.2606 230.719 404.317)" fill="#97AFFE" fill-opacity="0.26"/>
<rect x="268.309" y="359.198" width="23.3239" height="43.3237" rx="11.6619" transform="rotate(38.2606 268.309 359.198)" fill="#97AFFE" fill-opacity="0.26"/>
<rect x="275.766" y="396.691" width="23.3239" height="74.723" rx="11.6619" transform="rotate(38.2606 275.766 396.691)" fill="#97AFFE" fill-opacity="0.26"/>
<rect x="176.584" y="324.633" width="23.3239" height="74.723" rx="11.6619" transform="rotate(38.2606 176.584 324.633)" fill="#97AFFE" fill-opacity="0.26"/>
<rect x="171.455" y="379.189" width="23.3239" height="68.5332" rx="11.6619" transform="rotate(38.2606 171.455 379.189)" fill="#97AFFE" fill-opacity="0.26"/>
<rect x="226.371" y="313.954" width="23.3239" height="79.7937" rx="11.6619" transform="rotate(38.2606 226.371 313.954)" fill="#97AFFE" fill-opacity="0.26"/>
<rect x="168.088" y="433.164" width="23.3239" height="30.8836" rx="11.6619" transform="rotate(38.2606 168.088 433.164)" fill="#97AFFE" fill-opacity="0.26"/>
<rect x="239.664" y="345.902" width="23.3239" height="107.961" rx="11.6619" transform="rotate(38.2606 239.664 345.902)" fill="#97AFFE" fill-opacity="0.26"/>
<rect x="259.754" y="320.681" width="23.3239" height="25.6321" rx="11.6619" transform="rotate(38.2606 259.754 320.681)" fill="#97AFFE" fill-opacity="0.26"/>
<rect x="324.072" y="337.063" width="23.3239" height="67.0989" rx="11.6619" transform="rotate(38.2606 324.072 337.063)" fill="#97AFFE" fill-opacity="0.26"/>
<rect x="378.527" y="269.983" width="23.3239" height="67.0989" rx="11.6619" transform="rotate(38.2606 378.527 269.983)" fill="#97AFFE" fill-opacity="0.26"/>
<rect x="294.494" y="275.989" width="23.3239" height="43.3237" rx="11.6619" transform="rotate(38.2606 294.494 275.989)" fill="#97AFFE" fill-opacity="0.26"/>
<rect x="320.539" y="290.847" width="23.3239" height="74.723" rx="11.6619" transform="rotate(38.2606 320.539 290.847)" fill="#97AFFE" fill-opacity="0.26"/>
<rect x="277.621" y="247.93" width="23.3239" height="74.723" rx="11.6619" transform="rotate(38.2606 277.621 247.93)" fill="#97AFFE" fill-opacity="0.26"/>
<rect x="135.137" y="531.842" width="23.3239" height="68.5332" rx="11.6619" transform="rotate(38.2606 135.137 531.842)" fill="#97AFFE" fill-opacity="0.26"/>
<rect x="18.3184" y="516.985" width="23.3239" height="38.7526" rx="11.6619" transform="rotate(38.2606 18.3184 516.985)" fill="#97AFFE" fill-opacity="0.26"/>
<rect x="72.207" y="561.553" width="23.3239" height="30.8836" rx="11.6619" transform="rotate(38.2606 72.207 561.553)" fill="#97AFFE" fill-opacity="0.26"/>
<rect x="250.336" y="234.726" width="23.3239" height="107.961" rx="11.6619" transform="rotate(38.2606 250.336 234.726)" fill="#97AFFE" fill-opacity="0.26"/>
<rect x="35.9473" y="553.298" width="23.3239" height="25.6321" rx="11.6619" transform="rotate(38.2606 35.9473 553.298)" fill="#97AFFE" fill-opacity="0.26"/>
<rect x="192.021" y="498.829" width="23.3239" height="67.0989" rx="11.6619" transform="rotate(38.2606 192.021 498.829)" fill="#97AFFE" fill-opacity="0.26"/>
<rect x="225.166" y="459.214" width="23.3239" height="43.3237" rx="11.6619" transform="rotate(38.2606 225.166 459.214)" fill="#97AFFE" fill-opacity="0.26"/>
<rect x="183.537" y="462.515" width="23.3239" height="74.723" rx="11.6619" transform="rotate(38.2606 183.537 462.515)" fill="#97AFFE" fill-opacity="0.26"/>
<rect x="71.2949" y="454.262" width="23.3239" height="74.723" rx="11.6619" transform="rotate(38.2606 71.2949 454.262)" fill="#97AFFE" fill-opacity="0.26"/>
<rect x="102.125" y="464.166" width="23.3239" height="68.5332" rx="11.6619" transform="rotate(38.2606 102.125 464.166)" fill="#97AFFE" fill-opacity="0.26"/>
<rect x="125.604" y="388.236" width="23.3239" height="79.7937" rx="11.6619" transform="rotate(38.2606 125.604 388.236)" fill="#97AFFE" fill-opacity="0.26"/>
<rect x="60.6523" y="526.889" width="23.3239" height="30.8836" rx="11.6619" transform="rotate(38.2606 60.6523 526.889)" fill="#97AFFE" fill-opacity="0.26"/>
<rect x="143.047" y="470.768" width="23.3239" height="107.961" rx="11.6619" transform="rotate(38.2606 143.047 470.768)" fill="#97AFFE" fill-opacity="0.26"/>
<rect x="131.678" y="442.707" width="23.3239" height="25.6321" rx="11.6619" transform="rotate(38.2606 131.678 442.707)" fill="#97AFFE" fill-opacity="0.26"/>
<rect x="98.0156" y="321.786" width="23.3239" height="67.0989" rx="11.6619" transform="rotate(38.2606 98.0156 321.786)" fill="#97AFFE" fill-opacity="0.26"/>
<rect x="135.605" y="276.667" width="23.3239" height="43.3237" rx="11.6619" transform="rotate(38.2606 135.605 276.667)" fill="#97AFFE" fill-opacity="0.26"/>
<rect x="143.064" y="314.161" width="23.3239" height="74.723" rx="11.6619" transform="rotate(38.2606 143.064 314.161)" fill="#97AFFE" fill-opacity="0.26"/>
<rect x="43.8809" y="242.102" width="23.3239" height="74.723" rx="11.6619" transform="rotate(38.2606 43.8809 242.102)" fill="#97AFFE" fill-opacity="0.26"/>
<rect x="38.7539" y="296.658" width="23.3239" height="68.5332" rx="11.6619" transform="rotate(38.2606 38.7539 296.658)" fill="#97AFFE" fill-opacity="0.26"/>
<rect x="93.668" y="231.423" width="23.3239" height="79.7937" rx="11.6619" transform="rotate(38.2606 93.668 231.423)" fill="#97AFFE" fill-opacity="0.26"/>
<rect x="35.3828" y="350.634" width="23.3239" height="30.8836" rx="11.6619" transform="rotate(38.2606 35.3828 350.634)" fill="#97AFFE" fill-opacity="0.26"/>
<rect x="106.961" y="263.372" width="23.3239" height="107.961" rx="11.6619" transform="rotate(38.2606 106.961 263.372)" fill="#97AFFE" fill-opacity="0.26"/>
<rect x="127.051" y="238.15" width="23.3239" height="25.6321" rx="11.6619" transform="rotate(38.2606 127.051 238.15)" fill="#97AFFE" fill-opacity="0.26"/>
<rect x="262.625" y="164.17" width="23.3239" height="182.177" rx="11.6619" transform="rotate(38.2606 262.625 164.17)" fill="#97AFFE" fill-opacity="0.26"/>
<rect x="161.787" y="193.457" width="23.3239" height="43.3237" rx="11.6619" transform="rotate(38.2606 161.787 193.457)" fill="#97AFFE" fill-opacity="0.26"/>
<rect x="205.604" y="185.781" width="23.3239" height="103.42" rx="11.6619" transform="rotate(38.2606 205.604 185.781)" fill="#97AFFE" fill-opacity="0.26"/>
<rect x="144.918" y="165.399" width="23.3239" height="74.723" rx="11.6619" transform="rotate(38.2606 144.918 165.399)" fill="#97AFFE" fill-opacity="0.26"/>
<rect x="2.42969" y="449.307" width="23.3239" height="68.5332" rx="11.6619" transform="rotate(38.2606 2.42969 449.307)" fill="#97AFFE" fill-opacity="0.26"/>
<rect x="117.631" y="152.193" width="23.3239" height="107.961" rx="11.6619" transform="rotate(38.2606 117.631 152.193)" fill="#97AFFE" fill-opacity="0.26"/>
<rect x="59.3164" y="416.297" width="23.3239" height="67.0989" rx="11.6619" transform="rotate(38.2606 59.3164 416.297)" fill="#97AFFE" fill-opacity="0.26"/>
<rect x="92.4648" y="376.682" width="23.3239" height="43.3237" rx="11.6619" transform="rotate(38.2606 92.4648 376.682)" fill="#97AFFE" fill-opacity="0.26"/>
<rect x="50.834" y="379.981" width="23.3239" height="74.723" rx="11.6619" transform="rotate(38.2606 50.834 379.981)" fill="#97AFFE" fill-opacity="0.26"/>
<rect x="-7.09961" y="305.702" width="23.3239" height="79.7937" rx="11.6619" transform="rotate(38.2606 -7.09961 305.702)" fill="#97AFFE" fill-opacity="0.26"/>
<rect x="10.3438" y="388.234" width="23.3239" height="107.961" rx="11.6619" transform="rotate(38.2606 10.3438 388.234)" fill="#97AFFE" fill-opacity="0.26"/>
<rect x="-1.02344" y="360.174" width="23.3239" height="25.6321" rx="11.6619" transform="rotate(38.2606 -1.02344 360.174)" fill="#97AFFE" fill-opacity="0.26"/>
<rect x="790.721" y="203.125" width="23.3239" height="67.0989" rx="11.6619" transform="rotate(38.2606 790.721 203.125)" fill="#97AFFE" fill-opacity="0.26"/>
<rect x="835.77" y="195.499" width="23.3239" height="74.723" rx="11.6619" transform="rotate(38.2606 835.77 195.499)" fill="#97AFFE" fill-opacity="0.26"/>
<rect x="736.586" y="123.44" width="23.3239" height="74.723" rx="11.6619" transform="rotate(38.2606 736.586 123.44)" fill="#97AFFE" fill-opacity="0.26"/>
<rect x="731.459" y="177.996" width="23.3239" height="68.5332" rx="11.6619" transform="rotate(38.2606 731.459 177.996)" fill="#97AFFE" fill-opacity="0.26"/>
<rect x="786.373" y="112.762" width="23.3239" height="79.7937" rx="11.6619" transform="rotate(38.2606 786.373 112.762)" fill="#97AFFE" fill-opacity="0.26"/>
<rect x="728.09" y="231.974" width="23.3239" height="30.8836" rx="11.6619" transform="rotate(38.2606 728.09 231.974)" fill="#97AFFE" fill-opacity="0.26"/>
<rect x="799.666" y="144.71" width="23.3239" height="107.961" rx="11.6619" transform="rotate(38.2606 799.666 144.71)" fill="#97AFFE" fill-opacity="0.26"/>
<rect x="837.621" y="46.7373" width="23.3239" height="74.723" rx="11.6619" transform="rotate(38.2606 837.621 46.7373)" fill="#97AFFE" fill-opacity="0.26"/>
<rect x="695.137" y="330.645" width="23.3239" height="68.5332" rx="11.6619" transform="rotate(38.2606 695.137 330.645)" fill="#97AFFE" fill-opacity="0.26"/>
<rect x="578.318" y="315.792" width="23.3239" height="38.7526" rx="11.6619" transform="rotate(38.2606 578.318 315.792)" fill="#97AFFE" fill-opacity="0.26"/>
<rect x="632.207" y="360.358" width="23.3239" height="30.8836" rx="11.6619" transform="rotate(38.2606 632.207 360.358)" fill="#97AFFE" fill-opacity="0.26"/>
<rect x="810.336" y="33.5322" width="23.3239" height="107.961" rx="11.6619" transform="rotate(38.2606 810.336 33.5322)" fill="#97AFFE" fill-opacity="0.26"/>
<rect x="595.947" y="352.104" width="23.3239" height="25.6321" rx="11.6619" transform="rotate(38.2606 595.947 352.104)" fill="#97AFFE" fill-opacity="0.26"/>
<rect x="752.02" y="297.634" width="23.3239" height="67.0989" rx="11.6619" transform="rotate(38.2606 752.02 297.634)" fill="#97AFFE" fill-opacity="0.26"/>
<rect x="785.164" y="258.018" width="23.3239" height="43.3237" rx="11.6619" transform="rotate(38.2606 785.164 258.018)" fill="#97AFFE" fill-opacity="0.26"/>
<rect x="743.535" y="261.318" width="23.3239" height="74.723" rx="11.6619" transform="rotate(38.2606 743.535 261.318)" fill="#97AFFE" fill-opacity="0.26"/>
<rect x="631.293" y="253.064" width="23.3239" height="74.723" rx="11.6619" transform="rotate(38.2606 631.293 253.064)" fill="#97AFFE" fill-opacity="0.26"/>
<rect x="662.121" y="262.971" width="23.3239" height="68.5332" rx="11.6619" transform="rotate(38.2606 662.121 262.971)" fill="#97AFFE" fill-opacity="0.26"/>
<rect x="685.602" y="187.042" width="23.3239" height="79.7937" rx="11.6619" transform="rotate(38.2606 685.602 187.042)" fill="#97AFFE" fill-opacity="0.26"/>
<rect x="620.65" y="325.695" width="23.3239" height="30.8836" rx="11.6619" transform="rotate(38.2606 620.65 325.695)" fill="#97AFFE" fill-opacity="0.26"/>
<rect x="703.045" y="269.574" width="23.3239" height="107.961" rx="11.6619" transform="rotate(38.2606 703.045 269.574)" fill="#97AFFE" fill-opacity="0.26"/>
<rect x="691.676" y="241.512" width="23.3239" height="25.6321" rx="11.6619" transform="rotate(38.2606 691.676 241.512)" fill="#97AFFE" fill-opacity="0.26"/>
<rect x="658.014" y="120.595" width="23.3239" height="67.0989" rx="11.6619" transform="rotate(38.2606 658.014 120.595)" fill="#97AFFE" fill-opacity="0.26"/>
<rect x="695.604" y="75.4736" width="23.3239" height="43.3237" rx="11.6619" transform="rotate(38.2606 695.604 75.4736)" fill="#97AFFE" fill-opacity="0.26"/>
<rect x="703.061" y="112.968" width="23.3239" height="74.723" rx="11.6619" transform="rotate(38.2606 703.061 112.968)" fill="#97AFFE" fill-opacity="0.26"/>
<rect x="603.879" y="40.9092" width="23.3239" height="74.723" rx="11.6619" transform="rotate(38.2606 603.879 40.9092)" fill="#97AFFE" fill-opacity="0.26"/>
<rect x="598.752" y="95.4648" width="23.3239" height="68.5332" rx="11.6619" transform="rotate(38.2606 598.752 95.4648)" fill="#97AFFE" fill-opacity="0.26"/>
<rect x="653.666" y="30.2305" width="23.3239" height="79.7937" rx="11.6619" transform="rotate(38.2606 653.666 30.2305)" fill="#97AFFE" fill-opacity="0.26"/>
<rect x="595.381" y="149.442" width="23.3239" height="30.8836" rx="11.6619" transform="rotate(38.2606 595.381 149.442)" fill="#97AFFE" fill-opacity="0.26"/>
<rect x="666.959" y="62.1787" width="23.3239" height="107.961" rx="11.6619" transform="rotate(38.2606 666.959 62.1787)" fill="#97AFFE" fill-opacity="0.26"/>
<rect x="687.049" y="36.957" width="23.3239" height="25.6321" rx="11.6619" transform="rotate(38.2606 687.049 36.957)" fill="#97AFFE" fill-opacity="0.26"/>
<rect x="751.365" y="53.3359" width="23.3239" height="67.0989" rx="11.6619" transform="rotate(38.2606 751.365 53.3359)" fill="#97AFFE" fill-opacity="0.26"/>
<rect x="721.789" y="-7.73633" width="23.3239" height="43.3237" rx="11.6619" transform="rotate(38.2606 721.789 -7.73633)" fill="#97AFFE" fill-opacity="0.26"/>
<rect x="747.832" y="7.12109" width="23.3239" height="74.723" rx="11.6619" transform="rotate(38.2606 747.832 7.12109)" fill="#97AFFE" fill-opacity="0.26"/>
<rect x="704.916" y="-35.7949" width="23.3239" height="74.723" rx="11.6619" transform="rotate(38.2606 704.916 -35.7949)" fill="#97AFFE" fill-opacity="0.26"/>
<rect x="543.383" y="267.704" width="23.3239" height="68.5332" rx="11.6619" transform="rotate(38.2606 543.383 267.704)" fill="#97AFFE" fill-opacity="0.26"/>
<rect x="445.613" y="233.26" width="23.3239" height="38.7526" rx="11.6619" transform="rotate(38.2606 445.613 233.26)" fill="#97AFFE" fill-opacity="0.26"/>
<rect x="499.502" y="277.827" width="23.3239" height="30.8836" rx="11.6619" transform="rotate(38.2606 499.502 277.827)" fill="#97AFFE" fill-opacity="0.26"/>
<rect x="677.629" y="-49" width="23.3239" height="107.961" rx="11.6619" transform="rotate(38.2606 677.629 -49)" fill="#97AFFE" fill-opacity="0.26"/>
<rect x="463.242" y="269.573" width="23.3239" height="25.6321" rx="11.6619" transform="rotate(38.2606 463.242 269.573)" fill="#97AFFE" fill-opacity="0.26"/>
<rect x="619.318" y="215.099" width="23.3239" height="186.504" rx="11.6619" transform="rotate(38.2606 619.318 215.099)" fill="#97AFFE" fill-opacity="0.26"/>
<rect x="652.465" y="175.484" width="23.3239" height="43.3237" rx="11.6619" transform="rotate(38.2606 652.465 175.484)" fill="#97AFFE" fill-opacity="0.26"/>
<rect x="610.834" y="178.786" width="23.3239" height="92.7522" rx="11.6619" transform="rotate(38.2606 610.834 178.786)" fill="#97AFFE" fill-opacity="0.26"/>
<rect x="498.592" y="170.532" width="23.3239" height="74.723" rx="11.6619" transform="rotate(38.2606 498.592 170.532)" fill="#97AFFE" fill-opacity="0.26"/>
<rect x="529.422" y="180.437" width="23.3239" height="68.5332" rx="11.6619" transform="rotate(38.2606 529.422 180.437)" fill="#97AFFE" fill-opacity="0.26"/>
<rect x="552.9" y="104.508" width="23.3239" height="79.7937" rx="11.6619" transform="rotate(38.2606 552.9 104.508)" fill="#97AFFE" fill-opacity="0.26"/>
<rect x="487.949" y="243.161" width="23.3239" height="30.8836" rx="11.6619" transform="rotate(38.2606 487.949 243.161)" fill="#97AFFE" fill-opacity="0.26"/>
<rect x="570.344" y="187.039" width="23.3239" height="107.961" rx="11.6619" transform="rotate(38.2606 570.344 187.039)" fill="#97AFFE" fill-opacity="0.26"/>
<rect x="558.975" y="158.976" width="23.3239" height="25.6321" rx="11.6619" transform="rotate(38.2606 558.975 158.976)" fill="#97AFFE" fill-opacity="0.26"/>
<rect x="822.043" y="418.185" width="23.3239" height="68.5332" rx="11.6619" transform="rotate(38.2606 822.043 418.185)" fill="#97AFFE" fill-opacity="0.26"/>
<rect x="705.227" y="403.331" width="23.3239" height="38.7526" rx="11.6619" transform="rotate(38.2606 705.227 403.331)" fill="#97AFFE" fill-opacity="0.26"/>
<rect x="759.113" y="447.897" width="23.3239" height="30.8836" rx="11.6619" transform="rotate(38.2606 759.113 447.897)" fill="#97AFFE" fill-opacity="0.26"/>
<rect x="722.855" y="439.643" width="23.3239" height="25.6321" rx="11.6619" transform="rotate(38.2606 722.855 439.643)" fill="#97AFFE" fill-opacity="0.26"/>
<rect x="758.201" y="340.608" width="23.3239" height="74.723" rx="11.6619" transform="rotate(38.2606 758.201 340.608)" fill="#97AFFE" fill-opacity="0.26"/>
<rect x="789.029" y="350.513" width="23.3239" height="68.5332" rx="11.6619" transform="rotate(38.2606 789.029 350.513)" fill="#97AFFE" fill-opacity="0.26"/>
<rect x="812.51" y="274.581" width="23.3239" height="79.7937" rx="11.6619" transform="rotate(38.2606 812.51 274.581)" fill="#97AFFE" fill-opacity="0.26"/>
<rect x="747.559" y="413.233" width="23.3239" height="30.8836" rx="11.6619" transform="rotate(38.2606 747.559 413.233)" fill="#97AFFE" fill-opacity="0.26"/>
<rect x="829.951" y="357.112" width="23.3239" height="107.961" rx="11.6619" transform="rotate(38.2606 829.951 357.112)" fill="#97AFFE" fill-opacity="0.26"/>
<rect x="531.105" y="528.247" width="23.3239" height="67.0989" rx="11.6619" transform="rotate(38.2606 531.105 528.247)" fill="#97AFFE" fill-opacity="0.26"/>
<rect x="568.695" y="483.128" width="23.3239" height="43.3237" rx="11.6619" transform="rotate(38.2606 568.695 483.128)" fill="#97AFFE" fill-opacity="0.26"/>
<rect x="576.156" y="520.621" width="23.3239" height="74.723" rx="11.6619" transform="rotate(38.2606 576.156 520.621)" fill="#97AFFE" fill-opacity="0.26"/>
<rect x="476.973" y="448.562" width="23.3239" height="74.723" rx="11.6619" transform="rotate(38.2606 476.973 448.562)" fill="#97AFFE" fill-opacity="0.26"/>
<rect x="471.842" y="503.12" width="23.3239" height="68.5332" rx="11.6619" transform="rotate(38.2606 471.842 503.12)" fill="#97AFFE" fill-opacity="0.26"/>
<rect x="526.76" y="437.884" width="23.3239" height="79.7937" rx="11.6619" transform="rotate(38.2606 526.76 437.884)" fill="#97AFFE" fill-opacity="0.26"/>
<rect x="468.475" y="557.096" width="23.3239" height="30.8836" rx="11.6619" transform="rotate(38.2606 468.475 557.096)" fill="#97AFFE" fill-opacity="0.26"/>
<rect x="540.053" y="469.833" width="23.3239" height="107.961" rx="11.6619" transform="rotate(38.2606 540.053 469.833)" fill="#97AFFE" fill-opacity="0.26"/>
<rect x="560.143" y="444.61" width="23.3239" height="25.6321" rx="11.6619" transform="rotate(38.2606 560.143 444.61)" fill="#97AFFE" fill-opacity="0.26"/>
<rect x="693.592" y="373.326" width="23.3239" height="178.745" rx="11.6619" transform="rotate(38.2606 693.592 373.326)" fill="#97AFFE" fill-opacity="0.26"/>
<rect x="594.877" y="399.917" width="23.3239" height="43.3237" rx="11.6619" transform="rotate(38.2606 594.877 399.917)" fill="#97AFFE" fill-opacity="0.26"/>
<rect x="636.82" y="394.617" width="23.3239" height="100.389" rx="11.6619" transform="rotate(38.2606 636.82 394.617)" fill="#97AFFE" fill-opacity="0.26"/>
<rect x="578.008" y="371.856" width="23.3239" height="74.723" rx="11.6619" transform="rotate(38.2606 578.008 371.856)" fill="#97AFFE" fill-opacity="0.26"/>
<rect x="550.723" y="358.651" width="23.3239" height="107.961" rx="11.6619" transform="rotate(38.2606 550.723 358.651)" fill="#97AFFE" fill-opacity="0.26"/>
<rect x="525.553" y="583.139" width="23.3239" height="43.3237" rx="11.6619" transform="rotate(38.2606 525.553 583.139)" fill="#97AFFE" fill-opacity="0.26"/>
<rect x="483.926" y="586.439" width="23.3239" height="74.723" rx="11.6619" transform="rotate(38.2606 483.926 586.439)" fill="#97AFFE" fill-opacity="0.26"/>
<rect x="371.682" y="578.188" width="23.3239" height="74.723" rx="11.6619" transform="rotate(38.2606 371.682 578.188)" fill="#97AFFE" fill-opacity="0.26"/>
<rect x="402.51" y="588.089" width="23.3239" height="68.5332" rx="11.6619" transform="rotate(38.2606 402.51 588.089)" fill="#97AFFE" fill-opacity="0.26"/>
<rect x="425.99" y="512.16" width="23.3239" height="79.7937" rx="11.6619" transform="rotate(38.2606 425.99 512.16)" fill="#97AFFE" fill-opacity="0.26"/>
<rect x="443.434" y="594.691" width="23.3239" height="107.961" rx="11.6619" transform="rotate(38.2606 443.434 594.691)" fill="#97AFFE" fill-opacity="0.26"/>
<rect x="432.066" y="566.63" width="23.3239" height="25.6321" rx="11.6619" transform="rotate(38.2606 432.066 566.63)" fill="#97AFFE" fill-opacity="0.26"/>
<rect x="398.4" y="445.715" width="23.3239" height="67.0989" rx="11.6619" transform="rotate(38.2606 398.4 445.715)" fill="#97AFFE" fill-opacity="0.26"/>
<rect x="435.988" y="400.596" width="23.3239" height="43.3237" rx="11.6619" transform="rotate(38.2606 435.988 400.596)" fill="#97AFFE" fill-opacity="0.26"/>
<rect x="443.447" y="438.087" width="23.3239" height="74.723" rx="11.6619" transform="rotate(38.2606 443.447 438.087)" fill="#97AFFE" fill-opacity="0.26"/>
<rect x="344.266" y="366.03" width="23.3239" height="74.723" rx="11.6619" transform="rotate(38.2606 344.266 366.03)" fill="#97AFFE" fill-opacity="0.26"/>
<rect x="339.133" y="420.587" width="23.3239" height="68.5332" rx="11.6619" transform="rotate(38.2606 339.133 420.587)" fill="#97AFFE" fill-opacity="0.26"/>
<rect x="394.053" y="355.352" width="23.3239" height="79.7937" rx="11.6619" transform="rotate(38.2606 394.053 355.352)" fill="#97AFFE" fill-opacity="0.26"/>
<rect x="335.766" y="474.564" width="23.3239" height="30.8836" rx="11.6619" transform="rotate(38.2606 335.766 474.564)" fill="#97AFFE" fill-opacity="0.26"/>
<rect x="407.344" y="387.298" width="23.3239" height="107.961" rx="11.6619" transform="rotate(38.2606 407.344 387.298)" fill="#97AFFE" fill-opacity="0.26"/>
<rect x="427.432" y="362.078" width="23.3239" height="25.6321" rx="11.6619" transform="rotate(38.2606 427.432 362.078)" fill="#97AFFE" fill-opacity="0.26"/>
<rect x="491.75" y="378.46" width="23.3239" height="67.0989" rx="11.6619" transform="rotate(38.2606 491.75 378.46)" fill="#97AFFE" fill-opacity="0.26"/>
<rect x="462.168" y="317.387" width="23.3239" height="43.3237" rx="11.6619" transform="rotate(38.2606 462.168 317.387)" fill="#97AFFE" fill-opacity="0.26"/>
<rect x="488.217" y="332.241" width="23.3239" height="74.723" rx="11.6619" transform="rotate(38.2606 488.217 332.241)" fill="#97AFFE" fill-opacity="0.26"/>
<rect x="445.301" y="289.325" width="23.3239" height="74.723" rx="11.6619" transform="rotate(38.2606 445.301 289.325)" fill="#97AFFE" fill-opacity="0.26"/>
<rect x="302.816" y="573.236" width="23.3239" height="68.5332" rx="11.6619" transform="rotate(38.2606 302.816 573.236)" fill="#97AFFE" fill-opacity="0.26"/>
<rect x="185.998" y="558.379" width="23.3239" height="38.7526" rx="11.6619" transform="rotate(38.2606 185.998 558.379)" fill="#97AFFE" fill-opacity="0.26"/>
<rect x="418.016" y="276.119" width="23.3239" height="107.961" rx="11.6619" transform="rotate(38.2606 418.016 276.119)" fill="#97AFFE" fill-opacity="0.26"/>
<rect x="203.627" y="594.694" width="23.3239" height="25.6321" rx="11.6619" transform="rotate(38.2606 203.627 594.694)" fill="#97AFFE" fill-opacity="0.26"/>
<rect x="359.697" y="540.22" width="23.3239" height="67.0989" rx="11.6619" transform="rotate(38.2606 359.697 540.22)" fill="#97AFFE" fill-opacity="0.26"/>
<rect x="392.842" y="500.605" width="23.3239" height="43.3237" rx="11.6619" transform="rotate(38.2606 392.842 500.605)" fill="#97AFFE" fill-opacity="0.26"/>
<rect x="351.213" y="503.909" width="23.3239" height="74.723" rx="11.6619" transform="rotate(38.2606 351.213 503.909)" fill="#97AFFE" fill-opacity="0.26"/>
<rect x="238.969" y="495.657" width="23.3239" height="74.723" rx="11.6619" transform="rotate(38.2606 238.969 495.657)" fill="#97AFFE" fill-opacity="0.26"/>
<rect x="269.799" y="505.557" width="23.3239" height="68.5332" rx="11.6619" transform="rotate(38.2606 269.799 505.557)" fill="#97AFFE" fill-opacity="0.26"/>
<rect x="293.279" y="429.63" width="23.3239" height="79.7937" rx="11.6619" transform="rotate(38.2606 293.279 429.63)" fill="#97AFFE" fill-opacity="0.26"/>
<rect x="228.328" y="568.283" width="23.3239" height="30.8836" rx="11.6619" transform="rotate(38.2606 228.328 568.283)" fill="#97AFFE" fill-opacity="0.26"/>
<rect x="310.721" y="512.162" width="23.3239" height="107.961" rx="11.6619" transform="rotate(38.2606 310.721 512.162)" fill="#97AFFE" fill-opacity="0.26"/>
<rect x="299.357" y="484.099" width="23.3239" height="25.6321" rx="11.6619" transform="rotate(38.2606 299.357 484.099)" fill="#97AFFE" fill-opacity="0.26"/>
<rect x="837.621" y="541.93" width="23.3239" height="74.723" rx="11.6619" transform="rotate(38.2606 837.621 541.93)" fill="#97AFFE" fill-opacity="0.26"/>
<rect x="810.336" y="528.726" width="23.3239" height="107.961" rx="11.6619" transform="rotate(38.2606 810.336 528.726)" fill="#97AFFE" fill-opacity="0.26"/>
<rect x="695.605" y="570.667" width="23.3239" height="43.3237" rx="11.6619" transform="rotate(38.2606 695.605 570.667)" fill="#97AFFE" fill-opacity="0.26"/>
<rect x="603.881" y="536.102" width="23.3239" height="74.723" rx="11.6619" transform="rotate(38.2606 603.881 536.102)" fill="#97AFFE" fill-opacity="0.26"/>
<rect x="598.754" y="590.658" width="23.3239" height="68.5332" rx="11.6619" transform="rotate(38.2606 598.754 590.658)" fill="#97AFFE" fill-opacity="0.26"/>
<rect x="653.668" y="525.423" width="23.3239" height="79.7937" rx="11.6619" transform="rotate(38.2606 653.668 525.423)" fill="#97AFFE" fill-opacity="0.26"/>
<rect x="666.961" y="557.372" width="23.3239" height="107.961" rx="11.6619" transform="rotate(38.2606 666.961 557.372)" fill="#97AFFE" fill-opacity="0.26"/>
<rect x="687.051" y="532.15" width="23.3239" height="25.6321" rx="11.6619" transform="rotate(38.2606 687.051 532.15)" fill="#97AFFE" fill-opacity="0.26"/>
<rect x="822.625" y="458.17" width="23.3239" height="182.177" rx="11.6619" transform="rotate(38.2606 822.625 458.17)" fill="#97AFFE" fill-opacity="0.26"/>
<rect x="721.787" y="487.457" width="23.3239" height="43.3237" rx="11.6619" transform="rotate(38.2606 721.787 487.457)" fill="#97AFFE" fill-opacity="0.26"/>
<rect x="765.604" y="479.781" width="23.3239" height="103.42" rx="11.6619" transform="rotate(38.2606 765.604 479.781)" fill="#97AFFE" fill-opacity="0.26"/>
<rect x="704.918" y="459.399" width="23.3239" height="74.723" rx="11.6619" transform="rotate(38.2606 704.918 459.399)" fill="#97AFFE" fill-opacity="0.26"/>
<rect x="677.631" y="446.193" width="23.3239" height="107.961" rx="11.6619" transform="rotate(38.2606 677.631 446.193)" fill="#97AFFE" fill-opacity="0.26"/>
<rect x="552.9" y="599.702" width="23.3239" height="79.7937" rx="11.6619" transform="rotate(38.2606 552.9 599.702)" fill="#97AFFE" fill-opacity="0.26"/>
</g>
<defs>
<linearGradient id="paint0_linear_515_48" x1="0" y1="0" x2="800" y2="592" gradientUnits="userSpaceOnUse">
<stop stop-color="#8CACFD"/>
<stop offset="0.9999" stop-color="#58A0FD"/>
<stop offset="1" stop-color="#8102CC"/>
</linearGradient>
<clipPath id="clip0_515_48">
<rect width="800" height="600" fill="white"/>
</clipPath>
</defs>
</svg>
