<svg width="224" height="234" viewBox="0 0 224 234" fill="none" xmlns="http://www.w3.org/2000/svg">
<path d="M132.815 132.352C134.754 135.9 135.702 137.475 135.942 137.559C136.131 137.629 139.055 138.011 142.449 138.427C145.827 138.843 148.632 139.2 148.669 139.248C148.739 139.293 146.876 140.913 141.533 145.44L139.177 147.43L139.347 148.422C139.454 148.984 139.901 151.548 140.366 154.128C140.831 156.708 141.198 158.842 141.167 158.878C141.135 158.897 138.491 157.725 135.307 156.257L129.494 153.582L124.806 155.752C117.508 159.142 117.574 159.121 117.651 158.781C117.69 158.627 118.244 156.01 118.871 153.002L119.448 150.249L129.041 143.066L117.7 145.474L115.373 143.451C112.807 141.236 110.719 139.39 110.751 139.371C110.814 139.316 122.197 137.833 123.014 137.776L123.78 137.723L126.797 132.488C128.454 129.61 129.863 127.251 129.913 127.247C129.98 127.242 131.279 129.546 132.815 132.352Z" fill="white" fill-opacity="0.3"/>
<path d="M78.5189 197.94C80.943 202.375 82.1272 204.344 82.4276 204.448C82.664 204.536 86.3183 205.014 90.5618 205.533C94.7844 206.054 98.29 206.5 98.3361 206.559C98.4238 206.616 96.0956 208.642 89.4166 214.299L86.4718 216.787L86.6842 218.028C86.817 218.73 87.3761 221.935 87.9574 225.16C88.5387 228.385 88.9973 231.053 88.9586 231.097C88.9184 231.121 85.6136 229.657 81.6339 227.821L74.3674 224.478L68.508 227.19C59.3855 231.428 59.4674 231.401 59.5632 230.976C59.6126 230.784 60.3048 227.512 61.0884 223.753L61.8106 220.311L73.8007 211.332L59.6245 214.342L56.7163 211.814C53.5086 209.045 50.8983 206.737 50.9385 206.713C51.0175 206.645 65.2464 204.792 66.267 204.72L67.2252 204.653L70.9957 198.11C73.0674 194.512 74.8287 191.563 74.8912 191.559C74.9745 191.553 76.5991 194.432 78.5189 197.94Z" fill="white" fill-opacity="0.3"/>
<path d="M28.5189 73.9401C30.943 78.3754 32.1272 80.3438 32.4276 80.4484C32.664 80.5365 36.3183 81.0135 40.5618 81.5331C44.7844 82.0541 48.29 82.4997 48.3361 82.5593C48.4238 82.6159 46.0956 84.6416 39.4166 90.2995L36.4718 92.7869L36.6842 94.0279C36.817 94.7302 37.3761 97.9354 37.9574 101.16C38.5387 104.385 38.9973 107.053 38.9586 107.097C38.9184 107.121 35.6136 105.657 31.6339 103.821L24.3674 100.478L18.508 103.19C9.38553 107.428 9.46739 107.401 9.56323 106.976C9.61261 106.784 10.3048 103.512 11.0884 99.7527L11.8106 96.3114L23.8007 87.332L9.62454 90.342L6.71628 87.8139C3.50863 85.0451 0.898309 82.7368 0.93851 82.7131C1.01746 82.6448 15.2464 80.7916 16.267 80.7203L17.2252 80.6533L20.9957 74.1104C23.0674 70.5119 24.8287 67.5631 24.8912 67.5587C24.9745 67.5529 26.5991 70.4324 28.5189 73.9401Z" fill="white" fill-opacity="0.3"/>
<path d="M42.2226 9.52803C45.1316 14.8503 46.5527 17.2124 46.9131 17.3379C47.1967 17.4437 51.582 18.0161 56.6741 18.6396C61.7412 19.2649 65.9481 19.7996 66.0033 19.871C66.1085 19.939 63.3147 22.3698 55.2999 29.1593L51.7662 32.1441L52.021 33.6333C52.1804 34.4762 52.8513 38.3224 53.5488 42.1919C54.2464 46.0613 54.7968 49.2629 54.7503 49.3164C54.7021 49.3449 50.7363 47.5877 45.9607 45.3849L37.2409 41.3731L30.2097 44.6276C19.2626 49.7132 19.3609 49.6813 19.4759 49.1709C19.5351 48.9407 20.3657 45.0146 21.3061 40.5031L22.1727 36.3736L36.5608 25.5983L19.5494 29.2103L16.0595 26.1766C12.2104 22.854 9.07798 20.0841 9.12622 20.0556C9.22095 19.9736 26.2957 17.7499 27.5205 17.6642L28.6702 17.5838L33.1948 9.73233C35.6808 5.41418 37.7944 1.87559 37.8694 1.87035C37.9694 1.86336 39.9189 5.31876 42.2226 9.52803Z" fill="white" fill-opacity="0.3"/>
<path d="M150.815 28.3522C152.754 31.9004 153.702 33.4751 153.942 33.5588C154.131 33.6293 157.055 34.0109 160.449 34.4266C163.827 34.8434 166.632 35.1999 166.669 35.2475C166.739 35.2929 164.876 36.9134 159.533 41.4397L157.177 43.4296L157.347 44.4224C157.454 44.9843 157.901 47.5484 158.366 50.1281C158.831 52.7077 159.198 54.8421 159.167 54.8778C159.135 54.8968 156.491 53.7253 153.307 52.2567L147.494 49.5822L142.806 51.7519C135.508 55.1423 135.574 55.121 135.651 54.7807C135.69 54.6273 136.244 52.0099 136.871 49.0022L137.448 46.2492L147.041 39.0657L135.7 41.4737L133.373 39.4512C130.807 37.2362 128.719 35.3896 128.751 35.3706C128.814 35.3159 140.197 33.8334 141.014 33.7763L141.78 33.7227L144.797 28.4884C146.454 25.6096 147.863 23.2506 147.913 23.2471C147.98 23.2424 149.279 25.546 150.815 28.3522Z" fill="white" fill-opacity="0.3"/>
<path d="M196.749 87.2407C199.824 92.8674 201.326 95.3646 201.707 95.4973C202.007 95.6091 206.643 96.2143 212.026 96.8734C217.383 97.5344 221.831 98.0997 221.889 98.1752C222 98.2471 219.047 100.817 210.574 107.995L206.838 111.15L207.107 112.725C207.276 113.616 207.985 117.682 208.722 121.772C209.46 125.863 210.042 129.248 209.993 129.304C209.942 129.335 205.749 127.477 200.7 125.148L191.482 120.907L184.049 124.348C172.476 129.724 172.579 129.69 172.701 129.151C172.764 128.907 173.642 124.757 174.636 119.987L175.552 115.621L190.763 104.23L172.779 108.049L169.089 104.841C165.02 101.329 161.709 98.4005 161.76 98.3704C161.86 98.2837 179.911 95.9327 181.206 95.8422L182.421 95.7572L187.204 87.4567C189.833 82.8917 192.067 79.1507 192.146 79.1452C192.252 79.1378 194.313 82.7908 196.749 87.2407Z" fill="white" fill-opacity="0.3"/>
<path d="M111.519 51.9401C113.943 56.3754 115.127 58.3438 115.428 58.4484C115.664 58.5365 119.318 59.0135 123.562 59.5331C127.784 60.0541 131.29 60.4997 131.336 60.5593C131.424 60.6159 129.096 62.6416 122.417 68.2995L119.472 70.7869L119.684 72.0279C119.817 72.7302 120.376 75.9354 120.957 79.16C121.539 82.3845 121.997 85.0525 121.959 85.0971C121.918 85.1208 118.614 83.6565 114.634 81.8208L107.367 78.4777L101.508 81.1898C92.3855 85.4278 92.4674 85.4011 92.5632 84.9758C92.6126 84.784 93.3048 81.5122 94.0884 77.7527L94.8106 74.3114L106.801 65.332L92.6245 68.342L89.7163 65.8139C86.5086 63.0451 83.8983 60.7368 83.9385 60.7131C84.0175 60.6448 98.2464 58.7916 99.267 58.7203L100.225 58.6533L103.996 52.1104C106.067 48.5119 107.829 45.5631 107.891 45.5587C107.974 45.5529 109.599 48.4324 111.519 51.9401Z" fill="white" fill-opacity="0.3"/>
<path d="M171.519 175.94C173.943 180.375 175.127 182.344 175.428 182.448C175.664 182.536 179.318 183.014 183.562 183.533C187.784 184.054 191.29 184.5 191.336 184.559C191.424 184.616 189.096 186.642 182.417 192.299L179.472 194.787L179.684 196.028C179.817 196.73 180.376 199.935 180.957 203.16C181.539 206.385 181.997 209.053 181.959 209.097C181.918 209.121 178.614 207.657 174.634 205.821L167.367 202.478L161.508 205.19C152.386 209.428 152.467 209.401 152.563 208.976C152.613 208.784 153.305 205.512 154.088 201.753L154.811 198.311L166.801 189.332L152.625 192.342L149.716 189.814C146.509 187.045 143.898 184.737 143.939 184.713C144.017 184.645 158.246 182.792 159.267 182.72L160.225 182.653L163.996 176.11C166.067 172.512 167.829 169.563 167.891 169.559C167.974 169.553 169.599 172.432 171.519 175.94Z" fill="white" fill-opacity="0.3"/>
</svg>
