<svg width="101" height="98" viewBox="0 0 101 98" fill="none" xmlns="http://www.w3.org/2000/svg">
<path d="M42.2135 16.0127C36.98 26.9343 34.4281 31.784 33.7901 32.0472C33.2878 32.2686 25.5439 33.5229 16.5526 34.8951C7.60534 36.2705 0.17685 37.4442 0.0780583 37.5912C-0.108813 37.732 4.77017 42.6396 18.7703 56.3428L24.9431 62.3669L24.4647 65.4119C24.1671 67.1355 22.9091 75.0002 21.6034 82.9128C20.2978 90.8255 19.2647 97.3719 19.3456 97.4802C19.4301 97.5374 26.4575 93.8729 34.9215 89.2827L50.3759 80.9228L62.7108 87.4292C81.9148 97.5969 81.7422 97.5335 81.5493 96.4939C81.4494 96.0251 80.0614 88.0268 78.4913 78.8356L77.0439 70.4226L51.8833 48.7074L81.8096 55.7484L88.0228 49.4873C94.8751 42.6295 100.453 36.914 100.368 36.8567C100.203 36.6912 70.1375 32.4853 67.9796 32.3344L65.9537 32.1927L58.1287 16.2533C53.8293 7.48699 50.1715 0.304722 50.0394 0.295484C49.8633 0.283165 46.358 7.375 42.2135 16.0127Z" fill="white"/>
</svg>
