<svg width="1600" height="478" viewBox="0 0 1600 478" fill="none" xmlns="http://www.w3.org/2000/svg">
<path d="M-147 1C41.7927 15.5786 132.909 33.8018 377.1 160.636C621.292 287.469 877.146 186.148 983.57 167.925C1089.99 149.702 1335.64 126.376 1459.56 140.954C1583.48 155.533 1672.41 171.569 1645.44 248.107C1618.47 324.645 1564.53 386.604 1773 436.171" stroke="#E5E5E9" stroke-width="2"/>
<path d="M-147 57.8555C34.9119 71.8724 122.707 89.3936 357.999 211.341C593.29 333.288 839.819 235.871 942.364 218.349C1044.91 200.828 1281.61 178.401 1401.01 192.418C1520.41 206.435 1606.1 221.854 1580.11 295.442C1554.12 369.031 1502.15 428.603 1703.02 476.261" stroke="#E5E5E9" stroke-width="2"/>
</svg>
