<svg width="17" height="17" viewBox="0 0 17 17" fill="none" xmlns="http://www.w3.org/2000/svg">
<path d="M14.6667 2.98376H1.66669C1.39012 2.98376 1.16669 3.2072 1.16669 3.48376V13.4838C1.16669 13.7603 1.39012 13.9838 1.66669 13.9838H14.6667C14.9432 13.9838 15.1667 13.7603 15.1667 13.4838V3.48376C15.1667 3.2072 14.9432 2.98376 14.6667 2.98376ZM13.4042 4.68533L8.4745 8.52127C8.35262 8.61658 8.18231 8.61658 8.06044 8.52127L3.12919 4.68533C3.1106 4.67098 3.09696 4.65118 3.09019 4.62869C3.08343 4.60621 3.08386 4.58217 3.09144 4.55995C3.09902 4.53772 3.11337 4.51843 3.13246 4.50477C3.15156 4.4911 3.17446 4.48376 3.19794 4.48376H13.3354C13.3589 4.48376 13.3818 4.4911 13.4009 4.50477C13.42 4.51843 13.4344 4.53772 13.4419 4.55995C13.4495 4.58217 13.4499 4.60621 13.4432 4.62869C13.4364 4.65118 13.4228 4.67098 13.4042 4.68533Z" fill="#8195C2"/>
</svg>
