<svg width="18" height="19" viewBox="0 0 18 19" fill="none" xmlns="http://www.w3.org/2000/svg">
<g clip-path="url(#clip0_41_942)">
<path d="M0.384128 9.25776C0.383707 10.7898 0.781957 12.2856 1.53922 13.6041L0.311707 18.109L4.89833 16.9002C6.16693 17.5943 7.5883 17.9581 9.03271 17.9582H9.0365C13.8047 17.9582 17.6862 14.0582 17.6882 9.26462C17.6892 6.94179 16.79 4.75755 15.1564 3.11425C13.523 1.47109 11.3507 0.565696 9.03615 0.564636C4.26735 0.564636 0.386167 4.4644 0.384199 9.25776" fill="url(#paint0_linear_41_942)"/>
<path d="M0.0752344 9.25494C0.0747422 10.8421 0.487266 12.3914 1.27153 13.7571L0 18.4235L4.75109 17.1714C6.06016 17.8888 7.53405 18.267 9.03382 18.2676H9.03769C13.977 18.2676 17.9979 14.2273 18 9.26215C18.0008 6.85585 17.0693 4.5931 15.3773 2.89093C13.6851 1.18897 11.4351 0.250989 9.03769 0.25C4.09753 0.25 0.0772734 4.2897 0.0753047 9.25494H0.0752344ZM2.90461 13.5219L2.72721 13.2389C1.98148 12.047 1.58787 10.6698 1.58843 9.2555C1.59005 5.12852 4.93158 1.77089 9.0405 1.77089C11.0303 1.77174 12.9004 2.55141 14.3069 3.96601C15.7134 5.38076 16.4873 7.26138 16.4868 9.26158C16.485 13.3886 13.1434 16.7466 9.03769 16.7466H9.03473C7.69788 16.7459 6.38677 16.385 5.24334 15.7031L4.97123 15.5409L2.15184 16.2839L2.90461 13.5219V13.5219Z" fill="url(#paint1_linear_41_942)"/>
<path d="M6.79769 5.49028C6.62992 5.1155 6.45337 5.10794 6.29383 5.10137C6.16319 5.09571 6.01384 5.09614 5.86464 5.09614C5.7153 5.09614 5.47265 5.15261 5.26755 5.3777C5.06223 5.60301 4.4837 6.14748 4.4837 7.25486C4.4837 8.36231 5.28618 9.43252 5.39805 9.58285C5.51006 9.73289 6.94724 12.0781 9.2234 12.9803C11.1151 13.7301 11.5 13.581 11.9106 13.5434C12.3212 13.5059 13.2356 12.9991 13.4221 12.4735C13.6088 11.9479 13.6088 11.4975 13.5528 11.4033C13.4969 11.3095 13.3475 11.2532 13.1236 11.1407C12.8995 11.0281 11.7986 10.4836 11.5934 10.4085C11.388 10.3334 11.2388 10.2959 11.0894 10.5213C10.9401 10.7463 10.5112 11.2532 10.3805 11.4033C10.25 11.5538 10.1192 11.5725 9.89537 11.4599C9.67129 11.347 8.95009 11.1096 8.09446 10.3429C7.42874 9.74624 6.9793 9.00947 6.84866 8.78409C6.71802 8.55907 6.83467 8.43709 6.94696 8.32493C7.04758 8.22408 7.17098 8.06209 7.28305 7.93071C7.39471 7.79926 7.43198 7.70547 7.50665 7.55536C7.58139 7.40511 7.54398 7.27366 7.48809 7.16108C7.43198 7.04849 6.99681 5.93539 6.79769 5.49035" fill="white"/>
</g>
<defs>
<linearGradient id="paint0_linear_41_942" x1="8.99998" y1="18.109" x2="8.99998" y2="0.564636" gradientUnits="userSpaceOnUse">
<stop stop-color="#1FAF38"/>
<stop offset="1" stop-color="#60D669"/>
</linearGradient>
<linearGradient id="paint1_linear_41_942" x1="9" y1="18.4235" x2="9" y2="0.25" gradientUnits="userSpaceOnUse">
<stop stop-color="#F9F9F9"/>
<stop offset="1" stop-color="white"/>
</linearGradient>
<clipPath id="clip0_41_942">
<rect width="18" height="18.2338" fill="white" transform="translate(0 0.25)"/>
</clipPath>
</defs>
</svg>
