<svg width="165" height="156" viewBox="0 0 165 156" fill="none" xmlns="http://www.w3.org/2000/svg">
<path d="M75.4483 1.05019C75.4483 1.05019 21.8629 4.30519 23.1834 34.62C23.5619 43.3107 21.399 52.0093 15.0278 58.4944C11.028 62.5659 5.68958 65.5331 2.87971 70.5923C-2.6745 80.593 0.982349 92.8231 4.04536 102.851C7.08972 112.818 9.07974 123.297 15.0182 132.169C18.2648 137.02 22.6483 141.76 27.4538 145.259C34.1206 150.114 42.6813 152.185 50.9894 152.312C98.6991 153.041 151.4 149.674 156.737 89.6585C162.074 29.6434 126.58 -6.76359 75.4483 1.05019Z" fill="#F4F6F8"/>
<path d="M34.9111 51.1304C36.1451 51.7574 37.695 51.1819 38.3736 49.8447C39.0516 48.5076 38.6013 46.916 37.3679 46.2889C37.304 46.2567 37.2385 46.229 37.1735 46.203C37.4029 45.4635 37.5758 44.7177 37.6916 43.972C37.7622 43.972 37.8334 43.9708 37.9052 43.964C39.3127 43.8385 40.4303 42.5443 40.4009 41.0732C40.3715 39.602 39.2064 38.5114 37.799 38.6369C37.7255 38.6437 37.6532 38.655 37.5814 38.668C37.4345 37.9386 37.2328 37.2268 36.9785 36.5376C37.0435 36.4997 37.1079 36.4607 37.1707 36.4166C38.3747 35.5724 38.7601 33.9057 38.0306 32.6946C37.3012 31.4835 35.7338 31.1855 34.5292 32.0302C34.4676 32.0738 34.4094 32.1201 34.3523 32.1676C33.8766 31.6412 33.355 31.1539 32.7906 30.7089C32.8301 30.6439 32.8691 30.5777 32.9041 30.5087C33.5827 29.1716 34.4687 27.7117 33.2256 27.1039C30.3491 25.6989 29.1145 26.9015 28.4365 28.2387C28.4014 28.3082 28.3709 28.3783 28.3421 28.449C27.65 28.2556 26.9488 28.1216 26.2436 28.0481C26.2481 27.974 26.2515 27.8994 26.2498 27.8242C26.2204 26.3531 26.6566 25.557 25.2435 25.5293C22.1624 25.4694 21.1228 26.8076 21.1522 28.2788C21.1539 28.3557 21.1601 28.4309 21.168 28.5055C20.4617 28.7068 19.7684 28.9647 19.0932 29.2762C19.061 29.2106 19.0277 29.1455 18.9898 29.0822C18.2604 27.8711 16.693 27.5732 15.4883 28.4179C14.2843 29.2626 13.8989 30.9288 14.6284 32.1399C14.6657 32.2021 14.7069 32.2598 14.7482 32.3175C14.2148 32.8512 13.7153 33.4307 13.2537 34.0526C13.1938 34.0153 13.1333 33.9786 13.0695 33.9463C11.8354 33.3193 10.2856 33.8949 9.60698 35.2321C8.92895 36.5687 9.37928 38.1608 10.6127 38.7878C10.6766 38.8201 10.7421 38.8478 10.8071 38.8738C10.5777 39.6133 10.4048 40.3591 10.289 41.1048C10.2183 41.1048 10.1471 41.106 10.0754 41.1127C8.66791 41.2383 7.55029 42.5324 7.57967 44.0042C7.60905 45.4753 8.77413 46.566 10.1822 46.4405C10.2556 46.4337 10.328 46.4224 10.3997 46.4094C10.5466 47.1387 10.7483 47.8506 11.0026 48.5398C10.9376 48.5777 10.8732 48.6167 10.8105 48.6608C9.60585 49.5049 9.22107 51.1717 9.95052 52.3828C10.68 53.5939 13.0943 54.157 14.299 53.3123C14.3605 53.2687 13.5718 52.9573 13.6288 52.9098C14.1046 53.4361 14.6261 53.9235 15.1906 54.3685C15.151 54.4335 15.112 54.4996 15.077 54.5686C14.3984 55.9052 14.8493 57.4974 16.0827 58.1244C17.3168 58.7514 18.8666 58.1758 19.5452 56.8387C19.5803 56.7697 19.6108 56.699 19.6396 56.6289C20.3317 56.8223 21.0329 56.9557 21.7381 57.0298C21.7336 57.1038 21.7302 57.1785 21.7319 57.2537C21.7613 58.7249 22.9263 59.8155 24.3338 59.69C25.7413 59.5645 26.8589 58.2697 26.8295 56.7985C26.8279 56.7216 26.8216 56.6464 26.8137 56.5718C27.52 56.3705 28.2133 56.1127 28.8885 55.8012C28.9207 55.8668 28.954 55.9318 28.9919 55.9951C29.7214 57.2062 31.2887 57.5041 32.4934 56.6594C33.6974 55.8153 34.0828 54.1485 33.3533 52.9374C33.316 52.8752 33.2748 52.8176 33.2336 52.7599C33.7669 52.2262 34.2664 51.6466 34.728 51.0247C34.7879 51.062 34.8484 51.0988 34.9122 51.131L34.9111 51.1304ZM19.53 51.3255C15.0504 49.0498 13.4153 43.2697 15.8776 38.4158C18.3406 33.5619 23.9683 31.4722 28.4483 33.7479C32.9279 36.0236 34.5631 41.8037 32.1007 46.6576C29.6377 51.5115 24.0101 53.6012 19.53 51.3255Z" fill="url(#paint0_linear_0_1119)"/>
<path d="M37.9049 43.9636C39.3124 43.838 40.43 42.5433 40.4007 41.0721C40.3713 39.601 39.2062 38.5098 37.7987 38.6359C37.7253 38.6426 37.6529 38.6539 37.5812 38.6669C37.4343 37.9376 37.2326 37.2258 36.9783 36.5365C37.0433 36.4987 37.1077 36.4596 37.1704 36.4155C38.3745 35.5714 39.865 33.5314 39.0152 32.4012C37.4026 30.2567 35.7336 31.185 34.5295 32.0292C34.4679 32.0727 34.4097 32.1191 34.3526 32.1666C33.8769 31.6402 33.3554 31.1529 32.7909 30.7079C32.8304 30.6429 32.8694 30.5767 32.9045 30.5077C33.2734 29.7801 33.3062 28.9778 33.0627 28.2959C31.8993 30.3443 30.7517 32.4018 29.6245 34.4706C33.1983 37.0912 34.3362 42.2555 32.1021 46.6582C30.2093 50.3893 26.4462 52.4841 22.7718 52.2218C22.608 52.6469 22.447 53.075 22.2718 53.4962C21.7955 54.6394 21.2542 55.7589 20.7129 56.8772C21.0536 56.9417 21.396 56.992 21.739 57.0282C21.7345 57.1023 21.7311 57.1769 21.7328 57.2521C21.7621 58.7232 22.6549 59.9734 25.206 59.8377C26.6174 59.763 26.8598 58.2681 26.8304 56.7969C26.8287 56.7201 26.8225 56.6449 26.8152 56.5702C27.5215 56.369 28.2147 56.1111 28.89 55.7996C28.9222 55.8651 28.9555 55.9302 28.9934 55.9935C29.7228 57.2046 32.253 57.7197 33.4571 56.875C34.6617 56.0308 34.0837 54.1469 33.3542 52.9359C33.3169 52.8737 33.2757 52.816 33.2344 52.7583C33.7678 52.2246 34.2673 51.6451 34.7289 51.0231C34.7888 51.0604 34.8493 51.0972 34.9131 51.1294C36.1471 51.7564 37.697 51.1808 38.3756 49.8437C39.0536 48.5071 38.6033 46.9149 37.3699 46.2879C37.306 46.2557 37.2405 46.228 37.1755 46.202C37.4049 45.4624 37.5778 44.7167 37.6936 43.9709C37.7643 43.9709 37.8354 43.9692 37.9072 43.963L37.9049 43.9636Z" fill="url(#paint1_linear_0_1119)"/>
<path d="M36.2386 51.2814C37.4726 51.9085 39.0225 51.3329 39.7011 49.9958C40.3791 48.6586 39.9288 47.067 38.6953 46.4399C38.6315 46.4077 38.5659 46.38 38.5009 46.354C38.7303 45.6145 38.9032 44.8687 39.0191 44.123C39.0897 44.123 39.1609 44.1218 39.2326 44.115C40.6401 43.9895 41.7577 42.6953 41.7284 41.2242C41.699 39.753 40.5339 38.6618 39.1259 38.7879C39.0524 38.7947 38.9801 38.806 38.9083 38.819C38.7614 38.0896 38.5597 37.3778 38.3054 36.6886C38.3704 36.6507 38.4348 36.6117 38.4975 36.5676C39.7016 35.7235 40.087 34.0567 39.3575 32.8456C38.6281 31.6345 37.0607 31.3365 35.8561 32.1813C35.7945 32.2248 35.7363 32.2711 35.6786 32.3186C35.2029 31.7922 34.6814 31.3049 34.1169 30.8599C34.1565 30.7949 34.1954 30.7287 34.2305 30.6598C34.9085 29.3226 34.4582 27.731 33.2247 27.104C31.9907 26.477 30.4408 27.0525 29.7622 28.3897C29.7272 28.4592 29.6967 28.5294 29.6679 28.6C28.9757 28.4067 28.2745 28.2726 27.5694 28.1991C27.5739 28.1251 27.5773 28.0504 27.5756 27.9747C27.5462 26.5035 26.3811 25.4129 24.9731 25.5384C23.5656 25.6639 22.448 26.9581 22.4774 28.4293C22.4791 28.5062 22.4853 28.5813 22.4932 28.656C21.7869 28.8573 21.0936 29.1151 20.4184 29.426C20.3862 29.3605 20.3529 29.2955 20.315 29.2321C19.5856 28.0211 18.0182 27.7231 16.8135 28.5678C15.6089 29.4119 15.2241 31.0787 15.9536 32.2898C15.9909 32.352 16.0315 32.4096 16.0734 32.4673C15.54 33.0011 15.0405 33.5806 14.5789 34.2025C14.519 34.1652 14.4585 34.1285 14.3947 34.0963C13.1606 33.4692 11.6108 34.0448 10.9322 35.3819C10.2541 36.7185 10.7045 38.3107 11.9379 38.9377C12.0018 38.97 12.0673 38.9976 12.1323 39.0236C11.9029 39.7632 11.73 40.5089 11.6142 41.2547C11.5435 41.2547 11.4723 41.2559 11.4006 41.2627C9.9931 41.3882 8.87548 42.6829 8.90486 44.1541C8.93424 45.6252 10.0993 46.7159 11.5074 46.5903C11.5808 46.5836 11.6532 46.5723 11.7249 46.5593C11.8718 47.2881 12.0735 48.0004 12.3278 48.6897C12.2628 48.7275 12.1984 48.7666 12.1357 48.8107C10.9316 49.6548 10.5463 51.3216 11.2757 52.5327C12.0052 53.7438 13.5725 54.0417 14.7772 53.197C14.8388 53.1535 14.897 53.1071 14.9546 53.0596C15.4304 53.586 15.9519 54.0734 16.5163 54.5183C16.4768 54.5833 16.4378 54.6495 16.4028 54.7185C15.7247 56.0551 16.1751 57.6473 17.4085 58.2743C18.6425 58.9013 20.1924 58.3257 20.871 56.9886C20.906 56.9196 20.9365 56.8489 20.9653 56.7788C21.6575 56.9722 22.3587 57.1056 23.0639 57.1797C23.0593 57.2537 23.0559 57.3283 23.0576 57.4041C23.087 58.8753 24.2521 59.966 25.6602 59.8404C27.0676 59.7149 28.1853 58.4207 28.1559 56.9495C28.1542 56.8726 28.148 56.7974 28.1401 56.7228C28.8463 56.5215 29.5396 56.2637 30.2148 55.9522C30.247 56.0178 30.2804 56.0828 30.3182 56.1461C31.0477 57.3572 32.6151 57.6551 33.8197 56.8104C35.0243 55.9663 35.4091 54.2995 34.6797 53.0884C34.6424 53.0262 34.6011 52.9686 34.5599 52.9109C35.0933 52.3772 35.5927 51.7977 36.0544 51.1757C36.1143 51.2131 36.1747 51.2498 36.2386 51.282V51.2814ZM20.8574 51.4765C16.3779 49.2008 14.7427 43.4207 17.2051 38.5668C19.668 33.7129 25.2957 31.6232 29.7758 33.8989C34.2559 36.1746 35.8905 41.9547 33.4281 46.8086C30.9652 51.6625 25.3375 53.7522 20.8574 51.4765Z" fill="url(#paint2_linear_0_1119)"/>
<path d="M57.5373 25.1359C58.521 25.6357 59.7573 25.1766 60.2986 24.1108C60.8393 23.0445 60.4805 21.7752 59.4963 21.2754C59.4454 21.2494 59.3934 21.2279 59.3409 21.207C59.5239 20.6173 59.6612 20.0225 59.7539 19.4277C59.8104 19.4277 59.8669 19.4265 59.9245 19.4214C61.0472 19.3214 61.9383 18.2889 61.9146 17.1157C61.8908 15.9425 60.9619 15.0724 59.8392 15.1725C59.7805 15.1776 59.7228 15.1872 59.6658 15.1974C59.5482 14.6161 59.3878 14.0479 59.1849 13.4984C59.2363 13.4684 59.2878 13.4367 59.338 13.4017C60.2986 12.7283 60.6054 11.3996 60.024 10.4334C59.4426 9.46766 58.1922 9.23018 57.2316 9.90357C57.1825 9.93806 57.1361 9.97535 57.0904 10.0132C56.7112 9.5937 56.2948 9.20471 55.8451 8.84964C55.8767 8.79762 55.9078 8.74503 55.9355 8.68963C56.4762 7.62329 57.183 6.45916 56.1914 5.97462C53.8974 4.854 52.9131 5.81348 52.3718 6.87925C52.3436 6.93466 52.3199 6.99063 52.2967 7.04661C51.7447 6.89226 51.1853 6.78594 50.6231 6.72714C50.6265 6.66777 50.6293 6.60845 50.6282 6.54852C50.6044 5.37532 50.9525 4.74038 49.8258 4.71832C47.3685 4.67083 46.5396 5.73769 46.5628 6.91089C46.5639 6.97252 46.569 7.03246 46.5752 7.09183C46.0119 7.2524 45.4593 7.45765 44.9208 7.70642C44.8954 7.65384 44.8688 7.60238 44.8383 7.55149C44.2569 6.58523 43.0065 6.34832 42.046 7.02171C41.0854 7.69509 40.7786 9.02378 41.36 9.99004C41.39 10.0398 41.4222 10.0856 41.4555 10.1314C41.0301 10.5571 40.6317 11.0191 40.2639 11.515C40.2164 11.485 40.1678 11.4556 40.117 11.4301C39.1333 10.9303 37.897 11.3894 37.3557 12.4552C36.815 13.5215 37.1738 14.7908 38.158 15.2906C38.2089 15.3166 38.2609 15.3381 38.3134 15.359C38.1303 15.9487 37.993 16.5436 37.9004 17.1384C37.8439 17.1384 37.7874 17.1395 37.7297 17.1446C36.607 17.2446 35.716 18.2771 35.7397 19.4503C35.7635 20.6235 36.6924 21.4936 37.8151 21.3935C37.8738 21.3885 37.9315 21.3788 37.9885 21.3686C38.1061 21.9499 38.2665 22.5181 38.4694 23.0677C38.4179 23.0977 38.3665 23.1293 38.3162 23.1644C37.3557 23.8378 37.0489 25.1664 37.6303 26.1327C38.2117 27.0984 40.1379 27.5473 41.0979 26.8739C41.147 26.8394 40.5176 26.5907 40.5634 26.5528C40.9425 26.9723 41.3589 27.3613 41.8087 27.7164C41.777 27.7684 41.746 27.821 41.7183 27.8764C41.1775 28.9427 41.5363 30.212 42.5206 30.7118C43.5043 31.2116 44.7406 30.7525 45.2819 29.6868C45.3101 29.6313 45.3339 29.5754 45.357 29.5194C45.9091 29.6738 46.4684 29.7801 47.0306 29.8389C47.0273 29.8982 47.0244 29.9576 47.0256 30.0175C47.0493 31.1907 47.9782 32.0609 49.1009 31.9608C50.2236 31.8607 51.1147 30.8283 51.0909 29.6551C51.0898 29.5941 51.0847 29.5341 51.0785 29.4742C51.6418 29.3136 52.1944 29.1084 52.7329 28.8596C52.7583 28.9122 52.7849 28.9642 52.8154 29.0145C53.3968 29.9808 54.6472 30.2177 55.6077 29.5443C56.5683 28.8709 56.8751 27.5422 56.2937 26.576C56.2637 26.5268 56.231 26.4804 56.1982 26.4346C56.6237 26.0089 57.022 25.547 57.3898 25.0511C57.4373 25.0811 57.4859 25.1099 57.5367 25.1359H57.5373ZM45.2711 25.2914C41.6985 23.4765 40.395 18.8673 42.3584 14.9961C44.3225 11.1254 48.8105 9.45858 52.3831 11.2735C55.9558 13.0884 57.2599 17.6975 55.2953 21.5688C53.3313 25.4395 48.8432 27.1063 45.2706 25.2914H45.2711Z" fill="url(#paint3_linear_0_1119)"/>
<path d="M59.924 19.4216C61.0467 19.3215 61.9377 18.2891 61.914 17.1159C61.8903 15.9427 60.9614 15.0725 59.8387 15.1726C59.7799 15.1777 59.7223 15.1873 59.6652 15.1975C59.5482 14.6163 59.3872 14.0481 59.1844 13.4985C59.2358 13.4685 59.2872 13.4369 59.3375 13.4018C60.298 12.7284 61.4863 11.1018 60.8082 10.2006C59.5222 8.49023 58.191 9.23033 57.2311 9.90372C57.1819 9.93821 57.1356 9.97549 57.0898 10.0134C56.7107 9.59385 56.2942 9.20485 55.8445 8.84978C55.8761 8.79777 55.9072 8.74518 55.9349 8.68977C56.2293 8.10968 56.2553 7.46969 56.0609 6.92578C55.1331 8.55978 54.2178 10.2 53.3194 11.8498C56.1694 13.9395 57.0768 18.0578 55.2953 21.5689C53.7855 24.5441 50.7847 26.2148 47.8544 26.0056C47.7239 26.3449 47.5957 26.6858 47.4555 27.0216C47.0758 27.9331 46.6442 28.8258 46.2119 29.718C46.4837 29.7695 46.7566 29.8096 47.0301 29.8385C47.0267 29.8978 47.0239 29.9571 47.025 30.0171C47.0487 31.1903 47.7601 32.1871 49.7947 32.0791C50.9203 32.0192 51.1135 30.8279 51.0904 29.6547C51.0892 29.5936 51.0841 29.5337 51.0779 29.4738C51.6413 29.3132 52.1938 29.108 52.7323 28.8592C52.7577 28.9118 52.7843 28.9638 52.8148 29.0141C53.3962 29.9804 55.4145 30.3908 56.3745 29.7174C57.335 29.044 56.8745 27.5418 56.2925 26.5761C56.2626 26.5264 56.2298 26.4806 56.1971 26.4348C56.6225 26.009 57.0209 25.5471 57.3887 25.0513C57.4362 25.0812 57.4848 25.1106 57.5356 25.1361C58.5193 25.6359 59.7556 25.1767 60.2969 24.111C60.8376 23.0446 60.4788 21.7753 59.4946 21.2755C59.4437 21.2495 59.3917 21.228 59.3392 21.2071C59.5222 20.6174 59.6595 20.0226 59.7522 19.4278C59.8087 19.4278 59.8652 19.4267 59.9228 19.4216H59.924Z" fill="url(#paint4_linear_0_1119)"/>
<path d="M58.5959 25.2563C59.5796 25.7561 60.8159 25.297 61.3572 24.2312C61.8979 23.1649 61.5391 21.8956 60.5548 21.3957C60.504 21.3697 60.452 21.3483 60.3995 21.3273C60.5825 20.7376 60.7204 20.1428 60.8125 19.548C60.869 19.548 60.9255 19.5469 60.9831 19.5418C62.1058 19.4417 62.9969 18.4093 62.9732 17.2361C62.9494 16.0629 62.0205 15.1928 60.8978 15.2928C60.8391 15.2979 60.7814 15.3076 60.7244 15.3177C60.6068 14.7365 60.4464 14.1683 60.2435 13.6187C60.2949 13.5888 60.3463 13.5571 60.3966 13.522C61.3572 12.8487 61.664 11.52 61.0826 10.5537C60.5012 9.58746 59.2508 9.35055 58.2902 10.0239C58.2411 10.0584 58.1947 10.0957 58.149 10.1336C57.7698 9.71407 57.3534 9.32507 56.9036 8.97C56.9353 8.91798 56.9664 8.86545 56.994 8.81004C57.5348 7.74371 57.176 6.47437 56.1917 5.97456C55.208 5.47475 53.9717 5.93385 53.4304 6.99962C53.4022 7.05503 53.3784 7.111 53.3553 7.16697C52.8032 7.01262 52.2439 6.90636 51.6817 6.84756C51.6851 6.78819 51.6879 6.72881 51.6868 6.66888C51.663 5.49569 50.7341 4.62553 49.6114 4.72561C48.4887 4.82568 47.5977 5.85811 47.6214 7.03131C47.6225 7.09294 47.6276 7.15283 47.6338 7.21219C47.0705 7.37277 46.5179 7.57801 45.9794 7.82679C45.954 7.7742 45.9274 7.72274 45.8969 7.67185C45.3155 6.70559 44.0651 6.46874 43.1046 7.14213C42.144 7.81551 41.8372 9.14419 42.4186 10.1105C42.4486 10.1602 42.4808 10.206 42.5141 10.2518C42.0887 10.6775 41.6903 11.1395 41.3225 11.6353C41.275 11.6053 41.2264 11.5765 41.1756 11.5505C40.1919 11.0507 38.9556 11.5098 38.4143 12.5756C37.8736 13.6419 38.2324 14.9112 39.2166 15.411C39.2675 15.4371 39.3195 15.4585 39.372 15.4795C39.1889 16.0692 39.0511 16.6639 38.959 17.2587C38.9025 17.2587 38.846 17.2599 38.7883 17.265C37.6656 17.3651 36.7746 18.3974 36.7983 19.5706C36.822 20.7438 37.751 21.614 38.8737 21.5139C38.9324 21.5088 38.9901 21.4992 39.0471 21.4891C39.1646 22.0703 39.3251 22.6385 39.528 23.1881C39.4765 23.218 39.4251 23.2497 39.3748 23.2847C38.4143 23.9581 38.1075 25.2868 38.6889 26.2531C39.2703 27.2193 40.5207 27.4562 41.4813 26.7829C41.5304 26.7484 41.5767 26.711 41.6225 26.6731C42.0016 27.0927 42.4181 27.4817 42.8678 27.8367C42.8362 27.8887 42.8051 27.9413 42.7774 27.9967C42.2367 29.0631 42.5955 30.3324 43.5798 30.8322C44.5635 31.332 45.7997 30.8729 46.341 29.8071C46.3693 29.7517 46.393 29.6957 46.4162 29.6398C46.9682 29.7941 47.5276 29.9004 48.0898 29.9592C48.0864 30.0186 48.0836 30.078 48.0847 30.1379C48.1084 31.3111 49.0374 32.1812 50.1601 32.0806C51.2828 31.9805 52.1738 30.9481 52.1501 29.7749C52.149 29.7139 52.1439 29.6539 52.1377 29.594C52.701 29.4334 53.2536 29.2282 53.792 28.9794C53.8175 29.032 53.844 29.084 53.8745 29.1343C54.456 30.1006 55.7064 30.3375 56.6669 29.6641C57.6274 28.9907 57.9343 27.662 57.3528 26.6958C57.3229 26.6466 57.2907 26.6002 57.2574 26.5544C57.6828 26.1287 58.0812 25.6667 58.449 25.1709C58.4965 25.2008 58.545 25.2297 58.5959 25.2557V25.2563ZM46.3297 25.4118C42.7571 23.5968 41.4536 18.9877 43.417 15.1165C45.3811 11.2458 49.8691 9.57894 53.4417 11.3939C57.0144 13.2088 58.3185 17.8185 56.3544 21.6892C54.3904 25.5599 49.9024 27.2267 46.3297 25.4118Z" fill="url(#paint5_linear_0_1119)"/>
<path d="M100.045 135.317C102.336 129.2 104.757 119.907 102.764 109.444C100.15 95.7211 92.2419 92.041 82.7099 71.3305C76.6827 58.2353 72.6089 49.0363 76.7404 40.9975C79.978 34.6985 87.8669 29.8661 94.6076 30.8917C100.213 31.7443 105.68 36.7469 108.597 40.8047C110.975 44.1117 111.784 46.9659 114.796 47.8383C117.874 48.7299 119.622 46.5005 122.315 46.9574C127.775 47.8835 130.208 58.686 130.602 60.4314C134.975 79.8516 124.772 99.4476 120.219 107.942C116.454 114.966 110.19 124.94 100.045 135.317Z" fill="url(#paint6_linear_0_1119)"/>
<g style="mix-blend-mode:soft-light" opacity="0.5">
<g style="mix-blend-mode:soft-light">
<path d="M96.753 140.936L96.4563 140.66C102.478 134.179 107.197 127.668 110.483 121.307C115.327 111.928 116.889 103.144 115.126 95.1973C113.745 88.9728 110.424 83.458 105.828 75.824C102.159 69.7302 99.0091 65.7424 96.2303 62.224C92.5983 57.6256 89.7297 53.9935 87.4261 47.8052C85.0886 41.5254 84.1258 34.61 84.5654 27.252L84.9699 27.2762C84.5337 34.5772 85.4881 41.4372 87.8058 47.6639C90.0874 53.7922 92.9385 57.4023 96.5484 61.9724C99.3352 65.5004 102.493 69.4989 106.175 75.6148C110.618 82.9927 114.126 88.8202 115.522 95.1091C117.306 103.151 115.732 112.028 110.843 121.493C107.54 127.887 102.8 134.428 96.7536 140.936H96.753Z" fill="white"/>
</g>
<g style="mix-blend-mode:soft-light">
<path d="M102.762 71.4633C101.411 71.4633 96.9324 71.3044 91.5997 69.4103C85.7178 67.3206 77.5571 62.6329 72.082 52.168L72.4408 51.9797C77.8515 62.3213 85.911 66.9559 91.7195 69.0225C97.2647 70.9951 101.87 71.0635 102.93 71.0573C100.725 57.8394 103.337 47.5786 105.926 41.2846C108.75 34.4196 112.164 30.6535 112.198 30.6162L112.497 30.8904C112.463 30.9272 109.089 34.6526 106.293 41.4571C103.713 47.7353 101.112 57.9955 103.369 71.2207L103.407 71.4463L103.178 71.457C103.17 71.457 103.025 71.4633 102.762 71.4633Z" fill="white"/>
</g>
<g style="mix-blend-mode:soft-light">
<path d="M112.852 88.1926L112.724 88.1202C112.652 88.0801 105.466 84.0522 97.4723 81.4259C89.5207 78.8138 76.0765 83.1837 75.942 83.2278L75.8154 82.8428C75.9516 82.7981 89.523 78.3875 97.5989 81.0409C105.039 83.4856 111.782 87.1376 112.792 87.695C117.392 83.3534 120.579 73.6065 122.011 59.4891C123.104 48.7161 122.791 39.1116 122.788 39.0161L123.192 39.002C123.196 39.0981 123.509 48.7296 122.414 59.5298C120.94 74.0611 117.759 83.6711 112.96 88.0925L112.852 88.192V88.1926Z" fill="white"/>
</g>
<g style="mix-blend-mode:soft-light">
<path d="M112.119 118.922L112.145 118.519C112.408 114.39 111.429 110.694 109.236 107.532C107.478 104.998 104.938 102.797 101.688 100.989C96.1345 97.9015 90.3594 97.028 90.3018 97.0195L90.3605 96.6186C90.4187 96.6271 96.2577 97.5091 101.875 100.63C107.007 103.48 112.985 108.822 112.572 118.136C113.914 117.215 119.115 113.512 124.984 107.535C131.248 101.155 139.575 90.8069 143.676 77.7315L151.643 52.3379L152.029 52.4595L144.063 77.8531C139.936 91.0093 131.563 101.414 125.266 107.826C118.444 114.772 112.517 118.663 112.458 118.701L112.119 118.922Z" fill="white"/>
</g>
</g>
<path d="M101.016 133.601C111.323 133.569 124.45 132.056 136.977 126.235C140.174 124.75 159.925 115.573 157.492 106.555C156.635 103.378 153.75 102.904 152.53 98.6761C151.084 93.6667 154.211 91.1269 156.333 84.8448C157.599 81.0962 161.306 70.127 154.7 64.1394C150.754 60.5616 143.303 58.9242 137.658 60.3021C129.378 62.3234 126.605 70.4351 122.15 84.2415C118.201 96.4806 119.276 99.4648 116.279 108.228C114.054 114.732 109.833 123.698 101.016 133.601H101.016Z" fill="url(#paint7_linear_0_1119)"/>
<g style="mix-blend-mode:soft-light" opacity="0.5">
<g style="mix-blend-mode:soft-light">
<path d="M74.5385 139.451C68.7775 139.451 62.8803 138.684 56.8916 137.152L56.9922 136.76C68.308 139.654 79.2915 139.8 89.6388 137.193C103.424 133.72 115.327 125.319 125.019 112.222C135.112 98.5823 140.278 83.2668 142.835 72.8211C144.605 65.5886 144.171 57.6041 141.543 49.0903L141.93 48.9705C144.58 57.5554 145.016 65.6123 143.229 72.9173C140.663 83.3991 135.478 98.7688 125.344 112.463C115.595 125.637 103.615 134.09 89.7371 137.586C84.8033 138.829 79.726 139.451 74.5379 139.451H74.5385Z" fill="white"/>
</g>
<g style="mix-blend-mode:soft-light">
<path d="M136.042 93.6381L135.926 93.4973C135.897 93.4617 132.969 89.885 130.579 84.4035C128.37 79.3393 126.176 71.5628 128.273 63.2753L128.665 63.3748C126.598 71.547 128.764 79.2268 130.945 84.2305C133.047 89.0528 135.565 92.3841 136.124 93.0971C157.851 78.6501 157.474 62.3774 156.838 57.7259C156.818 57.5834 156.811 57.5319 156.811 57.4952H157.014L157.217 57.4929C157.218 57.5195 157.227 57.5794 157.239 57.671C157.885 62.3932 158.276 78.9345 136.194 93.5381L136.042 93.6387L136.042 93.6381Z" fill="white"/>
</g>
<g style="mix-blend-mode:soft-light">
<path d="M133.19 112.872C130.766 112.872 128.147 112.702 125.322 112.315L125.214 112.3L125.167 112.203C125.106 112.078 119.093 99.4849 120.214 82.2708L121.345 64.9109L121.75 64.9374L120.619 82.2974C119.557 98.6017 124.93 110.726 125.486 111.928C132.885 112.928 143.54 113.003 152.5 107.75C157.87 104.602 160.1 100.988 160.122 100.952L160.469 101.162C160.446 101.199 158.162 104.9 152.705 108.1C148.73 110.431 142.371 112.872 133.19 112.872V112.872Z" fill="white"/>
</g>
</g>
<path d="M107.078 138.242C107.051 137.194 106.99 131.016 111.536 127.231C115.341 124.062 120.307 124.292 121.457 124.345C126.089 124.56 127.237 126.708 130.086 125.73C133.47 124.569 133.706 120.905 136.408 120.818C138.273 120.758 140.134 122.438 140.704 124.174C141.705 127.222 138.967 131.168 135.78 132.726C131.388 134.873 128.508 131.331 123.316 133.504C120.299 134.766 120.358 136.344 117.199 137.753C113.532 139.388 109.74 138.915 107.077 138.242H107.078Z" fill="url(#paint8_linear_0_1119)"/>
<g style="mix-blend-mode:soft-light" opacity="0.5">
<g style="mix-blend-mode:soft-light">
<path d="M105.629 140.561L105.468 140.438C107.024 138.403 108.726 136.439 110.525 134.598C114.128 130.913 115.937 129.064 118.138 128.29C121.003 127.284 123.237 128.096 125.398 128.882C127.313 129.578 129.123 130.236 131.288 129.648C134.726 128.715 137.49 124.946 139.504 118.444L139.697 118.504C137.661 125.076 134.85 128.891 131.34 129.844C129.113 130.449 127.275 129.78 125.328 129.072C123.201 128.299 121.001 127.499 118.206 128.481C116.048 129.239 114.251 131.078 110.671 134.739C108.877 136.574 107.18 138.533 105.629 140.561Z" fill="white"/>
</g>
<g style="mix-blend-mode:soft-light">
<path d="M135.551 130.314C135.178 130.314 134.842 130.295 134.544 130.264C132.928 130.098 132.067 129.594 132.031 129.573L132.001 129.556L131.988 129.524C130.556 125.962 132.881 120.825 132.905 120.773L133.089 120.858C133.066 120.909 130.792 125.935 132.163 129.415C132.509 129.599 135.891 131.252 141.5 128.669L141.585 128.854C139.083 130.006 137.031 130.315 135.551 130.315V130.314Z" fill="white"/>
</g>
<g style="mix-blend-mode:soft-light">
<path d="M129.303 135.804C127.811 131.561 118.238 128.513 118.141 128.482L118.055 128.455L118.072 128.366C118.376 126.816 120.094 125.743 123.178 125.176C125.452 124.758 127.666 124.786 127.69 124.786L127.686 124.989C127.601 124.989 119.103 124.903 118.29 128.317C118.75 128.467 120.942 129.206 123.257 130.359C126.754 132.102 128.852 133.91 129.494 135.736L129.303 135.803L129.303 135.804Z" fill="white"/>
</g>
<g style="mix-blend-mode:soft-light">
<path d="M123.057 137.429C120.464 131.368 111.108 134.341 111.014 134.372L110.9 134.41L110.882 134.291C110.039 128.537 115.208 123.322 115.261 123.27L115.404 123.413C115.353 123.464 110.324 128.539 111.066 134.144C112.165 133.818 120.737 131.492 123.244 137.35L123.057 137.429Z" fill="white"/>
</g>
</g>
<path d="M164.009 142.453L4.51367 141.093V145.118C4.51367 146.21 5.20922 147.139 6.15168 147.305L51.2521 155.231C51.7872 155.325 52.3302 155.35 52.8703 155.306L162.276 146.268C163.253 146.188 164.01 145.256 164.01 144.133V142.453H164.009Z" fill="#262648"/>
<path d="M106.129 136.003L6.16317 143.366C4.3743 143.498 2.91992 142.098 2.91992 140.239V65.7482C2.91992 63.8892 4.3743 62.3818 6.16317 62.3818H106.129C107.603 62.3818 108.795 63.7444 108.795 65.4254V132.764C108.795 134.444 107.603 135.895 106.129 136.003V136.003Z" fill="#262648"/>
<path d="M107.723 136.003L7.75692 143.366C5.96805 143.498 4.51367 142.098 4.51367 140.239V65.7482C4.51367 63.8892 5.96805 62.3818 7.75692 62.3818H107.723C109.197 62.3818 110.388 63.7444 110.388 65.4254V132.764C110.388 134.444 109.197 135.895 107.723 136.003V136.003Z" fill="url(#paint9_linear_0_1119)"/>
<path d="M104.609 131.256L11.501 137.652C10.0455 137.752 8.8623 136.603 8.8623 135.085V69.8684C8.8623 68.3503 10.0455 67.115 11.501 67.1088L104.609 66.7073C105.825 66.7022 106.808 67.8183 106.808 69.2013V128.602C106.808 129.984 105.825 131.173 104.609 131.256V131.256Z" fill="url(#paint10_linear_0_1119)"/>
<path d="M61.2712 64.4193C61.2712 65.1114 60.7565 65.674 60.1214 65.6762C59.4852 65.6785 58.9688 65.1176 58.9688 64.4238C58.9688 63.7301 59.4852 63.1676 60.1214 63.167C60.7565 63.167 61.2712 63.7273 61.2712 64.4193Z" fill="white"/>
<g style="mix-blend-mode:soft-light" opacity="0.48">
<path d="M7.75677 143.366L107.217 136.04L107.723 136.003C108.4 135.953 109.015 135.618 109.484 135.111C102.327 134.719 97.8813 132.178 95.0138 129.552C89.255 124.278 90.254 119.076 84.0432 115.609C76.2973 111.284 70.2069 116.765 64.3289 111.358C60.7653 108.079 62.5152 105.635 58.13 100.736C53.2736 95.31 50.1117 97.1339 45.231 92.2506C39.0598 86.0759 42.146 81.2717 36.8302 76.8385C30.381 71.4604 23.4266 76.4381 17.2876 71.28C14.6399 69.0552 13.1872 65.8211 12.4284 62.3818H7.7579C5.96903 62.3818 4.51465 63.8892 4.51465 65.7482V140.239C4.51465 142.098 5.96903 143.498 7.75733 143.366H7.75677Z" fill="white"/>
</g>
<path d="M111.707 135.594L4.51367 143.345L51.2521 151.56C51.7872 151.653 52.3302 151.679 52.8703 151.634L164.009 142.454L113.412 135.648C112.847 135.571 112.276 135.554 111.707 135.595V135.594Z" fill="url(#paint11_linear_0_1119)"/>
<path d="M20.1553 143.412L109.397 136.863L137.017 140.549L48.5439 147.549L20.1553 143.412Z" fill="#262648"/>
<path d="M120.135 115.983C120.135 124.225 113.417 131.333 105.013 131.866L11.4033 137.814C21.3015 137.185 29.2056 129.438 29.2056 120.501V17.6982L120.135 21.1794V115.984V115.983Z" fill="url(#paint12_linear_0_1119)"/>
<path d="M41.1804 77.6395L35.6172 77.6254L35.62 36.2197L41.1963 36.3808L41.1804 77.6395Z" fill="url(#paint13_linear_0_1119)"/>
<path d="M52.1898 77.6672L46.4932 77.6526L46.5129 49.4551L52.2191 49.5733L52.1898 77.6672Z" fill="url(#paint14_linear_0_1119)"/>
<path d="M62.8379 77.6948L57.2188 77.6807L57.2657 42.2615L62.8961 42.4045L62.8379 77.6948Z" fill="url(#paint15_linear_0_1119)"/>
<path d="M73.341 77.7225L68.21 77.709L68.2653 49.7061L73.4042 49.8129L73.341 77.7225Z" fill="url(#paint16_linear_0_1119)"/>
<path d="M84.1058 77.7486L78.4375 77.7345L78.4889 57.6211L84.1635 57.7098L84.1058 77.7486Z" fill="url(#paint17_linear_0_1119)"/>
<path d="M94.1238 77.7752L89.1318 77.7621L89.259 37.7705L94.2628 37.9153L94.1238 77.7752Z" fill="url(#paint18_linear_0_1119)"/>
<path d="M104.6 77.8019L99.2812 77.7883L99.3259 65.9297L104.648 65.9851L104.6 77.8019Z" fill="url(#paint19_linear_0_1119)"/>
<path d="M114.544 77.8272L109.296 77.8142L109.434 46.1062L114.691 46.2312L114.544 77.8272Z" fill="url(#paint20_linear_0_1119)"/>
<path d="M114.489 89.7422L35.6172 90.1697V86.1248L114.507 85.9004L114.489 89.7422Z" fill="url(#paint21_linear_0_1119)"/>
<path d="M114.352 119.266L35.6152 121.25L35.6158 117.22L114.37 115.438L114.352 119.266Z" fill="url(#paint22_linear_0_1119)"/>
<path d="M73.4509 29.1688L35.6201 27.8735L35.6207 23.5957L73.4605 24.994L73.4509 29.1688Z" fill="url(#paint23_linear_0_1119)"/>
<path opacity="0.5" d="M65.2911 95.3633L65.264 110.219L34.543 110.788V95.6369L65.2911 95.3633Z" fill="url(#paint24_linear_0_1119)"/>
<path d="M34.543 104.484V110.788L65.264 110.218L65.2849 98.6566C63.426 98.0313 61.3642 97.6965 59.7392 98.7295C56.3405 100.892 56.7615 102.115 53.2284 101.547C50.4682 101.102 47.3984 100.697 45.0383 102.497C43.5777 103.611 42.824 104.795 40.7238 104.648C38.7496 104.509 36.3669 103.206 34.5435 104.484H34.543Z" fill="url(#paint25_linear_0_1119)"/>
<path d="M114.453 97.6126L72.6826 98.0593L72.6888 95.2978L114.465 94.9258L114.453 97.6126Z" fill="url(#paint26_linear_0_1119)"/>
<path d="M114.425 103.366L72.6689 103.974L72.6746 101.411L114.437 100.873L114.425 103.366Z" fill="url(#paint27_linear_0_1119)"/>
<path d="M114.397 109.308L72.6553 110.081L72.6615 107.323L114.41 106.625L114.397 109.308Z" fill="url(#paint28_linear_0_1119)"/>
<path d="M123.691 138.625C123.691 138.625 118.563 140.972 118.48 141.344C118.397 141.717 121.781 141.211 123.163 141.262C124.545 141.312 125.681 140.901 125.554 140.315C125.428 139.73 124.941 138.258 124.941 138.258L123.691 138.624V138.625Z" fill="url(#paint29_linear_0_1119)"/>
<path d="M123.498 136.73L123.815 139.042C123.815 139.042 124.628 139.329 125.173 138.986L125.4 136.449L123.497 136.73H123.498Z" fill="url(#paint30_linear_0_1119)"/>
<path d="M147.673 136.728L148.272 137.685C148.44 137.953 148.49 138.276 148.411 138.582C148.204 139.38 147.791 140.936 147.61 141.341C147.364 141.894 144.042 142.23 144.042 142.23C144.042 142.23 143.745 141.814 144.434 141.308C145.122 140.802 145.566 140.722 145.807 139.978C146.048 139.234 146.206 137.131 146.206 137.131L147.673 136.728Z" fill="url(#paint31_linear_0_1119)"/>
<path d="M145.182 134.297C145.4 134.47 146.475 137.708 146.475 137.708C146.475 137.708 146.821 138.149 147.476 137.496C148.13 136.842 147.772 137.202 147.772 137.202L147.641 134.016L145.182 134.297V134.297Z" fill="url(#paint32_linear_0_1119)"/>
<path d="M120.562 90.2735C120.308 97.173 120.315 104.668 120.73 112.674C121.199 121.689 122.116 130.021 123.266 137.572C123.686 137.585 124.128 137.586 124.59 137.572C124.901 137.563 125.203 137.547 125.495 137.526C126.078 135.958 126.767 133.897 127.382 131.434C128.029 128.845 128.418 126.524 128.693 124.304C129.663 116.488 128.503 115.809 129.291 110.017C129.99 104.886 130.999 104.684 132.168 97.3991C133.436 89.4955 132.475 88.3127 132.008 87.8852C130.02 86.0669 125.364 87.3193 120.562 90.2729L120.562 90.2735Z" fill="url(#paint33_linear_0_1119)"/>
<path style="mix-blend-mode:multiply" opacity="0.3" d="M132.008 87.8851C130.112 86.151 125.789 87.2139 121.226 89.8786C126.496 95.549 127.078 99.2343 126.453 101.628C125.747 104.333 123.584 105.117 123.599 108.073C123.618 111.705 126.897 112.66 126.836 116.504C126.796 119.046 125.356 119.023 125.024 122.163C124.631 125.879 126.515 127.155 125.912 129.905C125.653 131.088 124.909 132.634 122.782 134.231C122.939 135.36 123.099 136.476 123.265 137.572C123.686 137.585 124.128 137.586 124.589 137.572C124.901 137.562 125.203 137.546 125.494 137.525C126.077 135.957 126.767 133.896 127.382 131.434C128.029 128.845 128.418 126.523 128.693 124.303C129.663 116.487 128.503 115.808 129.291 110.016C129.989 104.885 130.999 104.683 132.167 97.3984C133.435 89.4947 132.475 88.3119 132.007 87.8851H132.008Z" fill="url(#paint34_linear_0_1119)"/>
<path d="M123.817 90.1498C128.359 96.7655 133.261 105.001 137.65 114.863C140.968 122.315 143.377 129.314 145.149 135.552C145.387 135.661 145.948 135.88 146.664 135.783C147.641 135.651 148.225 135.025 148.379 134.851C149.083 130.374 148.995 126.585 148.746 123.85C148.586 122.099 148.304 119.184 147.18 115.586C145.921 111.556 145.061 111.331 143.421 107.069C141.719 102.644 142.125 101.538 140.492 96C139.821 93.7249 138.698 90.3393 136.85 86.291C132.506 87.5773 128.162 88.8642 123.818 90.1505L123.817 90.1498Z" fill="url(#paint35_linear_0_1119)"/>
<path d="M105.368 80.8146C105.411 82.4243 108.055 83.8423 110.184 84.2771C115.162 85.2937 120.934 81.6746 123.673 77.6704C124.211 76.8845 124.808 75.9313 124.953 76.0048C125.278 76.1716 122.286 81.0917 120.988 86.688C120.324 89.5506 120.498 90.8917 119.257 92.7976C118.976 93.2296 118.629 93.6791 118.751 94.1896C119.056 95.4685 121.98 95.801 124.008 96.0311C126.149 96.2742 128.146 96.2511 130.119 96.2222C133.279 96.1759 133.528 96.0119 134.249 96.3658C136.447 97.4452 136.298 100.031 137.952 100.376C139.34 100.666 140.75 99.1137 141.196 98.6218C143.518 96.0639 143.394 92.9803 143.806 89.87C144.763 82.6386 148.689 74.7162 152.53 69.7012C153.694 68.1802 154.505 67.3802 154.555 65.9667C154.704 61.8173 148.134 57.2365 142.664 56.7101C141.165 56.5659 138.48 56.6111 135.964 56.8486C134.958 56.9436 133.887 57.0833 132.736 57.2845C129.945 57.773 128.001 58.1134 126.02 59.0197C118.034 62.6761 119.777 70.815 111.134 76.443C108.162 78.3777 105.324 79.1286 105.369 80.8146H105.368Z" fill="url(#paint36_linear_0_1119)"/>
<path d="M138.089 52.4051C138.089 52.4051 138.432 54.3207 139.221 55.6838C139.935 56.9158 142.885 57.358 143.5 57.5723C144.114 57.7866 142.572 58.858 140.933 59.2464C139.293 59.6349 134.496 59.8887 133.557 59.3719C132.618 58.8552 134.168 58.6974 135.296 58.1037C136.424 57.5101 136.802 55.0975 136.453 54.0714C136.103 53.0452 138.089 52.4045 138.089 52.4045L138.089 52.4051Z" fill="url(#paint37_linear_0_1119)"/>
<path d="M134.972 51.8509C133.782 51 133.452 48.6988 134.113 48.1821C134.302 48.0345 134.482 48.1024 137.167 49.18C138.501 49.7154 139.157 50.0004 139.373 50.5895C139.504 50.9491 139.483 51.4353 139.338 51.8181C139.263 52.0154 139.116 52.2603 138.791 52.7284C138.503 53.144 138.522 53.1299 138.434 53.2509C138.221 53.5409 137.812 54.0294 137.061 54.5953C137.019 54.3833 136.953 54.121 136.842 53.8343C136.8 53.7241 136.628 53.2927 136.357 52.9297C135.889 52.3049 135.358 52.1268 134.971 51.8504L134.972 51.8509Z" fill="url(#paint38_linear_0_1119)"/>
<path d="M138.021 54.0401C138.021 54.0401 137.243 55.2008 135.801 55.0431C134.51 54.9023 134.447 51.9883 135.301 51.4076C135.586 51.2137 136.142 51.1526 136.586 51.2985C136.848 51.3844 136.933 51.4986 137.364 51.6309C137.762 51.7531 137.877 51.7135 137.994 51.8209C138.14 51.9554 138.238 52.2738 137.947 53.1123C138.205 52.8726 138.506 52.7894 138.712 52.898C138.744 52.9155 138.831 52.98 138.877 53.0738C139.043 53.4136 138.722 53.8241 138.021 54.0401Z" fill="url(#paint39_linear_0_1119)"/>
<path style="mix-blend-mode:multiply" opacity="0.3" d="M112.35 80.5679C115.96 79.7543 117.398 79.7808 119.183 78.3419C122.154 75.9457 122.601 72.2995 124.327 72.3442C125.143 72.3651 125.807 73.1991 126.278 74.0161C125.844 74.6974 125.409 75.3786 124.974 76.0599C124.973 76.0339 124.967 76.0142 124.952 76.0068C124.808 75.9333 124.21 76.886 123.672 77.6725C120.933 81.676 115.162 85.2957 110.184 84.2791C108.757 83.9874 107.101 83.2529 106.15 82.3161C108.607 81.4855 110.706 80.9399 112.351 80.569L112.35 80.5679Z" fill="url(#paint40_linear_0_1119)"/>
<path d="M106.473 84.5934C106.473 84.5934 104.436 84.391 103.223 83.8714C102.009 83.3518 101.225 84.0981 101.337 84.6143C101.448 85.1305 103.445 85.8497 104.243 85.8757C105.04 85.9017 106.473 84.5939 106.473 84.5939V84.5934Z" fill="url(#paint41_linear_0_1119)"/>
<path d="M150.334 94.452C152.52 94.647 157.442 94.7363 160.923 91.5136C166.719 86.1485 163.844 75.9369 161.826 71.5449C159.514 66.5095 155.832 63.691 153.595 61.9779C150.82 59.8525 149.126 58.5556 147.088 58.8462C141.816 59.597 138.166 70.4074 141.06 73.5023C142.007 74.5155 142.945 73.9416 145.687 74.8152C146.58 75.0996 153.243 77.2232 154.403 82.1342C155.215 85.5713 153.147 89.5958 149.468 92.299C149.757 93.0164 150.045 93.7339 150.334 94.4514V94.452Z" fill="url(#paint42_linear_0_1119)"/>
<path style="mix-blend-mode:multiply" opacity="0.3" d="M125.825 92.6719C128.3 91.1063 128.666 89.5198 131.438 88.4478C135.039 87.0553 136.77 88.8244 138.555 87.3956C140.68 85.696 138.799 82.7345 140.389 77.5951C140.66 76.7226 142.709 70.0973 147.412 69.2532C149.606 68.8597 152.502 69.7004 153.618 71.56C154.492 73.0153 153.678 74.1004 154.741 75.7072C155.802 77.3129 157.071 76.92 158.425 78.2594C160.573 80.3858 160.902 84.8706 158.962 87.4064C158.058 88.5892 156.882 89.0568 154.67 89.9371C153.319 90.4748 152.063 90.8089 150.981 91.0215C153.69 88.4201 155.095 85.0651 154.403 82.1346C153.679 79.0736 150.818 77.0958 148.549 75.9706C146.278 80.2467 144.423 85.2019 143.804 89.8698C143.393 92.98 143.517 96.0637 141.195 98.6216C140.748 99.1134 139.339 100.665 137.95 100.376C136.296 100.031 136.446 97.445 134.248 96.3657C133.527 96.0112 133.277 96.1757 130.118 96.222C128.144 96.2509 126.147 96.2746 124.007 96.0309C122.203 95.8263 119.696 95.539 118.947 94.5784C122.203 94.4897 124.376 93.5867 125.825 92.6708V92.6719Z" fill="url(#paint43_linear_0_1119)"/>
<path d="M148.899 96.1713L149.154 95.4216C149.56 94.2263 148.892 92.9514 147.663 92.5766L99.4783 77.8887L98.0098 82.8687L145.952 97.6447C147.174 98.0213 148.494 97.3632 148.899 96.1713H148.899Z" fill="url(#paint44_linear_0_1119)"/>
<path d="M51.5954 64.3976C55.2794 49.8336 69.7164 41.0564 83.9935 45.1696C98.5327 49.3586 106.857 65.1225 102.439 79.9822C98.1254 94.4931 83.3318 102.321 69.5277 97.8442C55.962 93.4443 47.9945 78.6303 51.5949 64.3976H51.5954ZM98.2457 78.6971C101.897 66.2612 94.9307 53.0897 82.7894 49.5554C70.8318 46.0743 58.6826 53.3809 55.5478 65.6092C52.4729 77.603 59.1871 90.1051 70.6419 93.7875C82.2662 97.5248 94.6663 90.8876 98.2457 78.6965V78.6971Z" fill="url(#paint45_linear_0_1119)"/>
<g style="mix-blend-mode:multiply" opacity="0.3">
<path d="M99.4773 77.8896L105.621 79.7622C106.042 81.723 106.862 82.8465 107.687 83.5306C110.79 86.1049 114.934 83.2971 120.715 86.3158C123.616 87.8305 123.065 88.7944 125.784 89.8511C130.28 91.5982 132.338 89.1784 136.316 90.7683C140.341 92.3768 140.737 95.8534 143.02 95.7285C143.996 95.6753 145.253 94.9646 146.655 92.2699L147.663 92.577C148.892 92.9518 149.56 94.2262 149.153 95.422L148.898 96.1717C148.493 97.3636 147.173 98.0217 145.951 97.6452L98.0088 82.8691L99.4773 77.8896Z" fill="#D8DDE0"/>
</g>
<path opacity="0.56" d="M69.5042 95.7806C81.5279 99.6524 94.3653 92.7959 98.0776 80.1802C101.867 67.3022 94.6535 53.6586 82.0754 50.0038C69.694 46.4062 57.1261 53.9803 53.8897 66.6355C50.7171 79.0403 57.6618 91.9664 69.5042 95.78V95.7806Z" fill="white"/>
<path d="M50.6618 65.6466C54.3458 51.0826 68.7828 42.3054 83.0599 46.4186C97.5991 50.6077 105.923 66.3715 101.506 81.2313C97.1918 95.7421 82.3982 103.57 68.5941 99.0933C55.0284 94.6933 47.0609 79.8794 50.6613 65.6466H50.6618ZM97.3121 79.9455C100.963 67.5096 93.9971 54.3382 81.8558 50.8039C69.8982 47.3227 57.749 54.6293 54.6142 66.8577C51.5393 78.8515 58.2535 91.3536 69.7083 95.036C81.3326 98.7733 93.7327 92.1361 97.3121 79.945V79.9455Z" fill="url(#paint46_linear_0_1119)"/>
<path d="M52.0574 66.0743C55.5493 52.3363 69.1777 44.082 82.6333 47.9731C96.3216 51.9314 104.164 66.7754 100.02 80.7757C95.9684 94.4662 82.0225 101.876 68.9879 97.6613C56.1663 93.5158 48.6407 79.5171 52.0574 66.0743ZM97.3121 79.9457C100.963 67.5098 93.9971 54.3384 81.8558 50.8041C69.8981 47.3229 57.7489 54.6296 54.6142 66.8579C51.5393 78.8517 58.2535 91.3537 69.7083 95.0362C81.3326 98.7734 93.7326 92.1362 97.3121 79.9452V79.9457Z" fill="url(#paint47_linear_0_1119)"/>
<path d="M150.149 93.9899L149.662 92.7788C149.662 92.7788 148.867 92.8274 148.215 92.3593C147.859 92.1043 147.228 92.0285 147.045 92.0794C146.862 92.1303 146.169 92.0998 146.959 92.4769C147.748 92.8534 147.742 93.1332 147.413 93.4425C147.084 93.7518 145.832 94.4167 145.382 94.449C144.931 94.4812 145.745 95.1783 146.2 95.2676C146.654 95.3564 147.399 95.4695 148.321 94.9261C148.657 94.7282 150.149 93.9904 150.149 93.9904V93.9899Z" fill="url(#paint48_linear_0_1119)"/>
<defs>
<linearGradient id="paint0_linear_0_1119" x1="29.2925" y1="30.1197" x2="5.08651" y2="86.7243" gradientUnits="userSpaceOnUse">
<stop stop-color="#51637F"/>
<stop offset="1" stop-color="#464848"/>
</linearGradient>
<linearGradient id="paint1_linear_0_1119" x1="37.6219" y1="33.6813" x2="13.4159" y2="90.2852" gradientUnits="userSpaceOnUse">
<stop stop-color="#51637F"/>
<stop offset="1" stop-color="#464848"/>
</linearGradient>
<linearGradient id="paint2_linear_0_1119" x1="38.241" y1="59.0692" x2="-8.98468" y2="-0.710573" gradientUnits="userSpaceOnUse">
<stop stop-color="#ACAFB4"/>
<stop offset="1" stop-color="#AAADB2"/>
</linearGradient>
<linearGradient id="paint3_linear_0_1119" x1="53.0566" y1="8.3804" x2="33.7532" y2="53.521" gradientUnits="userSpaceOnUse">
<stop stop-color="#51637F"/>
<stop offset="1" stop-color="#464848"/>
</linearGradient>
<linearGradient id="paint4_linear_0_1119" x1="59.698" y1="11.2211" x2="40.3945" y2="56.3617" gradientUnits="userSpaceOnUse">
<stop stop-color="#51637F"/>
<stop offset="1" stop-color="#464848"/>
</linearGradient>
<linearGradient id="paint5_linear_0_1119" x1="60.1927" y1="31.4671" x2="22.5316" y2="-16.2057" gradientUnits="userSpaceOnUse">
<stop stop-color="#ACAFB4"/>
<stop offset="1" stop-color="#AAADB2"/>
</linearGradient>
<linearGradient id="paint6_linear_0_1119" x1="75.0622" y1="83.0353" x2="131.668" y2="83.0353" gradientUnits="userSpaceOnUse">
<stop stop-color="#8195C2"/>
<stop offset="1" stop-color="#56729A"/>
</linearGradient>
<linearGradient id="paint7_linear_0_1119" x1="151.988" y1="60.6707" x2="127.227" y2="127.092" gradientUnits="userSpaceOnUse">
<stop stop-color="#90ACD7"/>
<stop offset="1" stop-color="#6B86B7"/>
</linearGradient>
<linearGradient id="paint8_linear_0_1119" x1="107.073" y1="129.839" x2="140.915" y2="129.839" gradientUnits="userSpaceOnUse">
<stop stop-color="#ACAFB4"/>
<stop offset="1" stop-color="#AAADB2"/>
</linearGradient>
<linearGradient id="paint9_linear_0_1119" x1="4.51367" y1="102.878" x2="110.388" y2="102.878" gradientUnits="userSpaceOnUse">
<stop stop-color="#355178"/>
<stop offset="1" stop-color="#262648"/>
</linearGradient>
<linearGradient id="paint10_linear_0_1119" x1="8.8623" y1="102.183" x2="106.808" y2="102.183" gradientUnits="userSpaceOnUse">
<stop stop-color="#90ACD7"/>
<stop offset="1" stop-color="#6B86B7"/>
</linearGradient>
<linearGradient id="paint11_linear_0_1119" x1="4.51367" y1="143.614" x2="164.009" y2="143.614" gradientUnits="userSpaceOnUse">
<stop stop-color="#355178"/>
<stop offset="1" stop-color="#262648"/>
</linearGradient>
<linearGradient id="paint12_linear_0_1119" x1="90.3674" y1="36.1058" x2="30.7374" y2="159.341" gradientUnits="userSpaceOnUse">
<stop stop-color="white"/>
<stop offset="1" stop-color="#EBEEEE"/>
</linearGradient>
<linearGradient id="paint13_linear_0_1119" x1="42.3585" y1="-25.9162" x2="27.7499" y2="279.441" gradientUnits="userSpaceOnUse">
<stop stop-color="#8195C2"/>
<stop offset="1" stop-color="#56729A"/>
</linearGradient>
<linearGradient id="paint14_linear_0_1119" x1="53.6006" y1="-25.3791" x2="38.992" y2="279.978" gradientUnits="userSpaceOnUse">
<stop stop-color="#8195C2"/>
<stop offset="1" stop-color="#56729A"/>
</linearGradient>
<linearGradient id="paint15_linear_0_1119" x1="64.1058" y1="-24.8759" x2="49.4973" y2="280.481" gradientUnits="userSpaceOnUse">
<stop stop-color="#8195C2"/>
<stop offset="1" stop-color="#56729A"/>
</linearGradient>
<linearGradient id="paint16_linear_0_1119" x1="75.0106" y1="-24.3534" x2="60.402" y2="281.004" gradientUnits="userSpaceOnUse">
<stop stop-color="#8195C2"/>
<stop offset="1" stop-color="#56729A"/>
</linearGradient>
<linearGradient id="paint17_linear_0_1119" x1="85.6704" y1="-23.8452" x2="71.0618" y2="281.513" gradientUnits="userSpaceOnUse">
<stop stop-color="#8195C2"/>
<stop offset="1" stop-color="#56729A"/>
</linearGradient>
<linearGradient id="paint18_linear_0_1119" x1="95.5686" y1="-23.3709" x2="80.96" y2="281.987" gradientUnits="userSpaceOnUse">
<stop stop-color="#8195C2"/>
<stop offset="1" stop-color="#56729A"/>
</linearGradient>
<linearGradient id="paint19_linear_0_1119" x1="106.488" y1="-22.8485" x2="91.8795" y2="282.509" gradientUnits="userSpaceOnUse">
<stop stop-color="#8195C2"/>
<stop offset="1" stop-color="#56729A"/>
</linearGradient>
<linearGradient id="paint20_linear_0_1119" x1="116.02" y1="-22.3921" x2="101.411" y2="282.965" gradientUnits="userSpaceOnUse">
<stop stop-color="#8195C2"/>
<stop offset="1" stop-color="#56729A"/>
</linearGradient>
<linearGradient id="paint21_linear_0_1119" x1="80.4057" y1="-24.0965" x2="65.7972" y2="281.262" gradientUnits="userSpaceOnUse">
<stop stop-color="#8195C2"/>
<stop offset="1" stop-color="#56729A"/>
</linearGradient>
<linearGradient id="paint22_linear_0_1119" x1="81.7813" y1="-24.0312" x2="67.1725" y2="281.33" gradientUnits="userSpaceOnUse">
<stop stop-color="#8195C2"/>
<stop offset="1" stop-color="#56729A"/>
</linearGradient>
<linearGradient id="paint23_linear_0_1119" x1="57.0013" y1="-25.2162" x2="42.3926" y2="280.144" gradientUnits="userSpaceOnUse">
<stop stop-color="#8195C2"/>
<stop offset="1" stop-color="#56729A"/>
</linearGradient>
<linearGradient id="paint24_linear_0_1119" x1="56.0286" y1="-25.2626" x2="41.42" y2="280.095" gradientUnits="userSpaceOnUse">
<stop stop-color="#8195C2"/>
<stop offset="1" stop-color="#56729A"/>
</linearGradient>
<linearGradient id="paint25_linear_0_1119" x1="56.2394" y1="-25.2525" x2="41.6307" y2="280.106" gradientUnits="userSpaceOnUse">
<stop stop-color="#8195C2"/>
<stop offset="1" stop-color="#56729A"/>
</linearGradient>
<linearGradient id="paint26_linear_0_1119" x1="99.2874" y1="-23.1948" x2="84.6784" y2="282.169" gradientUnits="userSpaceOnUse">
<stop stop-color="#8195C2"/>
<stop offset="1" stop-color="#56729A"/>
</linearGradient>
<linearGradient id="paint27_linear_0_1119" x1="99.5495" y1="-23.1813" x2="84.941" y2="282.177" gradientUnits="userSpaceOnUse">
<stop stop-color="#8195C2"/>
<stop offset="1" stop-color="#56729A"/>
</linearGradient>
<linearGradient id="paint28_linear_0_1119" x1="99.8116" y1="-23.1682" x2="85.203" y2="282.189" gradientUnits="userSpaceOnUse">
<stop stop-color="#8195C2"/>
<stop offset="1" stop-color="#56729A"/>
</linearGradient>
<linearGradient id="paint29_linear_0_1119" x1="121.217" y1="130.521" x2="122.533" y2="146.759" gradientUnits="userSpaceOnUse">
<stop stop-color="#142344"/>
<stop offset="1" stop-color="#515F85"/>
</linearGradient>
<linearGradient id="paint30_linear_0_1119" x1="124.531" y1="139.554" x2="124.257" y2="122.735" gradientUnits="userSpaceOnUse">
<stop stop-color="#CACDD2"/>
<stop offset="1" stop-color="#96999D"/>
</linearGradient>
<linearGradient id="paint31_linear_0_1119" x1="145.31" y1="128.568" x2="146.627" y2="144.804" gradientUnits="userSpaceOnUse">
<stop stop-color="#142344"/>
<stop offset="1" stop-color="#515F85"/>
</linearGradient>
<linearGradient id="paint32_linear_0_1119" x1="146.616" y1="139.196" x2="146.342" y2="122.376" gradientUnits="userSpaceOnUse">
<stop stop-color="#CACDD2"/>
<stop offset="1" stop-color="#96999D"/>
</linearGradient>
<linearGradient id="paint33_linear_0_1119" x1="120.453" y1="112.316" x2="132.881" y2="112.285" gradientUnits="userSpaceOnUse">
<stop stop-color="#355178"/>
<stop offset="1" stop-color="#3F416C"/>
</linearGradient>
<linearGradient id="paint34_linear_0_1119" x1="120.453" y1="112.315" x2="132.881" y2="112.285" gradientUnits="userSpaceOnUse">
<stop stop-color="#355178"/>
<stop offset="1" stop-color="#3F416C"/>
</linearGradient>
<linearGradient id="paint35_linear_0_1119" x1="123.9" y1="111.081" x2="148.92" y2="111.02" gradientUnits="userSpaceOnUse">
<stop stop-color="#355178"/>
<stop offset="1" stop-color="#3F416C"/>
</linearGradient>
<linearGradient id="paint36_linear_0_1119" x1="87.806" y1="127.088" x2="167.284" y2="42.2584" gradientUnits="userSpaceOnUse">
<stop stop-color="#CACDD2"/>
<stop offset="1" stop-color="#96999D"/>
</linearGradient>
<linearGradient id="paint37_linear_0_1119" x1="138.229" y1="60.3812" x2="135.57" y2="83.8177" gradientUnits="userSpaceOnUse">
<stop stop-color="#CACDD2"/>
<stop offset="1" stop-color="#96999D"/>
</linearGradient>
<linearGradient id="paint38_linear_0_1119" x1="139.712" y1="59.3172" x2="135.963" y2="48.2909" gradientUnits="userSpaceOnUse">
<stop stop-color="#355178"/>
<stop offset="1" stop-color="#3F416C"/>
</linearGradient>
<linearGradient id="paint39_linear_0_1119" x1="136.576" y1="51.1865" x2="138.665" y2="68.4556" gradientUnits="userSpaceOnUse">
<stop stop-color="#CACDD2"/>
<stop offset="1" stop-color="#96999D"/>
</linearGradient>
<linearGradient id="paint40_linear_0_1119" x1="106.15" y1="78.3973" x2="126.278" y2="78.3973" gradientUnits="userSpaceOnUse">
<stop stop-color="#CACDD2"/>
<stop offset="1" stop-color="#96999D"/>
</linearGradient>
<linearGradient id="paint41_linear_0_1119" x1="104.296" y1="83.6814" x2="96.9952" y2="98.4774" gradientUnits="userSpaceOnUse">
<stop stop-color="#CACDD2"/>
<stop offset="1" stop-color="#96999D"/>
</linearGradient>
<linearGradient id="paint42_linear_0_1119" x1="96.7974" y1="135.513" x2="176.275" y2="50.684" gradientUnits="userSpaceOnUse">
<stop stop-color="#CACDD2"/>
<stop offset="1" stop-color="#96999D"/>
</linearGradient>
<linearGradient id="paint43_linear_0_1119" x1="118.948" y1="84.7858" x2="160.243" y2="84.7858" gradientUnits="userSpaceOnUse">
<stop stop-color="#CACDD2"/>
<stop offset="1" stop-color="#96999D"/>
</linearGradient>
<linearGradient id="paint44_linear_0_1119" x1="98.0098" y1="87.8199" x2="149.272" y2="87.8199" gradientUnits="userSpaceOnUse">
<stop stop-color="#355178"/>
<stop offset="1" stop-color="#262648"/>
</linearGradient>
<linearGradient id="paint45_linear_0_1119" x1="50.7309" y1="71.6279" x2="103.625" y2="71.6279" gradientUnits="userSpaceOnUse">
<stop stop-color="#355178"/>
<stop offset="1" stop-color="#262648"/>
</linearGradient>
<linearGradient id="paint46_linear_0_1119" x1="69.9813" y1="101.382" x2="78.5014" y2="62.2937" gradientUnits="userSpaceOnUse">
<stop stop-color="#355178"/>
<stop offset="1" stop-color="#262648"/>
</linearGradient>
<linearGradient id="paint47_linear_0_1119" x1="82.6363" y1="44.1764" x2="70.7462" y2="96.5983" gradientUnits="userSpaceOnUse">
<stop stop-color="#355178"/>
<stop offset="1" stop-color="#262648"/>
</linearGradient>
<linearGradient id="paint48_linear_0_1119" x1="146.468" y1="97.4498" x2="148.552" y2="92.0768" gradientUnits="userSpaceOnUse">
<stop stop-color="#CACDD2"/>
<stop offset="1" stop-color="#96999D"/>
</linearGradient>
</defs>
</svg>
