<svg width="157" height="151" viewBox="0 0 157 151" fill="none" xmlns="http://www.w3.org/2000/svg">
<path d="M79.7626 7.11908C79.7626 7.11908 9.78111 -18.3427 16.0016 27.0393C22.2221 72.4217 -25.9874 138.704 32.7193 145.994C91.4261 153.283 144.69 142.211 150.133 118.793C155.576 95.375 169.075 36.9544 79.7626 7.11908Z" fill="#F4F6F8"/>
<path d="M78.8943 110.855C78.1485 106.141 77.7509 98.7849 81.6259 92.2352C88.3857 80.8081 100.539 84.6966 112.279 72.4848C121.749 62.6356 118.838 54.9106 129.301 48.3931C131.053 47.3025 140.308 41.2965 147.136 44.998C150.983 47.0838 152.353 51.3218 152.61 52.1175C156.498 64.1412 144.159 82.8409 128.184 91.3237C119.005 96.1974 116.066 94.564 99.934 100.211C90.4545 103.529 83.3252 107.837 78.8938 110.855H78.8943Z" fill="url(#paint0_linear_0_823)"/>
<path d="M78.8943 110.855C78.1485 106.141 77.7509 98.7849 81.6259 92.2352C88.3857 80.8081 100.539 84.6966 112.279 72.4848C121.749 62.6356 118.838 54.9106 129.301 48.3931C131.053 47.3025 140.308 41.2965 147.136 44.998C150.983 47.0838 152.353 51.3218 152.61 52.1175C156.498 64.1412 144.159 82.8409 128.184 91.3237C119.005 96.1974 116.066 94.564 99.934 100.211C90.4545 103.529 83.3252 107.837 78.8938 110.855H78.8943Z" fill="url(#paint1_linear_0_823)"/>
<g style="mix-blend-mode:soft-light">
<g style="mix-blend-mode:soft-light">
<path d="M77.4912 116.51L77.3018 116.469C79.7204 105.228 84.2141 97.6949 90.6593 94.0786C93.815 92.3081 96.3188 92.0416 98.9705 91.7596C101.819 91.4563 104.765 91.1431 108.666 88.819C112.457 86.5603 113.825 84.3691 115.558 81.5957C117.118 79.0991 119.059 75.9922 123.396 71.8654C127.198 68.2485 129.96 66.5622 132.397 65.0747C135.035 63.4642 137.118 62.1923 139.542 59.0584C143.501 53.9396 145.597 47.3551 145.771 39.4883L145.965 39.4924C145.79 47.4018 143.68 54.0247 139.695 59.1768C137.25 62.3387 135.153 63.6189 132.497 65.2399C130.069 66.7221 127.316 68.4028 123.53 72.0056C119.21 76.1153 117.276 79.2108 115.722 81.698C113.976 84.4942 112.596 86.7026 108.765 88.9852C104.828 91.3311 101.86 91.6469 98.9907 91.9523C96.3598 92.2322 93.8747 92.4966 90.7538 94.2474C84.3594 97.8351 79.8969 105.325 77.4912 116.51V116.51Z" fill="white"/>
</g>
<g style="mix-blend-mode:soft-light">
<path d="M132.583 65.9285C132.188 65.9285 131.789 65.9212 131.384 65.9061L131.255 65.9015L131.296 65.7784C131.348 65.6215 136.501 50.0412 130.799 43.5496L130.944 43.4219C136.448 49.687 131.997 64.2245 131.52 65.7171C140.062 66.0022 146.441 62.8076 150.293 60.0701C154.487 57.0889 156.67 53.9961 156.691 53.9649L156.85 54.0761C156.828 54.1073 154.626 57.2276 150.405 60.2279C146.691 62.8673 140.646 65.929 132.583 65.929L132.583 65.9285Z" fill="white"/>
</g>
<g style="mix-blend-mode:soft-light">
<path d="M133.161 79.2419C131.744 79.2419 130.429 79.1624 129.245 79.0404C123.266 78.4234 119.218 76.6061 119.178 76.5879L119.103 76.5537L119.125 76.4737C121.428 68.3462 119.523 56.7462 119.504 56.6299L119.695 56.5977C119.714 56.714 121.613 68.2802 119.334 76.4451C119.915 76.6955 123.77 78.2821 129.272 78.8487C134.761 79.4143 143.059 79.0513 151.421 74.1116L151.52 74.2783C144.914 78.1803 138.349 79.2419 133.162 79.2419H133.161Z" fill="white"/>
</g>
<g style="mix-blend-mode:soft-light">
<path d="M126.06 98.1961C110.485 98.1961 101.574 91.6801 101.484 91.6131L101.402 91.5524L101.468 91.474C107.695 83.9718 105.374 71.4863 105.35 71.3611L105.539 71.3242C105.564 71.4499 107.886 83.9359 101.683 91.5171C102.634 92.1845 111.674 98.2179 126.887 97.9961L126.89 98.1899C126.612 98.194 126.334 98.1961 126.06 98.1961Z" fill="white"/>
</g>
</g>
<path d="M95.0059 101.359C97.6352 99.4948 101.937 96.7998 107.712 94.7955C117.984 91.2301 122.665 93.4068 127.032 89.1013C131.553 84.6446 128.674 80.2056 134.085 75.2311C134.539 74.8131 140.348 69.6111 145.556 71.5982C149.2 72.9885 150.594 77.1507 151.248 79.1035C153.787 86.6831 152.203 98.1948 144.102 103.823C136.422 109.16 126.763 106.526 123.696 105.668C118.316 104.163 117.053 102.052 111.582 100.685C104.93 99.0232 98.9323 100.18 95.0059 101.359V101.359Z" fill="url(#paint2_linear_0_823)"/>
<path d="M18.1589 100.462C15.7922 100.543 13.4057 99.8853 11.4641 98.4389C7.16239 95.2349 6.69994 89.4118 10.4369 85.4735L65.0506 27.5105C66.8376 25.6283 69.4203 24.5916 72.1244 24.6659C74.8166 24.7397 77.3655 25.9062 79.1162 27.8595L97.4019 48.2637L118.18 25.4029C121.288 21.9829 126.671 21.7751 130.199 24.9038C133.705 28.0132 134.08 33.2718 131.04 36.6835L104.102 66.9218C102.424 68.8056 99.982 69.905 97.4019 69.9326C94.8104 69.9601 92.3357 68.9032 90.624 67.0314L72.1249 46.8017L25.7964 97.0636C23.807 99.2044 20.997 100.365 18.1595 100.463L18.1589 100.462Z" fill="url(#paint3_linear_0_823)"/>
<path d="M136.853 41.0746L113.969 20.9825L143.335 11.1162H145.386L138.703 40.8939L136.853 41.0746Z" fill="url(#paint4_linear_0_823)"/>
<path d="M20.2097 100.462C17.843 100.543 15.4565 99.8853 13.5148 98.4389C9.21317 95.2349 8.75073 89.4118 12.4877 85.4735L67.1014 27.5105C68.8884 25.6283 71.4711 24.5916 74.1752 24.6659C76.8674 24.7397 79.4163 25.9062 81.167 27.8595L99.4527 48.2637L120.231 25.4029C123.339 21.9829 128.722 21.7751 132.25 24.9038C135.756 28.0132 136.131 33.2718 133.091 36.6835L106.153 66.9218C104.475 68.8056 102.033 69.905 99.4527 69.9326C96.8612 69.9601 94.3865 68.9032 92.6747 67.0314L74.1757 46.8017L27.8472 97.0636C25.8577 99.2044 23.0477 100.365 20.2102 100.463L20.2097 100.462Z" fill="url(#paint5_linear_0_823)"/>
<path d="M138.703 40.8939L116.02 20.9825L145.386 11.1162L138.703 40.8939Z" fill="url(#paint6_linear_0_823)"/>
<path d="M30.1737 67.3877L19.2519 137.499C19.0443 138.851 20.0081 140.072 21.2377 140.014L75.9012 137.433L30.1742 67.3882L30.1737 67.3877Z" fill="url(#paint7_linear_0_823)"/>
<path d="M42.081 132.276C43.8073 127.012 45.5642 118.977 43.5073 110.056C41.1457 99.8117 35.914 97.7623 31.2173 86.8125C24.5126 71.1818 32.1007 59.8591 25.1598 55.082C21.7747 52.7522 16.4522 52.7506 13.1704 55.0893C3.8077 61.7626 6.37427 90.8288 21.2292 102.172C27.9475 107.301 33.8104 106.693 38.8522 113.331C43.3069 119.197 42.9576 126.935 42.0815 132.276L42.081 132.276Z" fill="url(#paint8_linear_0_823)"/>
<g style="mix-blend-mode:soft-light">
<g style="mix-blend-mode:soft-light">
<path d="M43.1243 119.035C42.5617 116.823 41.8055 114.648 40.8754 112.571C38.7396 107.801 36.3822 105.176 33.3973 101.854C31.4484 99.6846 29.2399 97.2259 26.6874 93.701C21.9119 87.1056 20.4295 84.7882 19.1008 81.0519C16.4725 73.6598 16.8763 67.0317 17.3507 63.7385C18.0239 59.0673 19.5903 54.6221 22.0058 50.5264L22.1724 50.625C19.7693 54.6989 18.2112 59.1208 17.5422 63.7665C17.0704 67.0421 16.6687 73.6344 19.283 80.987C20.6034 84.7005 22.0811 87.0096 26.8436 93.5873C29.3905 97.1044 31.5953 99.5589 33.5406 101.725C36.5369 105.06 38.9031 107.694 41.0514 112.492C41.9856 114.579 42.746 116.764 43.3112 118.987L43.1238 119.035H43.1243Z" fill="white"/>
</g>
<g style="mix-blend-mode:soft-light">
<path d="M17.8431 75.8489L17.7029 75.7731C17.6754 75.758 14.9002 74.2316 12.4349 71.1258C10.1584 68.2579 7.68476 63.4179 8.82869 56.6465L9.01969 56.6787C7.88822 63.38 10.3349 68.1686 12.5869 71.0053C14.7139 73.6847 17.0682 75.1737 17.6568 75.5228C17.8197 70.1235 21.2806 66.624 24.1721 64.6327C27.3293 62.4587 30.5067 61.5664 30.5384 61.5576L30.5898 61.7441C30.5586 61.7529 27.4076 62.6379 24.2774 64.7948C21.3963 66.7798 17.9422 70.2813 17.8467 75.689L17.8441 75.8484L17.8431 75.8489Z" fill="white"/>
</g>
<g style="mix-blend-mode:soft-light">
<path d="M18.6216 93.2259C15.8147 93.2259 12.5169 92.5361 9.4707 90.1637L9.58956 90.011C16.3877 95.3054 24.4663 92.1103 25.3248 91.7462C23.9489 86.4102 25.1691 82.4724 26.4397 80.1052C27.8244 77.525 29.5694 76.1985 29.587 76.1855L29.7033 76.3403C29.6348 76.3917 22.8693 81.6134 25.5334 91.7774L25.5542 91.8563L25.4805 91.89C25.4302 91.9129 22.493 93.2264 18.6221 93.2264L18.6216 93.2259Z" fill="white"/>
</g>
<g style="mix-blend-mode:soft-light">
<path d="M24.8771 103.408C22.7725 103.408 20.2531 103.026 17.3232 101.954L17.3897 101.773C26.9324 105.261 32.0552 101.385 32.6194 100.92C30.289 95.4468 33.5765 86.6093 33.6102 86.5205L33.7913 86.5891C33.7581 86.6779 30.4717 95.5138 32.8254 100.908L32.8535 100.972L32.8021 101.019C32.7652 101.052 30.0995 103.408 24.8771 103.408V103.408Z" fill="white"/>
</g>
</g>
<path d="M59.119 136.636C59.7034 133.1 60.0387 127.578 57.1628 122.64C52.1454 114.025 42.9992 116.883 34.2453 107.653C27.1845 100.209 29.4096 94.4227 21.5864 89.4757C20.2769 88.6479 13.3572 84.0904 8.21164 86.8353C5.31186 88.3819 4.26135 91.5573 4.06412 92.153C1.08337 101.162 10.2535 115.267 22.2066 121.718C29.0738 125.424 31.2895 124.213 43.3744 128.535C50.4757 131.076 55.8071 134.346 59.1195 136.635L59.119 136.636Z" fill="url(#paint9_linear_0_823)"/>
<g style="mix-blend-mode:soft-light">
<g style="mix-blend-mode:soft-light">
<path d="M60.1204 140.895C58.3718 132.491 55.0631 126.849 50.2865 124.126C47.9561 122.798 46.0938 122.587 44.1226 122.364C41.9666 122.12 39.7373 121.867 36.7883 120.083C33.9181 118.346 32.8919 116.678 31.5928 114.567C30.4396 112.693 29.0039 110.36 25.7834 107.254C22.9604 104.531 20.903 103.256 19.088 102.131C17.1001 100.899 15.5306 99.9256 13.7073 97.5355C10.738 93.6418 9.18607 88.6533 9.09473 82.7082L9.28832 82.7051C9.37863 88.6082 10.9175 93.5582 13.8614 97.4181C15.6624 99.7802 17.219 100.745 19.1897 101.966C21.0131 103.096 23.0793 104.377 25.9173 107.115C29.1555 110.238 30.5979 112.582 31.7574 114.466C33.043 116.555 34.0582 118.205 36.8884 119.917C39.8012 121.68 42.0091 121.929 44.1439 122.171C46.1359 122.397 48.0173 122.61 50.382 123.958C55.2094 126.71 58.5493 132.395 60.3099 140.856L60.1204 140.895Z" fill="white"/>
</g>
<g style="mix-blend-mode:soft-light">
<path d="M19.1928 102.652C7.20701 102.652 0.914883 93.7086 0.851562 93.6162L1.0109 93.5061C1.07474 93.599 7.53399 102.761 19.8006 102.45C19.4035 101.17 16.2224 90.365 20.3606 85.7188L20.5054 85.8476C16.1991 90.6823 19.9848 102.396 20.0233 102.513L20.0637 102.636L19.9345 102.641C19.6859 102.648 19.4373 102.652 19.1928 102.652V102.652Z" fill="white"/>
</g>
<g style="mix-blend-mode:soft-light">
<path d="M18.7242 112.645C14.7957 112.645 9.78507 111.836 4.75781 108.82L4.85747 108.654C11.1081 112.404 17.3338 112.717 21.4558 112.32C25.5296 111.927 28.403 110.784 28.8986 110.576C27.2362 104.429 28.7185 95.7674 28.7341 95.6807L28.9246 95.7139C28.9095 95.8012 27.4215 104.497 29.1078 110.606L29.1296 110.687L29.0538 110.72C29.0237 110.734 25.9719 112.08 21.4745 112.513C20.6384 112.593 19.7156 112.645 18.7247 112.645L18.7242 112.645Z" fill="white"/>
</g>
<g style="mix-blend-mode:soft-light">
<path d="M24.0503 126.915C23.7509 126.915 23.4488 126.912 23.1426 126.905L23.1467 126.711C29.4254 126.848 34.259 125.541 37.2081 124.422C40.0124 123.358 41.6899 122.256 42.0708 121.994C37.465 116.259 39.2702 106.906 39.2889 106.812L39.4788 106.849C39.4602 106.943 37.656 116.296 42.2862 121.952L42.3511 122.031L42.2691 122.091C42.2016 122.141 35.5773 126.915 24.0509 126.915L24.0503 126.915Z" fill="white"/>
</g>
</g>
<path d="M46.8988 149.562L18.8477 140.127L59.1965 137.433L46.8988 149.562Z" fill="#D8DDE0"/>
<path d="M130.157 68.8491L32.2718 65.8197C30.844 65.7755 29.9082 66.8693 30.1854 68.2627L46.0633 148.059C46.3405 149.453 47.7029 150.5 49.1017 150.4L145.004 143.464C146.089 143.386 146.769 142.332 146.526 141.109L132.601 71.1239C132.357 69.9018 131.265 68.8828 130.158 68.8486L130.157 68.8491Z" fill="url(#paint10_linear_0_823)"/>
<path d="M130.685 68.8491L32.8001 65.8197C31.3723 65.7755 30.4365 66.8693 30.7137 68.2627L46.5916 148.059C46.8688 149.453 48.2312 150.5 49.63 150.4L145.533 143.464C146.617 143.386 147.298 142.332 147.054 141.109L133.128 71.1239C132.885 69.9018 131.793 68.8828 130.685 68.8486V68.8491Z" fill="url(#paint11_linear_0_823)"/>
<g style="mix-blend-mode:multiply" opacity="0.3">
<path style="mix-blend-mode:multiply" d="M105.14 111.131C85.8739 100.656 67.6162 108.799 54.4704 95.3631C46.3757 87.0896 44.8898 75.3754 45.1327 66.2014L32.8001 65.8197C31.3723 65.7755 30.4365 66.8693 30.7137 68.2632L46.5916 148.06C46.8688 149.453 48.2312 150.501 49.63 150.4L132.84 144.383C123.746 124.629 113.492 115.673 105.14 111.132V111.131Z" fill="url(#paint12_linear_0_823)"/>
</g>
<path d="M142.257 140.807L51.4107 147.012C49.9013 147.115 48.4304 145.977 48.1304 144.47L33.9855 73.3817C33.6855 71.8745 34.6929 70.6837 36.2308 70.7226L128.775 73.0504C129.984 73.0805 131.175 74.1836 131.439 75.5142L143.923 138.252C144.188 139.583 143.443 140.727 142.257 140.808V140.807Z" fill="#D8DDE0"/>
<path d="M142.664 140.779L51.9266 146.976C50.4193 147.079 48.95 145.941 48.65 144.435L34.5138 73.3919C34.2139 71.8852 35.2202 70.6954 36.756 70.7343L129.189 73.0595C130.396 73.0896 131.586 74.1922 131.851 75.5218L144.328 138.225C144.592 139.554 143.849 140.697 142.664 140.778V140.779Z" fill="url(#paint13_linear_0_823)"/>
<path d="M82.8026 96.3701L72.8981 96.4314C72.6012 96.4335 72.3111 96.1878 72.2503 95.8835L70.6118 87.6495C70.551 87.3451 70.7436 87.0995 71.0415 87.1016L80.9694 87.1571C81.2595 87.1587 81.5429 87.4033 81.6026 87.7035L83.2183 95.8232C83.278 96.1234 83.0922 96.3681 82.8026 96.3701ZM73.2162 95.3272L82.0614 95.2846L80.6601 88.2421L71.7993 88.2047L73.2162 95.3267V95.3272Z" fill="#D8DDE0"/>
<path d="M95.3196 96.2931L85.7317 96.3523C85.4442 96.3539 85.1629 96.1129 85.1032 95.8132L83.4916 87.7127C83.4319 87.413 83.6177 87.172 83.9058 87.1736L93.516 87.2271C93.7968 87.2286 94.0724 87.4696 94.1311 87.7646L95.7209 95.7545C95.7795 96.05 95.6004 96.2905 95.3202 96.2926L95.3196 96.2931ZM86.0364 95.2663L94.5987 95.2253L93.2197 88.2959L84.6423 88.2601L86.0364 95.2668V95.2663Z" fill="#D8DDE0"/>
<path d="M107.441 96.2182L98.1549 96.2759C97.8767 96.2774 97.6032 96.0401 97.5445 95.7456L95.9584 87.7749C95.8997 87.4805 96.0788 87.2426 96.3575 87.2441L105.665 87.2961C105.937 87.2976 106.204 87.5345 106.263 87.8253L107.827 95.689C107.885 95.9798 107.712 96.2167 107.441 96.2182ZM98.4466 95.207L106.739 95.167L105.382 88.3473L97.0743 88.3125L98.4461 95.207H98.4466Z" fill="#D8DDE0"/>
<path d="M119.187 96.1457L110.189 96.2012C109.919 96.2028 109.654 95.9691 109.596 95.6793L108.035 87.8338C107.977 87.544 108.149 87.3097 108.42 87.3113L117.439 87.3617C117.702 87.3632 117.962 87.5964 118.02 87.8826L119.56 95.6242C119.617 95.9104 119.45 96.1436 119.187 96.1451V96.1457ZM110.468 95.1495L118.504 95.1111L117.168 88.3973L109.118 88.3635L110.469 95.15L110.468 95.1495Z" fill="#D8DDE0"/>
<path d="M130.572 96.075L121.849 96.129C121.588 96.1306 121.33 95.9005 121.272 95.6149L119.736 87.8909C119.679 87.6053 119.845 87.3752 120.107 87.3767L128.851 87.4256C129.107 87.4271 129.359 87.6567 129.415 87.9387L130.933 95.5624C130.989 95.8444 130.827 96.074 130.572 96.0755V96.075ZM122.116 95.0934L129.906 95.056L128.591 88.4445L120.787 88.4118L122.116 95.0934H122.116Z" fill="#D8DDE0"/>
<path d="M58.7381 107.756L48.1796 107.969C47.863 107.976 47.5552 107.726 47.4924 107.411L45.7983 98.8961C45.7355 98.5814 45.9426 98.3238 46.2603 98.3212L56.8437 98.2334C57.153 98.2308 57.4535 98.4801 57.5153 98.7907L59.1855 107.184C59.2473 107.494 59.0474 107.751 58.7391 107.757L58.7381 107.756ZM48.5263 106.82L57.9549 106.643L56.5063 99.363L47.0606 99.4545L48.5263 106.82Z" fill="#D8DDE0"/>
<path d="M72.0685 107.487L61.8593 107.693C61.5531 107.699 61.2547 107.453 61.1929 107.144L59.5269 98.7714C59.4651 98.4618 59.6644 98.2089 59.9717 98.2063L70.2047 98.1211C70.5037 98.1185 70.7954 98.3642 70.8561 98.6691L72.4983 106.923C72.559 107.229 72.3665 107.481 72.068 107.487L72.0685 107.487ZM62.1905 106.563L71.3076 106.392L69.8829 99.2331L60.7497 99.3219L62.1905 106.563V106.563Z" fill="#D8DDE0"/>
<path d="M84.9635 107.229L75.086 107.428C74.7896 107.433 74.5005 107.192 74.4398 106.887L72.8013 98.6534C72.7405 98.3491 72.9326 98.1003 73.2294 98.0977L83.1298 98.0156C83.4194 98.013 83.7018 98.2545 83.7615 98.5547L85.3772 106.674C85.4369 106.975 85.2516 107.223 84.963 107.229H84.9635ZM75.4031 106.316L84.2239 106.151L82.8226 99.1084L73.9862 99.1941L75.4031 106.316Z" fill="#D8DDE0"/>
<path d="M97.445 106.976L87.8835 107.169C87.597 107.175 87.3157 106.937 87.2566 106.637L85.645 98.5368C85.5853 98.2371 85.7701 97.9925 86.0576 97.9904L95.6414 97.9109C95.9217 97.9088 96.1962 98.1462 96.2549 98.4417L97.8446 106.432C97.9033 106.727 97.7247 106.971 97.445 106.976ZM88.1866 106.076L96.7251 105.916L95.3461 98.9865L86.792 99.0696L88.1861 106.076L88.1866 106.076Z" fill="#D8DDE0"/>
<path d="M109.533 106.733L100.274 106.919C99.9958 106.925 99.7233 106.691 99.6647 106.396L98.0786 98.4252C98.0199 98.1307 98.1979 97.8897 98.4766 97.8877L107.759 97.8108C108.03 97.8087 108.297 98.0424 108.355 98.3333L109.92 106.197C109.977 106.488 109.805 106.728 109.534 106.733L109.533 106.733ZM100.564 105.844L108.833 105.688L107.476 98.8687L99.1919 98.9492L100.564 105.844Z" fill="#D8DDE0"/>
<path d="M121.246 106.497L112.273 106.678C112.005 106.683 111.739 106.452 111.682 106.162L110.121 98.3169C110.063 98.0271 110.235 97.7898 110.505 97.7877L119.499 97.7129C119.762 97.7108 120.021 97.9409 120.078 98.2271L121.618 105.969C121.676 106.255 121.509 106.491 121.247 106.496L121.246 106.497ZM112.551 105.619L120.564 105.469L119.228 98.7553L111.201 98.8332L112.551 105.62V105.619Z" fill="#D8DDE0"/>
<path d="M132.6 106.268L123.901 106.444C123.641 106.449 123.383 106.222 123.326 105.936L121.789 98.2123C121.733 97.9266 121.898 97.6934 122.16 97.6913L130.88 97.6192C131.134 97.6171 131.387 97.8435 131.443 98.1255L132.96 105.749C133.016 106.031 132.855 106.264 132.601 106.269L132.6 106.268ZM124.167 105.401L131.935 105.256L130.62 98.6444L122.837 98.7197L124.167 105.401Z" fill="#D8DDE0"/>
<path d="M60.9712 118.98L50.4423 119.34C50.1262 119.351 49.8195 119.104 49.7567 118.789L48.062 110.274C47.9992 109.959 48.2053 109.699 48.5224 109.691L59.0762 109.456C59.3845 109.449 59.6845 109.695 59.7463 110.006L61.4165 118.399C61.4783 118.709 61.279 118.969 60.9717 118.98H60.9712ZM50.7869 118.182L60.1896 117.874L58.741 110.594L49.3212 110.817L50.7864 118.182H50.7869Z" fill="#D8DDE0"/>
<path d="M74.2636 118.525L64.0824 118.873C63.7767 118.883 63.4793 118.64 63.4175 118.331L61.7515 109.959C61.6897 109.649 61.8885 109.393 62.1947 109.386L72.3998 109.158C72.6982 109.152 72.9889 109.394 73.0496 109.699L74.6918 117.953C74.7525 118.259 74.561 118.514 74.2631 118.524L74.2636 118.525ZM64.4125 117.735L73.5043 117.436L72.0795 110.278L62.9712 110.493L64.412 117.735H64.4125Z" fill="#D8DDE0"/>
<path d="M87.1239 118.086L77.2739 118.423C76.9786 118.433 76.6895 118.194 76.6293 117.89L74.9907 109.656C74.93 109.352 75.1215 109.099 75.4174 109.093L85.2902 108.873C85.5788 108.867 85.8612 109.105 85.9208 109.405L87.5366 117.525C87.5963 117.825 87.4115 118.076 87.1234 118.086H87.1239ZM77.5895 117.304L86.3854 117.016L84.984 109.973L76.172 110.182L77.589 117.304H77.5895Z" fill="#D8DDE0"/>
<path d="M99.5708 117.659L90.0358 117.986C89.7499 117.995 89.4696 117.761 89.4099 117.461L87.7983 109.36C87.7386 109.061 87.9229 108.813 88.2094 108.807L97.7667 108.594C98.0459 108.588 98.32 108.822 98.3786 109.117L99.9684 117.107C100.027 117.403 99.849 117.65 99.5703 117.659H99.5708ZM90.3379 116.884L98.8525 116.606L97.4735 109.676L88.9433 109.878L90.3374 116.885L90.3379 116.884Z" fill="#D8DDE0"/>
<path d="M111.625 117.248L102.391 117.564C102.114 117.574 101.842 117.342 101.783 117.048L100.197 109.077C100.138 108.783 100.316 108.539 100.593 108.532L109.85 108.326C110.12 108.32 110.386 108.551 110.444 108.841L112.009 116.705C112.067 116.996 111.895 117.239 111.625 117.248ZM102.679 116.481L110.926 116.211L109.569 109.391L101.307 109.587L102.679 116.481Z" fill="#D8DDE0"/>
<path d="M123.306 116.849L114.358 117.154C114.089 117.164 113.825 116.936 113.768 116.646L112.206 108.8C112.149 108.511 112.32 108.27 112.589 108.265L121.558 108.065C121.82 108.059 122.079 108.286 122.136 108.572L123.676 116.314C123.733 116.6 123.567 116.839 123.306 116.848V116.849ZM114.634 116.089L122.625 115.827L121.289 109.113L113.283 109.303L114.634 116.089V116.089Z" fill="#D8DDE0"/>
<path d="M134.628 116.461L125.953 116.757C125.693 116.766 125.437 116.542 125.38 116.256L123.843 108.532C123.787 108.246 123.952 108.01 124.212 108.004L132.907 107.811C133.162 107.805 133.413 108.029 133.469 108.311L134.987 115.935C135.043 116.217 134.883 116.452 134.629 116.461H134.628ZM126.218 115.709L133.965 115.455L132.649 108.843L124.888 109.027L126.218 115.709Z" fill="#D8DDE0"/>
<path d="M63.2047 130.203L52.7049 130.71C52.3898 130.725 52.0836 130.483 52.0208 130.168L50.3267 121.653C50.2639 121.338 50.4695 121.074 50.7855 121.062L61.3103 120.68C61.6176 120.669 61.917 120.911 61.9788 121.222L63.649 129.615C63.7108 129.925 63.5125 130.189 63.2058 130.204L63.2047 130.203ZM53.0485 129.544L62.4252 129.104L60.9766 121.824L51.5833 122.179L53.0485 129.544Z" fill="#D8DDE0"/>
<path d="M76.4601 129.562L66.3075 130.052C66.0028 130.067 65.7059 129.828 65.6442 129.518L63.9781 121.146C63.9163 120.837 64.1141 120.577 64.4198 120.565L74.5963 120.196C74.8937 120.185 75.1838 120.424 75.2445 120.729L76.8867 128.983C76.9474 129.288 76.7564 129.547 76.4596 129.561L76.4601 129.562ZM66.6355 128.906L75.7018 128.481L74.2771 121.322L65.1942 121.665L66.635 128.906H66.6355Z" fill="#D8DDE0"/>
<path d="M89.2844 128.942L79.4619 129.417C79.167 129.431 78.879 129.196 78.8188 128.891L77.1802 120.657C77.1195 120.353 77.31 120.098 77.6053 120.087L87.4512 119.729C87.7387 119.718 88.0206 119.953 88.0802 120.253L89.696 128.373C89.7556 128.673 89.5714 128.928 89.2844 128.942V128.942ZM79.7759 128.29L88.5474 127.879L87.146 120.836L78.3584 121.167L79.7753 128.29L79.7759 128.29Z" fill="#D8DDE0"/>
<path d="M101.697 128.344L92.1886 128.803C91.9037 128.817 91.6239 128.585 91.5642 128.286L89.9527 120.185C89.893 119.885 90.0767 119.634 90.3627 119.624L99.8935 119.278C100.172 119.267 100.445 119.499 100.504 119.794L102.094 127.784C102.153 128.079 101.975 128.33 101.698 128.343L101.697 128.344ZM92.4886 127.695L100.98 127.297L99.6008 120.367L91.0945 120.688L92.4886 127.695Z" fill="#D8DDE0"/>
<path d="M113.718 127.762L104.509 128.207C104.233 128.221 103.962 127.993 103.903 127.698L102.317 119.727C102.258 119.433 102.435 119.186 102.712 119.176L111.942 118.84C112.212 118.83 112.478 119.058 112.535 119.349L114.1 127.212C114.158 127.503 113.987 127.749 113.718 127.762ZM104.796 127.117L113.02 126.732L111.662 119.912L103.424 120.223L104.796 127.118L104.796 127.117Z" fill="#D8DDE0"/>
<path d="M125.366 127.2L116.443 127.631C116.175 127.644 115.911 127.419 115.854 127.13L114.292 119.284C114.235 118.994 114.406 118.751 114.673 118.741L123.618 118.416C123.879 118.407 124.137 118.631 124.194 118.917L125.735 126.659C125.792 126.945 125.626 127.187 125.366 127.2ZM116.718 126.559L124.686 126.185L123.35 119.472L115.367 119.773L116.718 126.559V126.559Z" fill="#D8DDE0"/>
<path d="M136.657 126.654L128.006 127.072C127.747 127.085 127.491 126.863 127.434 126.578L125.897 118.854C125.84 118.568 126.005 118.329 126.265 118.32L134.936 118.005C135.19 117.996 135.441 118.217 135.497 118.499L137.014 126.122C137.07 126.404 136.911 126.643 136.657 126.655L136.657 126.654ZM128.269 126.017L135.994 125.655L134.679 119.043L126.94 119.335L128.269 126.017H128.269Z" fill="#D8DDE0"/>
<path d="M65.4383 141.426L54.968 142.08C54.654 142.1 54.3483 141.861 54.2855 141.546L52.5914 133.031C52.5286 132.716 52.7336 132.448 53.0487 132.432L63.5438 131.902C63.8506 131.887 64.149 132.126 64.2108 132.436L65.881 140.83C65.9428 141.14 65.745 141.407 65.4393 141.426H65.4383ZM55.3095 140.907L64.6597 140.335L63.2111 133.055L53.8438 133.541L55.309 140.907H55.3095Z" fill="#D8DDE0"/>
<path d="M78.6566 140.599L68.5325 141.232C68.2289 141.251 67.9325 141.015 67.8707 140.706L66.2047 132.334C66.1429 132.024 66.3401 131.761 66.6448 131.745L76.7933 131.233C77.0896 131.218 77.3792 131.453 77.44 131.759L79.0822 140.013C79.1429 140.318 78.9524 140.581 78.6566 140.599V140.599ZM68.859 140.078L77.9003 139.526L76.4756 132.367L67.4182 132.837L68.859 140.079V140.078Z" fill="#D8DDE0"/>
<path d="M91.4443 139.8L81.6493 140.412C81.3555 140.43 81.068 140.198 81.0073 139.894L79.3687 131.66C79.308 131.356 79.498 131.097 79.7922 131.082L89.6106 130.587C89.8976 130.572 90.1784 130.804 90.2381 131.104L91.8538 139.224C91.9135 139.524 91.7303 139.781 91.4438 139.8H91.4443ZM81.9618 139.278L90.7089 138.743L89.3075 131.701L80.5443 132.155L81.9612 139.277L81.9618 139.278Z" fill="#D8DDE0"/>
<path d="M103.823 139.027L94.3414 139.62C94.057 139.637 93.7782 139.409 93.7186 139.11L92.107 131.009C92.0473 130.709 92.2305 130.455 92.5155 130.441L102.02 129.962C102.297 129.948 102.57 130.176 102.629 130.471L104.219 138.461C104.278 138.756 104.101 139.01 103.823 139.027H103.823ZM94.6398 138.505L103.107 137.987L101.728 131.058L93.2452 131.498L94.6393 138.505H94.6398Z" fill="#D8DDE0"/>
<path d="M53.9022 85.6305L43.1434 85.5521L42.6846 83.2461L53.4491 83.3546L53.9022 85.6305Z" fill="url(#paint14_linear_0_823)"/>
<path d="M67.4795 85.7296L57.0809 85.6537L56.6299 83.3867L67.0342 83.4916L67.4795 85.7296Z" fill="url(#paint15_linear_0_823)"/>
<path d="M80.6092 85.8258L70.5531 85.7525L70.1094 83.5234L80.1712 83.6247L80.6092 85.8258Z" fill="url(#paint16_linear_0_823)"/>
<path d="M93.3121 85.9177L83.5815 85.8471L83.1455 83.6543L92.8814 83.7525L93.3121 85.9177Z" fill="url(#paint17_linear_0_823)"/>
<path d="M105.611 86.0072L96.19 85.9387L95.7607 83.7812L105.187 83.8768L105.611 86.0072Z" fill="url(#paint18_linear_0_823)"/>
<path d="M117.523 86.0944L108.398 86.0279L107.976 83.9053L117.106 83.9972L117.523 86.0944Z" fill="url(#paint19_linear_0_823)"/>
<path d="M129.066 86.1792L120.223 86.1148L119.807 84.0254L128.655 84.1147L129.066 86.1792Z" fill="url(#paint20_linear_0_823)"/>
<path d="M128.096 81.308L42.0606 80.1119L41.1934 75.7529L127.32 77.4055L128.096 81.308Z" fill="#D8DDE0"/>
<g style="mix-blend-mode:multiply" opacity="0.3">
<g style="mix-blend-mode:multiply">
<path d="M105.14 111.132C85.8742 100.657 67.6166 108.799 54.4707 95.3633C47.7291 88.4729 45.5679 79.1721 45.1776 70.9475L36.7035 70.7345C35.1968 70.6966 34.2101 71.8636 34.5039 73.3412L48.6608 144.488C48.9551 145.966 50.3959 147.082 51.8746 146.981L131.489 141.543C122.744 123.761 113.081 115.45 105.14 111.132L105.14 111.132Z" fill="#D8DDE0"/>
</g>
</g>
<path d="M95.2977 81.8741C95.075 81.3667 94.3172 81.0343 93.8501 81.468C92.5121 82.7103 92.2443 84.7732 91.5576 86.4268C91.0334 87.6894 90.4505 88.925 89.8853 90.1688C88.6781 88.4497 87.6457 86.6008 86.3995 84.9077C85.9672 84.3203 84.9369 84.8578 85.2629 85.547C86.5526 88.2695 87.4096 91.099 89.1255 93.6169C89.727 94.4993 91.0251 94.2271 91.4559 93.352C92.4514 91.3322 93.466 89.3192 94.3302 87.2376C95.0044 85.614 96.0539 83.6005 95.2966 81.8736L95.2977 81.8741Z" fill="url(#paint21_linear_0_823)"/>
<path d="M58.8472 20.9944C59.4238 21.2873 60.1484 21.0183 60.4655 20.3935C60.7826 19.7687 60.5719 19.0244 59.9953 18.7315C59.9652 18.7165 59.9351 18.7035 59.9045 18.6915C60.0114 18.3456 60.0923 17.9971 60.1463 17.6486C60.1795 17.6486 60.2128 17.6481 60.2465 17.645C60.9046 17.5863 61.4267 16.9813 61.4127 16.2936C61.3987 15.606 60.8543 15.096 60.1967 15.1547C60.1624 15.1578 60.1287 15.163 60.0949 15.1692C60.0264 14.8285 59.932 14.4956 59.8131 14.1736C59.8432 14.1559 59.8733 14.1377 59.9029 14.117C60.4655 13.7223 60.6456 12.9437 60.3046 12.3776C59.9636 11.8115 59.2313 11.6723 58.6681 12.0671C58.6391 12.0873 58.6121 12.1091 58.5856 12.1314C58.3635 11.8853 58.1195 11.6578 57.8559 11.4495C57.8746 11.4189 57.8927 11.3882 57.9088 11.356C58.2259 10.7312 58.6401 10.0488 58.0588 9.76471C56.7145 9.10823 56.1374 9.67019 55.8203 10.295C55.8036 10.3272 55.7896 10.3604 55.7761 10.3931C55.4528 10.3028 55.1248 10.2404 54.7952 10.2056C54.7973 10.1708 54.7988 10.136 54.7983 10.1007C54.7843 9.4131 54.9883 9.04124 54.3281 9.02825C52.8878 9.00021 52.402 9.62552 52.416 10.3132C52.4165 10.349 52.4196 10.3843 52.4232 10.4191C52.0931 10.5131 51.7693 10.6336 51.4537 10.779C51.4387 10.7484 51.4231 10.7177 51.4054 10.6881C51.0644 10.122 50.3321 9.98284 49.769 10.3776C49.2063 10.7723 49.0262 11.5508 49.3672 12.1169C49.3849 12.146 49.4041 12.173 49.4233 12.2C49.1742 12.4493 48.9406 12.7204 48.7247 13.0107C48.6967 12.9931 48.6686 12.9759 48.6385 12.9609C48.0619 12.668 47.3373 12.937 47.0202 13.5618C46.7031 14.1866 46.9138 14.9308 47.4905 15.2237C47.5206 15.2388 47.5507 15.2518 47.5813 15.2637C47.4744 15.6096 47.3934 15.9581 47.3394 16.3066C47.3062 16.3066 47.273 16.3071 47.2398 16.3102C46.5816 16.3689 46.0595 16.974 46.0735 17.6616C46.0875 18.3493 46.632 18.8588 47.2896 18.8001C47.3238 18.797 47.3576 18.7918 47.3913 18.7855C47.4598 19.1262 47.5543 19.4591 47.6731 19.7812C47.643 19.7988 47.6129 19.817 47.5834 19.8378C47.0207 20.2325 46.8406 21.011 47.1816 21.5771C47.5226 22.1432 48.651 22.406 49.2141 22.0118C49.2432 21.9916 48.8742 21.8456 48.9012 21.8238C49.1233 22.0695 49.3672 22.2975 49.6309 22.5057C49.6122 22.5364 49.5941 22.567 49.578 22.5992C49.2608 23.224 49.4716 23.9682 50.0482 24.2612C50.6248 24.5541 51.3494 24.2851 51.6665 23.6603C51.6831 23.6281 51.6971 23.5948 51.7106 23.5621C52.034 23.6525 52.362 23.7148 52.6916 23.7496C52.6895 23.7844 52.6879 23.8192 52.6885 23.8545C52.7025 24.5422 53.2469 25.0517 53.9045 24.993C54.5627 24.9343 55.0848 24.3292 55.0708 23.6416C55.0703 23.6057 55.0672 23.5704 55.0635 23.5356C55.3936 23.4416 55.7175 23.3211 56.0331 23.1757C56.0481 23.2063 56.0637 23.237 56.0813 23.2666C56.4223 23.8327 57.1547 23.9719 57.7178 23.5772C58.2804 23.1825 58.4605 22.4039 58.1195 21.8378C58.1019 21.8088 58.0827 21.7817 58.0635 21.7547C58.3126 21.5054 58.5462 21.2343 58.7621 20.944C58.7901 20.9617 58.8181 20.9788 58.8482 20.9939L58.8472 20.9944ZM51.6587 21.0858C49.565 20.0221 48.801 17.3209 49.9517 15.0524C51.1029 12.7838 53.7327 11.8074 55.8265 12.871C57.9202 13.9347 58.6842 16.6359 57.5336 18.9045C56.3824 21.1731 53.7525 22.1495 51.6587 21.0858Z" fill="url(#paint22_linear_0_823)"/>
<path d="M60.2465 17.6457C60.9046 17.5871 61.4267 16.982 61.4127 16.2944C61.3987 15.6067 60.8542 15.0967 60.1966 15.1554C60.1624 15.1585 60.1286 15.1637 60.0949 15.1699C60.0264 14.8292 59.9319 14.4963 59.8131 14.1743C59.8432 14.1567 59.8733 14.1385 59.9029 14.1177C60.4655 13.723 61.162 12.7695 60.765 12.2418C60.0113 11.2394 59.2312 11.6731 58.6686 12.0678C58.6396 12.088 58.6126 12.1099 58.5861 12.1322C58.364 11.8865 58.12 11.6585 57.8564 11.4503C57.875 11.4196 57.8932 11.389 57.9093 11.3568C58.0816 11.0166 58.0972 10.6416 57.983 10.3232C57.4396 11.2809 56.9029 12.2423 56.3761 13.2088C58.0463 14.4335 58.5783 16.847 57.534 18.9047C56.6491 20.6482 54.8907 21.6272 53.1737 21.5046C53.0969 21.7035 53.0222 21.9035 52.9396 22.1003C52.717 22.6347 52.4642 23.1577 52.2109 23.6802C52.3703 23.7103 52.5301 23.7337 52.6905 23.7509C52.6884 23.7857 52.6869 23.8205 52.6874 23.8558C52.7014 24.5434 53.1182 25.1277 54.3109 25.0643C54.9706 25.0295 55.0837 24.331 55.0702 23.6433C55.0697 23.6075 55.0666 23.5722 55.063 23.5374C55.3931 23.4434 55.7169 23.3229 56.0325 23.1775C56.0476 23.2081 56.0631 23.2388 56.0808 23.2684C56.4218 23.8345 57.6041 24.0749 58.1673 23.6802C58.7299 23.2855 58.46 22.4052 58.1195 21.8391C58.1019 21.81 58.0826 21.783 58.0634 21.756C58.3126 21.5067 58.5461 21.2356 58.762 20.9453C58.7901 20.9629 58.8181 20.9801 58.8482 20.9951C59.4248 21.288 60.1494 21.019 60.4665 20.3942C60.7836 19.7694 60.5729 19.0252 59.9963 18.7322C59.9662 18.7172 59.9361 18.7042 59.9055 18.6923C60.0124 18.3464 60.0933 17.9979 60.1473 17.6494C60.1805 17.6494 60.2138 17.6489 60.2475 17.6457H60.2465Z" fill="url(#paint23_linear_0_823)"/>
<path d="M59.4674 21.065C60.044 21.3579 60.7686 21.0889 61.0857 20.4641C61.4028 19.8393 61.1921 19.0956 60.6155 18.8021C60.5854 18.7871 60.5553 18.7741 60.5246 18.7621C60.6315 18.4162 60.7125 18.0678 60.7665 17.7193C60.7997 17.7193 60.8329 17.7188 60.8667 17.7156C61.5248 17.6569 62.0469 17.0519 62.0329 16.3642C62.0189 15.6766 61.4744 15.1666 60.8168 15.2253C60.7826 15.2284 60.7488 15.2336 60.7151 15.2398C60.6466 14.8991 60.5521 14.5662 60.4333 14.2442C60.4634 14.2266 60.4935 14.2084 60.5231 14.1876C61.0857 13.7929 61.2658 13.0144 60.9248 12.4483C60.5838 11.8821 59.8515 11.743 59.2883 12.1377C59.2593 12.1579 59.2323 12.1797 59.2053 12.2021C58.9831 11.9559 58.7392 11.7284 58.4755 11.5201C58.4942 11.4895 58.5124 11.4589 58.5285 11.4267C58.8456 10.8019 58.6349 10.0576 58.0582 9.7647C57.4816 9.47178 56.757 9.74081 56.4399 10.3656C56.4233 10.3978 56.4093 10.4311 56.3958 10.4638C56.0725 10.3734 55.7444 10.3111 55.4148 10.2763C55.4169 10.2415 55.4185 10.2067 55.418 10.1714C55.4039 9.48373 54.8595 8.97423 54.2019 9.03292C53.5438 9.09161 53.0216 9.69667 53.0356 10.3843C53.0362 10.4201 53.0393 10.4554 53.0429 10.4902C52.7128 10.5843 52.3889 10.7048 52.0734 10.8502C52.0583 10.8195 52.0428 10.7889 52.0251 10.7593C51.6841 10.1932 50.9518 10.054 50.3886 10.4487C49.826 10.8434 49.6459 11.6219 49.9869 12.188C50.0045 12.2171 50.0232 12.2441 50.043 12.2711C49.7938 12.5204 49.5603 12.7915 49.3443 13.0819C49.3163 13.0642 49.2883 13.0471 49.2582 13.032C48.6816 12.7391 47.957 13.0081 47.6399 13.6329C47.3228 14.2577 47.5335 15.002 48.1101 15.2949C48.1402 15.3099 48.1703 15.3229 48.2009 15.3349C48.094 15.6808 48.0131 16.0293 47.9591 16.3778C47.9259 16.3778 47.8926 16.3783 47.8589 16.3814C47.2008 16.4401 46.6786 17.0451 46.6927 17.7328C46.7067 18.4204 47.2511 18.9299 47.9087 18.8712C47.943 18.8681 47.9767 18.8629 48.0105 18.8567C48.079 19.1974 48.1734 19.5303 48.2923 19.8523C48.2622 19.87 48.2321 19.8881 48.2025 19.9089C47.6399 20.3036 47.4598 21.0822 47.8008 21.6483C48.1418 22.2144 48.8741 22.3536 49.4373 21.9588C49.4663 21.9386 49.4933 21.9168 49.5203 21.8944C49.7424 22.1406 49.9864 22.3681 50.25 22.5763C50.2314 22.607 50.2132 22.6376 50.1971 22.6698C49.88 23.2946 50.0907 24.0389 50.6673 24.3318C51.244 24.6247 51.9685 24.3557 52.2857 23.7309C52.3023 23.6987 52.3163 23.6655 52.3298 23.6327C52.6531 23.7231 52.9811 23.7854 53.3107 23.8202C53.3086 23.855 53.3071 23.8898 53.3076 23.9251C53.3216 24.6128 53.8661 25.1223 54.5237 25.0636C55.1818 25.0049 55.7039 24.3998 55.6899 23.7122C55.6894 23.6764 55.6863 23.641 55.6827 23.6062C56.0128 23.5122 56.3366 23.3918 56.6522 23.2463C56.6672 23.277 56.6828 23.3076 56.7005 23.3372C57.0415 23.9033 57.7738 24.0425 58.337 23.6478C58.8996 23.2531 59.0797 22.4746 58.7387 21.9085C58.721 21.8794 58.7018 21.8524 58.6826 21.8253C58.9317 21.5761 59.1653 21.305 59.3812 21.0146C59.4093 21.0323 59.4373 21.0494 59.4674 21.0645V21.065ZM52.2789 21.1564C50.1852 20.0928 49.4212 17.3916 50.5718 15.123C51.723 12.8544 54.3529 11.878 56.4467 12.9417C58.5404 14.0053 59.3044 16.7065 58.1537 18.9751C57.0025 21.2437 54.3726 22.2201 52.2789 21.1564Z" fill="url(#paint24_linear_0_823)"/>
<path d="M39.6834 38.2456C40.8128 38.8195 42.2323 38.2924 42.8531 37.0687C43.4738 35.8446 43.0617 34.3873 41.9323 33.8134C41.8737 33.7838 41.814 33.7588 41.7543 33.7349C41.964 33.0577 42.1223 32.3752 42.2287 31.6923C42.2935 31.6923 42.3584 31.6913 42.4243 31.685C43.7131 31.5702 44.7361 30.385 44.7091 29.0383C44.6821 27.6916 43.6155 26.6929 42.3268 26.8077C42.2593 26.8139 42.1934 26.8243 42.1275 26.8362C41.993 26.1689 41.8083 25.5165 41.5757 24.8855C41.6349 24.8507 41.6941 24.8149 41.7517 24.7744C42.8541 24.0016 43.207 22.4757 42.539 21.3668C41.8711 20.258 40.436 19.9853 39.3336 20.7586C39.277 20.7981 39.224 20.8412 39.1716 20.8843C38.7362 20.4024 38.2587 19.9562 37.7417 19.5485C37.778 19.4888 37.8133 19.4286 37.8455 19.3652C38.4663 18.1411 39.278 16.8042 38.1398 16.2485C35.5063 14.962 34.3764 16.0631 33.7551 17.2872C33.7229 17.3506 33.6954 17.415 33.6684 17.4794C33.0347 17.3023 32.3927 17.1797 31.747 17.1122C31.7511 17.0442 31.7543 16.9761 31.7527 16.9071C31.7257 15.5604 32.1248 14.8312 30.8314 14.8062C28.0105 14.7512 27.0587 15.9764 27.0856 17.3236C27.0872 17.3942 27.0929 17.4628 27.0997 17.5313C26.453 17.7157 25.8182 17.9515 25.2005 18.2366C25.171 18.1764 25.1409 18.1166 25.1056 18.059C24.4376 16.9502 23.0025 16.6775 21.9001 17.4508C20.7977 18.2236 20.4447 19.7495 21.1127 20.8584C21.147 20.915 21.1843 20.9685 21.2222 21.0209C20.7338 21.5097 20.2766 22.0399 19.8541 22.6092C19.7996 22.5749 19.7441 22.5411 19.6854 22.5115C18.556 21.9376 17.1365 22.4648 16.5157 23.6884C15.895 24.9125 16.3071 26.3699 17.4365 26.9438C17.4951 26.9734 17.5548 26.9983 17.6145 27.0222C17.4048 27.6994 17.2465 28.3819 17.1401 29.0648C17.0752 29.0648 17.0104 29.0659 16.9444 29.0721C15.6557 29.1869 14.6327 30.3721 14.6597 31.7193C14.6867 33.066 15.7533 34.0647 17.042 33.95C17.1095 33.9437 17.1754 33.9333 17.2413 33.9214C17.3758 34.5888 17.5605 35.2411 17.793 35.8721C17.7339 35.9069 17.6747 35.9428 17.6171 35.9833C16.5147 36.7561 16.1618 38.282 16.8297 39.3908C17.4977 40.4996 19.7082 41.0149 20.8106 40.242C20.8672 40.2026 20.1447 39.9169 20.1972 39.8733C20.6326 40.3553 21.1101 40.8014 21.6271 41.2091C21.5907 41.2688 21.5549 41.3291 21.5227 41.3924C20.902 42.6166 21.3141 44.0739 22.4435 44.6478C23.5729 45.2217 24.9924 44.6945 25.6132 43.4709C25.6454 43.4076 25.6729 43.3432 25.6998 43.2788C26.3336 43.4559 26.9756 43.5784 27.6213 43.646C27.6171 43.714 27.614 43.782 27.6156 43.8511C27.6426 45.1978 28.7091 46.1965 29.9979 46.0818C31.2866 45.967 32.3096 44.7818 32.2826 43.4351C32.2811 43.3645 32.2754 43.2959 32.2686 43.2273C32.9153 43.043 33.5501 42.8072 34.1677 42.522C34.1973 42.5823 34.2274 42.642 34.2627 42.6997C34.9307 43.8085 36.3658 44.0812 37.4682 43.3078C38.5706 42.535 38.9235 41.0091 38.2555 39.9003C38.2213 39.8437 38.1839 39.7902 38.146 39.7383C38.6344 39.2495 39.0917 38.7193 39.5142 38.1501C39.5687 38.1843 39.6242 38.2181 39.6829 38.2477L39.6834 38.2456ZM25.6023 38.4243C21.5009 36.3406 20.0041 31.0493 22.2587 26.6056C24.5134 22.162 29.6657 20.2486 33.767 22.3323C37.8684 24.416 39.3652 29.7073 37.1106 34.151C34.8559 38.5946 29.7036 40.508 25.6023 38.4243Z" fill="url(#paint25_linear_0_823)"/>
<path d="M42.424 31.6844C43.7127 31.5696 44.7357 30.3844 44.7088 29.0377C44.6818 27.691 43.6152 26.6923 42.3264 26.8071C42.259 26.8133 42.1931 26.8237 42.1271 26.8356C41.9927 26.1682 41.8079 25.5159 41.5754 24.8849C41.6346 24.8501 41.6938 24.8143 41.7514 24.7738C42.8538 24.001 44.2178 22.1333 43.4403 21.0987C41.9636 19.135 40.4362 19.9852 39.3332 20.758C39.2767 20.7975 39.2237 20.8406 39.1713 20.8837C38.7358 20.4018 38.2583 19.9556 37.7414 19.5479C37.7777 19.4882 37.813 19.4279 37.8452 19.3646C38.1831 18.6982 38.2132 17.9639 37.99 17.3396C36.925 19.215 35.8745 21.0987 34.8426 22.9923C38.1146 25.3913 39.1562 30.1196 37.1108 34.1498C35.3778 37.5657 31.9325 39.4832 28.5692 39.2432C28.4192 39.6327 28.2718 40.0244 28.1109 40.4097C27.6749 41.4562 27.1798 42.4814 26.6836 43.5051C26.9955 43.5638 27.309 43.61 27.623 43.6433C27.6189 43.7113 27.6158 43.7794 27.6173 43.8484C27.6443 45.1951 28.4618 46.3398 30.7974 46.2157C32.0892 46.1471 32.3114 44.7791 32.2844 43.4324C32.2828 43.3623 32.2771 43.2932 32.2704 43.2247C32.9171 43.0403 33.5518 42.8045 34.1695 42.5194C34.1991 42.5796 34.2292 42.6393 34.2644 42.697C34.9324 43.8058 37.2488 44.2774 38.3512 43.5041C39.4536 42.7313 38.9248 41.0065 38.2573 39.8976C38.223 39.841 38.1857 39.7875 38.1478 39.7351C38.6362 39.2463 39.0934 38.7161 39.5159 38.1468C39.5704 38.1811 39.626 38.2149 39.6846 38.2445C40.814 38.8184 42.2335 38.2912 42.8543 37.0676C43.475 35.844 43.0629 34.3861 41.9335 33.8122C41.8749 33.7826 41.8152 33.7577 41.7555 33.7338C41.9652 33.0566 42.1235 32.3741 42.2299 31.6912C42.2948 31.6912 42.3597 31.6896 42.4256 31.6839L42.424 31.6844Z" fill="url(#paint26_linear_0_823)"/>
<path d="M40.8982 38.3842C42.0276 38.9581 43.4471 38.4309 44.0678 37.2073C44.6886 35.9831 44.2765 34.5258 43.1471 33.9519C43.0884 33.9223 43.0287 33.8974 42.9691 33.8735C43.1787 33.1962 43.337 32.5138 43.4434 31.8308C43.5083 31.8308 43.5732 31.8298 43.6391 31.8235C44.9279 31.7088 45.9509 30.5236 45.9239 29.1769C45.8969 27.8302 44.8303 26.8314 43.5415 26.9462C43.4741 26.9525 43.4082 26.9628 43.3422 26.9748C43.2078 26.3074 43.023 25.6551 42.7905 25.024C42.8497 24.9893 42.9089 24.9534 42.9665 24.9129C44.0689 24.1401 44.4218 22.6142 43.7538 21.5054C43.0858 20.3965 41.6507 20.1239 40.5483 20.8972C40.4918 20.9367 40.4388 20.9798 40.3864 21.0229C39.9509 20.5409 39.4734 20.0948 38.9565 19.6871C38.9928 19.6274 39.0286 19.5671 39.0608 19.5037C39.6816 18.2796 39.2695 16.8223 38.1401 16.2484C37.0107 15.6745 35.5911 16.2016 34.9704 17.4252C34.9382 17.4886 34.9107 17.553 34.8837 17.6174C34.25 17.4403 33.608 17.3177 32.9623 17.2502C32.9664 17.1822 32.9696 17.1142 32.968 17.0451C32.941 15.6984 31.8744 14.6996 30.5857 14.8144C29.2969 14.9292 28.274 16.1144 28.3009 17.4611C28.3025 17.5317 28.3082 17.6003 28.315 17.6688C27.6683 17.8532 27.0335 18.089 26.4158 18.3741C26.3863 18.3139 26.3562 18.2541 26.3214 18.1965C25.6534 17.0877 24.2183 16.815 23.1159 17.5883C22.0135 18.3611 21.6606 19.887 22.3285 20.9959C22.3628 21.0525 22.4002 21.106 22.4381 21.1584C21.9497 21.6471 21.4924 22.1774 21.0699 22.7466C21.0154 22.7124 20.9599 22.6786 20.9012 22.649C19.7718 22.0751 18.3523 22.6023 17.7316 23.8259C17.1103 25.05 17.5229 26.5073 18.6523 27.0812C18.7109 27.1108 18.7706 27.1358 18.8303 27.1597C18.6206 27.8369 18.4623 28.5194 18.3559 29.2023C18.2911 29.2023 18.2262 29.2034 18.1603 29.2096C16.8715 29.3244 15.8485 30.5096 15.8755 31.8568C15.9025 33.2035 16.9691 34.2022 18.2578 34.0875C18.3253 34.0812 18.3912 34.0708 18.4571 34.0589C18.5916 34.7263 18.7763 35.3786 19.0089 36.0096C18.9497 36.0444 18.8905 36.0803 18.8329 36.1208C17.7305 36.8936 17.3776 38.4195 18.0456 39.5283C18.7135 40.6371 20.1486 40.9098 21.251 40.1365C21.3076 40.097 21.3606 40.0539 21.413 40.0108C21.8484 40.4928 22.3259 40.9389 22.8429 41.3466C22.8066 41.4063 22.7707 41.4666 22.7386 41.5299C22.1178 42.7541 22.5299 44.2114 23.6593 44.7853C24.7887 45.3592 26.2082 44.832 26.829 43.6084C26.8612 43.5451 26.8887 43.4807 26.9157 43.4163C27.5494 43.5934 28.1914 43.7159 28.8371 43.7835C28.8329 43.8515 28.8298 43.9195 28.8314 43.9886C28.8584 45.3353 29.925 46.334 31.2137 46.2193C32.5024 46.1045 33.5254 44.9193 33.4984 43.5726C33.4969 43.502 33.4912 43.4334 33.4844 43.3648C34.1311 43.1805 34.7659 42.9447 35.3835 42.6595C35.4131 42.7198 35.4432 42.7795 35.4785 42.8372C36.1465 43.946 37.5816 44.2187 38.684 43.4453C39.7864 42.6725 40.1393 41.1466 39.4714 40.0378C39.4371 39.9812 39.3997 39.9277 39.3618 39.8752C39.8503 39.3865 40.3075 38.8563 40.73 38.287C40.7845 38.3213 40.84 38.3551 40.8987 38.3847L40.8982 38.3842ZM26.8171 38.5628C22.7157 36.4791 21.2189 31.1879 23.4735 26.7442C25.7281 22.3005 30.8805 20.3872 34.9818 22.4708C39.0831 24.5545 40.58 29.8458 38.3254 34.2895C36.0707 38.7332 30.9184 40.6465 26.8171 38.5628Z" fill="url(#paint27_linear_0_823)"/>
<defs>
<linearGradient id="paint0_linear_0_823" x1="136.005" y1="51.9832" x2="92.9049" y2="114.143" gradientUnits="userSpaceOnUse">
<stop stop-color="#8195C2"/>
<stop offset="1" stop-color="#56729A"/>
</linearGradient>
<linearGradient id="paint1_linear_0_823" x1="153.332" y1="77.3305" x2="78.4069" y2="77.3305" gradientUnits="userSpaceOnUse">
<stop stop-color="#ACAFB4"/>
<stop offset="1" stop-color="#AAADB2"/>
</linearGradient>
<linearGradient id="paint2_linear_0_823" x1="153.305" y1="83.9187" x2="69.6043" y2="114.414" gradientUnits="userSpaceOnUse">
<stop stop-color="#90ACD7"/>
<stop offset="1" stop-color="#6B86B7"/>
</linearGradient>
<linearGradient id="paint3_linear_0_823" x1="52.715" y1="82.8637" x2="-6.78327" y2="154.734" gradientUnits="userSpaceOnUse">
<stop stop-color="#96999D"/>
<stop offset="1" stop-color="#CACDD2"/>
</linearGradient>
<linearGradient id="paint4_linear_0_823" x1="70.935" y1="97.9469" x2="11.4367" y2="169.818" gradientUnits="userSpaceOnUse">
<stop stop-color="#96999D"/>
<stop offset="1" stop-color="#CACDD2"/>
</linearGradient>
<linearGradient id="paint5_linear_0_823" x1="34.0391" y1="99.8458" x2="140.32" y2="-6.36505" gradientUnits="userSpaceOnUse">
<stop stop-color="#CACDD2"/>
<stop offset="1" stop-color="#96999D"/>
</linearGradient>
<linearGradient id="paint6_linear_0_823" x1="46.269" y1="112.083" x2="152.549" y2="5.8726" gradientUnits="userSpaceOnUse">
<stop stop-color="#CACDD2"/>
<stop offset="1" stop-color="#96999D"/>
</linearGradient>
<linearGradient id="paint7_linear_0_823" x1="2.52481" y1="128.271" x2="22.8039" y2="117.902" gradientUnits="userSpaceOnUse">
<stop stop-color="#8195C2"/>
<stop offset="1" stop-color="#56729A"/>
</linearGradient>
<linearGradient id="paint8_linear_0_823" x1="13.2783" y1="53.9794" x2="35.6915" y2="125.246" gradientUnits="userSpaceOnUse">
<stop stop-color="#ACAFB4"/>
<stop offset="1" stop-color="#AAADB2"/>
</linearGradient>
<linearGradient id="paint9_linear_0_823" x1="-7.05647" y1="66.484" x2="81.5228" y2="176.173" gradientUnits="userSpaceOnUse">
<stop stop-color="#90ACD7"/>
<stop offset="1" stop-color="#6B86B7"/>
</linearGradient>
<linearGradient id="paint10_linear_0_823" x1="30.1366" y1="108.112" x2="146.575" y2="108.112" gradientUnits="userSpaceOnUse">
<stop stop-color="#EBEEEE"/>
<stop offset="1" stop-color="white"/>
</linearGradient>
<linearGradient id="paint11_linear_0_823" x1="3.25837" y1="77.1677" x2="70.5259" y2="201.024" gradientUnits="userSpaceOnUse">
<stop stop-color="#8195C2"/>
<stop offset="1" stop-color="#56729A"/>
</linearGradient>
<linearGradient id="paint12_linear_0_823" x1="-17.2" y1="88.7028" x2="51.09" y2="214.443" gradientUnits="userSpaceOnUse">
<stop stop-color="#ACAFB4"/>
<stop offset="1" stop-color="#AAADB2"/>
</linearGradient>
<linearGradient id="paint13_linear_0_823" x1="14.4847" y1="154.474" x2="28.1136" y2="56.4138" gradientUnits="userSpaceOnUse">
<stop stop-color="#EBEEEE"/>
<stop offset="1" stop-color="white"/>
</linearGradient>
<linearGradient id="paint14_linear_0_823" x1="-15.7881" y1="75.6094" x2="-12.068" y2="127.244" gradientUnits="userSpaceOnUse">
<stop stop-color="#90ACD7"/>
<stop offset="1" stop-color="#6B86B7"/>
</linearGradient>
<linearGradient id="paint15_linear_0_823" x1="-2.11005" y1="74.9341" x2="1.52991" y2="125.461" gradientUnits="userSpaceOnUse">
<stop stop-color="#90ACD7"/>
<stop offset="1" stop-color="#6B86B7"/>
</linearGradient>
<linearGradient id="paint16_linear_0_823" x1="11.1141" y1="74.2891" x2="14.6777" y2="123.754" gradientUnits="userSpaceOnUse">
<stop stop-color="#90ACD7"/>
<stop offset="1" stop-color="#6B86B7"/>
</linearGradient>
<linearGradient id="paint17_linear_0_823" x1="23.9062" y1="73.6711" x2="27.3966" y2="122.115" gradientUnits="userSpaceOnUse">
<stop stop-color="#90ACD7"/>
<stop offset="1" stop-color="#6B86B7"/>
</linearGradient>
<linearGradient id="paint18_linear_0_823" x1="36.2884" y1="73.0798" x2="39.708" y2="120.542" gradientUnits="userSpaceOnUse">
<stop stop-color="#90ACD7"/>
<stop offset="1" stop-color="#6B86B7"/>
</linearGradient>
<linearGradient id="paint19_linear_0_823" x1="48.2806" y1="72.5141" x2="51.6322" y2="119.033" gradientUnits="userSpaceOnUse">
<stop stop-color="#90ACD7"/>
<stop offset="1" stop-color="#6B86B7"/>
</linearGradient>
<linearGradient id="paint20_linear_0_823" x1="59.8988" y1="71.9716" x2="63.1848" y2="117.582" gradientUnits="userSpaceOnUse">
<stop stop-color="#90ACD7"/>
<stop offset="1" stop-color="#6B86B7"/>
</linearGradient>
<linearGradient id="paint21_linear_0_823" x1="85.0173" y1="86.6449" x2="94.9121" y2="88.0892" gradientUnits="userSpaceOnUse">
<stop stop-color="#51637F"/>
<stop offset="1" stop-color="#464848"/>
</linearGradient>
<linearGradient id="paint22_linear_0_823" x1="72.7648" y1="22.2928" x2="54.7571" y2="17.2004" gradientUnits="userSpaceOnUse">
<stop stop-color="#142344"/>
<stop offset="1" stop-color="#515F85"/>
</linearGradient>
<linearGradient id="paint23_linear_0_823" x1="72.7181" y1="22.4597" x2="54.7104" y2="17.3673" gradientUnits="userSpaceOnUse">
<stop stop-color="#142344"/>
<stop offset="1" stop-color="#515F85"/>
</linearGradient>
<linearGradient id="paint24_linear_0_823" x1="54.287" y1="10.9063" x2="54.5687" y2="33.659" gradientUnits="userSpaceOnUse">
<stop stop-color="#ACAFB4"/>
<stop offset="1" stop-color="#AAADB2"/>
</linearGradient>
<linearGradient id="paint25_linear_0_823" x1="66.9466" y1="40.7884" x2="31.6719" y2="30.8132" gradientUnits="userSpaceOnUse">
<stop stop-color="#142344"/>
<stop offset="1" stop-color="#515F85"/>
</linearGradient>
<linearGradient id="paint26_linear_0_823" x1="66.8539" y1="41.115" x2="31.5787" y2="31.1392" gradientUnits="userSpaceOnUse">
<stop stop-color="#142344"/>
<stop offset="1" stop-color="#515F85"/>
</linearGradient>
<linearGradient id="paint27_linear_0_823" x1="30.7507" y1="18.4847" x2="31.3027" y2="63.0539" gradientUnits="userSpaceOnUse">
<stop stop-color="#ACAFB4"/>
<stop offset="1" stop-color="#AAADB2"/>
</linearGradient>
</defs>
</svg>
