<svg width="156" height="156" viewBox="0 0 156 156" fill="none" xmlns="http://www.w3.org/2000/svg">
<path d="M37.2878 9.32455C32.0783 16.8148 38.1863 28.9579 30.4565 34.5908C22.9317 40.0744 13.6881 31.086 6.59638 35.8064C-3.9233 42.8085 -2.00217 74.8482 13.3782 94.7555C18.0034 100.742 21.8686 103.071 23.5799 109.842C27.2554 124.38 14.3379 133.029 16.796 140.219C22.3309 156.41 107.456 169.995 141.612 121.338C157.564 98.613 159.951 65.7979 145.698 40.875C119.943 -4.161 48.9766 -7.48192 37.2873 9.32455H37.2878Z" fill="#F4F6F8"/>
<path d="M82.0165 130.542L49.7773 131.461V129.884L81.2719 129.011V116.419L82.7606 116.388V129.746C82.7606 130.174 82.4277 130.531 82.0165 130.543V130.542Z" fill="url(#paint0_linear_0_1213)"/>
<path d="M79.2667 60.0171L77.7727 60.006V52.1841L64.6134 52.0323C64.1947 52.0275 63.8555 51.6731 63.8555 51.2408V36.0039L65.3708 36.0338V50.4771L78.52 50.6391C78.9322 50.6445 79.2667 50.9962 79.2667 51.4252V60.0182V60.0171Z" fill="url(#paint1_linear_0_1213)"/>
<path d="M97.4601 24.0881L87.9055 23.8387V22.292L97.4601 22.5489V24.0881Z" fill="url(#paint2_linear_0_1213)"/>
<path d="M93.4304 59.871L91.9583 59.8598V51.5759C91.9583 51.1496 92.2879 50.8085 92.6948 50.8133L107.848 50.9998V52.5305L93.4309 52.3642V59.8705L93.4304 59.871Z" fill="url(#paint3_linear_0_1213)"/>
<path d="M113.077 87.1249L98.6094 60.6702C98.3527 60.2006 97.8781 59.9091 97.3642 59.9048L67.7289 59.6778C67.199 59.6735 66.709 59.9629 66.4432 60.4362L51.2637 87.5214C50.9941 88.0021 50.9941 88.5926 51.2637 89.0696L66.4432 115.949C66.7084 116.418 67.1984 116.701 67.7289 116.689L97.3642 116.059C97.8781 116.048 98.3527 115.75 98.6094 115.277L113.077 88.6252C113.33 88.1593 113.33 87.5875 113.077 87.1249Z" fill="url(#paint4_linear_0_1213)"/>
<path d="M148.835 12.1732L98.151 10.4832C97.3564 10.4566 96.7119 11.1126 96.7119 11.9478V35.4381C96.7119 36.2738 97.3564 36.9635 98.151 36.9795L148.835 37.9772C149.588 37.9921 150.198 37.3456 150.198 36.5328V13.69C150.198 12.8778 149.588 12.1988 148.835 12.1732Z" fill="url(#paint5_linear_0_1213)"/>
<path d="M85.7021 10.0684L41.5361 8.59583C40.6945 8.56758 40.0117 9.2423 40.0117 10.102V34.2783C40.0117 35.1379 40.6945 35.8489 41.5361 35.8655L85.7021 36.7347C86.5063 36.7507 87.1577 36.0829 87.1577 35.2429V11.6374C87.1577 10.798 86.5063 10.0956 85.7021 10.0684Z" fill="url(#paint6_linear_0_1213)"/>
<path d="M47.5173 116.388L1.58613 117.365C0.71051 117.384 0 118.109 0 118.987V143.647C0 144.524 0.71051 145.21 1.58613 145.18L47.5173 143.576C48.3529 143.546 49.0299 142.829 49.0299 141.973V117.906C49.0299 117.05 48.3529 116.37 47.5173 116.388Z" fill="url(#paint7_linear_0_1213)"/>
<path d="M113.825 87.1268L99.3572 60.6721C99.1005 60.2026 98.6259 59.911 98.112 59.9068L68.4767 59.6797C67.9468 59.6755 67.4568 59.9648 67.191 60.4381L52.0115 87.5233C51.742 88.0041 51.742 88.5946 52.0115 89.0716L67.191 115.951C67.4562 116.42 67.9462 116.703 68.4767 116.691L98.112 116.061C98.6259 116.05 99.1005 115.752 99.3572 115.278L113.825 88.6271C114.078 88.1613 114.078 87.5894 113.825 87.1268Z" fill="url(#paint8_linear_0_1213)"/>
<g style="mix-blend-mode:soft-light" opacity="0.31">
<path d="M68.7087 114.734L53.7891 88.2851L68.7087 61.6338L97.8859 61.8288L112.152 87.8886L97.8859 114.142L68.7087 114.734Z" fill="white"/>
</g>
<path d="M149.583 11.7992L98.8991 10.1092C98.1044 10.0825 97.46 10.7386 97.46 11.5738V35.0641C97.46 35.8998 98.1044 36.5895 98.8991 36.6055L149.583 37.6032C150.336 37.6181 150.946 36.9716 150.946 36.1589V13.316C150.946 12.5038 150.336 11.8248 149.583 11.7992Z" fill="url(#paint9_linear_0_1213)"/>
<g style="mix-blend-mode:soft-light" opacity="0.3">
<path d="M99.29 34.6907V12.0439L149.213 13.6588V35.723L99.29 34.6907Z" fill="white"/>
</g>
<path d="M86.4501 9.69413L42.2841 8.22156C41.4426 8.19331 40.7598 8.86803 40.7598 9.7277V33.904C40.7598 34.7637 41.4426 35.4746 42.2841 35.4912L86.4501 36.3605C87.2544 36.3764 87.9058 35.7086 87.9058 34.8687V11.2632C87.9058 10.4238 87.2544 9.72131 86.4501 9.69413Z" fill="url(#paint10_linear_0_1213)"/>
<g style="mix-blend-mode:soft-light" opacity="0.3">
<path d="M42.6973 33.5205V10.2129L86.0537 11.6156V34.4169L42.6973 33.5205Z" fill="white"/>
</g>
<path d="M48.2651 117.121L2.33393 118.098C1.45831 118.117 0.747803 118.843 0.747803 119.72V144.38C0.747803 145.258 1.45831 145.944 2.33393 145.913L48.2651 144.309C49.1007 144.28 49.7777 143.562 49.7777 142.706V118.639C49.7777 117.783 49.1007 117.104 48.2651 117.121Z" fill="url(#paint11_linear_0_1213)"/>
<g style="mix-blend-mode:soft-light" opacity="0.3">
<path d="M2.76489 143.88V120.106L47.8539 119.103V142.35L2.76489 143.88Z" fill="white"/>
</g>
<path d="M37.7794 104.062L37.5903 107.092C37.5903 107.092 38.0201 107.548 38.8473 107.23L39.7506 104.256L37.7799 104.063L37.7794 104.062Z" fill="url(#paint12_linear_0_1213)"/>
<path d="M38.1581 106.289C38.1581 106.289 36.6753 106.894 36.9634 107.551C37.1179 107.903 37.6526 108.699 38.1149 109.361C38.5426 109.973 39.3154 110.244 40.0302 110.029C40.2704 109.957 40.5154 109.887 40.7327 109.831C41.1823 109.715 41.2084 109.087 40.7705 108.932C40.558 108.857 40.3482 108.797 40.165 108.768C39.6222 108.685 38.8755 107.401 38.7876 106.888C38.7003 106.374 38.1575 106.29 38.1575 106.29L38.1581 106.289Z" fill="url(#paint13_linear_0_1213)"/>
<path d="M34.5945 74.9863C36.7782 75.7405 44.8542 78.7955 46.6534 85.8018C46.7493 86.1759 46.9959 87.2158 47.0071 88.9148C47.0534 95.9873 42.9438 101.972 39.9547 105.454C39.0125 105.439 38.0698 105.423 37.1276 105.407C36.6573 103.602 36.2254 100.902 36.9013 97.8644C37.9351 93.2217 40.6168 92.0172 40.0996 89.7388C39.1606 85.6009 29.5581 86.2266 28.6532 82.5214C28.3261 81.1831 29.0447 78.9116 34.5945 74.9863Z" fill="url(#paint14_linear_0_1213)"/>
<path d="M7.58227 117.327L11.6829 117.231C11.9353 117.226 12.044 116.91 11.8506 116.747C11.66 116.587 11.3963 116.456 11.0592 116.491C10.2794 116.572 8.52979 115.481 7.73619 115.715C7.47681 115.791 7.2659 116.402 7.15831 116.571C6.94633 116.902 7.1892 117.336 7.5828 117.327H7.58227Z" fill="url(#paint15_linear_0_1213)"/>
<path d="M9.42448 114.174L7.73608 115.714C7.73608 115.714 8.3257 116.155 9.18587 115.966L10.9121 114.778L9.42502 114.174L9.42448 114.174Z" fill="url(#paint16_linear_0_1213)"/>
<g style="mix-blend-mode:color-burn" opacity="0.3">
<path style="mix-blend-mode:color-burn" d="M41.839 93.2327C42.9719 90.173 44.3301 86.3996 42.7786 84.2577C41.2089 82.0896 37.7693 83.9198 34.3196 82.1727C33.0397 81.5246 31.7247 80.3654 30.6307 78.2666C28.6936 80.2673 28.4304 81.6104 28.6531 82.5213C29.558 86.227 39.1605 85.6007 40.0995 89.7386C40.6167 92.0176 37.935 93.2216 36.9012 97.8642C36.3196 100.476 36.5582 102.836 36.9347 104.594C37.2708 102.961 37.7928 101.246 38.5912 99.5158C39.829 96.8329 40.6454 96.4561 41.8385 93.2327H41.839Z" fill="url(#paint17_linear_0_1213)"/>
</g>
<path d="M35.846 74.1029C34.5166 80.2096 31.6841 89.5343 25.1947 99.2678C20.3906 106.474 15.1129 111.608 10.9734 115.038C10.6789 115.126 10.1771 115.234 9.56143 115.158C9.10392 115.102 8.74121 114.964 8.4978 114.847C8.78275 113.126 9.38462 110.583 10.8104 107.836C13.4202 102.809 15.744 102.971 18.3656 98.5344C20.2851 95.286 20.9088 91.8356 22.1573 84.9343C23.1213 79.6052 23.1218 78.3314 24.4411 76.8034C27.1095 73.7138 32.1193 73.6792 35.846 74.1034V74.1029Z" fill="url(#paint18_linear_0_1213)"/>
<g style="mix-blend-mode:multiply" opacity="0.3">
<path style="mix-blend-mode:multiply" d="M11.8107 108.971C12.7422 107.5 14.3944 105.969 17.6545 102.947C21.0233 99.8247 20.8939 100.389 21.557 99.4665C24.5258 95.335 22.9184 90.9205 23.6523 85.5925C24.0619 82.6201 25.3732 78.7359 29.192 74.3848C27.4025 74.7152 25.689 75.4251 24.4411 76.8023C22.9093 78.4933 23.0222 80.1493 22.1573 84.9332C20.9093 91.8345 20.2851 95.2854 18.3656 98.5333C15.7446 102.97 13.4202 102.808 10.8104 107.835C9.38408 110.582 8.78275 113.125 8.4978 114.846C8.74174 114.962 9.10445 115.101 9.56143 115.157C9.92414 115.201 10.2458 115.182 10.5106 115.141C10.2954 111.648 11.3382 109.718 11.8112 108.971H11.8107Z" fill="url(#paint19_linear_0_1213)"/>
</g>
<path d="M39.4347 34.4189C39.4347 34.4189 40.5266 42.5552 31.9595 48.2915L41.0762 50.4676C41.0762 50.4676 43.9939 45.0079 41.8816 35.9646L39.4352 34.4189H39.4347Z" fill="url(#paint20_linear_0_1213)"/>
<path d="M41.0393 35.9649C41.0393 35.9649 41.5304 34.7513 41.4516 34.205C41.3722 33.6587 40.0726 32.9296 39.1869 32.1765C38.3012 31.4235 39.2199 32.9339 39.426 33.2771C39.6322 33.6209 40.3549 34.1357 40.2511 35.304L41.0399 35.9643L41.0393 35.9649Z" fill="url(#paint21_linear_0_1213)"/>
<path d="M30.8381 42.1591C31.286 41.2765 31.4703 41.2819 31.5806 40.8161C31.8314 39.7549 31.1843 38.4065 30.6357 38.3879C30.2821 38.3756 30.2528 38.9262 29.5039 39.7837C28.5867 40.8342 28.0302 40.6962 27.4901 41.6081C27.3639 41.8212 26.7956 42.7816 27.1449 43.4979C27.5907 44.4125 29.3494 44.5575 30.0844 43.8518C30.4333 43.5171 30.2868 43.2459 30.8381 42.1586V42.1591Z" fill="url(#paint22_linear_0_1213)"/>
<path d="M29.5197 43.1119C29.5197 43.1119 29.834 44.7891 29.6103 46.1524C29.4084 47.3846 27.1267 48.6648 26.6894 49.032C26.2521 49.3992 27.8489 49.7973 29.3141 49.6055C30.7788 49.4136 34.7905 48.1292 35.3998 47.4134C36.0097 46.6976 34.6898 47.0504 33.5804 46.9145C32.471 46.7792 31.4116 44.9181 31.3791 43.9689C31.3466 43.0191 29.5192 43.1119 29.5192 43.1119H29.5197Z" fill="url(#paint23_linear_0_1213)"/>
<path d="M29.9979 44.3632C29.9979 44.3632 31.1196 44.8562 32.1129 44.061C33.0024 43.3495 31.6799 41.1633 30.775 41.135C30.473 41.126 30.0325 41.3424 29.7726 41.6589C29.6192 41.846 29.6097 41.9707 29.3529 42.2713C29.1159 42.5484 29.0115 42.5735 28.9758 42.7083C28.9306 42.8767 29.0083 43.1582 29.6171 43.6421C29.3135 43.5861 29.052 43.6661 28.9508 43.843C28.9348 43.8713 28.9013 43.9597 28.9109 44.0509C28.9471 44.3808 29.378 44.5338 29.9979 44.3637V44.3632Z" fill="url(#paint24_linear_0_1213)"/>
<path d="M54.6443 38.53C54.6443 38.53 55.3234 38.4351 55.1119 37.1373C54.9458 36.1199 55.0715 35.7778 55.3117 35.9579C55.5519 36.138 55.5854 36.7264 55.5854 36.7264C55.5854 36.7264 56.4611 35.9792 56.8216 35.0002C57.1822 34.0211 57.4139 34.8456 57.4911 35.3354C57.5684 35.8252 56.9761 37.3452 56.6416 37.6288C56.3071 37.9123 55.8177 39.1616 55.8177 39.1616L54.6448 38.5311L54.6443 38.53Z" fill="url(#paint25_linear_0_1213)"/>
<path d="M56.4548 38.8774C55.682 38.3359 54.9097 37.7944 54.1369 37.2529C53.1968 43.0356 51.06 45.3049 49.2448 46.2979C44.8662 48.693 40.9584 44.425 32.5777 46.1667C30.2683 46.6464 26.2428 47.5407 24.0106 50.8328C23.4236 51.6984 23.2149 52.3534 22.2407 58.5613C20.9955 66.4972 20.9513 67.8818 21.1265 69.5905C21.4476 72.7174 21.6426 74.6126 23.0833 76.2899C26.9096 80.7438 35.0416 78.4473 36.061 78.1451C37.9443 77.5871 40.8721 76.7189 42.0348 74.2283C42.5823 73.0563 42.5238 71.9851 41.6828 67.7C40.0167 59.211 39.8037 58.6621 40.2687 57.7321C41.8383 54.595 46.8108 56.3901 51.0115 53.4726C53.4679 51.7671 56.2365 48.0497 56.4543 38.8763L56.4548 38.8774Z" fill="url(#paint26_linear_0_1213)"/>
<path style="mix-blend-mode:multiply" opacity="0.3" d="M32.2494 77.0121C33.0696 75.329 31.9677 73.7786 33.1762 71.756C34.717 69.1781 37.4893 70.0532 38.5321 68.1489C40.3159 64.8914 33.2944 60.3485 34.7213 55.1627C35.4025 52.6866 37.7812 50.8947 39.7683 50.2157C44.18 48.7085 47.0652 52.5506 51.2015 51.3493C52.1815 51.0647 53.3069 50.4748 54.4445 49.25C53.439 51.3733 52.1895 52.6562 51.0118 53.4743C46.8111 56.3917 41.8381 54.5967 40.269 57.7337C39.804 58.6632 40.0171 59.2127 41.6831 67.7017C42.5241 71.9873 42.5821 73.0586 42.0352 74.23C40.8719 76.7206 37.9447 77.5882 36.0613 78.1468C35.5032 78.3125 32.8135 79.073 29.866 78.999C31.181 78.4644 31.8888 77.755 32.2505 77.0126L32.2494 77.0121Z" fill="url(#paint27_linear_0_1213)"/>
<path d="M148.583 46.1522L104.618 45.4748C103.764 45.4615 103.07 46.1831 103.07 47.0865V72.4838C103.07 73.3872 103.763 74.1206 104.618 74.1222L148.583 74.1989C149.401 74.2005 150.065 73.4858 150.065 72.6026V47.774C150.065 46.8909 149.402 46.165 148.583 46.1522Z" fill="url(#paint28_linear_0_1213)"/>
<path d="M149.396 45.7459L105.431 45.0685C104.577 45.0552 103.883 45.7769 103.883 46.6802V72.0776C103.883 72.9809 104.576 73.7143 105.431 73.7159L149.396 73.7926C150.214 73.7942 150.877 73.0795 150.877 72.1964V47.3678C150.877 46.4847 150.215 45.7587 149.396 45.7459Z" fill="url(#paint29_linear_0_1213)"/>
<g style="mix-blend-mode:soft-light" opacity="0.3">
<path d="M105.852 71.6378V47.1523L148.994 47.7743V71.7561L105.852 71.6378Z" fill="white"/>
</g>
<path d="M149.288 77.0431L149.463 74.464C149.463 74.464 149.13 73.8884 149.028 72.5118C148.926 71.1357 149.242 71.7001 149.378 72.2789C149.416 72.4404 149.507 72.5811 149.618 72.7005C149.9 73.0005 150.405 72.8513 150.491 72.4489L150.85 70.7578C150.85 70.7578 151.771 71.8376 150.883 74.3223C150.605 75.0999 150.7 77.0282 150.7 77.0282L149.288 77.0436L149.288 77.0431Z" fill="url(#paint30_linear_0_1213)"/>
<path d="M104.011 76.0295L103.532 73.4739C103.532 73.4739 104.222 72.553 103.989 71.5489C103.756 70.5448 103.912 70.9072 103.628 71.5243C103.344 72.1415 102.939 71.0367 102.633 70.0342C102.326 69.0317 102.033 70.5208 102.064 71.4183C102.094 72.3158 102.092 72.8482 102.58 73.5347C103.068 74.2211 102.804 76.5262 102.804 76.5262L104.012 76.0295H104.011Z" fill="url(#paint31_linear_0_1213)"/>
<path d="M136.171 147.666C136.229 147.114 137.554 147.316 138.422 147.459C139.29 147.602 139.65 147.978 139.765 148.315C139.879 148.652 139.722 149.454 138.938 149.06C138.295 148.737 136.12 148.153 136.172 147.666L136.171 147.666Z" fill="#262648"/>
<path d="M137.922 145.631L138.397 147.817C138.397 147.817 138.99 148.287 139.209 148.088L139.145 145.602L137.922 145.631Z" fill="url(#paint32_linear_0_1213)"/>
<path d="M133.62 144.064L135.616 145.102L135.2 146.12L133.177 145.444L133.62 144.064Z" fill="url(#paint33_linear_0_1213)"/>
<path d="M133.229 148.098C133.229 148.098 134.575 148.546 135.237 147.777C135.662 147.282 136.046 146.42 136.267 145.866C136.387 145.566 136.253 145.226 135.962 145.086C135.539 144.883 134.96 144.656 134.699 144.781C134.261 144.99 134.549 146.594 134.337 146.993C134.125 147.391 133.211 147.594 133.229 148.099L133.229 148.098Z" fill="#262648"/>
<path d="M132.483 111.755C132.456 116.749 132.749 122.556 133.684 128.962C134.657 135.64 136.113 141.502 137.64 146.424C137.814 146.521 138.123 146.667 138.537 146.707C139.021 146.754 139.402 146.632 139.593 146.556C140.103 144.016 140.423 141.864 140.628 140.264C141.171 136.037 141.434 133.872 141.027 131.308C140.646 128.901 140.198 129.057 139.81 126.4C139.465 124.037 139.576 122.245 139.753 119.621C139.874 117.821 140.122 115.393 140.665 112.53C137.938 112.272 135.211 112.013 132.483 111.755V111.755Z" fill="url(#paint34_linear_0_1213)"/>
<path style="mix-blend-mode:multiply" opacity="0.3" d="M138.028 144.691C137.602 142.899 138.73 142.17 138.757 139.935C138.789 137.203 137.119 137.008 136.798 133.913C136.539 131.425 137.589 131.283 137.518 128.276C137.443 125.079 136.236 124.35 136.627 122.462C136.844 121.411 137.56 120.007 139.834 118.579C139.975 116.923 140.22 114.877 140.665 112.531C137.937 112.273 135.21 112.014 132.483 111.756C132.456 116.749 132.749 122.556 133.683 128.963C134.657 135.64 136.113 141.503 137.64 146.424C137.813 146.522 138.123 146.667 138.537 146.707C138.756 146.728 138.95 146.713 139.119 146.685C138.637 146.149 138.219 145.49 138.028 144.69L138.028 144.691Z" fill="url(#paint35_linear_0_1213)"/>
<path d="M125.876 110.427C125.696 111.619 125.377 113.42 124.81 115.57C123.532 120.419 122.34 121.919 121.836 125.112C121.249 128.835 122.071 131.853 122.383 133.001C124.518 140.837 131.564 144.896 133.434 145.899C133.7 145.207 133.965 144.516 134.231 143.823C133.79 143.141 133.143 142.047 132.559 140.616C131.562 138.174 131.579 136.776 130.948 134.395C129.809 130.098 128.687 130.62 128.572 128.463C128.39 125.046 131.215 123.864 134.119 117.552C134.952 115.744 135.471 114.209 135.763 113.264C132.468 112.318 129.172 111.373 125.877 110.427L125.876 110.427Z" fill="url(#paint36_linear_0_1213)"/>
<path d="M148.912 75.9806C149.616 75.9155 150.319 75.8505 151.022 75.7855C151.813 77.0742 154.066 81.1317 153.218 86.2913C153.017 87.5139 152.233 91.5628 148.563 94.5772C145.935 96.7357 143.139 97.2799 141.864 97.4467C141.452 103.494 141.307 107.316 141.36 109.613C141.366 109.889 141.424 112.214 140.909 115.171C140.753 116.072 140.671 116.528 140.53 116.77C138.572 120.13 128.888 116.704 126.3 115.37C125.627 115.023 124.951 114.558 124.7 113.799C124.377 112.824 124.806 111.99 125.008 111.248C125.504 109.427 124.501 107.958 122.544 104.227C121.717 102.648 120.52 100.283 119.143 97.224C117.281 97.6333 112.913 98.2957 108.837 95.9987C102.847 92.6234 99.8704 84.1994 102.272 75.4529C102.913 75.3159 103.554 75.179 104.194 75.042C104.493 76.7912 105.138 79.1634 106.622 81.6124C107.523 83.0983 108.273 84.3353 109.668 85.0937C111.858 86.2838 113.938 85.3676 116.923 84.8416C121.626 84.0128 125.465 84.702 130.128 85.5392C135.223 86.4538 136.558 87.6045 140.359 87.1498C142.049 86.9479 144.167 86.6675 145.991 85.1235C149.578 82.0862 149.001 76.7182 148.911 75.9806H148.912Z" fill="url(#paint37_linear_0_1213)"/>
<path d="M129.276 81.4365C129.276 81.4365 128.885 82.6485 129.281 83.2305C129.677 83.8125 130.981 86.0285 131.446 86.1639C131.71 86.2412 132.376 86.3888 132.9 86.5013C133.176 86.5605 133.209 86.9485 132.943 87.0428C132.402 87.2357 131.457 87.4026 129.865 87.2773C127.562 87.0961 125.768 86.0925 124.991 85.5835C124.881 85.5111 124.947 85.3405 125.078 85.3597L126.109 85.5079C126.993 85.6352 127.774 84.9269 127.735 84.0347L127.71 83.4538L129.276 81.4365Z" fill="url(#paint38_linear_0_1213)"/>
<path d="M128.157 83.8536C128.02 83.7657 126.871 83.5461 126.754 82.9119C126.594 82.0512 127.424 81.0732 127.53 80.9138C127.973 80.2471 128.079 80.1602 128.272 80.0552L128.537 79.9225C128.537 79.9225 128.552 79.9177 128.568 79.914C128.735 79.8708 129.288 79.9044 129.397 79.938C129.747 80.0467 129.995 81.5347 129.701 83.5808C129.708 83.6602 129.716 83.7406 129.722 83.8216C129.739 84.0316 128.141 83.9267 128.157 83.8542L128.157 83.8536Z" fill="url(#paint39_linear_0_1213)"/>
<path d="M127.343 79.7101C127.276 79.958 127.906 80.5037 128.176 80.7393C128.209 80.768 128.303 80.8635 128.384 81.0122C128.396 81.034 128.406 81.059 128.413 81.0905C128.516 81.5046 127.836 81.9187 127.943 82.1095C128.02 82.2481 128.469 82.1133 128.51 82.23C128.549 82.3403 128.169 82.5269 128.213 82.659C128.246 82.7587 128.476 82.691 128.602 82.8504C128.665 82.9298 128.639 82.9857 128.693 83.216C128.723 83.346 128.769 83.4894 128.808 83.5704C128.993 83.9642 129.604 84.1572 129.737 84.0186C129.775 83.9797 129.749 83.9424 129.796 83.8054C129.796 83.8054 129.839 83.6786 129.943 83.5368C130.091 83.3343 130.416 83.209 130.751 83.0113C131.369 82.6451 131.56 82.3025 131.618 82.1863C131.625 82.1735 131.63 82.1613 131.636 82.1501C131.646 82.1303 131.654 82.1106 131.662 82.0904C131.815 81.6906 131.345 80.9466 131.345 80.9466C130.967 80.3588 130.468 79.9479 130.065 79.6808C129.308 79.4778 128.681 79.4543 128.246 79.473C127.89 79.4879 127.396 79.513 127.343 79.7096V79.7101Z" fill="#262648"/>
<path d="M126.96 81.8106C126.96 81.8106 127.411 82.4331 128.107 81.7695L128.421 81.8858C128.421 81.8858 127.522 83.5544 127.354 83.5432C127.187 83.5321 126.706 83.3871 126.706 83.3871C126.528 83.2981 126.438 83.0945 126.494 82.9032C126.594 82.5546 126.83 82.052 126.961 81.81L126.96 81.8106Z" fill="#262648"/>
<path d="M128.249 81.9855C128.424 81.7852 128.681 82.0117 128.657 82.2893C128.634 82.567 128.339 82.8309 128.083 82.7525C127.827 82.6742 128.013 82.2552 128.249 81.9855Z" fill="url(#paint40_linear_0_1213)"/>
<path style="mix-blend-mode:multiply" opacity="0.3" d="M137.974 115.581C134.549 116.533 130.769 114.544 129.955 112.125C129.354 110.338 131.003 108.783 130.038 106.919C129.108 105.124 127.165 105.768 125.979 103.936C124.686 101.939 126.473 100.37 125.385 97.736C124.565 95.7544 122.411 93.8752 120.177 93.7271C117.523 93.5512 116.366 95.9287 114.119 95.2785C112.945 94.939 113.022 94.2211 111.438 92.9303C108.688 90.6902 106.693 91.415 104.411 89.8129C103.74 89.3423 103.004 88.6404 102.35 87.5479C103.526 91.2562 105.791 94.2813 108.838 95.9986C112.914 98.2956 117.282 97.6326 119.144 97.2238C120.521 100.283 121.718 102.649 122.545 104.226C124.502 107.958 125.505 109.426 125.009 111.248C124.807 111.99 124.378 112.824 124.701 113.799C124.952 114.558 125.628 115.023 126.301 115.37C128.889 116.704 138.573 120.13 140.531 116.77C140.672 116.528 140.753 116.072 140.91 115.171C141.008 114.61 141.085 114.071 141.146 113.565C140.397 114.401 139.368 115.193 137.974 115.58L137.974 115.581Z" fill="url(#paint41_linear_0_1213)"/>
<defs>
<linearGradient id="paint0_linear_0_1213" x1="49.7779" y1="123.924" x2="82.7606" y2="123.924" gradientUnits="userSpaceOnUse">
<stop stop-color="#355178"/>
<stop offset="1" stop-color="#3F416C"/>
</linearGradient>
<linearGradient id="paint1_linear_0_1213" x1="63.8555" y1="48.0105" x2="79.2667" y2="48.0105" gradientUnits="userSpaceOnUse">
<stop stop-color="#355178"/>
<stop offset="1" stop-color="#3F416C"/>
</linearGradient>
<linearGradient id="paint2_linear_0_1213" x1="87.9055" y1="23.19" x2="97.4601" y2="23.19" gradientUnits="userSpaceOnUse">
<stop stop-color="#355178"/>
<stop offset="1" stop-color="#3F416C"/>
</linearGradient>
<linearGradient id="paint3_linear_0_1213" x1="91.9583" y1="55.3419" x2="107.847" y2="55.3419" gradientUnits="userSpaceOnUse">
<stop stop-color="#355178"/>
<stop offset="1" stop-color="#3F416C"/>
</linearGradient>
<linearGradient id="paint4_linear_0_1213" x1="73.5307" y1="63.8477" x2="100.996" y2="140.853" gradientUnits="userSpaceOnUse">
<stop stop-color="#355178"/>
<stop offset="1" stop-color="#3F416C"/>
</linearGradient>
<linearGradient id="paint5_linear_0_1213" x1="84.3265" y1="-3.06473" x2="135.07" y2="32.7207" gradientUnits="userSpaceOnUse">
<stop stop-color="#355178"/>
<stop offset="1" stop-color="#3F416C"/>
</linearGradient>
<linearGradient id="paint6_linear_0_1213" x1="63.6966" y1="23.0365" x2="117.135" y2="60.7219" gradientUnits="userSpaceOnUse">
<stop stop-color="#355178"/>
<stop offset="1" stop-color="#3F416C"/>
</linearGradient>
<linearGradient id="paint7_linear_0_1213" x1="27.4238" y1="113.773" x2="16.4311" y2="176.836" gradientUnits="userSpaceOnUse">
<stop stop-color="#355178"/>
<stop offset="1" stop-color="#3F416C"/>
</linearGradient>
<linearGradient id="paint8_linear_0_1213" x1="76.3205" y1="69.9025" x2="89.422" y2="106.001" gradientUnits="userSpaceOnUse">
<stop stop-color="#CACDD2"/>
<stop offset="1" stop-color="#96999D"/>
</linearGradient>
<linearGradient id="paint9_linear_0_1213" x1="85.0745" y1="-3.43874" x2="135.818" y2="32.3467" gradientUnits="userSpaceOnUse">
<stop stop-color="#ACAFB4"/>
<stop offset="1" stop-color="#AAADB2"/>
</linearGradient>
<linearGradient id="paint10_linear_0_1213" x1="64.4446" y1="22.6622" x2="117.883" y2="60.3476" gradientUnits="userSpaceOnUse">
<stop stop-color="#ACAFB4"/>
<stop offset="1" stop-color="#AAADB2"/>
</linearGradient>
<linearGradient id="paint11_linear_0_1213" x1="28.1716" y1="114.507" x2="17.1789" y2="177.57" gradientUnits="userSpaceOnUse">
<stop stop-color="#90ACD7"/>
<stop offset="1" stop-color="#6B86B7"/>
</linearGradient>
<linearGradient id="paint12_linear_0_1213" x1="37.3793" y1="105.835" x2="39.9475" y2="105.398" gradientUnits="userSpaceOnUse">
<stop stop-color="#96999D"/>
<stop offset="1" stop-color="#CACDD2"/>
</linearGradient>
<linearGradient id="paint13_linear_0_1213" x1="40.5414" y1="94.3992" x2="37.8254" y2="119.19" gradientUnits="userSpaceOnUse">
<stop stop-color="#355178"/>
<stop offset="1" stop-color="#262648"/>
</linearGradient>
<linearGradient id="paint14_linear_0_1213" x1="45.5813" y1="83.3235" x2="23.4783" y2="101.467" gradientUnits="userSpaceOnUse">
<stop stop-color="#51637F"/>
<stop offset="1" stop-color="#464848"/>
</linearGradient>
<linearGradient id="paint15_linear_0_1213" x1="19.3409" y1="91.5726" x2="11.3239" y2="112.133" gradientUnits="userSpaceOnUse">
<stop stop-color="#355178"/>
<stop offset="1" stop-color="#262648"/>
</linearGradient>
<linearGradient id="paint16_linear_0_1213" x1="7.77342" y1="114.988" x2="10.8336" y2="115.276" gradientUnits="userSpaceOnUse">
<stop stop-color="#96999D"/>
<stop offset="1" stop-color="#CACDD2"/>
</linearGradient>
<linearGradient id="paint17_linear_0_1213" x1="55.7282" y1="98.8533" x2="28.4325" y2="89.6433" gradientUnits="userSpaceOnUse">
<stop stop-color="#51637F"/>
<stop offset="1" stop-color="#464848"/>
</linearGradient>
<linearGradient id="paint18_linear_0_1213" x1="27.4201" y1="83.2562" x2="11.6486" y2="114.856" gradientUnits="userSpaceOnUse">
<stop stop-color="#51637F"/>
<stop offset="1" stop-color="#464848"/>
</linearGradient>
<linearGradient id="paint19_linear_0_1213" x1="25.4485" y1="83.1236" x2="10.0048" y2="114.067" gradientUnits="userSpaceOnUse">
<stop stop-color="#51637F"/>
<stop offset="1" stop-color="#464848"/>
</linearGradient>
<linearGradient id="paint20_linear_0_1213" x1="37.1898" y1="50.401" x2="37.7823" y2="24.9402" gradientUnits="userSpaceOnUse">
<stop stop-color="#96999D"/>
<stop offset="1" stop-color="#CACDD2"/>
</linearGradient>
<linearGradient id="paint21_linear_0_1213" x1="40.1147" y1="33.4887" x2="39.7361" y2="38.9852" gradientUnits="userSpaceOnUse">
<stop stop-color="#96999D"/>
<stop offset="1" stop-color="#CACDD2"/>
</linearGradient>
<linearGradient id="paint22_linear_0_1213" x1="29.3095" y1="43.1199" x2="29.5006" y2="36.6306" gradientUnits="userSpaceOnUse">
<stop stop-color="#355178"/>
<stop offset="1" stop-color="#262648"/>
</linearGradient>
<linearGradient id="paint23_linear_0_1213" x1="30.3506" y1="37.1203" x2="32.1281" y2="63.7651" gradientUnits="userSpaceOnUse">
<stop stop-color="#96999D"/>
<stop offset="1" stop-color="#CACDD2"/>
</linearGradient>
<linearGradient id="paint24_linear_0_1213" x1="25.7728" y1="40.0705" x2="32.0685" y2="43.9298" gradientUnits="userSpaceOnUse">
<stop stop-color="#96999D"/>
<stop offset="1" stop-color="#CACDD2"/>
</linearGradient>
<linearGradient id="paint25_linear_0_1213" x1="55.4288" y1="38.6158" x2="54.3634" y2="42.0163" gradientUnits="userSpaceOnUse">
<stop stop-color="#96999D"/>
<stop offset="1" stop-color="#CACDD2"/>
</linearGradient>
<linearGradient id="paint26_linear_0_1213" x1="17.0525" y1="85.9306" x2="49.6259" y2="38.3846" gradientUnits="userSpaceOnUse">
<stop stop-color="#96999D"/>
<stop offset="1" stop-color="#CACDD2"/>
</linearGradient>
<linearGradient id="paint27_linear_0_1213" x1="44.9587" y1="49.5106" x2="38.3582" y2="83.8644" gradientUnits="userSpaceOnUse">
<stop stop-color="#96999D"/>
<stop offset="1" stop-color="#CACDD2"/>
</linearGradient>
<linearGradient id="paint28_linear_0_1213" x1="110.42" y1="37.4809" x2="157.969" y2="104.084" gradientUnits="userSpaceOnUse">
<stop stop-color="#355178"/>
<stop offset="1" stop-color="#3F416C"/>
</linearGradient>
<linearGradient id="paint29_linear_0_1213" x1="111.233" y1="37.0746" x2="158.782" y2="103.677" gradientUnits="userSpaceOnUse">
<stop stop-color="#8195C2"/>
<stop offset="1" stop-color="#56729A"/>
</linearGradient>
<linearGradient id="paint30_linear_0_1213" x1="150.389" y1="75.8659" x2="151.366" y2="89.4027" gradientUnits="userSpaceOnUse">
<stop stop-color="#CACDD2"/>
<stop offset="1" stop-color="#96999D"/>
</linearGradient>
<linearGradient id="paint31_linear_0_1213" x1="103.606" y1="79.2444" x2="104.584" y2="92.7806" gradientUnits="userSpaceOnUse">
<stop stop-color="#CACDD2"/>
<stop offset="1" stop-color="#96999D"/>
</linearGradient>
<linearGradient id="paint32_linear_0_1213" x1="137.466" y1="141.643" x2="139.743" y2="150.321" gradientUnits="userSpaceOnUse">
<stop stop-color="#CACDD2"/>
<stop offset="1" stop-color="#96999D"/>
</linearGradient>
<linearGradient id="paint33_linear_0_1213" x1="133.733" y1="142.653" x2="135.993" y2="151.267" gradientUnits="userSpaceOnUse">
<stop stop-color="#CACDD2"/>
<stop offset="1" stop-color="#96999D"/>
</linearGradient>
<linearGradient id="paint34_linear_0_1213" x1="145.624" y1="137.826" x2="133.26" y2="121.833" gradientUnits="userSpaceOnUse">
<stop stop-color="#355178"/>
<stop offset="1" stop-color="#3F416C"/>
</linearGradient>
<linearGradient id="paint35_linear_0_1213" x1="145.624" y1="137.826" x2="133.26" y2="121.834" gradientUnits="userSpaceOnUse">
<stop stop-color="#355178"/>
<stop offset="1" stop-color="#3F416C"/>
</linearGradient>
<linearGradient id="paint36_linear_0_1213" x1="129.385" y1="128.081" x2="109.882" y2="123.064" gradientUnits="userSpaceOnUse">
<stop stop-color="#355178"/>
<stop offset="1" stop-color="#3F416C"/>
</linearGradient>
<linearGradient id="paint37_linear_0_1213" x1="124.075" y1="66.2837" x2="133.323" y2="112.306" gradientUnits="userSpaceOnUse">
<stop stop-color="#51637F"/>
<stop offset="1" stop-color="#464848"/>
</linearGradient>
<linearGradient id="paint38_linear_0_1213" x1="128.515" y1="84.0991" x2="130.295" y2="90.8073" gradientUnits="userSpaceOnUse">
<stop stop-color="#CACDD2"/>
<stop offset="1" stop-color="#96999D"/>
</linearGradient>
<linearGradient id="paint39_linear_0_1213" x1="150.986" y1="167.527" x2="152.766" y2="174.236" gradientUnits="userSpaceOnUse">
<stop stop-color="#CACDD2"/>
<stop offset="1" stop-color="#96999D"/>
</linearGradient>
<linearGradient id="paint40_linear_0_1213" x1="196.212" y1="210.485" x2="201.315" y2="220.102" gradientUnits="userSpaceOnUse">
<stop stop-color="#CACDD2"/>
<stop offset="1" stop-color="#96999D"/>
</linearGradient>
<linearGradient id="paint41_linear_0_1213" x1="115.246" y1="68.0583" x2="124.494" y2="114.08" gradientUnits="userSpaceOnUse">
<stop stop-color="#51637F"/>
<stop offset="1" stop-color="#464848"/>
</linearGradient>
</defs>
</svg>
