<svg width="72" height="72" viewBox="0 0 72 72" fill="none" xmlns="http://www.w3.org/2000/svg">
<path fill-rule="evenodd" clip-rule="evenodd" d="M36 0C55.8818 0 72 16.1182 72 36C72 55.8818 55.8818 72 36 72C16.1182 72 0 55.8818 0 36C0 16.1182 16.1182 0 36 0ZM43.2229 25.2229C43.8191 24.6057 44.1489 23.779 44.1415 22.9209C44.134 22.0628 43.7898 21.2419 43.183 20.6351C42.5763 20.0283 41.7554 19.6842 40.8973 19.6767C40.0392 19.6692 39.2125 19.9991 38.5953 20.5953L25.5044 33.6862C24.8908 34.2999 24.5462 35.1322 24.5462 36C24.5462 36.8678 24.8908 37.7001 25.5044 38.3138L38.5953 51.4047C39.2125 52.0009 40.0392 52.3308 40.8973 52.3233C41.7554 52.3158 42.5763 51.9716 43.183 51.3649C43.7898 50.7581 44.134 49.9372 44.1415 49.0791C44.1489 48.221 43.8191 47.3943 43.2229 46.7771L32.4458 36L43.2229 25.2229Z" fill="#90ACD7"/>
</svg>
