<svg width="60" height="60" viewBox="0 0 60 60" fill="none" xmlns="http://www.w3.org/2000/svg">
<path fill-rule="evenodd" clip-rule="evenodd" d="M30 60C46.5682 60 60 46.5682 60 30C60 13.4318 46.5682 1.17425e-06 30 2.62268e-06C13.4318 4.07112e-06 -4.07112e-06 13.4318 -2.62268e-06 30C-1.17425e-06 46.5682 13.4318 60 30 60ZM36.0191 38.9809C36.5159 39.4953 36.7908 40.1842 36.7846 40.8993C36.7783 41.6144 36.4915 42.2984 35.9859 42.8041C35.4802 43.3097 34.7962 43.5965 34.0811 43.6027C33.366 43.609 32.6771 43.3341 32.1627 42.8373L21.2536 31.9282C20.7423 31.4167 20.4551 30.7232 20.4551 30C20.4551 29.2768 20.7423 28.5833 21.2536 28.0718L32.1627 17.1627C32.6771 16.6659 33.366 16.391 34.0811 16.3973C34.7962 16.4035 35.4802 16.6903 35.9859 17.196C36.4915 17.7016 36.7783 18.3856 36.7846 19.1007C36.7908 19.8158 36.5159 20.5047 36.0191 21.0191L27.0382 30L36.0191 38.9809Z" fill="#739EEE"/>
</svg>
