<svg width="320" height="543" viewBox="0 0 320 543" fill="none" xmlns="http://www.w3.org/2000/svg">
<path d="M259.695 42.8494H59.4253C26.6056 42.8494 0 69.4604 0 102.287V421.258C0 454.084 26.6056 480.695 59.4253 480.695H259.695C292.515 480.695 319.12 454.084 319.12 421.258V102.287C319.12 69.4604 292.515 42.8494 259.695 42.8494Z" fill="#A9BAE6"/>
<path d="M291.505 60.4868H28.8442V442.108H291.505V60.4868Z" fill="#F6F5F5"/>
<path d="M291.506 60.5031C291.588 209.309 296.39 388.785 279.673 428.535C206.055 435.715 119.867 438.01 28.8281 438.436L63.4246 61.6505L291.489 60.5031H291.506Z" fill="#E4E4E4"/>
<path d="M267.906 416.503C153.169 434.862 76.4865 435.846 14.2915 431.223C22.3547 345.411 25.5833 202.85 28.8283 60.5188L167.083 60.8303L292.211 69.0918C294.03 216.816 294.226 353.263 267.89 416.503H267.906Z" fill="white"/>
<path d="M253.999 150.465L129.365 147.527L129.138 157.163L253.772 160.1L253.999 150.465Z" fill="#708CD5"/>
<path d="M213.587 170.538L128.865 168.541L128.638 178.176L213.36 180.173L213.587 170.538Z" fill="#D3DFFF"/>
<path d="M90.0935 147.17L60.5857 146.475L59.8903 175.988L89.3981 176.684L90.0935 147.17Z" fill="white" stroke="#708CD5" stroke-width="6" stroke-miterlimit="10"/>
<path d="M65.4072 154.231C66.3249 157.723 67.9966 172.328 75.3223 168.246C77.0104 167.312 78.4362 164.821 79.6981 163.378L86.4994 155.657L100.118 140.2C101.282 138.872 96.1523 135.561 94.6937 137.233L82.5989 150.969C80.5831 153.264 78.5673 155.543 76.5515 157.838C75.1584 159.428 71.9135 164.558 69.8321 165.001C70.9629 165.361 72.0937 165.738 73.2246 166.099C74.0276 166.755 72.5362 162.116 72.5035 161.985L70.8154 155.526C70.3566 153.74 64.7352 151.609 65.4236 154.248L65.4072 154.231Z" fill="#EE6F57"/>
<path d="M230.721 203.602L128.091 201.183L127.864 210.818L230.494 213.238L230.721 203.602Z" fill="#708CD5"/>
<path d="M252.24 225.133L127.606 222.196L127.379 231.831L252.013 234.769L252.24 225.133Z" fill="#D3DFFF"/>
<path d="M88.8305 200.81L59.3228 200.114L58.6274 229.628L88.1352 230.323L88.8305 200.81Z" fill="white" stroke="#708CD5" stroke-width="6" stroke-miterlimit="10"/>
<path d="M64.1125 208.719C65.0303 212.211 66.7019 226.816 74.0276 222.734C75.7157 221.8 77.1415 219.308 78.4034 217.866C80.6651 215.292 82.9431 212.719 85.2047 210.145L98.8237 194.688C99.9873 193.36 94.8576 190.049 93.3991 191.721C89.3674 196.294 85.3358 200.884 81.3042 205.457C79.2884 207.752 77.2726 210.03 75.2568 212.325C73.8638 213.915 70.6188 219.046 68.5374 219.489L71.9299 220.587C72.7329 221.243 71.2416 216.604 71.2088 216.472L69.5208 210.014C69.0619 208.227 63.4406 206.096 64.1289 208.735L64.1125 208.719Z" fill="#EE6F57"/>
<path d="M251.472 257.759L126.838 254.821L126.611 264.457L251.245 267.395L251.472 257.759Z" fill="#708CD5"/>
<path d="M182.068 277.149L126.329 275.835L126.102 285.471L181.841 286.785L182.068 277.149Z" fill="#D3DFFF"/>
<path d="M87.5669 254.482L58.0591 253.787L57.3637 283.301L86.8715 283.996L87.5669 254.482Z" fill="white" stroke="#708CD5" stroke-width="6" stroke-miterlimit="10"/>
<path d="M63.2602 262.747C64.178 266.238 65.8496 280.844 73.1754 276.762C74.8634 275.828 76.2892 273.336 77.5511 271.894L84.3524 264.173L97.9714 248.715C99.135 247.388 94.0054 244.076 92.5468 245.748L80.4519 259.485L74.4045 266.353C73.0115 267.943 69.7665 273.074 67.6852 273.516L71.0776 274.615C71.8807 275.27 70.3893 270.631 70.3565 270.5L68.6685 264.042C68.2096 262.255 62.5883 260.124 63.2766 262.763L63.2602 262.747Z" fill="#EE6F57"/>
<path d="M250.208 311.414L125.574 308.476L125.347 318.112L249.981 321.05L250.208 311.414Z" fill="#708CD5"/>
<path d="M223.523 331.81L125.071 329.489L124.844 339.125L223.296 341.446L223.523 331.81Z" fill="#D3DFFF"/>
<path d="M86.3035 308.137L56.7957 307.441L56.1003 336.955L85.6081 337.651L86.3035 308.137Z" fill="white" stroke="#708CD5" stroke-width="6" stroke-miterlimit="10"/>
<path d="M61.9985 316.053C62.9162 319.545 64.5879 334.15 71.9136 330.068C73.6017 329.134 75.0275 326.643 76.2894 325.2L83.0907 317.479C87.6304 312.332 92.17 307.169 96.7097 302.022C97.8733 300.694 92.7436 297.383 91.285 299.055L79.1902 312.791C77.1744 315.086 75.1586 317.365 73.1428 319.66C71.7497 321.25 68.5048 326.38 66.4234 326.823L69.8159 327.921C70.6189 328.577 69.1276 323.938 69.0948 323.807L67.4067 317.348C66.9479 315.562 61.3266 313.431 62.0149 316.07L61.9985 316.053Z" fill="#EE6F57"/>
<path d="M173.707 362.904L124.309 361.74L124.082 371.376L173.48 372.54L173.707 362.904Z" fill="#708CD5"/>
<path d="M248.469 385.671L123.833 382.737L123.603 392.375C171.819 393.506 233.227 395.769 245.748 393.851C247.649 391.687 248.682 389.031 248.469 385.688V385.671Z" fill="#D3DFFF"/>
<path d="M85.4426 361.393L55.9348 360.698L55.2394 390.211L84.7472 390.907L85.4426 361.393Z" fill="white" stroke="#708CD5" stroke-width="6" stroke-miterlimit="10"/>
<path d="M60.7529 368.885C61.6707 372.376 63.3423 386.981 70.668 382.9C72.3561 381.965 73.7819 379.474 75.0438 378.031L81.8451 370.311C86.3848 365.164 90.9244 360 95.4641 354.853C96.6277 353.525 91.498 350.214 90.0394 351.886C86.0078 356.459 81.9762 361.049 77.9446 365.623C75.9288 367.917 73.913 370.196 71.8972 372.491C70.5041 374.081 67.2592 379.212 65.1778 379.654C66.3086 380.015 67.4395 380.392 68.5703 380.752C69.3733 381.408 67.882 376.769 67.8492 376.638C67.292 374.491 66.7184 372.327 66.1611 370.18C65.7023 368.393 60.0809 366.262 60.7693 368.901L60.7529 368.885Z" fill="#EE6F57"/>
<path d="M218.707 45.5041V74.9605H100.397V45.5041C100.397 40.7996 102.299 36.5541 105.38 33.4724C105.757 33.0954 106.166 32.7348 106.576 32.3905C109.51 29.9481 113.295 28.4892 117.409 28.4892C120.49 28.4892 123.456 27.7844 126.111 26.5058C127.258 25.9485 128.357 25.2928 129.389 24.5388C132.765 22.0308 135.354 18.4738 136.649 14.2446C137.96 9.91714 140.648 6.29451 144.139 3.78654C147.482 1.37692 151.563 0 155.89 0H163.281C167.607 0 171.688 1.39331 175.031 3.78654C178.506 6.29451 181.194 9.91714 182.521 14.2446C183.816 18.4901 186.405 22.0308 189.781 24.5388C190.814 25.2928 191.895 25.9485 193.059 26.5058C195.714 27.7844 198.664 28.4892 201.761 28.4892C205.875 28.4892 209.661 29.9481 212.594 32.3905C216.38 35.505 218.773 40.2259 218.773 45.5041H218.707Z" fill="#EE6F57"/>
<path d="M228.311 60.4868V82.3865H90.7935V60.4868H100.397V74.9609H218.707V60.4868H228.311Z" fill="#E4E4E4"/>
<path d="M159.56 27.6208C165.353 27.6208 170.049 23.1514 170.049 17.6381C170.049 12.1248 165.353 7.6554 159.56 7.6554C153.767 7.6554 149.072 12.1248 149.072 17.6381C149.072 23.1514 153.767 27.6208 159.56 27.6208Z" fill="white"/>
<path d="M200.302 370.741C202.514 370.331 204.579 366.626 205.284 365.217C205.464 364.872 205.513 364.479 205.448 364.102L204.563 359.447C204.563 359.447 202.531 359.791 202.695 362.496C202.695 362.774 202.645 363.053 202.547 363.315L201.777 365.348L199.482 363.577L200.744 360.02C200.744 360.02 202.432 360.479 203.301 360.201C205.087 359.627 202.744 358.234 202.006 358.086C201.269 357.939 199.646 357.348 198.892 358.611C198.155 359.873 197.712 360.61 197.712 360.61C197.712 360.61 196.893 357.791 197.45 351.513C197.483 351.234 196.762 351.234 196.565 351.431C195.975 352.037 195.025 353.89 194.975 359.496C194.975 359.496 194.877 352.955 193.746 352.283C192.829 351.726 192.353 354.939 193.009 360.365C193.009 360.365 191.796 355.66 190.944 355.66C189.485 355.66 190.927 368.216 194.582 371.97L200.302 370.757V370.741Z" fill="#F9B384"/>
<path d="M193.37 368.823C193.435 369.446 193.501 370.052 193.583 370.643C193.845 372.741 194.173 374.593 194.55 376.2C194.566 376.281 194.583 376.347 194.599 376.429C195.713 381.002 195.91 383.232 199.729 382.642L203.646 378.183L203.678 378.134L203.957 377.806L203.154 375.462L203.056 375.15L202.466 373.446L202.4 373.216L201.4 370.282L200.991 369.085L193.354 368.823H193.37Z" fill="#F9B384"/>
<path d="M266.136 531.179L267.136 534.293C273.97 536.539 277.952 539.112 278.215 542.112H258.45L256.86 531.671C260.859 532.654 264.071 531.966 266.136 531.162V531.179Z" fill="#1F3C88"/>
<path d="M263.661 523.426L266.136 531.179C264.071 531.982 260.858 532.654 256.86 531.687L255.844 524.95L263.661 523.426Z" fill="#F9B384"/>
<path d="M229.868 530.835L229.294 522.95L238.587 523.442L239.095 530.72C235.161 531.966 231.916 531.49 229.884 530.851L229.868 530.835Z" fill="#F9B384"/>
<path d="M218.691 542.112C218.953 539.112 222.444 534.998 230.097 534.015L229.868 530.818C231.9 531.457 235.145 531.949 239.078 530.687L239.881 542.096H218.707L218.691 542.112Z" fill="#1F3C88"/>
<path d="M237.39 372.758L248.583 372.84V355.891H237.717V356.94L237.668 362.3L237.586 370.922L237.39 372.758Z" fill="#F9B384"/>
<path d="M237.668 363.119C239.684 365.233 244.928 362.84 247.157 360.512L237.734 357.742L237.685 363.119H237.668Z" fill="#E28B6D"/>
<path d="M235.062 351.989C235.062 353.235 235.144 354.546 235.357 355.808C235.898 359.218 237.357 362.168 240.684 362.267C248.567 362.496 250.812 357.988 252.303 354.3C253.795 350.612 251.386 341.727 251.386 341.727L241.175 340.711L235.571 345.301C235.571 345.301 235.03 348.415 235.062 351.989Z" fill="#F9B384"/>
<path d="M251.992 352.17C251.992 352.17 249.747 352.071 249.353 346.252C245.338 347.596 242.388 346.367 240.061 343.695C238.078 346.318 232.506 347.137 230.637 341.761C229.277 337.876 233.03 332.09 238.488 335.597C243.83 332.893 251.943 333.073 254.286 339.712C254.286 339.712 262.399 343.449 253.811 351.694C253.631 351.858 251.992 352.17 251.992 352.17Z" fill="#102048"/>
<path d="M220.969 433.696L227.164 527.343H241.717L238.079 436.466L235.85 435.433L220.969 433.696Z" fill="#102048"/>
<path d="M258.876 420.878L269.086 527.344H253.222L238.128 438.925L220.969 433.696L220.215 414.797L258.434 413.928L258.876 420.878Z" fill="#1F3C88"/>
<path opacity="0.6" d="M256.598 421.123C247.945 424.238 227.623 420.681 223.395 416.353L226.394 410.354L259.81 414.796L256.598 421.123Z" fill="#102048"/>
<path d="M224.18 414.868C224.459 414.983 224.754 415.114 225.033 415.212C228.278 416.524 231.965 417.688 235.882 418.442C238.226 418.901 240.667 419.212 243.159 419.327C246.912 419.523 250.763 419.261 254.581 418.409L249.73 373.134L249.14 367.61C249.14 367.61 242.782 375.429 235.784 366.791L224.164 414.852L224.18 414.868Z" fill="white"/>
<path opacity="0.3" d="M243.175 419.343C246.928 419.54 250.779 419.278 254.598 418.425L249.746 373.151L248.009 370.643C243.732 381.052 239.34 404.115 243.175 419.343Z" fill="#1F3C88"/>
<path d="M248.583 365.84C243.748 386.346 241.765 407.426 248.878 430.85C254.155 432.85 259.891 432.834 266.037 431.063L264.513 388.477L300.306 413.082L302.485 399.673C288.735 386.51 264.939 366.643 248.583 365.84Z" fill="#708CD5"/>
<path opacity="0.3" d="M225.032 415.229C228.277 416.541 231.965 417.704 235.882 418.458C238.045 406.083 238.52 385.773 236.767 376.593L225.032 415.229Z" fill="#1F3C88"/>
<path opacity="0.6" d="M194.55 376.184C194.55 376.184 194.583 376.331 194.599 376.413C195.714 380.986 195.91 383.216 199.729 382.626L203.646 378.167L203.679 378.118L203.17 375.446L203.072 375.134L202.482 373.43L202.417 373.2L194.55 376.184Z" fill="#E28B6D"/>
<path d="M195.238 380.347C195.238 380.347 204.842 400.722 210.545 401.197C216.068 401.673 218.69 396.313 218.69 396.313L214.774 426.08C219.362 428.228 224.377 429.277 230.195 428.244C235.358 411.459 237.324 389.756 237.701 365.594C233.522 365.856 225.23 366.217 222.263 368.118C216.937 371.544 210.365 383.756 210.365 383.756L202.712 373.331L195.222 380.33L195.238 380.347Z" fill="#708CD5"/>
<path d="M312.401 351.645C312.401 351.645 311.827 341.908 310.827 342.367C309.844 342.826 307.845 351.3 307.845 351.3L309.975 354.726L312.401 351.645Z" fill="#6F3428"/>
<path d="M283.147 527.595L282.852 530.808C282.344 536.463 286.523 541.463 292.177 541.987L292.996 542.069C298.65 542.578 303.649 538.398 304.173 532.742L304.468 529.53L283.147 527.612V527.595Z" fill="#EE6F57"/>
<path d="M297.074 372.257L283.137 527.536L304.455 529.451L318.392 374.171L297.074 372.257Z" fill="#FBC343"/>
<path opacity="0.3" d="M291.997 505.947L299.571 506.627L311.788 370.514L304.214 369.834L291.997 505.947Z" stroke="#6F3428" stroke-width="8" stroke-miterlimit="10"/>
<path d="M283.163 527.596L304.469 529.514L305.026 523.252L305.419 518.908L306.632 505.532L285.31 503.631L284.114 516.99L283.721 521.334L283.163 527.596Z" fill="#102048"/>
<path d="M284.131 517.044L283.74 521.387L305.058 523.305L305.448 518.962L284.131 517.044Z" fill="#FBC343"/>
<path d="M318.432 374.216L312.516 350.481C312.516 350.481 310.467 351.382 307.992 349.858L297.11 372.298L318.432 374.216Z" fill="#EE6F57"/>
<path d="M250.812 351.187C250.91 350.843 252.5 350.351 252.844 350.253C253.385 350.105 253.975 350.023 254.499 350.253C256.417 351.121 256.171 353.875 255.171 355.334C254.614 356.154 253.778 356.793 252.811 357.055C252.467 357.154 249.157 357.203 249.304 356.662L250.795 351.17L250.812 351.187Z" fill="#F9B384"/>
<path d="M311.385 406.601C311.893 405.027 313.532 404.142 315.089 404.683C317.515 405.519 319.629 406.945 319.957 409.354C320.252 411.551 319.153 418.583 314.237 419.485L314.63 415.878C314.63 415.878 311.615 415.174 311.025 413.879C310.599 412.961 310.582 409.158 311.385 406.601Z" fill="#F9B384"/>
<path d="M220.198 382.397C219.936 383.937 219.722 385.478 219.509 387.019C219.296 388.56 219.116 390.117 218.919 391.658L218.411 396.313C218.264 397.871 218.116 399.411 218.018 400.969L218.264 401.002C218.526 399.461 218.756 397.92 218.969 396.379L219.542 391.74C219.706 390.183 219.886 388.642 220.034 387.085C220.181 385.527 220.329 383.987 220.427 382.429L220.181 382.397H220.198Z" fill="#1F3C88"/>
<path d="M264.022 382.134C264.022 383.855 264.071 385.593 264.12 387.314C264.169 389.035 264.251 390.756 264.317 392.494L264.595 397.674C264.71 399.395 264.825 401.116 264.988 402.837H265.251C265.251 401.1 265.218 399.378 265.169 397.641L264.956 392.461C264.857 390.74 264.775 389.019 264.661 387.298C264.546 385.576 264.431 383.855 264.267 382.134H264.005H264.022Z" fill="#1F3C88"/>
<path d="M242.896 351.038C242.765 351.645 243.011 352.235 243.453 352.333C243.896 352.431 244.387 352.022 244.518 351.399C244.649 350.792 244.404 350.202 243.961 350.104C243.519 350.005 243.027 350.415 242.896 351.038Z" fill="#102048"/>
<path d="M236.406 350.268C236.439 350.891 236.832 351.399 237.291 351.366C237.75 351.35 238.111 350.825 238.078 350.186C238.045 349.563 237.652 349.055 237.193 349.088C236.734 349.104 236.374 349.629 236.406 350.268Z" fill="#102048"/>
<path d="M240.028 350.793C239.799 351.334 239.848 351.908 239.7 352.35C239.635 352.58 239.52 352.777 239.389 352.891C239.258 353.006 239.045 353.088 238.783 353.186C238.504 353.301 238.209 353.481 238.012 353.76C237.799 354.039 237.734 354.514 237.93 354.826C238.111 355.137 238.356 355.317 238.569 355.465C238.799 355.612 239.012 355.776 239.241 355.924L239.405 355.727C239.241 355.514 239.045 355.317 238.864 355.121C238.684 354.924 238.504 354.744 238.438 354.58C238.307 354.285 238.602 353.94 239.028 353.777C239.241 353.678 239.569 353.58 239.815 353.318C240.061 353.072 240.192 352.744 240.241 352.449C240.356 351.842 240.241 351.334 240.29 350.826L240.044 350.76L240.028 350.793Z" fill="#E28B6D"/>
<path d="M246.011 349.383C245.912 348.989 245.683 348.629 245.339 348.367C245.011 348.088 244.585 347.94 244.159 347.924C243.306 347.875 242.454 348.367 242.11 349.071L242.307 349.235C242.88 348.793 243.503 348.547 244.126 348.563C244.765 348.58 245.339 348.908 245.765 349.481L245.994 349.367L246.011 349.383Z" fill="#102048"/>
<path d="M239.291 348.579C239.192 348.284 239.028 347.989 238.783 347.76C238.537 347.514 238.209 347.366 237.865 347.301C237.16 347.186 236.406 347.546 236.144 348.169L236.341 348.317C236.8 348.005 237.291 347.874 237.767 347.94C237.996 347.973 238.225 348.055 238.455 348.186C238.668 348.317 238.865 348.514 239.094 348.71L239.307 348.579H239.291Z" fill="#102048"/>
<path d="M242.896 357.103C241.766 358.89 240.241 359.07 239.078 357.201L242.896 357.103Z" fill="white"/>
<path opacity="0.4" d="M235.03 351.546C235.03 352.792 235.145 354.546 235.358 355.792C236.144 355.53 236.718 354.808 236.718 353.923C236.718 352.94 235.964 351.694 235.03 351.546Z" fill="#FC8879"/>
<path opacity="0.4" d="M245.665 357.185C246.824 357.185 247.763 356.245 247.763 355.086C247.763 353.928 246.824 352.988 245.665 352.988C244.507 352.988 243.568 353.928 243.568 355.086C243.568 356.245 244.507 357.185 245.665 357.185Z" fill="#FC8879"/>
<path d="M252.189 353.284C252.599 353.005 252.992 352.694 253.369 352.513C253.549 352.415 253.729 352.366 253.893 352.382C254.057 352.382 254.237 352.48 254.434 352.628L254.647 352.497C254.565 352.235 254.369 351.94 254.024 351.825C253.68 351.71 253.336 351.808 253.074 351.94C252.549 352.218 252.205 352.644 251.976 353.136L252.173 353.284H252.189Z" fill="#E28B6D"/>
<path opacity="0.6" d="M311.024 413.879L314.056 423.074L314.679 415.895C312.794 415.485 311.778 414.731 311.024 413.879Z" fill="#6F3428"/>
</svg>
