<svg width="247" height="178" viewBox="0 0 247 178" fill="none" xmlns="http://www.w3.org/2000/svg">
<g filter="url(#filter0_d_22_1893)">
<path d="M97.3379 1.19586C94.2913 1.2869 91.0856 1.4007 88.4937 2.97117C85.5608 4.74649 83.8784 8.00123 82.6052 11.1877C81.7412 13.3499 80.9455 15.5577 80.6272 17.8793C79.9224 23.0231 81.7412 28.5084 85.5381 32.0363C89.3349 35.5641 95.0643 36.9753 99.9979 35.382C101.976 34.7447 103.772 33.6978 105.545 32.628C107.955 31.1714 110.456 29.5554 111.843 27.0972C112.73 25.5723 113.116 23.797 113.23 22.0217C113.617 16.9006 111.866 11.6657 108.501 7.81916C105.136 3.97264 100.157 1.53726 97.3151 1.1731L97.3379 1.19586Z" fill="#A9BAE6"/>
<path d="M95.0187 37.567C94.6549 37.567 94.2912 37.567 93.9274 37.5215C91.9494 37.3849 90.1305 36.9525 88.5618 36.2014C85.2424 34.6309 82.4459 31.3989 80.718 27.1427C77.7169 19.6773 78.74 11.3015 83.3781 5.79343C88.5163 -0.329129 97.9516 -1.85406 103.999 2.44766C110.365 6.97699 115.685 15.3983 113.184 24.0245C110.934 31.8086 103.09 37.567 95.0187 37.567ZM95.9281 1.81035C91.8357 1.81035 87.5842 3.60844 84.7877 6.97698C80.6498 11.8932 79.7176 19.7456 82.4232 26.4599C83.9692 30.3064 86.4246 33.1742 89.3575 34.5626C90.7217 35.1999 92.2904 35.5869 94.0638 35.7007C101.657 36.2014 109.319 30.8527 111.434 23.5011C113.685 15.7625 108.796 8.09224 102.953 3.94984C100.93 2.51593 98.4745 1.81035 95.9509 1.81035H95.9281Z" fill="#A9BAE6"/>
<g opacity="0.13">
<path d="M108.569 19.0172C108.024 19.3814 107.592 19.8366 107.342 20.4284V20.4739C105.841 23.2734 105.182 23.9107 102.044 26.6647C101.635 26.9606 100.293 27.9393 99.816 28.1669C99.043 28.5538 99.0203 28.6676 96.5194 29.1911C94.5869 29.5098 93.5865 29.487 90.4263 28.7359C89.6987 28.44 89.3577 28.3035 90.2898 28.6904C88.471 28.0759 86.834 26.3006 84.8106 26.824C82.2869 27.4386 81.8095 31.1258 84.083 32.3776C89.1758 35.1999 94.9279 37.7946 102.021 34.6992C106.614 32.719 112.798 26.3688 112.957 21.1795C112.844 19.131 110.252 17.9475 108.569 19.0172Z" fill="#A9BAE6"/>
</g>
</g>
<g filter="url(#filter1_d_22_1893)">
<path d="M49.6776 77.1284C51.2492 70.6985 48.7894 63.7213 44.553 58.8647C41.1366 54.9657 36.5244 52.1954 31.5705 51.1352C26.6167 50.1091 21.2871 50.8273 16.7774 53.2898C15.0009 54.2475 13.3268 55.4788 11.8578 56.9494C9.2271 59.5488 7.27973 62.8663 6.22064 66.4917C4.03413 73.8108 5.81066 82.1902 10.457 87.9703C15.1033 93.7503 22.517 96.8969 29.8623 96.1103C34.3037 95.2894 38.9159 94.366 42.5373 91.493C46.8078 88.1413 49.0285 82.498 49.7118 77.1284H49.6776Z" fill="#D3DFFF"/>
<path d="M27.437 97.7861C24.943 97.7861 22.4831 97.4098 20.2283 96.6574C8.61243 92.7584 1.43793 78.5647 4.85436 66.3548C6.56258 60.1985 10.9698 54.863 16.9144 51.7165C22.3123 48.8436 28.4277 48.2279 33.689 49.9722C37.5838 51.2718 41.3077 53.7686 45.0657 57.5308C46.6714 59.1382 48.653 61.3613 49.8829 64.1659C52.4794 70.1512 50.9078 77.2309 49.7804 82.3953C48.6872 87.2862 45.3049 91.5613 40.2486 94.4343C36.3538 96.6232 31.81 97.7861 27.437 97.7861ZM27.5394 51.7165C24.4305 51.7165 21.1849 52.5373 18.2126 54.1106C12.9513 56.9151 9.05657 61.6349 7.51917 67.073C4.51271 77.7781 11.0039 90.6379 21.1166 94.0239C26.617 95.8708 33.4499 95.1183 38.9162 92.006C43.2892 89.5435 46.2273 85.8839 47.1156 81.7797C48.4822 75.555 49.4729 70.0143 47.3889 65.2261C46.569 63.345 45.2707 61.5665 43.1525 59.446C39.7019 55.9917 36.3538 53.7343 32.8349 52.5373C31.1609 51.9901 29.3843 51.6823 27.5736 51.6823L27.5394 51.7165Z" fill="#A9BAE6"/>
<g opacity="0.13">
<path d="M47.3552 69.2962C46.0911 68.6464 44.3829 69.0568 43.3921 70.0487C42.7772 70.7327 42.3672 71.5877 42.333 72.5454C42.2989 72.819 42.2647 73.1268 42.2305 73.4004C42.2305 73.6056 42.0255 74.8027 41.8889 75.3499C40.9323 79.3515 39.839 80.8221 38.0283 82.84C35.9101 85.3025 31.5713 87.252 29.5556 88.0729C27.8474 88.8595 25.7292 88.6885 24.2601 89.9198C20.5362 92.6901 23.5768 98.8806 27.984 97.581C33.9286 96.5549 39.7365 93.9214 43.7679 89.2358C46.5352 85.6104 46.7061 84.0029 47.7993 81.5062C48.6876 79.2831 49.1659 76.9574 49.405 74.5975C49.7808 72.6138 49.4734 70.0144 47.321 69.2962H47.3552Z" fill="#A9BAE6"/>
</g>
</g>
<g filter="url(#filter2_d_22_1893)">
<path d="M172.636 74.9871C164.747 77.6273 157.767 83.2036 154.038 90.6235C150.309 98.0662 150.082 107.307 154.038 114.636C159.79 125.288 174.045 130.045 185.345 125.72C197.645 121.031 205.148 106.214 201.533 93.5368C197.918 80.8593 183.435 71.3682 172.636 74.9871ZM187.596 108.263C186.482 110.858 183.981 113.27 181.457 114.499C175.705 117.321 169.18 114.886 165.77 109.674C162.268 104.303 162.791 97.0647 166.384 91.8526C168.18 89.2579 170.453 87.2322 173.636 86.6404C176.569 86.0942 179.479 86.6404 181.798 88.484C183.299 88.7344 184.708 89.3717 185.891 90.3504C188.164 92.2395 189.142 95.995 189.324 98.84C189.528 101.958 188.824 105.395 187.619 108.263H187.596Z" fill="#F8FBFE"/>
</g>
<g filter="url(#filter3_d_22_1893)">
<path d="M231.157 98.5896C227.883 97.5881 224.723 95.8811 222.563 93.2181C219.562 89.5081 218.835 84.2505 220.062 79.6301C221.29 75.0097 224.291 71.0039 227.951 67.9085C224.723 62.7646 221.222 57.9622 217.561 53.2735C213.128 56.5738 208.854 59.692 203.92 59.9423C199.168 60.1927 194.553 57.5753 191.575 53.8425C188.596 50.1098 187.141 45.3757 186.55 40.6415C186.391 40.1863 186.141 40.0952 185.959 40.0952C180.957 39.7311 175.978 39.3441 170.976 38.98C170.067 43.6459 167.952 47.811 164.678 50.8382C161.404 53.8653 156.994 55.6634 152.56 55.5268C150.741 55.4585 148.945 55.0944 147.149 54.7074C144.239 54.0701 141.147 53.2735 139.101 51.1113C135.122 53.8198 131.575 56.6876 128.12 59.692C129.87 60.8983 130.62 62.5598 131.257 64.1758C132.598 67.6354 133.599 71.4136 132.758 75.0098C131.894 78.7425 129.074 81.8379 125.732 83.6815C122.367 85.5251 118.502 86.2534 114.683 86.481C113.614 91.9435 113.114 97.7929 112.932 103.642C116.183 104.803 119.275 105.805 122.049 107.421C124.823 109.037 127.301 111.358 128.551 114.34C129.938 117.686 129.62 121.6 128.165 124.901C126.71 128.224 124.209 131 121.39 133.276C124.8 138.807 128.074 143.928 131.439 149.004C136.645 145.59 143.193 144.52 148.877 146.364C150.287 146.819 151.674 147.456 152.833 148.389C154.288 149.55 155.357 151.143 156.198 152.805C158.221 156.788 158.972 161.408 158.335 165.824C164.406 167.03 170.271 167.804 176.16 168.282C175.796 162.137 178.456 155.991 183.299 152.623C188.141 149.254 195.076 149.027 199.941 152.35C202.26 153.92 204.034 156.151 205.739 158.358C211.059 154.603 216.311 150.756 221.222 146.546C218.471 142.267 215.674 137.965 215.561 133.14C215.447 128.11 218.471 123.307 222.677 120.599C226.906 117.868 232.135 117.048 237.137 117.572C238.842 111.722 240.297 106.032 241.525 100.274C237.864 99.9779 234.408 99.6365 231.135 98.6578L231.157 98.5896ZM199.805 111.426C197.781 115.91 194.485 119.78 190.529 122.67C188.232 124.354 185.686 125.743 182.958 126.63C171.795 130.204 158.722 123.922 153.538 113.407C149.764 105.736 149.923 96.2452 153.97 88.7115C158.017 81.1778 165.815 75.8064 174.296 74.7139C181.889 73.7352 191.506 77.8548 196.986 85.2519C202.465 92.6491 203.579 103.051 199.782 111.449L199.805 111.426Z" fill="#A9BAE6"/>
</g>
<g opacity="0.13" filter="url(#filter4_d_22_1893)">
<path d="M207.421 99.477C207.308 98.6121 207.126 97.7472 206.921 96.8823C206.83 96.6774 206.739 96.4726 206.625 96.2905C205.057 93.1723 203.17 90.2135 201.01 87.4595C200.646 87.7098 200.373 88.074 200.259 88.4837C200.032 89.9631 201.192 91.3287 201.555 92.7399C202.851 96.6319 203.715 98.4983 203.306 102.049C203.352 103.415 201.123 110.925 200.396 111.859C199.555 113.52 198.577 115.113 197.463 116.593C197.122 117.003 197.008 117.185 197.054 117.207C196.485 117.64 196.008 118.209 195.462 118.664C194.303 119.643 193.143 120.644 191.961 121.623C191.665 121.85 191.143 122.26 190.779 122.624C190.961 122.351 190.46 122.829 189.983 123.239C189.733 123.398 188.573 124.218 187.96 124.513C183.867 125.947 179.638 126.767 177.365 126.881C174.386 127.154 171.431 126.403 169.112 125.856C167.475 125.378 166.042 123.74 164.269 124.081C163.496 124.263 162.996 124.855 162.814 125.538C162.996 125.72 163.155 125.902 163.337 126.084C163.928 126.585 164.542 127.085 165.156 127.563C167.338 128.997 169.544 130.431 171.726 131.842C175.364 132.889 179.252 133.117 183.913 132.229C183.844 132.229 183.731 132.229 183.64 132.252C188.528 131.205 190.051 130.568 193.621 128.701C196.735 126.835 199.259 124.149 201.192 121.077C201.237 120.986 201.305 120.895 201.351 120.804C203.624 117.936 205.352 114.681 206.557 111.244C207.785 107.466 207.762 103.392 207.398 99.477H207.421Z" fill="#A9BAE6"/>
</g>
<g filter="url(#filter5_d_22_1893)">
<path d="M176.274 116.547C171.977 116.547 167.612 114.158 165.179 110.311C162.61 106.237 162.178 100.706 164.088 95.8583C165.384 92.5807 167.589 89.8495 170.34 88.1425C173.318 86.2761 177.001 85.6843 180.184 86.5492C183.868 87.5507 186.619 89.1667 188.347 91.3972C190.438 94.0829 191.575 97.6791 191.552 101.526C191.552 104.143 190.984 106.396 189.938 108.194C189.006 109.788 187.687 111.017 186.505 112.018C183.549 114.545 180.912 115.933 178.206 116.411C177.57 116.525 176.911 116.57 176.274 116.57V116.547ZM177.183 87.9831C175.16 87.9831 173.091 88.5749 171.295 89.6902C168.885 91.1924 166.93 93.605 165.793 96.5183C164.11 100.82 164.451 105.736 166.725 109.31C169.135 113.133 173.728 115.296 177.888 114.567C180.253 114.158 182.617 112.883 185.323 110.584C186.369 109.697 187.551 108.604 188.347 107.238C189.233 105.714 189.711 103.779 189.711 101.503C189.711 98.066 188.733 94.8568 186.891 92.5125C185.414 90.6233 183.004 89.2122 179.707 88.3245C178.911 88.0969 178.047 88.0059 177.206 88.0059L177.183 87.9831Z" fill="#A9BAE6"/>
</g>
<g filter="url(#filter6_d_22_1893)">
<path d="M177.229 128.815C167.702 128.815 157.949 123.08 153.538 114.066C149.628 106.123 149.809 96.3361 153.993 88.5293C158.176 80.7224 166.225 75.1689 175.023 74.0536C183.208 73.0066 193.121 77.5815 198.555 84.9559C204.261 92.6717 205.398 103.324 201.465 112.064C199.441 116.547 196.122 120.576 191.893 123.671C189.369 125.515 186.732 126.903 184.072 127.745C181.867 128.451 179.57 128.792 177.251 128.792L177.229 128.815ZM175.114 74.9641L175.228 75.8745C167.02 76.9214 159.495 82.1108 155.584 89.3942C151.674 96.6775 151.515 105.827 155.152 113.247C160.268 123.649 172.977 129.384 183.458 126.016C185.936 125.219 188.415 123.944 190.756 122.192C194.735 119.279 197.85 115.5 199.737 111.312C203.352 103.278 202.261 93.1269 197.031 86.0484C191.961 79.1975 182.776 74.9185 175.205 75.8745L175.091 74.9641H175.114Z" fill="#A9BAE6"/>
</g>
<g filter="url(#filter7_d_22_1893)">
<path d="M176.16 169.147H176.092C169.885 168.646 164.019 167.849 158.153 166.666C157.676 166.575 157.358 166.12 157.426 165.642C158.04 161.408 157.312 156.97 155.38 153.169C154.47 151.348 153.447 150.005 152.242 149.072C151.287 148.298 150.082 147.684 148.582 147.206C143.216 145.476 136.986 146.409 131.916 149.732C131.507 150.005 130.939 149.891 130.643 149.482C127.324 144.474 124.027 139.331 120.594 133.732C120.344 133.345 120.435 132.821 120.799 132.525C123.868 130.044 126.051 127.359 127.301 124.491C128.756 121.145 128.893 117.572 127.688 114.636C126.369 111.472 123.641 109.378 121.572 108.172C119.207 106.806 116.593 105.873 113.819 104.894L112.614 104.462C112.25 104.325 112 103.961 112 103.574C112.182 97.1555 112.773 91.3288 113.751 86.2533C113.842 85.8436 114.183 85.5477 114.592 85.5022C118.957 85.229 122.436 84.3641 125.255 82.8164C128.688 80.9273 131.075 77.9912 131.825 74.7593C132.667 71.1631 131.484 67.3621 130.348 64.4488C129.757 62.9238 129.097 61.4444 127.551 60.3974C127.324 60.2381 127.165 59.9877 127.165 59.6918C127.165 59.4187 127.256 59.1228 127.483 58.9407C131.439 55.4812 134.963 52.7272 138.555 50.2918C138.919 50.0414 139.419 50.0869 139.737 50.4283C141.579 52.363 144.376 53.1141 147.331 53.7514C149.195 54.1611 150.855 54.5025 152.56 54.548C156.653 54.6845 160.836 53.0686 164.042 50.1097C167.088 47.2874 169.157 43.3726 170.044 38.7522C170.135 38.297 170.544 37.9784 171.022 38.0011L186.004 39.1164C186.368 39.1392 187.05 39.3213 187.391 40.2544C187.414 40.3227 187.437 40.391 187.437 40.4593C188.096 45.7169 189.71 49.9959 192.279 53.2051C195.258 56.9606 199.714 59.1683 203.852 58.9635C208.581 58.7131 212.855 55.5494 217.016 52.4768C217.425 52.1809 217.971 52.2492 218.289 52.6589C222.381 57.9165 225.814 62.719 228.725 67.3621C228.975 67.749 228.884 68.2498 228.543 68.5457C225.837 70.8217 222.336 74.6454 220.949 79.7893C219.721 84.3869 220.631 89.2804 223.291 92.5807C225.11 94.8339 227.929 96.5865 231.43 97.6562C234.613 98.6122 237.932 98.9536 241.616 99.2495C241.888 99.2495 242.116 99.4088 242.275 99.6136C242.434 99.8185 242.502 100.092 242.434 100.342C241.252 105.987 239.82 111.677 238.046 117.708C237.932 118.141 237.501 118.414 237.069 118.368C231.839 117.822 226.906 118.846 223.2 121.259C219.039 123.945 216.402 128.565 216.493 133.026C216.584 137.533 219.176 141.538 221.904 145.795L221.995 145.954C222.245 146.341 222.177 146.842 221.813 147.137C216.72 151.507 211.332 155.422 206.262 159.018C205.853 159.291 205.307 159.223 205.011 158.836C203.443 156.833 201.669 154.557 199.418 153.01C194.985 149.982 188.414 150.074 183.822 153.26C179.388 156.333 176.728 162.159 177.069 168.123C177.069 168.396 176.978 168.646 176.796 168.828C176.615 168.987 176.387 169.078 176.16 169.078V169.147ZM159.336 165.05C164.519 166.051 169.726 166.78 175.205 167.235C175.159 160.953 178.001 155.126 182.776 151.826C188.051 148.162 195.326 148.048 200.464 151.553C202.692 153.078 204.42 155.149 205.943 157.084C210.559 153.806 215.424 150.256 220.04 146.341C217.402 142.221 214.788 137.965 214.674 133.14C214.56 128.064 217.516 122.829 222.222 119.802C226.11 117.299 231.157 116.138 236.523 116.57C238.069 111.199 239.365 106.123 240.456 101.07C237.069 100.774 233.954 100.41 230.907 99.4998C227.065 98.3391 223.927 96.3589 221.881 93.8325C218.857 90.0998 217.834 84.569 219.198 79.4251C220.585 74.1902 223.973 70.2527 226.769 67.7718C224.109 63.5839 221.04 59.2594 217.402 54.5707C213.264 57.6206 208.967 60.625 203.965 60.8754C199.236 61.1257 194.212 58.6449 190.87 54.4114C188.142 50.9746 186.414 46.4453 185.686 40.9828L171.726 39.9358C170.681 44.6017 168.475 48.5847 165.315 51.4981C161.768 54.7756 157.107 56.5737 152.538 56.4143C150.673 56.3461 148.832 55.9819 146.967 55.5722C144.125 54.9577 141.17 54.1838 139.01 52.2492C135.941 54.3659 132.917 56.7557 129.552 59.6236C130.893 60.8526 131.553 62.3548 132.098 63.8115C133.303 66.9752 134.599 71.1176 133.644 75.1917C132.78 78.9472 130.052 82.3157 126.164 84.4552C123.277 86.0484 119.753 86.9816 115.456 87.323C114.592 91.9661 114.069 97.2238 113.887 102.982L114.455 103.187C117.32 104.188 120.026 105.144 122.527 106.601C124.823 107.944 127.892 110.311 129.415 113.953C130.825 117.344 130.689 121.464 129.006 125.242C127.733 128.155 125.573 130.909 122.595 133.436C125.71 138.488 128.711 143.177 131.712 147.706C137.077 144.474 143.534 143.632 149.173 145.453C150.901 145.999 152.287 146.728 153.424 147.638C154.834 148.753 156.016 150.301 157.039 152.35C158.994 156.242 159.813 160.725 159.358 165.05H159.336Z" fill="#A9BAE6"/>
</g>
<defs>
<filter id="filter0_d_22_1893" x="75.0176" y="0" width="42.7979" height="45.567" filterUnits="userSpaceOnUse" color-interpolation-filters="sRGB">
<feFlood flood-opacity="0" result="BackgroundImageFix"/>
<feColorMatrix in="SourceAlpha" type="matrix" values="0 0 0 0 0 0 0 0 0 0 0 0 0 0 0 0 0 0 127 0" result="hardAlpha"/>
<feOffset dy="4"/>
<feGaussianBlur stdDeviation="2"/>
<feComposite in2="hardAlpha" operator="out"/>
<feColorMatrix type="matrix" values="0 0 0 0 0 0 0 0 0 0 0 0 0 0 0 0 0 0 0.25 0"/>
<feBlend mode="normal" in2="BackgroundImageFix" result="effect1_dropShadow_22_1893"/>
<feBlend mode="normal" in="SourceGraphic" in2="effect1_dropShadow_22_1893" result="shape"/>
</filter>
<filter id="filter1_d_22_1893" x="0" y="49" width="55.293" height="56.786" filterUnits="userSpaceOnUse" color-interpolation-filters="sRGB">
<feFlood flood-opacity="0" result="BackgroundImageFix"/>
<feColorMatrix in="SourceAlpha" type="matrix" values="0 0 0 0 0 0 0 0 0 0 0 0 0 0 0 0 0 0 127 0" result="hardAlpha"/>
<feOffset dy="4"/>
<feGaussianBlur stdDeviation="2"/>
<feComposite in2="hardAlpha" operator="out"/>
<feColorMatrix type="matrix" values="0 0 0 0 0 0 0 0 0 0 0 0 0 0 0 0 0 0 0.25 0"/>
<feBlend mode="normal" in2="BackgroundImageFix" result="effect1_dropShadow_22_1893"/>
<feBlend mode="normal" in="SourceGraphic" in2="effect1_dropShadow_22_1893" result="shape"/>
</filter>
<filter id="filter2_d_22_1893" x="147.156" y="74.2095" width="59.2876" height="61.1011" filterUnits="userSpaceOnUse" color-interpolation-filters="sRGB">
<feFlood flood-opacity="0" result="BackgroundImageFix"/>
<feColorMatrix in="SourceAlpha" type="matrix" values="0 0 0 0 0 0 0 0 0 0 0 0 0 0 0 0 0 0 127 0" result="hardAlpha"/>
<feOffset dy="4"/>
<feGaussianBlur stdDeviation="2"/>
<feComposite in2="hardAlpha" operator="out"/>
<feColorMatrix type="matrix" values="0 0 0 0 0 0 0 0 0 0 0 0 0 0 0 0 0 0 0.25 0"/>
<feBlend mode="normal" in2="BackgroundImageFix" result="effect1_dropShadow_22_1893"/>
<feBlend mode="normal" in="SourceGraphic" in2="effect1_dropShadow_22_1893" result="shape"/>
</filter>
<filter id="filter3_d_22_1893" x="108.932" y="38.98" width="136.592" height="137.302" filterUnits="userSpaceOnUse" color-interpolation-filters="sRGB">
<feFlood flood-opacity="0" result="BackgroundImageFix"/>
<feColorMatrix in="SourceAlpha" type="matrix" values="0 0 0 0 0 0 0 0 0 0 0 0 0 0 0 0 0 0 127 0" result="hardAlpha"/>
<feOffset dy="4"/>
<feGaussianBlur stdDeviation="2"/>
<feComposite in2="hardAlpha" operator="out"/>
<feColorMatrix type="matrix" values="0 0 0 0 0 0 0 0 0 0 0 0 0 0 0 0 0 0 0.25 0"/>
<feBlend mode="normal" in2="BackgroundImageFix" result="effect1_dropShadow_22_1893"/>
<feBlend mode="normal" in="SourceGraphic" in2="effect1_dropShadow_22_1893" result="shape"/>
</filter>
<filter id="filter4_d_22_1893" x="158.814" y="87.4595" width="52.8022" height="53.3201" filterUnits="userSpaceOnUse" color-interpolation-filters="sRGB">
<feFlood flood-opacity="0" result="BackgroundImageFix"/>
<feColorMatrix in="SourceAlpha" type="matrix" values="0 0 0 0 0 0 0 0 0 0 0 0 0 0 0 0 0 0 127 0" result="hardAlpha"/>
<feOffset dy="4"/>
<feGaussianBlur stdDeviation="2"/>
<feComposite in2="hardAlpha" operator="out"/>
<feColorMatrix type="matrix" values="0 0 0 0 0 0 0 0 0 0 0 0 0 0 0 0 0 0 0.25 0"/>
<feBlend mode="normal" in2="BackgroundImageFix" result="effect1_dropShadow_22_1893"/>
<feBlend mode="normal" in="SourceGraphic" in2="effect1_dropShadow_22_1893" result="shape"/>
</filter>
<filter id="filter5_d_22_1893" x="158.905" y="86.1592" width="36.6475" height="38.411" filterUnits="userSpaceOnUse" color-interpolation-filters="sRGB">
<feFlood flood-opacity="0" result="BackgroundImageFix"/>
<feColorMatrix in="SourceAlpha" type="matrix" values="0 0 0 0 0 0 0 0 0 0 0 0 0 0 0 0 0 0 127 0" result="hardAlpha"/>
<feOffset dy="4"/>
<feGaussianBlur stdDeviation="2"/>
<feComposite in2="hardAlpha" operator="out"/>
<feColorMatrix type="matrix" values="0 0 0 0 0 0 0 0 0 0 0 0 0 0 0 0 0 0 0.25 0"/>
<feBlend mode="normal" in2="BackgroundImageFix" result="effect1_dropShadow_22_1893"/>
<feBlend mode="normal" in="SourceGraphic" in2="effect1_dropShadow_22_1893" result="shape"/>
</filter>
<filter id="filter6_d_22_1893" x="146.726" y="73.905" width="61.0576" height="62.9102" filterUnits="userSpaceOnUse" color-interpolation-filters="sRGB">
<feFlood flood-opacity="0" result="BackgroundImageFix"/>
<feColorMatrix in="SourceAlpha" type="matrix" values="0 0 0 0 0 0 0 0 0 0 0 0 0 0 0 0 0 0 127 0" result="hardAlpha"/>
<feOffset dy="4"/>
<feGaussianBlur stdDeviation="2"/>
<feComposite in2="hardAlpha" operator="out"/>
<feColorMatrix type="matrix" values="0 0 0 0 0 0 0 0 0 0 0 0 0 0 0 0 0 0 0.25 0"/>
<feBlend mode="normal" in2="BackgroundImageFix" result="effect1_dropShadow_22_1893"/>
<feBlend mode="normal" in="SourceGraphic" in2="effect1_dropShadow_22_1893" result="shape"/>
</filter>
<filter id="filter7_d_22_1893" x="108" y="38" width="138.46" height="139.147" filterUnits="userSpaceOnUse" color-interpolation-filters="sRGB">
<feFlood flood-opacity="0" result="BackgroundImageFix"/>
<feColorMatrix in="SourceAlpha" type="matrix" values="0 0 0 0 0 0 0 0 0 0 0 0 0 0 0 0 0 0 127 0" result="hardAlpha"/>
<feOffset dy="4"/>
<feGaussianBlur stdDeviation="2"/>
<feComposite in2="hardAlpha" operator="out"/>
<feColorMatrix type="matrix" values="0 0 0 0 0 0 0 0 0 0 0 0 0 0 0 0 0 0 0.25 0"/>
<feBlend mode="normal" in2="BackgroundImageFix" result="effect1_dropShadow_22_1893"/>
<feBlend mode="normal" in="SourceGraphic" in2="effect1_dropShadow_22_1893" result="shape"/>
</filter>
</defs>
</svg>
