<svg width="116" height="95" viewBox="0 0 116 95" fill="none" xmlns="http://www.w3.org/2000/svg">
<g filter="url(#filter0_d_23_1895)">
<path d="M110.398 18.7188C111.444 14.4398 109.807 9.79671 106.988 6.56473C104.714 3.97004 101.645 2.12644 98.348 1.42087C95.0513 0.738058 91.5046 1.21602 88.5035 2.85477C87.3212 3.49206 86.2072 4.31144 85.2295 5.29014C83.4789 7.01993 82.183 9.22769 81.4782 11.6403C80.0231 16.511 81.2053 22.0873 84.2974 25.9339C87.4122 29.7804 92.323 31.8743 97.2112 31.3508C100.167 30.8046 103.236 30.1901 105.646 28.2782C108.488 26.0477 109.966 22.2922 110.421 18.7188H110.398Z" fill="#F8FBFE"/>
<path d="M95.5968 32.4661C93.9371 32.4661 92.3001 32.2157 90.7996 31.715C83.0695 29.1203 78.295 19.6974 80.5686 11.5492C81.7053 7.45233 84.6382 3.90171 88.5942 1.80775C92.1864 -0.104131 96.2561 -0.513815 99.7574 0.646967C102.349 1.51186 104.827 3.17337 107.328 5.67702C108.397 6.74676 109.716 8.22619 110.534 10.0925C112.262 14.0756 111.216 18.787 110.466 22.2239C109.738 25.4786 107.488 28.3237 104.123 30.2355C101.531 31.6922 98.507 32.4661 95.5968 32.4661ZM95.665 1.80775C93.5961 1.80775 91.4362 2.354 89.4582 3.40098C85.9569 5.26733 83.365 8.40827 82.3419 12.0272C80.3412 19.1512 84.661 27.7091 91.3907 29.9624C95.0512 31.1915 99.5983 30.6907 103.236 28.6195C106.146 26.9808 108.101 24.5454 108.693 21.8142C109.602 17.6718 110.261 13.9846 108.874 10.7981C108.329 9.54629 107.465 8.36275 106.055 6.92884C103.759 4.63004 101.531 3.10509 99.189 2.33123C98.075 1.96707 96.8928 1.76222 95.6878 1.76222L95.665 1.80775Z" fill="#6679A8"/>
<g opacity="0.13">
<path d="M108.852 13.5067C108.01 13.0742 106.874 13.3474 106.214 14.0074C105.805 14.4626 105.532 15.0316 105.509 15.6689C105.487 15.851 105.464 16.0558 105.441 16.2379C105.441 16.3745 105.305 17.1711 105.214 17.5353C104.577 20.1982 103.85 21.1769 102.645 22.5198C101.235 24.1586 98.3477 25.4559 97.0063 26.0022C95.8695 26.5256 94.4599 26.4118 93.4823 27.2312C91.0041 29.0748 93.0276 33.1945 95.9605 32.3296C99.9165 31.6467 103.782 29.8942 106.464 26.776C108.306 24.3634 108.42 23.2937 109.147 21.6321C109.738 20.1755 110.057 18.605 110.216 17.0345C110.466 15.7144 110.261 13.9846 108.829 13.5067H108.852Z" fill="#6679A8"/>
</g>
</g>
<g filter="url(#filter1_d_23_1895)">
<path d="M28.8948 37.8764C25.7573 37.5805 22.6197 38.5364 19.7551 39.8338C15.9127 41.5636 12.3205 44.0217 9.61499 47.2537C6.90945 50.5084 5.13607 54.5825 5.02239 58.816C4.95418 61.8204 5.70447 64.7565 6.45474 67.6698C7.18228 70.4693 7.93255 73.3599 9.66045 75.6587C10.3425 76.5691 11.161 77.3885 12.0022 78.1623C14.5031 80.5294 17.2087 82.76 20.3689 84.1256C24.3931 85.8326 28.9857 86.0147 33.2373 84.9677C37.4888 83.9207 41.3994 81.713 44.7642 78.9362C46.3102 77.6616 47.7653 76.2277 48.8339 74.5434C50.5845 71.7894 51.2211 68.4664 51.5849 65.2117C52.0851 60.7734 52.1078 56.1075 50.289 52.0106C48.1063 47.0944 43.5365 43.7031 38.9666 40.9035C35.6245 38.8778 31.623 36.9887 28.9175 37.8991L28.8948 37.8764Z" fill="#F8FBFE"/>
<path d="M28.8721 86.6293C21.4376 86.6293 13.9576 83.3062 9.27405 77.4341C2.88535 69.4451 2.22601 57.3366 7.70529 48.6421C13.1391 40.0159 24.325 35.35 34.3059 37.535C42.8545 39.4014 49.6752 45.6832 52.1079 53.8998C54.677 62.5487 52.5172 72.313 46.6287 78.7542C43.9913 81.6447 40.6492 83.8753 36.9887 85.2181C34.3742 86.1741 31.6231 86.6293 28.8721 86.6293ZM29.2586 38.8096C21.3694 38.8096 13.4574 42.9292 9.25131 49.598C4.18127 57.6325 4.79513 68.8534 10.7064 76.2733C16.6404 83.7159 27.4398 86.7658 36.3522 83.4883C39.7398 82.2365 42.8318 80.1881 45.2645 77.5023C50.7438 71.5163 52.7218 62.4577 50.3573 54.4005C48.1065 46.8213 41.8087 41.0401 33.9194 39.2876C32.3962 38.9462 30.8274 38.7868 29.2586 38.7868V38.8096Z" fill="#739EEE"/>
<path d="M8.93273 63.2998C8.93273 63.2998 8.8418 63.2998 8.79632 63.277C8.63718 63.2087 8.56897 63.0267 8.63718 62.8673C11.6837 56.2441 15.1623 49.7346 18.9591 43.521C19.0501 43.3844 19.232 43.3389 19.3684 43.4299C19.5048 43.521 19.5503 43.7031 19.4593 43.8396C15.6625 50.0305 12.2067 56.5172 9.18283 63.1177C9.13735 63.2315 9.02369 63.2998 8.91001 63.2998H8.93273Z" fill="#739EEE"/>
<path d="M11.8885 71.4707C11.8885 71.4707 11.7748 71.4707 11.7293 71.4252C11.5929 71.3341 11.5247 71.152 11.6156 71.0155C17.3223 61.1375 22.8698 51.0091 28.1444 40.8807C28.2126 40.7213 28.4172 40.6758 28.5537 40.7441C28.7128 40.8124 28.7583 41.0172 28.6901 41.1538C23.4154 51.2822 17.8452 61.4333 12.1613 71.3114C12.1158 71.4024 12.0021 71.4707 11.8885 71.4707Z" fill="#739EEE"/>
<path d="M17.2317 78.2078C17.2317 78.2078 17.118 78.2078 17.0726 78.1623C16.9362 78.0713 16.8679 77.8892 16.9589 77.7526C23.6886 66.1676 29.8727 54.1045 35.352 41.9049C35.4202 41.7456 35.6021 41.6773 35.7612 41.7456C35.9204 41.8139 35.9886 41.996 35.9204 42.1553C30.4184 54.4004 24.2343 66.4634 17.5046 78.0713C17.4591 78.1623 17.3454 78.2306 17.2317 78.2306V78.2078Z" fill="#739EEE"/>
<path d="M24.3252 81.6448C24.3252 81.6448 24.2115 81.6448 24.166 81.5993C24.0296 81.5082 23.9841 81.3262 24.0523 81.1896C30.7821 70.037 36.6706 58.2471 41.536 46.1613C41.6042 46.002 41.7861 45.9337 41.9225 46.0019C42.0817 46.0702 42.1499 46.2523 42.0817 46.3889C37.2162 58.4974 31.305 70.3101 24.5525 81.5082C24.4843 81.5993 24.3934 81.6448 24.3024 81.6448H24.3252Z" fill="#739EEE"/>
<path d="M32.5323 81.2806C32.5323 81.2806 32.4186 81.2806 32.3731 81.2351C32.2367 81.1441 32.1912 80.962 32.2822 80.8027C37.6932 72.1992 42.3541 63.0268 46.1282 53.5812C46.1964 53.4219 46.3783 53.3536 46.5147 53.4219C46.6738 53.4902 46.742 53.6722 46.6738 53.8088C42.8997 63.2999 38.2162 72.4951 32.7824 81.1213C32.7142 81.2124 32.6232 81.2579 32.5323 81.2579V81.2806Z" fill="#739EEE"/>
<path d="M41.2403 77.7527C41.2403 77.7527 41.1266 77.7527 41.0811 77.7072C40.9447 77.6161 40.8992 77.4341 40.9902 77.2747C43.6502 73.1096 46.083 68.7168 48.1746 64.233C48.2428 64.0737 48.4247 64.0054 48.5839 64.0964C48.743 64.1647 48.8113 64.3468 48.7203 64.5061C46.6059 69.0127 44.1732 73.4282 41.4904 77.6161C41.4222 77.7072 41.3312 77.7527 41.2403 77.7527Z" fill="#739EEE"/>
<g opacity="0.13">
<path d="M51.4938 62.4805C51.4029 60.8873 49.4021 59.9769 48.0835 60.7963C46.9694 61.4108 46.9467 62.6626 46.742 63.7551C46.5147 64.8249 46.0827 65.8491 45.7417 66.8961C44.8777 68.6031 43.4454 71.175 41.0354 73.3373C39.785 74.2022 38.3981 74.8167 37.1022 75.6133C35.6698 76.4327 34.2375 77.2976 32.7369 77.9804C32.6915 77.9804 32.646 78.0259 32.6005 78.0259C28.5536 79.3005 25.1887 79.3005 23.3016 78.9363C21.1872 78.2763 18.5499 78.9363 18.2998 81.4855C17.9133 83.3518 19.6185 85.2182 21.4828 85.1499C25.8253 85.901 30.3042 85.1954 34.4421 83.8071C37.2613 82.7373 39.694 80.871 42.3996 79.5281C45.196 77.5479 47.4014 74.7484 49.1748 71.8351C50.1069 69.7411 50.4934 67.4423 51.13 65.2573C51.2664 64.3469 51.6075 63.391 51.4938 62.4578V62.4805Z" fill="#739EEE"/>
</g>
</g>
<defs>
<filter id="filter0_d_23_1895" x="76" y="0" width="39.4727" height="40.4661" filterUnits="userSpaceOnUse" color-interpolation-filters="sRGB">
<feFlood flood-opacity="0" result="BackgroundImageFix"/>
<feColorMatrix in="SourceAlpha" type="matrix" values="0 0 0 0 0 0 0 0 0 0 0 0 0 0 0 0 0 0 127 0" result="hardAlpha"/>
<feOffset dy="4"/>
<feGaussianBlur stdDeviation="2"/>
<feComposite in2="hardAlpha" operator="out"/>
<feColorMatrix type="matrix" values="0 0 0 0 0 0 0 0 0 0 0 0 0 0 0 0 0 0 0.25 0"/>
<feBlend mode="normal" in2="BackgroundImageFix" result="effect1_dropShadow_23_1895"/>
<feBlend mode="normal" in="SourceGraphic" in2="effect1_dropShadow_23_1895" result="shape"/>
</filter>
<filter id="filter1_d_23_1895" x="0" y="37" width="57.1758" height="57.6292" filterUnits="userSpaceOnUse" color-interpolation-filters="sRGB">
<feFlood flood-opacity="0" result="BackgroundImageFix"/>
<feColorMatrix in="SourceAlpha" type="matrix" values="0 0 0 0 0 0 0 0 0 0 0 0 0 0 0 0 0 0 127 0" result="hardAlpha"/>
<feOffset dy="4"/>
<feGaussianBlur stdDeviation="2"/>
<feComposite in2="hardAlpha" operator="out"/>
<feColorMatrix type="matrix" values="0 0 0 0 0 0 0 0 0 0 0 0 0 0 0 0 0 0 0.25 0"/>
<feBlend mode="normal" in2="BackgroundImageFix" result="effect1_dropShadow_23_1895"/>
<feBlend mode="normal" in="SourceGraphic" in2="effect1_dropShadow_23_1895" result="shape"/>
</filter>
</defs>
</svg>
