<svg width="36" height="63" viewBox="0 0 36 63" fill="none" xmlns="http://www.w3.org/2000/svg">
<path d="M2.48547 0.967224H10V17H0V3.65791C0 2.17222 1.1131 0.967224 2.48547 0.967224Z" fill="url(#paint0_linear_2_1101)"/>
<path d="M33.3026 0.967224C34.7907 0.967224 35.9999 2.23201 35.9999 3.78831V61.1834C35.9999 62.3353 34.9345 63.1628 33.8781 62.8243L21.3131 57.1539L7.21073 62.8948C6.16328 63.2005 5.12931 62.3776 5.12931 61.2398V12.9569L5.15179 3.83063C5.15629 2.27433 3.947 1.00954 2.45898 1.00954L33.3026 0.967224Z" fill="url(#paint1_linear_2_1101)"/>
<path d="M27 44.6118C26.52 44.6971 26.1093 44.7398 25.768 44.7398C25.1067 44.7398 24.4933 44.6171 23.928 44.3718C23.3627 44.1264 22.8987 43.8224 22.536 43.4598C22.1733 43.0971 21.8267 42.7024 21.496 42.2758C21.1653 41.8384 20.888 41.4384 20.664 41.0758C20.4293 40.7131 20.184 40.4091 19.928 40.1638C19.6613 39.9184 19.4 39.7958 19.144 39.7958C18.7707 39.7958 18.488 39.9184 18.296 40.1638C18.104 40.4091 18.008 40.6971 18.008 41.0278C18.008 41.3798 18.1253 41.7051 18.36 42.0038C18.5947 42.3024 18.8827 42.5424 19.224 42.7238L17.832 44.8038C17.1067 44.4304 16.5147 43.9078 16.056 43.2358C15.5973 42.5531 15.368 41.7318 15.368 40.7718C15.368 39.7264 15.672 38.8144 16.28 38.0358C16.8773 37.2571 17.7413 36.8678 18.872 36.8678C19.5333 36.8678 20.136 37.0278 20.68 37.3478C21.224 37.6678 21.672 38.0571 22.024 38.5158C22.3653 38.9744 22.68 39.4331 22.968 39.8918C23.2453 40.3504 23.5227 40.7504 23.8 41.0918C24.0667 41.4331 24.3333 41.6144 24.6 41.6358L24.6 36.6918L27 36.6918L27 44.6118ZM26.744 28.7936C27.0427 29.359 27.192 30.0363 27.192 30.8256C27.192 31.615 27.0427 32.2976 26.744 32.8736C26.4347 33.439 26.0027 33.8816 25.448 34.2016C24.8933 34.5216 24.2693 34.7563 23.576 34.9056C22.8827 35.055 22.1093 35.1296 21.256 35.1296C20.4027 35.1296 19.6347 35.055 18.952 34.9056C18.2587 34.7563 17.64 34.5216 17.096 34.2016C16.5413 33.8816 16.1147 33.439 15.816 32.8736C15.5173 32.2976 15.368 31.615 15.368 30.8256C15.368 30.0363 15.5173 29.359 15.816 28.7936C16.1147 28.2176 16.5413 27.7696 17.096 27.4496C17.64 27.1296 18.2587 26.895 18.952 26.7456C19.6347 26.5963 20.4027 26.5216 21.256 26.5216C22.1093 26.5216 22.8827 26.5963 23.576 26.7456C24.2693 26.895 24.8933 27.1296 25.448 27.4496C26.0027 27.7696 26.4347 28.2176 26.744 28.7936ZM21.256 32.2496C23.5067 32.2496 24.632 31.775 24.632 30.8256C24.632 29.8763 23.5067 29.4016 21.256 29.4016C19.0373 29.4016 17.928 29.8763 17.928 30.8256C17.928 31.775 19.0373 32.2496 21.256 32.2496ZM20.888 22.3018C20.888 23.1124 20.6213 23.8004 20.088 24.3658C19.5547 24.9204 18.904 25.1978 18.136 25.1978C17.3787 25.1978 16.728 24.9151 16.184 24.3498C15.64 23.7844 15.368 23.1018 15.368 22.3018C15.368 21.5018 15.64 20.8191 16.184 20.2538C16.728 19.6884 17.3787 19.4058 18.136 19.4058C18.904 19.4058 19.5547 19.6884 20.088 20.2538C20.6213 20.8191 20.888 21.5018 20.888 22.3018ZM27 24.5578L15.56 15.7258L15.56 13.2938L27 22.1258L27 24.5578ZM18.728 22.9258C18.888 22.7551 18.968 22.5471 18.968 22.3018C18.968 22.0564 18.888 21.8484 18.728 21.6778C18.5573 21.5071 18.3547 21.4218 18.12 21.4218C17.896 21.4218 17.704 21.5124 17.544 21.6938C17.3733 21.8644 17.288 22.0671 17.288 22.3018C17.288 22.5364 17.3733 22.7444 17.544 22.9258C17.704 23.0964 17.896 23.1818 18.12 23.1818C18.3547 23.1818 18.5573 23.0964 18.728 22.9258ZM24.44 18.3658C23.6827 18.3658 23.032 18.0831 22.488 17.5178C21.944 16.9524 21.672 16.2698 21.672 15.4698C21.672 14.6698 21.944 13.9871 22.488 13.4218C23.032 12.8564 23.6827 12.5738 24.44 12.5738C25.208 12.5738 25.8587 12.8564 26.392 13.4218C26.9253 13.9871 27.192 14.6698 27.192 15.4698C27.192 16.2804 26.9253 16.9684 26.392 17.5338C25.8587 18.0884 25.208 18.3658 24.44 18.3658ZM24.424 16.3498C24.6587 16.3498 24.8613 16.2644 25.032 16.0938C25.192 15.9231 25.272 15.7151 25.272 15.4698C25.272 15.2244 25.192 15.0164 25.032 14.8458C24.8613 14.6751 24.6587 14.5898 24.424 14.5898C24.2 14.5898 24.008 14.6804 23.848 14.8618C23.6773 15.0324 23.592 15.2351 23.592 15.4698C23.592 15.7044 23.6773 15.9124 23.848 16.0938C24.008 16.2644 24.2 16.3498 24.424 16.3498Z" fill="white"/>
<defs>
<linearGradient id="paint0_linear_2_1101" x1="5.00223" y1="-0.160346" x2="5.00223" y2="25.977" gradientUnits="userSpaceOnUse">
<stop stop-color="#690E19"/>
<stop offset="0.99" stop-color="#BA192D"/>
</linearGradient>
<linearGradient id="paint1_linear_2_1101" x1="19.2317" y1="2.37777" x2="19.2317" y2="56.3828" gradientUnits="userSpaceOnUse">
<stop stop-color="#FF223E"/>
<stop offset="1" stop-color="#B5182C"/>
</linearGradient>
</defs>
</svg>
