<svg width="166" height="168" viewBox="0 0 166 168" fill="none" xmlns="http://www.w3.org/2000/svg">
<path d="M72.7519 0.0754533C50.9115 0.441484 17.1203 8.31739 7.39384 28.5562C3.99689 35.6248 4.22709 46.0174 4.68689 66.8013C4.82192 72.9103 5.04641 81.8142 6.62068 92.8618C9.89114 115.812 12.1172 131.435 20.5429 140.532C41.6551 163.327 117.918 162.669 150.485 121.631C168.251 99.244 170.984 67.3982 154.739 41.0794C136.855 12.1026 101.991 -0.414297 72.7519 0.0754533Z" fill="#F4F6F8"/>
<path d="M88.1954 155.379C91.5479 151.624 94.8263 147.782 98.0284 143.854C98.1344 143.861 92.7706 134.206 85.3813 132.963C70.9087 130.686 70.107 118.469 68.0268 112.569C65.3563 104.039 58.6655 97.9738 52.1855 103.211C44.8874 108.875 34.1985 97.6944 26.9323 85.4729C23.7558 79.2059 13.7775 76.715 7.71405 79.304C1.42324 81.816 -0.95326 89.408 5.82811 101.523C13.1348 116.007 27.718 116.245 35.795 119.823C43.7313 123.328 40.1241 134.536 50.3104 135.008C59.0774 135.665 68.1077 133.86 70.4705 141.905C72.7165 149.935 77.0752 154.395 88.1948 155.379H88.1954Z" fill="url(#paint0_linear_2_164)"/>
<path d="M93.8589 151.487C93.8014 151.41 76.2628 136.31 56.4583 123.891C53.4037 121.758 50.254 119.661 47.2081 117.633C30.2449 106.341 14.2231 95.6754 6.87081 75.0791L6.59619 75.1857C13.9827 95.8778 30.045 106.571 47.0503 117.891C50.0951 119.918 53.243 122.014 56.301 124.149C76.2126 136.637 93.5376 151.582 93.6344 151.684L93.8584 151.488L93.8589 151.487Z" fill="#B1BDD9"/>
<path d="M31.5713 107.099L31.6186 106.798C23.6185 105.425 13.1565 102.715 7.53627 101.26C2.98725 100.082 2.97871 100.091 2.87672 100.207L2.98497 100.31L3.0106 100.458C3.20432 100.452 5.08514 100.939 7.46563 101.556C13.0904 103.013 23.5593 105.725 31.5713 107.099Z" fill="#B1BDD9"/>
<path d="M25.1745 101.361C21.7514 95.0351 21.1281 89.507 21.2084 85.983C21.2956 82.1448 22.2277 79.6351 22.4118 79.4155L22.3263 79.3374L22.3109 79.1459C22.2232 79.1533 22.1713 79.2251 22.1058 79.354C21.1691 81.2041 18.9009 90.3868 24.9199 101.511L25.1751 101.361H25.1745Z" fill="#B1BDD9"/>
<path d="M68.8245 132.526L69.0301 132.308C59.16 122.176 58.4347 105.64 58.5817 99.0006C58.5897 98.6437 58.5914 98.5285 58.584 98.4755L58.2946 98.5211L58.4393 98.4983L58.2946 98.52C58.2991 98.5581 58.2946 98.76 58.2894 98.9932C58.184 103.781 58.555 108.412 59.3931 112.756C61.0027 121.101 64.1763 127.753 68.8256 132.526H68.8245Z" fill="#B1BDD9"/>
<path d="M42.6408 132.093L42.5428 131.983L42.5924 132.124L42.4243 132.073V131.89C42.4243 131.89 42.4243 131.889 42.4248 131.888C42.5667 131.74 52.5701 124.299 62.9997 128.167L62.9018 128.455C52.5759 124.625 42.7297 132.014 42.6408 132.093V132.093ZM42.5422 131.981L42.4921 131.838L42.5422 131.981Z" fill="#B1BDD9"/>
<path d="M90.9526 149.054C89.1287 146.849 86.9357 142.323 86.8428 133.285C86.8394 132.944 86.8191 132.755 86.7819 132.718L86.5818 132.941L86.6822 132.829L86.5414 132.866C86.5465 132.902 86.5482 133.081 86.5505 133.288C86.6445 142.418 88.8757 147.009 90.7309 149.253L90.9531 149.054L90.9526 149.054Z" fill="#B1BDD9"/>
<path d="M86.4803 145.774L86.649 145.524C82.4122 142.411 74.7146 143.972 70.5029 145.181C70.3696 145.219 70.2835 145.244 70.2511 145.251L70.3092 145.551C70.3439 145.543 70.4362 145.517 70.5804 145.476C74.7419 144.282 82.3415 142.733 86.4803 145.775V145.774Z" fill="#B1BDD9"/>
<path d="M141.683 75.0723L142.396 73.5015C142.663 72.9126 142.505 72.2056 142.041 71.9205L140.196 70.786C140.695 69.3686 141.045 67.8697 141.222 66.3195L143.282 66.1747C143.813 66.1376 144.242 65.5817 144.242 64.934V63.2105C144.242 62.5623 143.813 62.0617 143.282 62.0919L141.276 62.2065C141.138 60.6437 140.819 59.1534 140.345 57.7628L142.041 56.504C142.095 56.4635 142.145 56.4173 142.19 56.3671L142.408 56.9316L145.194 53.5033L141.556 53.1926C141.397 52.9856 141.182 52.8613 140.955 52.8345C140.752 52.8106 140.54 52.863 140.348 53.0021L138.673 54.2205C137.893 52.9679 136.962 51.851 135.907 50.904L136.033 50.6401L138.594 51.1634L138.919 46.9204L135.03 46.2779C134.583 46.1051 134.077 46.3241 133.831 46.8315L132.864 48.8264C131.622 48.2084 132.651 47.5579 131.24 47.3697L132.716 45.1935C132.716 44.5156 128.391 44.0635 127.807 44.0635H126.243C125.651 44.0635 125.169 44.6205 125.169 45.3081V47.6383C123.708 47.8618 122.3 48.327 120.976 49.0003L123.647 47.0362C123.647 47.0362 118.942 46.1445 118.407 46.498L116.975 47.4444C116.434 47.8024 116.247 48.5858 116.561 49.1925L117.644 51.2894C116.458 52.3459 115.954 52.9554 115.056 54.3499L112.54 53.7815C111.985 53.44 111.271 53.6715 110.948 54.3015L110.086 55.9817C109.761 56.6157 109.954 57.4048 110.517 57.7417L112.545 58.9584C111.983 60.5217 111.603 62.1854 111.437 63.9118L109.004 64.0509C108.349 64.0885 107.816 64.7048 107.816 65.4284V67.3514C107.816 68.0071 108.255 68.518 108.824 68.5733L111.589 69.0168C111.818 70.4558 112.202 71.8208 112.72 73.0905L110.516 74.6937C109.954 75.1025 109.76 75.9161 110.086 76.5085L110.948 78.0786C111.271 78.667 116.397 79.0251 116.397 79.0251L114.769 76.7411C115.66 77.9378 116.696 78.9743 117.844 79.8216L116.56 82.4727C116.246 83.1193 116.432 83.8792 116.974 84.1683L118.406 84.9329C118.496 84.9813 118.591 85.0115 118.687 85.0281L118.681 85.0549L123.148 85.6056L123.585 82.2321C124.105 82.3119 124.633 82.3609 125.168 82.3752V85.2612C125.168 85.7744 125.436 86.1803 125.819 86.3223L125.799 86.4067L130.225 86.9597L130.314 81.4875C131.124 81.1796 131.904 80.7982 132.65 80.3501L133.83 82.6346C133.976 82.9186 134.215 83.0867 134.479 83.1289L138.756 83.7088L137.291 79.675L136.7 79.8563L135.725 77.9435C136.75 76.9252 137.662 75.7627 138.438 74.4896L140.347 75.6344C140.815 75.9155 141.412 75.6618 141.681 75.0688L141.683 75.0723ZM127.028 73.5939C122.841 73.9674 119.367 70.2905 119.367 65.3736C119.367 60.4567 122.841 56.3432 127.028 56.1898C131.112 56.0404 134.35 59.7315 134.35 64.4317C134.35 69.132 131.112 73.2302 127.028 73.5939ZM144.912 64.1524L147.81 62.78L144.912 62.4283V64.1524ZM141.356 75.8659L144.671 76.3135L145.154 75.1823L142.409 73.5118L141.356 75.8653L141.356 75.8659Z" fill="#C1C7CA"/>
<path d="M147.553 62.7299L145.558 62.8451C145.421 61.2863 145.104 59.8006 144.633 58.4145L146.319 57.1585C146.78 56.8153 146.938 56.0901 146.672 55.537L145.963 54.0615C145.696 53.5051 145.102 53.3278 144.636 53.6676L142.97 54.8831C142.195 53.6345 141.269 52.521 140.22 51.5774L141.179 49.5682C141.454 48.9918 141.29 48.2621 140.813 47.9365L139.538 47.0659C139.055 46.7369 138.436 46.9388 138.156 47.5192L137.195 49.5089C135.96 48.8932 134.625 48.4736 133.217 48.2866V45.9889C133.217 45.311 132.747 44.762 132.166 44.762H130.611C130.023 44.7631 129.544 45.319 129.544 46.0043V48.3276C128.092 48.5511 126.691 49.0158 125.374 49.688L124.336 47.644C124.03 47.0431 123.352 46.8413 122.82 47.1942L121.396 48.1389C120.858 48.4964 120.673 49.2775 120.984 49.8824L122.061 51.9731C120.883 53.0267 119.829 54.2691 118.936 55.6608L116.987 54.4601C116.435 54.1197 115.726 54.3512 115.405 54.9789L114.548 56.6545C114.225 57.2868 114.416 58.0736 114.976 58.4094L116.993 59.6215C116.434 61.1803 116.056 62.8394 115.891 64.5612L113.472 64.7009C112.821 64.7385 112.291 65.3537 112.291 66.0749V67.9923C112.291 68.7136 112.821 69.2603 113.472 69.2141L115.956 69.0385C116.165 70.6994 116.58 72.2684 117.168 73.7131L114.976 75.3124C114.417 75.72 114.225 76.5313 114.548 77.122L115.405 78.6876C115.726 79.2743 116.435 79.4145 116.987 79.0029L119.204 77.3523C120.089 78.5451 121.119 79.5787 122.261 80.4225L120.984 83.0669C120.672 83.7117 120.857 84.4694 121.396 84.7573L122.82 85.519C123.352 85.8035 124.03 85.5145 124.335 84.8742L125.601 82.2202C126.851 82.6729 128.174 82.9294 129.543 82.9665V85.8446C129.543 86.5299 130.022 87.0242 130.611 86.9489L132.166 86.75C132.747 86.6753 133.216 86.0658 133.216 85.3879V82.5418C134.544 82.1968 135.807 81.6529 136.982 80.9442L138.156 83.2219C138.436 83.7658 139.055 83.8884 139.537 83.4973L140.813 82.4625C141.29 82.0754 141.453 81.3245 141.178 80.7834L140.04 78.5439C141.058 77.5279 141.966 76.3683 142.738 75.0991L144.635 76.24C145.102 76.5199 145.695 76.2668 145.962 75.6756L146.671 74.1088C146.937 73.5216 146.779 72.8163 146.319 72.5324L144.483 71.4018C144.98 69.9884 145.328 68.4935 145.504 66.9473L147.552 66.8025C148.08 66.7648 148.506 66.2112 148.506 65.5647V63.8463C148.506 63.2003 148.08 62.7009 147.552 62.7317L147.553 62.7299ZM131.392 74.2057C127.229 74.5798 123.775 70.9149 123.775 66.0122C123.775 61.1096 127.229 57.0063 131.392 56.8518C135.453 56.7007 138.672 60.3804 138.672 65.067C138.672 69.7535 135.453 73.8414 131.392 74.2057Z" fill="#D8DDE0"/>
<path d="M104.829 53.8694L105.783 51.7673C106.14 50.9794 105.928 50.0335 105.308 49.6521L102.84 48.1344C103.509 46.2381 103.976 44.2329 104.212 42.1582L106.968 41.9649C107.679 41.9153 108.252 41.1718 108.252 40.3052V37.9996C108.252 37.1324 107.678 36.4625 106.968 36.5035L104.285 36.6569C104.099 34.5656 103.673 32.5718 103.039 30.7115L105.308 29.0273C105.381 28.9731 105.447 28.9109 105.508 28.8442L105.799 29.5997L109.527 25.0129L104.66 24.5973C104.446 24.3207 104.159 24.1543 103.856 24.1183C103.584 24.0864 103.3 24.1565 103.045 24.3424L100.803 25.9724C99.7601 24.2968 98.5145 22.8025 97.1032 21.5356L97.2719 21.1827L100.698 21.8834L101.134 16.2071L95.9301 15.3479C95.3318 15.117 94.6549 15.4094 94.3256 16.089L93.0323 18.7579C91.3703 17.9312 92.7474 17.0606 90.8586 16.8086L92.834 13.8974C92.834 12.9903 87.0474 12.386 86.2657 12.386H84.1729C83.381 12.386 82.7371 13.1317 82.7371 14.0514V17.1689C80.7828 17.4676 78.898 18.0902 77.1266 18.9916L80.7008 16.3639C80.7008 16.3639 74.4054 15.1705 73.6892 15.6438L71.7737 16.9106C71.0489 17.3895 70.8005 18.438 71.2192 19.2493L72.6682 22.055C71.082 23.4684 70.4074 24.2837 69.2069 26.1497L65.8407 25.3892C65.0971 24.9319 64.1428 25.2421 63.7109 26.0848L62.5577 28.3328C62.1224 29.1812 62.381 30.2365 63.1331 30.6875L65.8469 32.3153C65.0942 34.4065 64.586 36.6324 64.365 38.9426L61.1093 39.129C60.233 39.1792 59.5202 40.0042 59.5202 40.9717V43.5447C59.5202 44.4222 60.1071 45.1052 60.87 45.1799L64.5695 45.7734C64.876 47.6982 65.3894 49.5249 66.0828 51.224L63.1331 53.3688C62.381 53.9162 62.1224 55.0046 62.5577 55.7971L63.7109 57.898C64.1428 58.6854 71.0005 59.1643 71.0005 59.1643L68.8234 56.1083C70.0148 57.7093 71.4004 59.0965 72.9377 60.2293L71.2187 63.7767C70.7999 64.6416 71.0484 65.6582 71.7731 66.0448L73.6887 67.0676C73.8095 67.132 73.9365 67.1731 74.0652 67.1953L74.0578 67.2312L80.0341 67.9684L80.6187 63.4546C81.3139 63.5612 82.0204 63.6268 82.7366 63.6462V67.5078C82.7366 68.1942 83.0955 68.7375 83.6071 68.9274L83.5809 69.0403L89.5019 69.7797L89.6204 62.4586C90.7041 62.047 91.7486 61.5361 92.7462 60.9369L94.3245 63.9934C94.5205 64.3731 94.8401 64.5983 95.1928 64.6548L100.915 65.4307L98.955 60.0338L98.1641 60.2767L96.8599 57.7178C98.2308 56.3552 99.4518 54.7999 100.49 53.0969L103.044 54.6288C103.67 55.0046 104.469 54.6653 104.829 53.8723L104.829 53.8694ZM85.2213 51.8916C79.6188 52.391 74.9723 47.4719 74.9723 40.8936C74.9723 34.3153 79.6188 28.8117 85.2213 28.6071C90.6853 28.4069 95.0173 33.3461 95.0173 39.6336C95.0173 45.9211 90.6853 51.4047 85.2213 51.8916ZM109.149 39.2596L113.025 37.4231L109.149 36.9522V39.259V39.2596ZM104.39 54.931L108.825 55.5297L109.472 54.0165L105.798 51.7821L104.39 54.931Z" fill="#C1C7CA"/>
<path d="M112.682 37.3559L110.014 37.5104C109.829 35.4254 109.406 33.4373 108.775 31.5826L111.032 29.9019C111.648 29.4429 111.859 28.4725 111.504 27.7319L110.556 25.7575C110.198 25.0129 109.404 24.7758 108.781 25.2307L106.552 26.8573C105.514 25.1868 104.275 23.697 102.873 22.4348L104.155 19.7465C104.523 18.9751 104.305 17.9991 103.666 17.5635L101.959 16.3987C101.314 15.9585 100.486 16.2288 100.111 17.0047L98.825 19.6667C97.1727 18.8429 95.3865 18.2813 93.5028 18.031V14.9573C93.5028 14.0502 92.875 13.3159 92.0972 13.3159L90.0164 13.3171C89.229 13.3171 88.5886 14.0611 88.5886 14.9779V18.0863C86.6451 18.385 84.7717 19.0065 83.01 19.9062L81.6203 17.1718C81.2118 16.3679 80.3047 16.0976 79.5925 16.5697L77.6878 17.8337C76.9676 18.3115 76.7203 19.3571 77.1368 20.1662L78.5772 22.9633C77.0007 24.3732 75.5905 26.0346 74.3963 27.8967L71.7896 26.2906C71.0506 25.8351 70.1019 26.1447 69.6723 26.9851L68.5259 29.2268C68.0935 30.0729 68.3504 31.1248 69.098 31.5747L71.7964 33.1967C71.0483 35.2823 70.5429 37.5019 70.323 39.8052L67.0861 39.9922C66.2149 40.0424 65.5062 40.8657 65.5062 41.8304V44.396C65.5062 45.3607 66.2149 46.0927 67.0861 46.0311L70.409 45.7957C70.6893 48.0175 71.2437 50.1168 72.0306 52.0501L69.098 54.1899C68.3499 54.7355 68.0935 55.821 68.5259 56.6113L69.6723 58.7054C70.1019 59.4905 71.0506 59.678 71.7896 59.1273L74.7552 56.9191C75.9398 58.5149 77.3174 59.8975 78.8461 61.027L77.1374 64.5647C76.7209 65.4273 76.9682 66.441 77.6883 66.8259L79.5931 67.8447C80.3053 68.2256 81.2124 67.8385 81.6209 66.9821L83.3148 63.4313C84.9876 64.0368 86.7573 64.3806 88.5891 64.4296V68.2797C88.5891 69.1965 89.2295 69.8579 90.017 69.757L92.0978 69.4901C92.8749 69.3904 93.5034 68.5751 93.5034 67.668V63.8606C95.2799 63.3988 96.9699 62.6713 98.5424 61.7237L100.112 64.7711C100.487 65.4992 101.315 65.6628 101.96 65.1394L103.667 63.7551C104.306 63.2374 104.524 62.2328 104.156 61.5088L102.633 58.5121C103.997 57.1529 105.21 55.6015 106.242 53.9031L108.782 55.4294C109.405 55.8039 110.199 55.4647 110.557 54.6745L111.505 52.5781C111.861 51.7924 111.65 50.8488 111.033 50.4691L108.578 48.9565C109.243 47.0654 109.708 45.0659 109.943 42.9969L112.683 42.803C113.39 42.7529 113.961 42.0117 113.961 41.1473V38.8485C113.961 37.9842 113.39 37.316 112.683 37.357L112.682 37.3559ZM91.0597 52.7098C85.4896 53.2098 80.8694 48.3072 80.8694 41.7471C80.8694 35.1871 85.4891 29.6983 91.0597 29.4914C96.493 29.2896 100.8 34.2121 100.8 40.4825C100.8 46.7529 96.493 52.2217 91.0597 52.7098Z" fill="#D8DDE0"/>
<path d="M112.307 87.4421C112.366 114.021 98.2477 135.711 73.1039 136.425C72.7153 136.435 66.2986 136.423 65.9072 136.425C40.2221 136.487 19.3515 114.658 19.2917 87.6691C19.2318 60.6798 40.0061 38.7493 65.6913 38.6872C66.2918 38.6855 71.9302 38.7413 72.525 38.7636C97.3811 39.6935 112.248 61.084 112.306 87.4427L112.307 87.4421Z" fill="url(#paint1_linear_2_164)"/>
<path d="M74.4942 136.862C100.18 136.862 121.002 114.982 121.002 87.9925C121.002 61.0029 100.18 39.1235 74.4942 39.1235C48.8086 39.1235 27.9863 61.0029 27.9863 87.9925C27.9863 114.982 48.8086 136.862 74.4942 136.862Z" fill="url(#paint2_linear_2_164)"/>
<path style="mix-blend-mode:multiply" opacity="0.3" d="M74.4941 135.63C99.5324 135.63 119.83 114.302 119.83 87.9925C119.83 61.683 99.5324 40.355 74.4941 40.355C49.4558 40.355 29.1583 61.683 29.1583 87.9925C29.1583 114.302 49.4558 135.63 74.4941 135.63Z" fill="url(#paint3_linear_2_164)"/>
<path d="M74.4941 134.192C98.7766 134.192 118.461 113.508 118.461 87.9923C118.461 62.477 98.7766 41.7927 74.4941 41.7927C50.2117 41.7927 30.5269 62.477 30.5269 87.9923C30.5269 113.508 50.2117 134.192 74.4941 134.192Z" fill="url(#paint4_linear_2_164)"/>
<path d="M73.5545 133.205C97.3178 133.205 116.582 112.962 116.582 87.9924C116.582 63.0224 97.3178 42.7803 73.5545 42.7803C49.7913 42.7803 30.5274 63.0224 30.5274 87.9924C30.5274 112.962 49.7913 133.205 73.5545 133.205Z" fill="url(#paint5_linear_2_164)"/>
<path d="M78.0974 86.6977L110.873 99.4158C111.94 95.8228 112.516 92.0017 112.516 88.0393C112.516 67.6368 97.2712 50.9756 78.0979 49.947V86.6977H78.0974Z" fill="url(#paint6_linear_2_164)"/>
<g style="mix-blend-mode:multiply" opacity="0.54">
<g style="mix-blend-mode:multiply">
<path d="M62.7511 86.9667C59.3485 75.9391 71.6509 67.9811 69.7109 55.1278C68.8551 49.456 65.5242 44.8088 61.4282 41.0807C42.064 47.0255 27.9378 65.843 27.9868 88.1053C28.0466 115.095 48.9166 136.924 74.6023 136.861C80.9 136.845 86.9013 135.512 92.3739 133.116C91.5808 117.518 86.7993 108.707 81.7147 103.399C73.8781 95.2178 65.3453 95.3746 62.7511 86.9656V86.9667Z" fill="#D8DDE0"/>
</g>
</g>
<path d="M73.4337 91.5746C74.9445 91.5746 76.1692 90.2876 76.1692 88.7C76.1692 87.1123 74.9445 85.8253 73.4337 85.8253C71.923 85.8253 70.6983 87.1123 70.6983 88.7C70.6983 90.2876 71.923 91.5746 73.4337 91.5746Z" fill="url(#paint7_linear_2_164)"/>
<path d="M73.4338 65.7924C72.4789 65.7924 71.7051 66.6059 71.7051 67.6088V86.9862C71.7051 87.9896 72.4794 88.8027 73.4338 88.8027C74.3882 88.8027 75.1625 87.9891 75.1625 86.9862V67.6088C75.1625 66.6054 74.3882 65.7924 73.4338 65.7924Z" fill="url(#paint8_linear_2_164)"/>
<path d="M73.8804 88.4292L42.9056 79.3166C42.3597 79.1496 41.7598 79.4529 41.5655 79.9934C41.3718 80.5339 41.6566 81.1075 42.203 81.2739L73.1779 90.3865C73.7237 90.5536 74.3237 90.2502 74.518 89.7097C74.7117 89.1692 74.4268 88.5957 73.8804 88.4292Z" fill="url(#paint9_linear_2_164)"/>
<path d="M89.3937 154.852C90.0466 154.107 90.8118 151.912 90.7753 151.257C90.5332 146.901 90.6084 138.715 87.3647 135.439C86.8109 134.879 83.6926 136.653 82.8465 136.437C80.5839 137.085 79.8392 137.451 77.3858 137.01C70.1429 135.707 70.8289 120.679 59.1994 125.852C50.6814 129.642 47.0662 136.911 38.6599 125.906C30.2529 114.901 5.40537 103.24 0.824442 120.117C-1.80446 129.803 12.332 133.007 14.8236 142.36C17.191 151.248 24.288 154.03 34.1159 151.959C43.9439 149.888 42.9468 155.829 46.2076 163.385C50.1247 172.461 62.0745 164.154 67.2645 159.849C71.4437 156.381 84.4235 150.374 89.3925 154.852H89.3937Z" fill="url(#paint10_linear_2_164)"/>
<path d="M89.24 143.727L89.1842 143.524C57.9216 152.126 24.9469 141.236 0.976182 114.393L0.818939 114.533C12.1795 127.254 26.1041 136.739 41.0873 141.96C56.839 147.449 73.4899 148.061 89.24 143.726V143.727Z" fill="#FBFCFD"/>
<path d="M47.4043 167.344C51.9026 159.696 62.4313 150.321 70.8752 146.445L70.7875 146.254C62.3105 150.144 51.7396 159.557 47.2225 167.237L47.4037 167.344H47.4043Z" fill="#FBFCFD"/>
<path d="M83.0837 145.345L83.0859 145.135C78.2577 145.075 73.6449 142.574 69.3768 137.703C66.247 134.131 63.3714 129.391 60.8302 123.615L60.6377 123.7C63.1874 129.495 66.0744 134.254 69.2183 137.842C73.5281 142.76 78.1928 145.285 83.0837 145.346V145.345Z" fill="#FBFCFD"/>
<path d="M38.9894 141.137L39.003 140.926C29.9073 140.344 21.6918 145.283 16.4009 149.528L16.5326 149.692C21.7944 145.47 29.9614 140.559 38.9894 141.136V141.137Z" fill="#FBFCFD"/>
<path d="M20.4052 131.648L20.5528 131.498C13.229 124.297 11.6895 113.623 11.4235 107.901L11.2132 107.911C11.481 113.664 13.0307 124.397 20.4052 131.648Z" fill="#FBFCFD"/>
<path d="M156.27 80.9355L152.413 54.8846L143.793 55.7524C143.066 55.6173 141.683 56.3744 141.356 57.1378L130.037 83.5325C129.686 84.3512 130.224 85.2908 131.039 85.2851L134.271 85.1494V146.673C134.271 147.77 135.067 148.556 136.046 148.432L143.794 150.155C144.721 150.035 153.398 145.357 153.398 144.3V82.6277L155.358 82.6174C156.101 82.6134 156.589 81.7132 156.271 80.9361L156.27 80.9355Z" fill="url(#paint11_linear_2_164)"/>
<path style="mix-blend-mode:multiply" opacity="0.3" d="M142.821 84.8722L134.271 85.1493V146.673C134.271 147.77 135.067 148.556 136.045 148.431L143.794 150.155C144.175 150.106 145.875 149.282 147.74 148.256L142.821 84.8727V84.8722Z" fill="url(#paint12_linear_2_164)"/>
<path d="M164.612 83.0626L153.409 55.5505C153.031 54.6228 151.896 54.5647 151.516 55.457L139.726 83.1424C139.379 83.9566 139.912 84.891 140.718 84.8859L142.82 84.8722V148.514C142.82 149.604 143.608 150.387 144.577 150.262L160.121 148.25C161.031 148.132 161.766 147.185 161.766 146.132V84.7502L163.707 84.7377C164.444 84.7331 164.927 83.8363 164.612 83.0626H164.612Z" fill="url(#paint13_linear_2_164)"/>
<path d="M118.949 153.532L110.854 151.65C109.835 151.78 109.007 151.002 109.007 149.912V99.6562C109.007 98.5661 109.835 97.6579 110.854 97.6277L128.212 97.1168C129.166 97.0889 137.239 97.5462 137.239 97.5462L129.937 147.311C129.937 148.361 118.95 153.532 118.95 153.532L118.949 153.532Z" fill="url(#paint14_linear_2_164)"/>
<path d="M136.82 151.265L119.628 153.49C118.619 153.62 117.798 152.847 117.798 151.762V100.032C117.798 98.9474 118.619 98.0432 119.628 98.0135L136.82 97.5015C137.764 97.4736 138.528 98.2975 138.528 99.3425V149.153C138.528 150.198 137.765 151.144 136.82 151.266V151.265Z" fill="url(#paint15_linear_2_164)"/>
<path d="M91.8238 157.056L83.2864 155.172C82.1651 155.315 81.2529 154.504 81.2529 153.361L81.511 118.146C81.511 117.002 82.4232 116.02 83.5439 115.954L102.615 114.815C103.66 114.753 112.433 115.962 112.433 115.962L104.254 150.502C104.254 151.602 92.8824 156.919 91.8238 157.056Z" fill="url(#paint16_linear_2_164)"/>
<path d="M111.218 154.578L92.328 157.023C91.2176 157.166 90.3145 156.36 90.3145 155.222V118.885C90.3145 117.746 91.2176 116.769 92.328 116.702L111.218 115.561C112.254 115.498 113.091 116.335 113.091 117.429V152.354C113.091 153.448 112.254 154.443 111.218 154.577V154.578Z" fill="url(#paint17_linear_2_164)"/>
<path d="M60.8626 160.649L52.8721 159.057C51.6317 159.216 50.6227 158.369 50.6227 157.166V138.868C50.6227 137.665 51.6317 136.599 52.8721 136.487L73.933 134.589C75.0856 134.486 83.0658 135.42 83.0658 135.42L76.0172 154.011C76.0172 155.165 62.0312 160.498 60.862 160.649H60.8626Z" fill="url(#paint18_linear_2_164)"/>
<path d="M83.0664 158.221L62.2135 160.92C60.9857 161.079 59.9863 160.237 59.9863 159.04V139.688C59.9863 138.491 60.9851 137.429 62.2135 137.317L83.0664 135.42C84.2083 135.316 85.1301 136.163 85.1301 137.312V155.874C85.1301 157.023 84.2077 158.073 83.0664 158.221Z" fill="url(#paint19_linear_2_164)"/>
<path d="M42.5207 145.526L19.1471 147.94C18.1494 148.044 17.2885 148.672 16.8874 149.492C16.7341 149.805 16.6458 150.146 16.6458 150.496V160.551C16.6458 161.82 17.7192 162.86 19.1471 163.366L27.4064 165.009C28.7038 164.841 44.8288 159.1 44.8288 157.886L48.7021 153.223L52.6226 146.58C52.6226 146.58 43.7969 145.393 42.5201 145.525L42.5207 145.526Z" fill="url(#paint20_linear_2_164)"/>
<path d="M51.9644 162.245L28.8262 165.24C27.461 165.417 26.3499 164.537 26.3499 163.274V151.611C26.3499 150.348 27.461 149.209 28.8262 149.066L51.9644 146.65C53.2287 146.518 54.2497 147.391 54.2497 148.599V159.762C54.2497 160.97 53.2287 162.082 51.9644 162.245Z" fill="url(#paint21_linear_2_164)"/>
<defs>
<linearGradient id="paint0_linear_2_164" x1="57.2314" y1="94.3009" x2="41.3717" y2="139.347" gradientUnits="userSpaceOnUse">
<stop stop-color="#8195C2"/>
<stop offset="1" stop-color="#56729A"/>
</linearGradient>
<linearGradient id="paint1_linear_2_164" x1="201.804" y1="125.139" x2="-17.5403" y2="63.559" gradientUnits="userSpaceOnUse">
<stop stop-color="#142344"/>
<stop offset="1" stop-color="#3C5D84"/>
</linearGradient>
<linearGradient id="paint2_linear_2_164" x1="93.7107" y1="59.1047" x2="0.603247" y2="198.893" gradientUnits="userSpaceOnUse">
<stop stop-color="#CACDD2"/>
<stop offset="1" stop-color="#96999D"/>
</linearGradient>
<linearGradient id="paint3_linear_2_164" x1="98.1765" y1="54.8531" x2="70.2058" y2="93.9423" gradientUnits="userSpaceOnUse">
<stop stop-color="#CACDD2"/>
<stop offset="1" stop-color="#96999D"/>
</linearGradient>
<linearGradient id="paint4_linear_2_164" x1="45.4115" y1="10.134" x2="87.5748" y2="122.864" gradientUnits="userSpaceOnUse">
<stop stop-color="#CACDD2"/>
<stop offset="1" stop-color="#96999D"/>
</linearGradient>
<linearGradient id="paint5_linear_2_164" x1="20.0397" y1="232.321" x2="104" y2="6.17548" gradientUnits="userSpaceOnUse">
<stop stop-color="#EBEEEE"/>
<stop offset="1" stop-color="white"/>
</linearGradient>
<linearGradient id="paint6_linear_2_164" x1="104.605" y1="54.3143" x2="54.6657" y2="154.693" gradientUnits="userSpaceOnUse">
<stop stop-color="#CACDD2"/>
<stop offset="1" stop-color="#96999D"/>
</linearGradient>
<linearGradient id="paint7_linear_2_164" x1="49.7873" y1="44.59" x2="103.423" y2="144.511" gradientUnits="userSpaceOnUse">
<stop stop-color="#ACAFB4"/>
<stop offset="1" stop-color="#AAADB2"/>
</linearGradient>
<linearGradient id="paint8_linear_2_164" x1="54.5341" y1="42.042" x2="108.17" y2="141.963" gradientUnits="userSpaceOnUse">
<stop stop-color="#ACAFB4"/>
<stop offset="1" stop-color="#AAADB2"/>
</linearGradient>
<linearGradient id="paint9_linear_2_164" x1="-1.27414" y1="-25.7968" x2="121.243" y2="202.45" gradientUnits="userSpaceOnUse">
<stop stop-color="#ACAFB4"/>
<stop offset="1" stop-color="#AAADB2"/>
</linearGradient>
<linearGradient id="paint10_linear_2_164" x1="41.5417" y1="108.627" x2="59.7149" y2="224.729" gradientUnits="userSpaceOnUse">
<stop stop-color="#90ACD7"/>
<stop offset="1" stop-color="#6B86B7"/>
</linearGradient>
<linearGradient id="paint11_linear_2_164" x1="160.665" y1="159.582" x2="137.562" y2="81.4666" gradientUnits="userSpaceOnUse">
<stop stop-color="#142344"/>
<stop offset="1" stop-color="#3C5D84"/>
</linearGradient>
<linearGradient id="paint12_linear_2_164" x1="141.444" y1="138.92" x2="138.41" y2="114.797" gradientUnits="userSpaceOnUse">
<stop stop-color="#142344"/>
<stop offset="1" stop-color="#3C5D84"/>
</linearGradient>
<linearGradient id="paint13_linear_2_164" x1="151.772" y1="95.027" x2="143.186" y2="253.045" gradientUnits="userSpaceOnUse">
<stop stop-color="#ACAFB4"/>
<stop offset="1" stop-color="#AAADB2"/>
</linearGradient>
<linearGradient id="paint14_linear_2_164" x1="136.444" y1="168.98" x2="113.353" y2="90.8997" gradientUnits="userSpaceOnUse">
<stop stop-color="#142344"/>
<stop offset="1" stop-color="#3C5D84"/>
</linearGradient>
<linearGradient id="paint15_linear_2_164" x1="129.834" y1="93.7888" x2="121.257" y2="251.659" gradientUnits="userSpaceOnUse">
<stop stop-color="#ACAFB4"/>
<stop offset="1" stop-color="#AAADB2"/>
</linearGradient>
<linearGradient id="paint16_linear_2_164" x1="109.957" y1="179.208" x2="86.6896" y2="100.536" gradientUnits="userSpaceOnUse">
<stop stop-color="#142344"/>
<stop offset="1" stop-color="#3C5D84"/>
</linearGradient>
<linearGradient id="paint17_linear_2_164" x1="104.052" y1="92.3203" x2="95.4796" y2="250.093" gradientUnits="userSpaceOnUse">
<stop stop-color="#ACAFB4"/>
<stop offset="1" stop-color="#AAADB2"/>
</linearGradient>
<linearGradient id="paint18_linear_2_164" x1="79.7406" y1="190.103" x2="56.6475" y2="112.021" gradientUnits="userSpaceOnUse">
<stop stop-color="#142344"/>
<stop offset="1" stop-color="#3C5D84"/>
</linearGradient>
<linearGradient id="paint19_linear_2_164" x1="75.652" y1="90.766" x2="67.0921" y2="248.307" gradientUnits="userSpaceOnUse">
<stop stop-color="#ACAFB4"/>
<stop offset="1" stop-color="#AAADB2"/>
</linearGradient>
<linearGradient id="paint20_linear_2_164" x1="52.7326" y1="215.002" x2="24.1215" y2="118.262" gradientUnits="userSpaceOnUse">
<stop stop-color="#142344"/>
<stop offset="1" stop-color="#3C5D84"/>
</linearGradient>
<linearGradient id="paint21_linear_2_164" x1="43.9153" y1="89.0502" x2="35.3696" y2="246.33" gradientUnits="userSpaceOnUse">
<stop stop-color="#ACAFB4"/>
<stop offset="1" stop-color="#AAADB2"/>
</linearGradient>
</defs>
</svg>
