<svg width="164" height="164" viewBox="0 0 164 164" fill="none" xmlns="http://www.w3.org/2000/svg">
<path d="M84.8677 0.971783C43.1701 -0.204182 7.05153 28.6914 1.5943 66.6065C-4.37224 108.061 28.4661 145.361 68.8723 151.335C119.131 158.765 167.878 115.778 163.501 69.1425C160.204 34.0068 127.254 2.16677 84.8682 0.971223L84.8677 0.971783Z" fill="#F4F6F8"/>
<path d="M40.146 98.1103C40.2014 98.1293 40.2562 98.1483 40.3115 98.1673C43.5849 99.2862 47.3599 99.9307 51.7029 99.7629L54.2355 99.4854C54.7929 97.421 54.9534 95.3578 52.3178 94.7709C48.2248 93.8596 47.621 86.815 48.5407 84.2409C49.6784 81.0554 52.1753 73.5834 45.8699 72.0757C40.6207 70.8203 36.9771 71.0832 36.1424 64.4963C35.3083 57.9093 31.4047 54.0429 25.4399 54.8675C19.1625 55.7347 13.3877 47.706 8.42247 50.8876C-0.229357 56.4312 8.97428 70.4175 20.2264 73.8514C31.4791 77.2858 25.4818 81.6854 25.5752 87.1182C25.7026 94.5354 35.5705 92.2388 38.4157 94.9516C39.3795 95.8702 39.8956 96.9836 40.1455 98.1097L40.146 98.1103Z" fill="url(#paint0_linear_2_321)"/>
<g style="mix-blend-mode:soft-light" opacity="0.5">
<g style="mix-blend-mode:soft-light">
<path d="M46.4418 99.5246L46.7292 99.444C40.8236 78.4165 24.7482 60.3603 4.7766 52.3215L4.66534 52.5985C24.5531 60.6036 40.5608 78.5844 46.4418 99.5246Z" fill="#FBFCFD"/>
</g>
<g style="mix-blend-mode:soft-light">
<path d="M42.2408 88.3366L42.5388 88.3143C41.8942 79.7547 48.715 72.5305 48.7838 72.4583L48.5685 72.2513C48.4986 72.3241 41.5867 79.6417 42.2408 88.3361V88.3366Z" fill="#FBFCFD"/>
</g>
<g style="mix-blend-mode:soft-light">
<path d="M45.2499 95.6863L45.5014 95.5252C40.8085 88.198 24.9702 88.3054 24.8109 88.3071L24.8148 88.6059C24.9724 88.6042 40.6469 88.4985 45.2504 95.6863H45.2499Z" fill="#FBFCFD"/>
</g>
<g style="mix-blend-mode:soft-light">
<path d="M30.2708 70.5921L30.5353 70.4528C27.3216 64.3436 30.7097 54.3149 30.7444 54.2142L30.462 54.1168C30.4268 54.2186 26.9979 64.3699 30.2708 70.5915V70.5921Z" fill="#FBFCFD"/>
</g>
<g style="mix-blend-mode:soft-light">
<path d="M20.0172 61.2564L20.1542 60.9907C13.1662 57.3867 2.99367 60.4357 2.89136 60.467L2.97858 60.7529C3.07921 60.7216 13.1383 57.7084 20.0172 61.2564Z" fill="#FBFCFD"/>
</g>
</g>
<path d="M48.749 108.141L33.9439 108.091C33.9439 108.091 31.1826 100.482 34.8289 95.1306C42.2687 84.213 32.1934 78.4545 28.3346 75.4111C22.5146 70.8214 19.9629 64.908 26.9934 61.1015C34.948 56.7948 27.9886 45.2355 17.5214 39.1783C7.27896 33.2509 11.8976 11.6114 35.2438 22.4032C49.1862 28.8481 46.9488 43.6556 47.5951 51.4018C48.242 59.1479 59.7496 59.8282 55.7784 69.2751C52.3859 77.3446 45.9732 83.2149 50.8333 88.787C55.6934 94.3591 56.177 100.59 48.7485 108.141L48.749 108.141Z" fill="url(#paint1_linear_2_321)"/>
<g style="mix-blend-mode:soft-light" opacity="0.5">
<g style="mix-blend-mode:soft-light">
<path d="M42.3367 109.494L42.0292 109.437C42.065 109.247 45.5554 90.1688 43.3168 70.2126C41.2549 51.8274 33.7665 28.9129 9.80359 24.1536L9.86453 23.847C20.5319 25.9657 28.8773 31.7952 34.6689 41.1744C39.2958 48.6665 42.3099 58.4267 43.6282 70.1841C45.8707 90.1861 42.3719 109.303 42.3367 109.494V109.494Z" fill="#B1BDD9"/>
</g>
<g style="mix-blend-mode:soft-light">
<path d="M36.9202 45.1986L36.6099 45.1589C37.9299 34.8337 34.0471 20.1469 34.0079 19.9998L34.3098 19.9187C34.3495 20.0664 38.248 34.813 36.9202 45.1986Z" fill="#B1BDD9"/>
</g>
<g style="mix-blend-mode:soft-light">
<path d="M32.8898 39.0553C22.3908 32.46 12.5498 35.5739 12.452 35.6063L12.3547 35.3092C12.4542 35.2762 22.4283 32.1142 33.0564 38.7907L32.8904 39.0559L32.8898 39.0553Z" fill="#B1BDD9"/>
</g>
<g style="mix-blend-mode:soft-light">
<path d="M44.0699 83.3396C40.6254 68.5824 20.5957 64.8979 20.3978 64.8783L20.4078 64.5662C20.6041 64.5667 40.8994 68.3805 44.3741 83.2686L44.0699 83.3396Z" fill="#B1BDD9"/>
</g>
<g style="mix-blend-mode:soft-light">
<path d="M44.1878 77.0917L43.882 77.0268C45.8818 67.566 56.1673 61.0864 56.2713 61.0215L56.4362 61.2872C56.3333 61.351 46.1602 67.7623 44.1883 77.0912L44.1878 77.0917Z" fill="#B1BDD9"/>
</g>
<g style="mix-blend-mode:soft-light">
<path d="M42.5128 106.423C42.0818 100.682 33.9085 96.1097 33.8257 96.0638L33.9767 95.7903C34.3194 95.9794 42.3809 100.489 42.8242 106.399L42.5128 106.423Z" fill="#B1BDD9"/>
</g>
<g style="mix-blend-mode:soft-light">
<path d="M43.4001 101.916L43.092 101.863C43.8731 97.378 50.6676 92.4028 52.9006 90.7681C53.2159 90.5371 53.4888 90.3374 53.5301 90.2926L53.7627 90.5013C53.7051 90.5656 53.5245 90.6988 53.0851 91.0204C50.8773 92.6372 44.1593 97.5565 43.4001 101.916Z" fill="#B1BDD9"/>
</g>
</g>
<path d="M118.64 86.4115C120.269 89.9327 118.716 93.4555 117.226 95.8259C116.87 95.8282 116.664 95.9266 116.305 96.0145C113.063 96.8033 111.543 96.4022 108.248 96.6405C107.538 96.692 105.432 96.1627 104.585 95.8869L103.015 95.3454C103.015 95.3454 100.23 86.7796 104.607 84.4137C108.985 82.0478 107.309 73.5235 106.941 68.8739C105.946 56.2594 119.568 57.4062 119.583 41.0938C119.587 36.7553 118.145 28.4799 121.801 25.0247C125.965 21.0878 129.006 24.9497 131.683 21.6574C135.868 16.5115 142.66 14.6659 146.708 19.9617C150.704 25.1881 145.849 35.5916 133.78 43.9537C125.801 50.934 125.676 53.0235 126.304 58.1128C126.744 61.6776 130.142 70.9629 125.307 74.6709C120.472 78.3789 116.776 82.3857 118.639 86.4109L118.64 86.4115Z" fill="url(#paint2_linear_2_321)"/>
<g style="mix-blend-mode:soft-light" opacity="0.5">
<g style="mix-blend-mode:soft-light">
<path d="M109.964 96.7732L109.723 96.743C109.902 95.3086 110.1 93.8641 110.312 92.4503C111.879 81.9797 114.367 72.0343 117.705 62.8901C120.534 55.1423 124.013 47.8599 128.044 41.2461C131.285 35.9268 134.9 31.0093 138.788 26.6288C141.521 23.5496 144.36 20.7657 147.226 18.3556C147.725 17.9355 148.259 17.5338 148.776 17.145C149.464 16.6275 150.176 16.0921 150.811 15.5092L150.974 15.6882C150.331 16.2795 149.615 16.8183 148.921 17.3397C148.408 17.7262 147.876 18.1263 147.382 18.5419C144.525 20.9448 141.695 23.7202 138.969 26.791C135.091 31.1603 131.485 36.0667 128.25 41.3737C124.228 47.974 120.756 55.2419 117.933 62.9752C114.6 72.1037 112.116 82.0334 110.551 92.4878C110.34 93.8999 110.142 95.3421 109.964 96.7749V96.7732Z" fill="#FBFCFD"/>
</g>
<g style="mix-blend-mode:soft-light">
<path d="M123.68 49.6211L123.46 49.5181C127.88 40.0914 123.999 22.6763 123.959 22.5017L124.196 22.448C124.235 22.6237 128.135 40.1194 123.68 49.6216V49.6211Z" fill="#FBFCFD"/>
</g>
<g style="mix-blend-mode:soft-light">
<path d="M113.625 77.0751L113.395 76.9984C115.65 70.2403 128.293 65.024 128.421 64.9719L128.513 65.1968C128.386 65.2483 115.845 70.4226 113.626 77.0751H113.625Z" fill="#FBFCFD"/>
</g>
<g style="mix-blend-mode:soft-light">
<path d="M112.678 81.0203L112.438 80.985C113.107 76.383 111.562 69.7485 108.087 62.3055C107.971 62.056 107.914 61.916 107.918 61.8854L108.159 61.9173L108.038 61.9011L108.155 61.8708C108.164 61.8971 108.23 62.0387 108.307 62.202C111.801 69.688 113.354 76.3707 112.678 81.0197V81.0203Z" fill="#FBFCFD"/>
</g>
<g style="mix-blend-mode:soft-light">
<path d="M110.327 94.16L110.107 94.0576C112.263 89.4114 119.631 87.5781 119.705 87.5602L119.762 87.7957C119.689 87.8136 112.433 89.6201 110.327 94.16Z" fill="#FBFCFD"/>
</g>
<g style="mix-blend-mode:soft-light">
<path d="M109.597 96.7922C108.684 92.7641 106.584 88.8664 103.179 84.877L103.364 84.7192C106.795 88.7394 108.911 92.6707 109.834 96.7385L109.597 96.7922Z" fill="#FBFCFD"/>
</g>
<g style="mix-blend-mode:soft-light">
<path d="M136.722 29.407L136.509 29.2918C139.258 24.1879 140.964 18.1884 141.525 16.2163C141.661 15.7391 141.709 15.5713 141.735 15.5159L141.953 15.6222C141.933 15.6647 141.856 15.9377 141.758 16.2829C141.195 18.2605 139.484 24.2797 136.722 29.407Z" fill="#FBFCFD"/>
</g>
<g style="mix-blend-mode:soft-light">
<path d="M131.025 37.0442L130.855 36.8713C134.727 33.057 145.594 33.1789 146.054 33.1862L146.05 33.429C145.939 33.4273 134.825 33.3015 131.025 37.0447V37.0442Z" fill="#FBFCFD"/>
</g>
</g>
<path d="M99.4116 116.918L113.539 121.349C113.539 121.349 118.47 114.931 116.611 108.728C112.818 96.0704 124.162 93.6295 128.76 91.8964C135.694 89.282 139.913 84.4171 134.361 78.662C128.08 72.15 138.206 63.2374 150.013 60.6304C161.567 58.0793 163.702 36.0548 138.189 39.2789C122.952 41.204 120.61 55.9953 117.653 63.1837C114.696 70.3721 103.522 67.5384 104.453 77.7451C105.248 86.463 109.587 93.9993 103.272 97.8399C96.9555 101.681 94.6118 107.474 99.411 116.918H99.4116Z" fill="url(#paint3_linear_2_321)"/>
<g style="mix-blend-mode:soft-light" opacity="0.5">
<g style="mix-blend-mode:soft-light">
<path d="M105.115 120.148L105.425 120.186C105.449 119.993 107.886 100.753 116.049 82.4078C123.569 65.5068 137.63 45.93 161.909 48.6433L161.944 48.3323C151.136 47.1244 141.42 50.1566 133.065 57.3445C126.391 63.0861 120.569 71.4779 115.76 82.2864C107.58 100.674 105.138 119.955 105.115 120.148Z" fill="#B1BDD9"/>
</g>
<g style="mix-blend-mode:soft-light">
<path d="M129.704 60.4993L130.011 60.5552C131.873 50.3134 140.011 37.4891 140.093 37.3604L139.83 37.192C139.748 37.3212 131.576 50.1976 129.704 60.4993Z" fill="#B1BDD9"/>
</g>
<g style="mix-blend-mode:soft-light">
<path d="M135.401 55.8632C147.402 52.7526 155.842 58.6985 155.925 58.7589L156.108 58.5055C156.023 58.4439 147.471 52.4125 135.324 55.5611L135.402 55.8637L135.401 55.8632Z" fill="#B1BDD9"/>
</g>
<g style="mix-blend-mode:soft-light">
<path d="M111.365 94.6923C119.107 81.6677 139.312 84.2149 139.507 84.2563L139.592 83.9553C139.405 83.8966 118.907 81.3919 111.096 94.5323L111.365 94.6923Z" fill="#B1BDD9"/>
</g>
<g style="mix-blend-mode:soft-light">
<path d="M113.14 88.7017L113.452 88.7325C114.404 79.1094 106.558 69.8214 106.478 69.7285L106.241 69.9322C106.32 70.0239 114.08 79.2129 113.14 88.7023V88.7017Z" fill="#B1BDD9"/>
</g>
<g style="mix-blend-mode:soft-light">
<path d="M105.875 117.167C108.021 111.825 117.193 109.94 117.286 109.921L117.225 109.615C116.841 109.691 107.795 111.551 105.586 117.05L105.876 117.167L105.875 117.167Z" fill="#B1BDD9"/>
</g>
<g style="mix-blend-mode:soft-light">
<path d="M106.391 112.602L106.701 112.644C107.311 108.134 102.338 101.336 100.704 99.1018C100.473 98.7863 100.273 98.5138 100.247 98.4579L99.9622 98.5865C99.998 98.6654 100.13 98.8473 100.451 99.2864C102.067 101.495 106.985 108.217 106.391 112.602Z" fill="#B1BDD9"/>
</g>
</g>
<path d="M112.784 120.499C112.731 120.523 112.678 120.548 112.625 120.573C109.483 122.021 105.794 123.047 101.456 123.324C100.607 123.318 99.7578 123.312 98.9085 123.307C98.1431 121.31 97.773 119.274 100.335 118.421C104.313 117.096 104.195 110.026 103.018 107.56C101.561 104.508 98.3148 97.3303 104.433 95.1859C109.527 93.4007 113.179 93.29 113.337 86.6526C113.494 80.0148 116.983 75.7702 123.001 75.9806C129.334 76.2021 134.259 67.6252 139.524 70.2825C148.696 74.9131 140.968 89.7665 130.124 94.3328C119.281 98.899 125.696 102.663 126.158 108.077C126.788 115.468 116.737 114.192 114.184 117.181C113.319 118.194 112.919 119.354 112.785 120.499L112.784 120.499Z" fill="url(#paint4_linear_2_321)"/>
<g style="mix-blend-mode:soft-light" opacity="0.5">
<g style="mix-blend-mode:soft-light">
<path d="M106.665 122.549L106.371 122.498C110.1 100.977 124.249 81.3732 143.296 71.3356L143.435 71.6002C124.468 81.5953 110.379 101.118 106.665 122.549H106.665Z" fill="#FBFCFD"/>
</g>
<g style="mix-blend-mode:soft-light">
<path d="M109.702 110.99L109.404 110.999C109.171 102.418 101.649 95.9284 101.573 95.864L101.767 95.6364C101.844 95.7018 109.466 102.275 109.702 110.99Z" fill="#FBFCFD"/>
</g>
<g style="mix-blend-mode:soft-light">
<path d="M107.459 118.609L107.192 118.474C111.113 110.706 126.88 109.194 127.038 109.18L127.065 109.478C126.908 109.492 111.305 110.989 107.459 118.609Z" fill="#FBFCFD"/>
</g>
<g style="mix-blend-mode:soft-light">
<path d="M119.799 92.1159L119.521 92.0045C122.094 85.5988 117.701 75.969 117.656 75.8722L117.927 75.7463C117.972 75.8442 122.419 85.5915 119.798 92.1159H119.799Z" fill="#FBFCFD"/>
</g>
<g style="mix-blend-mode:soft-light">
<path d="M129.046 81.781L128.883 81.5309C135.466 77.2321 145.897 79.2255 146.002 79.2462L145.944 79.5393C145.841 79.5186 135.527 77.5488 129.046 81.781Z" fill="#FBFCFD"/>
</g>
</g>
<path d="M124.53 36.3879L38.65 31.4166C36.672 31.3198 34.8913 33.4798 34.8913 35.2936V145.952C34.8913 148.468 37.4586 148.974 39.4366 148.771L124.53 140.075C126.084 139.916 127.339 138.493 127.339 136.895V39.4173C127.339 37.8195 126.084 36.4634 124.53 36.3873L124.53 36.3879Z" fill="url(#paint5_linear_2_321)"/>
<path d="M125.943 35.5088L39.8929 31.2726C37.9149 31.1753 36.3041 32.5778 36.3041 34.4055V145.929C36.3041 147.757 37.9149 149.073 39.8929 148.869L125.943 140.007C127.497 139.847 128.752 138.412 128.752 136.802V38.5628C128.752 36.9527 127.497 35.586 125.943 35.5093V35.5088Z" fill="#D8DDE0"/>
<path style="mix-blend-mode:multiply" opacity="0.3" d="M39.893 147.357C38.8262 147.465 37.9557 146.751 37.9557 145.766V34.4801C37.9557 33.4955 38.8257 32.7352 39.893 32.7856L125.943 36.8528C126.783 36.8925 127.465 37.6332 127.465 38.5043V136.929C127.465 137.8 126.783 138.578 125.943 138.663L39.893 147.357Z" fill="url(#paint6_linear_2_321)"/>
<path d="M120.396 136.023L46.798 143.119V40.4476L120.396 43.2214V136.023Z" fill="white"/>
<g style="mix-blend-mode:multiply" opacity="0.3">
<path d="M90.9595 43.7239L61.5455 44.092L62.2052 37.4541C62.255 36.5915 62.8784 35.8837 63.6986 35.7573L68.68 34.9914C69.2665 34.9014 69.7713 34.5131 70.0279 33.9564L70.568 32.7827L83.5975 33.5878L90.9595 43.7239Z" fill="#9AA5AA"/>
</g>
<path d="M106.667 39.4179C106.527 38.6671 105.926 38.1395 105.168 38.106L100.468 37.895C98.3345 37.7994 96.7708 36.0651 96.849 33.8687L97.0302 28.7782C97.0637 27.8367 96.3917 27.0826 95.4687 27.0272L93.9245 26.9349C92.747 26.8644 91.9632 25.826 92.1281 24.6249C92.4166 22.5258 90.9798 20.7143 88.8966 20.5722C86.7973 20.429 84.8382 22.0341 84.5257 24.16C84.4793 24.4761 84.3725 24.7882 84.1992 25.0669C83.7139 25.8456 82.8641 26.2741 82.0316 26.2244L80.4388 26.1292C79.4738 26.0716 78.5564 26.7497 78.312 27.703L76.9876 32.8701C76.4145 35.1045 74.2542 36.7196 71.9597 36.6167L66.8039 36.3856C65.9596 36.3476 65.1305 36.8405 64.742 37.6125L61.6351 43.7816C61.3808 44.2868 61.6938 44.8328 62.2484 44.8513L106.96 46.3371C107.449 46.3534 107.864 45.865 107.774 45.3799L106.667 39.4184V39.4179ZM88.2632 24.9779C87.6471 24.9399 87.2199 24.4039 87.3094 23.7812C87.3988 23.1586 87.9714 22.6864 88.5869 22.7267C89.2013 22.767 89.6262 23.3023 89.5373 23.9228C89.4479 24.5432 88.8782 25.016 88.2632 24.9779Z" fill="url(#paint7_linear_2_321)"/>
<path d="M106.932 39.5559C106.792 38.8052 106.191 38.2776 105.433 38.244L100.733 38.0331C98.5995 37.9375 97.0357 36.2032 97.114 34.0068L97.2952 28.9163C97.3287 27.9748 96.6567 27.2206 95.7336 27.1652L94.1894 27.0729C93.012 27.0024 92.2282 25.9641 92.3931 24.763C92.6816 22.6639 91.2447 20.8524 89.1616 20.7103C87.0622 20.5671 85.1032 22.1721 84.7901 24.2981C84.7437 24.6141 84.6369 24.9263 84.4636 25.2049C83.9783 25.9837 83.1285 26.4122 82.296 26.3624L80.7032 26.2673C79.7382 26.2097 78.8208 26.8878 78.5764 27.8411L77.252 33.0081C76.6789 35.2426 74.5186 36.8577 72.2241 36.7548L67.0683 36.5237C66.224 36.4857 65.3949 36.9785 65.0064 37.7506L61.8995 43.9197C61.6452 44.4248 61.9582 44.9709 62.5128 44.9893L107.224 46.4752C107.713 46.4915 108.129 46.0031 108.039 45.518L106.931 39.5565L106.932 39.5559ZM88.5281 25.116C87.912 25.0779 87.4849 24.542 87.5744 23.9193C87.6638 23.2966 88.2363 22.8245 88.8519 22.8648C89.4663 22.905 89.8912 23.4404 89.8023 24.0609C89.7128 24.6818 89.1431 25.154 88.5281 25.116Z" fill="#9AA5AA"/>
<g style="mix-blend-mode:soft-light" opacity="0.5">
<path d="M99.2798 42.3907C95.2913 39.9269 92.2315 41.6741 89.7458 38.8953C87.0851 35.9207 88.8797 32.0045 86.1263 30.1567C84.3635 28.9734 82.7913 30.0168 80.7412 29.6968C79.9903 29.5793 79.1897 29.2811 78.3572 28.6987L77.2525 33.0082C76.6794 35.2426 74.5191 36.8572 72.2246 36.7548L67.0688 36.5238C66.2246 36.4857 65.3954 36.9786 65.0068 37.7506L61.9 43.9197C61.6456 44.4249 61.9587 44.9709 62.5134 44.9888L103.146 46.3393C102.123 44.713 100.851 43.3625 99.2798 42.3913V42.3907Z" fill="white"/>
</g>
<path d="M113.219 56.4805L56.2187 56.133V52.7467L113.219 53.2183V56.4805Z" fill="#D8DDE0"/>
<path d="M113.219 62.1924L56.2187 62.0626V58.6757L113.219 58.9302V62.1924Z" fill="#D8DDE0"/>
<path d="M113.219 67.9044L56.2187 67.9923V64.6053L113.219 64.6417V67.9044Z" fill="#D8DDE0"/>
<path d="M113.219 73.6165L56.2187 73.9219V70.535L113.219 70.3538V73.6165Z" fill="#D8DDE0"/>
<path d="M103.58 83.0241L55.3661 84.186V80.6587L103.58 79.7172V83.0241Z" fill="#D8DDE0"/>
<path d="M103.58 88.8129L55.3661 90.3609V86.8342L103.58 85.5066V88.8129Z" fill="#D8DDE0"/>
<path d="M103.58 94.602L55.3661 96.536V93.0092L103.58 91.2957V94.602Z" fill="#D8DDE0"/>
<path d="M103.58 100.391L55.3661 102.711V99.1838L103.58 97.0842V100.391Z" fill="#D8DDE0"/>
<path d="M113.219 82.7915L106.877 82.9447V79.6529L113.219 79.5293V82.7915Z" fill="#D8DDE0"/>
<path d="M113.219 88.5034L106.877 88.707V85.4157L113.219 85.2412V88.5034Z" fill="#D8DDE0"/>
<path d="M113.219 94.2155L106.877 94.47V91.1782L113.219 90.9528V94.2155Z" fill="#D8DDE0"/>
<path d="M113.219 99.9274L106.877 100.232V96.941L113.219 96.6647V99.9274Z" fill="#D8DDE0"/>
<path d="M103.58 109.785L55.3661 112.732V109.205L103.58 106.479V109.785Z" fill="#D8DDE0"/>
<path d="M103.58 115.575L55.3661 118.907V115.38L103.58 112.268V115.575Z" fill="#D8DDE0"/>
<path d="M103.58 121.364L55.3661 125.082V121.555L103.58 118.057V121.364Z" fill="#D8DDE0"/>
<path d="M103.58 127.152L55.3661 131.257V127.73L103.58 123.846V127.152Z" fill="#D8DDE0"/>
<path d="M113.219 109.196L106.877 109.584V106.292L113.219 105.934V109.196Z" fill="#D8DDE0"/>
<path d="M113.219 114.908L106.877 115.347V112.055L113.219 111.646V114.908Z" fill="#D8DDE0"/>
<path d="M113.219 120.62L106.877 121.109V117.818L113.219 117.358V120.62Z" fill="#D8DDE0"/>
<path d="M113.219 126.332L106.877 126.872V123.58L113.219 123.07V126.332Z" fill="#D8DDE0"/>
<path d="M143.907 83.0096L23.137 79.9724C16.4403 79.804 10.8914 84.8547 10.8914 91.257V115.525C10.8914 121.927 16.4403 126.791 23.137 126.397L143.907 119.288C147.91 119.053 151.101 114.963 151.101 110.15V91.9054C151.101 87.0919 147.91 83.1097 143.907 83.009V83.0096Z" fill="url(#paint8_linear_2_321)"/>
<path d="M145.227 83.0096L24.4572 79.9724C17.7605 79.804 12.2116 84.8547 12.2116 91.257V115.525C12.2116 121.927 17.7605 126.791 24.4572 126.397L145.227 119.288C149.23 119.053 152.421 114.963 152.421 110.15V91.9054C152.421 87.0919 149.23 83.1097 145.227 83.009V83.0096Z" fill="#9AA5AA"/>
<path d="M24.4571 124.885C18.6723 125.209 13.8754 120.985 13.8754 115.461V91.2648C13.8754 85.7414 18.6717 81.3547 24.4571 81.4845L145.227 84.1911C148.695 84.2689 151.476 87.7269 151.476 91.9015V110.186C151.476 114.36 148.695 117.912 145.227 118.107L24.4571 124.884V124.885Z" fill="url(#paint9_linear_2_321)"/>
<path d="M40.5308 90.9086L43.9725 97.7266C44.0994 97.9778 44.3437 98.1501 44.6266 98.1881L52.1463 99.2007C52.8373 99.2936 53.1124 100.137 52.6132 100.628L47.2029 105.958C47.0005 106.158 46.9077 106.441 46.9558 106.715L48.2439 114.097C48.3636 114.784 47.6295 115.341 46.9994 115.039L40.1506 111.759C39.8934 111.636 39.5859 111.646 39.3282 111.787L32.2787 115.627C31.6117 115.991 30.8295 115.478 30.9576 114.758L32.3245 107.07C32.3749 106.786 32.2776 106.499 32.0635 106.304L26.2188 100.969C25.667 100.465 25.9717 99.5722 26.7332 99.4592L34.7627 98.2687C35.0557 98.2251 35.3089 98.046 35.4398 97.7887L38.9469 90.9002C39.2717 90.2618 40.2082 90.2686 40.5313 90.9091L40.5308 90.9086Z" fill="#D8DDE0"/>
<path d="M68.0552 91.0601L71.1537 97.5296C71.2677 97.7679 71.488 97.9318 71.7429 97.9677L78.5207 98.9321C79.1441 99.0211 79.3924 99.8217 78.9417 100.288L74.0637 105.345C73.8809 105.534 73.7976 105.803 73.8412 106.063L75.0024 113.073C75.1103 113.726 74.4484 114.253 73.8809 113.966L67.7131 110.841C67.4816 110.723 67.2049 110.733 66.9728 110.865L60.6334 114.494C60.034 114.837 59.3313 114.349 59.4465 113.668L60.6748 106.382C60.7201 106.113 60.6323 105.841 60.4399 105.656L55.1913 100.594C54.6959 100.117 54.9693 99.2712 55.6531 99.1643L62.8664 98.0392C63.1297 97.9984 63.3573 97.8283 63.4747 97.5844L66.629 91.0511C66.9214 90.4458 67.7639 90.4514 68.0552 91.059V91.0601Z" fill="url(#paint10_linear_2_321)"/>
<path d="M92.8937 91.1973L95.6981 97.3524C95.8015 97.579 96.0011 97.735 96.2315 97.7697L102.372 98.6906C102.938 98.7751 103.162 99.5376 102.754 99.9818L98.3336 104.791C98.1682 104.972 98.0927 105.227 98.1318 105.474L99.1834 112.148C99.2813 112.769 98.6814 113.27 98.167 112.995L92.5835 110.012C92.3744 109.9 92.1239 109.908 91.9142 110.034L86.1831 113.474C85.6413 113.799 85.0067 113.334 85.1107 112.686L86.2205 105.763C86.2613 105.507 86.1825 105.249 86.0086 105.072L81.2687 100.258C80.822 99.8045 81.0685 99.0011 81.6852 98.8998L88.2008 97.8341C88.439 97.7949 88.6447 97.6332 88.7509 97.4022L91.6034 91.1895C91.8678 90.6138 92.6304 90.6188 92.8937 91.1967V91.1973Z" fill="url(#paint11_linear_2_321)"/>
<path d="M115.421 91.322L117.971 97.1917C118.065 97.4077 118.247 97.5571 118.456 97.5901L124.046 98.4712C124.56 98.5523 124.766 99.2802 124.394 99.7037L120.369 104.289C120.218 104.461 120.15 104.705 120.185 104.941L121.143 111.309C121.232 111.902 120.686 112.379 120.218 112.116L115.14 109.262C114.95 109.155 114.722 109.162 114.531 109.282L109.325 112.551C108.833 112.86 108.257 112.416 108.351 111.799L109.359 105.204C109.396 104.96 109.324 104.714 109.166 104.546L104.864 99.956C104.459 99.5235 104.683 98.7582 105.242 98.6625L111.157 97.6494C111.373 97.6124 111.56 97.4586 111.657 97.2376L114.249 91.3158C114.489 90.7664 115.182 90.7715 115.422 91.3225L115.421 91.322Z" fill="url(#paint12_linear_2_321)"/>
<path d="M135.945 91.435L138.275 97.0446C138.36 97.2511 138.526 97.3937 138.718 97.4256L143.827 98.2704C144.298 98.3481 144.485 99.0441 144.146 99.4497L140.466 103.832C140.328 103.996 140.265 104.229 140.298 104.455L141.173 110.544C141.254 111.111 140.755 111.566 140.328 111.313L135.689 108.577C135.515 108.475 135.308 108.481 135.133 108.596L130.383 111.71C129.934 112.004 129.409 111.579 129.495 110.99L130.413 104.693C130.447 104.461 130.381 104.226 130.238 104.065L126.317 99.6791C125.947 99.2662 126.151 98.5356 126.661 98.4444L132.054 97.4793C132.252 97.4441 132.422 97.2969 132.51 97.086L134.875 91.4288C135.094 90.9041 135.727 90.9086 135.946 91.435H135.945Z" fill="#D8DDE0"/>
<g style="mix-blend-mode:multiply" opacity="0.1">
<g style="mix-blend-mode:multiply">
<path d="M128.43 103.149C113.439 99.3182 103.224 119.719 85.2655 115.616C69.4009 111.991 68.9536 94.9483 49.7228 82.8424C48.3899 82.0038 47.0308 81.2261 45.6471 80.5056L24.4572 79.973C17.7605 79.8046 12.2116 84.8553 12.2116 91.2577V115.525C12.2116 121.928 17.7605 126.792 24.4572 126.397L144.459 119.334C139.044 108.292 133.277 104.388 128.429 103.149H128.43Z" fill="#9AA5AA"/>
</g>
</g>
<path d="M40.5308 90.9086L43.9725 97.7266C44.0994 97.9778 44.3437 98.1501 44.6266 98.1881L52.1463 99.2007C52.8373 99.2936 53.1124 100.137 52.6132 100.628L47.2029 105.958C47.0005 106.158 46.9077 106.441 46.9558 106.715L48.2439 114.097C48.3636 114.784 47.6295 115.341 46.9994 115.039L40.1506 111.759C39.8934 111.636 39.5859 111.646 39.3282 111.787L32.2787 115.627C31.6117 115.991 30.8295 115.478 30.9576 114.758L32.3245 107.07C32.3749 106.786 32.2776 106.499 32.0635 106.304L26.2188 100.969C25.667 100.465 25.9717 99.5722 26.7332 99.4592L34.7627 98.2687C35.0557 98.2251 35.3089 98.046 35.4398 97.7887L38.9469 90.9002C39.2717 90.2618 40.2082 90.2686 40.5313 90.9091L40.5308 90.9086Z" fill="url(#paint13_linear_2_321)"/>
<path d="M56.3246 82.0502C56.5265 81.7375 56.8949 81.0712 56.9184 80.1766C56.9642 78.4384 55.6755 77.0823 55.5028 77.16C55.4094 77.202 55.5279 77.7111 55.5939 77.9371C55.732 78.4071 55.8801 78.4524 55.8678 78.6683C55.8421 79.1125 55.2014 79.1299 54.8632 79.7195C54.6194 80.1442 54.6004 80.7489 54.8632 81.2278C55.2993 82.0217 56.2833 82.0502 56.3246 82.0502Z" fill="url(#paint14_linear_2_321)"/>
<path d="M83.8477 119.807L83.3524 118.102L85.4198 116.569L86.7086 116.087L85.9454 118.473L83.8477 119.807Z" fill="url(#paint15_linear_2_321)"/>
<path d="M81.2883 154.152C81.2883 154.152 82.4193 156.999 82.1219 158.261C83.3362 158.237 84.1217 158.083 84.1217 158.083C84.1217 158.083 83.6336 156.784 83.5386 156.141C83.41 155.272 83.4195 153.866 83.4195 153.866L81.2888 154.151L81.2883 154.152Z" fill="url(#paint16_linear_2_321)"/>
<path d="M68.8224 160.811C68.8956 160.899 69.0254 161.084 69.036 161.334C69.0421 161.47 69.0108 161.582 68.9717 161.684C68.7788 162.192 68.4758 162.259 68.1493 162.798C67.9497 163.126 67.9871 163.226 67.8043 163.374C67.5633 163.57 67.2715 163.581 67.0188 163.584C66.5917 163.589 65.9767 163.574 65.2018 163.481C65.6077 162.957 66.0393 162.426 66.4983 161.889C66.6996 161.653 66.9009 161.423 67.101 161.199L68.2941 160.796C68.4702 160.8 68.6457 160.805 68.8219 160.81L68.8224 160.811Z" fill="#262648"/>
<path d="M67.83 155.014C67.83 155.014 67.148 158.575 68.0157 159.572C68.7548 160.569 67.6584 159.858 67.6584 159.858L66.349 161.002L65.5635 162.359C65.5635 162.359 66.2864 158.874 66.0935 157.49C65.9007 156.107 65.8039 155.174 65.8039 155.174L67.8295 155.013L67.83 155.014Z" fill="url(#paint17_linear_2_321)"/>
<path d="M65.2582 116.058C65.2582 116.058 63.4255 117.698 63.4255 124.454C63.4255 131.209 64.2938 145.878 64.2938 145.878L65.6826 156.38C65.6826 156.38 67.1228 156.431 68.0872 156.142C68.9549 152.185 70.3694 145.492 69.6945 139.895C69.4055 133.815 72.1059 126.191 72.1059 126.191C72.1059 126.191 74.4205 133.911 76.0603 137.772C77.6995 141.632 80.8214 153.725 81.1105 154.593C83.0287 154.767 83.8483 154.26 83.8483 154.26C83.8483 154.26 82.6183 141.246 81.461 136.324C80.3037 131.402 80.3999 119.532 78.471 116.154C74.1314 114.417 65.2588 116.058 65.2588 116.058H65.2582Z" fill="url(#paint18_linear_2_321)"/>
<path d="M65.2582 116.058C65.2582 116.058 63.4255 117.698 63.4255 124.454C63.4255 131.209 64.2938 145.878 64.2938 145.878L65.6826 156.38C65.6826 156.38 67.1228 156.431 68.0872 156.142C68.9554 152.185 70.3694 145.492 69.6945 139.895C69.4049 133.815 72.1053 126.191 72.1053 126.191C72.1053 126.191 74.4199 133.911 76.0597 137.772C77.699 141.632 80.8209 153.725 81.1099 154.593C83.0282 154.767 83.8478 154.26 83.8478 154.26C83.8478 154.26 82.6178 141.246 81.4605 136.324C80.3032 131.402 80.3993 119.532 78.471 116.154C74.1314 114.417 65.2588 116.058 65.2588 116.058H65.2582Z" fill="url(#paint19_linear_2_321)"/>
<path style="mix-blend-mode:multiply" opacity="0.25" d="M74.7772 128.435C75.3486 132.152 76.4914 134.153 79.3483 136.726C81.6338 138.441 79.9197 142.158 80.7768 145.016C81.0625 145.874 81.9195 146.732 82.2052 147.589C83.2686 149.717 82.2751 152.319 82.7576 154.572C83.5079 154.469 83.8484 154.26 83.8484 154.26C83.8484 154.26 82.6184 141.246 81.4611 136.324C80.3038 131.402 80.3999 119.532 78.4717 116.154C74.132 114.417 65.2594 116.058 65.2594 116.058C65.2594 116.058 63.4267 117.698 63.4267 124.454C63.4267 125.002 63.4323 125.603 63.4429 126.243C65.3455 127.927 69.2361 128.302 71.6352 126.434C71.78 126.325 71.9343 126.259 72.0936 126.226C72.1009 126.205 72.1059 126.19 72.1059 126.19C72.1059 126.19 72.1098 126.204 72.116 126.224C73.2079 126.025 74.5296 127.443 74.7772 128.435Z" fill="url(#paint20_linear_2_321)"/>
<path d="M81.8238 159.342C81.8238 159.342 81.542 159.342 81.5655 159.706C81.589 160.071 81.4386 161.324 82.8715 161.382C84.3044 161.441 84.5253 161.281 84.5722 161.281C84.6192 161.281 84.1965 160.082 84.1965 160.082L83.7386 159.495L82.5053 159.366L81.8243 159.342H81.8238Z" fill="#262648"/>
<path d="M85.0005 160.6C84.9697 160.297 84.8009 159.821 84.6304 159.437C84.3777 158.868 84.5851 158.655 84.3436 158.136C84.2603 157.956 84.1786 157.786 84.002 157.618C83.9612 157.579 83.5659 157.213 82.99 157.232C82.8765 157.236 82.7021 157.243 82.5137 157.344C82.2917 157.462 82.1805 157.64 82.0854 157.796C81.9361 158.042 81.9702 158.117 81.7405 158.821C81.722 158.877 81.6812 159 81.6505 159.169C81.6264 159.299 81.6169 159.408 81.6124 159.482C81.9881 159.482 83.4328 159.541 83.7381 159.764C84.0433 159.987 84.196 160.363 84.196 160.739C84.196 161.115 84.3838 161.291 84.5717 161.279C84.7394 161.269 85.0732 160.958 85.0005 160.598V160.6Z" fill="#355178"/>
<path d="M67.6466 159.072C67.9692 159.077 68.2063 159.334 68.3846 159.954C68.563 160.573 69.42 161.121 68.4204 160.99C67.4202 160.859 66.6945 162.276 66.3373 162.8C65.98 163.324 65.0217 163.79 65.0452 163.278C65.0693 162.765 65.4919 162.527 65.611 162.002C65.7301 161.478 66.9103 159.061 67.6466 159.072Z" fill="#355178"/>
<path d="M84.6064 116.873C84.8435 116.213 86.3245 111.877 83.931 107.922C81.9715 104.685 78.5812 103.628 78.0976 103.486C75.1545 102.616 73.6797 103.733 72.751 102.705C71.1755 100.96 72.9601 95.0167 76.4125 93.8262C80.3043 92.484 84.9726 97.6444 86.8646 101.034C89.3463 105.48 88.7358 109.899 88.5921 110.809C88.2187 113.175 87.3515 114.978 86.7086 116.086C86.0081 116.349 85.307 116.61 84.6064 116.873V116.873Z" fill="url(#paint21_linear_2_321)"/>
<path d="M74.4439 92.9867C70.9703 92.848 68.2912 92.9028 66.7777 94.4161C65.1793 96.0145 66.7945 97.8187 66.4473 102C65.9162 108.401 61.8399 109.965 61.5329 116.459C61.4295 118.647 61.7996 120.436 62.087 121.513C62.9815 122.628 64.4458 124.201 66.6066 125.516C69.7509 127.43 71.5747 127.096 76.0909 128.333C83.4776 130.356 84.1351 132.765 87.7976 132.152C91.4993 131.531 94.747 128.414 94.3551 126.702C94.1203 125.677 92.6281 125.967 90.9095 124.404C88.6949 122.389 89.5492 120.465 87.8653 118.3C85.4472 115.189 82.0782 117.091 80.0174 114.395C77.9331 111.667 78.7595 106.294 80.5167 103.365C81.6645 101.451 82.1559 99.2095 83.1326 97.2033C83.2137 97.0366 83.3082 96.7636 83.2662 96.4218C83.108 95.1154 80.9315 94.4066 79.2828 93.8869C76.7685 93.0942 74.7284 92.9979 74.4422 92.9867H74.4439Z" fill="url(#paint22_linear_2_321)"/>
<path d="M71.5177 92.8431L72.2026 92.6322C72.2026 92.6322 72.3815 93.5603 74.5849 93.6761C75.8076 93.6761 76.5981 92.9908 76.5981 92.9908L77.0661 93.3321C77.0661 93.3321 76.039 94.616 74.4054 94.583C72.2976 94.5411 71.5172 92.8425 71.5172 92.8425L71.5177 92.8431Z" fill="url(#paint23_linear_2_321)"/>
<path d="M72.9127 90.0203C73.0447 89.0009 73.8503 88.3475 74.0259 88.2076C74.7616 87.6225 74.9115 87.5637 75.1642 87.5156L75.5091 87.463C75.5091 87.463 75.5276 87.463 75.5466 87.4647C75.7484 87.477 76.3539 87.7136 76.464 87.7908C76.8157 88.0381 76.5568 89.7909 75.4907 91.9705C75.4487 92.1551 75.4068 92.3397 75.3649 92.5243C76.2941 92.6877 76.5244 92.8555 76.5317 92.9893C76.5473 93.2796 75.5304 93.6494 74.5872 93.6735C73.4047 93.7037 72.149 93.1946 72.1731 92.8147C72.1826 92.6608 72.4056 92.4712 73.2644 92.2849C73.3986 92.0964 73.5328 91.9073 73.667 91.7187C73.5451 91.571 72.8149 90.7705 72.9122 90.0197L72.9127 90.0203Z" fill="url(#paint24_linear_2_321)"/>
<path d="M74.3747 89.6364C74.6431 89.4758 74.8471 89.821 74.7208 90.1225C74.5944 90.4241 74.1701 90.6131 73.9123 90.433C73.6546 90.2529 74.0135 89.8523 74.3747 89.6358V89.6364Z" fill="url(#paint25_linear_2_321)"/>
<path d="M109.137 89.6314C105.607 85.798 97.3928 86.8492 92.8368 89.9279C90.7196 91.3584 89.6332 93.0485 87.1313 93.19C85.2299 93.298 82.2042 92.5824 80.6113 90.5209C80.4106 90.2613 79.6077 89.1721 78.4024 87.7986C77.8707 87.1933 77.3423 86.6249 76.5233 86.4962C76.3153 86.4637 75.6226 86.3507 75.1653 86.7983C74.794 87.1608 74.7035 87.7913 74.8131 88.2456C74.8785 88.5175 74.9635 88.546 74.9517 88.7239C74.9176 89.2235 74.008 89.4411 74.0588 89.6929C74.0952 89.8725 74.5682 89.807 74.6498 90.0325C74.7392 90.2798 74.2193 90.4929 73.9957 91.115C73.5769 91.3953 73.3125 92.0929 73.2213 93.0267C73.0866 94.399 73.2247 95.514 73.4847 96.3537C74.7359 100.397 75.631 103.289 77.7969 104.904C80.6644 107.043 83.2468 105.068 90.5412 104.756C100.53 104.329 103.02 107.717 106.61 105.399C111.093 102.505 112.805 93.6113 109.139 89.6314H109.137Z" fill="url(#paint26_linear_2_321)"/>
<path d="M56.7461 81.8063C56.6572 82.6427 56.3559 86.3423 58.9059 89.4657C61.2887 92.3844 64.6633 92.9673 65.2906 93.0625C68.3247 93.5212 69.633 92.2126 70.6936 93.1044C72.4927 94.6172 71.5367 100.749 68.2794 102.401C64.6079 104.263 59.2782 99.7898 56.9407 96.691C53.8741 92.6261 53.8758 88.1645 53.8936 87.2431C53.9401 84.8492 54.5534 82.9431 55.0387 81.7577C55.2383 81.6978 55.5418 81.6312 55.9142 81.6441C56.2686 81.6564 56.5549 81.7364 56.7461 81.8058V81.8063Z" fill="url(#paint27_linear_2_321)"/>
<path style="mix-blend-mode:multiply" opacity="0.25" d="M87.909 129.705C87.0206 128.794 87.9984 126.957 86.6862 125.591C85.4686 124.323 84.0899 125.347 82.1297 124.256C79.6155 122.857 80.3082 120.295 77.9064 118.918C76.1794 117.928 75.3676 118.992 72.6829 118.473C70.0026 117.955 66.7381 116.106 65.1252 112.802C64.4397 111.397 64.1876 110.001 64.154 108.754C62.9486 110.909 61.698 112.974 61.5336 116.46C61.4302 118.648 61.8003 120.436 62.0877 121.513C62.9822 122.628 64.4464 124.201 66.6073 125.517C69.7516 127.431 71.5753 127.097 76.0916 128.334C83.4782 130.357 84.1357 132.766 87.7983 132.152C90.1643 131.756 92.3392 130.34 93.5026 128.922C90.0889 130.443 88.5542 130.367 87.9095 129.706L87.909 129.705Z" fill="url(#paint28_linear_2_321)"/>
<path d="M48.9365 50.5509H49.7489L65.4793 61.7108C63.0528 64.973 61.6339 68.7856 61.6339 73.2713L40.8913 72.963C40.8913 64.4253 43.883 56.8509 48.9365 50.5509Z" fill="url(#paint29_linear_2_321)"/>
<path d="M76.7744 53.9373C73.0571 55.0484 70.2834 57.3175 67.729 59.9699C67.7089 59.9911 67.6982 60.0471 67.6686 60.0482C67.0296 60.0655 67.2555 60.0823 66.8563 60.0465L66.8205 60.0213L50.3879 48.9095C55.7232 43.0845 62.898 38.7639 70.9873 36.9351H71.7997L76.7739 53.9373H76.7744Z" fill="url(#paint30_linear_2_321)"/>
<path d="M96.689 38.4287L92.1051 54.175C90.0745 53.4986 87.827 52.9112 85.5593 52.7987C83.5326 52.6986 80.8764 53.168 78.9839 53.5417L73.184 36.4399C76.9271 35.7383 80.8351 35.519 84.8219 35.834C89.0094 36.1646 92.9912 37.0625 96.6885 38.4282L96.689 38.4287Z" fill="url(#paint31_linear_2_321)"/>
<path d="M115.609 52.377L102.432 60.8705L102.555 61.322H101.743C99.5527 58.6803 96.6672 56.4307 93.3188 54.9627L98.6889 39.2265C99.2491 39.1985 98.9891 39.2248 99.5012 39.2248C99.5163 39.2248 99.5286 39.236 99.542 39.2422C106.135 42.1905 111.546 46.9559 115.609 52.377Z" fill="url(#paint32_linear_2_321)"/>
<path d="M122.984 74.1428L106.297 73.909C106.297 69.7545 105.075 66.1545 102.959 62.974L116.764 54.0317C117.576 54.0317 117.464 54.0043 117.576 54.0317C117.715 54.0653 117.11 54.5543 117.186 54.6734C120.869 60.3944 122.984 66.9948 122.984 74.1423V74.1428Z" fill="url(#paint33_linear_2_321)"/>
<path d="M82.2893 67.5694L104.388 51.62L88.6942 73.109L82.2893 67.5694Z" fill="url(#paint34_linear_2_321)"/>
<path d="M90.6113 71.5677C90.6113 74.5216 88.0339 76.8942 84.8225 76.8674C81.5753 76.84 78.9158 74.3745 78.9158 71.3607C78.9158 68.3469 81.5748 65.9754 84.8225 66.0633C88.0339 66.15 90.6113 68.6138 90.6113 71.5677Z" fill="url(#paint35_linear_2_321)"/>
<path d="M84.8225 74.7477C82.8567 74.7242 81.2477 73.2232 81.2477 71.4021C81.2477 69.5811 82.8567 68.1372 84.8225 68.1831C86.7748 68.2284 88.3536 69.7288 88.3536 71.528C88.3536 73.3272 86.7748 74.7711 84.8225 74.7477ZM84.8225 68.8237C83.2414 68.7884 81.9488 69.9509 81.9488 71.4144C81.9488 72.878 83.2414 74.0864 84.8225 74.1071C86.3952 74.1278 87.6682 72.9652 87.6682 71.5157C87.6682 70.0662 86.3952 68.8583 84.8225 68.8237Z" fill="url(#paint36_linear_2_321)"/>
<path d="M49.749 50.5984L66.2917 61.7342C63.8653 64.9964 62.4463 68.7967 62.4463 73.283L41.7037 72.9926C41.7037 64.4549 44.6954 56.8094 49.749 50.5984Z" fill="url(#paint37_linear_2_321)"/>
<path d="M77.5869 53.9244C73.7012 55.0859 70.2779 57.2157 67.6687 60.0443L51.2003 48.8961C56.5357 43.0711 63.7104 38.8612 71.7998 36.9093L77.5863 53.9239L77.5869 53.9244Z" fill="url(#paint38_linear_2_321)"/>
<path d="M97.5014 38.4287L92.1051 54.175C90.0745 53.4986 87.9025 53.079 85.6348 52.9666C83.6081 52.8664 81.6312 53.0169 79.7387 53.3906L73.9969 36.4399C77.74 35.7383 81.648 35.519 85.6348 35.834C89.8224 36.1646 93.8042 37.0625 97.5014 38.4282V38.4287Z" fill="url(#paint39_linear_2_321)"/>
<path d="M116.421 52.3769L102.555 61.308C100.365 58.6237 97.4796 56.4234 94.1313 54.9554L99.5013 39.2225C106.393 42.1608 112.219 46.769 116.421 52.3763V52.3769Z" fill="url(#paint40_linear_2_321)"/>
<path d="M123.797 74.1429L107.11 73.909C107.11 69.7545 105.888 66.1545 103.771 62.974L117.576 54.0317C121.519 59.8987 123.797 66.7262 123.797 74.1429Z" fill="url(#paint41_linear_2_321)"/>
<path d="M83.1016 67.5694L105.201 51.62L89.5065 73.109L83.1016 67.5694Z" fill="url(#paint42_linear_2_321)"/>
<path d="M91.4236 71.5677C91.4236 74.5216 88.8462 76.8942 85.6348 76.8674C82.3876 76.84 79.7281 74.3745 79.7281 71.3607C79.7281 68.3469 82.3871 65.9754 85.6348 66.0633C88.8462 66.15 91.4236 68.6138 91.4236 71.5677Z" fill="url(#paint43_linear_2_321)"/>
<path d="M85.635 74.7477C83.6692 74.7242 82.0602 73.2232 82.0602 71.4021C82.0602 69.5811 83.6692 68.1372 85.635 68.1831C87.5873 68.2284 89.1661 69.7288 89.1661 71.528C89.1661 73.3272 87.5873 74.7711 85.635 74.7477ZM85.635 68.8237C84.0539 68.7884 82.7613 69.9509 82.7613 71.4144C82.7613 72.878 84.0539 74.0864 85.635 74.1071C87.2077 74.1278 88.4807 72.9652 88.4807 71.5157C88.4807 70.0662 87.2077 68.8583 85.635 68.8237Z" fill="#D8DDE0"/>
<defs>
<linearGradient id="paint0_linear_2_321" x1="16.7415" y1="53.1689" x2="51.9442" y2="101.882" gradientUnits="userSpaceOnUse">
<stop stop-color="#ACAFB4"/>
<stop offset="1" stop-color="#AAADB2"/>
</linearGradient>
<linearGradient id="paint1_linear_2_321" x1="22.8635" y1="21.8573" x2="52.0935" y2="105.765" gradientUnits="userSpaceOnUse">
<stop stop-color="#CACDD2"/>
<stop offset="1" stop-color="#96999D"/>
</linearGradient>
<linearGradient id="paint2_linear_2_321" x1="140.113" y1="15.0733" x2="97.1268" y2="109.007" gradientUnits="userSpaceOnUse">
<stop stop-color="#8195C2"/>
<stop offset="1" stop-color="#56729A"/>
</linearGradient>
<linearGradient id="paint3_linear_2_321" x1="150.219" y1="42.4611" x2="96.9983" y2="113.597" gradientUnits="userSpaceOnUse">
<stop stop-color="#90ACD7"/>
<stop offset="1" stop-color="#6B86B7"/>
</linearGradient>
<linearGradient id="paint4_linear_2_321" x1="131.476" y1="73.4009" x2="101.43" y2="125.458" gradientUnits="userSpaceOnUse">
<stop stop-color="#CACDD2"/>
<stop offset="1" stop-color="#96999D"/>
</linearGradient>
<linearGradient id="paint5_linear_2_321" x1="34.8919" y1="90.1124" x2="127.34" y2="90.1124" gradientUnits="userSpaceOnUse">
<stop stop-color="#355178"/>
<stop offset="1" stop-color="#262648"/>
</linearGradient>
<linearGradient id="paint6_linear_2_321" x1="37.9563" y1="90.075" x2="127.465" y2="90.075" gradientUnits="userSpaceOnUse">
<stop stop-color="#90ACD7"/>
<stop offset="1" stop-color="#6B86B7"/>
</linearGradient>
<linearGradient id="paint7_linear_2_321" x1="61.5457" y1="33.4502" x2="107.786" y2="33.4502" gradientUnits="userSpaceOnUse">
<stop stop-color="#355178"/>
<stop offset="1" stop-color="#262648"/>
</linearGradient>
<linearGradient id="paint8_linear_2_321" x1="10.8914" y1="103.194" x2="151.101" y2="103.194" gradientUnits="userSpaceOnUse">
<stop stop-color="#355178"/>
<stop offset="1" stop-color="#262648"/>
</linearGradient>
<linearGradient id="paint9_linear_2_321" x1="45.022" y1="157.862" x2="105.799" y2="65.6976" gradientUnits="userSpaceOnUse">
<stop stop-color="#EBEEEE"/>
<stop offset="1" stop-color="white"/>
</linearGradient>
<linearGradient id="paint10_linear_2_321" x1="86.1489" y1="84.9901" x2="51.4541" y2="120.364" gradientUnits="userSpaceOnUse">
<stop stop-color="#CACDD2"/>
<stop offset="1" stop-color="#96999D"/>
</linearGradient>
<linearGradient id="paint11_linear_2_321" x1="98.6825" y1="97.2422" x2="64.7357" y2="131.854" gradientUnits="userSpaceOnUse">
<stop stop-color="#CACDD2"/>
<stop offset="1" stop-color="#96999D"/>
</linearGradient>
<linearGradient id="paint12_linear_2_321" x1="116.233" y1="99.8614" x2="81.0643" y2="158.574" gradientUnits="userSpaceOnUse">
<stop stop-color="#CACDD2"/>
<stop offset="1" stop-color="#96999D"/>
</linearGradient>
<linearGradient id="paint13_linear_2_321" x1="43.3374" y1="88.7972" x2="21.2534" y2="154.167" gradientUnits="userSpaceOnUse">
<stop stop-color="#CACDD2"/>
<stop offset="1" stop-color="#96999D"/>
</linearGradient>
<linearGradient id="paint14_linear_2_321" x1="56.4286" y1="78.7657" x2="54.4386" y2="81.983" gradientUnits="userSpaceOnUse">
<stop stop-color="#CACDD2"/>
<stop offset="1" stop-color="#96999D"/>
</linearGradient>
<linearGradient id="paint15_linear_2_321" x1="84.749" y1="116.857" x2="85.5526" y2="118.509" gradientUnits="userSpaceOnUse">
<stop stop-color="#CACDD2"/>
<stop offset="1" stop-color="#96999D"/>
</linearGradient>
<linearGradient id="paint16_linear_2_321" x1="82.7044" y1="158.929" x2="82.7044" y2="153.746" gradientUnits="userSpaceOnUse">
<stop stop-color="#CACDD2"/>
<stop offset="1" stop-color="#96999D"/>
</linearGradient>
<linearGradient id="paint17_linear_2_321" x1="66.9176" y1="160.406" x2="66.9176" y2="154.16" gradientUnits="userSpaceOnUse">
<stop stop-color="#CACDD2"/>
<stop offset="1" stop-color="#96999D"/>
</linearGradient>
<linearGradient id="paint18_linear_2_321" x1="63.4255" y1="135.87" x2="83.8472" y2="135.87" gradientUnits="userSpaceOnUse">
<stop stop-color="#142344"/>
<stop offset="1" stop-color="#3C5D84"/>
</linearGradient>
<linearGradient id="paint19_linear_2_321" x1="62.7764" y1="120.637" x2="77.5035" y2="145.356" gradientUnits="userSpaceOnUse">
<stop stop-color="#142344"/>
<stop offset="1" stop-color="#3C5D84"/>
</linearGradient>
<linearGradient id="paint20_linear_2_321" x1="68.5686" y1="117.186" x2="83.2957" y2="141.906" gradientUnits="userSpaceOnUse">
<stop stop-color="#142344"/>
<stop offset="1" stop-color="#3C5D84"/>
</linearGradient>
<linearGradient id="paint21_linear_2_321" x1="79.9127" y1="101.97" x2="68.8462" y2="68.0803" gradientUnits="userSpaceOnUse">
<stop stop-color="#ACAFB4"/>
<stop offset="1" stop-color="#AAADB2"/>
</linearGradient>
<linearGradient id="paint22_linear_2_321" x1="65.4784" y1="94.0749" x2="81.2758" y2="126.539" gradientUnits="userSpaceOnUse">
<stop stop-color="#ACAFB4"/>
<stop offset="1" stop-color="#AAADB2"/>
</linearGradient>
<linearGradient id="paint23_linear_2_321" x1="72.3507" y1="90.0117" x2="75.3698" y2="94.8067" gradientUnits="userSpaceOnUse">
<stop stop-color="#90ACD7"/>
<stop offset="1" stop-color="#6B86B7"/>
</linearGradient>
<linearGradient id="paint24_linear_2_321" x1="75.9922" y1="89.2762" x2="72.6742" y2="94.6394" gradientUnits="userSpaceOnUse">
<stop stop-color="#CACDD2"/>
<stop offset="1" stop-color="#96999D"/>
</linearGradient>
<linearGradient id="paint25_linear_2_321" x1="74.8249" y1="88.5388" x2="72.9313" y2="94.3409" gradientUnits="userSpaceOnUse">
<stop stop-color="#CACDD2"/>
<stop offset="1" stop-color="#96999D"/>
</linearGradient>
<linearGradient id="paint26_linear_2_321" x1="73.8335" y1="66.361" x2="101.637" y2="110.523" gradientUnits="userSpaceOnUse">
<stop stop-color="#355178"/>
<stop offset="1" stop-color="#262648"/>
</linearGradient>
<linearGradient id="paint27_linear_2_321" x1="63.7218" y1="94.832" x2="79.2595" y2="126.761" gradientUnits="userSpaceOnUse">
<stop stop-color="#ACAFB4"/>
<stop offset="1" stop-color="#AAADB2"/>
</linearGradient>
<linearGradient id="paint28_linear_2_321" x1="63.1991" y1="95.1839" x2="78.9971" y2="127.648" gradientUnits="userSpaceOnUse">
<stop stop-color="#ACAFB4"/>
<stop offset="1" stop-color="#AAADB2"/>
</linearGradient>
<linearGradient id="paint29_linear_2_321" x1="52.759" y1="66.7504" x2="23.2014" y2="181.376" gradientUnits="userSpaceOnUse">
<stop stop-color="#142344"/>
<stop offset="1" stop-color="#3C5D84"/>
</linearGradient>
<linearGradient id="paint30_linear_2_321" x1="64.9761" y1="14.0468" x2="63.1046" y2="64.1377" gradientUnits="userSpaceOnUse">
<stop stop-color="#142344"/>
<stop offset="1" stop-color="#3C5D84"/>
</linearGradient>
<linearGradient id="paint31_linear_2_321" x1="83.9257" y1="53.7521" x2="77.4548" y2="158.027" gradientUnits="userSpaceOnUse">
<stop stop-color="#142344"/>
<stop offset="1" stop-color="#3C5D84"/>
</linearGradient>
<linearGradient id="paint32_linear_2_321" x1="99.5381" y1="51.6351" x2="186.749" y2="-15.1166" gradientUnits="userSpaceOnUse">
<stop stop-color="#142344"/>
<stop offset="1" stop-color="#3C5D84"/>
</linearGradient>
<linearGradient id="paint33_linear_2_321" x1="133.863" y1="-10.2821" x2="106.624" y2="92.3788" gradientUnits="userSpaceOnUse">
<stop stop-color="#142344"/>
<stop offset="1" stop-color="#3C5D84"/>
</linearGradient>
<linearGradient id="paint34_linear_2_321" x1="91.0991" y1="57.9509" x2="97.3492" y2="63.6604" gradientUnits="userSpaceOnUse">
<stop stop-color="#142344"/>
<stop offset="1" stop-color="#3C5D84"/>
</linearGradient>
<linearGradient id="paint35_linear_2_321" x1="78.9158" y1="71.4642" x2="90.6113" y2="71.4642" gradientUnits="userSpaceOnUse">
<stop stop-color="#142344"/>
<stop offset="1" stop-color="#3C5D84"/>
</linearGradient>
<linearGradient id="paint36_linear_2_321" x1="81.2477" y1="71.4648" x2="88.3536" y2="71.4648" gradientUnits="userSpaceOnUse">
<stop stop-color="#142344"/>
<stop offset="1" stop-color="#3C5D84"/>
</linearGradient>
<linearGradient id="paint37_linear_2_321" x1="53.5479" y1="66.8588" x2="24.2624" y2="180.43" gradientUnits="userSpaceOnUse">
<stop stop-color="#51637F"/>
<stop offset="1" stop-color="#464848"/>
</linearGradient>
<linearGradient id="paint38_linear_2_321" x1="65.7874" y1="14.0697" x2="63.917" y2="64.122" gradientUnits="userSpaceOnUse">
<stop stop-color="#CACDD2"/>
<stop offset="0.54" stop-color="#87A5CE"/>
<stop offset="1" stop-color="#96999D"/>
</linearGradient>
<linearGradient id="paint39_linear_2_321" x1="84.7459" y1="53.6223" x2="78.322" y2="157.142" gradientUnits="userSpaceOnUse">
<stop stop-color="#CACDD2"/>
<stop offset="1" stop-color="#96999D"/>
</linearGradient>
<linearGradient id="paint40_linear_2_321" x1="100.352" y1="51.6323" x2="187.542" y2="-15.1037" gradientUnits="userSpaceOnUse">
<stop stop-color="#90ACD7"/>
<stop offset="1" stop-color="#6B86B7"/>
</linearGradient>
<linearGradient id="paint41_linear_2_321" x1="134.461" y1="-9.47595" x2="107.48" y2="92.2167" gradientUnits="userSpaceOnUse">
<stop stop-color="#90ACD7"/>
<stop offset="1" stop-color="#6B86B7"/>
</linearGradient>
<linearGradient id="paint42_linear_2_321" x1="91.9119" y1="57.9508" x2="98.1621" y2="63.6602" gradientUnits="userSpaceOnUse">
<stop stop-color="#355178"/>
<stop offset="1" stop-color="#262648"/>
</linearGradient>
<linearGradient id="paint43_linear_2_321" x1="79.7281" y1="71.4642" x2="91.4236" y2="71.4642" gradientUnits="userSpaceOnUse">
<stop stop-color="#355178"/>
<stop offset="1" stop-color="#262648"/>
</linearGradient>
</defs>
</svg>
