<svg width="166" height="157" viewBox="0 0 166 157" fill="none" xmlns="http://www.w3.org/2000/svg">
<path d="M75.9136 1.34438C75.9136 1.34438 22.1162 4.61227 23.4418 35.0471C23.8219 43.7722 21.6504 52.5052 15.254 59.0159C11.2383 63.1035 5.87884 66.0825 3.05785 71.1616C-2.51834 81.2019 1.15298 93.4804 4.22811 103.548C7.28452 113.555 9.28242 124.075 15.2443 132.982C18.5038 137.852 22.9046 142.611 27.7292 146.124C34.4223 150.998 43.0169 153.077 51.3579 153.205C99.2564 153.937 152.166 150.556 157.524 90.3034C162.882 30.0508 127.247 -6.50031 75.9136 1.34438Z" fill="#F4F6F8"/>
<path d="M35.2159 51.6226C36.4548 52.2521 38.0108 51.6743 38.6921 50.3318C39.3728 48.9894 38.9207 47.3915 37.6824 46.762C37.6183 46.7296 37.5525 46.7018 37.4872 46.6757C37.7176 45.9332 37.8911 45.1845 38.0074 44.4358C38.0783 44.4358 38.1498 44.4347 38.2218 44.4278C39.6349 44.3018 40.7569 43.0025 40.7274 41.5255C40.6979 40.0486 39.5283 38.9536 38.1152 39.0796C38.0415 39.0864 37.9688 39.0978 37.8968 39.1108C37.7493 38.3786 37.5468 37.6639 37.2915 36.972C37.3568 36.934 37.4214 36.8948 37.4844 36.8505C38.6932 36.0031 39.0801 34.3297 38.3478 33.1138C37.6154 31.8979 36.0419 31.5988 34.8325 32.4468C34.7706 32.4905 34.7122 32.5371 34.6549 32.5848C34.1773 32.0563 33.6537 31.567 33.087 31.1203C33.1267 31.055 33.1658 30.9886 33.201 30.9193C33.8823 29.5769 34.7718 28.1113 33.5238 27.5011C30.6359 26.0905 29.3964 27.2978 28.7157 28.6403C28.6805 28.7101 28.6499 28.7804 28.6209 28.8514C27.926 28.6573 27.2221 28.5227 26.5141 28.449C26.5187 28.3746 26.5221 28.2997 26.5204 28.2242C26.4909 26.7472 26.9288 25.948 25.5101 25.9202C22.4168 25.86 21.373 27.2036 21.4025 28.6806C21.4042 28.7578 21.4105 28.8332 21.4184 28.9082C20.7093 29.1102 20.0133 29.3691 19.3354 29.6819C19.3031 29.6161 19.2696 29.5507 19.2316 29.4872C18.4993 28.2713 16.9257 27.9721 15.7163 28.8202C14.5075 29.6682 14.1206 31.3411 14.8529 32.5569C14.8904 32.6194 14.9318 32.6773 14.9732 32.7352C14.4377 33.271 13.9362 33.8528 13.4728 34.4772C13.4126 34.4398 13.3519 34.4029 13.2878 34.3705C12.0489 33.741 10.4929 34.3189 9.81166 35.6613C9.13095 37.0032 9.58305 38.6017 10.8214 39.2312C10.8855 39.2635 10.9513 39.2914 11.0165 39.3175C10.7862 40.0599 10.6126 40.8086 10.4963 41.5574C10.4254 41.5574 10.354 41.5585 10.2819 41.5653C8.86887 41.6913 7.74683 42.9906 7.77633 44.4681C7.80582 45.9451 8.97552 47.0401 10.3891 46.9141C10.4629 46.9073 10.5355 46.8959 10.6075 46.8829C10.755 47.6151 10.9575 48.3298 11.2128 49.0217C11.1476 49.0598 11.0829 49.0989 11.0199 49.1432C9.81053 49.9907 9.42422 51.6641 10.1566 52.8799C10.8889 54.0958 13.3128 54.6611 14.5222 53.8131C14.584 53.7694 13.7921 53.4567 13.8494 53.409C14.3271 53.9374 14.8507 54.4267 15.4173 54.8735C15.3776 54.9387 15.3385 55.0052 15.3033 55.0744C14.622 56.4163 15.0747 58.0147 16.3131 58.6442C17.552 59.2737 19.108 58.6959 19.7892 57.3534C19.8244 57.2842 19.855 57.2132 19.884 57.1428C20.5789 57.337 21.2828 57.4709 21.9908 57.5453C21.9862 57.6196 21.9828 57.6946 21.9845 57.7701C22.014 59.2471 23.1837 60.3421 24.5968 60.216C26.0098 60.09 27.1319 58.7901 27.1024 57.3131C27.1007 57.2359 27.0944 57.1604 27.0865 57.0855C27.7956 56.8834 28.4916 56.6246 29.1695 56.3118C29.2018 56.3777 29.2353 56.4429 29.2733 56.5065C30.0056 57.7224 31.5792 58.0215 32.7886 57.1735C33.9974 56.326 34.3843 54.6526 33.652 53.4368C33.6145 53.3743 33.5731 53.3164 33.5317 53.2585C34.0672 52.7227 34.5687 52.1408 35.0321 51.5164C35.0923 51.5539 35.153 51.5909 35.2171 51.6232L35.2159 51.6226ZM19.7739 51.8184C15.2767 49.5337 13.635 43.7308 16.1071 38.8577C18.5798 33.9845 24.2298 31.8866 28.7276 34.1713C33.2248 36.456 34.8665 42.259 32.3944 47.1321C29.9217 52.0052 24.2717 54.1032 19.7739 51.8184Z" fill="url(#paint0_linear_2_537)"/>
<path d="M38.2214 44.4278C39.6344 44.3018 40.7565 43.0019 40.727 41.5249C40.6975 40.0479 39.5278 38.9524 38.1147 39.079C38.041 39.0858 37.9684 39.0971 37.8963 39.1102C37.7489 38.378 37.5463 37.6633 37.2911 36.9714C37.3563 36.9333 37.421 36.8941 37.4839 36.8499C38.6928 36.0024 40.1892 33.9544 39.3361 32.8197C37.7171 30.6666 36.0414 31.5987 34.8326 32.4462C34.7707 32.4899 34.7123 32.5365 34.655 32.5841C34.1774 32.0557 33.6538 31.5664 33.0871 31.1197C33.1268 31.0544 33.1659 30.988 33.2011 30.9187C33.5715 30.1882 33.6044 29.3827 33.36 28.6981C32.192 30.7547 31.0399 32.8203 29.9082 34.8972C33.4961 37.5282 34.6386 42.713 32.3956 47.1331C30.4953 50.8789 26.7173 52.982 23.0284 52.7187C22.8639 53.1455 22.7022 53.5752 22.5264 53.9981C22.0482 55.1459 21.5047 56.2698 20.9613 57.3925C21.3034 57.4573 21.6471 57.5078 21.9915 57.5441C21.9869 57.6185 21.9835 57.6934 21.9852 57.7689C22.0147 59.2459 22.911 60.5009 25.4722 60.3647C26.8892 60.2898 27.1325 58.7889 27.1031 57.312C27.1013 57.2348 27.0951 57.1593 27.0877 57.0843C27.7968 56.8823 28.4928 56.6234 29.1707 56.3106C29.2031 56.3765 29.2365 56.4418 29.2745 56.5053C30.0069 57.7212 32.5471 58.2383 33.7559 57.3903C34.9653 56.5428 34.385 54.6514 33.6527 53.4356C33.6152 53.3731 33.5738 53.3153 33.5324 53.2574C34.0679 52.7215 34.5694 52.1397 35.0328 51.5153C35.0929 51.5527 35.1536 51.5896 35.2177 51.622C36.4566 52.2515 38.0126 51.6736 38.6939 50.3312C39.3746 48.9893 38.9225 47.3908 37.6842 46.7613C37.6201 46.729 37.5543 46.7011 37.4891 46.675C37.7194 45.9326 37.8929 45.1839 38.0092 44.4352C38.0801 44.4352 38.1516 44.4335 38.2237 44.4272L38.2214 44.4278Z" fill="url(#paint1_linear_2_537)"/>
<path d="M36.5485 51.7741C37.7874 52.4036 39.3434 51.8258 40.0247 50.4833C40.7054 49.1409 40.2533 47.5429 39.015 46.9134C38.9509 46.8811 38.8851 46.8533 38.8198 46.8272C39.0501 46.0847 39.2237 45.336 39.34 44.5873C39.4109 44.5873 39.4824 44.5861 39.5544 44.5793C40.9675 44.4533 42.0895 43.154 42.06 41.677C42.0305 40.2 40.8608 39.1045 39.4472 39.2311C39.3735 39.2379 39.3009 39.2493 39.2288 39.2623C39.0813 38.5301 38.8788 37.8154 38.6236 37.1235C38.6888 37.0855 38.7535 37.0463 38.8164 37.002C40.0253 36.1546 40.4121 34.4812 39.6798 33.2653C38.9475 32.0494 37.3739 31.7503 36.1645 32.5983C36.1027 32.642 36.0442 32.6886 35.9864 32.7362C35.5087 32.2078 34.9851 31.7185 34.4184 31.2718C34.4582 31.2065 34.4973 31.1401 34.5325 31.0708C35.2132 29.7284 34.7611 28.1305 33.5227 27.501C32.2838 26.8715 30.7278 27.4493 30.0466 28.7917C30.0114 28.8616 29.9808 28.932 29.9518 29.0029C29.2569 28.8088 28.553 28.6742 27.845 28.6004C27.8496 28.5261 27.853 28.4512 27.8513 28.3751C27.8218 26.8981 26.6521 25.8032 25.2384 25.9292C23.8254 26.0552 22.7034 27.3545 22.7329 28.8315C22.7346 28.9087 22.7408 28.9842 22.7487 29.0591C22.0397 29.2612 21.3436 29.52 20.6657 29.8322C20.6334 29.7664 20.5999 29.7011 20.5619 29.6375C19.8296 28.4217 18.256 28.1225 17.0466 28.9706C15.8372 29.818 15.4509 31.4914 16.1832 32.7073C16.2207 32.7697 16.2615 32.8276 16.3035 32.8855C15.768 33.4214 15.2665 34.0032 14.8031 34.6276C14.743 34.5901 14.6823 34.5533 14.6182 34.5209C13.3793 33.8914 11.8233 34.4692 11.142 35.8117C10.4613 37.1535 10.9134 38.752 12.1517 39.3815C12.2158 39.4139 12.2816 39.4417 12.3468 39.4678C12.1165 40.2103 11.943 40.959 11.8267 41.7077C11.7558 41.7077 11.6843 41.7088 11.6122 41.7157C10.1992 41.8417 9.07715 43.1415 9.10665 44.6185C9.13615 46.0955 10.3058 47.1905 11.7195 47.0644C11.7932 47.0576 11.8658 47.0463 11.9379 47.0332C12.0853 47.7649 12.2879 48.4801 12.5431 49.1721C12.4779 49.2101 12.4132 49.2493 12.3503 49.2936C11.1414 50.141 10.7545 51.8144 11.4869 53.0303C12.2192 54.2462 13.7928 54.5453 15.0022 53.6973C15.064 53.6536 15.1225 53.607 15.1803 53.5593C15.658 54.0878 16.1815 54.5771 16.7482 55.0238C16.7085 55.0891 16.6694 55.1555 16.6342 55.2247C15.9535 56.5666 16.4056 58.1651 17.6439 58.7946C18.8828 59.4241 20.4388 58.8463 21.1201 57.5038C21.1553 57.4345 21.1859 57.3636 21.2149 57.2932C21.9098 57.4873 22.6137 57.6213 23.3217 57.6957C23.3171 57.77 23.3137 57.8449 23.3154 57.921C23.3449 59.398 24.5146 60.493 25.9282 60.367C27.3413 60.241 28.4633 58.9416 28.4338 57.4646C28.4321 57.3874 28.4259 57.3119 28.418 57.237C29.127 57.0349 29.8231 56.7761 30.5009 56.4633C30.5333 56.5292 30.5667 56.5944 30.6047 56.658C31.3371 57.8739 32.9107 58.173 34.1201 57.325C35.3295 56.4775 35.7158 54.8041 34.9834 53.5882C34.946 53.5258 34.9046 53.4679 34.8632 53.41C35.3987 52.8742 35.9001 52.2924 36.3636 51.668C36.4237 51.7054 36.4844 51.7423 36.5485 51.7747V51.7741ZM21.1065 51.9699C16.6093 49.6852 14.9676 43.8823 17.4397 39.0091C19.9124 34.136 25.5624 32.0381 30.0602 34.3228C34.558 36.6075 36.1991 42.4104 33.727 47.2836C31.2543 52.1567 25.6043 54.2547 21.1065 51.9699Z" fill="url(#paint2_linear_2_537)"/>
<path d="M57.9314 25.5262C58.919 26.028 60.1602 25.567 60.7036 24.497C61.2465 23.4264 60.8863 22.1521 59.8981 21.6504C59.8471 21.6242 59.7949 21.6027 59.7421 21.5817C59.9259 20.9896 60.0638 20.3925 60.1568 19.7953C60.2135 19.7953 60.2702 19.7942 60.3281 19.7891C61.4553 19.6886 62.3498 18.6521 62.326 17.4743C62.3022 16.2964 61.3696 15.4228 60.2424 15.5233C60.1835 15.5284 60.1256 15.5381 60.0683 15.5483C59.9503 14.9648 59.7892 14.3943 59.5856 13.8426C59.6372 13.8125 59.6888 13.7807 59.7393 13.7455C60.7036 13.0694 61.0117 11.7355 60.4279 10.7654C59.8442 9.79591 58.5889 9.55749 57.6245 10.2335C57.5752 10.2682 57.5287 10.3056 57.4827 10.3436C57.1021 9.92245 56.684 9.53191 56.2325 9.17544C56.2642 9.12322 56.2954 9.07042 56.3232 9.0148C56.8661 7.94424 57.5758 6.77551 56.5802 6.28905C54.2771 5.164 53.2889 6.12727 52.7455 7.19726C52.7171 7.25289 52.6933 7.30908 52.6701 7.36528C52.1159 7.21031 51.5543 7.10358 50.9898 7.04454C50.9932 6.98494 50.9961 6.92538 50.9949 6.86522C50.9711 5.68738 51.3205 5.04992 50.1894 5.02778C47.7224 4.9801 46.8902 6.05118 46.9135 7.22902C46.9146 7.29089 46.9197 7.35107 46.926 7.41068C46.3604 7.57188 45.8056 7.77794 45.265 8.0277C45.2395 7.97491 45.2128 7.92324 45.1822 7.87216C44.5985 6.90207 43.3431 6.66422 42.3788 7.34028C41.4145 8.01633 41.1064 9.35027 41.6901 10.3204C41.7202 10.3703 41.7525 10.4163 41.786 10.4623C41.3589 10.8897 40.9589 11.3535 40.5897 11.8513C40.542 11.8212 40.4932 11.7917 40.4422 11.7662C39.4546 11.2644 38.2134 11.7253 37.67 12.7953C37.1271 13.8658 37.4873 15.1401 38.4755 15.6419C38.5265 15.668 38.5787 15.6896 38.6315 15.7106C38.4477 16.3026 38.3098 16.8998 38.2168 17.497C38.1601 17.497 38.1033 17.4981 38.0455 17.5032C36.9183 17.6037 36.0238 18.6402 36.0476 19.818C36.0714 20.9959 37.004 21.8694 38.1311 21.769C38.1901 21.7639 38.248 21.7542 38.3053 21.744C38.4233 22.3275 38.5844 22.898 38.788 23.4498C38.7364 23.4798 38.6848 23.5116 38.6343 23.5468C37.67 24.2229 37.3619 25.5568 37.9456 26.5269C38.5294 27.4964 40.4632 27.9471 41.4269 27.271C41.4763 27.2364 40.8444 26.9867 40.8903 26.9486C41.2709 27.3698 41.689 27.7604 42.1405 28.1168C42.1088 28.1691 42.0776 28.2218 42.0498 28.2775C41.5069 29.348 41.8671 30.6223 42.8553 31.1241C43.8429 31.6259 45.0841 31.165 45.6275 30.095C45.6559 30.0394 45.6797 29.9832 45.703 29.927C46.2572 30.082 46.8188 30.1887 47.3832 30.2477C47.3798 30.3073 47.3769 30.3669 47.3781 30.4271C47.4019 31.6049 48.3345 32.4785 49.4616 32.3781C50.5888 32.2776 51.4834 31.2411 51.4595 30.0632C51.4584 30.0019 51.4533 29.9418 51.447 29.8816C52.0126 29.7204 52.5674 29.5143 53.108 29.2646C53.1335 29.3174 53.1602 29.3696 53.1908 29.4201C53.7745 30.3902 55.0299 30.628 55.9942 29.952C56.9586 29.2759 57.2666 27.942 56.6829 26.9719C56.6528 26.9225 56.6199 26.876 56.587 26.83C57.0142 26.4026 57.4141 25.9388 57.7834 25.441C57.831 25.4711 57.8798 25.5001 57.9309 25.5262H57.9314ZM45.6167 25.6823C42.0299 23.8602 40.7213 19.2328 42.6925 15.3462C44.6643 11.4602 49.1701 9.78679 52.7569 11.6089C56.3437 13.431 57.6529 18.0583 55.6805 21.9449C53.7087 25.8309 49.203 27.5044 45.6162 25.6823H45.6167Z" fill="url(#paint3_linear_2_537)"/>
<path d="M60.3281 19.7892C61.4552 19.6887 62.3498 18.6522 62.326 17.4743C62.3022 16.2965 61.3696 15.4229 60.2424 15.5234C60.1834 15.5285 60.1256 15.5381 60.0683 15.5484C59.9509 14.9648 59.7892 14.3944 59.5855 13.8426C59.6372 13.8126 59.6888 13.7808 59.7393 13.7456C60.7036 13.0695 61.8966 11.4364 61.2159 10.5316C59.9248 8.81453 58.5883 9.55757 57.6245 10.2336C57.5752 10.2682 57.5286 10.3057 57.4827 10.3437C57.1021 9.92252 56.684 9.53199 56.2325 9.17551C56.2642 9.12329 56.2954 9.0705 56.3232 9.01487C56.6188 8.43248 56.6449 7.78996 56.4497 7.2439C55.5183 8.88436 54.5993 10.5311 53.6974 12.1874C56.5586 14.2854 57.4697 18.42 55.6811 21.945C54.1654 24.9319 51.1526 26.6093 48.2108 26.3993C48.0798 26.7398 47.951 27.0821 47.8103 27.4193C47.4291 28.3343 46.9957 29.2306 46.5618 30.1263C46.8346 30.178 47.1086 30.2183 47.3832 30.2472C47.3798 30.3068 47.3769 30.3664 47.3781 30.4266C47.4019 31.6044 48.1161 32.6052 50.1588 32.4968C51.2888 32.4366 51.4828 31.2406 51.4595 30.0628C51.4584 30.0015 51.4533 29.9413 51.447 29.8811C52.0126 29.7199 52.5674 29.5138 53.108 29.2641C53.1335 29.3169 53.1602 29.3691 53.1908 29.4196C53.7745 30.3897 55.8008 30.8018 56.7645 30.1257C57.7289 29.4497 57.2666 27.9415 56.6823 26.972C56.6522 26.922 56.6193 26.8761 56.5864 26.8301C57.0136 26.4027 57.4135 25.9389 57.7828 25.4411C57.8304 25.4712 57.8792 25.5007 57.9303 25.5262C58.9179 26.028 60.159 25.5671 60.7025 24.4971C61.2453 23.4265 60.8851 22.1522 59.897 21.6504C59.8459 21.6243 59.7937 21.6027 59.741 21.5817C59.9248 20.9897 60.0626 20.3926 60.1556 19.7954C60.2124 19.7954 60.2691 19.7943 60.3269 19.7892H60.3281Z" fill="url(#paint4_linear_2_537)"/>
<path d="M58.9939 25.647C59.9815 26.1488 61.2227 25.6879 61.7661 24.6179C62.309 23.5473 61.9488 22.273 60.9606 21.7712C60.9096 21.7451 60.8574 21.7235 60.8046 21.7025C60.9884 21.1105 61.1268 20.5133 61.2193 19.9162C61.276 19.9162 61.3327 19.915 61.3906 19.9099C62.5178 19.8094 63.4123 18.7729 63.3885 17.5951C63.3647 16.4173 62.4321 15.5437 61.3049 15.6441C61.246 15.6492 61.1881 15.6589 61.1308 15.6691C61.0128 15.0856 60.8517 14.5151 60.6481 13.9634C60.6997 13.9333 60.7513 13.9015 60.8018 13.8663C61.7661 13.1903 62.0742 11.8563 61.4904 10.8863C60.9067 9.91617 59.6514 9.67833 58.687 10.3544C58.6377 10.389 58.5912 10.4264 58.5452 10.4645C58.1646 10.0433 57.7465 9.65275 57.295 9.29628C57.3267 9.24405 57.3579 9.19131 57.3857 9.13569C57.9286 8.06513 57.5684 6.79077 56.5802 6.28898C55.5926 5.78719 54.3515 6.24811 53.808 7.3181C53.7797 7.37372 53.7558 7.42992 53.7326 7.48611C53.1784 7.33115 52.6168 7.22447 52.0523 7.16543C52.0557 7.10583 52.0586 7.04622 52.0574 6.98605C52.0336 5.80821 51.101 4.93462 49.9739 5.03509C48.8467 5.13556 47.9522 6.17207 47.976 7.34991C47.9771 7.41179 47.9822 7.47191 47.9885 7.53151C47.4229 7.69272 46.8681 7.89878 46.3275 8.14854C46.302 8.09575 46.2753 8.04408 46.2447 7.99299C45.661 7.02291 44.4056 6.78512 43.4413 7.46117C42.477 8.13722 42.1689 9.47116 42.7526 10.4412C42.7827 10.4912 42.815 10.5372 42.8485 10.5832C42.4214 11.0106 42.0214 11.4743 41.6522 11.9721C41.6045 11.9421 41.5557 11.9131 41.5047 11.887C40.5171 11.3852 39.2759 11.8461 38.7325 12.9161C38.1896 13.9867 38.5498 15.261 39.538 15.7628C39.589 15.7889 39.6412 15.8105 39.694 15.8315C39.5102 16.4235 39.3718 17.0207 39.2793 17.6178C39.2226 17.6178 39.1658 17.619 39.108 17.6241C37.9808 17.7246 37.0863 18.761 37.1101 19.9389C37.1339 21.1167 38.0665 21.9903 39.1936 21.8898C39.2526 21.8847 39.3105 21.8751 39.3678 21.8649C39.4858 22.4484 39.6469 23.0189 39.8505 23.5706C39.7989 23.6007 39.7473 23.6325 39.6968 23.6677C38.7325 24.3437 38.4244 25.6777 39.0081 26.6477C39.5919 27.6178 40.8472 27.8557 41.8116 27.1796C41.8609 27.145 41.9074 27.1075 41.9534 27.0695C42.334 27.4907 42.7521 27.8812 43.2036 28.2377C43.1718 28.2899 43.1406 28.3427 43.1129 28.3983C42.57 29.4689 42.9302 30.7432 43.9184 31.245C44.906 31.7468 46.1471 31.2858 46.6906 30.2158C46.7189 30.1602 46.7428 30.104 46.766 30.0478C47.3202 30.2028 47.8818 30.3095 48.4463 30.3686C48.4428 30.4282 48.44 30.4878 48.4411 30.5479C48.465 31.7258 49.3976 32.5993 50.5247 32.4983C51.6519 32.3978 52.5464 31.3614 52.5226 30.1835C52.5215 30.1222 52.5164 30.062 52.5101 30.0019C53.0757 29.8407 53.6305 29.6346 54.1711 29.3848C54.1966 29.4376 54.2233 29.4899 54.2539 29.5404C54.8376 30.5105 56.0929 30.7483 57.0573 30.0723C58.0216 29.3962 58.3297 28.0623 57.7459 27.0922C57.7159 27.0428 57.6835 26.9963 57.6501 26.9503C58.0772 26.5229 58.4771 26.0591 58.8464 25.5613C58.8941 25.5913 58.9429 25.6203 58.9939 25.6464V25.647ZM46.6792 25.8031C43.0924 23.981 41.7838 19.3537 43.755 15.4671C45.7268 11.5811 50.2326 9.90762 53.8194 11.7297C57.4062 13.5518 58.7154 18.1798 56.7436 22.0658C54.7718 25.9518 50.266 27.6252 46.6792 25.8031Z" fill="url(#paint5_linear_2_537)"/>
<path d="M100.608 136.143C102.908 130.001 105.338 120.672 103.337 110.167C100.713 96.39 92.7737 92.6953 83.204 71.9029C77.153 58.756 73.0631 49.5205 77.2109 41.4499C80.4613 35.1259 88.3814 30.2744 95.1488 31.3041C100.776 32.1601 106.265 37.1825 109.194 41.2564C111.581 44.5765 112.393 47.4419 115.417 48.3177C118.508 49.2129 120.263 46.9747 122.966 47.4334C128.448 48.3632 130.89 59.2084 131.285 60.9607C135.676 80.4578 125.433 100.131 120.861 108.659C117.081 115.711 110.793 125.725 100.608 136.143Z" fill="url(#paint6_linear_2_537)"/>
<g style="mix-blend-mode:soft-light" opacity="0.5">
<g style="mix-blend-mode:soft-light">
<path d="M97.3021 141.784L97.0043 141.507C103.05 135.001 107.787 128.464 111.086 122.078C115.95 112.662 117.518 103.843 115.748 95.8645C114.361 89.6154 111.027 84.0787 106.413 76.4145C102.73 70.2966 99.5672 66.2931 96.7774 62.7607C93.131 58.1441 90.251 54.4976 87.9383 48.2849C85.5915 41.9802 84.6249 35.0375 85.0663 27.6503L85.4724 27.6747C85.0345 35.0045 85.9926 41.8916 88.3195 48.1429C90.6101 54.2955 93.4725 57.9199 97.0968 62.5081C99.8945 66.0501 103.065 70.0644 106.762 76.2045C111.222 83.6115 114.744 89.4622 116.145 95.7759C117.937 103.85 116.356 112.762 111.448 122.265C108.132 128.684 103.373 135.251 97.3027 141.784H97.3021Z" fill="white"/>
</g>
<g style="mix-blend-mode:soft-light">
<path d="M103.335 72.0369C101.979 72.0369 97.4826 71.8774 92.1287 69.9758C86.2235 67.8778 78.0306 63.1716 72.5338 52.6652L72.894 52.4762C78.3261 62.8588 86.4175 67.5117 92.249 69.5864C97.8161 71.5669 102.44 71.6355 103.504 71.6293C101.291 58.3592 103.912 48.0577 106.512 41.7388C109.347 34.8466 112.775 31.0657 112.809 31.0282L113.108 31.3035C113.074 31.3404 109.687 35.0805 106.88 41.912C104.29 48.215 101.679 58.5159 103.944 71.7934L103.983 72.0198L103.753 72.0306C103.745 72.0306 103.599 72.0369 103.335 72.0369Z" fill="white"/>
</g>
<g style="mix-blend-mode:soft-light">
<path d="M113.465 88.8321L113.336 88.7594C113.264 88.7191 106.049 84.6752 98.0243 82.0386C90.0413 79.4161 76.5438 83.8034 76.4088 83.8476L76.2817 83.4611C76.4184 83.4163 90.0435 78.9881 98.1514 81.6521C105.621 84.1065 112.39 87.7729 113.405 88.3326C118.023 83.9737 121.223 74.1883 122.66 60.015C123.757 49.1993 123.443 39.5569 123.44 39.461L123.846 39.4468C123.85 39.5433 124.164 49.2129 123.064 60.0559C121.585 74.6446 118.391 84.2927 113.574 88.7316L113.465 88.8315V88.8321Z" fill="white"/>
</g>
<g style="mix-blend-mode:soft-light">
<path d="M112.729 119.683L112.755 119.278C113.019 115.133 112.037 111.422 109.835 108.249C108.07 105.704 105.52 103.494 102.257 101.679C96.6815 98.5795 90.8835 97.7025 90.8257 97.694L90.8847 97.2915C90.9431 97.3 96.8052 98.1855 102.445 101.318C107.597 104.18 113.598 109.543 113.184 118.894C114.532 117.97 119.753 114.252 125.645 108.251C131.933 101.846 140.294 91.4568 144.412 78.3297L152.409 52.8356L152.797 52.9576L144.8 78.4518C140.656 91.66 132.25 102.106 125.928 108.544C119.079 115.517 113.129 119.423 113.069 119.462L112.729 119.683Z" fill="white"/>
</g>
</g>
<path d="M101.582 134.42C111.93 134.388 125.108 132.869 137.686 127.025C140.895 125.534 160.724 116.321 158.282 107.267C157.421 104.077 154.524 103.601 153.3 99.3571C151.848 94.3278 154.987 91.778 157.118 85.4711C158.389 81.7076 162.11 70.695 155.479 64.6837C151.517 61.0918 144.037 59.4479 138.369 60.8312C130.057 62.8605 127.272 71.0043 122.8 84.8654C118.835 97.153 119.914 100.149 116.905 108.947C114.672 115.476 110.434 124.478 101.582 134.42H101.582Z" fill="url(#paint7_linear_2_537)"/>
<g style="mix-blend-mode:soft-light" opacity="0.5">
<g style="mix-blend-mode:soft-light">
<path d="M74.9998 140.293C69.216 140.293 63.2955 139.523 57.2831 137.986L57.384 137.591C68.7446 140.498 79.7716 140.644 90.1599 138.027C103.999 134.54 115.95 126.105 125.68 112.957C135.813 99.263 141 83.8869 143.566 73.3999C145.344 66.1387 144.907 58.1226 142.27 49.5752L142.658 49.4548C145.318 58.0738 145.757 66.1626 143.962 73.4964C141.386 84.0197 136.18 99.4503 126.006 113.198C116.219 126.425 104.192 134.911 90.2586 138.421C85.3053 139.669 80.2078 140.293 74.9992 140.293H74.9998Z" fill="white"/>
</g>
<g style="mix-blend-mode:soft-light">
<path d="M136.747 94.2989L136.631 94.1575C136.601 94.1218 133.662 90.5309 131.262 85.0277C129.045 79.9434 126.842 72.1362 128.947 63.8158L129.341 63.9157C127.266 72.1203 129.44 79.8305 131.63 84.854C133.74 89.6954 136.268 93.0399 136.83 93.7557C158.643 79.2515 158.264 62.9144 157.625 58.2445C157.605 58.1014 157.598 58.0498 157.598 58.0129H157.802L158.006 58.0106C158.007 58.0373 158.016 58.0975 158.028 58.1894C158.677 62.9303 159.069 79.537 136.899 94.1984L136.747 94.2994L136.747 94.2989Z" fill="white"/>
</g>
<g style="mix-blend-mode:soft-light">
<path d="M133.883 113.609C131.45 113.609 128.82 113.438 125.984 113.05L125.876 113.035L125.828 112.937C125.767 112.812 119.731 100.169 120.856 82.8866L121.991 65.458L122.397 65.4847L121.262 82.9133C120.196 99.2821 125.59 111.454 126.148 112.661C133.577 113.665 144.274 113.74 153.269 108.467C158.66 105.306 160.899 101.678 160.921 101.641L161.27 101.852C161.247 101.889 158.954 105.606 153.475 108.818C149.484 111.158 143.101 113.609 133.883 113.609V113.609Z" fill="white"/>
</g>
</g>
<path d="M107.668 139.079C107.642 138.027 107.58 131.825 112.144 128.024C115.964 124.843 120.95 125.074 122.105 125.128C126.755 125.343 127.907 127.499 130.768 126.517C134.165 125.352 134.402 121.674 137.115 121.586C138.987 121.526 140.855 123.212 141.428 124.956C142.432 128.015 139.684 131.977 136.483 133.541C132.075 135.696 129.183 132.141 123.971 134.322C120.942 135.59 121.001 137.174 117.83 138.588C114.148 140.229 110.341 139.755 107.667 139.079H107.668Z" fill="url(#paint8_linear_2_537)"/>
<g style="mix-blend-mode:soft-light" opacity="0.5">
<g style="mix-blend-mode:soft-light">
<path d="M106.213 141.407L106.052 141.284C107.614 139.241 109.322 137.269 111.129 135.421C114.747 131.721 116.562 129.865 118.772 129.088C121.649 128.078 123.891 128.893 126.061 129.682C127.984 130.381 129.8 131.041 131.974 130.451C135.426 129.515 138.201 125.73 140.222 119.203L140.416 119.263C138.373 125.861 135.55 129.691 132.027 130.648C129.79 131.255 127.945 130.584 125.991 129.873C123.855 129.097 121.647 128.294 118.84 129.28C116.674 130.04 114.87 131.886 111.276 135.562C109.474 137.405 107.771 139.371 106.213 141.407Z" fill="white"/>
</g>
<g style="mix-blend-mode:soft-light">
<path d="M136.254 131.121C135.88 131.121 135.542 131.101 135.243 131.07C133.621 130.904 132.756 130.398 132.72 130.377L132.69 130.359L132.677 130.327C131.24 126.751 133.573 121.594 133.597 121.542L133.782 121.627C133.759 121.678 131.476 126.724 132.853 130.218C133.2 130.403 136.595 132.062 142.226 129.469L142.312 129.654C139.8 130.811 137.74 131.121 136.254 131.121V131.121Z" fill="white"/>
</g>
<g style="mix-blend-mode:soft-light">
<path d="M129.982 136.632C128.483 132.372 118.872 129.312 118.775 129.281L118.688 129.254L118.706 129.164C119.011 127.609 120.736 126.531 123.832 125.962C126.115 125.542 128.338 125.57 128.361 125.57L128.358 125.773C128.273 125.774 119.741 125.688 118.924 129.115C119.387 129.266 121.587 130.007 123.912 131.165C127.422 132.915 129.528 134.731 130.173 136.564L129.981 136.631L129.982 136.632Z" fill="white"/>
</g>
<g style="mix-blend-mode:soft-light">
<path d="M123.71 138.264C121.107 132.178 111.713 135.163 111.619 135.195L111.505 135.232L111.487 135.113C110.64 129.337 115.831 124.1 115.883 124.048L116.027 124.192C115.975 124.243 110.927 129.338 111.672 134.966C112.775 134.638 121.381 132.303 123.898 138.184L123.71 138.264Z" fill="white"/>
</g>
</g>
<path d="M164.825 143.307L4.69824 141.941V145.982C4.69824 147.079 5.39654 148.011 6.34274 148.178L51.6216 156.135C52.1588 156.229 52.7039 156.255 53.2462 156.21L163.085 147.137C164.066 147.056 164.826 146.12 164.826 144.994V143.307H164.825Z" fill="#262648"/>
<path d="M106.716 136.83L6.35411 144.223C4.55815 144.356 3.09802 142.95 3.09802 141.083V66.298C3.09802 64.4316 4.55815 62.9183 6.35411 62.9183H106.716C108.195 62.9183 109.392 64.2863 109.392 65.9739V133.579C109.392 135.266 108.195 136.722 106.716 136.831V136.83Z" fill="#262648"/>
<path d="M108.316 136.83L7.95433 144.223C6.15838 144.356 4.69824 142.95 4.69824 141.083V66.298C4.69824 64.4316 6.15838 62.9183 7.95433 62.9183H108.316C109.795 62.9183 110.992 64.2863 110.992 65.9739V133.579C110.992 135.266 109.795 136.722 108.316 136.831V136.83Z" fill="url(#paint9_linear_2_537)"/>
<path d="M105.189 132.065L11.7131 138.486C10.2518 138.587 9.06396 137.433 9.06396 135.909V70.4344C9.06396 68.9103 10.2518 67.6701 11.7131 67.6638L105.189 67.2608C106.41 67.2557 107.397 68.3762 107.397 69.7646V129.4C107.397 130.788 106.41 131.981 105.189 132.065V132.065Z" fill="url(#paint10_linear_2_537)"/>
<path d="M61.6798 64.9641C61.6798 65.6588 61.163 66.2237 60.5254 66.2259C59.8866 66.2282 59.3682 65.6651 59.3682 64.9686C59.3682 64.2721 59.8866 63.7074 60.5254 63.7068C61.163 63.7068 61.6798 64.2693 61.6798 64.9641Z" fill="white"/>
<g style="mix-blend-mode:soft-light" opacity="0.48">
<path d="M7.9538 144.223L107.808 136.868L108.316 136.83C108.995 136.781 109.612 136.444 110.084 135.935C102.898 135.542 98.435 132.99 95.5561 130.354C89.7746 125.059 90.7775 119.837 84.5421 116.356C76.7655 112.014 70.651 117.516 64.7498 112.088C61.1721 108.797 62.9289 106.342 58.5264 101.424C53.6507 95.9768 50.4763 97.808 45.5763 92.9053C39.3807 86.7062 42.4791 81.883 37.1423 77.4322C30.6675 72.0329 23.6857 77.0303 17.5224 71.8517C14.8642 69.6181 13.4058 66.3713 12.6439 62.9183H7.95494C6.15899 62.9183 4.69885 64.4316 4.69885 66.298V141.083C4.69885 142.95 6.15899 144.355 7.95437 144.223H7.9538Z" fill="white"/>
</g>
<path d="M112.316 136.421L4.69824 144.202L51.6216 152.449C52.1588 152.543 52.7039 152.569 53.2462 152.524L164.825 143.307L114.028 136.474C113.46 136.397 112.887 136.38 112.316 136.421V136.421Z" fill="url(#paint11_linear_2_537)"/>
<path d="M20.4012 144.269L109.996 137.694L137.725 141.394L48.9022 148.423L20.4012 144.269Z" fill="#262648"/>
<path d="M120.777 116.732C120.777 125.006 114.032 132.142 105.595 132.678L11.615 138.649C21.5523 138.018 29.4877 130.24 29.4877 121.268V18.0583L120.777 21.5533V116.733V116.732Z" fill="url(#paint12_linear_2_537)"/>
<path d="M41.5107 78.2367L35.9254 78.2225L35.9283 36.653L41.5266 36.8147L41.5107 78.2367Z" fill="url(#paint13_linear_2_537)"/>
<path d="M52.5633 78.265L46.8441 78.2502L46.864 49.9412L52.5927 50.0598L52.5633 78.265Z" fill="url(#paint14_linear_2_537)"/>
<path d="M63.254 78.2923L57.6125 78.2781L57.6596 42.7188L63.3124 42.8623L63.254 78.2923Z" fill="url(#paint15_linear_2_537)"/>
<path d="M73.7988 78.3196L68.6475 78.306L68.7031 50.1923L73.8623 50.2995L73.7988 78.3196Z" fill="url(#paint16_linear_2_537)"/>
<path d="M84.6062 78.3467L78.9154 78.3325L78.967 58.1395L84.664 58.2286L84.6062 78.3467Z" fill="url(#paint17_linear_2_537)"/>
<path d="M94.6632 78.3729L89.6515 78.3598L89.7791 38.21L94.8028 38.3553L94.6632 78.3729Z" fill="url(#paint18_linear_2_537)"/>
<path d="M105.181 78.3995L99.8411 78.3859L99.8859 66.4803L105.229 66.536L105.181 78.3995Z" fill="url(#paint19_linear_2_537)"/>
<path d="M115.165 78.4251L109.896 78.412L110.034 46.5786L115.313 46.7041L115.165 78.4251Z" fill="url(#paint20_linear_2_537)"/>
<path d="M115.109 90.3874L35.9249 90.8166V86.7557L115.127 86.5304L115.109 90.3874Z" fill="url(#paint21_linear_2_537)"/>
<path d="M114.971 120.027L35.9226 122.019L35.9232 117.973L114.989 116.184L114.971 120.027Z" fill="url(#paint22_linear_2_537)"/>
<path d="M73.9087 29.5739L35.9282 28.2735L35.9288 23.9788L73.9183 25.3825L73.9087 29.5739Z" fill="url(#paint23_linear_2_537)"/>
<path opacity="0.5" d="M65.7164 96.0303L65.6892 110.944L34.8466 111.516V96.305L65.7164 96.0303Z" fill="url(#paint24_linear_2_537)"/>
<path d="M34.8466 105.187V111.516L65.6892 110.944L65.7102 99.3368C63.8439 98.709 61.7739 98.3729 60.1425 99.41C56.7304 101.581 57.153 102.809 53.6059 102.239C50.8348 101.792 47.7529 101.385 45.3835 103.193C43.9171 104.311 43.1603 105.5 41.0518 105.351C39.0698 105.212 36.6777 103.904 34.8471 105.187H34.8466Z" fill="url(#paint25_linear_2_537)"/>
<path d="M115.072 98.2884L73.1367 98.7368L73.143 95.9644L115.085 95.5909L115.072 98.2884Z" fill="url(#paint26_linear_2_537)"/>
<path d="M115.045 104.065L73.1238 104.675L73.1295 102.102L115.057 101.562L115.045 104.065Z" fill="url(#paint27_linear_2_537)"/>
<path d="M115.017 110.03L73.1101 110.807L73.1163 108.038L115.03 107.337L115.017 110.03Z" fill="url(#paint28_linear_2_537)"/>
<path d="M124.346 139.463C124.346 139.463 119.199 141.819 119.115 142.193C119.032 142.567 122.429 142.06 123.817 142.11C125.204 142.161 126.344 141.748 126.217 141.16C126.09 140.572 125.601 139.094 125.601 139.094L124.346 139.462V139.463Z" fill="url(#paint29_linear_2_537)"/>
<path d="M124.153 137.561L124.472 139.882C124.472 139.882 125.288 140.171 125.836 139.826L126.063 137.279L124.152 137.561H124.153Z" fill="url(#paint30_linear_2_537)"/>
<path d="M148.423 137.558L149.025 138.52C149.194 138.789 149.244 139.113 149.165 139.42C148.957 140.222 148.542 141.783 148.36 142.19C148.113 142.745 144.779 143.083 144.779 143.083C144.779 143.083 144.48 142.665 145.172 142.157C145.863 141.649 146.308 141.569 146.55 140.822C146.793 140.075 146.951 137.963 146.951 137.963L148.423 137.558Z" fill="url(#paint31_linear_2_537)"/>
<path d="M145.922 135.117C146.142 135.292 147.221 138.543 147.221 138.543C147.221 138.543 147.569 138.985 148.225 138.329C148.882 137.673 148.523 138.035 148.523 138.035L148.392 134.835L145.922 135.118V135.117Z" fill="url(#paint32_linear_2_537)"/>
<path d="M121.206 90.9204C120.95 97.8473 120.957 105.372 121.375 113.409C121.845 122.46 122.766 130.825 123.92 138.406C124.342 138.419 124.786 138.42 125.249 138.406C125.562 138.397 125.865 138.381 126.158 138.36C126.744 136.786 127.435 134.716 128.053 132.244C128.703 129.645 129.093 127.314 129.369 125.086C130.342 117.239 129.178 116.557 129.969 110.742C130.67 105.591 131.684 105.388 132.857 98.0743C134.13 90.1393 133.165 88.9519 132.697 88.5227C130.701 86.6972 126.027 87.9546 121.205 90.9199L121.206 90.9204Z" fill="url(#paint33_linear_2_537)"/>
<path style="mix-blend-mode:multiply" opacity="0.3" d="M132.697 88.5232C130.794 86.7822 126.453 87.8494 121.872 90.5246C127.163 96.2174 127.747 99.9173 127.12 102.32C126.412 105.036 124.24 105.823 124.255 108.791C124.274 112.438 127.566 113.396 127.505 117.255C127.465 119.807 126.019 119.784 125.686 122.937C125.291 126.668 127.182 127.948 126.578 130.709C126.317 131.897 125.57 133.45 123.435 135.053C123.592 136.186 123.753 137.307 123.92 138.407C124.342 138.419 124.786 138.42 125.249 138.406C125.562 138.397 125.865 138.381 126.158 138.36C126.743 136.786 127.435 134.716 128.053 132.244C128.702 129.645 129.093 127.314 129.369 125.086C130.342 117.239 129.178 116.557 129.969 110.741C130.67 105.591 131.684 105.388 132.857 98.0742C134.13 90.1392 133.166 88.9517 132.697 88.5232H132.697Z" fill="url(#paint34_linear_2_537)"/>
<path d="M124.474 90.7967C129.034 97.4386 133.955 105.707 138.362 115.607C141.692 123.089 144.111 130.116 145.89 136.378C146.129 136.488 146.693 136.708 147.411 136.61C148.392 136.478 148.979 135.85 149.132 135.675C149.839 131.18 149.751 127.376 149.501 124.631C149.341 122.873 149.058 119.945 147.929 116.333C146.665 112.287 145.802 112.062 144.155 107.783C142.446 103.34 142.855 102.23 141.215 96.6701C140.541 94.3859 139.414 90.9869 137.559 86.9226C133.197 88.214 128.836 89.5059 124.475 90.7973L124.474 90.7967Z" fill="url(#paint35_linear_2_537)"/>
<path d="M105.951 81.4245C105.994 83.0405 108.649 84.4642 110.787 84.9007C115.784 85.9213 121.578 82.2878 124.328 78.2679C124.868 77.4789 125.469 76.5218 125.613 76.5956C125.94 76.7631 122.936 81.7026 121.633 87.3211C120.967 90.195 121.141 91.5414 119.895 93.4549C119.613 93.8886 119.265 94.3398 119.387 94.8524C119.694 96.1364 122.629 96.4702 124.665 96.7012C126.814 96.9453 128.819 96.922 130.8 96.8931C133.972 96.8465 134.223 96.6819 134.946 97.0372C137.153 98.1209 137.003 100.717 138.664 101.063C140.058 101.354 141.473 99.796 141.921 99.3021C144.252 96.7341 144.127 93.6383 144.541 90.5157C145.502 83.2557 149.444 75.302 153.3 70.2671C154.469 68.7401 155.282 67.9369 155.333 66.5178C155.482 62.352 148.887 57.753 143.395 57.2246C141.89 57.0798 139.195 57.1252 136.668 57.3636C135.658 57.459 134.583 57.5992 133.427 57.8013C130.625 58.2917 128.674 58.6334 126.685 59.5433C118.668 63.2142 120.417 71.3853 111.74 77.0355C108.756 78.978 105.907 79.7318 105.952 81.4245H105.951Z" fill="url(#paint36_linear_2_537)"/>
<path d="M138.802 52.9026C138.802 52.9026 139.146 54.8257 139.939 56.1943C140.655 57.4311 143.617 57.875 144.234 58.0902C144.851 58.3053 143.303 59.381 141.657 59.771C140.011 60.1609 135.195 60.4158 134.253 59.897C133.309 59.3781 134.865 59.2197 135.998 58.6237C137.131 58.0277 137.51 55.6056 137.159 54.5754C136.809 53.5451 138.803 52.902 138.803 52.902L138.802 52.9026Z" fill="url(#paint37_linear_2_537)"/>
<path d="M135.672 52.3462C134.478 51.492 134.147 49.1817 134.81 48.6629C135 48.5147 135.181 48.5829 137.877 49.6648C139.215 50.2023 139.874 50.4884 140.091 51.0799C140.223 51.4409 140.202 51.929 140.056 52.3133C139.98 52.5114 139.833 52.7572 139.507 53.2272C139.217 53.6445 139.237 53.6303 139.148 53.7517C138.935 54.0429 138.523 54.5333 137.77 55.1015C137.728 54.8887 137.661 54.6253 137.551 54.3375C137.508 54.2268 137.336 53.7937 137.063 53.4293C136.593 52.8021 136.06 52.6233 135.672 52.3457L135.672 52.3462Z" fill="url(#paint38_linear_2_537)"/>
<path d="M138.734 54.5437C138.734 54.5437 137.952 55.709 136.505 55.5507C135.208 55.4093 135.145 52.4837 136.003 51.9008C136.289 51.7061 136.848 51.6448 137.293 51.7912C137.556 51.8775 137.641 51.9922 138.074 52.125C138.474 52.2476 138.589 52.2078 138.707 52.3157C138.854 52.4508 138.951 52.7704 138.66 53.6122C138.919 53.3715 139.221 53.2881 139.427 53.3971C139.46 53.4147 139.547 53.4794 139.593 53.5736C139.76 53.9147 139.437 54.3268 138.734 54.5437Z" fill="url(#paint39_linear_2_537)"/>
<path style="mix-blend-mode:multiply" opacity="0.3" d="M112.962 81.1763C116.585 80.3595 118.029 80.3862 119.821 78.9415C122.804 76.5359 123.252 72.8752 124.986 72.9201C125.805 72.9411 126.471 73.7784 126.945 74.5986C126.508 75.2826 126.072 75.9666 125.635 76.6506C125.634 76.6244 125.628 76.6046 125.613 76.5972C125.469 76.5234 124.868 77.4799 124.328 78.2695C121.578 82.2889 115.784 85.9229 110.787 84.9023C109.354 84.6094 107.692 83.872 106.737 82.9314C109.204 82.0976 111.31 81.5498 112.962 81.1774L112.962 81.1763Z" fill="url(#paint40_linear_2_537)"/>
<path d="M107.06 85.218C107.06 85.218 105.016 85.0148 103.797 84.4931C102.579 83.9715 101.792 84.7208 101.904 85.239C102.016 85.7573 104.02 86.4793 104.821 86.5054C105.622 86.5315 107.06 85.2186 107.06 85.2186V85.218Z" fill="url(#paint41_linear_2_537)"/>
<path d="M151.096 95.1157C153.291 95.3116 158.232 95.4012 161.727 92.1657C167.546 86.7794 164.659 76.5274 162.634 72.1181C160.312 67.0627 156.616 64.2331 154.37 62.5131C151.583 60.3794 149.883 59.0773 147.837 59.369C142.545 60.1228 138.88 70.976 141.785 74.0832C142.736 75.1004 143.678 74.5242 146.43 75.4012C147.327 75.6868 154.016 77.8188 155.181 82.7493C155.996 86.1999 153.921 90.2403 150.227 92.9542C150.516 93.6745 150.806 94.3948 151.096 95.1151V95.1157Z" fill="url(#paint42_linear_2_537)"/>
<path style="mix-blend-mode:multiply" opacity="0.3" d="M126.49 93.3283C128.975 91.7565 129.342 90.1638 132.125 89.0875C135.74 87.6894 137.478 89.4656 139.271 88.0311C141.403 86.3248 139.516 83.3516 141.112 78.1918C141.383 77.3159 143.44 70.6644 148.162 69.8169C150.364 69.4219 153.272 70.2659 154.393 72.1329C155.27 73.5939 154.453 74.6833 155.52 76.2965C156.585 77.9086 157.86 77.514 159.218 78.8588C161.375 80.9936 161.706 85.4961 159.758 88.042C158.85 89.2294 157.67 89.6989 155.449 90.5827C154.093 91.1225 152.832 91.4579 151.745 91.6714C154.465 89.0597 155.876 85.6914 155.181 82.7493C154.454 79.6762 151.582 77.6905 149.304 76.561C147.024 80.854 145.161 85.8287 144.54 90.5151C144.127 93.6376 144.252 96.7335 141.92 99.3015C141.472 99.7953 140.057 101.354 138.663 101.063C137.003 100.717 137.152 98.1203 134.946 97.0367C134.222 96.6808 133.972 96.8459 130.8 96.8925C128.818 96.9214 126.813 96.9453 124.664 96.7006C122.853 96.4952 120.336 96.2068 119.585 95.2424C122.853 95.1532 125.035 94.2467 126.49 93.3272V93.3283Z" fill="url(#paint43_linear_2_537)"/>
<path d="M149.654 96.8426L149.91 96.0898C150.318 94.8899 149.647 93.6099 148.414 93.2335L100.038 78.4875L98.5638 83.4873L146.695 98.3218C147.923 98.6998 149.248 98.0391 149.655 96.8426H149.654Z" fill="url(#paint44_linear_2_537)"/>
<path d="M51.966 64.9426C55.6646 50.3209 70.1587 41.5089 84.4923 45.6385C99.0891 49.8441 107.446 65.6703 103.011 80.5889C98.6801 95.1572 83.828 103.016 69.9692 98.5215C56.3498 94.1042 48.3509 79.2316 51.9655 64.9426H51.966ZM98.8009 79.2986C102.467 66.8135 95.4728 53.5899 83.2835 50.0416C71.2785 46.5467 59.0812 53.8822 55.934 66.159C52.847 78.2002 59.5878 90.7518 71.0879 94.4488C82.7582 98.2008 95.2073 91.5374 98.8009 79.298V79.2986Z" fill="url(#paint45_linear_2_537)"/>
<g style="mix-blend-mode:multiply" opacity="0.3">
<path d="M100.038 78.4875L106.205 80.3676C106.629 82.3361 107.452 83.464 108.28 84.1509C111.395 86.7353 115.556 83.9164 121.36 86.947C124.272 88.4677 123.719 89.4355 126.449 90.4964C130.962 92.2504 133.028 89.8209 137.022 91.4171C141.063 93.032 141.461 96.5224 143.752 96.3969C144.733 96.3436 145.994 95.6301 147.402 92.9247L148.414 93.233C149.647 93.6093 150.318 94.8887 149.91 96.0893L149.654 96.842C149.248 98.0385 147.922 98.6993 146.695 98.3212L98.5632 83.4867L100.038 78.4875Z" fill="#D8DDE0"/>
</g>
<path opacity="0.56" d="M69.9461 96.4497C82.0174 100.337 94.9056 93.4531 98.6325 80.7875C102.437 67.8585 95.1949 54.1609 82.5671 50.4918C70.1367 46.8799 57.5191 54.4839 54.2698 67.1893C51.0846 79.6432 58.0568 92.6204 69.9461 96.4491V96.4497Z" fill="white"/>
<path d="M51.0289 66.1966C54.7275 51.5749 69.2216 42.763 83.5552 46.8925C98.1519 51.0981 106.509 66.9243 102.074 81.8429C97.743 96.4112 82.8909 104.27 69.0321 99.7756C55.4127 95.3582 47.4137 80.4856 51.0283 66.1966H51.0289ZM97.8638 80.5521C101.529 68.067 94.5356 54.8434 82.3463 51.2951C70.3414 47.8002 58.1441 55.1357 54.9969 67.4125C51.9099 79.4537 58.6506 92.0052 70.1508 95.7022C81.821 99.4543 94.2702 92.7908 97.8638 80.5515V80.5521Z" fill="url(#paint46_linear_2_537)"/>
<path d="M52.4301 66.6263C55.9357 52.8339 69.6181 44.547 83.1269 48.4535C96.8694 52.4275 104.743 67.3301 100.583 81.3859C96.5148 95.1306 82.5137 102.569 69.4275 98.3383C56.5552 94.1764 48.9998 80.1223 52.4301 66.6263ZM97.8638 80.5526C101.529 68.0675 94.5357 54.8439 82.3463 51.2956C70.3414 47.8007 58.1441 55.1363 54.9969 67.413C51.9099 79.4543 58.6507 92.0058 70.1508 95.7028C81.8211 99.4548 94.2702 92.7914 97.8638 80.5521V80.5526Z" fill="url(#paint47_linear_2_537)"/>
<path d="M150.909 94.6526L150.42 93.4368C150.42 93.4368 149.622 93.4856 148.967 93.0156C148.611 92.7596 147.977 92.6835 147.793 92.7346C147.609 92.7857 146.914 92.755 147.706 93.1337C148.499 93.5117 148.493 93.7926 148.162 94.1031C147.832 94.4136 146.575 95.0812 146.123 95.1136C145.671 95.1459 146.488 95.8458 146.945 95.9355C147.401 96.0246 148.149 96.1381 149.074 95.5926C149.412 95.3939 150.909 94.6532 150.909 94.6532V94.6526Z" fill="url(#paint48_linear_2_537)"/>
<defs>
<linearGradient id="paint0_linear_2_537" x1="29.5751" y1="30.5288" x2="5.2733" y2="87.3573" gradientUnits="userSpaceOnUse">
<stop stop-color="#51637F"/>
<stop offset="1" stop-color="#464848"/>
</linearGradient>
<linearGradient id="paint1_linear_2_537" x1="37.9372" y1="34.1048" x2="13.6354" y2="90.9328" gradientUnits="userSpaceOnUse">
<stop stop-color="#51637F"/>
<stop offset="1" stop-color="#464848"/>
</linearGradient>
<linearGradient id="paint2_linear_2_537" x1="38.5589" y1="59.5927" x2="-8.85368" y2="-0.423657" gradientUnits="userSpaceOnUse">
<stop stop-color="#ACAFB4"/>
<stop offset="1" stop-color="#AAADB2"/>
</linearGradient>
<linearGradient id="paint3_linear_2_537" x1="53.433" y1="8.70434" x2="34.0532" y2="54.0236" gradientUnits="userSpaceOnUse">
<stop stop-color="#51637F"/>
<stop offset="1" stop-color="#464848"/>
</linearGradient>
<linearGradient id="paint4_linear_2_537" x1="60.1012" y1="11.5562" x2="40.7214" y2="56.8754" gradientUnits="userSpaceOnUse">
<stop stop-color="#51637F"/>
<stop offset="1" stop-color="#464848"/>
</linearGradient>
<linearGradient id="paint5_linear_2_537" x1="60.597" y1="31.8824" x2="22.7869" y2="-15.9791" gradientUnits="userSpaceOnUse">
<stop stop-color="#ACAFB4"/>
<stop offset="1" stop-color="#AAADB2"/>
</linearGradient>
<linearGradient id="paint6_linear_2_537" x1="75.5261" y1="83.6541" x2="132.356" y2="83.6541" gradientUnits="userSpaceOnUse">
<stop stop-color="#8195C2"/>
<stop offset="1" stop-color="#56729A"/>
</linearGradient>
<linearGradient id="paint7_linear_2_537" x1="152.756" y1="61.2013" x2="127.897" y2="127.886" gradientUnits="userSpaceOnUse">
<stop stop-color="#90ACD7"/>
<stop offset="1" stop-color="#6B86B7"/>
</linearGradient>
<linearGradient id="paint8_linear_2_537" x1="107.664" y1="130.643" x2="141.639" y2="130.643" gradientUnits="userSpaceOnUse">
<stop stop-color="#ACAFB4"/>
<stop offset="1" stop-color="#AAADB2"/>
</linearGradient>
<linearGradient id="paint9_linear_2_537" x1="4.69824" y1="103.575" x2="110.992" y2="103.575" gradientUnits="userSpaceOnUse">
<stop stop-color="#355178"/>
<stop offset="1" stop-color="#262648"/>
</linearGradient>
<linearGradient id="paint10_linear_2_537" x1="9.06396" y1="102.876" x2="107.397" y2="102.876" gradientUnits="userSpaceOnUse">
<stop stop-color="#90ACD7"/>
<stop offset="1" stop-color="#6B86B7"/>
</linearGradient>
<linearGradient id="paint11_linear_2_537" x1="4.69824" y1="144.472" x2="164.825" y2="144.472" gradientUnits="userSpaceOnUse">
<stop stop-color="#355178"/>
<stop offset="1" stop-color="#262648"/>
</linearGradient>
<linearGradient id="paint12_linear_2_537" x1="90.8916" y1="36.5388" x2="31.0256" y2="160.262" gradientUnits="userSpaceOnUse">
<stop stop-color="white"/>
<stop offset="1" stop-color="#EBEEEE"/>
</linearGradient>
<linearGradient id="paint13_linear_2_537" x1="42.6934" y1="-25.7288" x2="28.027" y2="280.837" gradientUnits="userSpaceOnUse">
<stop stop-color="#8195C2"/>
<stop offset="1" stop-color="#56729A"/>
</linearGradient>
<linearGradient id="paint14_linear_2_537" x1="53.9797" y1="-25.1892" x2="39.3132" y2="281.376" gradientUnits="userSpaceOnUse">
<stop stop-color="#8195C2"/>
<stop offset="1" stop-color="#56729A"/>
</linearGradient>
<linearGradient id="paint15_linear_2_537" x1="64.5269" y1="-24.6842" x2="49.8605" y2="281.881" gradientUnits="userSpaceOnUse">
<stop stop-color="#8195C2"/>
<stop offset="1" stop-color="#56729A"/>
</linearGradient>
<linearGradient id="paint16_linear_2_537" x1="75.475" y1="-24.1603" x2="60.8086" y2="282.405" gradientUnits="userSpaceOnUse">
<stop stop-color="#8195C2"/>
<stop offset="1" stop-color="#56729A"/>
</linearGradient>
<linearGradient id="paint17_linear_2_537" x1="86.1769" y1="-23.6492" x2="71.5105" y2="282.918" gradientUnits="userSpaceOnUse">
<stop stop-color="#8195C2"/>
<stop offset="1" stop-color="#56729A"/>
</linearGradient>
<linearGradient id="paint18_linear_2_537" x1="96.1137" y1="-23.1734" x2="81.4473" y2="283.393" gradientUnits="userSpaceOnUse">
<stop stop-color="#8195C2"/>
<stop offset="1" stop-color="#56729A"/>
</linearGradient>
<linearGradient id="paint19_linear_2_537" x1="107.076" y1="-22.6491" x2="92.41" y2="283.916" gradientUnits="userSpaceOnUse">
<stop stop-color="#8195C2"/>
<stop offset="1" stop-color="#56729A"/>
</linearGradient>
<linearGradient id="paint20_linear_2_537" x1="116.646" y1="-22.1908" x2="101.98" y2="284.375" gradientUnits="userSpaceOnUse">
<stop stop-color="#8195C2"/>
<stop offset="1" stop-color="#56729A"/>
</linearGradient>
<linearGradient id="paint21_linear_2_537" x1="80.8907" y1="-23.9018" x2="66.2243" y2="282.665" gradientUnits="userSpaceOnUse">
<stop stop-color="#8195C2"/>
<stop offset="1" stop-color="#56729A"/>
</linearGradient>
<linearGradient id="paint22_linear_2_537" x1="82.2713" y1="-23.837" x2="67.6047" y2="282.732" gradientUnits="userSpaceOnUse">
<stop stop-color="#8195C2"/>
<stop offset="1" stop-color="#56729A"/>
</linearGradient>
<linearGradient id="paint23_linear_2_537" x1="57.394" y1="-25.0263" x2="42.7275" y2="281.542" gradientUnits="userSpaceOnUse">
<stop stop-color="#8195C2"/>
<stop offset="1" stop-color="#56729A"/>
</linearGradient>
<linearGradient id="paint24_linear_2_537" x1="56.4173" y1="-25.0729" x2="41.7508" y2="281.493" gradientUnits="userSpaceOnUse">
<stop stop-color="#8195C2"/>
<stop offset="1" stop-color="#56729A"/>
</linearGradient>
<linearGradient id="paint25_linear_2_537" x1="56.6288" y1="-25.0627" x2="41.9624" y2="281.505" gradientUnits="userSpaceOnUse">
<stop stop-color="#8195C2"/>
<stop offset="1" stop-color="#56729A"/>
</linearGradient>
<linearGradient id="paint26_linear_2_537" x1="99.8468" y1="-22.997" x2="85.1799" y2="283.575" gradientUnits="userSpaceOnUse">
<stop stop-color="#8195C2"/>
<stop offset="1" stop-color="#56729A"/>
</linearGradient>
<linearGradient id="paint27_linear_2_537" x1="100.111" y1="-22.9828" x2="85.4444" y2="283.584" gradientUnits="userSpaceOnUse">
<stop stop-color="#8195C2"/>
<stop offset="1" stop-color="#56729A"/>
</linearGradient>
<linearGradient id="paint28_linear_2_537" x1="100.374" y1="-22.9698" x2="85.7075" y2="283.596" gradientUnits="userSpaceOnUse">
<stop stop-color="#8195C2"/>
<stop offset="1" stop-color="#56729A"/>
</linearGradient>
<linearGradient id="paint29_linear_2_537" x1="121.863" y1="131.327" x2="123.185" y2="147.629" gradientUnits="userSpaceOnUse">
<stop stop-color="#142344"/>
<stop offset="1" stop-color="#515F85"/>
</linearGradient>
<linearGradient id="paint30_linear_2_537" x1="125.19" y1="140.396" x2="124.916" y2="123.511" gradientUnits="userSpaceOnUse">
<stop stop-color="#CACDD2"/>
<stop offset="1" stop-color="#96999D"/>
</linearGradient>
<linearGradient id="paint31_linear_2_537" x1="146.052" y1="129.366" x2="147.374" y2="145.667" gradientUnits="userSpaceOnUse">
<stop stop-color="#142344"/>
<stop offset="1" stop-color="#515F85"/>
</linearGradient>
<linearGradient id="paint32_linear_2_537" x1="147.362" y1="140.036" x2="147.087" y2="123.15" gradientUnits="userSpaceOnUse">
<stop stop-color="#CACDD2"/>
<stop offset="1" stop-color="#96999D"/>
</linearGradient>
<linearGradient id="paint33_linear_2_537" x1="121.096" y1="113.05" x2="133.574" y2="113.019" gradientUnits="userSpaceOnUse">
<stop stop-color="#355178"/>
<stop offset="1" stop-color="#3F416C"/>
</linearGradient>
<linearGradient id="paint34_linear_2_537" x1="121.096" y1="113.05" x2="133.573" y2="113.02" gradientUnits="userSpaceOnUse">
<stop stop-color="#355178"/>
<stop offset="1" stop-color="#3F416C"/>
</linearGradient>
<linearGradient id="paint35_linear_2_537" x1="124.557" y1="111.811" x2="149.676" y2="111.749" gradientUnits="userSpaceOnUse">
<stop stop-color="#355178"/>
<stop offset="1" stop-color="#3F416C"/>
</linearGradient>
<linearGradient id="paint36_linear_2_537" x1="88.3197" y1="127.881" x2="168.112" y2="42.7157" gradientUnits="userSpaceOnUse">
<stop stop-color="#CACDD2"/>
<stop offset="1" stop-color="#96999D"/>
</linearGradient>
<linearGradient id="paint37_linear_2_537" x1="138.943" y1="60.9102" x2="136.274" y2="84.4394" gradientUnits="userSpaceOnUse">
<stop stop-color="#CACDD2"/>
<stop offset="1" stop-color="#96999D"/>
</linearGradient>
<linearGradient id="paint38_linear_2_537" x1="140.432" y1="59.8421" x2="136.667" y2="48.7722" gradientUnits="userSpaceOnUse">
<stop stop-color="#355178"/>
<stop offset="1" stop-color="#3F416C"/>
</linearGradient>
<linearGradient id="paint39_linear_2_537" x1="137.283" y1="51.6788" x2="139.38" y2="69.0162" gradientUnits="userSpaceOnUse">
<stop stop-color="#CACDD2"/>
<stop offset="1" stop-color="#96999D"/>
</linearGradient>
<linearGradient id="paint40_linear_2_537" x1="106.736" y1="78.9972" x2="126.945" y2="78.9972" gradientUnits="userSpaceOnUse">
<stop stop-color="#CACDD2"/>
<stop offset="1" stop-color="#96999D"/>
</linearGradient>
<linearGradient id="paint41_linear_2_537" x1="104.875" y1="84.3024" x2="97.5452" y2="99.157" gradientUnits="userSpaceOnUse">
<stop stop-color="#CACDD2"/>
<stop offset="1" stop-color="#96999D"/>
</linearGradient>
<linearGradient id="paint42_linear_2_537" x1="97.3475" y1="136.34" x2="177.14" y2="51.1745" gradientUnits="userSpaceOnUse">
<stop stop-color="#CACDD2"/>
<stop offset="1" stop-color="#96999D"/>
</linearGradient>
<linearGradient id="paint43_linear_2_537" x1="119.585" y1="85.411" x2="161.044" y2="85.411" gradientUnits="userSpaceOnUse">
<stop stop-color="#CACDD2"/>
<stop offset="1" stop-color="#96999D"/>
</linearGradient>
<linearGradient id="paint44_linear_2_537" x1="98.5638" y1="88.458" x2="150.029" y2="88.458" gradientUnits="userSpaceOnUse">
<stop stop-color="#355178"/>
<stop offset="1" stop-color="#262648"/>
</linearGradient>
<linearGradient id="paint45_linear_2_537" x1="51.0981" y1="72.2015" x2="104.201" y2="72.2015" gradientUnits="userSpaceOnUse">
<stop stop-color="#355178"/>
<stop offset="1" stop-color="#262648"/>
</linearGradient>
<linearGradient id="paint46_linear_2_537" x1="70.4248" y1="102.074" x2="78.9786" y2="62.8304" gradientUnits="userSpaceOnUse">
<stop stop-color="#355178"/>
<stop offset="1" stop-color="#262648"/>
</linearGradient>
<linearGradient id="paint47_linear_2_537" x1="83.1299" y1="44.6417" x2="71.1928" y2="97.2711" gradientUnits="userSpaceOnUse">
<stop stop-color="#355178"/>
<stop offset="1" stop-color="#262648"/>
</linearGradient>
<linearGradient id="paint48_linear_2_537" x1="147.214" y1="98.1263" x2="149.307" y2="92.732" gradientUnits="userSpaceOnUse">
<stop stop-color="#CACDD2"/>
<stop offset="1" stop-color="#96999D"/>
</linearGradient>
</defs>
</svg>
