<svg width="109" height="249" viewBox="0 0 109 249" fill="none" xmlns="http://www.w3.org/2000/svg">
<g clip-path="url(#clip0_0_289)">
<path d="M84.2272 62.4768C84.4088 60.0734 85.0216 57.6927 86.0316 55.5047C86.5536 54.371 87.1891 53.2827 88.0175 52.3531C88.8687 51.4008 89.9127 50.6299 90.8546 49.7683C93.8279 47.0248 95.7684 43.1703 96.1883 39.1458C96.5174 35.9829 96.994 32.4798 96.245 29.3849C95.689 27.1062 92.1256 20.7576 90.0035 18.8077C86.5763 15.6561 81.4923 13.7062 76.8736 13.0713C72.2548 12.4365 67.4091 13.3774 63.4599 15.8375C58.3532 19.0231 54.9714 24.6688 54.2338 30.6319C53.5075 36.595 55.3573 42.7736 58.9774 47.569C60.4753 49.5529 62.2684 51.3101 63.7663 53.3054C65.8544 56.0942 67.3524 59.3139 68.1467 62.5448C70.0646 62.8963 72.0165 62.8849 73.9571 62.8736L78.8822 62.8509C80.6412 62.8509 82.3888 62.8396 84.2272 62.4655V62.4768Z" fill="white"/>
<path d="M85.1801 62.885C79.279 63.4518 73.3212 63.4518 67.4201 62.8623C67.091 67.8505 66.7619 70.8887 68.101 75.7068C68.7592 78.0535 69.9394 80.4456 72.0729 81.6133C74.6149 82.9963 77.747 82.3161 80.5387 81.5566C81.6168 81.2618 82.7402 80.9444 83.5914 80.2188C85.3503 78.7337 85.4411 76.1149 85.4071 73.8136C85.3276 69.3469 85.2482 66.9322 85.1688 62.8963L85.1801 62.885Z" fill="#6679A8"/>
<g opacity="0.13">
<path d="M53.7907 32.8426C54.256 32.3438 55.1185 32.4571 55.4589 33.0353C55.7086 33.6248 55.6178 33.3301 55.7313 34.1803C55.7427 34.2937 55.754 34.3957 55.7767 34.5091C55.8448 34.8492 56.0717 35.9715 56.1625 36.2209C56.015 35.8922 56.0264 35.9035 56.1739 36.2663C56.991 38.4429 57.1612 39.0778 58.1939 40.835C58.4549 41.3451 58.9542 42.5128 59.8961 43.6918C61.0309 45.2336 64.1404 48.1358 65.922 50.6526C66.4441 51.3668 67.6016 52.988 67.7718 53.2714H67.7831C68.4527 54.133 69.1336 54.9946 69.6329 55.9469C70.6316 57.8968 70.5408 57.8628 71.1649 59.2685C71.5281 60.2095 72.1182 61.4112 72.0728 62.3748C72.0728 62.4541 72.0501 62.5222 72.0387 62.5902C72.3792 63.157 72.5154 63.8486 72.3111 64.6195C71.7437 66.524 71.755 68.7347 71.8912 72.2264C72.0501 75.8542 71.8345 74.4597 72.7877 77.7474C73.3324 79.3232 72.9466 78.3709 73.7296 79.9014C73.9112 80.2755 74.2063 80.6269 74.2176 81.0577C74.3878 81.9873 73.8658 82.7015 73.1509 83.019C72.9693 82.9169 72.7991 82.8036 72.6289 82.6675C71.8912 82.0894 71.1763 81.4999 70.4159 80.9444C70.0415 80.6723 69.667 80.3889 69.2925 80.1054C68.6683 78.8244 68.2598 77.4186 67.9307 76.0355C67.42 73.0653 67.2838 72.4985 66.7732 69.2222C66.5689 67.8051 66.6483 66.3653 66.7732 64.9369C66.898 64.0413 66.9093 62.9983 67.5335 62.2841C67.7037 62.3068 67.8626 62.3294 68.0328 62.3408C68.3165 62.3748 68.6116 62.4088 68.8953 62.4315C67.6356 58.2595 66.6256 55.9469 64.3673 52.8633C62.892 51.0721 61.2352 49.4282 59.6691 47.7164C58.1825 46.1746 56.8661 44.4627 55.8448 42.5808C55.2887 41.2658 55.3795 41.3905 55.0164 40.4382C54.9596 40.2795 55.0504 40.4835 55.0958 40.6083C54.8915 40.1434 54.6986 39.656 54.5057 39.1798C54.2106 38.4429 54.0291 37.6607 53.9042 36.8785C53.9042 36.8785 53.9042 36.8671 53.9042 36.8445C53.6205 35.3027 53.0645 33.6702 53.7794 32.8313L53.7907 32.8426Z" fill="#535253"/>
</g>
<g opacity="0.13">
<path d="M71.3008 59.5293C71.2554 59.4272 71.2213 59.3479 71.1759 59.2572C71.1646 59.2232 71.1533 59.1892 71.1306 59.1552L71.2894 59.5293H71.3008Z" fill="#535253"/>
</g>
<path d="M75.7274 83.2457C76.6125 83.2457 77.3956 83.155 77.9289 83.0756C79.7106 82.7922 84.0002 81.7606 85.3734 78.1668C85.8614 76.8744 85.8727 75.4573 85.8841 74.2103C85.8841 71.9316 85.9068 70.1744 85.9181 68.4172C85.9181 66.66 85.9408 64.9028 85.9521 62.6242C85.9521 62.4881 85.8954 62.3634 85.7933 62.284C85.6911 62.1934 85.5663 62.1593 85.4301 62.1707C81.9803 62.5901 70.5299 62.7602 67.4091 62.4541C67.2843 62.4428 67.1594 62.4768 67.0686 62.5561C66.9779 62.6355 66.9211 62.7489 66.9098 62.8736C66.4785 68.4286 66.7282 70.5032 67.5453 75.6614C67.8176 77.4072 68.1808 79.2325 69.3383 80.6836C71.0178 82.7809 73.6733 83.257 75.7274 83.257V83.2457ZM85.0216 63.123C85.0216 65.1522 84.9989 66.7847 84.9875 68.4059C84.9875 70.1631 84.9648 71.9203 84.9535 74.199C84.9535 75.4347 84.9422 76.7044 84.5109 77.8381C83.308 80.9897 79.4042 81.9193 77.7814 82.1687C76.1586 82.4181 72.1527 82.7355 70.0419 80.0941C69.0319 78.8243 68.6914 77.1352 68.4418 75.5027C67.6588 70.5599 67.3977 68.4966 67.7836 63.3837C71.3129 63.6331 81.2199 63.4857 85.0216 63.1116V63.123Z" fill="#535253"/>
<path d="M68.5548 63.2477C68.5548 63.2477 68.6002 63.2477 68.6229 63.2477C68.8726 63.2137 69.0428 62.9756 68.9974 62.7262C68.2144 57.8174 64.9234 53.9063 61.7459 50.1311C58.784 46.6167 55.72 42.9776 54.7667 38.5903C54.256 36.2323 54.3128 30.4506 56.0831 25.5758C57.3882 21.9593 59.2606 19.2499 61.6324 17.5153C66.0809 14.2617 73.7523 11.9263 79.7896 13.7742C85.5545 15.5314 90.2641 18.8304 93.0557 23.059C95.6204 26.9475 96.7326 31.811 96.1878 36.7424C95.6772 41.3565 93.7593 45.8798 90.6272 49.8137C90.196 50.3579 89.742 50.8907 89.2881 51.4122C88.3575 52.5118 87.3929 53.6342 86.6099 54.8926C85.2027 57.1486 84.4424 59.756 84.3857 62.4088C84.3857 62.6582 84.5786 62.8736 84.8282 62.8736C85.0893 62.8736 85.2935 62.6809 85.2935 62.4315C85.3389 59.9374 86.0652 57.5 87.3816 55.38C88.1192 54.1783 89.0725 53.0787 89.9804 52.0017C90.4343 51.4689 90.8996 50.9247 91.3308 50.3692C94.565 46.2993 96.551 41.6172 97.073 36.8331C97.6404 31.6863 96.4829 26.6074 93.7934 22.5375C90.8882 18.1275 85.9971 14.6925 80.0279 12.8786C73.707 10.9514 65.6951 13.3661 61.0536 16.7558C58.523 18.6037 56.5484 21.4605 55.1753 25.247C53.3482 30.3032 53.2914 36.3003 53.8248 38.7717C54.8235 43.3858 57.9669 47.1042 60.9969 50.7093C64.2425 54.5638 67.3065 58.2029 68.0442 62.8623C68.0782 63.089 68.2711 63.2477 68.4981 63.2477H68.5548Z" fill="#535253"/>
<path d="M73.4013 62.987C73.651 62.987 73.8553 62.7829 73.8553 62.5222V62.4428C73.8099 57.7608 73.6056 52.8746 73.2425 47.9205C73.0836 45.7552 72.8907 43.7826 72.3005 41.912C73.6964 41.5152 74.9674 40.6196 75.7845 39.5653C75.9093 39.4066 76.0228 39.2479 76.1363 39.0778C76.3065 39.4066 76.4767 39.724 76.6583 40.0528C77.7818 42.0254 79.0187 43.0343 80.4372 43.1704C80.8571 43.2044 81.277 43.159 81.6856 43.057C81.2997 44.3947 81.0274 45.7325 80.789 47.0022C79.8698 52.0357 79.4613 57.1939 79.5861 62.3068C79.5861 62.5562 79.8017 62.7603 80.0514 62.7489C80.3011 62.7489 80.5053 62.5335 80.494 62.2841C80.3692 57.2279 80.7777 52.1377 81.6856 47.1609C81.9466 45.7098 82.2757 44.1907 82.7523 42.6829C82.9452 42.5922 83.1381 42.5128 83.3197 42.4221C85.2262 41.4925 87.5753 40.1435 88.8463 37.9328C89.4024 36.9578 89.4705 36.0396 89.0165 35.4047C88.5059 34.6905 87.5186 34.5771 86.8036 34.8265C86.1 35.0759 85.578 35.6201 85.1695 36.1076C83.6942 37.8648 82.7069 39.9167 82.026 42.0027C81.538 42.1841 81.0387 42.3088 80.5394 42.2634C79.4386 42.1614 78.4286 41.2998 77.464 39.6106C77.1916 39.1232 76.9306 38.6357 76.6923 38.1369C77.4073 36.7084 77.8158 34.9512 77.9406 32.8313C78.0314 31.2101 78.0201 28.8294 76.7264 26.9588C76.3178 26.3693 75.7958 26.1086 75.2965 26.256C74.9333 26.3693 74.7177 26.6528 74.5702 26.8908C73.7304 28.2739 73.5262 30.0311 73.9347 32.4345C74.2751 34.3957 74.8539 36.3003 75.671 38.1029C75.4894 38.4203 75.2851 38.7264 75.0695 38.9985C74.3432 39.9281 73.2311 40.7216 72.0055 41.0504C71.9828 40.9824 71.9488 40.9144 71.9261 40.8463C71.0409 38.6924 69.4975 36.7765 67.591 35.4614C67.2165 35.2007 66.7626 34.9399 66.2406 35.0193C65.832 35.0759 65.4916 35.314 65.2987 35.6881C64.9242 36.391 65.1285 37.434 65.4576 38.1029C66.4448 40.0528 67.6932 41.3112 69.1684 41.844C69.9061 42.1161 70.6664 42.1841 71.404 42.0934C71.9941 43.9073 72.1757 45.8572 72.3346 47.9998C72.6977 52.9426 72.902 57.8061 72.9474 62.4655V62.5449C72.9474 62.7943 73.1517 62.9983 73.4013 62.9983V62.987ZM87.5526 35.5974C87.8363 35.5974 88.12 35.6881 88.2789 35.9149C88.6307 36.4023 88.1995 37.2299 88.0633 37.468C86.9738 39.3612 84.9992 40.5629 83.1722 41.4699C83.8077 39.758 84.6588 38.1142 85.8617 36.6858C86.2022 36.289 86.6107 35.8468 87.11 35.6768C87.2462 35.6314 87.3937 35.6088 87.5413 35.6088L87.5526 35.5974ZM71.0863 41.1978C70.5529 41.2318 70.0082 41.1638 69.4862 40.971C68.2379 40.5176 67.1598 39.4066 66.2746 37.6721C66.0023 37.1392 65.9342 36.4364 66.1044 36.0963C66.1611 35.9829 66.2406 35.9262 66.3654 35.9149C66.581 35.8809 66.842 36.0396 67.069 36.2096C68.8393 37.434 70.2692 39.2025 71.0863 41.1978ZM75.5802 27.1289C75.6483 27.1289 75.8072 27.2309 75.9774 27.4803C76.8399 28.7274 77.169 30.4052 77.0328 32.7746C76.9306 34.4298 76.6583 35.8355 76.193 37.0145C75.5688 35.4954 75.1149 33.9196 74.8426 32.2984C74.4681 30.1218 74.6269 28.5573 75.3532 27.3783C75.4667 27.1856 75.5348 27.1516 75.5575 27.1402H75.5688L75.5802 27.1289Z" fill="#535253"/>
<path d="M51.181 18.4676C51.3399 18.4676 51.4875 18.3882 51.5782 18.2522C51.7031 18.0368 51.6463 17.7647 51.4307 17.6287L46.2673 14.2843C45.6998 13.9102 45.348 14.137 45.2119 14.2617C45.087 14.375 45.0189 14.5337 45.0416 14.7038C45.087 15.1006 45.087 15.1459 50.9541 18.4222C51.0222 18.4562 51.1016 18.4789 51.181 18.4789V18.4676Z" fill="#535253"/>
<path d="M84.0339 7.33495C84.2155 7.33495 84.3857 7.22158 84.4538 7.04019L86.9844 0.623604C87.0752 0.385532 86.9617 0.124788 86.7234 0.0340937C86.4851 -0.0566001 86.2241 0.0567672 86.1333 0.294839L83.614 6.72277C83.5232 6.96084 83.6367 7.22158 83.875 7.31228C83.9317 7.33495 83.9885 7.34629 84.0452 7.34629L84.0339 7.33495Z" fill="#535253"/>
<path d="M100.989 21.6759C100.989 21.6759 101.057 21.6759 101.091 21.6646L106.765 20.3382C107.174 20.2361 107.423 20.0434 107.503 19.7373C107.548 19.5559 107.503 19.3632 107.355 19.2385C107.083 18.9778 106.913 18.8304 100.853 20.7916C100.614 20.871 100.489 21.1091 100.558 21.3471C100.614 21.5512 100.796 21.6759 101 21.6759H100.989Z" fill="#535253"/>
<path d="M108.547 46.628C108.717 46.628 108.876 46.5373 108.955 46.3786C109.069 46.1519 108.978 45.8798 108.751 45.7664L102.872 42.8529C102.645 42.7395 102.373 42.8302 102.26 43.0569C102.146 43.2837 102.237 43.5558 102.464 43.6691L108.342 46.5827C108.41 46.6167 108.478 46.628 108.547 46.628Z" fill="#535253"/>
<path d="M66.7168 7.21025C66.7168 7.21025 66.8189 7.21025 66.8643 7.18757C67.1026 7.10821 67.2274 6.84747 67.148 6.6094L65.0713 0.521573C64.9918 0.283501 64.7308 0.158797 64.4925 0.238154C64.2542 0.317512 64.1294 0.578256 64.2088 0.816328L66.2855 6.90415C66.3536 7.09688 66.5238 7.21025 66.7168 7.21025Z" fill="#535253"/>
<path d="M43.7936 41.9233C43.8617 41.9233 43.9184 41.912 43.9865 41.878L49.706 39.3046C49.933 39.2025 50.0351 38.9304 49.933 38.7037C49.8309 38.477 49.5585 38.3749 49.3316 38.477L43.612 41.0504C43.3851 41.1524 43.2829 41.4245 43.3851 41.6513C43.4645 41.8213 43.6234 41.9233 43.805 41.9233H43.7936Z" fill="#535253"/>
<path d="M73.9911 66.524C74.0706 66.524 74.1387 66.456 74.1387 66.3767C74.1387 66.2973 74.0706 66.2179 73.9911 66.2179L68.7142 66.1159C68.6348 66.1159 68.5667 66.1839 68.5667 66.2633C68.5667 66.3426 68.6348 66.422 68.7142 66.422L73.9911 66.524Z" fill="#535253"/>
<path d="M72.788 69.6869C72.8675 69.6869 72.9355 69.6189 72.9355 69.5396C72.9355 69.4602 72.8675 69.3809 72.788 69.3809L69.8488 69.2902C69.7694 69.2902 69.7013 69.3582 69.7013 69.4375C69.7013 69.5169 69.7694 69.5963 69.8488 69.5963L72.788 69.6869Z" fill="#535253"/>
<path d="M70.745 72.7138L72.6288 72.6345C72.7083 72.6345 72.7764 72.5551 72.7764 72.4757C72.7764 72.3964 72.6969 72.3284 72.6175 72.3284L70.7337 72.4077C70.6542 72.4077 70.5862 72.4871 70.5862 72.5664C70.5862 72.6458 70.6542 72.7138 70.7337 72.7138H70.745Z" fill="#535253"/>
<path d="M17.8166 132.855C14.5029 133.547 11.7226 135.893 9.80476 138.682C7.88691 141.471 6.71804 144.691 5.56052 147.865C4.60727 150.506 3.64267 153.137 2.70076 155.778C2.19009 158.601 1.69076 161.424 1.18009 164.235C0.839642 166.106 0.510544 168.067 1.00986 169.904C1.52054 171.763 2.90503 173.361 4.57323 174.053C6.80883 175.753 9.66859 176.615 12.4943 176.502C12.1766 180.367 12.256 184.267 12.8007 187.963C22.4808 188.859 32.2062 187.498 41.9317 185.979C42.2154 184.347 42.4197 182.703 42.5331 181.025C37.8463 179.971 33.0914 179.188 28.2343 178.633C29.5734 176.037 30.9125 173.452 32.2516 170.856C32.3197 170.72 32.3878 170.584 32.3991 170.436C32.3991 170.232 32.2857 170.051 32.1722 169.881C30.9806 168.033 30.3111 165.868 30.3678 163.532C32.7396 161.957 35.2022 160.517 37.7442 159.224C39.5372 155.529 41.4324 151.867 43.4637 148.182C44.8822 148.148 46.3008 148.273 47.8555 148.863C46.9817 145.042 45.6199 141.324 43.8382 137.832C43.2594 136.71 42.6353 135.599 41.7615 134.692C40.8876 133.785 39.7415 133.082 38.4251 132.935C35.6561 138.603 32.8758 144.271 29.9366 149.906C26.2143 143.92 22.0495 138.206 17.8166 132.855Z" fill="#6679A8"/>
<path d="M16.171 242.402C15.9554 243.808 15.8533 245.225 15.876 246.642C15.876 246.903 15.8873 247.175 16.0008 247.413C16.3072 248.048 17.147 248.161 17.8619 248.172L22.7417 248.286C23.7971 248.308 24.8524 248.331 25.8965 248.161C25.261 247.027 24.1829 246.188 23.014 245.622C21.8338 245.066 20.5515 244.771 19.2805 244.545C19.2918 243.808 19.3145 243.082 19.3259 242.345C18.2591 242.413 17.1924 242.379 16.1824 242.391L16.171 242.402Z" fill="#6679A8"/>
<path d="M31.5255 242.402C31.3099 243.808 31.2078 245.225 31.2305 246.642C31.2305 246.903 31.2418 247.175 31.3553 247.413C31.6617 248.048 32.5015 248.161 33.2164 248.172L38.0962 248.286C39.1516 248.308 40.2069 248.331 41.251 248.161C40.6155 247.027 39.5374 246.188 38.3685 245.622C37.1883 245.066 35.906 244.771 34.6349 244.545C34.6463 243.808 34.669 243.082 34.6803 242.345C33.6136 242.413 32.5469 242.379 31.5369 242.391L31.5255 242.402Z" fill="#6679A8"/>
<path d="M39.7076 186.716C40.1502 205.308 39.4466 223.935 37.4833 242.413C35.5087 242.391 33.5341 242.357 31.5255 242.368C32.5695 226.349 32.2404 210.228 30.368 193.767C28.6544 194.618 26.5209 193.529 24.8754 194.47C23.4228 207.292 22.027 220.137 21.505 232.959C21.4709 236.122 21.3575 239.284 21.1645 242.277C18.8268 242.345 16.4777 242.323 14.2535 241.881C13.4591 238.083 13.9584 234.138 14.3215 230.272C15.6379 216.339 15.1386 202.236 13.0619 188.212C16.1373 188.507 19.2467 188.462 22.3107 188.076C23.5136 187.929 24.7052 187.725 25.9081 187.6C30.629 187.113 35.5087 187.816 39.7076 186.705V186.716Z" fill="white"/>
<path d="M43.2597 148.092C41.4553 152.014 39.6169 155.925 37.7898 159.848L35.9854 163.702C34.6236 166.593 33.2732 169.496 31.6958 172.284C30.6177 174.2 29.4261 176.082 28.8587 178.304C33.8179 179.733 38.9473 180.538 44.0427 181.342C45.2456 181.535 46.4485 181.717 47.9351 181.785C50.2956 178.372 51.873 174.495 53.632 170.743C56.7414 164.145 60.4636 157.853 64.3447 151.515C61.7006 150.654 58.9997 149.985 56.2534 149.532C54.0972 149.169 51.9297 148.942 49.7509 148.715C47.5834 148.489 45.4272 148.25 43.2483 148.114L43.2597 148.092Z" fill="white"/>
<path d="M31.6837 169.325C35.4286 169.439 39.1962 168.09 41.9311 165.369C41.6247 165.278 41.602 164.836 41.7382 164.541C41.8857 164.258 42.1241 164.009 42.1581 163.68C42.1921 163.362 41.795 163.011 41.568 163.238L41.9425 161.685C41.9879 161.48 42.0333 161.254 41.9084 161.095C41.795 160.936 41.568 160.902 41.3751 160.902C39.3664 160.88 37.6642 162.75 35.6556 162.614C36.1095 162.127 36.779 161.889 37.3805 161.594C37.9819 161.299 38.5948 160.857 38.7423 160.199C38.765 160.086 38.7763 159.961 38.7082 159.859C38.6061 159.712 38.3905 159.701 38.2089 159.723C35.3491 159.984 32.932 161.855 30.685 163.646C30.6169 163.702 30.5488 163.748 30.5148 163.827C30.4694 163.918 30.4807 164.02 30.4807 164.122C30.6283 165.992 31.0141 167.84 31.6496 169.314L31.6837 169.325Z" fill="white"/>
<path d="M54.7212 171.627C52.6785 172.296 50.3407 172.046 48.4796 170.958C47.7533 170.527 47.0157 169.768 47.2427 168.951C48.4569 169.019 49.6825 169.144 50.8855 169.303C50.1365 168.226 48.5931 167.795 48.1278 166.571C48.0938 166.48 48.0711 166.389 48.0938 166.299C48.1619 166.083 48.4683 166.094 48.6839 166.151C50.1705 166.571 51.6117 167.489 53.1438 167.251C52.304 166.729 51.5096 166.128 50.806 165.437C50.4202 165.063 50.0684 164.405 50.4769 164.054C50.7152 163.85 51.0784 163.918 51.3734 164.009C53.1097 164.53 54.8006 165.584 56.605 165.312C56.9341 165.267 57.2745 165.165 57.5923 165.244C58.0349 165.346 58.3413 165.754 58.5001 166.174C58.9541 167.376 58.4207 168.77 57.5128 169.688C56.605 170.606 55.5042 171.355 54.7098 171.615L54.7212 171.627Z" fill="white"/>
<path d="M30.1517 150.132C32.183 144.09 36.5748 139.079 38.6402 132.47C36.6656 131.767 34.6116 131.291 32.1717 131.098C31.8653 129.205 31.6951 127.3 32.2058 124.874C35.3379 123.922 38.3565 122.255 40.2744 119.614C42.2263 116.916 42.8391 113.435 42.5327 110.125C42.2263 106.815 41.0574 103.652 39.6956 100.613C37.982 96.7817 35.9507 93.1086 33.8172 89.4695C29.4595 92.2583 24.8407 95.1265 19.9269 95.512C17.5098 95.512 15.0812 95.6367 12.6754 95.8521C12.4711 95.8747 12.2442 95.8974 12.0966 96.0561C11.9605 96.2035 11.9378 96.4189 11.9264 96.6116L11.5633 102.416C10.4852 102.518 9.37306 102.076 8.31767 102.359C6.4906 102.847 5.90049 105.466 7.01262 106.996C8.12475 108.527 10.2923 108.957 12.1307 108.527C12.6754 111.95 13.5606 115.363 15.2061 118.412C16.8516 121.462 19.3141 124.149 22.4463 125.645C22.8321 125.826 23.2633 126.03 23.4109 126.427C23.4903 126.631 23.4676 126.858 23.4562 127.073C23.3882 128.116 23.3087 129.148 23.2406 130.191C23.2179 130.474 23.1952 130.769 23.0591 131.007C22.8321 131.404 22.3555 131.585 21.9242 131.744C20.6759 132.175 19.4276 132.606 18.1793 133.037C22.1739 138.558 26.1571 144.079 30.1631 150.155L30.1517 150.132Z" fill="white"/>
<path d="M35.0205 82.6335C35.917 83.1209 36.2575 84.2773 36.1553 85.2976C36.0759 86.2045 35.7014 87.0888 35.1227 87.7917C34.7141 88.2791 34.2148 88.6759 33.7155 89.0614C27.6215 93.6301 19.8706 95.9088 12.4261 95.6707C11.7793 97.802 11.6091 100.081 11.9268 102.291C10.4515 101.815 8.74931 102.065 7.4783 102.96C7.5237 100.081 7.75066 97.1671 8.78335 94.4803C9.81605 91.7935 11.7452 89.3448 14.4007 88.2451C17.4761 86.0912 21.1189 84.9461 24.705 83.8351C27.3718 83.0076 30.084 82.1687 32.8757 82.2027C33.6133 82.2027 34.351 82.2707 35.0205 82.6448V82.6335Z" fill="white"/>
<path d="M12.1647 108.391C12.3236 109.694 12.6641 110.975 13.1407 112.2C13.345 112.698 13.5719 113.254 13.379 113.753C12.4711 113.628 11.7449 112.971 11.098 112.336C10.4738 111.712 9.81565 110.987 9.79295 110.102C9.77025 109.263 10.4171 108.447 11.2342 108.288C11.6654 108.198 12.142 108.254 12.1647 108.391Z" fill="white"/>
<path d="M56.6843 165.12C56.8432 165.12 57.0021 165.029 57.0929 164.881C59.5327 160.301 62.2336 155.801 65.1047 151.504C65.1842 151.379 65.2069 151.221 65.1501 151.085C65.0934 150.949 64.9799 150.847 64.8324 150.801C56.707 148.772 49.5009 148.012 43.5203 147.548C43.3388 147.536 43.1572 147.627 43.0778 147.797C42.0224 149.872 41.0578 151.742 40.1159 153.556C39.0945 155.529 38.1413 157.388 37.154 159.338C37.0405 159.565 37.1313 159.837 37.3582 159.95C37.5852 160.063 37.8576 159.973 37.971 159.746C38.9583 157.796 39.9116 155.937 40.9329 153.976C41.8295 152.241 42.7487 150.461 43.7587 148.489C49.4782 148.942 56.3212 149.679 63.9813 151.538C61.2236 155.699 58.6362 160.041 56.2758 164.451C56.1623 164.677 56.2417 164.949 56.4687 165.074C56.5368 165.108 56.6162 165.131 56.6843 165.131V165.12Z" fill="#535253"/>
<path d="M47.7417 182.669C47.9233 182.669 48.0821 182.567 48.1616 182.397C49.6936 179.018 51.3504 175.799 53.2229 172.556C53.3477 172.341 53.2683 172.058 53.0527 171.933C52.8371 171.808 52.5534 171.888 52.4285 172.103C50.6128 175.266 48.99 178.395 47.4807 181.682C41.5342 180.265 34.8501 179.075 28.9603 178.361C29.2554 177.794 29.6072 177.148 29.9703 176.479C31.1279 174.336 32.5691 171.672 33.511 169.564C33.6131 169.337 33.511 169.065 33.284 168.963C33.0571 168.861 32.7847 168.963 32.6826 169.189C31.752 171.264 30.3221 173.917 29.176 176.037C28.6766 176.955 28.2113 177.817 27.8482 178.508C27.7801 178.644 27.7801 178.803 27.8482 178.928C27.9163 179.064 28.0525 179.154 28.2 179.166C34.3281 179.869 41.4094 181.127 47.6282 182.623C47.6623 182.623 47.6963 182.635 47.7303 182.635L47.7417 182.669Z" fill="#535253"/>
<path d="M26.4523 110.817C26.5318 110.817 26.5999 110.794 26.6679 110.76C26.8949 110.635 26.9744 110.363 26.8495 110.136C26.2708 109.071 26.5318 107.574 27.4396 106.803C27.7801 106.509 28.2227 106.293 28.7787 106.123C30.1746 105.715 31.559 105.919 32.4783 106.667C32.9095 107.019 33.2272 107.597 33.284 108.13C33.3067 108.368 33.284 108.719 33.0457 109.003C32.8868 109.195 32.9095 109.479 33.1024 109.649C33.2953 109.808 33.579 109.785 33.7493 109.592C34.0897 109.173 34.2486 108.64 34.1918 108.05C34.1124 107.28 33.6812 106.475 33.057 105.964C31.8995 105.024 30.1973 104.763 28.5177 105.262C27.8255 105.466 27.2808 105.749 26.8382 106.123C25.6012 107.177 25.2494 109.139 26.0438 110.59C26.1232 110.737 26.2821 110.828 26.441 110.828L26.4523 110.817Z" fill="#535253"/>
<path d="M21.7884 116.848C21.7884 116.848 21.8224 116.848 21.8451 116.848C24.8751 116.462 27.7462 115.079 29.9818 112.914C32.8075 114.682 36.7 114.546 39.3895 112.54C39.503 112.46 39.7413 112.279 39.7981 111.973C39.8775 111.587 39.6278 111.27 39.5484 111.168C38.3455 109.649 36.3142 108.923 33.3182 108.969C29.9024 109.014 25.1815 109.785 22.1288 113.277C21.5728 113.911 21.1302 115.204 21.3458 116.474C21.3799 116.7 21.5728 116.859 21.7997 116.859L21.7884 116.848ZM29.9251 111.871C29.8003 111.871 29.6868 111.916 29.596 112.007C27.5873 114.059 24.9772 115.419 22.1969 115.873C22.1856 115.068 22.4693 114.263 22.8097 113.877C25.6468 110.647 30.0953 109.921 33.3296 109.887C36.0078 109.853 37.8121 110.465 38.8335 111.735C38.8448 111.758 38.8562 111.769 38.8675 111.78L38.8335 111.803C36.3482 113.662 32.7054 113.719 30.1861 111.95C30.1067 111.894 30.0159 111.871 29.9251 111.871Z" fill="#535253"/>
<path d="M29.4255 118.231C31.1051 118.231 32.7846 117.449 33.84 116.066C33.9875 115.861 33.9535 115.578 33.7492 115.431C33.5449 115.283 33.2612 115.317 33.1137 115.521C31.9108 117.097 29.6525 117.743 27.8481 117.029C27.6098 116.938 27.3488 117.052 27.258 117.29C27.1672 117.528 27.2807 117.789 27.519 117.879C28.1318 118.117 28.7787 118.242 29.4255 118.242V118.231Z" fill="#535253"/>
<path d="M26.3846 126.473C28.677 126.473 30.9466 125.86 33.0007 125.305C38.1301 123.979 42.2041 119.296 42.9077 113.923C43.4751 109.547 41.9658 105.205 40.2636 101.158C38.3003 96.5323 36.4165 92.8592 34.3057 89.6055C34.2717 89.5489 34.215 89.5035 34.1582 89.4582C35.6448 88.1998 36.4619 86.8054 36.6321 85.2636C36.7002 84.6854 36.6775 83.8465 36.2236 83.1549C35.4973 82.0439 34.1128 81.8625 33.1255 81.8172C27.4514 81.5678 22.0269 83.9825 16.5117 86.692C15.0477 87.4176 13.3909 88.2338 11.9951 89.4241C10.656 90.5805 9.52114 92.179 8.81755 93.9248C7.48981 96.3849 7.01318 99.3665 7.5125 102.144C7.10397 102.314 6.75217 102.563 6.46846 102.881C5.75352 103.674 5.49251 104.91 5.79891 106.123C6.13936 107.484 7.13801 108.64 8.40902 109.15C9.47575 109.581 10.7014 109.547 11.7567 109.071C12.5284 112.698 13.5498 116.451 15.5244 119.659C17.7827 123.31 21.051 125.736 24.5122 126.314C25.1363 126.416 25.7718 126.461 26.396 126.461L26.3846 126.473ZM33.4773 89.991C33.4773 89.991 33.5114 90.0703 33.5341 90.1044C35.6108 93.3127 37.4719 96.9404 39.4124 101.52C41.0806 105.443 42.5446 109.66 41.9998 113.809C41.3417 118.82 37.5513 123.185 32.7737 124.421C30.2431 125.101 27.3833 125.872 24.6597 125.418C21.4595 124.885 18.4182 122.607 16.3074 119.183C14.2988 115.929 13.3001 112.018 12.5284 108.288C12.4944 108.141 12.3923 108.016 12.2561 107.96C12.1199 107.903 11.961 107.914 11.8248 108.005C10.9283 108.606 9.74811 108.719 8.76081 108.322C7.76216 107.914 6.96778 106.996 6.69542 105.919C6.46846 105.023 6.65004 104.071 7.14936 103.516C7.60329 103.017 8.38631 102.745 9.23743 102.813C9.49844 102.836 9.75946 102.881 10.0318 102.926C10.6673 103.028 11.3142 103.142 11.9951 102.926C12.1993 102.858 12.3355 102.665 12.3128 102.45C12.1085 99.922 12.188 97.7566 12.5625 96.0221C19.0083 95.9428 25.4541 94.333 31.2417 91.3741C32.0928 90.9319 32.8418 90.4785 33.4887 90.0137L33.4773 89.991ZM11.3596 102.099C10.9851 102.133 10.5879 102.065 10.168 101.997C9.88429 101.951 9.58923 101.895 9.28283 101.872C8.97643 101.849 8.67002 101.861 8.38631 101.906C7.94373 99.3438 8.38632 96.6003 9.62328 94.3443C9.62328 94.333 9.63462 94.3103 9.64597 94.2989C10.3042 92.6665 11.3482 91.1927 12.5852 90.127C13.8902 89.0047 15.4903 88.2225 16.9089 87.5196C22.3106 84.8668 27.6216 82.4974 33.0801 82.7355C34.3171 82.7922 35.0774 83.0869 35.4519 83.6651C35.7583 84.1299 35.7697 84.7421 35.7243 85.1729C35.4973 87.2135 33.8972 88.9707 30.8105 90.5465C25.0456 93.494 18.6111 95.0698 12.188 95.0925C11.9837 95.0925 11.7908 95.2399 11.7454 95.444C11.3028 97.2465 11.178 99.4798 11.3596 102.11V102.099Z" fill="#535253"/>
<path d="M13.0498 114.773C13.186 114.773 13.3108 114.716 13.4016 114.603C13.5605 114.41 13.5378 114.115 13.3449 113.957C11.7675 112.642 10.5191 110.828 9.8269 108.855C9.74746 108.617 9.48645 108.492 9.24814 108.572C9.00983 108.651 8.88499 108.912 8.96443 109.15C9.71342 111.315 11.0298 113.22 12.7548 114.66C12.8455 114.728 12.9477 114.762 13.0498 114.762V114.773Z" fill="#535253"/>
<path d="M33.6246 97.9494C33.5225 97.3485 32.9777 96.9404 32.3876 97.0424C31.8089 97.1445 31.4117 97.7226 31.5138 98.3235C31.616 98.9243 32.1607 99.3325 32.7508 99.2304C33.3295 99.1284 33.7267 98.5502 33.6246 97.9494Z" fill="#535253"/>
<path d="M18.9517 102.801C18.8496 102.201 18.3049 101.793 17.7148 101.895C17.136 101.997 16.7388 102.575 16.841 103.176C16.9431 103.776 17.4878 104.185 18.0779 104.083C18.6567 103.981 19.0539 103.402 18.9517 102.801Z" fill="#535253"/>
<path d="M31.9678 131.415H32.0019C32.2515 131.404 32.4445 131.177 32.4331 130.928L32.0927 125.611C32.0813 125.362 31.8657 125.169 31.6047 125.18C31.355 125.192 31.1621 125.418 31.1735 125.668L31.5139 130.985C31.5253 131.223 31.7295 131.415 31.9678 131.415Z" fill="#535253"/>
<path d="M14.6848 177.17C16.6821 177.17 18.373 177 19.9504 176.638C22.2655 176.116 30.788 172.613 32.0931 170.198C32.2973 169.813 32.3427 169.45 32.2179 169.11C31.2646 166.537 30.9809 164.972 30.8447 163.895C30.6745 162.591 29.1085 162.455 27.9623 162.353C27.7807 162.342 27.5991 162.319 27.4403 162.297C22.8442 161.73 17.9531 161.435 11.6548 161.322C11.9272 158.873 12.1201 156.866 12.313 154.928C12.506 152.853 12.7216 150.71 13.0166 148.035C13.0507 147.786 12.8691 147.559 12.6194 147.525C12.3698 147.502 12.1428 147.672 12.1088 147.922C11.8024 150.597 11.5981 152.751 11.3938 154.826C11.2009 156.9 10.9853 159.043 10.6902 161.707C10.6789 161.832 10.7129 161.968 10.8037 162.059C10.8945 162.149 11.008 162.217 11.1442 162.217C17.6581 162.319 22.6513 162.614 27.3381 163.192C27.5084 163.215 27.7013 163.226 27.8942 163.249C28.9836 163.34 29.8801 163.464 29.9482 163.997C30.0958 165.119 30.3908 166.752 31.3668 169.405C31.4008 169.507 31.3441 169.643 31.2873 169.745C30.2433 171.672 22.2428 175.152 19.7461 175.731C17.9985 176.127 16.092 176.286 13.7543 176.229C10.52 176.15 8.0688 175.64 6.06016 174.642C3.52949 173.384 1.69108 171.207 1.12366 168.827C0.533556 166.332 1.27119 163.691 1.90669 161.356C2.1677 160.403 2.45141 159.326 2.73512 158.204C4.60758 150.926 7.44464 139.918 13.7543 135.054C15.3884 133.796 17.3971 133.331 19.5192 132.832C20.8242 132.526 22.1633 132.22 23.423 131.71C23.5932 131.642 23.6953 131.483 23.7067 131.302C23.7861 129.477 23.7861 127.652 23.7861 125.883C23.7861 125.634 23.5819 125.43 23.3322 125.43C23.0825 125.43 22.8783 125.634 22.8783 125.883C22.8783 127.55 22.8783 129.261 22.8102 130.973C21.6981 131.393 20.4838 131.676 19.3149 131.948C17.1928 132.436 14.9912 132.946 13.1982 134.329C6.63892 139.396 3.86994 150.132 1.84995 157.977C1.5549 159.1 1.28254 160.165 1.02153 161.118C0.386024 163.442 -0.419697 166.321 0.227154 169.042C0.851307 171.683 2.87129 174.087 5.64027 175.459C7.77374 176.524 10.3498 177.057 13.7202 177.136C14.0493 177.136 14.3671 177.148 14.6735 177.148L14.6848 177.17Z" fill="#535253"/>
<path d="M52.6446 172.466C55.3682 172.466 57.9783 170.459 58.7499 167.75C58.9996 166.888 58.9769 166.163 58.7045 165.573C58.4776 165.074 57.9896 164.666 57.5016 164.564C57.252 164.507 57.025 164.541 56.8434 164.643C55.72 164.791 54.5624 164.643 53.507 164.201C53.3595 164.145 53.212 164.077 53.0645 164.009C52.3495 163.68 51.5324 163.306 50.67 163.51C50.5792 163.532 50.3068 163.6 50.1253 163.827C49.9777 164.009 49.7962 164.417 50.1933 165.04C50.5224 165.562 50.9196 166.049 51.3736 166.457C50.67 166.174 49.955 165.913 49.2287 165.686C48.3209 165.403 47.9237 165.754 47.7648 166.004C47.4811 166.446 47.6173 167.024 48.1507 167.557C48.6273 168.022 49.138 168.453 49.6713 168.827C49.5125 168.781 49.3422 168.725 49.172 168.668C48.7408 168.532 48.2868 168.385 47.8329 168.328C47.2315 168.248 46.925 168.464 46.7775 168.668C46.4484 169.099 46.5846 169.7 47.118 170.21C48.6273 171.638 50.5451 172.443 52.5197 172.466C52.5538 172.466 52.5992 172.466 52.6332 172.466H52.6446ZM57.2747 165.46C57.3881 165.46 57.7286 165.652 57.8761 165.97C58.0577 166.355 58.0463 166.865 57.8761 167.512C57.2066 169.87 54.9029 171.627 52.5538 171.559C50.8062 171.536 49.1039 170.833 47.7648 169.552C47.6286 169.427 47.5606 169.291 47.5379 169.223C47.5719 169.223 47.6286 169.223 47.7308 169.223C48.1166 169.28 48.5025 169.405 48.911 169.53C49.7735 169.813 50.67 170.096 51.5892 169.711C51.7594 169.643 51.8615 169.484 51.8729 169.303C51.8729 169.121 51.7821 168.963 51.6119 168.883C50.5792 168.385 49.6373 167.716 48.8202 166.899C48.6046 166.684 48.5479 166.525 48.5592 166.48C48.5592 166.48 48.5819 166.48 48.6046 166.48C48.6613 166.48 48.7862 166.48 48.9791 166.548C49.8302 166.82 50.6813 167.137 51.5097 167.489C51.975 167.682 52.8375 168.056 53.5411 167.58C53.6773 167.489 53.7567 167.33 53.7454 167.171C53.7454 167.013 53.6319 166.865 53.4957 166.786C52.4743 166.287 51.6119 165.516 50.9991 164.541C50.9537 164.473 50.931 164.417 50.9196 164.383C51.4757 164.258 52.0772 164.53 52.7127 164.825C52.8715 164.893 53.0191 164.972 53.1779 165.029C54.4149 165.55 55.7767 165.72 57.1044 165.528C57.1725 165.528 57.252 165.482 57.3087 165.448L57.2747 165.46Z" fill="#535253"/>
<path d="M47.492 148.681C47.492 148.681 47.5601 148.681 47.5941 148.681C47.8438 148.625 47.9913 148.387 47.9459 148.137C47.4126 145.7 46.7203 143.262 45.9146 140.904C45.1883 138.773 44.3031 136.574 42.7484 134.862C40.127 131.982 36.1211 131.053 32.1832 130.474C31.9335 130.44 31.7066 130.611 31.6612 130.86C31.6271 131.109 31.7974 131.336 32.047 131.381C35.565 131.892 39.5255 132.685 42.0675 135.485C43.5088 137.072 44.3485 139.17 45.0521 141.199C45.8465 143.523 46.5274 145.926 47.0494 148.33C47.0948 148.545 47.2877 148.693 47.492 148.693V148.681Z" fill="#535253"/>
<path d="M31.9336 169.711H31.945L32.8074 169.688C32.8074 169.688 32.8642 169.688 32.8982 169.677C33.6813 169.495 34.3962 169.45 35.1452 169.405C35.6331 169.382 36.2913 169.337 36.8247 168.951C39.0944 168.418 41.1257 167.205 42.7145 165.46C42.7939 165.369 42.8393 165.256 42.8279 165.131C42.8279 165.006 42.7712 164.893 42.6804 164.813C42.5215 164.666 42.3513 164.587 42.1697 164.541C42.5442 164.167 42.8393 163.714 42.9414 163.17C42.9641 163.011 42.9074 162.841 42.7712 162.739C42.5896 162.591 42.3967 162.512 42.2038 162.478C42.635 161.934 42.7826 161.367 42.601 160.812C42.5442 160.642 42.3967 160.528 42.2265 160.505C40.8987 160.335 39.6845 160.914 38.5156 161.469C39.083 160.993 39.4348 160.437 39.5256 159.825C39.5596 159.587 39.4121 159.372 39.1852 159.315C37.7326 158.952 36.0303 159.36 34.2827 160.494C33.6813 160.88 33.1025 161.322 32.5464 161.752C31.8088 162.319 31.1165 162.852 30.3449 163.294C30.1292 163.419 30.0498 163.702 30.1746 163.918C30.2995 164.133 30.5832 164.213 30.7988 164.088C31.6272 163.623 32.3762 163.045 33.1138 162.478C33.6585 162.059 34.2146 161.628 34.782 161.265C35.7353 160.641 37.1198 159.984 38.4816 160.12C38.2319 160.607 37.7212 160.97 37.29 161.208C37.0744 161.322 36.8588 161.424 36.6431 161.537C36.0984 161.798 35.5424 162.07 35.0544 162.501C34.9182 162.625 34.8728 162.818 34.9296 162.988C34.9863 163.158 35.1452 163.283 35.3267 163.294C36.6091 163.396 37.778 162.852 38.9014 162.308C39.8774 161.843 40.7966 161.412 41.7385 161.412C41.6591 161.9 41.069 162.365 40.7739 162.557C39.4235 163.498 37.9822 164.292 36.4729 164.915C36.246 165.006 36.1438 165.256 36.2119 165.482C36.2913 165.709 36.5297 165.834 36.7566 165.777C38.2092 165.392 39.571 164.768 40.8193 163.906C41.1484 163.68 41.5683 163.419 41.8974 163.396C41.6931 163.793 41.2959 164.133 40.8874 164.439C39.9341 165.154 38.9241 165.788 37.8915 166.344C37.6645 166.457 37.585 166.741 37.6985 166.956C37.812 167.183 38.0957 167.262 38.3113 167.149L41.0236 165.709C41.103 165.664 41.1938 165.618 41.2846 165.584C39.9114 166.831 38.2659 167.704 36.4729 168.112C36.4048 168.124 36.3254 168.169 36.2687 168.214C35.9963 168.453 35.5537 168.498 35.0544 168.532C34.3054 168.577 33.5337 168.611 32.6826 168.815L31.8655 168.838C31.6159 168.838 31.4116 169.053 31.4229 169.314C31.4229 169.564 31.6386 169.756 31.8769 169.756L31.9336 169.711Z" fill="#535253"/>
<path d="M12.5622 188.451H12.5849C12.8346 188.439 13.0275 188.224 13.0161 187.963C12.8232 184.562 12.7551 180.583 12.8346 177.034C12.8346 176.785 12.6416 176.57 12.392 176.57C12.1537 176.57 11.9267 176.762 11.9267 177.012C11.8473 180.583 11.9267 184.596 12.1083 188.02C12.1196 188.258 12.3239 188.451 12.5622 188.451Z" fill="#535253"/>
<path d="M18.0323 188.893C18.4748 188.893 18.9061 188.893 19.3146 188.859C26.8612 188.405 34.4986 187.748 42.0225 186.886C42.2381 186.863 42.4083 186.682 42.431 186.467C42.5558 184.573 42.7374 182.816 42.919 181.116C42.9417 180.866 42.7601 180.64 42.5104 180.617C42.2608 180.594 42.0338 180.776 42.0111 181.025C41.8409 182.623 41.6707 184.267 41.5458 186.036C34.1695 186.875 26.6796 187.521 19.2692 187.963C16.9315 188.099 13.6859 187.77 12.6759 187.555C12.4262 187.51 12.1879 187.657 12.1312 187.906C12.0744 188.156 12.2333 188.394 12.483 188.451C13.3908 188.643 15.8307 188.904 18.0436 188.904L18.0323 188.893Z" fill="#535253"/>
<path d="M30.1407 150.801H30.1634C30.3336 150.801 30.4811 150.688 30.5492 150.529C33.5565 143.886 36.3368 138.149 39.0718 132.969C39.1852 132.742 39.1058 132.47 38.8788 132.356C38.6519 132.243 38.3795 132.322 38.266 132.549C35.6332 137.537 32.955 143.047 30.0839 149.361C26.5773 143.58 22.6281 138.025 18.3385 132.855C18.1796 132.662 17.8846 132.628 17.6916 132.798C17.4987 132.957 17.4647 133.252 17.6349 133.445C22.0834 138.807 26.1574 144.577 29.7548 150.586C29.8343 150.722 29.9818 150.813 30.152 150.813L30.1407 150.801Z" fill="#535253"/>
<path d="M28.9718 138.308C29.1761 138.308 29.3917 138.286 29.5846 138.229C30.0612 138.093 30.4357 137.821 30.6173 137.481C31.0826 136.585 31.4798 135.633 31.8202 134.669C31.9451 134.284 32.0812 133.842 31.9564 133.377C31.8429 132.957 31.4684 132.39 30.379 132.13C29.2669 131.858 28.098 131.858 26.9859 132.13C26.1007 132.345 25.5333 132.753 25.2836 133.343C24.807 134.465 25.7489 135.621 26.1007 136.052L27.0199 137.175C27.2469 137.458 27.5192 137.775 27.871 138.002C28.1888 138.206 28.5746 138.308 28.9718 138.308ZM28.6654 132.833C29.1647 132.833 29.6641 132.889 30.152 133.014C30.4471 133.082 30.9691 133.263 31.0713 133.615C31.128 133.819 31.0486 134.102 30.9578 134.363C30.64 135.281 30.2542 136.188 29.8116 137.05C29.7662 137.129 29.6187 137.265 29.3577 137.333C29.0059 137.435 28.62 137.39 28.359 137.22C28.1207 137.072 27.9164 136.823 27.7235 136.585L26.8043 135.451C26.1575 134.658 25.9418 134.091 26.1234 133.671C26.2596 133.365 26.6227 133.139 27.2015 132.991C27.6781 132.878 28.1774 132.81 28.6768 132.81L28.6654 132.833Z" fill="#535253"/>
<path d="M32.6144 145.394C32.6144 145.394 32.6598 145.394 32.6711 145.394C32.9208 145.36 33.091 145.133 33.0683 144.883C32.7051 142.185 31.8994 139.589 30.6738 137.186C30.5603 136.959 30.288 136.868 30.061 136.982C29.834 137.095 29.7433 137.367 29.8567 137.594C31.037 139.918 31.8086 142.401 32.1604 145.008C32.1945 145.235 32.3874 145.405 32.6144 145.405V145.394Z" fill="#535253"/>
<path d="M26.5095 144.158C26.7591 144.158 26.9634 143.943 26.952 143.693C26.9066 141.516 27.2357 139.362 27.9166 137.299C27.9961 137.061 27.8712 136.8 27.6216 136.721C27.3833 136.642 27.1223 136.766 27.0428 137.016C26.3279 139.181 25.9874 141.426 26.0328 143.716C26.0328 143.965 26.2371 144.158 26.4868 144.158H26.5095Z" fill="#535253"/>
<path d="M30.5271 133.014C30.6406 133.014 30.754 132.969 30.8335 132.889C31.3328 132.436 31.8662 132.039 32.4449 131.699C32.6605 131.574 32.7286 131.291 32.6038 131.075C32.479 130.86 32.1953 130.792 31.9796 130.917C31.3555 131.291 30.754 131.733 30.2207 132.22C30.0391 132.39 30.0277 132.685 30.198 132.867C30.2888 132.969 30.4136 133.014 30.5384 133.014H30.5271Z" fill="#535253"/>
<path d="M25.6132 133.127C25.7721 133.127 25.931 133.037 26.0104 132.889C26.1352 132.674 26.0558 132.39 25.8288 132.266L23.423 130.939C23.2074 130.815 22.9237 130.894 22.7988 131.121C22.674 131.336 22.7534 131.619 22.9804 131.744L25.3862 133.071C25.4543 133.105 25.5338 133.127 25.6019 133.127H25.6132Z" fill="#535253"/>
<path d="M37.8461 242.946C38.0844 242.946 38.2887 242.765 38.3001 242.527C39.6278 223.651 39.9456 204.855 40.252 186.682C40.252 186.433 40.059 186.217 39.798 186.217C39.5484 186.217 39.3327 186.41 39.3327 186.671C39.0263 204.696 38.7199 223.322 37.4149 242.039C36.9837 242.039 36.4389 242.017 35.8375 241.994C34.5778 241.96 33.0458 241.915 31.945 241.937C32.7735 226.587 32.0812 210.58 31.4003 195.082L31.3549 194.006C31.3549 193.881 31.2982 193.767 31.2074 193.688C31.1166 193.609 31.0031 193.563 30.8783 193.575C30.5038 193.597 29.9591 193.609 29.3236 193.631C27.8256 193.677 25.9645 193.745 24.7502 193.847C24.5346 193.869 24.3644 194.028 24.3304 194.244C22.2877 210.047 21.0847 226.077 20.7556 241.881C20.0861 241.881 19.3031 241.881 18.486 241.903C17.1129 241.926 15.7057 241.949 14.6503 241.881C14.3779 237.777 14.7411 233.321 15.1042 229.013C15.3425 226.111 15.5922 223.107 15.6376 220.295C15.7057 215.398 15.2971 210.444 14.9113 205.66L13.5041 188.541C13.4814 188.292 13.2545 188.11 13.0161 188.122C12.7665 188.144 12.5736 188.36 12.5963 188.609L14.0034 205.728C14.3893 210.5 14.7978 215.432 14.7297 220.284C14.6957 223.062 14.446 226.043 14.2077 228.934C13.8332 233.412 13.4474 238.049 13.7878 242.334C13.7992 242.549 13.9807 242.731 14.1964 242.753C15.3312 242.867 16.954 242.844 18.52 242.821C19.53 242.81 20.4719 242.787 21.2096 242.821C21.3231 242.821 21.4479 242.776 21.5387 242.697C21.6295 242.617 21.6749 242.493 21.6862 242.379C21.9926 226.576 23.1842 210.557 25.2155 194.754C26.3957 194.674 28.0412 194.618 29.3803 194.572C29.7889 194.561 30.1634 194.55 30.4811 194.538L30.5038 195.162C31.1847 210.795 31.8883 226.973 31.0145 242.425C31.0145 242.549 31.0599 242.685 31.1507 242.776C31.2414 242.867 31.3663 242.912 31.4911 242.912C32.5465 242.867 34.3622 242.912 35.8148 242.958C36.6546 242.98 37.3695 243.003 37.8461 243.003V242.946Z" fill="#535253"/>
<path d="M21.2215 249C22.8783 249 24.4671 248.853 26.0218 248.558C26.158 248.535 26.2828 248.445 26.3396 248.32C26.4076 248.195 26.4076 248.048 26.3396 247.923C25.8062 246.755 24.6941 246.03 23.7862 245.531C22.3336 244.726 21.0172 244.25 19.7576 244.057C19.8143 243.581 19.8143 243.105 19.7576 242.629C19.7349 242.379 19.4966 242.198 19.2582 242.221C19.0086 242.243 18.827 242.47 18.8497 242.72C18.9064 243.264 18.8837 243.819 18.7703 244.363C18.7476 244.488 18.7703 244.624 18.8497 244.726C18.9291 244.828 19.0426 244.896 19.1788 244.907C20.4612 245.032 21.8116 245.497 23.3323 246.336C24.0018 246.699 24.7054 247.152 25.182 247.787C23.094 248.127 20.9378 248.184 18.6114 247.98C18.044 247.934 17.4312 247.866 16.8411 247.708C16.7276 247.674 16.5914 247.64 16.5233 247.583C16.3077 247.413 16.3077 246.925 16.3077 246.755C16.3077 245.871 16.3871 245.146 16.512 244.239C16.5687 243.751 16.6368 243.207 16.7049 242.561C16.7276 242.311 16.546 242.085 16.2963 242.062C16.0467 242.039 15.8197 242.221 15.797 242.47C15.7403 243.105 15.6722 243.649 15.6041 244.125C15.4906 245.032 15.3885 245.814 15.3998 246.767C15.3998 247.243 15.4679 247.912 15.9559 248.309C16.1602 248.467 16.3871 248.547 16.6141 248.603C17.2723 248.773 17.9191 248.853 18.532 248.898C19.4398 248.977 20.3363 249.023 21.1988 249.023L21.2215 249Z" fill="#535253"/>
<path d="M36.5526 249C38.2094 249 39.7982 248.853 41.3529 248.558C41.489 248.535 41.6139 248.444 41.6706 248.32C41.7387 248.195 41.7387 248.048 41.6706 247.923C41.1372 246.755 40.0251 246.03 39.1173 245.531C37.6647 244.726 36.3483 244.25 35.0886 244.057C35.1454 243.581 35.1454 243.105 35.0886 242.629C35.0659 242.379 34.839 242.198 34.5893 242.221C34.3396 242.243 34.1581 242.47 34.1808 242.719C34.2375 243.264 34.2148 243.819 34.1013 244.363C34.0786 244.488 34.1013 244.624 34.1808 244.726C34.2602 244.828 34.3737 244.896 34.5099 244.907C35.7922 245.032 37.1427 245.497 38.6633 246.336C39.3329 246.699 40.0365 247.152 40.5131 247.787C38.425 248.127 36.2688 248.184 33.9425 247.98C33.375 247.934 32.7622 247.866 32.1721 247.708C32.0586 247.674 31.9225 247.64 31.8544 247.583C31.6388 247.413 31.6388 246.914 31.6388 246.755C31.6388 245.871 31.7295 245.146 31.843 244.239C31.8998 243.751 31.9679 243.207 32.0359 242.561C32.0586 242.311 31.8771 242.085 31.6274 242.062C31.3777 242.039 31.1508 242.221 31.1281 242.47C31.0713 243.105 31.0033 243.638 30.9352 244.125C30.8217 245.032 30.7195 245.814 30.7309 246.767C30.7309 247.243 30.799 247.912 31.287 248.308C31.4912 248.467 31.7182 248.547 31.9452 248.603C32.6034 248.773 33.2502 248.853 33.863 248.898C34.7709 248.977 35.6674 249.023 36.5299 249.023L36.5526 249Z" fill="#535253"/>
<g opacity="0.13">
<path d="M25.3181 125.894C25.8174 125.928 26.3168 125.894 26.8274 125.883C26.9863 125.883 27.1452 125.86 27.3041 125.849C27.4289 125.826 27.6332 125.792 27.7353 125.758C28.6205 125.52 29.4943 125.226 30.4135 125.078C30.7426 124.987 31.1171 125.033 31.4121 125.214C32.3881 125.736 32.1838 127.323 31.1057 127.584C29.4829 127.89 27.8601 128.23 26.2033 128.23C25.7267 128.23 25.25 128.264 24.7734 128.162C24.4216 128.116 24.0585 128.048 23.8088 127.776C22.7988 126.688 24.1038 125.192 25.3295 125.894H25.3181Z" fill="#535253"/>
</g>
<g opacity="0.13">
<path d="M15.5699 94.5484C16.1827 94.0835 16.421 94.3443 17.4764 94.1629C17.431 94.1629 17.1019 94.2082 17.3062 94.1856C18.3729 94.0269 19.4169 93.7888 20.495 93.6981C21.3688 93.7094 26.067 92.7345 27.4855 92.0089C28.8927 91.2834 30.2772 90.5011 31.7071 89.8209C32.2859 89.6169 32.8419 89.1181 33.4888 89.2768C34.3626 89.4922 34.5328 90.7619 33.7384 91.1927C31.7638 92.0203 29.9595 93.1766 28.0189 94.0495C25.6244 95.0132 23.0938 95.682 20.5177 95.9201C19.3829 96.0448 18.2594 96.1582 17.1132 96.1468C16.5004 96.1015 15.6266 96.2715 15.3656 95.546C15.2067 95.2286 15.2975 94.7978 15.5585 94.5484H15.5699Z" fill="#535253"/>
</g>
<g opacity="0.13">
<path d="M18.8374 132.311C19.4956 132.368 19.9269 132.969 20.3808 133.388C23.4675 136.789 25.6237 139.431 28.0863 143.104C28.7445 143.999 29.4253 144.883 30.0382 145.813C30.2084 145.36 30.4013 144.918 30.6283 144.487C30.7644 144.249 30.8439 143.965 31.0935 143.818C31.922 143.126 33.1135 144.181 32.5575 145.099C31.9674 146.187 31.9674 146.221 31.6383 147.139C31.5021 147.502 31.3886 147.956 31.1616 148.273C31.0028 149.169 29.6977 149.656 29.0736 148.659C28.1997 146.709 26.8947 145.02 25.7826 143.206C23.9895 140.281 22.3667 138.535 20.0857 135.78C19.6318 135.281 19.1892 134.782 18.7012 134.318C18.2019 133.819 18.3268 134.182 17.9863 133.592C17.6913 133.025 18.2019 132.288 18.8374 132.311Z" fill="#535253"/>
</g>
<g opacity="0.13">
<path d="M30.2431 163.68C30.697 162.501 32.5128 162.875 32.5014 164.133C32.5354 165.006 32.7397 166.219 33.2164 167.727C33.6589 168.577 33.0461 169.609 32.0361 169.371C31.5141 169.223 31.2758 168.736 31.1169 168.26C30.958 167.829 30.4133 166.389 30.2545 165.142C30.2204 164.666 30.0388 164.145 30.2545 163.691L30.2431 163.68Z" fill="#535253"/>
</g>
<g opacity="0.13">
<path d="M53.7676 169.881L53.7903 169.858C53.7903 169.858 53.8584 169.802 53.8924 169.779C54.2329 169.541 55.867 168.203 55.9464 168.01C56.3436 167.33 56.3209 167.239 56.6273 166.151C56.7181 165.868 56.7181 165.528 56.9224 165.29C57.5352 164.439 58.9197 165.131 58.636 166.14C58.3296 167.342 58.0345 168.645 57.138 169.564C56.1961 170.414 55.8103 170.697 55.1407 171.207C54.5393 171.615 53.6087 172.148 53.1094 171.321C52.7576 170.675 53.2115 170.164 53.7676 169.881Z" fill="#535253"/>
</g>
<g opacity="0.13">
<path d="M0.204445 167.024C0.351973 166.423 1.08961 166.14 1.62298 166.446C2.1223 166.752 2.15635 167.398 2.37197 167.897C2.41736 168.01 2.4514 168.124 2.4968 168.249C2.58758 168.396 2.71241 168.566 2.88264 168.838C3.22308 169.291 4.07421 170.244 5.12959 171.128C6.55947 172.341 7.17228 172.908 9.05609 173.724C10.4179 174.291 14.2422 175.119 15.0593 175.085C17.1247 175.175 18.2255 174.892 19.6894 174.71C21.5959 174.37 23.3322 173.418 25.1593 172.817C25.7153 172.67 26.2827 172.284 26.8615 172.318C27.7921 172.398 27.8942 173.804 26.975 174.042C24.8983 174.71 22.935 175.651 20.8469 176.264C19.6327 176.536 18.3844 176.57 17.1587 176.717C15.8083 176.898 14.4579 176.717 13.1188 176.57C11.3598 176.366 9.56676 176.094 7.94396 175.368C7.61486 175.221 7.28576 175.051 6.968 174.88C6.85452 175.039 6.69565 175.153 6.50273 175.209C6.03745 175.334 5.64026 175.017 5.23172 174.824C4.50543 174.438 3.7905 173.996 3.25713 173.361C2.25848 172.182 1.54354 170.799 0.942083 169.371C0.817253 169.178 0.71512 168.974 0.624334 168.759C0.397369 168.203 0.113665 167.614 0.227146 167.001L0.204445 167.024Z" fill="#535253"/>
</g>
<g opacity="0.13">
<path d="M14.2761 187.736C14.5825 187.566 14.9116 187.566 15.2407 187.657C16.2847 187.85 15.9556 187.77 16.977 187.895C19.9502 188.167 22.9234 188.02 25.8853 187.725C28.6997 187.532 31.5027 187.283 34.3057 187.056C35.8151 186.943 36.1896 186.818 38.0847 186.444C38.4365 186.376 38.7883 186.206 39.1401 186.285C40.4565 186.41 40.5927 188.371 39.3103 188.711C37.8464 189.085 36.3598 189.425 34.8505 189.584C32.4106 189.845 29.9594 189.822 27.5195 189.97C24.9775 190.038 22.4355 190.287 19.8935 190.185C17.3855 189.992 17.1472 189.868 14.5371 189.664C13.6633 189.459 13.493 188.178 14.2874 187.748L14.2761 187.736Z" fill="#535253"/>
</g>
<path d="M28.62 90.2971C28.62 90.2971 28.6881 90.2971 28.7108 90.2631C29.7889 89.4695 30.9124 88.5966 31.8203 87.5309C32.8189 86.3519 33.4431 85.0709 33.6133 83.8011C33.6133 83.7218 33.5679 83.6424 33.4884 83.6311C33.409 83.6197 33.3296 83.6764 33.3182 83.7558C33.1593 84.9688 32.5579 86.2045 31.5933 87.3269C30.7081 88.3698 29.6073 89.2314 28.5406 90.0137C28.4725 90.059 28.4612 90.161 28.5066 90.2291C28.5406 90.2744 28.586 90.2857 28.6314 90.2857L28.62 90.2971Z" fill="#535253"/>
<path d="M24.1827 91.7482C24.1827 91.7482 24.2394 91.7482 24.2621 91.7255C26.4977 90.3991 28.3248 88.3585 29.4029 85.9891C29.4369 85.9097 29.4029 85.8191 29.3234 85.785C29.244 85.751 29.1532 85.785 29.1192 85.8644C28.0751 88.1771 26.2934 90.161 24.1032 91.4647C24.0351 91.5101 24.0124 91.6008 24.0465 91.6688C24.0692 91.7142 24.1259 91.7482 24.1827 91.7482Z" fill="#535253"/>
<path d="M20.5859 92.349C20.5859 92.349 20.6313 92.349 20.6653 92.3263C22.2768 91.4307 23.684 90.1497 24.7394 88.6419C24.7848 88.5739 24.7734 88.4832 24.7053 88.4265C24.6372 88.3812 24.5464 88.3925 24.4897 88.4605C23.457 89.9343 22.0839 91.17 20.5178 92.0543C20.4497 92.0996 20.4157 92.1903 20.4611 92.2583C20.4838 92.3037 20.5405 92.3377 20.5972 92.3377L20.5859 92.349Z" fill="#535253"/>
</g>
<defs>
<clipPath id="clip0_0_289">
<rect width="109" height="249" fill="white" transform="matrix(-1 0 0 1 109 0)"/>
</clipPath>
</defs>
</svg>
