<svg width="109" height="57" viewBox="0 0 109 57" fill="none" xmlns="http://www.w3.org/2000/svg">
<g filter="url(#filter0_d_0_547)">
<path d="M4.91951 19.9657C4.91951 19.9657 4.76491 20.036 4.72418 20.1106C4.53452 20.3089 4.47844 20.5959 4.56856 20.8351C7.17614 27.5125 9.02759 34.4965 10.0468 41.5787C10.1019 41.9459 10.4493 42.2175 10.8162 42.1627C11.1831 42.108 11.4542 41.7605 11.3991 41.3933C10.4265 34.7008 8.75102 28.1038 6.38262 21.7471C13.3176 24.1966 20.4995 25.712 27.7933 26.2426C28.1644 26.2792 28.4946 25.9796 28.5309 25.6082C28.5602 25.2214 28.2676 24.9062 27.8965 24.8695C20.2541 24.3107 12.6897 22.6517 5.45229 19.9476C5.27231 19.88 5.08956 19.8884 4.93496 19.9587L4.91951 19.9657Z" fill="#6679A8"/>
</g>
<g filter="url(#filter1_d_0_547)">
<path d="M104 1C91 51.5 40 64 6 21.1775" stroke="#6679A8" stroke-width="2" stroke-linecap="round"/>
</g>
<defs>
<filter id="filter0_d_0_547" x="0.526367" y="19.9011" width="32.0068" height="30.2687" filterUnits="userSpaceOnUse" color-interpolation-filters="sRGB">
<feFlood flood-opacity="0" result="BackgroundImageFix"/>
<feColorMatrix in="SourceAlpha" type="matrix" values="0 0 0 0 0 0 0 0 0 0 0 0 0 0 0 0 0 0 127 0" result="hardAlpha"/>
<feOffset dy="4"/>
<feGaussianBlur stdDeviation="2"/>
<feComposite in2="hardAlpha" operator="out"/>
<feColorMatrix type="matrix" values="0 0 0 0 0 0 0 0 0 0 0 0 0 0 0 0 0 0 0.25 0"/>
<feBlend mode="normal" in2="BackgroundImageFix" result="effect1_dropShadow_0_547"/>
<feBlend mode="normal" in="SourceGraphic" in2="effect1_dropShadow_0_547" result="shape"/>
</filter>
<filter id="filter1_d_0_547" x="1" y="-0.000244141" width="108" height="56.1471" filterUnits="userSpaceOnUse" color-interpolation-filters="sRGB">
<feFlood flood-opacity="0" result="BackgroundImageFix"/>
<feColorMatrix in="SourceAlpha" type="matrix" values="0 0 0 0 0 0 0 0 0 0 0 0 0 0 0 0 0 0 127 0" result="hardAlpha"/>
<feOffset dy="4"/>
<feGaussianBlur stdDeviation="2"/>
<feComposite in2="hardAlpha" operator="out"/>
<feColorMatrix type="matrix" values="0 0 0 0 0 0 0 0 0 0 0 0 0 0 0 0 0 0 0.25 0"/>
<feBlend mode="normal" in2="BackgroundImageFix" result="effect1_dropShadow_0_547"/>
<feBlend mode="normal" in="SourceGraphic" in2="effect1_dropShadow_0_547" result="shape"/>
</filter>
</defs>
</svg>
