<svg width="40" height="40" viewBox="0 0 40 40" fill="none" xmlns="http://www.w3.org/2000/svg">
<path fill-rule="evenodd" clip-rule="evenodd" d="M20 40C31.0457 40 40 31.0457 40 20C40 8.9543 31.0457 0 20 0C8.9543 0 0 8.9543 0 20C0 31.0457 8.9543 40 20 40ZM24.5861 9.84327C25.9462 10.4044 27.1818 11.229 28.2219 12.2696C29.2639 13.3012 30.0903 14.5297 30.653 15.8836C31.2158 17.2375 31.5037 18.6899 31.5 20.1561C31.497 26.3039 26.4711 31.3057 20.2972 31.3057H20.2927C18.423 31.3063 16.5828 30.8402 14.9389 29.9496L9 31.5L10.5896 25.7244C9.60725 24.0309 9.09119 22.1073 9.09392 20.1496C9.09643 14.0013 14.1228 9.00005 20.2972 9.00005C21.7684 8.99558 23.2261 9.28215 24.5861 9.84327ZM20.2932 29.4238H20.2972C25.4295 29.4238 29.6066 25.2663 29.6086 20.1566C29.6038 17.6927 28.6205 15.3315 26.875 13.5925C25.1294 11.8535 22.7646 10.879 20.3007 10.8834C15.1644 10.8834 10.9853 15.0404 10.9853 20.1496C10.9834 21.8947 11.4772 23.6045 12.4091 25.08L12.6306 25.4316L11.69 28.8512L15.2141 27.9312L15.5541 28.1321C16.99 28.9782 18.6265 29.4243 20.2932 29.4238ZM23.4919 21.5769C23.747 21.6698 25.1246 22.3438 25.4044 22.4835C25.4577 22.5099 25.5077 22.5339 25.5541 22.5562C25.7515 22.651 25.8847 22.715 25.9413 22.8089C26.0111 22.9249 26.0106 23.4824 25.778 24.1333C25.5455 24.7842 24.426 25.3783 23.8881 25.4582C23.406 25.53 22.7958 25.5596 22.1253 25.3477C21.5834 25.1802 21.0506 24.9844 20.5292 24.7611C17.8971 23.6298 16.1197 21.0863 15.7933 20.6192C15.7715 20.588 15.7562 20.566 15.7475 20.5544L15.7414 20.5462C15.5819 20.3327 14.6044 19.0241 14.6044 17.6726C14.6044 16.3903 15.2379 15.7169 15.5295 15.4069C15.5494 15.3857 15.5678 15.3661 15.5843 15.3483C15.678 15.242 15.7927 15.1562 15.9211 15.0962C16.0495 15.0362 16.1889 15.0034 16.3306 14.9997C16.5159 14.9997 16.7042 15.0017 16.8675 15.0098C16.8876 15.0108 16.9085 15.0106 16.9302 15.0105C17.0932 15.0095 17.2964 15.0082 17.4973 15.4879C17.5725 15.668 17.6818 15.9329 17.7977 16.2138C18.0408 16.803 18.3128 17.4624 18.3601 17.5566C18.4299 17.6957 18.4761 17.8584 18.3832 18.0442C18.3695 18.0716 18.3568 18.0975 18.3447 18.1222C18.2745 18.2654 18.2229 18.3705 18.1034 18.5093C18.0563 18.5641 18.0076 18.6231 17.9589 18.6821C17.863 18.7984 17.7672 18.9145 17.6836 18.9975C17.5435 19.1361 17.3978 19.2873 17.561 19.566C17.7243 19.8447 18.2858 20.7568 19.118 21.4956C20.0115 22.2888 20.7887 22.6244 21.1832 22.7947C21.2607 22.8282 21.3235 22.8553 21.3695 22.8782C21.6492 23.0178 21.8124 22.9972 21.9756 22.8089C22.1389 22.6206 22.6758 21.9958 22.8621 21.7165C23.0484 21.4373 23.2368 21.484 23.4919 21.5769Z" fill="#25D366"/>
</svg>
