<?xml version="1.0" standalone="no"?>
<!DOCTYPE svg PUBLIC "-//W3C//DTD SVG 20010904//EN"
 "http://www.w3.org/TR/2001/REC-SVG-20010904/DTD/svg10.dtd">
<svg version="1.0" xmlns="http://www.w3.org/2000/svg"
 width="231.000000pt" height="231.000000pt" viewBox="0 0 231.000000 231.000000"
 preserveAspectRatio="xMidYMid meet">

<g transform="translate(0.000000,231.000000) scale(0.100000,-0.100000)"
fill="#000000" stroke="none">
<path d="M1118 2029 c-10 -5 -18 -16 -18 -23 0 -8 -9 -16 -21 -19 -15 -4 -20
-12 -17 -29 2 -18 9 -23 31 -21 24 2 26 -1 17 -17 -24 -45 -112 -34 -103 13 6
29 -23 45 -44 24 -16 -16 -7 -47 13 -47 19 0 18 -25 -2 -44 -16 -17 -33 -20
-58 -10 -12 5 -13 10 -4 24 16 24 -7 53 -34 44 -10 -3 -25 0 -33 6 -8 7 -21
10 -29 7 -10 -4 1 -21 38 -59 29 -29 57 -61 63 -71 9 -17 13 -17 85 7 49 17
99 26 138 26 39 0 89 -9 138 -26 72 -24 76 -24 85 -7 6 10 34 42 63 71 35 36
48 55 39 58 -7 3 -22 1 -33 -5 -12 -6 -27 -8 -35 -6 -23 9 -43 -23 -29 -46 10
-16 9 -19 -12 -25 -13 -3 -34 -1 -45 6 -23 12 -29 50 -7 50 20 0 29 31 13 47
-21 21 -50 5 -44 -24 9 -47 -79 -58 -103 -13 -9 16 -7 19 17 17 22 -2 29 3 31
21 3 17 -2 25 -17 29 -12 3 -21 9 -21 13 0 10 -29 40 -38 40 -4 0 -15 -5 -24
-11z"/>
<path d="M1009 1752 c-79 -41 -114 -101 -113 -196 1 -157 105 -245 278 -234
112 7 116 12 116 118 0 87 0 88 28 98 22 9 12 11 -55 11 l-83 1 0 57 c0 39 5
62 18 76 16 20 16 20 -1 14 -10 -4 -47 -7 -81 -7 -77 0 -100 -15 -100 -64 0
-44 36 -86 73 -85 25 0 25 0 4 9 -41 17 -43 99 -2 120 42 23 49 8 49 -98 0
-120 -7 -160 -29 -165 -9 -3 3 -5 27 -6 l42 -1 0 70 c0 69 3 76 34 64 13 -5
16 -23 16 -90 0 -81 -1 -84 -26 -90 -38 -10 -108 1 -151 23 -78 40 -117 149
-89 246 25 86 83 129 177 129 71 0 117 -23 141 -72 l17 -35 1 61 0 61 -37 7
c-21 3 -75 6 -119 6 -70 0 -89 -4 -135 -28z"/>
<path d="M403 1189 c-79 -23 -132 -114 -119 -203 14 -92 91 -146 211 -146 111
0 111 0 118 83 5 51 11 75 24 84 14 11 5 13 -58 13 -66 0 -71 -2 -49 -13 21
-11 25 -21 28 -66 4 -69 -9 -85 -66 -78 -50 5 -87 29 -119 77 -18 26 -23 47
-23 97 0 61 2 67 34 99 33 33 55 40 116 35 43 -3 80 -23 95 -50 14 -26 14 -25
15 20 l0 46 -46 7 c-62 8 -122 6 -161 -5z"/>
<path d="M970 1036 c0 -159 -1 -165 -22 -180 -21 -15 -19 -16 42 -15 49 0 60
2 43 9 -13 5 -23 17 -23 27 0 10 -3 62 -6 116 -4 53 -4 97 -2 97 3 0 61 -57
131 -127 69 -70 128 -125 130 -123 5 5 16 198 17 287 0 40 4 53 18 56 9 3 -10
5 -43 5 -45 1 -54 -1 -37 -8 21 -9 22 -14 22 -127 l-1 -118 -128 133 c-71 72
-131 132 -135 132 -3 0 -6 -74 -6 -164z"/>
<path d="M1366 1175 c-3 -11 -6 -31 -6 -45 l0 -25 13 25 c7 13 23 27 37 31 41
12 130 10 130 -2 0 -6 -43 -76 -95 -156 -52 -80 -95 -149 -95 -154 0 -5 86 -9
192 -9 157 0 189 2 175 13 -17 12 -17 15 0 60 l17 47 57 0 56 0 17 -43 c9 -23
16 -50 16 -60 0 -14 10 -17 58 -16 46 0 53 2 36 11 -24 11 -42 47 -112 223
-27 66 -53 119 -58 119 -5 -1 -39 -75 -76 -164 -60 -147 -78 -179 -100 -180
-4 0 -4 17 -1 38 l6 37 -26 -27 c-24 -26 -32 -28 -102 -28 -41 0 -75 2 -75 5
0 3 35 58 78 123 43 64 88 134 101 154 l22 37 -130 3 c-123 3 -130 2 -135 -17z
m463 -172 c1 -9 -14 -13 -40 -13 -45 0 -45 0 -12 79 l15 36 19 -45 c10 -25 18
-51 18 -57z"/>
<path d="M738 1180 c21 -9 22 -13 22 -165 0 -152 -1 -156 -22 -165 -17 -6 0
-9 57 -9 65 1 75 2 53 11 l-28 10 0 158 c0 143 2 159 18 163 9 3 -14 5 -53 5
-51 1 -64 -2 -47 -8z"/>
<path d="M855 795 c-22 -8 -41 -15 -42 -15 -1 0 -11 -15 -22 -34 -25 -40 -27
-105 -5 -147 21 -41 93 -73 143 -64 81 15 121 62 121 143 0 62 -32 106 -88
122 -47 13 -58 12 -107 -5z m111 -39 c31 -31 34 -39 34 -95 0 -53 -4 -66 -26
-88 -21 -21 -32 -24 -62 -19 -59 9 -85 44 -90 120 -4 59 -2 67 21 90 38 38 80
35 123 -8z"/>
<path d="M1549 801 c-71 -22 -99 -61 -99 -137 0 -40 5 -51 38 -84 28 -28 48
-39 83 -44 77 -11 118 5 119 48 0 16 -2 16 -18 -5 -15 -17 -28 -22 -61 -21
-75 3 -111 44 -111 128 0 37 6 51 29 75 44 44 125 36 149 -15 10 -19 11 -17
11 15 1 36 0 36 -45 43 -54 7 -61 7 -95 -3z"/>
<path d="M323 793 c15 -4 17 -19 17 -123 0 -85 -3 -120 -12 -123 -7 -3 12 -5
42 -5 30 0 48 2 39 5 -10 2 -19 18 -22 36 -10 56 -7 196 4 202 14 9 56 -20 64
-44 7 -22 -9 -59 -34 -78 -13 -10 -10 -11 16 -2 39 13 51 27 59 66 5 24 1 36
-15 52 -18 18 -32 21 -98 20 -43 -1 -70 -3 -60 -6z"/>
<path d="M538 793 c9 -3 12 -38 12 -123 0 -85 -3 -120 -12 -123 -7 -3 12 -5
42 -5 30 0 48 2 40 5 -22 9 -30 24 -30 61 0 49 27 54 59 11 51 -66 68 -79 108
-78 21 0 31 3 23 6 -20 7 -67 51 -92 86 -19 27 -19 27 1 53 26 34 27 68 1 94
-17 17 -33 20 -92 19 -40 0 -67 -3 -60 -6z m112 -23 c39 -39 15 -115 -34 -108
-18 3 -21 11 -24 52 -2 27 -1 55 2 62 8 20 33 17 56 -6z"/>
<path d="M1088 793 c9 -3 12 -60 12 -232 0 -219 -1 -229 -22 -256 -19 -25 -20
-27 -2 -17 10 6 30 22 44 37 25 26 25 28 28 243 2 154 7 219 15 224 7 4 -10 7
-38 7 -27 0 -44 -3 -37 -6z"/>
<path d="M1233 793 c15 -4 17 -19 17 -123 0 -85 -3 -120 -12 -123 -7 -3 24 -6
70 -6 l82 -1 0 28 c-1 23 -2 24 -11 10 -6 -12 -22 -18 -44 -18 l-35 0 0 55 c0
54 1 55 28 55 15 0 33 -5 40 -12 9 -9 12 -6 12 13 0 23 -3 24 -40 21 l-40 -4
0 46 c0 44 1 46 28 46 15 0 33 -5 40 -12 9 -9 12 -7 12 10 0 21 -4 22 -82 21
-46 -1 -75 -3 -65 -6z"/>
<path d="M1720 778 c0 -17 3 -19 12 -10 7 7 29 12 50 12 l38 0 0 -104 c0 -82
-3 -108 -16 -120 -14 -15 -11 -16 38 -16 41 1 49 3 36 11 -15 9 -18 26 -18
119 l0 110 33 0 c18 0 38 -5 45 -12 9 -9 12 -7 12 10 0 21 -3 22 -115 22 -112
0 -115 -1 -115 -22z"/>
</g>
</svg>
