<svg width="302" height="47" viewBox="0 0 302 47" fill="none" xmlns="http://www.w3.org/2000/svg">
<path d="M195 1.9298L192.714 3.79735L198 8.46622L203.214 13.0728L198.071 17.6172C195.286 20.1073 192.929 22.4106 192.929 22.7219C192.929 23.0331 195.214 25.3364 198.071 27.8265L203.214 32.3086L197.571 37.351L192 42.3934L194.571 44.6967L197.214 47L205.571 39.6543L214 32.3709L208.714 27.7642C205.071 24.5272 203.643 22.9086 204.071 22.3483C204.357 21.8503 206.357 20.1073 208.429 18.4265C214.786 13.3841 214.857 13.8199 206.429 6.47417C202.357 2.92583 198.643 0 198.214 0C197.714 0 196.286 0.871524 195 1.9298Z" fill="#FF0000"/>
<path d="M179.584 15.1463L171 22.5979L179.295 29.7989C183.839 33.7439 187.951 37 188.311 37C189.249 37 193 33.7439 193 32.9298C193 32.6167 190.475 30.1746 187.446 27.4821L181.964 22.5353L187.446 17.7137C190.475 15.0211 193 12.4538 193 11.8902C193 11.0135 190.836 8.88453 188.961 8.00788C188.528 7.82003 184.344 11.0135 179.584 15.1463Z" fill="#193CF5"/>
<path d="M4.82142 13.1846C2.51139 14.7434 -0.448341 21.976 0.0569781 24.657C0.273544 25.7793 1.21199 28.2733 2.22263 30.2685C4.38829 34.3213 6.12081 35.2565 11.3184 34.9448C14.1337 34.7577 14.6391 34.5707 14.8556 33.3237C15.0722 32.2014 14.7834 31.952 13.1953 31.952C11.6071 31.952 11.0296 31.3908 9.44148 28.3357C7.42021 24.3453 7.49239 21.976 9.65805 17.9232C10.7409 16.0527 11.535 15.3669 13.0509 15.2422C14.5669 15.0551 15 14.681 15 13.4964C15 12.0624 14.7834 12 10.7409 12C7.70896 12 6.04862 12.3117 4.82142 13.1846Z" fill="#193CF5"/>
<path d="M19.14 22.9699L19.35 34H26C32.3 34 32.65 33.9397 32.86 32.674C33.07 31.4685 32.72 31.3479 29.71 31.1671L26.35 30.9863V27.6712C26.35 24.4767 26.42 24.3562 28.31 24.1753C29.78 23.9945 30.2 23.6329 30.2 22.5479C30.2 21.463 29.78 21.1014 28.31 20.9205C26.49 20.7397 26.35 20.5589 26.35 18.0274V15.3151L29.71 15.1342C32.65 14.9534 33 14.8329 33 13.4466C33 12 32.93 12 26 12H19L19.14 22.9699Z" fill="#193CF5"/>
<path d="M37.1414 23.3389L37.3535 34.74L43.7163 34.9269C51.9879 35.1762 52.9777 34.9269 54.6744 31.9365C56.4419 28.8214 56.4419 26.9524 54.6744 23.775C53.5433 21.9059 53.4019 21.0337 53.9674 20.1615C55.0279 18.2924 54.8158 16.2988 53.2605 13.9936L51.8465 12H44.4233H37L37.1414 23.3389ZM47.6047 16.2988C48.5944 18.5417 47.534 20.7222 45.4837 20.7222C44.2819 20.7222 44.0698 20.2861 44.0698 18.0432C44.0698 16.548 44.2819 15.1151 44.5647 14.9282C45.5544 13.9936 46.7563 14.5544 47.6047 16.2988ZM48.5237 25.8309C49.7256 27.2639 49.7963 27.7 49.0186 29.3821C48.1702 31.2512 46.12 32.3726 44.7767 31.625C43.9991 31.1889 43.787 24.8964 44.5647 24.2111C45.413 23.4635 47.0391 24.0865 48.5237 25.8309Z" fill="#193CF5"/>
<path d="M61.14 22.9699L61.35 34H68C74.3 34 74.65 33.9397 74.86 32.674C75.07 31.4685 74.72 31.3479 71.71 31.1671L68.35 30.9863V27.6712C68.35 24.4767 68.42 24.3562 70.31 24.1753C71.78 23.9945 72.2 23.6329 72.2 22.4877C72.2 21.2822 71.85 21.0411 70.1 21.0411C68.07 21.0411 68 20.9808 68 18.0274V15.0137H71.5C74.79 15.0137 75 14.8932 75 13.5068V12H68H61L61.14 22.9699Z" fill="#193CF5"/>
<path d="M79.1433 22.9699L79.3582 34H82.5822H85.8062L86.1644 29.7808L86.5226 25.5616L89.0302 25.3808C93.7587 25.0795 94.4751 24.7178 95.8364 22.1863C97.5558 19.0521 97.4126 17.4247 95.1199 14.411L93.3288 12H86.1644H79L79.1433 22.9699ZM89.3884 16.8219C90.3198 18.389 90.3914 18.9315 89.6033 20.3178C89.1018 21.2219 88.0988 22.0055 87.3824 22.126C86.3077 22.3068 86.1644 21.8247 86.1644 18.6904C86.1644 14.4712 87.454 13.7479 89.3884 16.8219Z" fill="#193CF5"/>
<path d="M101.148 23.3145L101.37 34.629H105.074H108.778L109 29.4973L109.222 24.3656L111.222 24.5511C113.222 24.7366 113.222 24.7984 113.444 29.8683L113.667 35L117.148 34.8145L120.63 34.629L120.852 23.3145L121 12.0618H117.296H113.593V16.6989V21.336H111.37H109.222L109 16.8226L108.778 12.371L104.852 12.1855L101 12L101.148 23.3145Z" fill="#193CF5"/>
<path d="M131.204 12.413C130.371 13.535 124.605 34.2912 125.022 34.6029C125.925 35.4132 127.87 34.9146 128.287 33.7303C128.634 32.7953 129.329 32.4836 131.413 32.4836C133.427 32.4836 134.33 32.7953 134.886 33.7303C135.442 34.6652 136.345 34.9769 138.637 34.9769C140.235 34.9769 141.763 34.8522 141.972 34.6652C142.18 34.4782 141.208 29.3671 139.818 23.2586L137.317 12.226L134.4 12.039C132.871 11.9144 131.343 12.1014 131.204 12.413ZM133.149 26.6868C133.566 29.2424 133.566 29.3671 131.829 29.3671C129.745 29.3671 129.745 29.1178 130.787 25.1909C131.691 22.0743 132.385 22.4483 133.149 26.6868Z" fill="#193CF5"/>
<path d="M148.771 12.8702C148.196 13.3053 147.191 14.8592 146.4 16.2888L145.035 18.8994L146.975 22.318L148.915 25.6745L146.76 29.7768C145.61 32.0766 144.82 34.1278 145.035 34.4386C145.61 35.3088 151.501 35.1223 152.363 34.19C152.722 33.817 153.656 31.9523 154.374 30.1498L155.739 26.7933L156.098 30.7713L156.457 34.6872H160.049H163.641L163.856 23.3125L164 12H156.888C151.86 12 149.417 12.2486 148.771 12.8702ZM156.098 18.8372C156.098 22.9396 154.877 23.8719 153.368 21.0127C152.219 18.8994 152.291 18.1535 153.656 16.4753C155.452 14.2376 156.098 14.8592 156.098 18.8372Z" fill="#193CF5"/>
<path d="M222 13.5583C222 14.9919 222.268 15.1166 224.677 15.1166C226.886 15.1166 227.489 15.3659 228.091 16.6125C228.76 17.8592 228.56 18.4202 227.087 20.2901C224.945 22.9081 224.945 22.9081 227.02 25.4637C228.961 27.8323 229.095 28.6426 227.623 30.5749C226.886 31.5722 225.949 31.9462 224.276 31.9462C222.201 31.9462 221.933 32.1332 222.134 33.3175C222.335 34.6264 222.803 34.7511 226.351 34.9381C231.706 35.1874 233.178 34.7511 234.718 32.3825C236.525 29.6399 236.391 27.2713 234.316 24.778L232.576 22.5964L234.316 20.6641C236.19 18.6072 236.391 17.8592 235.454 15.5529C234.182 12.561 232.977 12 227.288 12C222.067 12 222 12 222 13.5583Z" fill="#FF0000"/>
<path d="M245.736 12.7459C244.111 16.973 239.73 33.4459 240.013 34.1297C240.578 35.4351 242.627 35.1865 243.051 33.7568C243.617 31.9541 249.269 31.9541 249.835 33.7568C250.117 34.7514 250.824 35 253.368 35C255.134 35 256.759 34.7514 256.971 34.4405C257.183 34.1297 256.194 28.9703 254.781 22.9405L252.167 12H249.128C247.291 12 245.948 12.3108 245.736 12.7459ZM247.856 26.4216C248.351 29.3432 248.351 29.4054 246.443 29.4054C244.747 29.4054 244.606 29.2189 244.959 27.7892C245.242 26.8568 245.666 25.3027 245.878 24.3081C246.443 21.8838 247.291 22.8162 247.856 26.4216Z" fill="#FF0000"/>
<path d="M262.141 22.9699L262.352 34H265.525H268.697L269.05 29.7808L269.402 25.5616L273.139 25.3808L276.946 25.2L278.638 21.9452C280.33 18.8712 280.33 18.6301 279.272 16.4603C277.228 12.2411 276.664 12 268.909 12H262L262.141 22.9699ZM272.363 16.9425C273.35 18.2685 273.35 18.811 272.575 20.3781C272.081 21.5233 271.165 22.2466 270.389 22.2466C269.261 22.2466 269.05 21.7644 269.05 19.0521C269.05 14.5315 270.178 13.8082 272.363 16.9425Z" fill="#FF0000"/>
<path d="M286.773 12.8702C286.198 13.3053 285.193 14.8592 284.403 16.2888L283.038 18.8994L284.977 22.2559L286.845 25.6123L284.762 29.7768C283.541 32.0145 282.823 34.1278 283.038 34.4386C283.613 35.3088 289.502 35.1223 290.364 34.19C290.723 33.817 291.657 31.9523 292.375 30.1498L293.74 26.7933L294.099 30.7713L294.458 34.6872H298.05H301.641L301.856 23.3125L302 12H294.889C289.861 12 287.419 12.2486 286.773 12.8702ZM294.099 18.8372C294.099 22.9396 292.878 23.8719 291.37 21.0127C290.221 18.8994 290.292 18.1535 291.657 16.4753C293.453 14.2376 294.099 14.8592 294.099 18.8372Z" fill="#FF0000"/>
</svg>
