<svg width="117" height="10" viewBox="0 0 117 10" fill="none" xmlns="http://www.w3.org/2000/svg">
<g clip-path="url(#clip0_855_1768)">
<path d="M102.381 2.43408H95.0723V9.78857H102.381V2.43408Z" fill="#5AC1E6"/>
<path d="M95.073 2.43408H87.7637V9.78857H95.073V2.43408Z" fill="#4D9DD7"/>
<path d="M109.691 2.43408H102.382V9.78857H109.691V2.43408Z" fill="#99D6E8"/>
<path d="M87.7634 2.43408H80.4541V9.78857H87.7634V2.43408Z" fill="#147BD0"/>
<path d="M80.4538 2.43408H73.1445V9.78857H80.4538V2.43408Z" fill="#1D57A4"/>
<path d="M117 2.43408H109.69V9.78857H117V2.43408Z" fill="#ECF0F4"/>
<path d="M70.7255 8.04223C70.4102 8.67716 69.9892 9.15334 69.411 9.5237C68.8324 9.84116 68.2014 10.0528 67.4127 10.0528C66.9394 10.0528 66.466 9.99991 66.0455 9.84116C65.6249 9.68245 65.2568 9.47081 64.8887 9.20627C64.4153 8.83588 64.1 8.41259 63.8895 7.93641C63.6791 7.46023 63.5742 6.8782 63.5742 6.2962C63.5742 5.1322 63.9423 4.2327 64.6782 3.49197C65.4145 2.75123 66.3612 2.38086 67.518 2.38086C68.2014 2.38086 68.78 2.53959 69.2534 2.80414C69.7264 3.06869 70.1997 3.49197 70.5678 4.07398L69.6211 4.76181C69.411 4.28563 69.1481 3.91523 68.8324 3.70363C68.5171 3.49197 68.149 3.33324 67.7281 3.33324C67.0971 3.33324 66.6241 3.59781 66.2559 4.07398C65.8878 4.60309 65.7302 5.29091 65.7302 6.24331C65.7302 7.08984 65.9403 7.7777 66.3084 8.30677C66.7293 8.83588 67.2023 9.10045 67.8861 9.10045C68.3067 9.10045 68.6748 8.9417 68.9901 8.73006C69.3058 8.46552 69.6211 8.09513 69.8844 7.56606L70.7255 8.04223Z" fill="black"/>
<path d="M62.2597 2.48682H60.209V9.84132H62.2597V2.48682Z" fill="black"/>
<path d="M55.2134 9.78839V3.49211H53.2676V2.48682H59.2096V3.49211H57.2641V9.78839H55.2134Z" fill="black"/>
<path d="M48.5353 7.93646C48.693 8.30682 48.8507 8.57136 49.1136 8.73011C49.324 8.94175 49.5869 8.99464 49.8498 8.99464C50.1127 8.99464 50.3756 8.88882 50.5336 8.73011C50.6913 8.57136 50.7965 8.35975 50.7965 8.09518C50.7965 7.88354 50.7437 7.72482 50.586 7.56607C50.4284 7.40736 50.2179 7.24861 49.9026 7.08989L49.5869 6.93118C48.9035 6.56079 48.5353 6.34914 48.3773 6.24332C48.1144 5.97879 47.9043 5.76714 47.7991 5.50261C47.6939 5.23804 47.6414 4.9735 47.6414 4.65604C47.6414 3.96821 47.8515 3.38619 48.3249 2.91C48.7982 2.48672 49.4292 2.22217 50.1655 2.22217C50.6913 2.22217 51.1643 2.32799 51.5852 2.59254C52.0057 2.85709 52.3214 3.17455 52.5315 3.65075L51.6904 4.23275C51.5324 3.86239 51.3747 3.59782 51.1118 3.4391C50.9014 3.28037 50.6385 3.17455 50.3231 3.17455C50.0603 3.17455 49.8498 3.28037 49.6921 3.4391C49.5345 3.59782 49.4292 3.80946 49.4292 4.02111C49.4292 4.23275 49.4817 4.39146 49.6393 4.55021C49.7974 4.70893 50.0603 4.86768 50.4284 5.07932L50.586 5.13221C51.3223 5.50261 51.7953 5.76714 51.9533 5.87296C52.2162 6.08461 52.4263 6.34914 52.5315 6.56079C52.6368 6.82536 52.6895 7.08989 52.6895 7.40736C52.6895 8.14811 52.4263 8.73011 51.9533 9.15339C51.4275 9.62957 50.7965 9.84121 50.0075 9.84121C49.4292 9.84121 48.9559 9.73539 48.4825 9.47086C48.062 9.20629 47.6939 8.88882 47.4834 8.41264L48.5353 7.93646Z" fill="black"/>
<path d="M46.2216 2.48682H44.1709V9.84132H46.2216V2.48682Z" fill="black"/>
<path d="M29.0787 6.13764C29.0787 7.03711 29.2364 7.77786 29.4993 8.30696C29.8148 8.83607 30.1829 9.10061 30.7088 9.10061C31.2346 9.10061 31.6553 8.83607 31.9182 8.30696C32.2337 7.77786 32.3389 7.09004 32.3389 6.13764C32.3389 5.23818 32.1811 4.49743 31.9182 3.96832C31.6027 3.43924 31.2346 3.17469 30.7088 3.17469C30.1829 3.17469 29.7623 3.43924 29.4993 3.96832C29.2364 4.55036 29.0787 5.23818 29.0787 6.13764ZM30.7614 2.32812C31.2872 2.32812 31.7605 2.43395 32.2337 2.59268C32.707 2.75141 33.0751 3.01596 33.4432 3.28051C33.8638 3.65089 34.1268 4.07414 34.3371 4.55036C34.5474 5.02654 34.6526 5.55564 34.6526 6.13764C34.6526 6.71968 34.5474 7.24875 34.3371 7.72496C34.1268 8.20114 33.8112 8.62443 33.4432 8.99479C33.1277 9.31225 32.707 9.52389 32.2337 9.68261C31.7605 9.84136 31.2872 9.94718 30.7614 9.94718C30.2355 9.94718 29.7623 9.84136 29.289 9.68261C28.8157 9.52389 28.4477 9.25936 28.0796 8.99479C27.6589 8.62443 27.3434 8.20114 27.1856 7.72496C26.9753 7.24875 26.8701 6.71968 26.8701 6.13764C26.8701 5.55564 26.9753 5.02654 27.1856 4.55036C27.396 4.07414 27.7115 3.65089 28.0796 3.28051C28.3951 2.96305 28.8157 2.75141 29.289 2.59268C29.7623 2.43395 30.2881 2.32812 30.7614 2.32812Z" fill="black"/>
<path d="M21.9805 9.78839V2.48682H23.9786V8.83603H26.6605V9.78839H21.9805Z" fill="black"/>
<path d="M18.089 8.67716C17.6158 9.10045 17.0373 9.41791 16.4063 9.68245C15.7753 9.89409 15.1443 9.99991 14.5133 9.99991C13.9875 9.99991 13.5142 9.94698 13.0935 9.78827C12.6729 9.62952 12.2522 9.41791 11.9366 9.15334C11.4634 8.78298 11.1479 8.3597 10.9375 7.83059C10.7272 7.35441 10.6221 6.77238 10.6221 6.13748C10.6221 5.60838 10.7272 5.07927 10.9375 4.55016C11.1479 4.02106 11.4634 3.59781 11.8841 3.28033C12.2522 2.96287 12.6203 2.75123 13.0935 2.5925C13.5668 2.43377 14.04 2.38086 14.5659 2.38086C15.2495 2.38086 15.8279 2.53959 16.3012 2.80414C16.7744 3.06869 17.2477 3.49197 17.6157 4.07398L16.6693 4.76181C16.4589 4.28563 16.196 3.91523 15.8805 3.70363C15.565 3.49197 15.1969 3.33324 14.7762 3.33324C14.1452 3.33324 13.672 3.59781 13.3039 4.07398C12.9357 4.60309 12.778 5.29091 12.778 6.24331C12.778 7.08984 12.9884 7.7777 13.3564 8.30677C13.7245 8.83588 14.2504 9.10045 14.8814 9.10045C15.0917 9.10045 15.3546 9.04752 15.5124 8.99463C15.7227 8.9417 15.933 8.83588 16.0908 8.67716V7.46023H15.4598V6.34913H18.0364V7.35441V8.67716H18.089Z" fill="black"/>
<path d="M5.7316 3.38629V5.6085H6.15227C6.62555 5.6085 6.99363 5.50268 7.20395 5.34396C7.4143 5.18521 7.51945 4.86778 7.51945 4.49739C7.51945 4.12703 7.4143 3.86246 7.20395 3.65086C6.99363 3.49211 6.67812 3.38629 6.25742 3.38629H5.7316ZM5.7316 6.50796V8.88893H6.20484C6.7307 8.88893 7.09879 8.78311 7.36172 8.62439C7.57203 8.41275 7.67723 8.14818 7.67723 7.672C7.67723 7.24871 7.57203 6.98418 7.36172 6.77253C7.15137 6.56089 6.78328 6.50796 6.36262 6.50796H5.7316ZM3.7334 9.78839V2.48682H7.04621C7.83496 2.48682 8.46598 2.64555 8.88664 3.01592C9.35992 3.38629 9.57024 3.86246 9.57024 4.49739C9.57024 4.92068 9.46508 5.29103 9.20215 5.55561C8.93922 5.82014 8.57113 6.03178 8.04531 6.08471C8.62375 6.24343 9.04441 6.45507 9.35992 6.77253C9.67543 7.09 9.83316 7.46036 9.83316 7.88364C9.83316 8.51857 9.62285 8.94186 9.20215 9.31221C8.78148 9.62968 8.15047 9.78839 7.30914 9.78839H3.7334Z" fill="black"/>
<path d="M42.9083 8.62443C42.4353 9.04771 41.8567 9.36518 41.2257 9.62971C40.5947 9.84136 39.9637 9.94718 39.3327 9.94718C38.8069 9.94718 38.3335 9.89425 37.913 9.73554C37.492 9.57679 37.0715 9.36518 36.7562 9.10061C36.2828 8.73025 35.9671 8.30696 35.757 7.77786C35.5466 7.30168 35.4414 6.71968 35.4414 6.08475C35.4414 5.55564 35.5466 5.02654 35.757 4.49743C35.9671 3.96832 36.2828 3.54506 36.7034 3.2276C37.0715 2.91014 37.4396 2.6985 37.913 2.53977C38.386 2.38104 38.8593 2.32812 39.3851 2.32812C40.0689 2.32812 40.6471 2.48686 41.1205 2.75141C41.5938 3.01596 42.0672 3.43924 42.4353 4.02125L41.4886 4.70907C41.2781 4.23289 41.0152 3.86254 40.6999 3.65089C40.3842 3.43924 40.0161 3.28051 39.5955 3.28051C38.9645 3.28051 38.4912 3.54506 38.1231 4.02125C37.7553 4.55036 37.5973 5.23818 37.5973 6.19057C37.5973 7.03711 37.8077 7.72496 38.1759 8.25404C38.544 8.78314 39.0698 9.04771 39.7008 9.04771C39.9112 9.04771 40.1741 8.99479 40.3318 8.94189C40.5423 8.88896 40.7524 8.78314 40.91 8.62443V7.4075H40.279V6.34929H42.8559V7.35457V8.62443H42.9083Z" fill="black"/>
<path d="M2.52405 0H0V2.48677H2.52405V0Z" fill="#5AC1E6"/>
</g>
<defs>
<clipPath id="clip0_855_1768">
<rect width="117" height="10" fill="white"/>
</clipPath>
</defs>
</svg>
