<svg width="30" height="30" viewBox="0 0 30 30" fill="none" xmlns="http://www.w3.org/2000/svg">
<rect width="30" height="30" rx="2" fill="url(#paint0_linear_8_890)"/>
<path d="M16.29 10.13C16.1963 10.223 16.1219 10.3336 16.0711 10.4554C16.0203 10.5773 15.9942 10.708 15.9942 10.84C15.9942 10.972 16.0203 11.1027 16.0711 11.2246C16.1219 11.3465 16.1963 11.4571 16.29 11.55L18.21 13.47C18.303 13.5637 18.4136 13.6381 18.5354 13.6889C18.6573 13.7397 18.788 13.7658 18.92 13.7658C19.052 13.7658 19.1827 13.7397 19.3046 13.6889C19.4264 13.6381 19.537 13.5637 19.63 13.47L23.71 9.39002C23.8194 9.30116 23.9087 9.1902 23.9722 9.06441C24.0356 8.93862 24.0718 8.80084 24.0783 8.66009C24.0848 8.51935 24.0615 8.37881 24.0099 8.24771C23.9583 8.1166 23.8796 7.99787 23.7789 7.89931C23.6782 7.80075 23.5578 7.72458 23.4256 7.6758C23.2935 7.62701 23.1525 7.6067 23.0119 7.61621C22.8713 7.62572 22.7343 7.66482 22.6099 7.73097C22.4855 7.79711 22.3765 7.8888 22.29 8.00002L18.92 11.35L17.71 10.13C17.617 10.0363 17.5064 9.96189 17.3846 9.91112C17.2627 9.86036 17.132 9.83422 17 9.83422C16.868 9.83422 16.7373 9.86036 16.6154 9.91112C16.4936 9.96189 16.383 10.0363 16.29 10.13ZM22.91 13.64C22.6463 13.6629 22.4024 13.7895 22.2318 13.9919C22.0612 14.1944 21.9778 14.4562 22 14.72C22.005 14.8133 22.005 14.9067 22 15C22 16.8565 21.2625 18.637 19.9498 19.9498C18.637 21.2625 16.8565 22 15 22H9.41L10.05 21.37C10.2363 21.1827 10.3408 20.9292 10.3408 20.665C10.3408 20.4008 10.2363 20.1474 10.05 19.96C9.15566 19.0705 8.51828 17.9559 8.20526 16.734C7.89224 15.512 7.91521 14.2282 8.27174 13.0183C8.62827 11.8084 9.30511 10.7172 10.2307 9.8603C11.1563 9.00335 12.2962 8.41244 13.53 8.15002C14.4542 7.96522 15.4058 7.96522 16.33 8.15002C16.4613 8.17628 16.5965 8.17642 16.7279 8.15043C16.8593 8.12444 16.9843 8.07283 17.0957 7.99854C17.2071 7.92426 17.3028 7.82875 17.3773 7.71747C17.4519 7.6062 17.5037 7.48134 17.53 7.35002C17.5563 7.21869 17.5564 7.08348 17.5304 6.95211C17.5044 6.82073 17.4528 6.69576 17.3785 6.58433C17.3042 6.4729 17.2087 6.37719 17.0975 6.30267C16.9862 6.22815 16.8613 6.17628 16.73 6.15002C15.5386 5.91028 14.3114 5.91028 13.12 6.15002C11.1012 6.59068 9.29398 7.70894 7.99871 9.31892C6.70344 10.9289 5.99813 12.9337 6 15C6.0084 17.0462 6.71384 19.0285 8 20.62L6.29 22.29C6.15125 22.4306 6.05725 22.6092 6.01988 22.8032C5.9825 22.9972 6.00342 23.1979 6.08 23.38C6.15502 23.5626 6.28242 23.719 6.44614 23.8293C6.60986 23.9396 6.80258 23.999 7 24H15C17.387 24 19.6761 23.0518 21.364 21.364C23.0518 19.6761 24 17.387 24 15V14.56C23.99 14.4276 23.9536 14.2986 23.8932 14.1803C23.8327 14.0621 23.7493 13.9571 23.6479 13.8715C23.5464 13.7859 23.4289 13.7213 23.3022 13.6816C23.1755 13.6418 23.0422 13.6277 22.91 13.64Z" fill="white"/>
<defs>
<linearGradient id="paint0_linear_8_890" x1="5.66038" y1="3.11463e-07" x2="27.0511" y2="27.8052" gradientUnits="userSpaceOnUse">
<stop stop-color="#96C8FF"/>
<stop offset="1" stop-color="#C0BAEE"/>
</linearGradient>
</defs>
</svg>
