<svg width="30" height="30" viewBox="0 0 30 30" fill="none" xmlns="http://www.w3.org/2000/svg">
<rect width="30" height="30" rx="2" fill="url(#paint0_linear_8_883)"/>
<path d="M12.8761 6.15292C12.8941 6.1297 12.9048 6.10172 12.9071 6.07245C12.9093 6.04318 12.9029 6.0139 12.8886 5.98824C12.8743 5.96258 12.8528 5.94168 12.8268 5.92811C12.8008 5.91454 12.7713 5.90892 12.7421 5.91192L9.23913 6.28192C9.21947 6.28404 9.20043 6.29002 9.1831 6.29951C9.16576 6.30901 9.15048 6.32184 9.13812 6.33727C9.12576 6.3527 9.11657 6.37041 9.11108 6.3894C9.10559 6.40839 9.10391 6.42828 9.10613 6.44792L9.50313 10.0879C9.50641 10.1177 9.51851 10.1457 9.53787 10.1686C9.55724 10.1914 9.58298 10.2079 9.6118 10.2159C9.64061 10.224 9.67118 10.2233 9.69958 10.2138C9.72797 10.2044 9.75289 10.1866 9.77113 10.1629L12.8761 6.15292ZM20.2231 10.1629C20.2414 10.1866 20.2663 10.2044 20.2947 10.2138C20.3231 10.2233 20.3536 10.224 20.3825 10.2159C20.4113 10.2079 20.437 10.1914 20.4564 10.1686C20.4757 10.1457 20.4878 10.1177 20.4911 10.0879L20.8881 6.44792C20.8904 6.42828 20.8887 6.40839 20.8832 6.3894C20.8777 6.37041 20.8685 6.3527 20.8561 6.33727C20.8438 6.32184 20.8285 6.30901 20.8112 6.29951C20.7938 6.29002 20.7748 6.28404 20.7551 6.28192L17.2521 5.91192C17.2231 5.9091 17.1939 5.9148 17.168 5.92832C17.1422 5.94185 17.1208 5.96262 17.1066 5.98809C17.0924 6.01356 17.0859 6.04262 17.088 6.07172C17.09 6.10082 17.1005 6.12869 17.1181 6.15192L20.2231 10.1629ZM10.8351 11.6349C10.807 11.635 10.7794 11.6272 10.7555 11.6124C10.7316 11.5976 10.7124 11.5763 10.7 11.5511C10.6876 11.5259 10.6825 11.4977 10.6854 11.4697C10.6882 11.4417 10.6989 11.4151 10.7161 11.3929L14.8781 6.01692C14.8921 5.99867 14.9102 5.98388 14.9308 5.97371C14.9514 5.96353 14.9741 5.95824 14.9971 5.95824C15.0201 5.95824 15.0428 5.96353 15.0635 5.97371C15.0841 5.98388 15.1021 5.99867 15.1161 6.01692L19.2781 11.3929C19.2954 11.4151 19.306 11.4417 19.3089 11.4697C19.3117 11.4977 19.3067 11.5259 19.2943 11.5511C19.2819 11.5763 19.2626 11.5976 19.2387 11.6124C19.2148 11.6272 19.1872 11.635 19.1591 11.6349H10.8351ZM11.9921 21.2599C12.0601 21.4189 11.8521 21.5479 11.7411 21.4179L4.84113 13.3829C4.82239 13.3612 4.81027 13.3346 4.8062 13.3062C4.80214 13.2778 4.8063 13.2488 4.81819 13.2227C4.83008 13.1966 4.84921 13.1745 4.8733 13.1589C4.8974 13.1434 4.92545 13.135 4.95413 13.1349H8.40613C8.4354 13.1348 8.46407 13.1433 8.48859 13.1593C8.51311 13.1753 8.53242 13.1981 8.54413 13.2249L11.9921 21.2599ZM21.5871 13.1349C21.558 13.135 21.5296 13.1436 21.5052 13.1596C21.4809 13.1755 21.4618 13.1982 21.4501 13.2249L18.0011 21.2609C17.9341 21.4189 18.1411 21.5479 18.2531 21.4179L25.1531 13.3829C25.1719 13.3612 25.184 13.3346 25.1881 13.3062C25.1921 13.2778 25.188 13.2488 25.1761 13.2227C25.1642 13.1966 25.145 13.1745 25.121 13.1589C25.0969 13.1434 25.0688 13.135 25.0401 13.1349H21.5871ZM21.8491 11.4679C21.8467 11.4889 21.8488 11.5102 21.8552 11.5303C21.8616 11.5505 21.8722 11.569 21.8862 11.5848C21.9003 11.6006 21.9175 11.6132 21.9368 11.6218C21.9561 11.6304 21.977 11.6349 21.9981 11.6349H24.7781C24.806 11.6349 24.8333 11.6272 24.857 11.6125C24.8807 11.5979 24.8998 11.5769 24.9123 11.552C24.9248 11.5271 24.93 11.4992 24.9275 11.4715C24.925 11.4437 24.9148 11.4172 24.8981 11.3949L22.4731 8.14092C22.4551 8.11691 22.4303 8.09886 22.4019 8.0891C22.3735 8.07935 22.3428 8.07833 22.3139 8.0862C22.2849 8.09406 22.259 8.11044 22.2394 8.13321C22.2198 8.15598 22.2075 8.18409 22.2041 8.21392L21.8491 11.4679ZM7.79013 8.21392C7.78693 8.18385 7.77471 8.15544 7.75508 8.13243C7.73545 8.10942 7.70932 8.09288 7.68012 8.08499C7.65092 8.07709 7.62002 8.07821 7.59147 8.08819C7.56291 8.09817 7.53805 8.11655 7.52013 8.14092L5.09713 11.3949C5.08041 11.4172 5.07024 11.4437 5.06773 11.4715C5.06523 11.4992 5.07051 11.5271 5.08296 11.552C5.09542 11.5769 5.11457 11.5979 5.13827 11.6125C5.16196 11.6272 5.18927 11.6349 5.21713 11.6349H7.99713C8.01834 11.6351 8.03934 11.6307 8.05875 11.6221C8.07815 11.6135 8.09551 11.6009 8.10969 11.5852C8.12386 11.5694 8.13453 11.5508 8.14099 11.5306C8.14744 11.5103 8.14953 11.489 8.14713 11.4679L7.79013 8.21392ZM10.2271 13.3439C10.2171 13.3211 10.213 13.2961 10.2151 13.2712C10.2173 13.2463 10.2255 13.2224 10.2392 13.2015C10.253 13.1807 10.2716 13.1636 10.2936 13.1518C10.3156 13.14 10.3402 13.1338 10.3651 13.1339H19.6291C19.7361 13.1339 19.8091 13.2439 19.7661 13.3439L15.1351 24.1379C15.1236 24.165 15.1044 24.1881 15.0798 24.2043C15.0553 24.2205 15.0265 24.2291 14.9971 24.2291C14.9677 24.2291 14.939 24.2205 14.9144 24.2043C14.8899 24.1881 14.8707 24.165 14.8591 24.1379L10.2271 13.3439Z" fill="white"/>
<defs>
<linearGradient id="paint0_linear_8_883" x1="5.66038" y1="3.11463e-07" x2="27.0511" y2="27.8052" gradientUnits="userSpaceOnUse">
<stop stop-color="#96C8FF"/>
<stop offset="1" stop-color="#C0BAEE"/>
</linearGradient>
</defs>
</svg>
