<svg width="30" height="30" viewBox="0 0 30 30" fill="none" xmlns="http://www.w3.org/2000/svg">
<rect width="30" height="30" rx="2" fill="url(#paint0_linear_8_910)"/>
<path d="M24.4102 11.6401V11.5901C23.7056 9.66635 22.4271 8.00541 20.7477 6.83199C19.0683 5.65857 17.0689 5.0293 15.0202 5.0293C12.9714 5.0293 10.9721 5.65857 9.29271 6.83199C7.61328 8.00541 6.3348 9.66635 5.6302 11.5901C5.6302 11.5901 5.6302 11.5901 5.6302 11.6401C4.84332 13.811 4.84332 16.1892 5.6302 18.3601V18.4101C6.3348 20.3339 7.61328 21.9948 9.29271 23.1683C10.9721 24.3417 12.9714 24.971 15.0202 24.971C17.0689 24.971 19.0683 24.3417 20.7477 23.1683C22.4271 21.9948 23.7056 20.3339 24.4102 18.4101C24.4102 18.4101 24.4102 18.4101 24.4102 18.3601C25.1971 16.1892 25.1971 13.811 24.4102 11.6401ZM7.2602 17.0001C6.91342 15.6893 6.91342 14.3109 7.2602 13.0001H9.1202C8.96023 14.3287 8.96023 15.6716 9.1202 17.0001H7.2602ZM8.0802 19.0001H9.4802C9.71491 19.892 10.0504 20.7542 10.4802 21.5701C9.49949 20.9021 8.67969 20.0242 8.0802 19.0001ZM9.4802 11.0001H8.0802C8.67107 9.97921 9.48039 9.10159 10.4502 8.43013C10.0307 9.24737 9.70534 10.1095 9.4802 11.0001ZM14.0002 22.7001C12.772 21.7988 11.9093 20.4854 11.5702 19.0001H14.0002V22.7001ZM14.0002 17.0001H11.1402C10.9536 15.6733 10.9536 14.3269 11.1402 13.0001H14.0002V17.0001ZM14.0002 11.0001H11.5702C11.9093 9.51489 12.772 8.20144 14.0002 7.30013V11.0001ZM21.9202 11.0001H20.5202C20.2855 10.1083 19.95 9.24606 19.5202 8.43013C20.5009 9.0982 21.3207 9.97607 21.9202 11.0001ZM16.0002 7.30013C17.2284 8.20144 18.091 9.51489 18.4302 11.0001H16.0002V7.30013ZM16.0002 22.7001V19.0001H18.4302C18.091 20.4854 17.2284 21.7988 16.0002 22.7001ZM18.8602 17.0001H16.0002V13.0001H18.8602C19.0468 14.3269 19.0468 15.6733 18.8602 17.0001ZM19.5502 21.5701C19.98 20.7542 20.3155 19.892 20.5502 19.0001H21.9502C21.3507 20.0242 20.5309 20.9021 19.5502 21.5701ZM22.7402 17.0001H20.8802C20.9615 16.3366 21.0016 15.6686 21.0002 15.0001C21.0013 14.3316 20.9612 13.6637 20.8802 13.0001H22.7402C23.087 14.3109 23.087 15.6893 22.7402 17.0001Z" fill="white"/>
<defs>
<linearGradient id="paint0_linear_8_910" x1="5.66038" y1="3.11463e-07" x2="27.0511" y2="27.8052" gradientUnits="userSpaceOnUse">
<stop stop-color="#96C8FF"/>
<stop offset="1" stop-color="#C0BAEE"/>
</linearGradient>
</defs>
</svg>
