<svg width="30" height="30" viewBox="0 0 30 30" fill="none" xmlns="http://www.w3.org/2000/svg">
<rect width="30" height="30" rx="2" fill="url(#paint0_linear_8_873)"/>
<path d="M23.8701 20.25L21.1601 15.57C21.7146 14.5515 22.0035 13.4097 22.0001 12.25C22.0001 10.3935 21.2626 8.61301 19.9498 7.30025C18.6371 5.9875 16.8566 5.25 15.0001 5.25C13.1436 5.25 11.3631 5.9875 10.0503 7.30025C8.73757 8.61301 8.00007 10.3935 8.00007 12.25C7.99663 13.4097 8.28553 14.5515 8.84007 15.57L6.13007 20.25C6.04213 20.4023 5.99592 20.5751 5.99609 20.751C5.99627 20.9269 6.04282 21.0996 6.13106 21.2517C6.2193 21.4039 6.34611 21.53 6.49868 21.6175C6.65125 21.705 6.8242 21.7507 7.00007 21.75H9.87007L11.3301 24.21C11.3793 24.2915 11.4399 24.3656 11.5101 24.43C11.6955 24.6087 11.9426 24.709 12.2001 24.71H12.3401C12.491 24.6893 12.6353 24.6345 12.7618 24.5495C12.8883 24.4646 12.9938 24.3519 13.0701 24.22L15.0001 20.9L16.9301 24.25C17.0075 24.38 17.1134 24.4908 17.2399 24.5739C17.3663 24.6571 17.51 24.7104 17.6601 24.73H17.8001C18.061 24.7316 18.3122 24.6311 18.5001 24.45C18.5673 24.3893 18.6247 24.3184 18.6701 24.24L20.1301 21.78H23.0001C23.1763 21.7807 23.3495 21.7348 23.5023 21.647C23.6551 21.5592 23.782 21.4326 23.8701 21.28C23.9635 21.1245 24.0129 20.9464 24.0129 20.765C24.0129 20.5836 23.9635 20.4055 23.8701 20.25ZM12.1901 21.78L11.3001 20.29C11.2124 20.1422 11.0882 20.0194 10.9393 19.9336C10.7904 19.8478 10.6219 19.8018 10.4501 19.8H8.72007L10.1501 17.32C11.1348 18.2689 12.3759 18.9085 13.7201 19.16L12.1901 21.78ZM15.0001 17.25C14.0112 17.25 13.0445 16.9568 12.2222 16.4073C11.4 15.8579 10.7591 15.077 10.3807 14.1634C10.0022 13.2498 9.90322 12.2445 10.0961 11.2745C10.2891 10.3046 10.7653 9.41373 11.4645 8.71447C12.1638 8.0152 13.0547 7.539 14.0246 7.34607C14.9945 7.15315 15.9999 7.25216 16.9135 7.6306C17.8271 8.00904 18.608 8.6499 19.1574 9.47215C19.7068 10.2944 20.0001 11.2611 20.0001 12.25C20.0001 13.5761 19.4733 14.8479 18.5356 15.7855C17.5979 16.7232 16.3262 17.25 15.0001 17.25ZM19.5501 19.8C19.3782 19.8018 19.2097 19.8478 19.0609 19.9336C18.912 20.0194 18.7877 20.1422 18.7001 20.29L17.8101 21.78L16.2901 19.13C17.6296 18.8734 18.866 18.2343 19.8501 17.29L21.2801 19.77L19.5501 19.8Z" fill="white"/>
<defs>
<linearGradient id="paint0_linear_8_873" x1="5.66038" y1="3.11463e-07" x2="27.0511" y2="27.8052" gradientUnits="userSpaceOnUse">
<stop stop-color="#96C8FF"/>
<stop offset="1" stop-color="#C0BAEE"/>
</linearGradient>
</defs>
</svg>
