<svg width="30" height="30" viewBox="0 0 30 30" fill="none" xmlns="http://www.w3.org/2000/svg">
<rect width="30" height="30" rx="2" fill="url(#paint0_linear_8_850)"/>
<path d="M11.4683 11.3951L11.4663 11.3961L11.4633 11.3981L11.4683 11.3951ZM21.4223 11.2081C21.3527 11.1409 21.2755 11.0822 21.1923 11.0331C21.0744 10.9637 20.9436 10.9192 20.8079 10.9024C20.6722 10.8856 20.5344 10.8968 20.4032 10.9353C20.272 10.9738 20.1501 11.0388 20.045 11.1263C19.9399 11.2139 19.8539 11.322 19.7923 11.4441C19.4479 12.123 18.9728 12.7272 18.3943 13.2221C18.483 12.7236 18.5278 12.2183 18.5283 11.7121C18.5302 10.1722 18.124 8.65933 17.3511 7.32748C16.5782 5.99564 15.4662 4.89239 14.1283 4.13006C13.9808 4.04629 13.8145 4.00138 13.6449 3.99957C13.4754 3.99775 13.3081 4.03909 13.159 4.11969C13.0098 4.20028 12.8835 4.31749 12.7921 4.4603C12.7006 4.60311 12.647 4.76683 12.6363 4.93606C12.5803 5.88416 12.3324 6.81102 11.9077 7.66051C11.4829 8.50999 10.8901 9.26441 10.1653 9.87806L9.93526 10.0651C9.17688 10.5753 8.50561 11.2044 7.94726 11.9281C7.07954 13.0212 6.47845 14.3014 6.19168 15.6673C5.90491 17.0332 5.94033 18.4471 6.29515 19.7969C6.64998 21.1467 7.31443 22.3952 8.23581 23.4435C9.15719 24.4918 10.3102 25.311 11.6033 25.8361C11.7551 25.8979 11.9198 25.9214 12.0828 25.9046C12.2459 25.8878 12.4023 25.8311 12.5383 25.7397C12.6743 25.6482 12.7858 25.5247 12.8628 25.38C12.9399 25.2354 12.9802 25.074 12.9803 24.9101C12.9794 24.8041 12.9626 24.6989 12.9303 24.5981C12.7065 23.7571 12.6421 22.8817 12.7403 22.0171C13.6867 23.8016 15.2058 25.2161 17.0533 26.0331C17.2787 26.1338 17.5334 26.1474 17.7683 26.0711C19.2277 25.5999 20.5425 24.7634 21.5877 23.6411C22.6328 22.5187 23.3737 21.1478 23.7398 19.6585C24.1059 18.1692 24.0852 16.611 23.6796 15.132C23.274 13.653 22.4969 12.3022 21.4223 11.2081ZM17.5173 24.0391C16.6456 23.5974 15.8766 22.9771 15.2603 22.2187C14.644 21.4603 14.1943 20.5807 13.9403 19.6371C13.8626 19.3193 13.8025 18.9975 13.7603 18.6731C13.7318 18.4665 13.6395 18.274 13.4962 18.1225C13.353 17.971 13.1659 17.868 12.9613 17.8281C12.8983 17.8158 12.8344 17.8098 12.7703 17.8101C12.5946 17.8099 12.4219 17.856 12.2697 17.9438C12.1175 18.0316 11.9911 18.1579 11.9033 18.3101C11.0737 19.7413 10.6566 21.3743 10.6983 23.0281C9.96842 22.4608 9.35844 21.7542 8.90368 20.9494C8.44892 20.1447 8.15842 19.2576 8.04904 18.3397C7.93965 17.4218 8.01354 16.4913 8.26643 15.6022C8.51932 14.7131 8.94618 13.883 9.52226 13.1601C9.95968 12.5919 10.4874 12.0994 11.0843 11.7021C11.1104 11.6853 11.1354 11.6669 11.1593 11.6471C11.1593 11.6471 11.4553 11.4021 11.4653 11.3971C12.8905 10.1921 13.9042 8.57253 14.3653 6.76406C15.4547 7.77143 16.181 9.11032 16.4315 10.5728C16.6819 12.0353 16.4424 13.5396 15.7503 14.8521C15.6587 15.0272 15.621 15.2256 15.6421 15.4222C15.6632 15.6187 15.7421 15.8046 15.8688 15.9564C15.9955 16.1081 16.1644 16.2189 16.354 16.2747C16.5436 16.3306 16.7456 16.3289 16.9343 16.2701C18.466 15.7897 19.8138 14.8516 20.7963 13.5821C21.387 14.4543 21.7732 15.4486 21.9261 16.4909C22.0791 17.5331 21.9948 18.5965 21.6796 19.6017C21.3644 20.6068 20.8264 21.5279 20.1057 22.2962C19.3851 23.0645 18.5002 23.6603 17.5173 24.0391Z" fill="white"/>
<defs>
<linearGradient id="paint0_linear_8_850" x1="5.66038" y1="3.11463e-07" x2="27.0511" y2="27.8052" gradientUnits="userSpaceOnUse">
<stop stop-color="#96C8FF"/>
<stop offset="1" stop-color="#C0BAEE"/>
</linearGradient>
</defs>
</svg>
