<svg width="30" height="30" viewBox="0 0 30 30" fill="none" xmlns="http://www.w3.org/2000/svg">
<rect width="30" height="30" rx="2" fill="url(#paint0_linear_8_864)"/>
<path d="M25.0005 14.0002C25.0033 13.2953 24.8198 12.6023 24.4686 11.9912C24.1173 11.38 23.6109 10.8726 23.0005 10.5202C23.0155 10.3472 23.0155 10.1732 23.0005 10.0002C23.0005 9.20453 22.6844 8.44147 22.1218 7.87886C21.5592 7.31625 20.7961 7.00018 20.0005 7.00018H19.8205C19.6539 6.53849 19.3767 6.12471 19.013 5.79512C18.6493 5.46554 18.2104 5.23021 17.7346 5.10978C17.2588 4.98935 16.7607 4.9875 16.284 5.10438C15.8073 5.22126 15.3666 5.45331 15.0005 5.78018C14.6344 5.45331 14.1936 5.22126 13.7169 5.10438C13.2403 4.9875 12.7422 4.98935 12.2664 5.10978C11.7906 5.23021 11.3516 5.46554 10.9879 5.79512C10.6243 6.12471 10.347 6.53849 10.1805 7.00018H10.0005C9.20482 7.00018 8.44176 7.31625 7.87915 7.87886C7.31654 8.44147 7.00047 9.20453 7.00047 10.0002C6.98542 10.1732 6.98542 10.3472 7.00047 10.5202C6.43293 10.841 5.9524 11.2956 5.60071 11.8445C5.24902 12.3935 5.03683 13.02 4.98261 13.6697C4.92839 14.3194 5.03378 14.9725 5.28961 15.5721C5.54544 16.1717 5.94396 16.6997 6.45047 17.1102C6.12274 17.7214 5.95959 18.4074 5.97702 19.1008C5.99445 19.7941 6.19187 20.471 6.5499 21.0651C6.90792 21.6591 7.41426 22.1498 8.0192 22.4891C8.62415 22.8283 9.30691 23.0045 10.0005 23.0002H10.1805C10.347 23.4619 10.6243 23.8756 10.9879 24.2052C11.3516 24.5348 11.7906 24.7701 12.2664 24.8906C12.7422 25.011 13.2403 25.0129 13.7169 24.896C14.1936 24.7791 14.6344 24.547 15.0005 24.2202C15.3666 24.547 15.8073 24.7791 16.284 24.896C16.7607 25.0129 17.2588 25.011 17.7346 24.8906C18.2104 24.7701 18.6493 24.5348 19.013 24.2052C19.3767 23.8756 19.6539 23.4619 19.8205 23.0002H20.0005C20.6898 22.9958 21.3663 22.8134 21.9644 22.4706C22.5624 22.1278 23.0617 21.6362 23.4139 21.0436C23.766 20.451 23.9591 19.7775 23.9742 19.0883C23.9894 18.3991 23.8262 17.7177 23.5005 17.1102C23.9669 16.7367 24.3438 16.2635 24.6033 15.7254C24.8629 15.1872 24.9986 14.5977 25.0005 14.0002ZM14.0005 11.5502C13.7827 11.4256 13.5553 11.3186 13.3205 11.2302C13.0685 11.1453 12.7932 11.164 12.555 11.2822C12.3168 11.4003 12.1353 11.6082 12.0505 11.8602C11.9656 12.1121 11.9843 12.3875 12.1024 12.6257C12.2206 12.8638 12.4285 13.0453 12.6805 13.1302C13.0654 13.2693 13.3984 13.5233 13.6344 13.8577C13.8705 14.1921 13.9983 14.5909 14.0005 15.0002V16.5502C13.7827 16.4256 13.5553 16.3186 13.3205 16.2302C13.0685 16.1453 12.7932 16.164 12.555 16.2822C12.3168 16.4003 12.1353 16.6082 12.0505 16.8602C11.9656 17.1121 11.9843 17.3875 12.1024 17.6257C12.2206 17.8638 12.4285 18.0453 12.6805 18.1302C13.0654 18.2693 13.3984 18.5233 13.6344 18.8577C13.8705 19.1921 13.9983 19.5909 14.0005 20.0002V22.0002C14.0005 22.2654 13.8951 22.5197 13.7076 22.7073C13.52 22.8948 13.2657 23.0002 13.0005 23.0002C12.807 22.9989 12.6181 22.9416 12.4565 22.8351C12.295 22.7286 12.1679 22.5775 12.0905 22.4002C12.2581 22.3018 12.4186 22.1915 12.5705 22.0702C12.6716 21.9861 12.7552 21.883 12.8164 21.7666C12.8777 21.6503 12.9154 21.523 12.9275 21.3921C12.9396 21.2612 12.9257 21.1291 12.8868 21.0036C12.8478 20.878 12.7845 20.7613 12.7005 20.6602C12.6164 20.5591 12.5133 20.4755 12.3969 20.4142C12.2806 20.353 12.1533 20.3152 12.0224 20.3032C11.8915 20.2911 11.7594 20.3049 11.6339 20.3439C11.5083 20.3828 11.3916 20.4461 11.2905 20.5302C10.9294 20.8342 10.4725 21.0006 10.0005 21.0002C9.47004 21.0002 8.96133 20.7895 8.58626 20.4144C8.21119 20.0393 8.00047 19.5306 8.00047 19.0002C8.00526 18.6238 8.11618 18.2564 8.32047 17.9402C8.54489 17.9804 8.77247 18.0005 9.00047 18.0002C9.26569 18.0002 9.52004 17.8948 9.70758 17.7073C9.89512 17.5197 10.0005 17.2654 10.0005 17.0002C10.0005 16.735 9.89512 16.4806 9.70758 16.2931C9.52004 16.1055 9.26569 16.0002 9.00047 16.0002C8.76426 16.0015 8.53 15.9574 8.31047 15.8702C7.95082 15.7405 7.63588 15.5104 7.40296 15.2072C7.17005 14.904 7.02892 14.5404 6.9963 14.1594C6.96368 13.7785 7.04093 13.3962 7.2189 13.0578C7.39687 12.7194 7.66811 12.4392 8.00047 12.2502C8.14257 12.3809 8.29657 12.4981 8.46047 12.6002C8.69121 12.7328 8.96518 12.7683 9.2221 12.6989C9.47903 12.6295 9.69786 12.4609 9.83047 12.2302C9.96308 11.9994 9.9986 11.7255 9.92921 11.4685C9.85982 11.2116 9.69121 10.9928 9.46047 10.8602C9.3197 10.7825 9.2023 10.6686 9.12047 10.5302C9.02802 10.3696 8.98619 10.1849 9.00047 10.0002C9.00047 9.73496 9.10583 9.48061 9.29337 9.29307C9.4809 9.10553 9.73526 9.00018 10.0005 9.00018C10.0701 8.99046 10.1408 8.99046 10.2105 9.00018C10.2634 9.16085 10.3269 9.31785 10.4005 9.47018C10.4658 9.58476 10.5532 9.68529 10.6575 9.76598C10.7619 9.84666 10.8811 9.90591 11.0085 9.9403C11.1358 9.97469 11.2687 9.98355 11.3995 9.96637C11.5303 9.94918 11.6563 9.9063 11.7705 9.84018C11.9922 9.70678 12.1536 9.49265 12.2207 9.24277C12.2878 8.99289 12.2555 8.72672 12.1305 8.50018C12.0466 8.34678 12.0019 8.17501 12.0005 8.00018C12.0005 7.73496 12.1058 7.48061 12.2934 7.29307C12.4809 7.10553 12.7353 7.00018 13.0005 7.00018C13.2657 7.00018 13.52 7.10553 13.7076 7.29307C13.8951 7.48061 14.0005 7.73496 14.0005 8.00018V11.5502ZM21.6905 15.8702C21.471 15.9574 21.2367 16.0015 21.0005 16.0002C20.7353 16.0002 20.4809 16.1055 20.2934 16.2931C20.1058 16.4806 20.0005 16.735 20.0005 17.0002C20.0005 17.2654 20.1058 17.5197 20.2934 17.7073C20.4809 17.8948 20.7353 18.0002 21.0005 18.0002C21.2285 18.0005 21.4561 17.9804 21.6805 17.9402C21.8848 18.2564 21.9957 18.6238 22.0005 19.0002C22.0005 19.5306 21.7898 20.0393 21.4147 20.4144C21.0396 20.7895 20.5309 21.0002 20.0005 21.0002C19.5285 21.0006 19.0715 20.8342 18.7105 20.5302C18.5063 20.3604 18.243 20.2788 17.9785 20.3032C17.7141 20.3275 17.4702 20.456 17.3005 20.6602C17.1307 20.8644 17.0491 21.1277 17.0735 21.3921C17.0978 21.6565 17.2263 21.9004 17.4305 22.0702C17.5824 22.1915 17.7428 22.3018 17.9105 22.4002C17.8331 22.5775 17.7059 22.7286 17.5444 22.8351C17.3829 22.9416 17.1939 22.9989 17.0005 23.0002C16.7353 23.0002 16.4809 22.8948 16.2934 22.7073C16.1058 22.5197 16.0005 22.2654 16.0005 22.0002V20.0002C16.0027 19.5909 16.1305 19.1921 16.3665 18.8577C16.6026 18.5233 16.9355 18.2693 17.3205 18.1302C17.5724 18.0453 17.7804 17.8638 17.8985 17.6257C18.0166 17.3875 18.0353 17.1121 17.9505 16.8602C17.8656 16.6082 17.6841 16.4003 17.446 16.2822C17.2078 16.164 16.9324 16.1453 16.6805 16.2302C16.4457 16.3186 16.2183 16.4256 16.0005 16.5502V15.0002C16.0027 14.5909 16.1305 14.1921 16.3665 13.8577C16.6026 13.5233 16.9355 13.2693 17.3205 13.1302C17.4452 13.0882 17.5605 13.022 17.6597 12.9354C17.7588 12.8488 17.84 12.7436 17.8985 12.6257C17.957 12.5077 17.9917 12.3794 18.0006 12.2481C18.0095 12.1167 17.9925 11.9849 17.9505 11.8602C17.9084 11.7354 17.8423 11.6202 17.7557 11.521C17.6691 11.4218 17.5639 11.3407 17.446 11.2822C17.328 11.2237 17.1997 11.189 17.0684 11.18C16.937 11.1711 16.8052 11.1882 16.6805 11.2302C16.4457 11.3186 16.2183 11.4256 16.0005 11.5502V8.00018C16.0005 7.73496 16.1058 7.48061 16.2934 7.29307C16.4809 7.10553 16.7353 7.00018 17.0005 7.00018C17.2657 7.00018 17.52 7.10553 17.7076 7.29307C17.8951 7.48061 18.0005 7.73496 18.0005 8.00018C17.999 8.17501 17.9544 8.34678 17.8705 8.50018C17.8039 8.61371 17.7605 8.73927 17.7426 8.86964C17.7246 9.00001 17.7326 9.13263 17.7661 9.25991C17.7995 9.38718 17.8578 9.5066 17.9375 9.61133C18.0171 9.71605 18.1167 9.80401 18.2305 9.87018C18.3446 9.9363 18.4707 9.97918 18.6015 9.99637C18.7323 10.0135 18.8651 10.0047 18.9925 9.9703C19.1198 9.93591 19.2391 9.87666 19.3434 9.79598C19.4478 9.7153 19.5351 9.61476 19.6005 9.50018C19.6753 9.33812 19.7388 9.17105 19.7905 9.00018C19.8601 8.99046 19.9308 8.99046 20.0005 9.00018C20.2657 9.00018 20.52 9.10553 20.7076 9.29307C20.8951 9.48061 21.0005 9.73496 21.0005 10.0002C20.9989 10.1962 20.9398 10.3875 20.8305 10.5502C20.7487 10.6799 20.6351 10.7867 20.5005 10.8602C20.2697 10.9928 20.1011 11.2116 20.0317 11.4685C19.9623 11.7255 19.9979 11.9994 20.1305 12.2302C20.2631 12.4609 20.4819 12.6295 20.7388 12.6989C20.9958 12.7683 21.2697 12.7328 21.5005 12.6002C21.68 12.5031 21.8478 12.3856 22.0005 12.2502C22.334 12.4358 22.6074 12.713 22.7884 13.049C22.9695 13.385 23.0506 13.7658 23.0222 14.1465C22.9938 14.5271 22.8571 14.8916 22.6282 15.1971C22.3993 15.5025 22.0878 15.7361 21.7305 15.8702H21.6905Z" fill="white"/>
<defs>
<linearGradient id="paint0_linear_8_864" x1="5.66038" y1="3.11463e-07" x2="27.0511" y2="27.8052" gradientUnits="userSpaceOnUse">
<stop stop-color="#96C8FF"/>
<stop offset="1" stop-color="#C0BAEE"/>
</linearGradient>
</defs>
</svg>
