<?xml version="1.0" encoding="UTF-8"?> <svg xmlns="http://www.w3.org/2000/svg" xmlns:xlink="http://www.w3.org/1999/xlink" width="1614px" height="549px" viewBox="0 0 1614 549"> <!-- Generator: Sketch 43.2 (39069) - http://www.bohemiancoding.com/sketch --> <title>Untitled 2</title> <desc>Created with Sketch.</desc> <defs></defs> <g id="Page-1" stroke="none" stroke-width="1" fill="none" fill-rule="evenodd"> <g id="vc" transform="translate(23.000000, 96.000000)" fill-rule="nonzero" fill="#000000"> <path d="M564.9,295.7 C499,295.7 451.4,242.1 451.4,176.2 C451.4,110.3 498.3,53.7 566.9,53.7 C597.3,53.7 618.9,60.8 637.7,72.5 L637.7,130.4 L694.4,130.4 L694.4,46 L683.5,37.5 C652.3,13 604.7,0 564.9,0 C467.7,0 388.7,79 388.7,176.2 C388.7,273.4 467.7,352.4 564.9,352.4 C625.6,352.4 671.3,327.1 705,283.1 L660,248.7 C637.1,278.6 602.5,295.7 564.9,295.7 Z M1524.5,292.7 L1522.5,211.5 L1522.5,13.4 L1404.3,13.4 L1404.3,70.1 L1462.8,70.1 L1462.8,204.4 C1462.8,262.3 1418.5,303.2 1373.9,303.2 C1329.3,303.2 1306,272.3 1306,214.4 L1306,13.4 L1195.6,13.4 L1195.6,70.1 L1246.3,70.1 L1246.3,224.4 C1246.3,302.9 1290.3,356.9 1368.9,356.9 C1414,356.9 1448.4,332 1468.9,293.3 L1469.8,293.3 L1477.9,347.3 L1568.7,347.3 L1568.7,292.6 L1524.5,292.6 L1524.5,292.7 Z M191.5,257 L190.2,257 L104.9,8.3 L0,8.3 L0,65 L59,65 L160.6,348.5 L214.6,348.5 L214.6,348.4 L214.6,348.4 L320.5,65 L375.6,65 L375.6,8.3 L277.2,8.3 L191.5,257 Z M749.8,349.1 L808.1,349.1 L808.1,290.8 L749.8,290.8 L749.8,349.1 Z M975.2,79.1 L974.5,79.1 L970.8,13.4 L866.6,13.4 L866.6,65.1 L922.1,65.1 L922.1,292.6 L866.6,292.6 L866.6,347.3 L1124,347.3 L1124,293.6 L980.8,293.6 L980.8,156.3 C987.3,106.6 1024.5,64.1 1075.4,64.1 L1075.4,64.1 L1076.3,64.1 L1075.3,114.9 L1132,114.9 L1132,12.3 L1087.3,12.3 C1035.9,12.3 997.8,40.1 975.2,79.1 Z" id="Shape"></path> </g> </g> </svg> 